<?xml version="1.0" standalone="no"?>
<!DOCTYPE svg PUBLIC "-//W3C//DTD SVG 20010904//EN"
 "http://www.w3.org/TR/2001/REC-SVG-20010904/DTD/svg10.dtd">
<svg version="1.0" xmlns="http://www.w3.org/2000/svg"
 width="492.000000pt" height="492.000000pt" viewBox="0 0 492.000000 492.000000"
 preserveAspectRatio="xMidYMid meet">
<metadata>
Created by potrace 1.11, written by Peter Selinger 2001-2013
</metadata>
<g transform="translate(0.000000,492.000000) scale(0.100000,-0.100000)"
fill="#000000" stroke="none">
<path d="M1669 4272 c-4 -37 -3 -36 -139 -162 -34 -31 -332 -316 -429 -410
-26 -25 -97 -93 -158 -152 l-112 -108 -66 0 -66 0 3 -1179 c1 -649 -1 -1183
-5 -1187 -4 -4 -7 -83 -7 -176 l0 -168 423 0 c232 -1 839 -3 1349 -5 543 -2
930 0 933 6 3 4 6 51 7 103 l0 94 150 124 c83 67 159 130 168 138 10 8 37 31
61 50 23 19 128 106 233 192 187 154 192 158 238 158 35 0 50 5 56 18 5 10 8
499 7 1142 -1 619 1 1130 4 1135 3 6 7 83 9 173 l3 162 -38 1 c-21 0 -105 2
-188 4 -82 2 -269 6 -415 9 -146 4 -359 8 -475 11 -428 10 -647 15 -905 20
-146 3 -349 8 -452 10 -104 2 -188 1 -189 -3z m716 -347 c171 -4 371 -8 445
-10 74 -2 284 -6 465 -10 182 -5 345 -8 363 -8 28 1 31 -2 20 -12 -7 -7 -125
-108 -262 -226 l-250 -213 -585 0 -586 -1 -3 235 c-1 129 -1 239 2 245 2 6 21
10 42 9 22 -1 179 -5 349 -9z m-731 -317 c1 -79 0 -148 -2 -155 -2 -8 -52 -11
-163 -11 -87 -1 -159 1 -159 4 0 2 48 51 106 107 59 56 129 125 158 152 28 28
53 50 55 49 2 -2 4 -67 5 -146z m2324 -798 c1 -484 1 -880 -1 -881 -1 0 -134
-3 -294 -5 l-293 -5 4 641 c2 352 5 642 7 643 4 3 189 161 270 231 20 17 60
51 89 76 30 25 89 75 132 113 43 37 80 67 81 67 1 0 3 -396 5 -880z m-2343
291 c20 -1 20 -9 23 -659 l3 -658 -268 -214 c-147 -118 -287 -229 -309 -247
l-42 -34 -1 608 c-2 754 -3 1174 -2 1190 1 7 23 13 59 15 48 3 472 2 537 -1z
m1422 -587 c-2 -518 -4 -593 -17 -597 -8 -2 -202 -5 -430 -6 -228 -2 -459 -4
-512 -5 -82 -2 -98 1 -99 14 -3 59 -5 1167 -2 1175 2 6 189 10 533 11 l529 1
-2 -593z m603 -934 c-1 -4 -73 -64 -222 -183 l-48 -39 0 111 0 110 43 3 c67 5
227 3 227 -2z m-612 -259 l-3 -256 -845 0 c-465 0 -853 2 -863 4 -24 5 -21 7
173 161 80 63 147 117 150 120 3 3 48 39 100 80 52 41 97 77 100 80 3 3 21 17
40 31 l35 25 315 3 c173 1 316 3 317 4 1 1 110 2 242 3 l241 1 -2 -256z"/>
</g>
</svg>
