<?xml version="1.0" encoding="utf-8"?>
<svg xmlns="http://www.w3.org/2000/svg" xmlns:xlink="http://www.w3.org/1999/xlink" width="600" height="400" viewBox="0 0 2400 1600">
<defs>
  <clipPath id="clip5000">
    <rect x="0" y="0" width="2000" height="2000"/>
  </clipPath>
</defs>
<defs>
  <clipPath id="clip5001">
    <rect x="0" y="0" width="2400" height="1600"/>
  </clipPath>
</defs>
<polygon clip-path="url(#clip5001)" points="
0,1600 2400,1600 2400,0 0,0 
  " fill="#ffffff" fill-rule="evenodd" fill-opacity="1"/>
<defs>
  <clipPath id="clip5002">
    <rect x="480" y="0" width="1681" height="1600"/>
  </clipPath>
</defs>
<polygon clip-path="url(#clip5001)" points="
252.496,1440.48 2321.26,1440.48 2321.26,125.984 252.496,125.984 
  " fill="#ffffff" fill-rule="evenodd" fill-opacity="1"/>
<defs>
  <clipPath id="clip5003">
    <rect x="252" y="125" width="2070" height="1315"/>
  </clipPath>
</defs>
<polyline clip-path="url(#clip5003)" style="stroke:#000000; stroke-width:2; stroke-opacity:0.1; fill:none" points="
  252.496,1440.48 252.496,125.984 
  "/>
<polyline clip-path="url(#clip5003)" style="stroke:#000000; stroke-width:2; stroke-opacity:0.1; fill:none" points="
  769.687,1440.48 769.687,125.984 
  "/>
<polyline clip-path="url(#clip5003)" style="stroke:#000000; stroke-width:2; stroke-opacity:0.1; fill:none" points="
  1286.88,1440.48 1286.88,125.984 
  "/>
<polyline clip-path="url(#clip5003)" style="stroke:#000000; stroke-width:2; stroke-opacity:0.1; fill:none" points="
  1804.07,1440.48 1804.07,125.984 
  "/>
<polyline clip-path="url(#clip5003)" style="stroke:#000000; stroke-width:2; stroke-opacity:0.1; fill:none" points="
  2321.26,1440.48 2321.26,125.984 
  "/>
<polyline clip-path="url(#clip5003)" style="stroke:#000000; stroke-width:2; stroke-opacity:0.1; fill:none" points="
  252.496,1440.48 2321.26,1440.48 
  "/>
<polyline clip-path="url(#clip5003)" style="stroke:#000000; stroke-width:2; stroke-opacity:0.1; fill:none" points="
  252.496,1177.58 2321.26,1177.58 
  "/>
<polyline clip-path="url(#clip5003)" style="stroke:#000000; stroke-width:2; stroke-opacity:0.1; fill:none" points="
  252.496,914.683 2321.26,914.683 
  "/>
<polyline clip-path="url(#clip5003)" style="stroke:#000000; stroke-width:2; stroke-opacity:0.1; fill:none" points="
  252.496,651.784 2321.26,651.784 
  "/>
<polyline clip-path="url(#clip5003)" style="stroke:#000000; stroke-width:2; stroke-opacity:0.1; fill:none" points="
  252.496,388.884 2321.26,388.884 
  "/>
<polyline clip-path="url(#clip5003)" style="stroke:#000000; stroke-width:2; stroke-opacity:0.1; fill:none" points="
  252.496,125.984 2321.26,125.984 
  "/>
<polyline clip-path="url(#clip5001)" style="stroke:#000000; stroke-width:4; stroke-opacity:1; fill:none" points="
  252.496,1440.48 2321.26,1440.48 
  "/>
<polyline clip-path="url(#clip5001)" style="stroke:#000000; stroke-width:4; stroke-opacity:1; fill:none" points="
  252.496,1440.48 252.496,125.984 
  "/>
<polyline clip-path="url(#clip5001)" style="stroke:#000000; stroke-width:4; stroke-opacity:1; fill:none" points="
  252.496,1440.48 252.496,1420.77 
  "/>
<polyline clip-path="url(#clip5001)" style="stroke:#000000; stroke-width:4; stroke-opacity:1; fill:none" points="
  769.687,1440.48 769.687,1420.77 
  "/>
<polyline clip-path="url(#clip5001)" style="stroke:#000000; stroke-width:4; stroke-opacity:1; fill:none" points="
  1286.88,1440.48 1286.88,1420.77 
  "/>
<polyline clip-path="url(#clip5001)" style="stroke:#000000; stroke-width:4; stroke-opacity:1; fill:none" points="
  1804.07,1440.48 1804.07,1420.77 
  "/>
<polyline clip-path="url(#clip5001)" style="stroke:#000000; stroke-width:4; stroke-opacity:1; fill:none" points="
  2321.26,1440.48 2321.26,1420.77 
  "/>
<polyline clip-path="url(#clip5001)" style="stroke:#000000; stroke-width:4; stroke-opacity:1; fill:none" points="
  252.496,1440.48 283.528,1440.48 
  "/>
<polyline clip-path="url(#clip5001)" style="stroke:#000000; stroke-width:4; stroke-opacity:1; fill:none" points="
  252.496,1177.58 283.528,1177.58 
  "/>
<polyline clip-path="url(#clip5001)" style="stroke:#000000; stroke-width:4; stroke-opacity:1; fill:none" points="
  252.496,914.683 283.528,914.683 
  "/>
<polyline clip-path="url(#clip5001)" style="stroke:#000000; stroke-width:4; stroke-opacity:1; fill:none" points="
  252.496,651.784 283.528,651.784 
  "/>
<polyline clip-path="url(#clip5001)" style="stroke:#000000; stroke-width:4; stroke-opacity:1; fill:none" points="
  252.496,388.884 283.528,388.884 
  "/>
<polyline clip-path="url(#clip5001)" style="stroke:#000000; stroke-width:4; stroke-opacity:1; fill:none" points="
  252.496,125.984 283.528,125.984 
  "/>
<g clip-path="url(#clip5001)">
<text style="fill:#000000; fill-opacity:1; font-family:Arial,Helvetica Neue,Helvetica,sans-serif; font-size:48px; text-anchor:middle;" transform="rotate(0, 252.496, 1494.48)" x="252.496" y="1494.48">-0.5</text>
</g>
<g clip-path="url(#clip5001)">
<text style="fill:#000000; fill-opacity:1; font-family:Arial,Helvetica Neue,Helvetica,sans-serif; font-size:48px; text-anchor:middle;" transform="rotate(0, 769.687, 1494.48)" x="769.687" y="1494.48">0.0</text>
</g>
<g clip-path="url(#clip5001)">
<text style="fill:#000000; fill-opacity:1; font-family:Arial,Helvetica Neue,Helvetica,sans-serif; font-size:48px; text-anchor:middle;" transform="rotate(0, 1286.88, 1494.48)" x="1286.88" y="1494.48">0.5</text>
</g>
<g clip-path="url(#clip5001)">
<text style="fill:#000000; fill-opacity:1; font-family:Arial,Helvetica Neue,Helvetica,sans-serif; font-size:48px; text-anchor:middle;" transform="rotate(0, 1804.07, 1494.48)" x="1804.07" y="1494.48">1.0</text>
</g>
<g clip-path="url(#clip5001)">
<text style="fill:#000000; fill-opacity:1; font-family:Arial,Helvetica Neue,Helvetica,sans-serif; font-size:48px; text-anchor:middle;" transform="rotate(0, 2321.26, 1494.48)" x="2321.26" y="1494.48">1.5</text>
</g>
<g clip-path="url(#clip5001)">
<text style="fill:#000000; fill-opacity:1; font-family:Arial,Helvetica Neue,Helvetica,sans-serif; font-size:48px; text-anchor:end;" transform="rotate(0, 228.496, 1457.98)" x="228.496" y="1457.98">-0.5</text>
</g>
<g clip-path="url(#clip5001)">
<text style="fill:#000000; fill-opacity:1; font-family:Arial,Helvetica Neue,Helvetica,sans-serif; font-size:48px; text-anchor:end;" transform="rotate(0, 228.496, 1195.08)" x="228.496" y="1195.08">0.0</text>
</g>
<g clip-path="url(#clip5001)">
<text style="fill:#000000; fill-opacity:1; font-family:Arial,Helvetica Neue,Helvetica,sans-serif; font-size:48px; text-anchor:end;" transform="rotate(0, 228.496, 932.183)" x="228.496" y="932.183">0.5</text>
</g>
<g clip-path="url(#clip5001)">
<text style="fill:#000000; fill-opacity:1; font-family:Arial,Helvetica Neue,Helvetica,sans-serif; font-size:48px; text-anchor:end;" transform="rotate(0, 228.496, 669.284)" x="228.496" y="669.284">1.0</text>
</g>
<g clip-path="url(#clip5001)">
<text style="fill:#000000; fill-opacity:1; font-family:Arial,Helvetica Neue,Helvetica,sans-serif; font-size:48px; text-anchor:end;" transform="rotate(0, 228.496, 406.384)" x="228.496" y="406.384">1.5</text>
</g>
<g clip-path="url(#clip5001)">
<text style="fill:#000000; fill-opacity:1; font-family:Arial,Helvetica Neue,Helvetica,sans-serif; font-size:48px; text-anchor:end;" transform="rotate(0, 228.496, 143.484)" x="228.496" y="143.484">2.0</text>
</g>
<g clip-path="url(#clip5001)">
<text style="fill:#000000; fill-opacity:1; font-family:Arial,Helvetica Neue,Helvetica,sans-serif; font-size:84px; text-anchor:middle;" transform="rotate(0, 1286.88, 73.2)" x="1286.88" y="73.2">Visual Newton-Raphson</text>
</g>
<g clip-path="url(#clip5001)">
<text style="fill:#000000; fill-opacity:1; font-family:Arial,Helvetica Neue,Helvetica,sans-serif; font-size:66px; text-anchor:middle;" transform="rotate(0, 1286.88, 1590.4)" x="1286.88" y="1590.4">x</text>
</g>
<g clip-path="url(#clip5001)">
<text style="fill:#000000; fill-opacity:1; font-family:Arial,Helvetica Neue,Helvetica,sans-serif; font-size:66px; text-anchor:middle;" transform="rotate(-90, 57.6, 783.233)" x="57.6" y="783.233">y</text>
</g>
<polyline clip-path="url(#clip5003)" style="stroke:#009af9; stroke-width:4; stroke-opacity:1; fill:none" points="
  -4351.71,-11711.9 -4301.21,-11458.9 -3834.19,-9238.52 -3367.17,-7232.48 -3086.51,-6130.05 -2805.85,-5105.04 -2568.56,-4298.81 -2331.26,-3547.92 -2073.5,-2794.96 -1815.73,-2107.3 
  -1578.09,-1531.19 -1340.45,-1010.59 -1085.68,-514.095 -830.905,-81.4002 -535.725,340.143 -240.545,676.049 21.7764,902.694 284.098,1061.71 514.13,1145.49 744.162,1177.26 
  994.959,1152.64 1245.76,1066.21 1498.04,916.88 1750.33,704.997 2029.27,397.916 2308.2,14.3627 2573.6,-421.573 2839,-926.739 3114.96,-1525.41 3390.91,-2198.92 
  3623.21,-2823.9 3855.5,-3501.91 4139.11,-4401.58 4422.72,-5380.31 4689.31,-6372.43 4955.91,-7434.41 5383.02,-9281.38 5810.14,-11307.6 5875.87,-11635.4 
  "/>
<polyline clip-path="url(#clip5003)" style="stroke:#e26f46; stroke-width:4; stroke-opacity:1; fill:none" points="
  -206624,1177.58 209198,1177.58 
  "/>
<polyline clip-path="url(#clip5003)" style="stroke:#420a67; stroke-width:12; stroke-opacity:1; fill:none" points="
  1804.07,651.784 1286.88,1177.58 
  "/>
<polyline clip-path="url(#clip5003)" style="stroke:#420a67; stroke-width:12; stroke-opacity:1; fill:none" points="
  1286.88,1177.58 1286.88,1046.13 
  "/>
<polyline clip-path="url(#clip5003)" style="stroke:#942666; stroke-width:12; stroke-opacity:1; fill:none" points="
  1286.88,1046.13 1028.28,1177.58 
  "/>
<polyline clip-path="url(#clip5003)" style="stroke:#942666; stroke-width:12; stroke-opacity:1; fill:none" points="
  1028.28,1177.58 1028.28,1144.72 
  "/>
<polyline clip-path="url(#clip5003)" style="stroke:#db503a; stroke-width:12; stroke-opacity:1; fill:none" points="
  1028.28,1144.72 898.985,1177.58 
  "/>
<polyline clip-path="url(#clip5003)" style="stroke:#db503a; stroke-width:12; stroke-opacity:1; fill:none" points="
  898.985,1177.58 898.985,1169.37 
  "/>
<polyline clip-path="url(#clip5003)" style="stroke:#fba40a; stroke-width:12; stroke-opacity:1; fill:none" points="
  898.985,1169.37 834.336,1177.58 
  "/>
<polyline clip-path="url(#clip5003)" style="stroke:#fba40a; stroke-width:12; stroke-opacity:1; fill:none" points="
  834.336,1177.58 834.336,1175.53 
  "/>
<polyline clip-path="url(#clip5003)" style="stroke:#fcfea4; stroke-width:12; stroke-opacity:1; fill:none" points="
  834.336,1175.53 802.012,1177.58 
  "/>
<polyline clip-path="url(#clip5003)" style="stroke:#fcfea4; stroke-width:12; stroke-opacity:1; fill:none" points="
  802.012,1177.58 802.012,1177.07 
  "/>
</svg>
