<?xml version="1.0" encoding="utf-8"?>
<svg xmlns="http://www.w3.org/2000/svg" xmlns:xlink="http://www.w3.org/1999/xlink" width="600" height="400" viewBox="0 0 2400 1600">
<defs>
  <clipPath id="clip1900">
    <rect x="0" y="0" width="2000" height="2000"/>
  </clipPath>
</defs>
<defs>
  <clipPath id="clip1901">
    <rect x="0" y="0" width="2400" height="1600"/>
  </clipPath>
</defs>
<polygon clip-path="url(#clip1901)" points="
0,1600 2400,1600 2400,0 0,0 
  " fill="#ffffff" fill-rule="evenodd" fill-opacity="1"/>
<defs>
  <clipPath id="clip1902">
    <rect x="480" y="0" width="1681" height="1600"/>
  </clipPath>
</defs>
<polygon clip-path="url(#clip1901)" points="
252.496,1440.48 2321.26,1440.48 2321.26,125.984 252.496,125.984 
  " fill="#ffffff" fill-rule="evenodd" fill-opacity="1"/>
<defs>
  <clipPath id="clip1903">
    <rect x="252" y="125" width="2070" height="1315"/>
  </clipPath>
</defs>
<polyline clip-path="url(#clip1903)" style="stroke:#000000; stroke-width:2; stroke-opacity:0.1; fill:none" points="
  527.898,1440.48 527.898,125.984 
  "/>
<polyline clip-path="url(#clip1903)" style="stroke:#000000; stroke-width:2; stroke-opacity:0.1; fill:none" points="
  961.601,1440.48 961.601,125.984 
  "/>
<polyline clip-path="url(#clip1903)" style="stroke:#000000; stroke-width:2; stroke-opacity:0.1; fill:none" points="
  1395.3,1440.48 1395.3,125.984 
  "/>
<polyline clip-path="url(#clip1903)" style="stroke:#000000; stroke-width:2; stroke-opacity:0.1; fill:none" points="
  1829.01,1440.48 1829.01,125.984 
  "/>
<polyline clip-path="url(#clip1903)" style="stroke:#000000; stroke-width:2; stroke-opacity:0.1; fill:none" points="
  2262.71,1440.48 2262.71,125.984 
  "/>
<polyline clip-path="url(#clip1903)" style="stroke:#000000; stroke-width:2; stroke-opacity:0.1; fill:none" points="
  252.496,1196.6 2321.26,1196.6 
  "/>
<polyline clip-path="url(#clip1903)" style="stroke:#000000; stroke-width:2; stroke-opacity:0.1; fill:none" points="
  252.496,938.245 2321.26,938.245 
  "/>
<polyline clip-path="url(#clip1903)" style="stroke:#000000; stroke-width:2; stroke-opacity:0.1; fill:none" points="
  252.496,679.892 2321.26,679.892 
  "/>
<polyline clip-path="url(#clip1903)" style="stroke:#000000; stroke-width:2; stroke-opacity:0.1; fill:none" points="
  252.496,421.54 2321.26,421.54 
  "/>
<polyline clip-path="url(#clip1903)" style="stroke:#000000; stroke-width:2; stroke-opacity:0.1; fill:none" points="
  252.496,163.187 2321.26,163.187 
  "/>
<polyline clip-path="url(#clip1901)" style="stroke:#000000; stroke-width:4; stroke-opacity:1; fill:none" points="
  252.496,1440.48 2321.26,1440.48 
  "/>
<polyline clip-path="url(#clip1901)" style="stroke:#000000; stroke-width:4; stroke-opacity:1; fill:none" points="
  252.496,1440.48 252.496,125.984 
  "/>
<polyline clip-path="url(#clip1901)" style="stroke:#000000; stroke-width:4; stroke-opacity:1; fill:none" points="
  527.898,1440.48 527.898,1420.77 
  "/>
<polyline clip-path="url(#clip1901)" style="stroke:#000000; stroke-width:4; stroke-opacity:1; fill:none" points="
  961.601,1440.48 961.601,1420.77 
  "/>
<polyline clip-path="url(#clip1901)" style="stroke:#000000; stroke-width:4; stroke-opacity:1; fill:none" points="
  1395.3,1440.48 1395.3,1420.77 
  "/>
<polyline clip-path="url(#clip1901)" style="stroke:#000000; stroke-width:4; stroke-opacity:1; fill:none" points="
  1829.01,1440.48 1829.01,1420.77 
  "/>
<polyline clip-path="url(#clip1901)" style="stroke:#000000; stroke-width:4; stroke-opacity:1; fill:none" points="
  2262.71,1440.48 2262.71,1420.77 
  "/>
<polyline clip-path="url(#clip1901)" style="stroke:#000000; stroke-width:4; stroke-opacity:1; fill:none" points="
  252.496,1196.6 283.528,1196.6 
  "/>
<polyline clip-path="url(#clip1901)" style="stroke:#000000; stroke-width:4; stroke-opacity:1; fill:none" points="
  252.496,938.245 283.528,938.245 
  "/>
<polyline clip-path="url(#clip1901)" style="stroke:#000000; stroke-width:4; stroke-opacity:1; fill:none" points="
  252.496,679.892 283.528,679.892 
  "/>
<polyline clip-path="url(#clip1901)" style="stroke:#000000; stroke-width:4; stroke-opacity:1; fill:none" points="
  252.496,421.54 283.528,421.54 
  "/>
<polyline clip-path="url(#clip1901)" style="stroke:#000000; stroke-width:4; stroke-opacity:1; fill:none" points="
  252.496,163.187 283.528,163.187 
  "/>
<g clip-path="url(#clip1901)">
<text style="fill:#000000; fill-opacity:1; font-family:Arial,Helvetica Neue,Helvetica,sans-serif; font-size:48px; text-anchor:middle;" transform="rotate(0, 527.898, 1494.48)" x="527.898" y="1494.48">2</text>
</g>
<g clip-path="url(#clip1901)">
<text style="fill:#000000; fill-opacity:1; font-family:Arial,Helvetica Neue,Helvetica,sans-serif; font-size:48px; text-anchor:middle;" transform="rotate(0, 961.601, 1494.48)" x="961.601" y="1494.48">4</text>
</g>
<g clip-path="url(#clip1901)">
<text style="fill:#000000; fill-opacity:1; font-family:Arial,Helvetica Neue,Helvetica,sans-serif; font-size:48px; text-anchor:middle;" transform="rotate(0, 1395.3, 1494.48)" x="1395.3" y="1494.48">6</text>
</g>
<g clip-path="url(#clip1901)">
<text style="fill:#000000; fill-opacity:1; font-family:Arial,Helvetica Neue,Helvetica,sans-serif; font-size:48px; text-anchor:middle;" transform="rotate(0, 1829.01, 1494.48)" x="1829.01" y="1494.48">8</text>
</g>
<g clip-path="url(#clip1901)">
<text style="fill:#000000; fill-opacity:1; font-family:Arial,Helvetica Neue,Helvetica,sans-serif; font-size:48px; text-anchor:middle;" transform="rotate(0, 2262.71, 1494.48)" x="2262.71" y="1494.48">10</text>
</g>
<g clip-path="url(#clip1901)">
<text style="fill:#000000; fill-opacity:1; font-family:Arial,Helvetica Neue,Helvetica,sans-serif; font-size:48px; text-anchor:end;" transform="rotate(0, 228.496, 1214.1)" x="228.496" y="1214.1">-1.0</text>
</g>
<g clip-path="url(#clip1901)">
<text style="fill:#000000; fill-opacity:1; font-family:Arial,Helvetica Neue,Helvetica,sans-serif; font-size:48px; text-anchor:end;" transform="rotate(0, 228.496, 955.745)" x="228.496" y="955.745">-0.5</text>
</g>
<g clip-path="url(#clip1901)">
<text style="fill:#000000; fill-opacity:1; font-family:Arial,Helvetica Neue,Helvetica,sans-serif; font-size:48px; text-anchor:end;" transform="rotate(0, 228.496, 697.392)" x="228.496" y="697.392">0.0</text>
</g>
<g clip-path="url(#clip1901)">
<text style="fill:#000000; fill-opacity:1; font-family:Arial,Helvetica Neue,Helvetica,sans-serif; font-size:48px; text-anchor:end;" transform="rotate(0, 228.496, 439.04)" x="228.496" y="439.04">0.5</text>
</g>
<g clip-path="url(#clip1901)">
<text style="fill:#000000; fill-opacity:1; font-family:Arial,Helvetica Neue,Helvetica,sans-serif; font-size:48px; text-anchor:end;" transform="rotate(0, 228.496, 180.687)" x="228.496" y="180.687">1.0</text>
</g>
<g clip-path="url(#clip1901)">
<text style="fill:#000000; fill-opacity:1; font-family:Arial,Helvetica Neue,Helvetica,sans-serif; font-size:84px; text-anchor:middle;" transform="rotate(0, 1286.88, 73.2)" x="1286.88" y="73.2">Divergence of 1/x is a zero?</text>
</g>
<g clip-path="url(#clip1901)">
<text style="fill:#000000; fill-opacity:1; font-family:Arial,Helvetica Neue,Helvetica,sans-serif; font-size:66px; text-anchor:middle;" transform="rotate(0, 1286.88, 1590.4)" x="1286.88" y="1590.4">steps</text>
</g>
<g clip-path="url(#clip1901)">
<text style="fill:#000000; fill-opacity:1; font-family:Arial,Helvetica Neue,Helvetica,sans-serif; font-size:66px; text-anchor:middle;" transform="rotate(-90, 57.6, 783.233)" x="57.6" y="783.233">Boundary Position</text>
</g>
<polyline clip-path="url(#clip1903)" style="stroke:#009af9; stroke-width:4; stroke-opacity:1; fill:none" points="
  311.046,1403.28 527.898,783.233 744.749,783.233 961.601,783.233 1178.45,705.728 1395.3,705.728 1612.16,686.351 1829.01,686.351 2045.86,681.507 2262.71,681.507 
  
  "/>
<polyline clip-path="url(#clip1903)" style="stroke:#e26f46; stroke-width:4; stroke-opacity:1; fill:none" points="
  311.046,163.187 527.898,163.187 744.749,473.21 961.601,628.222 1178.45,628.222 1395.3,666.975 1612.16,666.975 1829.01,676.663 2045.86,676.663 2262.71,679.085 
  
  "/>
<polygon clip-path="url(#clip1901)" points="
1677.52,390.944 2249.26,390.944 2249.26,209.504 1677.52,209.504 
  " fill="#ffffff" fill-rule="evenodd" fill-opacity="1"/>
<polyline clip-path="url(#clip1901)" style="stroke:#000000; stroke-width:4; stroke-opacity:1; fill:none" points="
  1677.52,390.944 2249.26,390.944 2249.26,209.504 1677.52,209.504 1677.52,390.944 
  "/>
<polyline clip-path="url(#clip1901)" style="stroke:#009af9; stroke-width:4; stroke-opacity:1; fill:none" points="
  1701.52,269.984 1845.52,269.984 
  "/>
<g clip-path="url(#clip1901)">
<text style="fill:#000000; fill-opacity:1; font-family:Arial,Helvetica Neue,Helvetica,sans-serif; font-size:48px; text-anchor:start;" transform="rotate(0, 1869.52, 287.484)" x="1869.52" y="287.484">Right Boundary</text>
</g>
<polyline clip-path="url(#clip1901)" style="stroke:#e26f46; stroke-width:4; stroke-opacity:1; fill:none" points="
  1701.52,330.464 1845.52,330.464 
  "/>
<g clip-path="url(#clip1901)">
<text style="fill:#000000; fill-opacity:1; font-family:Arial,Helvetica Neue,Helvetica,sans-serif; font-size:48px; text-anchor:start;" transform="rotate(0, 1869.52, 347.964)" x="1869.52" y="347.964">Left Boundary</text>
</g>
</svg>
