<?xml version="1.0" encoding="UTF-8"?>
<svg xmlns="http://www.w3.org/2000/svg"
     xmlns:xlink="http://www.w3.org/1999/xlink"
     xmlns:gadfly="http://www.gadflyjl.org/ns"
     version="1.2"
     width="141.42mm" height="100mm" viewBox="0 0 141.42 100"
     stroke="none"
     fill="#000000"
     stroke-width="0.3"
     font-size="3.88"
>
<g class="plotroot xscalable yscalable" id="img-2c1876f1-1">
  <g font-size="3.88" font-family="'PT Sans','Helvetica Neue','Helvetica',sans-serif" fill="#564A55" stroke="#000000" stroke-opacity="0.000" id="img-2c1876f1-2">
    <text x="76.62" y="88.39" text-anchor="middle" dy="0.6em">x</text>
  </g>
  <g class="guide xlabels" font-size="2.82" font-family="'PT Sans Caption','Helvetica Neue','Helvetica',sans-serif" fill="#6C606B" id="img-2c1876f1-3">
    <text x="18.83" y="81.72" text-anchor="middle" dy="0.6em">0</text>
    <text x="38.09" y="81.72" text-anchor="middle" dy="0.6em">1</text>
    <text x="57.36" y="81.72" text-anchor="middle" dy="0.6em">2</text>
    <text x="76.62" y="81.72" text-anchor="middle" dy="0.6em">3</text>
    <text x="95.89" y="81.72" text-anchor="middle" dy="0.6em">4</text>
    <text x="115.16" y="81.72" text-anchor="middle" dy="0.6em">5</text>
    <text x="134.42" y="81.72" text-anchor="middle" dy="0.6em">6</text>
  </g>
<g clip-path="url(#img-2c1876f1-4)">
  <g id="img-2c1876f1-5">
    <g pointer-events="visible" opacity="1" fill="#000000" fill-opacity="0.000" stroke="#000000" stroke-opacity="0.000" class="guide background" id="img-2c1876f1-6">
      <rect x="16.83" y="5" width="119.6" height="75.72"/>
    </g>
    <g class="guide ygridlines xfixed" stroke-dasharray="0.5,0.5" stroke-width="0.2" stroke="#D0D0E0" id="img-2c1876f1-7">
      <path fill="none" d="M16.83,78.71 L 136.42 78.71"/>
      <path fill="none" d="M16.83,60.79 L 136.42 60.79"/>
      <path fill="none" d="M16.83,42.86 L 136.42 42.86"/>
      <path fill="none" d="M16.83,24.93 L 136.42 24.93"/>
      <path fill="none" d="M16.83,7 L 136.42 7"/>
    </g>
    <g class="guide xgridlines yfixed" stroke-dasharray="0.5,0.5" stroke-width="0.2" stroke="#D0D0E0" id="img-2c1876f1-8">
      <path fill="none" d="M18.83,5 L 18.83 80.72"/>
      <path fill="none" d="M38.09,5 L 38.09 80.72"/>
      <path fill="none" d="M57.36,5 L 57.36 80.72"/>
      <path fill="none" d="M76.62,5 L 76.62 80.72"/>
      <path fill="none" d="M95.89,5 L 95.89 80.72"/>
      <path fill="none" d="M115.16,5 L 115.16 80.72"/>
      <path fill="none" d="M134.42,5 L 134.42 80.72"/>
    </g>
    <g class="plotpanel" id="img-2c1876f1-9">
      <g class="geometry" id="img-2c1876f1-10">
        <g class="color_RGBA{Float32}(0.0f0,0.74736935f0,1.0f0,1.0f0)" stroke="#FFFFFF" stroke-width="0.3" id="img-2c1876f1-11">
          <path d="M85.02,80.48 L 86.26 76.6 87.49 80.48 84.49 78.01 88.02 78.01 z" fill="#00BFFF"/>
          <path d="M88.88,73.31 L 90.11 69.43 91.34 73.31 88.35 70.84 91.87 70.84 z" fill="#00BFFF"/>
          <path d="M92.73,66.14 L 93.96 62.26 95.2 66.14 92.2 63.67 95.73 63.67 z" fill="#00BFFF"/>
          <path d="M96.58,58.96 L 97.82 55.08 99.05 58.96 96.05 56.49 99.58 56.49 z" fill="#00BFFF"/>
          <path d="M100.43,51.79 L 101.67 47.91 102.9 51.79 99.91 49.32 103.43 49.32 z" fill="#00BFFF"/>
          <path d="M104.29,44.62 L 105.52 40.74 106.76 44.62 103.76 42.15 107.29 42.15 z" fill="#00BFFF"/>
          <path d="M108.14,37.45 L 109.38 33.57 110.61 37.45 107.61 34.98 111.14 34.98 z" fill="#00BFFF"/>
          <path d="M111.99,30.28 L 113.23 26.4 114.46 30.28 111.46 27.81 114.99 27.81 z" fill="#00BFFF"/>
          <path d="M115.85,23.11 L 117.08 19.23 118.32 23.11 115.32 20.64 118.85 20.64 z" fill="#00BFFF"/>
          <path d="M119.7,15.94 L 120.94 12.05 122.17 15.94 119.17 13.47 122.7 13.47 z" fill="#00BFFF"/>
          <path d="M123.55,8.76 L 124.79 4.88 126.02 8.76 123.02 6.29 126.55 6.29 z" fill="#00BFFF"/>
          <path d="M74.86,77.3 L 78.39 77.3 76.62 80.13 z" fill="#00BFFF"/>
          <path d="M78.71,70.13 L 82.24 70.13 80.48 72.95 z" fill="#00BFFF"/>
          <path d="M82.57,62.96 L 86.09 62.96 84.33 65.78 z" fill="#00BFFF"/>
          <path d="M86.42,55.79 L 89.95 55.79 88.18 58.61 z" fill="#00BFFF"/>
          <path d="M90.27,48.62 L 93.8 48.62 92.04 51.44 z" fill="#00BFFF"/>
          <path d="M94.13,41.45 L 97.65 41.45 95.89 44.27 z" fill="#00BFFF"/>
          <path d="M97.98,34.27 L 101.51 34.27 99.74 37.1 z" fill="#00BFFF"/>
          <path d="M101.83,27.1 L 105.36 27.1 103.6 29.93 z" fill="#00BFFF"/>
          <path d="M105.69,19.93 L 109.21 19.93 107.45 22.75 z" fill="#00BFFF"/>
          <path d="M109.54,12.76 L 113.07 12.76 111.3 15.58 z" fill="#00BFFF"/>
          <path d="M113.39,5.59 L 116.92 5.59 115.16 8.41 z" fill="#00BFFF"/>
          <path d="M65.23,80.13 L 68.75 80.13 66.99 77.3 z" fill="#00BFFF"/>
          <path d="M69.08,72.95 L 72.61 72.95 70.84 70.13 z" fill="#00BFFF"/>
          <path d="M72.93,65.78 L 76.46 65.78 74.7 62.96 z" fill="#00BFFF"/>
          <path d="M76.79,58.61 L 80.31 58.61 78.55 55.79 z" fill="#00BFFF"/>
          <path d="M80.64,51.44 L 84.17 51.44 82.4 48.62 z" fill="#00BFFF"/>
          <path d="M84.49,44.27 L 88.02 44.27 86.26 41.45 z" fill="#00BFFF"/>
          <path d="M88.35,37.1 L 91.87 37.1 90.11 34.27 z" fill="#00BFFF"/>
          <path d="M92.2,29.93 L 95.73 29.93 93.96 27.1 z" fill="#00BFFF"/>
          <path d="M96.05,22.75 L 99.58 22.75 97.82 19.93 z" fill="#00BFFF"/>
          <path d="M99.91,15.58 L 103.43 15.58 101.67 12.76 z" fill="#00BFFF"/>
          <path d="M103.76,8.41 L 107.29 8.41 105.52 5.59 z" fill="#00BFFF"/>
          <path d="M57.36,77.93 L 58.15 77.14 58.94 77.93 58.15 78.71 58.94 79.5 58.15 80.29 57.36 79.5 56.57 80.29 55.78 79.5 56.57 78.71 55.78 77.93 56.57 77.14 z" fill="#00BFFF"/>
          <path d="M61.21,70.75 L 62 69.97 62.79 70.75 62 71.54 62.79 72.33 62 73.12 61.21 72.33 60.42 73.12 59.63 72.33 60.42 71.54 59.63 70.75 60.42 69.97 z" fill="#00BFFF"/>
          <path d="M65.06,63.58 L 65.85 62.79 66.64 63.58 65.85 64.37 66.64 65.16 65.85 65.95 65.06 65.16 64.28 65.95 63.49 65.16 64.28 64.37 63.49 63.58 64.28 62.79 z" fill="#00BFFF"/>
          <path d="M68.92,56.41 L 69.71 55.62 70.49 56.41 69.71 57.2 70.49 57.99 69.71 58.78 68.92 57.99 68.13 58.78 67.34 57.99 68.13 57.2 67.34 56.41 68.13 55.62 z" fill="#00BFFF"/>
          <path d="M72.77,49.24 L 73.56 48.45 74.35 49.24 73.56 50.03 74.35 50.82 73.56 51.61 72.77 50.82 71.98 51.61 71.19 50.82 71.98 50.03 71.19 49.24 71.98 48.45 z" fill="#00BFFF"/>
          <path d="M76.62,42.07 L 77.41 41.28 78.2 42.07 77.41 42.86 78.2 43.65 77.41 44.44 76.62 43.65 75.83 44.44 75.05 43.65 75.83 42.86 75.05 42.07 75.83 41.28 z" fill="#00BFFF"/>
          <path d="M80.48,34.9 L 81.27 34.11 82.05 34.9 81.27 35.69 82.05 36.47 81.27 37.26 80.48 36.47 79.69 37.26 78.9 36.47 79.69 35.69 78.9 34.9 79.69 34.11 z" fill="#00BFFF"/>
          <path d="M84.33,27.73 L 85.12 26.94 85.91 27.73 85.12 28.51 85.91 29.3 85.12 30.09 84.33 29.3 83.54 30.09 82.75 29.3 83.54 28.51 82.75 27.73 83.54 26.94 z" fill="#00BFFF"/>
          <path d="M88.18,20.55 L 88.97 19.77 89.76 20.55 88.97 21.34 89.76 22.13 88.97 22.92 88.18 22.13 87.39 22.92 86.61 22.13 87.39 21.34 86.61 20.55 87.39 19.77 z" fill="#00BFFF"/>
          <path d="M92.04,13.38 L 92.83 12.59 93.61 13.38 92.83 14.17 93.61 14.96 92.83 15.75 92.04 14.96 91.25 15.75 90.46 14.96 91.25 14.17 90.46 13.38 91.25 12.59 z" fill="#00BFFF"/>
          <path d="M95.89,6.21 L 96.68 5.42 97.47 6.21 96.68 7 97.47 7.79 96.68 8.58 95.89 7.79 95.1 8.58 94.31 7.79 95.1 7 94.31 6.21 95.1 5.42 z" fill="#00BFFF"/>
          <path d="M45.96,78.01 L 45.96 79.42 47.02 79.42 47.02 80.48 48.43 80.48 48.43 79.42 49.49 79.42 49.49 78.01 48.43 78.01 48.43 76.95 47.02 76.95 47.02 78.01 z" fill="#00BFFF"/>
          <path d="M49.81,70.84 L 49.81 72.25 50.87 72.25 50.87 73.31 52.28 73.31 52.28 72.25 53.34 72.25 53.34 70.84 52.28 70.84 52.28 69.78 50.87 69.78 50.87 70.84 z" fill="#00BFFF"/>
          <path d="M53.67,63.67 L 53.67 65.08 54.73 65.08 54.73 66.14 56.14 66.14 56.14 65.08 57.19 65.08 57.19 63.67 56.14 63.67 56.14 62.61 54.73 62.61 54.73 63.67 z" fill="#00BFFF"/>
          <path d="M57.52,56.49 L 57.52 57.91 58.58 57.91 58.58 58.96 59.99 58.96 59.99 57.91 61.05 57.91 61.05 56.49 59.99 56.49 59.99 55.44 58.58 55.44 58.58 56.49 z" fill="#00BFFF"/>
          <path d="M61.37,49.32 L 61.37 50.73 62.43 50.73 62.43 51.79 63.84 51.79 63.84 50.73 64.9 50.73 64.9 49.32 63.84 49.32 63.84 48.27 62.43 48.27 62.43 49.32 z" fill="#00BFFF"/>
          <path d="M65.23,42.15 L 65.23 43.56 66.29 43.56 66.29 44.62 67.7 44.62 67.7 43.56 68.75 43.56 68.75 42.15 67.7 42.15 67.7 41.09 66.29 41.09 66.29 42.15 z" fill="#00BFFF"/>
          <path d="M69.08,34.98 L 69.08 36.39 70.14 36.39 70.14 37.45 71.55 37.45 71.55 36.39 72.61 36.39 72.61 34.98 71.55 34.98 71.55 33.92 70.14 33.92 70.14 34.98 z" fill="#00BFFF"/>
          <path d="M72.93,27.81 L 72.93 29.22 73.99 29.22 73.99 30.28 75.4 30.28 75.4 29.22 76.46 29.22 76.46 27.81 75.4 27.81 75.4 26.75 73.99 26.75 73.99 27.81 z" fill="#00BFFF"/>
          <path d="M76.79,20.64 L 76.79 22.05 77.84 22.05 77.84 23.11 79.26 23.11 79.26 22.05 80.31 22.05 80.31 20.64 79.26 20.64 79.26 19.58 77.84 19.58 77.84 20.64 z" fill="#00BFFF"/>
          <path d="M80.64,13.47 L 80.64 14.88 81.7 14.88 81.7 15.94 83.11 15.94 83.11 14.88 84.17 14.88 84.17 13.47 83.11 13.47 83.11 12.41 81.7 12.41 81.7 13.47 z" fill="#00BFFF"/>
          <path d="M84.49,6.29 L 84.49 7.71 85.55 7.71 85.55 8.76 86.96 8.76 86.96 7.71 88.02 7.71 88.02 6.29 86.96 6.29 86.96 5.24 85.55 5.24 85.55 6.29 z" fill="#00BFFF"/>
          <path d="M41.94,69.78 L 43.71 71.54 41.94 73.31 40.18 71.54 z" fill="#00BFFF"/>
          <path d="M45.8,62.61 L 47.56 64.37 45.8 66.14 44.03 64.37 z" fill="#00BFFF"/>
          <path d="M49.65,55.44 L 51.42 57.2 49.65 58.96 47.89 57.2 z" fill="#00BFFF"/>
          <path d="M53.5,48.27 L 55.27 50.03 53.5 51.79 51.74 50.03 z" fill="#00BFFF"/>
          <path d="M57.36,41.09 L 59.12 42.86 57.36 44.62 55.59 42.86 z" fill="#00BFFF"/>
          <path d="M61.21,33.92 L 62.97 35.69 61.21 37.45 59.45 35.69 z" fill="#00BFFF"/>
          <path d="M65.06,26.75 L 66.83 28.51 65.06 30.28 63.3 28.51 z" fill="#00BFFF"/>
          <path d="M68.92,19.58 L 70.68 21.34 68.92 23.11 67.15 21.34 z" fill="#00BFFF"/>
          <path d="M72.77,12.41 L 74.53 14.17 72.77 15.94 71.01 14.17 z" fill="#00BFFF"/>
          <path d="M76.62,5.24 L 78.39 7 76.62 8.76 74.86 7 z" fill="#00BFFF"/>
          <path d="M38.09,76.95 L 39.86 78.71 38.09 80.48 36.33 78.71 z" fill="#00BFFF"/>
          <rect x="31.06" y="67.8" width="2.49" height="2.49" fill="#00BFFF"/>
          <rect x="34.92" y="60.63" width="2.49" height="2.49" fill="#00BFFF"/>
          <rect x="38.77" y="53.46" width="2.49" height="2.49" fill="#00BFFF"/>
          <rect x="42.62" y="46.29" width="2.49" height="2.49" fill="#00BFFF"/>
          <rect x="46.48" y="39.12" width="2.49" height="2.49" fill="#00BFFF"/>
          <rect x="50.33" y="31.94" width="2.49" height="2.49" fill="#00BFFF"/>
          <rect x="54.18" y="24.77" width="2.49" height="2.49" fill="#00BFFF"/>
          <rect x="58.04" y="17.6" width="2.49" height="2.49" fill="#00BFFF"/>
          <rect x="61.89" y="10.43" width="2.49" height="2.49" fill="#00BFFF"/>
          <rect x="65.74" y="3.26" width="2.49" height="2.49" fill="#00BFFF"/>
          <rect x="27.21" y="74.97" width="2.49" height="2.49" fill="#00BFFF"/>
          <use xlink:href="#img-2c1876f1-12" x="18.83" y="78.71" fill="#00BFFF"/>
          <use xlink:href="#img-2c1876f1-12" x="22.68" y="71.54" fill="#00BFFF"/>
          <use xlink:href="#img-2c1876f1-12" x="26.53" y="64.37" fill="#00BFFF"/>
          <use xlink:href="#img-2c1876f1-12" x="30.39" y="57.2" fill="#00BFFF"/>
          <use xlink:href="#img-2c1876f1-12" x="34.24" y="50.03" fill="#00BFFF"/>
          <use xlink:href="#img-2c1876f1-12" x="38.09" y="42.86" fill="#00BFFF"/>
          <use xlink:href="#img-2c1876f1-12" x="41.94" y="35.69" fill="#00BFFF"/>
          <use xlink:href="#img-2c1876f1-12" x="45.8" y="28.51" fill="#00BFFF"/>
          <use xlink:href="#img-2c1876f1-12" x="49.65" y="21.34" fill="#00BFFF"/>
          <use xlink:href="#img-2c1876f1-12" x="53.5" y="14.17" fill="#00BFFF"/>
          <use xlink:href="#img-2c1876f1-12" x="57.36" y="7" fill="#00BFFF"/>
        </g>
      </g>
    </g>
  </g>
</g>
  <g class="guide ylabels" font-size="2.82" font-family="'PT Sans Caption','Helvetica Neue','Helvetica',sans-serif" fill="#6C606B" id="img-2c1876f1-13">
    <text x="15.83" y="78.71" text-anchor="end" dy="0.35em">0.0</text>
    <text x="15.83" y="60.79" text-anchor="end" dy="0.35em">0.5</text>
    <text x="15.83" y="42.86" text-anchor="end" dy="0.35em">1.0</text>
    <text x="15.83" y="24.93" text-anchor="end" dy="0.35em">1.5</text>
    <text x="15.83" y="7" text-anchor="end" dy="0.35em">2.0</text>
  </g>
  <g font-size="3.88" font-family="'PT Sans','Helvetica Neue','Helvetica',sans-serif" fill="#564A55" stroke="#000000" stroke-opacity="0.000" id="img-2c1876f1-14">
    <text x="8.81" y="42.86" text-anchor="end" dy="0.35em">y</text>
  </g>
</g>
<defs>
  <clipPath id="img-2c1876f1-4">
  <path d="M16.83,5 L 136.42 5 136.42 80.72 16.83 80.72" />
</clipPath>
  <g id="img-2c1876f1-12">
    <circle cx="0" cy="0" r="1.76"/>
  </g>
</defs>
</svg>
