<?xml version="1.0" encoding="UTF-8"?>
<svg xmlns="http://www.w3.org/2000/svg"
     xmlns:xlink="http://www.w3.org/1999/xlink"
     xmlns:gadfly="http://www.gadflyjl.org/ns"
     version="1.2"
     width="150mm" height="90mm" viewBox="0 0 150 90"
     stroke="none"
     fill="#000000"
     stroke-width="0.3"
     font-size="3.88"
>
<g stroke="#000000" stroke-opacity="0.000" fill="#002B36" id="img-2139276a-1">
  <rect x="0" y="0" width="150" height="90"/>
</g>
<g class="plotroot xscalable yscalable" id="img-2139276a-2">
  <g font-size="7.06" font-family="'PT Sans','Helvetica Neue','Helvetica',sans-serif" fill="#3AA198" stroke="#000000" stroke-opacity="0.000" id="img-2139276a-3">
    <text x="83.9" y="75.43" text-anchor="middle" dy="0.6em">time</text>
  </g>
  <g class="guide xlabels" font-size="5.29" font-family="'PT Sans Caption','Helvetica Neue','Helvetica',sans-serif" fill="#EEE8D5" id="img-2139276a-4">
    <text x="24.79" y="66.42" text-anchor="middle" dy="0.6em">0</text>
    <text x="62.69" y="66.42" text-anchor="middle" dy="0.6em">π</text>
    <text x="100.58" y="66.42" text-anchor="middle" dy="0.6em">2 π</text>
    <text x="138.47" y="66.42" text-anchor="middle" dy="0.6em">3 π</text>
  </g>
<g clip-path="url(#img-2139276a-5)">
  <g id="img-2139276a-6">
    <g pointer-events="visible" opacity="1" fill="#000000" fill-opacity="0.000" stroke="#000000" stroke-opacity="0.000" class="guide background" id="img-2139276a-7">
      <rect x="22.79" y="15.57" width="122.21" height="49.85"/>
    </g>
    <g class="guide xgridlines yfixed" stroke-dasharray="0.5,0.5" stroke-width="0.2" stroke="#EEE8D5" id="img-2139276a-8">
      <path fill="none" d="M24.79,15.57 L 24.79 65.42"/>
      <path fill="none" d="M62.69,15.57 L 62.69 65.42"/>
      <path fill="none" d="M100.58,15.57 L 100.58 65.42"/>
      <path fill="none" d="M138.47,15.57 L 138.47 65.42"/>
    </g>
    <g class="guide ygridlines xfixed" stroke-dasharray="0.5,0.5" stroke-width="0.2" stroke="#EEE8D5" id="img-2139276a-9">
      <path fill="none" d="M22.79,61.46 L 145 61.46"/>
      <path fill="none" d="M22.79,40.54 L 145 40.54"/>
      <path fill="none" d="M22.79,19.63 L 145 19.63"/>
    </g>
    <g class="plotpanel" id="img-2139276a-10">
      <g stroke-width="0.3" stroke="#000000" stroke-opacity="0.000" class="geometry" fill="#CAE5FF" id="img-2139276a-11">
        <path d="M143,50.3 L 138.18 42.12 133.35 34.02 128.53 27.28 123.7 22.96 118.88 21.75 114.05 23.84 109.23 28.89 104.4 36.12 99.58 44.37 94.75 52.35 89.93 58.8 85.1 62.69 80.28 63.42 75.45 60.87 70.63 55.43 65.8 47.98 60.98 39.68 56.15 31.85 51.33 25.73 46.5 22.27 41.68 22.02 36.85 25.04 36.85 20.85 41.68 17.84 46.5 18.08 51.33 21.54 56.15 27.67 60.98 35.5 65.8 43.8 70.63 51.25 75.45 56.68 80.28 59.24 85.1 58.51 89.93 54.62 94.75 48.17 99.58 40.19 104.4 31.94 109.23 24.71 114.05 19.65 118.88 17.57 123.7 18.78 128.53 23.09 133.35 29.83 138.18 37.93 143 46.12 z"/>
      </g>
      <g stroke-width="0.3" fill="#000000" fill-opacity="0.000" class="geometry" stroke-dasharray="none" stroke="#268BD2" id="img-2139276a-12">
        <path fill="none" d="M24.79,19.63 L 25.25 19.64 25.7 19.69 26.16 19.76 26.62 19.87 27.07 20 27.53 20.16 27.99 20.36 28.44 20.58 28.9 20.83 29.36 21.11 29.81 21.41 30.27 21.75 30.73 22.11 31.18 22.5 31.64 22.91 32.1 23.35 32.55 23.81 33.01 24.3 33.47 24.81 33.92 25.34 34.38 25.89 34.84 26.47 35.29 27.07 35.75 27.68 36.21 28.31 36.66 28.97 37.12 29.63 37.58 30.32 38.03 31.01 38.49 31.72 38.94 32.45 39.4 33.18 39.86 33.93 40.31 34.69 40.77 35.45 41.23 36.22 41.68 37 42.14 37.78 42.6 38.57 43.05 39.36 43.51 40.15 43.97 40.94 44.42 41.73 44.88 42.52 45.34 43.31 45.79 44.09 46.25 44.87 46.71 45.64 47.16 46.4 47.62 47.16 48.08 47.9 48.53 48.64 48.99 49.36 49.45 50.08 49.9 50.77 50.36 51.46 50.82 52.12 51.27 52.77 51.73 53.41 52.19 54.02 52.64 54.62 53.1 55.19 53.55 55.75 54.01 56.28 54.47 56.79 54.92 57.28 55.38 57.74 55.84 58.18 56.29 58.59 56.75 58.98 57.21 59.34 57.66 59.67 58.12 59.98 58.58 60.26 59.03 60.51 59.49 60.73 59.95 60.92 60.4 61.09 60.86 61.22 61.32 61.33 61.77 61.4 62.23 61.45 62.69 61.46 63.14 61.45 63.6 61.4 64.06 61.33 64.51 61.22 64.97 61.09 65.43 60.92 65.88 60.73 66.34 60.51 66.79 60.26 67.25 59.98 67.71 59.67 68.16 59.34 68.62 58.98 69.08 58.59 69.53 58.18 69.99 57.74 70.45 57.28 70.9 56.79 71.36 56.28 71.82 55.75 72.27 55.19 72.73 54.62 73.19 54.02 73.64 53.41 74.1 52.77 74.56 52.12 75.01 51.46 75.47 50.77 75.93 50.08 76.38 49.36 76.84 48.64 77.3 47.9 77.75 47.16 78.21 46.4 78.67 45.64 79.12 44.87 79.58 44.09 80.03 43.31 80.49 42.52 80.95 41.73 81.4 40.94 81.86 40.15 82.32 39.36 82.77 38.57 83.23 37.78 83.69 37 84.14 36.22 84.6 35.45 85.06 34.69 85.51 33.93 85.97 33.18 86.43 32.45 86.88 31.72 87.34 31.01 87.8 30.32 88.25 29.63 88.71 28.97 89.17 28.31 89.62 27.68 90.08 27.07 90.54 26.47 90.99 25.89 91.45 25.34 91.91 24.81 92.36 24.3 92.82 23.81 93.28 23.35 93.73 22.91 94.19 22.5 94.64 22.11 95.1 21.75 95.56 21.41 96.01 21.11 96.47 20.83 96.93 20.58 97.38 20.36 97.84 20.16 98.3 20 98.75 19.87 99.21 19.76 99.67 19.69 100.12 19.64 100.58 19.63 101.04 19.64 101.49 19.69 101.95 19.76 102.41 19.87 102.86 20 103.32 20.16 103.78 20.36 104.23 20.58 104.69 20.83 105.15 21.11 105.6 21.41 106.06 21.75 106.52 22.11 106.97 22.5 107.43 22.91 107.88 23.35 108.34 23.81 108.8 24.3 109.25 24.81 109.71 25.34 110.17 25.89 110.62 26.47 111.08 27.07 111.54 27.68 111.99 28.31 112.45 28.97 112.91 29.63 113.36 30.32 113.82 31.01 114.28 31.72 114.73 32.45 115.19 33.18 115.65 33.93 116.1 34.69 116.56 35.45 117.02 36.22 117.47 37 117.93 37.78 118.39 38.57 118.84 39.36 119.3 40.15 119.76 40.94 120.21 41.73 120.67 42.52 121.12 43.31 121.58 44.09 122.04 44.87 122.49 45.64 122.95 46.4 123.41 47.16 123.86 47.9 124.32 48.64 124.78 49.36 125.23 50.08 125.69 50.77 126.15 51.46 126.6 52.12 127.06 52.77 127.52 53.41 127.97 54.02 128.43 54.62 128.89 55.19 129.34 55.75 129.8 56.28 130.26 56.79 130.71 57.28 131.17 57.74 131.63 58.18 132.08 58.59 132.54 58.98 133 59.34 133.45 59.67 133.91 59.98 134.37 60.26 134.82 60.51 135.28 60.73 135.73 60.92 136.19 61.09 136.65 61.22 137.1 61.33 137.56 61.4 138.02 61.45 138.47 61.46"/>
      </g>
      <g stroke-width="0.3" fill="#000000" fill-opacity="0.000" class="geometry" stroke-dasharray="none" stroke="#268BD2" id="img-2139276a-13">
        <path fill="none" d="M36.85,22.94 L 41.68 19.93 46.5 20.17 51.33 23.63 56.15 29.76 60.98 37.59 65.8 45.89 70.63 53.34 75.45 58.77 80.28 61.33 85.1 60.6 89.93 56.71 94.75 50.26 99.58 42.28 104.4 34.03 109.23 26.8 114.05 21.75 118.88 19.66 123.7 20.87 128.53 25.18 133.35 31.92 138.18 40.03 143 48.21"/>
      </g>
    </g>
  </g>
</g>
  <g class="guide ylabels" font-size="5.29" font-family="'PT Sans Caption','Helvetica Neue','Helvetica',sans-serif" fill="#EEE8D5" id="img-2139276a-14">
    <text x="21.79" y="61.46" text-anchor="end" dy="0.35em">-1</text>
    <text x="21.79" y="40.54" text-anchor="end" dy="0.35em">0</text>
    <text x="21.79" y="19.63" text-anchor="end" dy="0.35em">1</text>
  </g>
  <g font-size="7.06" font-family="'PT Sans','Helvetica Neue','Helvetica',sans-serif" fill="#3AA198" stroke="#000000" stroke-opacity="0.000" id="img-2139276a-15">
    <text x="10.28" y="38.49" text-anchor="middle" dy="0.35em" transform="rotate(-90, 10.28, 40.49)">y axis</text>
  </g>
  <g font-size="7.06" font-family="'PT Sans','Helvetica Neue','Helvetica',sans-serif" fill="#3AA198" stroke="#000000" stroke-opacity="0.000" id="img-2139276a-16">
    <text x="83.9" y="13.57" text-anchor="middle">Important title</text>
  </g>
</g>
<defs>
  <clipPath id="img-2139276a-5">
  <path d="M22.79,15.57 L 145 15.57 145 65.42 22.79 65.42" />
</clipPath>
</defs>
</svg>
