<?xml version="1.0" encoding="UTF-8"?>
<svg xmlns="http://www.w3.org/2000/svg"
     xmlns:xlink="http://www.w3.org/1999/xlink"
     xmlns:gadfly="http://www.gadflyjl.org/ns"
     version="1.2"
     width="152.4mm" height="76.2mm" viewBox="0 0 152.4 76.2"
     stroke="none"
     fill="#000000"
     stroke-width="0.3"
     font-size="3.88"
>
<g stroke="#000000" stroke-opacity="0.000" fill="#002B36" id="img-09facbe3-1">
  <rect x="0" y="0" width="152.4" height="76.2"/>
</g>
<g class="plotroot xscalable yscalable" id="img-09facbe3-2">
  <g font-size="7.06" font-family="'PT Sans','Helvetica Neue','Helvetica',sans-serif" fill="#3AA198" stroke="#000000" stroke-opacity="0.000" id="img-09facbe3-3">
    <text x="83.88" y="61.63" text-anchor="middle" dy="0.6em">time</text>
  </g>
  <g class="guide xlabels" font-size="2.82" font-family="'PT Sans Caption','Helvetica Neue','Helvetica',sans-serif" fill="#EEE8D5" id="img-09facbe3-4">
    <text x="22.35" y="54.96" text-anchor="middle" dy="0.6em">0</text>
    <text x="61.8" y="54.96" text-anchor="middle" dy="0.6em">π</text>
    <text x="101.24" y="54.96" text-anchor="middle" dy="0.6em">2 π</text>
    <text x="140.69" y="54.96" text-anchor="middle" dy="0.6em">3 π</text>
  </g>
<g clip-path="url(#img-09facbe3-5)">
  <g id="img-09facbe3-6">
    <g pointer-events="visible" opacity="1" fill="#000000" fill-opacity="0.000" stroke="#000000" stroke-opacity="0.000" class="guide background" id="img-09facbe3-7">
      <rect x="20.35" y="15.57" width="127.05" height="38.39"/>
    </g>
    <g class="guide xgridlines yfixed" stroke-dasharray="0.5,0.5" stroke-width="0.2" stroke="#EEE8D5" id="img-09facbe3-8">
      <path fill="none" d="M22.35,15.57 L 22.35 53.96"/>
      <path fill="none" d="M61.8,15.57 L 61.8 53.96"/>
      <path fill="none" d="M101.24,15.57 L 101.24 53.96"/>
      <path fill="none" d="M140.69,15.57 L 140.69 53.96"/>
    </g>
    <g class="guide ygridlines xfixed" stroke-dasharray="0.5,0.5" stroke-width="0.2" stroke="#EEE8D5" id="img-09facbe3-9">
      <path fill="none" d="M20.35,50.49 L 147.4 50.49"/>
      <path fill="none" d="M20.35,34.8 L 147.4 34.8"/>
      <path fill="none" d="M20.35,19.11 L 147.4 19.11"/>
    </g>
    <g class="plotpanel" id="img-09facbe3-10">
      <g stroke-width="0.3" fill="#000000" fill-opacity="0.000" class="geometry" stroke-dasharray="none" stroke="#268BD2" id="img-09facbe3-11">
        <path fill="none" d="M22.35,19.11 L 22.83 19.12 23.3 19.16 23.78 19.21 24.25 19.29 24.73 19.39 25.2 19.52 25.68 19.66 26.16 19.83 26.63 20.01 27.11 20.22 27.58 20.45 28.06 20.7 28.53 20.97 29.01 21.26 29.48 21.57 29.96 21.9 30.43 22.25 30.91 22.62 31.38 23 31.86 23.4 32.33 23.81 32.81 24.24 33.28 24.69 33.76 25.15 34.23 25.63 34.71 26.12 35.18 26.62 35.66 27.13 36.14 27.65 36.61 28.19 37.09 28.73 37.56 29.28 38.04 29.84 38.51 30.41 38.99 30.98 39.46 31.56 39.94 32.14 40.41 32.73 40.89 33.32 41.36 33.91 41.84 34.5 42.31 35.1 42.79 35.69 43.26 36.28 43.74 36.87 44.21 37.46 44.69 38.04 45.16 38.62 45.64 39.2 46.12 39.76 46.59 40.32 47.07 40.87 47.54 41.42 48.02 41.95 48.49 42.47 48.97 42.99 49.44 43.49 49.92 43.97 50.39 44.45 50.87 44.91 51.34 45.36 51.82 45.79 52.29 46.21 52.77 46.6 53.24 46.99 53.72 47.35 54.19 47.7 54.67 48.03 55.15 48.34 55.62 48.63 56.1 48.9 56.57 49.15 57.05 49.38 57.52 49.59 58 49.78 58.47 49.94 58.95 50.09 59.42 50.21 59.9 50.31 60.37 50.39 60.85 50.45 61.32 50.48 61.8 50.49 62.27 50.48 62.75 50.45 63.22 50.39 63.7 50.31 64.17 50.21 64.65 50.09 65.13 49.94 65.6 49.78 66.08 49.59 66.55 49.38 67.03 49.15 67.5 48.9 67.98 48.63 68.45 48.34 68.93 48.03 69.4 47.7 69.88 47.35 70.35 46.99 70.83 46.6 71.3 46.21 71.78 45.79 72.25 45.36 72.73 44.91 73.2 44.45 73.68 43.97 74.15 43.49 74.63 42.99 75.11 42.47 75.58 41.95 76.06 41.42 76.53 40.87 77.01 40.32 77.48 39.76 77.96 39.2 78.43 38.62 78.91 38.04 79.38 37.46 79.86 36.87 80.33 36.28 80.81 35.69 81.28 35.1 81.76 34.5 82.23 33.91 82.71 33.32 83.18 32.73 83.66 32.14 84.13 31.56 84.61 30.98 85.09 30.41 85.56 29.84 86.04 29.28 86.51 28.73 86.99 28.19 87.46 27.65 87.94 27.13 88.41 26.62 88.89 26.12 89.36 25.63 89.84 25.15 90.31 24.69 90.79 24.24 91.26 23.81 91.74 23.4 92.21 23 92.69 22.62 93.16 22.25 93.64 21.9 94.11 21.57 94.59 21.26 95.07 20.97 95.54 20.7 96.02 20.45 96.49 20.22 96.97 20.01 97.44 19.83 97.92 19.66 98.39 19.52 98.87 19.39 99.34 19.29 99.82 19.21 100.29 19.16 100.77 19.12 101.24 19.11 101.72 19.12 102.19 19.16 102.67 19.21 103.14 19.29 103.62 19.39 104.1 19.52 104.57 19.66 105.05 19.83 105.52 20.01 106 20.22 106.47 20.45 106.95 20.7 107.42 20.97 107.9 21.26 108.37 21.57 108.85 21.9 109.32 22.25 109.8 22.62 110.27 23 110.75 23.4 111.22 23.81 111.7 24.24 112.17 24.69 112.65 25.15 113.12 25.63 113.6 26.12 114.08 26.62 114.55 27.13 115.03 27.65 115.5 28.19 115.98 28.73 116.45 29.28 116.93 29.84 117.4 30.41 117.88 30.98 118.35 31.56 118.83 32.14 119.3 32.73 119.78 33.32 120.25 33.91 120.73 34.5 121.2 35.1 121.68 35.69 122.15 36.28 122.63 36.87 123.1 37.46 123.58 38.04 124.06 38.62 124.53 39.2 125.01 39.76 125.48 40.32 125.96 40.87 126.43 41.42 126.91 41.95 127.38 42.47 127.86 42.99 128.33 43.49 128.81 43.97 129.28 44.45 129.76 44.91 130.23 45.36 130.71 45.79 131.18 46.21 131.66 46.6 132.13 46.99 132.61 47.35 133.08 47.7 133.56 48.03 134.04 48.34 134.51 48.63 134.99 48.9 135.46 49.15 135.94 49.38 136.41 49.59 136.89 49.78 137.36 49.94 137.84 50.09 138.31 50.21 138.79 50.31 139.26 50.39 139.74 50.45 140.21 50.48 140.69 50.49"/>
      </g>
      <g stroke-width="0.3" stroke="#000000" stroke-opacity="0.000" class="geometry" fill="#CAE5FF" id="img-09facbe3-12">
        <path d="M145.4,42.12 L 140.38 35.98 135.36 29.9 130.33 24.85 125.31 21.61 120.29 20.7 115.27 22.27 110.24 26.06 105.22 31.48 100.2 37.67 95.18 43.66 90.15 48.49 85.13 51.41 80.11 51.96 75.09 50.04 70.07 45.97 65.04 40.38 60.02 34.16 55 28.28 49.98 23.69 44.95 21.09 39.93 20.91 34.91 23.17 34.91 20.03 39.93 17.77 44.95 17.95 49.98 20.55 55 25.14 60.02 31.02 65.04 37.24 70.07 42.83 75.09 46.91 80.11 48.82 85.13 48.28 90.15 45.36 95.18 40.52 100.2 34.54 105.22 28.34 110.24 22.93 115.27 19.13 120.29 17.57 125.31 18.47 130.33 21.71 135.36 26.77 140.38 32.84 145.4 38.98 z"/>
      </g>
      <g stroke-width="0.3" fill="#000000" fill-opacity="0.000" class="geometry" stroke-dasharray="none" stroke="#268BD2" id="img-09facbe3-13">
        <path fill="none" d="M34.91,21.6 L 39.93 19.34 44.95 19.52 49.98 22.12 55 26.71 60.02 32.59 65.04 38.81 70.07 44.4 75.09 48.48 80.11 50.39 85.13 49.85 90.15 46.93 95.18 42.09 100.2 36.1 105.22 29.91 110.24 24.49 115.27 20.7 120.29 19.14 125.31 20.04 130.33 23.28 135.36 28.34 140.38 34.41 145.4 40.55"/>
      </g>
    </g>
  </g>
</g>
  <g class="guide ylabels" font-size="2.82" font-family="'PT Sans Caption','Helvetica Neue','Helvetica',sans-serif" fill="#EEE8D5" id="img-09facbe3-14">
    <text x="19.35" y="50.49" text-anchor="end" dy="0.35em">-1</text>
    <text x="19.35" y="34.8" text-anchor="end" dy="0.35em">0</text>
    <text x="19.35" y="19.11" text-anchor="end" dy="0.35em">1</text>
  </g>
  <g font-size="7.06" font-family="'PT Sans','Helvetica Neue','Helvetica',sans-serif" fill="#3AA198" stroke="#000000" stroke-opacity="0.000" id="img-09facbe3-15">
    <text x="10.28" y="32.76" text-anchor="middle" dy="0.35em" transform="rotate(-90, 10.28, 34.76)">y axis</text>
  </g>
  <g font-size="7.06" font-family="'PT Sans','Helvetica Neue','Helvetica',sans-serif" fill="#3AA198" stroke="#000000" stroke-opacity="0.000" id="img-09facbe3-16">
    <text x="83.88" y="13.57" text-anchor="middle">Important title</text>
  </g>
</g>
<defs>
  <clipPath id="img-09facbe3-5">
  <path d="M20.35,15.57 L 147.4 15.57 147.4 53.96 20.35 53.96" />
</clipPath>
</defs>
</svg>
