<?xml version="1.0" encoding="utf-8"?>
<svg xmlns="http://www.w3.org/2000/svg" xmlns:xlink="http://www.w3.org/1999/xlink" width="600" height="400" viewBox="0 0 2400 1600">
<defs>
  <clipPath id="clip5400">
    <rect x="0" y="0" width="2000" height="2000"/>
  </clipPath>
</defs>
<defs>
  <clipPath id="clip5401">
    <rect x="0" y="0" width="2400" height="1600"/>
  </clipPath>
</defs>
<polygon clip-path="url(#clip5401)" points="
0,1600 2400,1600 2400,0 0,0 
  " fill="#ffffff" fill-rule="evenodd" fill-opacity="1"/>
<defs>
  <clipPath id="clip5402">
    <rect x="480" y="0" width="1681" height="1600"/>
  </clipPath>
</defs>
<polygon clip-path="url(#clip5401)" points="
252.496,1440.48 2321.26,1440.48 2321.26,125.984 252.496,125.984 
  " fill="#ffffff" fill-rule="evenodd" fill-opacity="1"/>
<defs>
  <clipPath id="clip5403">
    <rect x="252" y="125" width="2070" height="1315"/>
  </clipPath>
</defs>
<polyline clip-path="url(#clip5403)" style="stroke:#000000; stroke-width:2; stroke-opacity:0.1; fill:none" points="
  346.531,1440.48 346.531,125.984 
  "/>
<polyline clip-path="url(#clip5403)" style="stroke:#000000; stroke-width:2; stroke-opacity:0.1; fill:none" points="
  816.705,1440.48 816.705,125.984 
  "/>
<polyline clip-path="url(#clip5403)" style="stroke:#000000; stroke-width:2; stroke-opacity:0.1; fill:none" points="
  1286.88,1440.48 1286.88,125.984 
  "/>
<polyline clip-path="url(#clip5403)" style="stroke:#000000; stroke-width:2; stroke-opacity:0.1; fill:none" points="
  1757.05,1440.48 1757.05,125.984 
  "/>
<polyline clip-path="url(#clip5403)" style="stroke:#000000; stroke-width:2; stroke-opacity:0.1; fill:none" points="
  2227.23,1440.48 2227.23,125.984 
  "/>
<polyline clip-path="url(#clip5403)" style="stroke:#000000; stroke-width:2; stroke-opacity:0.1; fill:none" points="
  252.496,1380.73 2321.26,1380.73 
  "/>
<polyline clip-path="url(#clip5403)" style="stroke:#000000; stroke-width:2; stroke-opacity:0.1; fill:none" points="
  252.496,1081.98 2321.26,1081.98 
  "/>
<polyline clip-path="url(#clip5403)" style="stroke:#000000; stroke-width:2; stroke-opacity:0.1; fill:none" points="
  252.496,783.233 2321.26,783.233 
  "/>
<polyline clip-path="url(#clip5403)" style="stroke:#000000; stroke-width:2; stroke-opacity:0.1; fill:none" points="
  252.496,484.484 2321.26,484.484 
  "/>
<polyline clip-path="url(#clip5403)" style="stroke:#000000; stroke-width:2; stroke-opacity:0.1; fill:none" points="
  252.496,185.734 2321.26,185.734 
  "/>
<polyline clip-path="url(#clip5401)" style="stroke:#000000; stroke-width:4; stroke-opacity:1; fill:none" points="
  252.496,1440.48 2321.26,1440.48 
  "/>
<polyline clip-path="url(#clip5401)" style="stroke:#000000; stroke-width:4; stroke-opacity:1; fill:none" points="
  252.496,1440.48 252.496,125.984 
  "/>
<polyline clip-path="url(#clip5401)" style="stroke:#000000; stroke-width:4; stroke-opacity:1; fill:none" points="
  346.531,1440.48 346.531,1420.77 
  "/>
<polyline clip-path="url(#clip5401)" style="stroke:#000000; stroke-width:4; stroke-opacity:1; fill:none" points="
  816.705,1440.48 816.705,1420.77 
  "/>
<polyline clip-path="url(#clip5401)" style="stroke:#000000; stroke-width:4; stroke-opacity:1; fill:none" points="
  1286.88,1440.48 1286.88,1420.77 
  "/>
<polyline clip-path="url(#clip5401)" style="stroke:#000000; stroke-width:4; stroke-opacity:1; fill:none" points="
  1757.05,1440.48 1757.05,1420.77 
  "/>
<polyline clip-path="url(#clip5401)" style="stroke:#000000; stroke-width:4; stroke-opacity:1; fill:none" points="
  2227.23,1440.48 2227.23,1420.77 
  "/>
<polyline clip-path="url(#clip5401)" style="stroke:#000000; stroke-width:4; stroke-opacity:1; fill:none" points="
  252.496,1380.73 283.528,1380.73 
  "/>
<polyline clip-path="url(#clip5401)" style="stroke:#000000; stroke-width:4; stroke-opacity:1; fill:none" points="
  252.496,1081.98 283.528,1081.98 
  "/>
<polyline clip-path="url(#clip5401)" style="stroke:#000000; stroke-width:4; stroke-opacity:1; fill:none" points="
  252.496,783.233 283.528,783.233 
  "/>
<polyline clip-path="url(#clip5401)" style="stroke:#000000; stroke-width:4; stroke-opacity:1; fill:none" points="
  252.496,484.484 283.528,484.484 
  "/>
<polyline clip-path="url(#clip5401)" style="stroke:#000000; stroke-width:4; stroke-opacity:1; fill:none" points="
  252.496,185.734 283.528,185.734 
  "/>
<g clip-path="url(#clip5401)">
<text style="fill:#000000; fill-opacity:1; font-family:Arial,Helvetica Neue,Helvetica,sans-serif; font-size:48px; text-anchor:middle;" transform="rotate(0, 346.531, 1494.48)" x="346.531" y="1494.48">-1.0</text>
</g>
<g clip-path="url(#clip5401)">
<text style="fill:#000000; fill-opacity:1; font-family:Arial,Helvetica Neue,Helvetica,sans-serif; font-size:48px; text-anchor:middle;" transform="rotate(0, 816.705, 1494.48)" x="816.705" y="1494.48">-0.5</text>
</g>
<g clip-path="url(#clip5401)">
<text style="fill:#000000; fill-opacity:1; font-family:Arial,Helvetica Neue,Helvetica,sans-serif; font-size:48px; text-anchor:middle;" transform="rotate(0, 1286.88, 1494.48)" x="1286.88" y="1494.48">0.0</text>
</g>
<g clip-path="url(#clip5401)">
<text style="fill:#000000; fill-opacity:1; font-family:Arial,Helvetica Neue,Helvetica,sans-serif; font-size:48px; text-anchor:middle;" transform="rotate(0, 1757.05, 1494.48)" x="1757.05" y="1494.48">0.5</text>
</g>
<g clip-path="url(#clip5401)">
<text style="fill:#000000; fill-opacity:1; font-family:Arial,Helvetica Neue,Helvetica,sans-serif; font-size:48px; text-anchor:middle;" transform="rotate(0, 2227.23, 1494.48)" x="2227.23" y="1494.48">1.0</text>
</g>
<g clip-path="url(#clip5401)">
<text style="fill:#000000; fill-opacity:1; font-family:Arial,Helvetica Neue,Helvetica,sans-serif; font-size:48px; text-anchor:end;" transform="rotate(0, 228.496, 1398.23)" x="228.496" y="1398.23">-1.0</text>
</g>
<g clip-path="url(#clip5401)">
<text style="fill:#000000; fill-opacity:1; font-family:Arial,Helvetica Neue,Helvetica,sans-serif; font-size:48px; text-anchor:end;" transform="rotate(0, 228.496, 1099.48)" x="228.496" y="1099.48">-0.5</text>
</g>
<g clip-path="url(#clip5401)">
<text style="fill:#000000; fill-opacity:1; font-family:Arial,Helvetica Neue,Helvetica,sans-serif; font-size:48px; text-anchor:end;" transform="rotate(0, 228.496, 800.733)" x="228.496" y="800.733">0.0</text>
</g>
<g clip-path="url(#clip5401)">
<text style="fill:#000000; fill-opacity:1; font-family:Arial,Helvetica Neue,Helvetica,sans-serif; font-size:48px; text-anchor:end;" transform="rotate(0, 228.496, 501.984)" x="228.496" y="501.984">0.5</text>
</g>
<g clip-path="url(#clip5401)">
<text style="fill:#000000; fill-opacity:1; font-family:Arial,Helvetica Neue,Helvetica,sans-serif; font-size:48px; text-anchor:end;" transform="rotate(0, 228.496, 203.234)" x="228.496" y="203.234">1.0</text>
</g>
<g clip-path="url(#clip5401)">
<text style="fill:#000000; fill-opacity:1; font-family:Arial,Helvetica Neue,Helvetica,sans-serif; font-size:84px; text-anchor:middle;" transform="rotate(0, 1286.88, 73.2)" x="1286.88" y="73.2">A Horseshoe Orbit</text>
</g>
<g clip-path="url(#clip5401)">
<text style="fill:#000000; fill-opacity:1; font-family:Arial,Helvetica Neue,Helvetica,sans-serif; font-size:66px; text-anchor:middle;" transform="rotate(0, 1286.88, 1590.4)" x="1286.88" y="1590.4">X</text>
</g>
<g clip-path="url(#clip5401)">
<text style="fill:#000000; fill-opacity:1; font-family:Arial,Helvetica Neue,Helvetica,sans-serif; font-size:66px; text-anchor:middle;" transform="rotate(-90, 57.6, 783.233)" x="57.6" y="783.233">Y</text>
</g>
<polyline clip-path="url(#clip5403)" style="stroke:#009af9; stroke-width:4; stroke-opacity:1; fill:none" points="
  1193.09,189.313 1286.88,186.331 1380.66,189.313 1473.51,198.229 1564.49,212.991 1652.7,233.45 1737.25,259.402 1817.31,290.589 1892.06,326.697 1960.77,367.368 
  2022.74,412.193 2077.36,460.726 2124.09,512.481 2162.44,566.941 2192.05,623.563 2212.62,681.78 2223.93,741.01 2225.89,800.663 2218.46,860.141 2201.72,918.851 
  2175.84,976.206 2141.08,1031.63 2097.78,1084.58 2046.39,1134.51 1987.4,1180.94 1921.41,1223.39 1849.09,1261.44 1771.14,1294.71 1688.36,1322.88 1601.57,1345.65 
  1511.63,1362.8 1419.45,1374.16 1325.94,1379.62 1232.04,1379.12 1138.69,1372.66 1046.82,1360.32 957.35,1342.21 871.171,1318.51 789.146,1289.47 712.094,1255.36 
  640.785,1216.54 575.932,1173.39 518.182,1126.35 468.113,1075.87 426.225,1022.47 392.936,966.681 368.579,909.058 353.397,850.178 347.542,790.628 351.073,731.005 
  363.955,671.904 386.057,613.915 417.161,557.618 456.954,503.575 505.04,452.326 560.937,404.384 624.088,360.227 693.861,320.296 769.56,284.991 850.427,254.665 
  935.655,229.619 1024.39,210.106 1115.75,196.318 1208.82,188.395 
  "/>
<polyline clip-path="url(#clip5403)" style="stroke:#e26f46; stroke-width:12; stroke-opacity:1; fill:none" points="
  564.999,395.288 566.816,394.279 572.862,392.454 581.074,393.077 588.296,398.272 591.395,412.933 582.733,438.45 552.867,480.321 514.26,518.04 469.032,549.038 
  429.59,561.118 412.609,552.435 419.315,538.157 442.626,535.738 457.099,558.508 451.256,607.151 424.441,661.748 389.873,697.922 354.964,706.68 344.538,691.389 
  359.802,675.299 388.234,685.886 405.546,725.421 404.196,789.334 389.759,826.718 361.122,849.104 339.225,841.01 339.05,822.476 365.215,817.084 397.767,842.103 
  427.102,899.25 434.235,954.586 419.054,986.006 392.844,986.084 384.757,969.993 411.406,961.356 455.407,984.071 512.866,1044.48 539.603,1097.42 532.34,1129.53 
  511.481,1128.74 506.448,1114.92 541.134,1111.46 602.791,1133.97 696.129,1192.93 738.098,1234.69 741.859,1264.39 727.647,1263.85 733.337,1252.75 781.243,1250.18 
  864.529,1264.69 980.033,1299.62 1045.71,1329.18 1074.01,1355.03 1069.13,1359.28 1074.66,1350.96 1126,1336.28 1211.83,1328.32 1329.26,1327.28 1404.27,1331.31 
  1471.14,1340.87 1502.1,1351.52 1506.91,1353.97 1514.87,1342.12 1558.21,1313.42 1647.11,1274.68 1775,1232.04 1861.1,1212.09 1915.35,1209.3 1922.48,1210.52 
  1920.54,1197.02 1931.3,1169.01 1979.76,1106.83 2052.88,1040.67 2113.71,1003.86 2164.18,999.503 2172.18,1020.45 2150.08,1046.42 2123.29,1047.8 2121.94,1027.95 
  2146.56,1006.78 2177.78,1011.73 2188.4,1069.4 2149.05,1138.96 2041.6,1218.58 1949.27,1249.37 1900.02,1251.84 1894.73,1254.23 1887.99,1276.86 1827.55,1332.45 
  1712.03,1383.62 1555.45,1410.36 1443.7,1402.18 1406.32,1387.21 1402.95,1386.04 1388.51,1398.71 1308.37,1424.97 1193.16,1433.64 1056.52,1415.66 964.486,1379.31 
  935.997,1347.88 944.803,1342.75 942.372,1350.46 892.404,1359.39 808.949,1350.36 695.913,1309.92 622.254,1252.73 611.046,1213.5 631.201,1208.35 636.771,1220.47 
  602.372,1224.79 532.3,1203.23 456.878,1150.17 418.724,1083.01 431.792,1048.17 456.693,1051.12 461.569,1068.56 432.077,1071.8 377.019,1042.78 331.442,984.015 
  324.557,918.56 351.927,888.869 376.607,897.794 375.406,919.142 345.87,919.884 304.274,884.076 284.676,820.593 303.669,760.987 339.634,738.158 360.992,750.87 
  352.081,772.284 323.695,770.133 297.412,735.482 297.711,670.504 332.513,615.212 384.211,589.697 401.848,602.841 385.948,621.606 359.685,614.345 349.116,565.631 
  379.93,503.634 452.554,448.866 505.612,439.491 510.548,455.42 488.207,462.06 473.141,438.083 497.398,386.213 572.833,326.683 674.511,291.421 726.648,293.474 
  726.791,304.399 709.983,301.468 716.186,273.679 773.766,227.779 886.012,185.718 1011.6,171.758 1082.54,183.351 1092.69,193.717 1089.07,187.021 1113.35,166.873 
  1213.89,136.126 1350.12,128.663 1480.08,148.717 1562.94,183.665 1584.26,205.443 1592.09,203.795 1633.59,195.336 1735.61,200.269 1865.6,236.774 1982.86,308.106 
  2027.38,369.609 2025.37,398.367 2024.11,399.253 2052.4,400.463 2124.05,429.404 2192.8,489.042 2224.75,567.919 2195.77,615.211 2139.59,604.007 2080.18,546.306 
  2050.48,488.48 2052.74,455.239 2061.98,452.457 2049.46,457.565 2003.64,449.237 1915.54,411.827 1801.27,344.918 1744.49,300.667 1721.55,267.985 1718.41,265.051 
  1687.32,270.968 1626.21,271.229 1524.38,261.14 1410.43,241.717 1330.73,220.924 1288.44,200.558 1284.31,192.577 1282.56,198.077 1260.06,211.729 1191.44,232.568 
  1084.6,251.322 983.765,260.097 916.635,256.617 894.029,246.016 901.346,241 906.778,251.976 879.622,281.118 805.179,323.519 711.212,359.942 644.912,372.483 
  618.002,362.664 629.119,353.053 647.898,362.301 638.077,394.403 586.07,450.081 523.019,493.001 471.041,509.847 451.234,497.574 464.838,483.267 491.529,491.268 
  493.067,525.404 462.852,586.116 422.37,628.462 380.962,645.084 363.897,630.506 376.458,611.866 407.049,617.116 419.808,651.118 407.909,718.555 383.328,757.291 
  348.072,772.356 331.632,757.395 341.339,735.822 371.106,737.935 396.275,772.264 405.411,837.619 393.047,878.82 364.002,896.037 343.39,881.812 348.589,860.711 
  380.85,862.216 418.147,897.332 447.699,964.559 445.555,1006.67 420.596,1020.94 400.729,1007.21 408.647,989.152 447.9,996.216 504.09,1037.52 551.617,1099.37 
  559.736,1138.28 537.761,1149.61 522.34,1137.96 542.55,1125.5 596.962,1138.26 686.449,1185.2 744.319,1231.43 762.542,1266.21 747.2,1273.7 740.096,1264.51 
  775.982,1255.67 846.737,1263.52 978.07,1298.75 1046.51,1327.27 1080.82,1355.01 1075.47,1361.39 1077.51,1353.43 1124.48,1338.15 1207.74,1329.54 1329.19,1328.22 
  1403,1332.4 1468.96,1342.41 1497.78,1353.33 1500.75,1355.65 1507.81,1343.87 1551.31,1315.24 1639.93,1277.56 1766.58,1236.9 1851.75,1218.49 1903.85,1217.06 
  1909.93,1218.77 1907.31,1207.75 1915.43,1183.75 1957.53,1128.38 2034.46,1058.78 2094.83,1020.65 2148.97,1009.43 2162.58,1026.63 2146.23,1049.48 2118.54,1051.58 
  2115.19,1030.86 2142.08,1000.62 2175.72,997.346 2197.09,1055.76 2163.65,1123.22 2056.33,1207.6 1965.85,1238.84 1917.61,1240.7 1914.94,1242.21 1911.22,1264.4 
  1856.76,1320.09 1744.62,1374.51 1588.2,1405.57 1472.97,1399.92 1433.42,1385.02 1431.12,1382.44 1420.36,1394.76 1341.48,1424.24 1225.99,1435.92 1084.08,1420.38 
  989.424,1385.35 958.912,1353.24 969.186,1347.91 967.555,1356.42 915.117,1366.66 827.574,1358 709.712,1316.52 636.807,1259.68 628.05,1221.74 650.003,1218.6 
  654.951,1231.6 616.791,1235.95 544.569,1213.9 465.97,1159.04 428.592,1091.98 443.297,1059.46 469.574,1064.53 473.613,1082.95 440.569,1085.45 384.245,1055.59 
  336.64,994.655 330.576,929.696 358.127,902.695 383.735,913.652 382.291,936.074 350.747,936.707 307.615,900.605 286.039,836.002 304.309,776.46 341.171,755.015 
  361.833,769.744 352.542,792.84 324.06,791.608 295.842,759.009 290.931,696.261 321.834,638.594 372.354,610.501 393.326,622.819 379.836,645.285 352.681,642.995 
  334.582,596.772 357.643,534.813 424.814,476.212 480.08,463.544 488.121,480.807 464.523,491.666 444.282,471.714 461.073,418.603 527.366,357.573 626.449,317.466 
  678.899,318.375 678.092,331.515 657.663,331.196 657.45,303.888 704.537,257.546 809.716,209.409 932.183,189.076 1002.97,197.738 1011.74,208.781 1001.93,204.025 
  1017.32,183.718 1104.42,146.756 1234.17,128.767 1372.84,139.464 1458.11,167.574 1482.74,189.254 1485.64,187.49 1517.7,175.737 1626.62,171.042 1755.07,195.077 
  1890.19,257.77 1948.39,316.15 1953.87,347.273 1954.3,348.863 1986.07,348.778 2065.61,373.626 2152.71,432.994 2206.88,518.031 2197.01,578.761 2156.48,586.822 
  2111.03,549.949 2100.21,514.269 2118.97,500.523 2134.74,512.674 2120.59,527.234 2066.69,513.79 1986.51,464.352 1906.59,394.88 1871.96,349.059 1868.06,326.519 
  1865.95,326.001 1834.48,328.625 1778.18,322.264 1664.91,295.698 1563.09,262.838 1493.22,231.744 1465.01,208.339 1464.48,205.064 1451.12,213.609 1394.42,227.142 
  1304.22,235.369 1185.79,236.22 1114.23,230.293 1064.8,217.082 1059.04,206.999 1066.74,209.713 1053.93,227.705 996.459,257.466 892.244,290.756 804.492,306.975 
  750.025,303.607 746.278,292.276 763.536,289.369 767.658,308.56 735.254,344.656 650.588,397.941 586.532,422.277 541.738,420.727 543.965,406.096 567.912,398.874 
  581.02,419.087 561.353,460.917 503.692,517.737 455.855,543.028 420.826,537.021 426.498,518.224 455.808,508.855 472.222,531.026 460.759,579.751 425.979,628.987 
  386.802,653.679 357.688,642.883 363.122,620.471 394.837,610.03 414.55,633.595 412.004,687.522 390.551,730.398 356.9,752.874 331.503,740.65 333.331,715.42 
  362.842,702.831 388.264,724.859 398.219,778.234 385.865,823.135 358.255,844.965 331.048,832.887 328.875,807.469 356.439,794.259 385.946,814.339 408.769,867.864 
  406.36,915.102 383.891,937.318 355.02,926.501 349.491,902.573 379.844,891.54 416.313,915.957 452.322,976.405 455.506,1019.9 430.882,1036.81 406.595,1022.69 
  407.778,1000.5 442.371,1000.67 494.995,1034.4 543.987,1094.64 552.308,1132.55 527.844,1144.14 508.884,1130.89 523.516,1114.73 573.677,1124.91 654.701,1168.92 
  708.534,1215.62 721.823,1249.29 702.586,1255.5 691.458,1244.49 723.835,1234.58 790.805,1244.23 912.792,1284.55 972.329,1315.69 994.677,1343.7 983.353,1347.15 
  985.608,1336.99 1034.42,1325.13 1122.16,1323.11 1241.68,1332.38 1320.09,1345.95 1367.02,1362.85 1373.6,1371.86 1373.62,1365.51 1405.47,1344.34 1485.45,1316.56 
  1620.19,1285.88 1716.43,1272.92 1777.31,1274.29 1788.86,1278.28 1787.95,1270.16 1799.87,1247.54 1856.05,1194.7 1952.44,1129.86 2026.13,1093.45 2083,1082.09 
  2092.98,1091.11 2079.91,1094.96 2069.02,1075.77 2080.48,1036.34 2124.52,981.699 2169.92,959.175 2217.46,986.954 2212.44,1047.8 2141.79,1134.44 2058.73,1178.68 
  2002.99,1187.34 1997.84,1183.97 2005.32,1196.29 1980.82,1249.64 1903.95,1310.55 1758.48,1366.72 1626.63,1381.18 1562.16,1370.46 1553.75,1363.97 1547.91,1376.75 
  1483.49,1411.6 1359.91,1436.72 1207.21,1432.64 1105.22,1405.03 1066.19,1373.91 1074.72,1368.03 1073.99,1376.5 1023.37,1390.58 930.961,1388.3 803.216,1354.65 
  718.991,1302.92 700.423,1263.11 721.681,1257.25 728.664,1269.76 690.205,1276.51 611.885,1258.1 523.427,1206.77 475.379,1140.01 486.24,1106.52 513.598,1110.58 
  519.893,1128.93 486.47,1133.16 424.756,1105.71 368.528,1046.82 354.095,980.839 379.259,953.245 406.85,964.2 408.161,987.533 375.682,989.809 327.618,955.856 
  297.582,892.547 309.064,831.699 344.03,810.74 366.578,827.313 359.094,852.265 326.673,850.936 291.553,810.949 285.631,745.001 315.87,691.635 359.629,675.144 
  374.388,695.171 357.275,717.349 325.529,709.472 306.536,661.959 327.932,594.202 383.207,545.005 428.365,540.204 428.787,562.959 403.771,574.37 378.282,549.964 
  388.773,495.594 449.128,429.836 528.416,395.108 564.882,401.441 552.248,418.874 527.54,416.569 531.021,370.892 581.88,319.102 693.221,266.777 781.272,256.054 
  806.179,268.059 788.965,274.923 780.534,259.681 831.914,211.148 933.919,171.48 1077.11,154.123 1170.1,167.678 1190.63,183.064 1184.33,184.041 1187.49,173.56 
  1242.5,147.41 1339.77,131.721 1482.77,138.27 1596.05,167.774 1667.68,208.71 1680.47,230.456 1683.92,228.978 1718.66,221.97 1812.76,229.402 1930.8,267.413 
  2043.88,343.899 2085.03,411.517 2076.63,444.009 2064.17,443.133 2078.83,437.997 2145.32,461.99 2201.47,513.012 2225.63,587.15 2186.99,625.526 2119.56,601.63 
  2045.91,528.666 2002.86,457.98 1998.8,415.744 2009.66,409.646 1999.02,415.639 1950.22,410.959 1855.69,380.751 1712.46,315.915 1640.09,272.851 1605.85,236.385 
  1608.29,230.441 1597.97,237.936 1538.02,248.925 1445.33,251.042 1300.08,242.634 1211.46,230.571 1149.26,211.965 1138.93,198.054 1147.86,199.71 1135.15,218.104 
  1071.56,248.738 955.991,282.932 843.956,303.97 770.87,304.335 754.277,291.925 769.682,285.166 780.586,302.314 752.64,340.637 668.519,402.175 586.056,443.645 
  522.558,457.432 504.89,443.602 522.208,430.932 547.319,446.649 540.231,488.391 491.039,563.089 439.802,609.476 390.202,627.36 373.103,611.906 388.814,593.974 
  421.813,605.556 433.755,647.908 418.944,728.395 392.3,774.811 353.421,796.52 333.358,785.35 338.571,762.885 366.983,760.515 400.71,791.799 425.282,855.638 
  428.185,918.34 411.137,954.629 379.321,959.039 367.12,941.267 390.387,926.494 435.44,946.095 494.482,1006.16 531.813,1073.51 531.504,1115.92 506.413,1123.4 
  490.806,1108.67 518.004,1096.44 579.368,1114.11 678.574,1171.19 740.48,1223.91 758.982,1263.36 740.358,1271.5 730.475,1260.54 769.701,1249.64 847.936,1257.84 
  989.602,1293.86 1071.34,1325.22 1114.85,1356.3 1109.06,1366.85 1104.52,1359.35 1145.78,1340.29 1231.77,1326.8 1370.27,1319.26 1467.05,1320.66 1537.29,1328.7 
  1570.4,1341.12 1569.85,1344.6 1571.84,1331.85 1611.74,1298.3 1702.06,1251.27 1835.06,1197.81 1923.24,1172.79 1980.34,1170.49 1983.66,1175.7 1972.73,1165.47 
  1977.05,1133.83 2013.11,1072.86 2082.09,998.129 2141.37,958.882 2200.24,958.929 2214.47,994.785 2182.05,1056.97 2128.44,1091.6 2093.68,1092.78 2098.8,1080.57 
  2119.38,1083.94 2125.95,1128.97 2089.07,1189.83 1978.66,1268.88 1860.27,1307.16 1785.07,1310.15 1769.59,1304.3 1770.67,1314.61 1745.38,1344.79 1651.88,1393.25 
  1514.4,1423.51 1373.78,1422.04 1296.67,1399.12 1288.5,1385.19 1292.52,1390.4 1270.18,1405.33 1195.97,1421.97 1070.29,1420.34 954.734,1393.23 878.493,1349.97 
  871.668,1323.57 890.861,1324.92 884.468,1336.63 808.651,1340.43 728.722,1321.73 623.814,1264.97 587.396,1214.15 602.643,1192.25 628.495,1201.95 623.563,1216.96 
  557.133,1210.17 487.904,1174.12 429.574,1105.88 432.071,1058.17 459.862,1053.79 481.353,1076.96 464.925,1090.72 396.322,1064.82 351.283,1014.07 341.136,945.525 
  369.559,921.765 398.742,937.375 399.175,964.812 366.061,967.937 320.837,933.228 297.658,871.419 315.837,817.021 350.934,805.21 371.161,828.185 360.726,854.791 
  325.878,852.238 293.416,812.233 291.173,748.294 322.345,702.854 361.996,695.554 373.559,721.241 355.065,744.791 321.127,736.978 301.349,692.499 319.489,627.351 
  368.445,584.569 407.061,585.703 405.724,612.877 380.323,627.696 349.881,606.26 352.456,554.389 401.84,489.945 468.283,458.89 496.841,469.682 478.967,492.928 
  450.847,492.437 446.571,443.427 481.953,396.159 574.869,340.883 641.718,330.156 657.911,344.359 634.208,356.294 616.112,343.489 645.432,292.769 723.437,244.622 
  847.338,211.731 923.691,215.414 935.145,228.444 916.359,229.679 918.079,211.575 981.658,171.202 1097.03,141.875 1237.39,139.23 1327.03,160.103 1351.53,179.415 
  1347.02,182.205 1348.71,174.622 1386.78,157.522 1473.02,146.515 1607.75,158.015 1729.12,195.687 1807.47,246.091 1825.74,278.474 1822.35,283.922 1828.76,280.25 
  1871.3,278.053 1940.44,291.605 2043.26,337.718 2125.17,409.623 2154.3,480.978 2136.77,513.097 2109.85,508.638 2105.53,492.353 2133.83,490.5 2175,515.249 
  2202.37,562.068 2182.7,600.083 2125.07,590.975 2049.51,534.539 1979.68,451.825 1957.54,401.545 1964.6,380.569 1969.44,382.298 1945.25,387.528 1886.56,379.03 
  1778.52,345.486 1658.15,295.71 1585.2,255.755 1554.81,224.006 1558.83,218.614 1551.97,226.344 1497.3,239.852 1409.06,245.507 1287.9,243.456 1209.44,237.362 
  1135.69,224.602 1101.93,208.937 1104.43,199.594 1113.73,203.915 1096.93,225.641 1034.51,255.989 915.081,292.702 814.946,311.754 747.398,310.39 736.739,297.433 
  755.201,290.517 766.915,308.803 738.662,347.747 653.093,410.378 575.111,448.607 514.594,458.976 502.094,443.226 522.661,429.738 548.128,446.766 539.353,489.693 
  484.033,567.393 433.825,607.693 385.574,617.723 376.297,598.566 398.789,580.668 429.643,597.133 437.256,645.082 415.996,720.762 387.567,760.51 348.184,775.788 
  330.584,760.285 340.403,736.643 373.009,737.589 403.334,774.044 419.852,844.407 412.886,898.308 387.01,927.404 356.55,920.22 351.428,898.21 385.724,889.452 
  429.354,918.356 479.338,989.657 495.81,1047.78 477.824,1079.71 449.966,1073.44 444.416,1053.09 483.451,1048.96 547.47,1078.62 636.076,1150.8 668.819,1198.04 
  
  "/>
<circle clip-path="url(#clip5403)" style="fill:#000000; stroke:none; fill-opacity:1" cx="1285.94" cy="783.233" r="18"/>
<circle clip-path="url(#clip5403)" style="fill:#3da44d; stroke:none; fill-opacity:1" cx="1285.94" cy="783.233" r="14"/>
<circle clip-path="url(#clip5403)" style="fill:#000000; stroke:none; fill-opacity:1" cx="2226.29" cy="783.233" r="18"/>
<circle clip-path="url(#clip5403)" style="fill:#3da44d; stroke:none; fill-opacity:1" cx="2226.29" cy="783.233" r="14"/>
<circle clip-path="url(#clip5403)" style="fill:#000000; stroke:none; fill-opacity:1" cx="2161.09" cy="783.233" r="18"/>
<circle clip-path="url(#clip5403)" style="fill:#c271d2; stroke:none; fill-opacity:1" cx="2161.09" cy="783.233" r="14"/>
<circle clip-path="url(#clip5403)" style="fill:#000000; stroke:none; fill-opacity:1" cx="2291.49" cy="783.233" r="18"/>
<circle clip-path="url(#clip5403)" style="fill:#c271d2; stroke:none; fill-opacity:1" cx="2291.49" cy="783.233" r="14"/>
<circle clip-path="url(#clip5403)" style="fill:#000000; stroke:none; fill-opacity:1" cx="346.139" cy="783.233" r="18"/>
<circle clip-path="url(#clip5403)" style="fill:#c271d2; stroke:none; fill-opacity:1" cx="346.139" cy="783.233" r="14"/>
<circle clip-path="url(#clip5403)" style="fill:#000000; stroke:none; fill-opacity:1" cx="1756.58" cy="266.301" r="18"/>
<circle clip-path="url(#clip5403)" style="fill:#c271d2; stroke:none; fill-opacity:1" cx="1756.58" cy="266.301" r="14"/>
<circle clip-path="url(#clip5403)" style="fill:#000000; stroke:none; fill-opacity:1" cx="1756.58" cy="1300.17" r="18"/>
<circle clip-path="url(#clip5403)" style="fill:#c271d2; stroke:none; fill-opacity:1" cx="1756.58" cy="1300.17" r="14"/>
<polygon clip-path="url(#clip5401)" points="
324.496,1296.48 952.454,1296.48 952.454,994.083 324.496,994.083 
  " fill="#ffffff" fill-rule="evenodd" fill-opacity="1"/>
<polyline clip-path="url(#clip5401)" style="stroke:#000000; stroke-width:4; stroke-opacity:1; fill:none" points="
  324.496,1296.48 952.454,1296.48 952.454,994.083 324.496,994.083 324.496,1296.48 
  "/>
<polyline clip-path="url(#clip5401)" style="stroke:#009af9; stroke-width:4; stroke-opacity:1; fill:none" points="
  348.496,1054.56 492.496,1054.56 
  "/>
<g clip-path="url(#clip5401)">
<text style="fill:#000000; fill-opacity:1; font-family:Arial,Helvetica Neue,Helvetica,sans-serif; font-size:48px; text-anchor:start;" transform="rotate(0, 516.496, 1072.06)" x="516.496" y="1072.06">Orbit</text>
</g>
<polyline clip-path="url(#clip5401)" style="stroke:#e26f46; stroke-width:12; stroke-opacity:1; fill:none" points="
  348.496,1115.04 492.496,1115.04 
  "/>
<g clip-path="url(#clip5401)">
<text style="fill:#000000; fill-opacity:1; font-family:Arial,Helvetica Neue,Helvetica,sans-serif; font-size:48px; text-anchor:start;" transform="rotate(0, 516.496, 1132.54)" x="516.496" y="1132.54">Horseshoe Orbit</text>
</g>
<circle clip-path="url(#clip5401)" style="fill:#000000; stroke:none; fill-opacity:1" cx="432.496" cy="1175.52" r="25"/>
<circle clip-path="url(#clip5401)" style="fill:#3da44d; stroke:none; fill-opacity:1" cx="432.496" cy="1175.52" r="21"/>
<g clip-path="url(#clip5401)">
<text style="fill:#000000; fill-opacity:1; font-family:Arial,Helvetica Neue,Helvetica,sans-serif; font-size:48px; text-anchor:start;" transform="rotate(0, 516.496, 1193.02)" x="516.496" y="1193.02">Masses</text>
</g>
<circle clip-path="url(#clip5401)" style="fill:#000000; stroke:none; fill-opacity:1" cx="432.496" cy="1236" r="25"/>
<circle clip-path="url(#clip5401)" style="fill:#c271d2; stroke:none; fill-opacity:1" cx="432.496" cy="1236" r="21"/>
<g clip-path="url(#clip5401)">
<text style="fill:#000000; fill-opacity:1; font-family:Arial,Helvetica Neue,Helvetica,sans-serif; font-size:48px; text-anchor:start;" transform="rotate(0, 516.496, 1253.5)" x="516.496" y="1253.5">Lagrangian Points</text>
</g>
</svg>
