<?xml version="1.0" encoding="utf-8"?>
<svg xmlns="http://www.w3.org/2000/svg" xmlns:xlink="http://www.w3.org/1999/xlink" width="600" height="400" viewBox="0 0 2400 1600">
<defs>
  <clipPath id="clip5000">
    <rect x="0" y="0" width="2000" height="2000"/>
  </clipPath>
</defs>
<defs>
  <clipPath id="clip5001">
    <rect x="0" y="0" width="2400" height="1600"/>
  </clipPath>
</defs>
<polygon clip-path="url(#clip5001)" points="
0,1600 2400,1600 2400,0 0,0 
  " fill="#ffffff" fill-rule="evenodd" fill-opacity="1"/>
<defs>
  <clipPath id="clip5002">
    <rect x="480" y="0" width="1681" height="1600"/>
  </clipPath>
</defs>
<polygon clip-path="url(#clip5001)" points="
252.496,1440.48 2321.26,1440.48 2321.26,125.984 252.496,125.984 
  " fill="#ffffff" fill-rule="evenodd" fill-opacity="1"/>
<defs>
  <clipPath id="clip5003">
    <rect x="252" y="125" width="2070" height="1315"/>
  </clipPath>
</defs>
<polyline clip-path="url(#clip5003)" style="stroke:#000000; stroke-width:2; stroke-opacity:0.1; fill:none" points="
  379.583,1440.48 379.583,125.984 
  "/>
<polyline clip-path="url(#clip5003)" style="stroke:#000000; stroke-width:2; stroke-opacity:0.1; fill:none" points="
  870.053,1440.48 870.053,125.984 
  "/>
<polyline clip-path="url(#clip5003)" style="stroke:#000000; stroke-width:2; stroke-opacity:0.1; fill:none" points="
  1360.52,1440.48 1360.52,125.984 
  "/>
<polyline clip-path="url(#clip5003)" style="stroke:#000000; stroke-width:2; stroke-opacity:0.1; fill:none" points="
  1850.99,1440.48 1850.99,125.984 
  "/>
<polyline clip-path="url(#clip5003)" style="stroke:#000000; stroke-width:2; stroke-opacity:0.1; fill:none" points="
  252.496,1403.9 2321.26,1403.9 
  "/>
<polyline clip-path="url(#clip5003)" style="stroke:#000000; stroke-width:2; stroke-opacity:0.1; fill:none" points="
  252.496,1093.57 2321.26,1093.57 
  "/>
<polyline clip-path="url(#clip5003)" style="stroke:#000000; stroke-width:2; stroke-opacity:0.1; fill:none" points="
  252.496,783.234 2321.26,783.234 
  "/>
<polyline clip-path="url(#clip5003)" style="stroke:#000000; stroke-width:2; stroke-opacity:0.1; fill:none" points="
  252.496,472.9 2321.26,472.9 
  "/>
<polyline clip-path="url(#clip5003)" style="stroke:#000000; stroke-width:2; stroke-opacity:0.1; fill:none" points="
  252.496,162.567 2321.26,162.567 
  "/>
<polyline clip-path="url(#clip5001)" style="stroke:#000000; stroke-width:4; stroke-opacity:1; fill:none" points="
  252.496,1440.48 2321.26,1440.48 
  "/>
<polyline clip-path="url(#clip5001)" style="stroke:#000000; stroke-width:4; stroke-opacity:1; fill:none" points="
  252.496,1440.48 252.496,125.984 
  "/>
<polyline clip-path="url(#clip5001)" style="stroke:#000000; stroke-width:4; stroke-opacity:1; fill:none" points="
  379.583,1440.48 379.583,1420.77 
  "/>
<polyline clip-path="url(#clip5001)" style="stroke:#000000; stroke-width:4; stroke-opacity:1; fill:none" points="
  870.053,1440.48 870.053,1420.77 
  "/>
<polyline clip-path="url(#clip5001)" style="stroke:#000000; stroke-width:4; stroke-opacity:1; fill:none" points="
  1360.52,1440.48 1360.52,1420.77 
  "/>
<polyline clip-path="url(#clip5001)" style="stroke:#000000; stroke-width:4; stroke-opacity:1; fill:none" points="
  1850.99,1440.48 1850.99,1420.77 
  "/>
<polyline clip-path="url(#clip5001)" style="stroke:#000000; stroke-width:4; stroke-opacity:1; fill:none" points="
  252.496,1403.9 283.528,1403.9 
  "/>
<polyline clip-path="url(#clip5001)" style="stroke:#000000; stroke-width:4; stroke-opacity:1; fill:none" points="
  252.496,1093.57 283.528,1093.57 
  "/>
<polyline clip-path="url(#clip5001)" style="stroke:#000000; stroke-width:4; stroke-opacity:1; fill:none" points="
  252.496,783.234 283.528,783.234 
  "/>
<polyline clip-path="url(#clip5001)" style="stroke:#000000; stroke-width:4; stroke-opacity:1; fill:none" points="
  252.496,472.9 283.528,472.9 
  "/>
<polyline clip-path="url(#clip5001)" style="stroke:#000000; stroke-width:4; stroke-opacity:1; fill:none" points="
  252.496,162.567 283.528,162.567 
  "/>
<g clip-path="url(#clip5001)">
<text style="fill:#000000; fill-opacity:1; font-family:Arial,Helvetica Neue,Helvetica,sans-serif; font-size:48px; text-anchor:middle;" transform="rotate(0, 379.583, 1494.48)" x="379.583" y="1494.48">-1.1</text>
</g>
<g clip-path="url(#clip5001)">
<text style="fill:#000000; fill-opacity:1; font-family:Arial,Helvetica Neue,Helvetica,sans-serif; font-size:48px; text-anchor:middle;" transform="rotate(0, 870.053, 1494.48)" x="870.053" y="1494.48">-1.0</text>
</g>
<g clip-path="url(#clip5001)">
<text style="fill:#000000; fill-opacity:1; font-family:Arial,Helvetica Neue,Helvetica,sans-serif; font-size:48px; text-anchor:middle;" transform="rotate(0, 1360.52, 1494.48)" x="1360.52" y="1494.48">-0.9</text>
</g>
<g clip-path="url(#clip5001)">
<text style="fill:#000000; fill-opacity:1; font-family:Arial,Helvetica Neue,Helvetica,sans-serif; font-size:48px; text-anchor:middle;" transform="rotate(0, 1850.99, 1494.48)" x="1850.99" y="1494.48">-0.8</text>
</g>
<g clip-path="url(#clip5001)">
<text style="fill:#000000; fill-opacity:1; font-family:Arial,Helvetica Neue,Helvetica,sans-serif; font-size:48px; text-anchor:end;" transform="rotate(0, 228.496, 1421.4)" x="228.496" y="1421.4">-1.0</text>
</g>
<g clip-path="url(#clip5001)">
<text style="fill:#000000; fill-opacity:1; font-family:Arial,Helvetica Neue,Helvetica,sans-serif; font-size:48px; text-anchor:end;" transform="rotate(0, 228.496, 1111.07)" x="228.496" y="1111.07">-0.5</text>
</g>
<g clip-path="url(#clip5001)">
<text style="fill:#000000; fill-opacity:1; font-family:Arial,Helvetica Neue,Helvetica,sans-serif; font-size:48px; text-anchor:end;" transform="rotate(0, 228.496, 800.734)" x="228.496" y="800.734">0.0</text>
</g>
<g clip-path="url(#clip5001)">
<text style="fill:#000000; fill-opacity:1; font-family:Arial,Helvetica Neue,Helvetica,sans-serif; font-size:48px; text-anchor:end;" transform="rotate(0, 228.496, 490.4)" x="228.496" y="490.4">0.5</text>
</g>
<g clip-path="url(#clip5001)">
<text style="fill:#000000; fill-opacity:1; font-family:Arial,Helvetica Neue,Helvetica,sans-serif; font-size:48px; text-anchor:end;" transform="rotate(0, 228.496, 180.067)" x="228.496" y="180.067">1.0</text>
</g>
<g clip-path="url(#clip5001)">
<text style="fill:#000000; fill-opacity:1; font-family:Arial,Helvetica Neue,Helvetica,sans-serif; font-size:84px; text-anchor:middle;" transform="rotate(0, 1286.88, 73.2)" x="1286.88" y="73.2">Starting near L3</text>
</g>
<g clip-path="url(#clip5001)">
<text style="fill:#000000; fill-opacity:1; font-family:Arial,Helvetica Neue,Helvetica,sans-serif; font-size:66px; text-anchor:middle;" transform="rotate(0, 1286.88, 1590.4)" x="1286.88" y="1590.4">X</text>
</g>
<g clip-path="url(#clip5001)">
<text style="fill:#000000; fill-opacity:1; font-family:Arial,Helvetica Neue,Helvetica,sans-serif; font-size:66px; text-anchor:middle;" transform="rotate(-90, 57.6, 783.233)" x="57.6" y="783.233">Y</text>
</g>
<polyline clip-path="url(#clip5003)" style="stroke:#009af9; stroke-width:4; stroke-opacity:1; fill:none" points="
  5285.59,166.285 5334.36,165.697 5383.18,165.17 5432.04,164.706 5480.94,164.303 5529.86,163.962 5578.81,163.683 5627.78,163.466 5676.76,163.311 5725.75,163.218 
  5774.75,163.187 5823.75,163.218 5872.74,163.311 5921.72,163.466 5970.69,163.683 6019.64,163.962 6068.56,164.303 6117.46,164.706 6166.32,165.17 6215.14,165.697 
  6263.91,166.285 6312.64,166.935 6361.31,167.646 6409.93,168.419 6458.48,169.254 6506.97,170.149 6555.38,171.107 6603.71,172.125 6651.96,173.205 6700.12,174.345 
  6748.19,175.547 6796.16,176.809 6844.03,178.132 6891.79,179.515 6939.44,180.959 6986.98,182.463 7034.39,184.027 7081.68,185.651 7128.84,187.334 7175.86,189.078 
  7222.74,190.881 7269.47,192.742 7316.06,194.663 7362.49,196.643 7408.77,198.682 7454.88,200.779 7500.82,202.934 7546.59,205.147 7592.18,207.418 7637.6,209.747 
  7682.82,212.133 7727.85,214.576 7772.69,217.076 7817.33,219.633 7861.77,222.245 7905.99,224.914 7950,227.639 7993.8,230.42 8037.37,233.255 8080.72,236.146 
  8123.84,239.092 8166.72,242.091 8209.36,245.145 8251.76,248.253 8293.91,251.414 8335.81,254.629 8377.45,257.896 8418.84,261.216 8459.96,264.588 8500.81,268.012 
  8541.38,271.487 8581.68,275.014 8621.7,278.591 8661.44,282.219 8700.89,285.897 8740.04,289.625 8778.9,293.402 8817.45,297.228 8855.71,301.102 8893.65,305.025 
  8931.29,308.996 8968.6,313.014 9005.6,317.079 9042.28,321.191 9078.62,325.349 9114.64,329.552 9150.32,333.802 9185.67,338.096 9220.68,342.434 9255.34,346.817 
  9289.65,351.243 9323.61,355.713 9357.22,360.225 9390.46,364.779 9423.35,369.376 9455.87,374.013 9488.02,378.692 9519.81,383.411 9551.21,388.17 9582.24,392.969 
  9612.89,397.807 9643.16,402.683 9673.04,407.597 9702.52,412.549 9731.62,417.538 9760.32,422.563 9788.62,427.625 9816.52,432.722 9844.02,437.854 9871.11,443.02 
  9897.79,448.221 9924.05,453.455 9949.91,458.722 9975.34,464.022 10000.4,469.354 10024.9,474.716 10049.1,480.11 10072.9,485.534 10096.2,490.988 10119,496.471 
  10141.5,501.983 10163.5,507.523 10185.1,513.09 10206.2,518.685 10226.9,524.306 10247.1,529.952 10266.9,535.625 10286.2,541.322 10305.1,547.043 10323.6,552.787 
  10341.6,558.555 10359.1,564.345 10376.1,570.157 10392.8,575.991 10408.9,581.845 10424.6,587.719 10439.8,593.613 10454.5,599.526 10468.8,605.457 10482.6,611.406 
  10496,617.372 10508.9,623.355 10521.3,629.353 10533.2,635.368 10544.6,641.396 10555.6,647.439 10566.1,653.496 10576.1,659.566 10585.6,665.648 10594.7,671.741 
  10603.3,677.846 10611.3,683.962 10618.9,690.087 10626.1,696.222 10632.7,702.365 10638.8,708.516 10644.5,714.675 10649.7,720.841 10654.4,727.013 10658.6,733.191 
  10662.3,739.373 10665.5,745.56 10668.2,751.751 10670.5,757.945 10672.2,764.142 10673.5,770.34 10674.3,776.54 10674.5,782.74 10674.3,788.94 10673.6,795.14 
  10672.5,801.339 10670.8,807.536 10668.6,813.73 10666,819.921 10662.8,826.109 10659.2,832.292 10655.1,838.471 10650.5,844.644 10645.4,850.811 10639.8,856.971 
  10633.7,863.123 10627.1,869.268 10620.1,875.404 10612.6,881.531 10604.6,887.648 10596.1,893.755 10587.1,899.85 10577.7,905.934 10567.7,912.006 10557.3,918.064 
  10546.4,924.11 10535,930.141 10523.2,936.157 10510.9,942.159 10498.1,948.144 10484.8,954.113 10471.1,960.064 10456.9,965.998 10442.2,971.914 10427,977.811 
  10411.4,983.688 10395.4,989.546 10378.8,995.383 10361.8,1001.2 10344.4,1006.99 10326.5,1012.76 10308.1,1018.51 10289.3,1024.24 10270,1029.94 10250.3,1035.61 
  10230.1,1041.26 10209.5,1046.89 10188.5,1052.49 10167,1058.06 10145,1063.6 10122.6,1069.12 10099.8,1074.61 10076.6,1080.07 10052.9,1085.5 10028.8,1090.89 
  10004.3,1096.26 9979.35,1101.6 9953.98,1106.9 9928.2,1112.18 9902,1117.42 9875.38,1122.62 9848.36,1127.79 9820.93,1132.93 9793.09,1138.03 9764.85,1143.1 
  9736.22,1148.13 9707.18,1153.13 9677.76,1158.08 9647.94,1163 9617.74,1167.89 9587.15,1172.73 9556.18,1177.54 9524.83,1182.3 9493.11,1187.03 9461.02,1191.71 
  9428.55,1196.36 9395.73,1200.96 9362.53,1205.52 9328.99,1210.04 9295.08,1214.52 9260.82,1218.95 9226.22,1223.34 9191.27,1227.68 9155.98,1231.99 9120.35,1236.24 
  9084.38,1240.45 9048.09,1244.62 9011.46,1248.74 8974.52,1252.81 8937.25,1256.83 8899.67,1260.81 8861.77,1264.74 8823.57,1268.63 8785.06,1272.46 8746.25,1276.24 
  8707.14,1279.98 8667.74,1283.67 8628.05,1287.3 8588.08,1290.89 8547.82,1294.42 8507.29,1297.91 8466.48,1301.34 8425.4,1304.72 8384.06,1308.05 8342.46,1311.32 
  8300.6,1314.54 8258.49,1317.71 8216.13,1320.83 8173.53,1323.89 8130.68,1326.9 8087.6,1329.86 8044.29,1332.76 8000.75,1335.6 7956.99,1338.39 7913.02,1341.12 
  7868.82,1343.8 7824.42,1346.42 7779.82,1348.99 7735.01,1351.5 7690.01,1353.95 7644.81,1356.34 7599.43,1358.68 7553.86,1360.96 7508.12,1363.19 7462.21,1365.35 
  7416.12,1367.46 7369.88,1369.5 7323.47,1371.49 7276.9,1373.42 7230.19,1375.29 7183.33,1377.11 7136.33,1378.86 7089.2,1380.55 7041.93,1382.19 6994.54,1383.76 
  6947.02,1385.27 6899.39,1386.73 6851.64,1388.12 6803.79,1389.45 6755.84,1390.72 6707.78,1391.94 6659.63,1393.09 6611.4,1394.17 6563.08,1395.2 6514.68,1396.17 
  6466.21,1397.08 6417.67,1397.92 6369.06,1398.7 6320.4,1399.42 6271.68,1400.08 6222.91,1400.68 6174.09,1401.22 6125.24,1401.69 6076.35,1402.1 6027.43,1402.46 
  5978.49,1402.74 5929.52,1402.97 5880.54,1403.14 5831.55,1403.24 5782.55,1403.28 5733.56,1403.26 5684.56,1403.18 5635.58,1403.03 5586.61,1402.82 5537.66,1402.55 
  5488.73,1402.22 5439.83,1401.83 5390.96,1401.38 5342.14,1400.86 5293.35,1400.28 5244.62,1399.64 5195.93,1398.94 5147.31,1398.18 5098.74,1397.35 5050.25,1396.46 
  5001.83,1395.52 4953.48,1394.51 4905.22,1393.44 4857.04,1392.31 4808.96,1391.12 4760.97,1389.86 4713.09,1388.55 4665.31,1387.18 4617.64,1385.74 4570.08,1384.25 
  4522.65,1382.69 4475.34,1381.08 4428.16,1379.41 4381.12,1377.67 4334.22,1375.88 4287.46,1374.03 4240.85,1372.11 4194.39,1370.14 4148.09,1368.11 4101.95,1366.03 
  4055.98,1363.88 4010.19,1361.68 3964.56,1359.41 3919.12,1357.1 3873.87,1354.72 3828.8,1352.28 3783.93,1349.79 3739.26,1347.25 3694.8,1344.64 3650.54,1341.98 
  3606.49,1339.27 3562.66,1336.49 3519.05,1333.67 3475.67,1330.79 3432.51,1327.85 3389.59,1324.86 3346.91,1321.81 3304.47,1318.71 3262.28,1315.56 3220.34,1312.35 
  3178.66,1309.1 3137.24,1305.78 3096.07,1302.42 3055.18,1299 3014.56,1295.54 2974.22,1292.02 2934.15,1288.45 2894.37,1284.83 2854.88,1281.16 2815.68,1277.44 
  2776.77,1273.67 2738.16,1269.85 2699.86,1265.99 2661.87,1262.07 2624.19,1258.11 2586.82,1254.1 2549.77,1250.04 2513.04,1245.93 2476.64,1241.78 2440.57,1237.59 
  2404.83,1233.35 2369.43,1229.06 2334.38,1224.73 2299.66,1220.35 2265.29,1215.93 2231.27,1211.47 2197.61,1206.96 2164.31,1202.42 2131.36,1197.83 2098.78,1193.2 
  2066.57,1188.52 2034.73,1183.81 2003.26,1179.06 1972.17,1174.27 1941.46,1169.43 1911.14,1164.56 1881.2,1159.66 1851.64,1154.71 1822.49,1149.73 1793.72,1144.71 
  1765.36,1139.65 1737.39,1134.56 1709.83,1129.43 1682.68,1124.27 1655.93,1119.08 1629.6,1113.85 1603.68,1108.59 1578.18,1103.29 1553.1,1097.97 1528.44,1092.61 
  1504.21,1087.22 1480.4,1081.8 1457.02,1076.35 1434.07,1070.87 1411.56,1065.36 1389.48,1059.83 1367.85,1054.27 1346.65,1048.68 1325.89,1043.06 1305.58,1037.42 
  1285.72,1031.75 1266.31,1026.06 1247.35,1020.34 1228.84,1014.6 1210.78,1008.83 1193.18,1003.05 1176.04,997.237 1159.36,991.407 1143.14,985.556 1127.38,979.685 
  1112.09,973.795 1097.27,967.885 1082.91,961.956 1069.02,956.01 1055.6,950.047 1042.66,944.067 1030.18,938.071 1018.19,932.059 1006.66,926.032 995.618,919.992 
  985.05,913.937 974.962,907.869 965.353,901.789 956.225,895.698 947.578,889.594 939.415,883.481 931.735,877.357 924.539,871.224 917.829,865.082 911.604,858.931 
  905.865,852.774 900.614,846.609 895.849,840.438 891.573,834.261 887.785,828.079 884.485,821.893 881.675,815.703 879.354,809.509 877.522,803.313 876.181,797.115 
  875.329,790.915 874.967,784.715 875.094,778.515 875.712,772.315 876.82,766.116 878.418,759.919 880.505,753.724 883.082,747.532 886.147,741.344 889.702,735.16 
  893.745,728.98 898.276,722.806 903.295,716.639 908.801,710.477 914.794,704.324 921.273,698.178 928.237,692.04 935.685,685.912 943.618,679.793 952.033,673.685 
  960.931,667.587 970.31,661.502 980.17,655.428 990.509,649.367 1001.33,643.32 1012.62,637.286 1024.39,631.267 1036.64,625.264 1049.36,619.276 1062.55,613.304 
  1076.22,607.35 1090.35,601.413 1104.95,595.494 1120.02,589.594 1135.55,583.714 1151.55,577.853 1168.01,572.013 1184.93,566.194 1202.31,560.397 1220.15,554.622 
  1238.45,548.87 1257.19,543.141 1276.39,537.437 1296.04,531.757 1316.13,526.102 1336.68,520.472 1357.66,514.869 1379.09,509.293 1400.96,503.745 1423.26,498.224 
  1446,492.732 1469.17,487.268 1492.78,481.835 1516.81,476.431 1541.26,471.058 1566.14,465.717 1591.45,460.407 1617.17,455.129 1643.3,449.885 1669.85,444.673 
  1696.81,439.496 1724.17,434.353 1751.95,429.244 1780.12,424.171 1808.69,419.134 1837.66,414.134 1867.03,409.17 1896.78,404.244 1926.92,399.356 1957.45,394.506 
  1988.36,389.695 2019.65,384.923 2051.31,380.191 2083.35,375.499 2115.75,370.848 2148.52,366.239 2181.65,361.671 2215.15,357.145 2248.99,352.662 2283.2,348.222 
  2317.75,343.825 2352.64,339.473 2387.88,335.165 2423.46,330.901 2459.37,326.683 2495.61,322.51 2532.18,318.384 2569.08,314.304 2606.29,310.271 2643.83,306.285 
  2681.67,302.347 2719.83,298.457 2758.29,294.615 2797.05,290.822 2836.11,287.079 2875.46,283.385 2915.11,279.741 2955.04,276.148 2995.25,272.605 3035.74,269.113 
  3076.5,265.673 3117.54,262.284 3158.83,258.948 3200.4,255.664 3242.21,252.432 3284.29,249.254 3326.61,246.129 3369.17,243.058 3411.98,240.041 3455.02,237.078 
  3498.29,234.17 3541.79,231.317 3585.52,228.519 3629.46,225.776 3673.62,223.09 3717.99,220.459 3762.57,217.884 3807.34,215.366 3852.31,212.905 3897.48,210.501 
  3942.83,208.154 3988.37,205.864 4034.08,203.633 4079.97,201.459 4126.02,199.343 4172.25,197.286 4218.63,195.288 4265.17,193.348 4311.86,191.467 4358.69,189.646 
  4405.67,187.883 4452.78,186.181 4500.03,184.538 4547.4,182.954 4594.9,181.431 4642.52,179.968 4690.24,178.566 4738.08,177.224 4786.02,175.942 4834.06,174.721 
  4882.19,173.561 4930.41,172.462 4978.72,171.424 5027.1,170.448 5075.57,169.532 5124.1,168.678 5172.69,167.886 5221.35,167.154 5270.06,166.485 5318.82,165.877 
  5367.63,165.331 5416.48,164.847 5465.36,164.424 5514.28,164.064 5563.22,163.765 5612.18,163.528 5661.16,163.354 5710.15,163.241 5759.14,163.19 
  "/>
<polyline clip-path="url(#clip5003)" style="stroke:#e26f46; stroke-width:12; stroke-opacity:1; fill:none" points="
  874.953,783.234 874.959,783.234 874.979,783.234 875.011,783.234 875.057,783.235 875.116,783.236 875.188,783.237 875.272,783.239 875.37,783.241 875.48,783.244 
  875.603,783.248 875.739,783.252 875.887,783.258 876.048,783.264 876.222,783.271 876.407,783.28 876.605,783.29 876.815,783.301 877.036,783.314 877.27,783.328 
  877.515,783.343 877.772,783.36 878.04,783.379 878.319,783.399 878.609,783.421 878.91,783.445 879.222,783.472 879.544,783.5 879.876,783.53 880.218,783.562 
  880.57,783.596 880.932,783.633 881.303,783.672 881.684,783.714 882.073,783.758 882.471,783.804 882.877,783.853 883.292,783.904 883.714,783.958 884.144,784.015 
  884.582,784.075 885.027,784.137 885.478,784.202 885.937,784.27 886.401,784.341 886.872,784.415 887.348,784.492 887.83,784.572 888.317,784.655 888.809,784.742 
  889.305,784.831 889.806,784.923 890.311,785.019 890.819,785.117 891.331,785.219 891.846,785.325 892.363,785.433 892.883,785.545 893.406,785.66 893.929,785.778 
  894.455,785.9 894.982,786.024 895.509,786.153 896.037,786.284 896.565,786.419 897.094,786.557 897.621,786.699 898.148,786.843 898.675,786.991 899.199,787.143 
  899.722,787.297 900.244,787.455 900.762,787.616 901.279,787.78 901.792,787.948 902.302,788.119 902.809,788.292 903.312,788.469 903.811,788.649 904.305,788.833 
  904.795,789.019 905.28,789.208 905.76,789.4 906.234,789.595 906.703,789.793 907.165,789.994 907.621,790.198 908.071,790.404 908.514,790.613 908.949,790.825 
  909.378,791.039 909.798,791.256 910.211,791.475 910.616,791.697 911.013,791.922 911.401,792.148 911.78,792.377 912.151,792.608 912.512,792.841 912.864,793.077 
  913.206,793.314 913.539,793.553 913.861,793.795 914.174,794.038 914.476,794.282 914.767,794.529 915.049,794.777 915.319,795.027 915.578,795.278 915.827,795.53 
  916.064,795.784 916.29,796.039 916.504,796.295 916.707,796.552 916.898,796.81 917.078,797.07 917.246,797.33 917.402,797.59 917.546,797.852 917.678,798.114 
  917.798,798.376 917.905,798.639 918.001,798.902 918.084,799.166 918.155,799.429 918.214,799.693 918.26,799.957 918.294,800.221 918.316,800.484 918.325,800.747 
  918.322,801.01 918.307,801.273 918.279,801.535 918.239,801.797 918.187,802.058 918.123,802.318 918.047,802.577 917.959,802.836 917.858,803.093 917.746,803.349 
  917.622,803.605 917.487,803.859 917.34,804.112 917.182,804.363 917.012,804.613 916.831,804.862 916.639,805.109 916.437,805.354 916.223,805.598 915.999,805.839 
  915.764,806.079 915.52,806.317 915.265,806.553 915,806.787 914.725,807.019 914.441,807.249 914.147,807.476 913.844,807.701 913.532,807.924 913.211,808.144 
  912.882,808.362 912.545,808.577 912.199,808.79 911.845,809 911.484,809.207 911.116,809.412 910.74,809.614 910.358,809.813 909.968,810.009 909.573,810.202 
  909.172,810.393 908.765,810.58 908.352,810.765 907.934,810.946 907.511,811.125 907.084,811.3 906.652,811.472 906.216,811.641 905.776,811.807 905.333,811.97 
  904.887,812.13 904.438,812.286 903.986,812.439 903.533,812.589 903.077,812.736 902.619,812.879 902.161,813.019 901.701,813.156 901.24,813.29 900.779,813.42 
  900.318,813.547 899.858,813.671 899.398,813.792 898.938,813.909 898.48,814.023 898.024,814.134 897.569,814.242 897.116,814.346 896.666,814.448 896.219,814.546 
  895.774,814.641 895.334,814.733 894.896,814.822 894.464,814.908 894.035,814.991 893.611,815.071 893.192,815.149 892.778,815.223 892.37,815.294 891.967,815.363 
  891.571,815.429 891.181,815.492 890.798,815.553 890.421,815.611 890.052,815.666 889.691,815.719 889.337,815.769 888.991,815.817 888.654,815.863 888.325,815.906 
  888.005,815.947 887.694,815.986 887.392,816.022 887.1,816.057 886.817,816.089 886.545,816.12 886.282,816.149 886.03,816.176 885.788,816.201 885.557,816.224 
  885.337,816.246 885.128,816.267 884.93,816.286 884.744,816.304 884.569,816.32 884.406,816.335 884.255,816.349 884.116,816.362 883.989,816.374 883.874,816.385 
  883.772,816.396 883.682,816.405 883.605,816.414 883.54,816.423 883.488,816.431 883.449,816.438 883.423,816.445 883.41,816.452 883.41,816.459 883.423,816.466 
  883.449,816.472 883.488,816.479 883.541,816.486 883.607,816.493 883.686,816.501 883.778,816.509 883.883,816.517 884.002,816.526 884.133,816.535 884.278,816.546 
  884.436,816.557 884.607,816.569 884.79,816.582 884.987,816.596 885.196,816.611 885.418,816.628 885.653,816.646 885.9,816.665 886.159,816.685 886.43,816.707 
  886.714,816.731 887.01,816.756 887.317,816.783 887.636,816.812 887.967,816.843 888.309,816.876 888.662,816.911 889.027,816.947 889.402,816.986 889.788,817.028 
  890.184,817.071 890.591,817.117 891.008,817.165 891.435,817.216 891.872,817.269 892.318,817.325 892.773,817.383 893.238,817.444 893.711,817.508 894.193,817.574 
  894.683,817.644 895.182,817.716 895.688,817.791 896.201,817.869 896.722,817.95 897.25,818.034 897.784,818.121 898.325,818.211 898.872,818.305 899.425,818.401 
  899.983,818.501 900.547,818.604 901.115,818.71 901.688,818.819 902.266,818.931 902.847,819.047 903.433,819.166 904.021,819.289 904.613,819.414 905.208,819.544 
  905.805,819.676 906.404,819.812 907.005,819.951 907.608,820.093 908.212,820.239 908.817,820.389 909.422,820.541 910.028,820.697 910.634,820.857 911.24,821.019 
  911.845,821.185 912.449,821.355 913.052,821.527 913.654,821.703 914.253,821.882 914.851,822.065 915.446,822.25 916.039,822.439 916.628,822.631 917.214,822.826 
  917.796,823.024 918.375,823.225 918.949,823.429 919.519,823.636 920.084,823.846 920.643,824.059 921.197,824.275 921.746,824.494 922.288,824.715 922.824,824.939 
  923.353,825.165 923.876,825.394 924.392,825.626 924.901,825.86 925.402,826.096 925.896,826.335 926.382,826.577 926.859,826.82 927.328,827.065 927.788,827.313 
  928.239,827.563 928.681,827.815 929.114,828.068 929.537,828.324 929.951,828.581 930.355,828.84 930.748,829.1 931.131,829.363 931.504,829.626 931.866,829.891 
  932.218,830.158 932.558,830.425 932.888,830.694 933.206,830.964 933.513,831.235 933.809,831.507 934.093,831.78 934.365,832.054 934.626,832.328 934.875,832.603 
  935.113,832.878 935.338,833.154 935.551,833.43 935.752,833.707 935.941,833.983 936.118,834.26 936.283,834.537 936.435,834.813 936.576,835.09 936.704,835.366 
  936.82,835.642 936.924,835.918 937.015,836.193 937.095,836.467 937.161,836.741 937.216,837.015 937.259,837.287 937.289,837.559 937.307,837.829 937.313,838.099 
  937.307,838.367 937.288,838.634 937.258,838.9 937.216,839.165 937.163,839.428 937.097,839.69 937.02,839.95 936.932,840.209 936.832,840.466 936.721,840.721 
  936.599,840.975 936.467,841.226 936.323,841.476 936.169,841.723 936.004,841.968 935.83,842.212 935.645,842.453 935.45,842.692 935.246,842.928 935.032,843.162 
  934.81,843.394 934.578,843.623 934.338,843.85 934.089,844.074 933.832,844.295 933.567,844.513 933.295,844.729 933.014,844.942 932.727,845.153 932.432,845.36 
  932.131,845.565 931.823,845.767 931.509,845.965 931.189,846.161 930.863,846.354 930.531,846.544 930.194,846.73 929.853,846.914 929.507,847.094 929.156,847.272 
  928.802,847.446 928.443,847.617 928.082,847.785 927.717,847.95 927.349,848.111 926.979,848.269 926.606,848.424 926.232,848.576 925.856,848.725 925.479,848.87 
  925.1,849.013 924.721,849.152 924.342,849.288 923.963,849.421 923.584,849.55 923.206,849.677 922.829,849.8 922.453,849.92 922.079,850.037 921.707,850.152 
  921.338,850.263 920.971,850.371 920.607,850.476 920.246,850.578 919.889,850.678 919.536,850.774 919.186,850.868 918.842,850.959 918.502,851.047 918.167,851.132 
  917.838,851.215 917.515,851.295 917.197,851.373 916.886,851.448 916.582,851.52 916.285,851.59 915.994,851.658 915.711,851.723 915.436,851.786 915.169,851.847 
  914.91,851.905 914.66,851.962 914.419,852.016 914.186,852.068 913.963,852.119 913.749,852.168 913.545,852.214 913.351,852.26 913.167,852.303 912.993,852.345 
  912.83,852.385 912.678,852.424 912.536,852.462 912.406,852.498 912.287,852.533 912.18,852.567 912.085,852.6 912.001,852.633 911.93,852.664 911.87,852.694 
  911.823,852.724 911.789,852.753 911.767,852.782 911.757,852.81 911.761,852.838 911.777,852.865 911.806,852.892 911.848,852.919 911.904,852.946 911.973,852.973 
  912.055,853 912.15,853.028 912.259,853.055 912.381,853.083 912.517,853.112 912.666,853.14 912.829,853.17 913.005,853.2 913.195,853.231 913.399,853.262 
  913.616,853.295 913.846,853.329 914.09,853.363 914.348,853.399 914.618,853.436 914.902,853.474 915.2,853.514 915.51,853.555 915.834,853.598 916.17,853.642 
  916.519,853.688 916.881,853.736 917.256,853.785 917.643,853.837 918.042,853.89 918.453,853.946 918.877,854.003 919.312,854.063 919.759,854.125 920.217,854.189 
  920.687,854.256 921.167,854.325 921.659,854.396 922.162,854.47 922.675,854.547 923.199,854.626 923.733,854.708 924.277,854.793 924.831,854.88 925.394,854.971 
  925.967,855.064 926.549,855.16 927.14,855.259 927.739,855.362 928.347,855.467 928.963,855.575 929.587,855.687 930.219,855.801 930.858,855.919 931.504,856.04 
  932.157,856.164 932.817,856.292 933.483,856.423 934.155,856.557 934.832,856.694 935.515,856.835 936.203,856.98 936.895,857.127 937.592,857.278 938.293,857.432 
  938.998,857.59 939.706,857.751 940.418,857.916 941.132,858.084 941.848,858.255 942.566,858.43 943.287,858.608 944.009,858.79 944.732,858.975 945.456,859.163 
  946.181,859.355 946.906,859.55 947.631,859.748 948.355,859.949 949.08,860.154 949.803,860.362 950.524,860.573 951.244,860.788 951.963,861.005 952.678,861.226 
  953.392,861.45 954.102,861.677 954.81,861.907 955.514,862.14 956.214,862.376 956.911,862.615 957.603,862.857 958.29,863.102 958.972,863.349 959.65,863.599 
  960.322,863.852 960.988,864.107 961.648,864.365 962.302,864.626 962.95,864.889 963.591,865.154 964.224,865.422 964.851,865.692 965.47,865.964 966.081,866.238 
  966.684,866.515 967.278,866.793 967.864,867.073 968.442,867.355 969.01,867.639 969.569,867.924 970.119,868.212 970.659,868.5 971.19,868.79 971.711,869.082 
  972.222,869.374 972.723,869.668 973.213,869.963 973.693,870.26 974.162,870.557 974.62,870.855 975.067,871.154 975.503,871.454 975.927,871.754 976.34,872.056 
  976.741,872.357 977.131,872.659 977.508,872.962 977.874,873.265 978.228,873.567 978.569,873.871 978.899,874.174 979.216,874.477 979.52,874.78 979.813,875.083 
  980.093,875.385 980.361,875.688 980.616,875.989 980.859,876.291 981.089,876.591 981.307,876.891 981.513,877.191 981.706,877.489 981.887,877.787 982.056,878.083 
  982.212,878.378 982.356,878.673 982.489,878.966 982.609,879.257 982.717,879.547 982.813,879.836 982.898,880.123 982.971,880.409 983.033,880.692 983.083,880.974 
  983.122,881.255 983.15,881.533 983.166,881.809 983.172,882.084 983.167,882.356 983.151,882.626 983.125,882.894 983.089,883.16 983.042,883.424 982.985,883.685 
  982.918,883.943 982.842,884.2 982.756,884.453 982.661,884.705 982.557,884.953 982.444,885.199 982.322,885.442 982.192,885.683 982.053,885.921 981.907,886.155 
  981.753,886.388 981.591,886.617 981.423,886.843 981.247,887.067 981.065,887.287 980.876,887.504 980.681,887.719 980.48,887.93 980.274,888.139 980.063,888.344 
  979.847,888.546 979.626,888.746 979.401,888.942 979.172,889.135 978.939,889.325 978.704,889.511 978.465,889.695 978.224,889.876 977.981,890.053 977.735,890.227 
  977.488,890.399 977.24,890.567 976.99,890.732 976.74,890.894 976.489,891.053 976.238,891.209 975.988,891.362 975.738,891.512 975.489,891.659 975.241,891.803 
  974.995,891.944 974.75,892.082 974.508,892.217 974.269,892.349 974.032,892.479 973.799,892.605 973.569,892.729 973.343,892.85 973.121,892.969 972.904,893.085 
  972.691,893.198 972.483,893.309 972.281,893.417 972.085,893.523 971.895,893.627 971.711,893.728 971.533,893.827 971.363,893.923 971.2,894.018 971.044,894.11 
  970.897,894.2 970.757,894.289 970.626,894.375 970.504,894.46 970.391,894.543 970.287,894.624 970.192,894.703 970.108,894.781 970.033,894.858 969.968,894.933 
  969.914,895.006 969.87,895.079 969.837,895.15 969.815,895.22 969.805,895.289 969.806,895.357 969.819,895.424 969.844,895.491 969.882,895.556 969.931,895.621 
  969.993,895.685 970.068,895.749 970.155,895.812 970.256,895.875 970.37,895.938 970.497,896 970.637,896.063 970.791,896.125 970.958,896.187 971.139,896.25 
  971.334,896.312 971.543,896.375 971.765,896.438 972.002,896.502 972.252,896.566 972.517,896.631 972.796,896.697 973.089,896.763 973.396,896.83 973.717,896.898 
  974.053,896.968 974.403,897.038 974.766,897.109 975.144,897.182 975.537,897.256 975.943,897.332 976.363,897.409 976.797,897.488 977.245,897.569 977.707,897.651 
  978.182,897.735 978.672,897.82 979.175,897.908 979.691,897.998 980.221,898.089 980.764,898.183 981.321,898.279 981.891,898.378 982.473,898.479 983.069,898.582 
  983.677,898.687 984.298,898.795 984.931,898.906 985.577,899.019 986.234,899.135 986.904,899.254 987.585,899.376 988.278,899.5 988.982,899.627 989.698,899.757 
  990.424,899.89 991.161,900.027 991.908,900.166 992.665,900.308 993.433,900.453 994.21,900.602 994.996,900.754 995.792,900.908 996.596,901.067 997.409,901.228 
  998.23,901.393 999.059,901.561 999.896,901.732 1000.74,901.907 1001.59,902.085 1002.45,902.267 1003.31,902.452 1004.18,902.64 1005.06,902.832 1005.94,903.027 
  1006.83,903.226 1007.72,903.428 1008.62,903.634 1009.52,903.842 1010.43,904.055 1011.34,904.271 1012.25,904.49 1013.17,904.713 1014.09,904.939 1015.01,905.168 
  1015.94,905.401 1016.86,905.638 1017.79,905.877 1018.72,906.12 1019.65,906.367 1020.58,906.616 1021.51,906.869 1022.44,907.125 1023.38,907.385 1024.31,907.647 
  1025.24,907.913 1026.16,908.181 1027.09,908.453 1028.02,908.728 1028.94,909.006 1029.86,909.286 1030.78,909.57 1031.69,909.856 1032.6,910.145 1033.51,910.437 
  1034.41,910.732 1035.31,911.029 1036.2,911.328 1037.09,911.63 1037.97,911.935 1038.85,912.242 1039.72,912.551 1040.58,912.862 1041.44,913.175 1042.29,913.491 
  1043.14,913.808 1043.98,914.127 1044.81,914.449 1045.63,914.772 1046.44,915.097 1047.25,915.423 1048.05,915.752 1048.84,916.081 1049.62,916.413 1050.39,916.745 
  1051.15,917.079 1051.9,917.414 1052.64,917.75 1053.38,918.088 1054.1,918.426 1054.81,918.766 1055.51,919.106 1056.2,919.447 1056.88,919.788 1057.55,920.131 
  1058.21,920.474 1058.85,920.817 1059.49,921.161 1060.11,921.505 1060.72,921.849 1061.32,922.193 1061.91,922.537 1062.49,922.882 1063.05,923.226 1063.6,923.57 
  1064.14,923.913 1064.67,924.257 1065.18,924.599 1065.69,924.942 1066.18,925.283 1066.65,925.624 1067.12,925.964 1067.57,926.303 1068.02,926.641 1068.44,926.978 
  1068.86,927.314 1069.27,927.649 1069.66,927.982 1070.04,928.314 1070.41,928.645 1070.76,928.975 1071.11,929.302 1071.44,929.629 1071.76,929.953 1072.07,930.276 
  1072.36,930.597 1072.65,930.916 1072.92,931.234 1073.18,931.549 1073.43,931.862 1073.67,932.173 1073.89,932.482 1074.11,932.789 1074.31,933.093 1074.51,933.395 
  1074.69,933.695 1074.86,933.993 1075.03,934.288 1075.18,934.58 1075.32,934.87 1075.46,935.157 1075.58,935.442 1075.69,935.724 1075.8,936.003 1075.9,936.28 
  1075.98,936.554 1076.06,936.825 1076.14,937.093 1076.2,937.358 1076.26,937.621 1076.31,937.88 1076.35,938.137 1076.39,938.391 1076.42,938.641 1076.44,938.889 
  1076.46,939.134 1076.48,939.376 1076.49,939.614 1076.49,939.85 1076.49,940.083 1076.49,940.312 1076.48,940.539 1076.47,940.763 1076.46,940.984 1076.44,941.201 
  1076.42,941.416 1076.4,941.628 1076.38,941.836 1076.35,942.042 1076.33,942.245 1076.3,942.445 1076.27,942.642 1076.24,942.836 1076.22,943.027 1076.19,943.215 
  1076.17,943.401 1076.14,943.584 1076.12,943.764 1076.1,943.941 1076.08,944.115 1076.06,944.287 1076.05,944.456 1076.04,944.623 1076.03,944.787 1076.03,944.949 
  1076.03,945.108 1076.04,945.265 1076.05,945.419 1076.07,945.571 1076.09,945.721 1076.12,945.869 1076.16,946.014 1076.2,946.158 1076.25,946.3 1076.31,946.439 
  1076.37,946.577 1076.45,946.713 1076.53,946.848 1076.62,946.98 1076.72,947.111 1076.83,947.241 1076.94,947.369 1077.07,947.495 1077.21,947.62 1077.36,947.744 
  1077.52,947.867 1077.69,947.988 1077.87,948.109 1078.06,948.229 1078.27,948.347 1078.48,948.465 1078.71,948.582 1078.95,948.698 1079.2,948.814 1079.47,948.929 
  1079.75,949.044 1080.04,949.159 1080.35,949.273 1080.67,949.387 1081,949.501 1081.35,949.615 1081.71,949.728 1082.08,949.842 1082.47,949.957 1082.88,950.071 
  
  "/>
<polyline clip-path="url(#clip5003)" style="stroke:#3da44d; stroke-width:12; stroke-opacity:1; fill:none" points="
  850.429,783.234 850.413,783.234 850.363,783.234 850.281,783.233 850.166,783.232 850.018,783.229 849.837,783.226 849.624,783.222 849.378,783.216 849.1,783.209 
  848.79,783.199 848.447,783.188 848.074,783.174 847.668,783.158 847.232,783.139 846.765,783.117 846.267,783.092 845.738,783.064 845.18,783.033 844.592,782.998 
  843.975,782.959 843.329,782.916 842.655,782.869 841.953,782.817 841.223,782.761 840.466,782.7 839.683,782.635 838.874,782.564 838.039,782.488 837.179,782.407 
  836.295,782.32 835.386,782.228 834.455,782.129 833.501,782.025 832.525,781.915 831.528,781.798 830.51,781.675 829.471,781.545 828.414,781.409 827.338,781.265 
  826.244,781.115 825.132,780.958 824.004,780.794 822.861,780.623 821.702,780.444 820.529,780.258 819.343,780.064 818.144,779.863 816.933,779.654 815.711,779.437 
  814.479,779.212 813.238,778.98 811.988,778.739 810.731,778.491 809.466,778.234 808.196,777.969 806.92,777.696 805.641,777.415 804.357,777.125 803.072,776.828 
  801.784,776.522 800.496,776.207 799.209,775.885 797.922,775.554 796.637,775.214 795.355,774.866 794.077,774.51 792.804,774.146 791.535,773.773 790.274,773.392 
  789.02,773.003 787.773,772.605 786.536,772.2 785.309,771.786 784.093,771.364 782.888,770.934 781.696,770.496 780.517,770.05 779.353,769.597 778.203,769.135 
  777.07,768.666 775.953,768.189 774.854,767.705 773.773,767.213 772.712,766.714 771.671,766.208 770.65,765.695 769.651,765.174 768.674,764.647 767.72,764.113 
  766.79,763.572 765.884,763.024 765.004,762.47 764.149,761.91 763.32,761.344 762.519,760.771 761.746,760.193 761.001,759.609 760.284,759.019 759.598,758.424 
  758.941,757.824 758.316,757.219 757.721,756.609 757.158,755.994 756.627,755.374 756.129,754.75 755.664,754.121 755.232,753.489 754.834,752.853 754.471,752.213 
  754.142,751.569 753.849,750.922 753.59,750.272 753.367,749.619 753.18,748.964 753.029,748.305 752.914,747.644 752.836,746.982 752.794,746.317 752.79,745.65 
  752.822,744.981 752.891,744.312 752.997,743.641 753.141,742.969 753.321,742.296 753.539,741.622 753.794,740.949 754.086,740.275 754.416,739.601 754.782,738.927 
  755.185,738.254 755.625,737.581 756.101,736.91 756.613,736.239 757.162,735.569 757.747,734.901 758.367,734.235 759.022,733.57 759.713,732.908 760.438,732.247 
  761.198,731.59 761.991,730.934 762.818,730.282 763.678,729.633 764.571,728.987 765.496,728.344 766.453,727.705 767.441,727.069 768.46,726.438 769.509,725.81 
  770.588,725.187 771.696,724.568 772.833,723.954 773.997,723.345 775.188,722.74 776.406,722.141 777.65,721.547 778.919,720.958 780.213,720.375 781.53,719.798 
  782.87,719.226 784.232,718.661 785.615,718.101 787.02,717.548 788.444,717.001 789.887,716.461 791.349,715.927 792.828,715.4 794.324,714.88 795.835,714.366 
  797.361,713.86 798.901,713.361 800.455,712.87 802.02,712.385 803.597,711.909 805.184,711.439 806.782,710.978 808.387,710.524 810.001,710.078 811.622,709.64 
  813.248,709.209 814.88,708.787 816.516,708.372 818.156,707.966 819.798,707.567 821.441,707.177 823.086,706.795 824.729,706.421 826.372,706.055 828.013,705.697 
  829.65,705.348 831.283,705.007 832.912,704.674 834.534,704.349 836.15,704.032 837.758,703.723 839.357,703.422 840.947,703.13 842.527,702.845 844.095,702.569 
  845.652,702.3 847.196,702.039 848.727,701.787 850.243,701.542 851.744,701.304 853.229,701.075 854.698,700.853 856.148,700.639 857.581,700.432 858.994,700.232 
  860.387,700.04 861.76,699.855 863.112,699.678 864.442,699.507 865.75,699.343 867.034,699.186 868.295,699.035 869.531,698.892 870.742,698.754 871.928,698.623 
  873.088,698.498 874.221,698.38 875.327,698.267 876.405,698.16 877.455,698.058 878.477,697.962 879.47,697.871 880.433,697.785 881.366,697.704 882.269,697.628 
  883.141,697.557 883.982,697.49 884.792,697.427 885.571,697.368 886.317,697.313 887.032,697.262 887.714,697.215 888.364,697.17 888.981,697.129 889.564,697.091 
  890.115,697.056 890.632,697.023 891.116,696.993 891.566,696.965 891.983,696.939 892.365,696.915 892.714,696.892 893.03,696.871 893.311,696.851 893.559,696.832 
  893.773,696.813 893.953,696.796 894.1,696.779 894.214,696.761 894.294,696.744 894.342,696.727 894.356,696.71 894.338,696.691 894.288,696.672 894.206,696.652 
  894.092,696.63 893.947,696.607 893.77,696.583 893.563,696.556 893.326,696.527 893.058,696.496 892.762,696.463 892.436,696.426 892.081,696.387 891.698,696.345 
  891.287,696.299 890.849,696.25 890.384,696.198 889.892,696.141 889.375,696.081 888.833,696.016 888.266,695.947 887.675,695.873 887.06,695.795 886.422,695.711 
  885.763,695.623 885.081,695.529 884.379,695.43 883.657,695.326 882.915,695.215 882.154,695.099 881.375,694.977 880.579,694.849 879.766,694.714 878.937,694.573 
  878.094,694.425 877.236,694.271 876.364,694.11 875.48,693.942 874.584,693.767 873.678,693.585 872.761,693.395 871.835,693.198 870.901,692.994 869.958,692.783 
  869.009,692.563 868.054,692.337 867.094,692.102 866.13,691.859 865.163,691.609 864.193,691.35 863.223,691.084 862.252,690.809 861.281,690.526 860.312,690.235 
  859.346,689.936 858.382,689.628 857.423,689.312 856.469,688.988 855.521,688.655 854.58,688.313 853.646,687.964 852.721,687.606 851.806,687.239 850.901,686.864 
  850.007,686.481 849.126,686.089 848.257,685.689 847.402,685.28 846.562,684.863 845.738,684.438 844.93,684.005 844.139,683.564 843.367,683.114 842.613,682.657 
  841.88,682.191 841.167,681.718 840.475,681.236 839.806,680.748 839.161,680.251 838.539,679.747 837.942,679.236 837.37,678.717 836.824,678.191 836.305,677.657 
  835.813,677.117 835.349,676.57 834.914,676.016 834.508,675.455 834.133,674.887 833.789,674.313 833.475,673.733 833.194,673.146 832.945,672.554 832.73,671.955 
  832.548,671.35 832.4,670.74 832.286,670.125 832.208,669.503 832.165,668.877 832.157,668.246 832.186,667.609 832.252,666.968 832.354,666.323 832.494,665.673 
  832.671,665.018 832.886,664.36 833.139,663.698 833.431,663.032 833.761,662.362 834.129,661.69 834.536,661.014 834.983,660.335 835.468,659.654 835.993,658.97 
  836.557,658.283 837.16,657.595 837.803,656.905 838.485,656.213 839.206,655.52 839.967,654.825 840.766,654.13 841.605,653.433 842.483,652.735 843.399,652.037 
  844.354,651.339 845.348,650.641 846.379,649.942 847.448,649.244 848.555,648.547 849.698,647.85 850.879,647.154 852.096,646.459 853.349,645.765 854.637,645.073 
  855.961,644.383 857.32,643.694 858.713,643.008 860.14,642.324 861.601,641.642 863.094,640.963 864.62,640.286 866.177,639.613 867.765,638.943 869.384,638.276 
  871.033,637.613 872.712,636.953 874.419,636.297 876.153,635.645 877.915,634.998 879.704,634.355 881.518,633.716 883.357,633.082 885.22,632.453 887.107,631.829 
  889.016,631.21 890.946,630.596 892.897,629.988 894.868,629.385 896.858,628.788 898.866,628.197 900.891,627.613 902.933,627.034 904.99,626.461 907.062,625.894 
  909.147,625.334 911.245,624.781 913.354,624.234 915.475,623.693 917.605,623.16 919.743,622.633 921.89,622.114 924.043,621.602 926.202,621.097 928.366,620.6 
  930.534,620.11 932.705,619.627 934.878,619.152 937.051,618.685 939.225,618.225 941.398,617.773 943.57,617.329 945.739,616.893 947.904,616.465 950.064,616.044 
  952.219,615.632 954.368,615.227 956.509,614.831 958.642,614.442 960.766,614.062 962.88,613.689 964.983,613.324 967.074,612.968 969.152,612.619 971.216,612.278 
  973.266,611.945 975.301,611.62 977.319,611.303 979.32,610.993 981.303,610.691 983.267,610.397 985.211,610.11 987.135,609.831 989.036,609.559 990.916,609.295 
  992.772,609.038 994.603,608.788 996.41,608.545 998.191,608.309 999.945,608.08 1001.67,607.858 1003.37,607.642 1005.05,607.433 1006.69,607.231 1008.31,607.035 
  1009.89,606.846 1011.45,606.662 1012.98,606.485 1014.47,606.313 1015.94,606.148 1017.37,605.988 1018.77,605.833 1020.14,605.684 1021.48,605.54 1022.78,605.402 
  1024.04,605.268 1025.28,605.139 1026.48,605.015 1027.64,604.896 1028.77,604.78 1029.86,604.669 1030.92,604.562 1031.95,604.459 1032.93,604.359 1033.89,604.263 
  1034.8,604.171 1035.68,604.081 1036.53,603.994 1037.34,603.911 1038.11,603.829 1038.85,603.75 1039.55,603.674 1040.21,603.599 1040.84,603.526 1041.44,603.454 
  1042,603.384 1042.52,603.315 1043.01,603.247 1043.47,603.18 1043.89,603.113 1044.27,603.046 1044.63,602.98 1044.95,602.913 1045.24,602.846 1045.49,602.779 
  1045.71,602.711 1045.9,602.642 1046.06,602.572 1046.19,602.501 1046.29,602.428 1046.36,602.354 1046.39,602.278 1046.4,602.2 1046.38,602.119 1046.33,602.036 
  1046.26,601.951 1046.15,601.862 1046.02,601.771 1045.87,601.676 1045.69,601.578 1045.48,601.477 1045.25,601.371 1045,601.262 1044.73,601.149 1044.43,601.031 
  1044.12,600.909 1043.78,600.783 1043.42,600.651 1043.05,600.515 1042.65,600.373 1042.25,600.227 1041.82,600.075 1041.38,599.917 1040.92,599.754 1040.46,599.584 
  1039.98,599.409 1039.48,599.228 1038.98,599.04 1038.47,598.845 1037.95,598.645 1037.42,598.437 1036.89,598.223 1036.35,598.001 1035.8,597.773 1035.25,597.538 
  1034.7,597.295 1034.14,597.046 1033.58,596.788 1033.03,596.524 1032.47,596.251 1031.91,595.971 1031.36,595.684 1030.81,595.388 1030.27,595.085 1029.73,594.773 
  1029.2,594.454 1028.68,594.126 1028.16,593.791 1027.66,593.447 1027.16,593.095 1026.68,592.735 1026.21,592.367 1025.75,591.99 1025.31,591.605 1024.88,591.212 
  1024.47,590.811 1024.07,590.401 1023.7,589.983 1023.34,589.557 1023,589.122 1022.68,588.679 1022.39,588.229 1022.12,587.77 1021.87,587.302 1021.64,586.827 
  1021.44,586.344 1021.27,585.853 1021.12,585.354 1021,584.847 1020.91,584.333 1020.84,583.811 1020.81,583.281 1020.81,582.744 1020.83,582.199 1020.89,581.647 
  1020.99,581.088 1021.11,580.522 1021.28,579.948 1021.47,579.368 1021.7,578.78 1021.97,578.186 1022.27,577.585 1022.62,576.977 1023,576.363 1023.41,575.743 
  1023.87,575.116 1024.37,574.483 1024.91,573.844 1025.48,573.2 1026.1,572.549 1026.76,571.893 1027.46,571.231 1028.2,570.565 1028.99,569.893 1029.82,569.216 
  1030.69,568.534 1031.6,567.847 1032.56,567.156 1033.56,566.461 1034.6,565.762 1035.69,565.058 1036.82,564.351 1037.99,563.64 1039.21,562.926 1040.47,562.209 
  1041.78,561.489 1043.13,560.765 1044.52,560.04 1045.96,559.312 1047.44,558.581 1048.97,557.849 1050.54,557.116 1052.15,556.38 1053.81,555.644 1055.5,554.906 
  1057.25,554.168 1059.03,553.428 1060.85,552.688 1062.72,551.948 1064.63,551.207 1066.58,550.466 1068.57,549.725 1070.6,548.985 1072.67,548.245 1074.78,547.506 
  1076.93,546.767 1079.12,546.03 1081.34,545.294 1083.6,544.56 1085.9,543.827 1088.23,543.096 1090.6,542.368 1093,541.641 1095.44,540.917 1097.91,540.195 
  1100.41,539.477 1102.94,538.761 1105.51,538.048 1108.1,537.338 1110.73,536.632 1113.38,535.93 1116.06,535.231 1118.77,534.536 1121.5,533.845 1124.26,533.159 
  1127.04,532.477 1129.85,531.799 1132.67,531.126 1135.52,530.458 1138.39,529.795 1141.28,529.137 1144.19,528.485 1147.11,527.837 1150.06,527.196 1153.01,526.56 
  1155.98,525.93 1158.97,525.305 1161.96,524.687 1164.97,524.074 1167.99,523.468 1171.01,522.867 1174.05,522.273 1177.09,521.685 1180.14,521.104 1183.19,520.529 
  1186.25,519.961 1189.31,519.399 1192.37,518.845 1195.43,518.297 1198.48,517.757 1201.54,517.224 1204.6,516.698 1207.65,516.179 1210.69,515.667 1213.73,515.163 
  1216.76,514.667 1219.79,514.178 1222.8,513.696 1225.81,513.222 1228.8,512.756 1231.78,512.297 1234.75,511.846 1237.71,511.403 1240.65,510.967 1243.57,510.539 
  1246.48,510.119 1249.37,509.706 1252.24,509.301 1255.09,508.903 1257.93,508.513 1260.74,508.131 1263.53,507.756 1266.29,507.389 1269.03,507.029 1271.75,506.676 
  1274.44,506.331 1277.11,505.993 1279.75,505.662 1282.36,505.339 1284.95,505.022 1287.5,504.712 1290.02,504.409 1292.52,504.113 1294.98,503.823 1297.41,503.54 
  1299.81,503.263 1302.17,502.993 1304.5,502.728 1306.8,502.47 1309.06,502.218 1311.28,501.971 1313.46,501.73 1315.61,501.494 1317.72,501.264 1319.79,501.039 
  1321.82,500.818 1323.82,500.603 1325.77,500.392 1327.69,500.186 1329.57,499.985 1331.42,499.788 1333.22,499.596 1334.98,499.407 1336.71,499.223 1338.4,499.042 
  1340.04,498.865 1341.65,498.692 1343.22,498.522 1344.75,498.355 1346.24,498.191 1347.69,498.03 1349.1,497.871 1350.48,497.715 1351.81,497.562 1353.1,497.41 
  1354.36,497.26 1355.58,497.113 1356.76,496.966 1357.9,496.821 1359,496.678 1360.07,496.535 1361.1,496.394 1362.09,496.253 1363.05,496.112 1363.97,495.972 
  1364.86,495.832 1365.71,495.691 1366.53,495.551 1367.32,495.41 1368.07,495.268 1368.79,495.125 1369.48,494.981 1370.14,494.836 1370.77,494.689 1371.37,494.541 
  1371.94,494.39 1372.49,494.238 1373.01,494.083 1373.5,493.926 1373.96,493.766 1374.41,493.603 1374.82,493.437 1375.22,493.268 1375.59,493.096 1375.94,492.92 
  1376.27,492.741 1376.58,492.558 1376.87,492.371 1377.15,492.179 1377.41,491.983 1377.65,491.783 1377.87,491.578 1378.09,491.368 1378.29,491.154 1378.48,490.934 
  1378.65,490.709 1378.82,490.478 1378.98,490.242 1379.13,490 1379.28,489.752 1379.41,489.499 1379.55,489.239 1379.68,488.974 1379.8,488.702 1379.93,488.423 
  1380.05,488.138 1380.18,487.847 1380.31,487.548 1380.44,487.243 1380.57,486.931 1380.71,486.612 1380.86,486.286 1381.01,485.953 1381.17,485.612 1381.34,485.264 
  1381.53,484.909 1381.72,484.546 1381.93,484.176 1382.15,483.798 1382.39,483.413 1382.64,483.02 1382.92,482.619 1383.21,482.21 1383.51,481.794 1383.84,481.37 
  1384.19,480.938 1384.57,480.499 1384.97,480.051 1385.39,479.596 1385.83,479.133 1386.31,478.662 1386.81,478.183 1387.34,477.696 1387.91,477.202 1388.5,476.699 
  1389.12,476.189 1389.78,475.671 1390.47,475.145 1391.19,474.612 1391.95,474.071 1392.75,473.522 1393.59,472.966 1394.46,472.402 1395.37,471.831 1396.32,471.253 
  1397.31,470.667 1398.34,470.074 1399.41,469.473 1400.52,468.866 1401.68,468.252 1402.88,467.631 1404.12,467.003 1405.41,466.369 1406.74,465.728 1408.12,465.081 
  1409.55,464.427 1411.02,463.767 1412.54,463.101 1414.11,462.43 1415.73,461.753 1417.39,461.07 1419.11,460.381 1420.87,459.688 1422.68,458.989 1424.55,458.285 
  1426.46,457.576 1428.42,456.862 1430.44,456.144 1432.5,455.421 1434.62,454.694 1436.79,453.963 1439.01,453.228 1441.28,452.489 1443.6,451.746 1445.97,450.999 
  1448.4,450.25 1450.87,449.497 1453.4,448.741 1455.98,447.982 1458.61,447.22 1461.3,446.456 1464.03,445.689 1466.82,444.921 1469.65,444.15 1472.54,443.377 
  1475.47,442.603 1478.46,441.827 1481.5,441.05 1484.58,440.272 1487.71,439.492 1490.9,438.712 1494.12,437.932 1497.4,437.151 1500.72,436.369 1504.09,435.588 
  1507.51,434.807 1510.97,434.026 1514.47,433.246 1518.02,432.467 1521.61,431.689 1525.25,430.912 1528.92,430.136 1532.64,429.362 1536.39,428.589 1540.19,427.819 
  1544.02,427.051 1547.89,426.285 1551.8,425.522 1555.74,424.761 1559.72,424.002 1563.74,423.247 1567.78,422.495 1571.86,421.745 1575.97,421 1580.11,420.257 
  1584.28,419.519 1588.48,418.784 1592.7,418.053 1596.95,417.327 1601.22,416.605 1605.52,415.887 1609.84,415.174 1614.18,414.465 1618.54,413.762 1622.92,413.063 
  1627.32,412.369 1631.73,411.681 1636.16,410.998 1640.6,410.321 1645.06,409.649 1649.53,408.982 1654,408.322 1658.49,407.667 1662.99,407.019 1667.5,406.376 
  1672.01,405.739 1676.52,405.109 1681.04,404.485 1685.57,403.867 1690.09,403.256 1694.61,402.651 1699.14,402.053 1703.66,401.462 1708.17,400.877 1712.69,400.299 
  1717.19,399.727 1721.69,399.163 1726.18,398.605 1730.67,398.054 1735.14,397.51 1739.6,396.973 1744.04,396.443 1748.47,395.919 1752.89,395.403 1757.29,394.894 
  1761.68,394.391 1766.05,393.895 1770.39,393.407 1774.72,392.925 1779.03,392.45 1783.31,391.982 1787.58,391.52 1791.81,391.066 1796.02,390.619 1800.2,390.178 
  1804.36,389.744 1808.49,389.317 1812.58,388.897 1816.65,388.483 1820.68,388.077 1824.69,387.676 1828.66,387.283 1832.59,386.895 1836.49,386.515 1840.36,386.14 
  1844.19,385.772 1847.98,385.411 1851.73,385.055 1855.45,384.705 1859.13,384.362 1862.77,384.024 1866.37,383.692 1869.93,383.366 1873.44,383.045 1876.92,382.73 
  1880.36,382.42 1883.75,382.116 1887.11,381.816 1890.42,381.522 1893.69,381.232 1896.91,380.947 1900.1,380.667 1903.24,380.391 1906.33,380.119 1909.39,379.851 
  1912.4,379.587 1915.36,379.327 1918.29,379.071 1921.17,378.818 1924,378.568 1926.8,378.322 1929.55,378.078 1932.25,377.837 1934.92,377.598 1937.54,377.362 
  
  "/>
<circle clip-path="url(#clip5003)" style="fill:#000000; stroke:none; fill-opacity:1" cx="868.009" cy="783.234" r="18"/>
<circle clip-path="url(#clip5003)" style="fill:#ac8d18; stroke:none; fill-opacity:1" cx="868.009" cy="783.234" r="14"/>
<polygon clip-path="url(#clip5001)" points="
1621.3,572.384 2249.26,572.384 2249.26,209.504 1621.3,209.504 
  " fill="#ffffff" fill-rule="evenodd" fill-opacity="1"/>
<polyline clip-path="url(#clip5001)" style="stroke:#000000; stroke-width:4; stroke-opacity:1; fill:none" points="
  1621.3,572.384 2249.26,572.384 2249.26,209.504 1621.3,209.504 1621.3,572.384 
  "/>
<polyline clip-path="url(#clip5001)" style="stroke:#009af9; stroke-width:4; stroke-opacity:1; fill:none" points="
  1645.3,269.984 1789.3,269.984 
  "/>
<g clip-path="url(#clip5001)">
<text style="fill:#000000; fill-opacity:1; font-family:Arial,Helvetica Neue,Helvetica,sans-serif; font-size:48px; text-anchor:start;" transform="rotate(0, 1813.3, 287.484)" x="1813.3" y="287.484">Orbit</text>
</g>
<polyline clip-path="url(#clip5001)" style="stroke:#e26f46; stroke-width:12; stroke-opacity:1; fill:none" points="
  1645.3,330.464 1789.3,330.464 
  "/>
<g clip-path="url(#clip5001)">
<text style="fill:#000000; fill-opacity:1; font-family:Arial,Helvetica Neue,Helvetica,sans-serif; font-size:48px; text-anchor:start;" transform="rotate(0, 1813.3, 347.964)" x="1813.3" y="347.964">Solution 1</text>
</g>
<polyline clip-path="url(#clip5001)" style="stroke:#3da44d; stroke-width:12; stroke-opacity:1; fill:none" points="
  1645.3,390.944 1789.3,390.944 
  "/>
<g clip-path="url(#clip5001)">
<text style="fill:#000000; fill-opacity:1; font-family:Arial,Helvetica Neue,Helvetica,sans-serif; font-size:48px; text-anchor:start;" transform="rotate(0, 1813.3, 408.444)" x="1813.3" y="408.444">Solution 2</text>
</g>
<circle clip-path="url(#clip5001)" style="fill:#000000; stroke:none; fill-opacity:1" cx="1729.3" cy="451.424" r="25"/>
<circle clip-path="url(#clip5001)" style="fill:#c271d2; stroke:none; fill-opacity:1" cx="1729.3" cy="451.424" r="21"/>
<g clip-path="url(#clip5001)">
<text style="fill:#000000; fill-opacity:1; font-family:Arial,Helvetica Neue,Helvetica,sans-serif; font-size:48px; text-anchor:start;" transform="rotate(0, 1813.3, 468.924)" x="1813.3" y="468.924">Massive Bodies</text>
</g>
<circle clip-path="url(#clip5001)" style="fill:#000000; stroke:none; fill-opacity:1" cx="1729.3" cy="511.904" r="25"/>
<circle clip-path="url(#clip5001)" style="fill:#ac8d18; stroke:none; fill-opacity:1" cx="1729.3" cy="511.904" r="21"/>
<g clip-path="url(#clip5001)">
<text style="fill:#000000; fill-opacity:1; font-family:Arial,Helvetica Neue,Helvetica,sans-serif; font-size:48px; text-anchor:start;" transform="rotate(0, 1813.3, 529.404)" x="1813.3" y="529.404">Lagrangian Points</text>
</g>
</svg>
