<?xml version="1.0" encoding="UTF-8"?>
<svg xmlns="http://www.w3.org/2000/svg"
     xmlns:xlink="http://www.w3.org/1999/xlink"
     xmlns:gadfly="http://www.gadflyjl.org/ns"
     version="1.2"
     width="150mm" height="90mm" viewBox="0 0 150 90"
     stroke="none"
     fill="#000000"
     stroke-width="0.3"
     font-size="3.88"
>
<g class="plotroot xscalable yscalable" id="img-82f90582-1">
  <g font-size="3.88" font-family="'PT Sans','Helvetica Neue','Helvetica',sans-serif" fill="#564A55" stroke="#000000" stroke-opacity="0.000" id="img-82f90582-2">
    <text x="83.21" y="78.39" text-anchor="middle" dy="0.6em">h</text>
  </g>
  <g class="guide xlabels" font-size="2.82" font-family="'PT Sans Caption','Helvetica Neue','Helvetica',sans-serif" fill="#6C606B" id="img-82f90582-3">
    <text x="23.42" y="71.72" text-anchor="middle" dy="0.6em">0.000</text>
    <text x="83.21" y="71.72" text-anchor="middle" dy="0.6em">0.005</text>
    <text x="143" y="71.72" text-anchor="middle" dy="0.6em">0.010</text>
  </g>
<g clip-path="url(#img-82f90582-4)">
  <g id="img-82f90582-5">
    <g pointer-events="visible" opacity="1" fill="#000000" fill-opacity="0.000" stroke="#000000" stroke-opacity="0.000" class="guide background" id="img-82f90582-6">
      <rect x="21.42" y="55.61" width="123.58" height="15.1"/>
    </g>
    <g class="guide ygridlines xfixed" stroke-dasharray="0.5,0.5" stroke-width="0.2" stroke="#D0D0E0" id="img-82f90582-7">
      <path fill="none" d="M21.42,68.72 L 145 68.72"/>
      <path fill="none" d="M21.42,65.94 L 145 65.94"/>
      <path fill="none" d="M21.42,63.16 L 145 63.16"/>
      <path fill="none" d="M21.42,60.39 L 145 60.39"/>
      <path fill="none" d="M21.42,57.61 L 145 57.61"/>
    </g>
    <g class="guide xgridlines yfixed" stroke-dasharray="0.5,0.5" stroke-width="0.2" stroke="#D0D0E0" id="img-82f90582-8">
      <path fill="none" d="M23.42,55.61 L 23.42 70.72"/>
      <path fill="none" d="M83.21,55.61 L 83.21 70.72"/>
      <path fill="none" d="M143,55.61 L 143 70.72"/>
    </g>
    <g class="plotpanel" id="img-82f90582-9">
      <g stroke-width="0.3" fill="#000000" fill-opacity="0.000" class="geometry" stroke-dasharray="none" stroke="#586E75" id="img-82f90582-10">
        <path fill="none" d="M23.42,63.16 L 23.9 63.15 24.38 63.13 24.86 63.12 25.34 63.1 25.82 63.09 26.3 63.07 26.78 63.06 27.26 63.04 27.74 63.03 28.22 63.01 28.7 63 29.18 62.98 29.66 62.96 30.14 62.95 30.62 62.93 31.1 62.92 31.58 62.9 32.06 62.89 32.54 62.87 33.02 62.86 33.5 62.84 33.98 62.83 34.46 62.81 34.94 62.8 35.42 62.78 35.9 62.77 36.39 62.75 36.87 62.74 37.35 62.72 37.83 62.7 38.31 62.69 38.79 62.67 39.27 62.66 39.75 62.64 40.23 62.63 40.71 62.61 41.19 62.6 41.67 62.58 42.15 62.57 42.63 62.55 43.11 62.54 43.59 62.52 44.07 62.51 44.55 62.49 45.03 62.48 45.51 62.46 45.99 62.44 46.47 62.43 46.95 62.41 47.43 62.4 47.91 62.38 48.39 62.37 48.87 62.35 49.35 62.34 49.83 62.32 50.31 62.31 50.79 62.29 51.27 62.28 51.75 62.26 52.23 62.25 52.71 62.23 53.19 62.22 53.67 62.2 54.15 62.18 54.63 62.17 55.11 62.15 55.59 62.14 56.08 62.12 56.56 62.11 57.04 62.09 57.52 62.08 58 62.06 58.48 62.05 58.96 62.03 59.44 62.02 59.92 62 60.4 61.99 60.88 61.97 61.36 61.96 61.84 61.94 62.32 61.92 62.8 61.91 63.28 61.89 63.76 61.88 64.24 61.86 64.72 61.85 65.2 61.83 65.68 61.82 66.16 61.8 66.64 61.79 67.12 61.77 67.6 61.76 68.08 61.74 68.56 61.73 69.04 61.71 69.52 61.7 70 61.68 70.48 61.66 70.96 61.65 71.44 61.63 71.92 61.62 72.4 61.6 72.88 61.59 73.36 61.57 73.84 61.56 74.32 61.54 74.8 61.53 75.29 61.51 75.77 61.5 76.25 61.48 76.73 61.47 77.21 61.45 77.69 61.44 78.17 61.42 78.65 61.4 79.13 61.39 79.61 61.37 80.09 61.36 80.57 61.34 81.05 61.33 81.53 61.31 82.01 61.3 82.49 61.28 82.97 61.27 83.45 61.25 83.93 61.24 84.41 61.22 84.89 61.21 85.37 61.19 85.85 61.18 86.33 61.16 86.81 61.14 87.29 61.13 87.77 61.11 88.25 61.1 88.73 61.08 89.21 61.07 89.69 61.05 90.17 61.04 90.65 61.02 91.13 61.01 91.61 60.99 92.09 60.98 92.57 60.96 93.05 60.95 93.53 60.93 94.01 60.92 94.49 60.9 94.98 60.88 95.46 60.87 95.94 60.85 96.42 60.84 96.9 60.82 97.38 60.81 97.86 60.79 98.34 60.78 98.82 60.76 99.3 60.75 99.78 60.73 100.26 60.72 100.74 60.7 101.22 60.69 101.7 60.67 102.18 60.66 102.66 60.64 103.14 60.62 103.62 60.61 104.1 60.59 104.58 60.58 105.06 60.56 105.54 60.55 106.02 60.53 106.5 60.52 106.98 60.5 107.46 60.49 107.94 60.47 108.42 60.46 108.9 60.44 109.38 60.43 109.86 60.41 110.34 60.4 110.82 60.38 111.3 60.36 111.78 60.35 112.26 60.33 112.74 60.32 113.22 60.3 113.7 60.29 114.19 60.27 114.67 60.26 115.15 60.24 115.63 60.23 116.11 60.21 116.59 60.2 117.07 60.18 117.55 60.17 118.03 60.15 118.51 60.14 118.99 60.12 119.47 60.1 119.95 60.09 120.43 60.07 120.91 60.06 121.39 60.04 121.87 60.03 122.35 60.01 122.83 60 123.31 59.98 123.79 59.97 124.27 59.95 124.75 59.94 125.23 59.92 125.71 59.91 126.19 59.89 126.67 59.88 127.15 59.86 127.63 59.85 128.11 59.83 128.59 59.81 129.07 59.8 129.55 59.78 130.03 59.77 130.51 59.75 130.99 59.74 131.47 59.72 131.95 59.71 132.43 59.69 132.91 59.68 133.4 59.66 133.88 59.65 134.36 59.63 134.84 59.62 135.32 59.6 135.8 59.59 136.28 59.57 136.76 59.55 137.24 59.54 137.72 59.52 138.2 59.51 138.68 59.49 139.16 59.48 139.64 59.46 140.12 59.45 140.6 59.43 141.08 59.42 141.56 59.4 142.04 59.39 142.52 59.37 143 59.36"/>
      </g>
      <g stroke-width="0.3" fill="#000000" fill-opacity="0.000" class="geometry" stroke-dasharray="none" stroke="#586E75" id="img-82f90582-11">
        <path fill="none" d="M23.42,63.16 L 23.9 63.18 24.38 63.19 24.86 63.21 25.34 63.22 25.82 63.24 26.3 63.25 26.78 63.27 27.26 63.28 27.74 63.3 28.22 63.31 28.7 63.33 29.18 63.34 29.66 63.36 30.14 63.37 30.62 63.39 31.1 63.4 31.58 63.42 32.06 63.43 32.54 63.45 33.02 63.46 33.5 63.48 33.98 63.49 34.46 63.51 34.94 63.52 35.42 63.54 35.9 63.55 36.39 63.57 36.87 63.58 37.35 63.6 37.83 63.61 38.31 63.63 38.79 63.64 39.27 63.66 39.75 63.67 40.23 63.69 40.71 63.7 41.19 63.72 41.67 63.73 42.15 63.75 42.63 63.76 43.11 63.78 43.59 63.79 44.07 63.81 44.55 63.82 45.03 63.84 45.51 63.85 45.99 63.87 46.47 63.88 46.95 63.9 47.43 63.91 47.91 63.93 48.39 63.94 48.87 63.96 49.35 63.97 49.83 63.99 50.31 64 50.79 64.02 51.27 64.03 51.75 64.05 52.23 64.06 52.71 64.08 53.19 64.09 53.67 64.11 54.15 64.12 54.63 64.14 55.11 64.15 55.59 64.17 56.08 64.18 56.56 64.2 57.04 64.21 57.52 64.23 58 64.24 58.48 64.26 58.96 64.27 59.44 64.29 59.92 64.3 60.4 64.32 60.88 64.33 61.36 64.35 61.84 64.36 62.32 64.38 62.8 64.39 63.28 64.41 63.76 64.42 64.24 64.44 64.72 64.45 65.2 64.47 65.68 64.48 66.16 64.5 66.64 64.51 67.12 64.53 67.6 64.54 68.08 64.56 68.56 64.57 69.04 64.59 69.52 64.6 70 64.62 70.48 64.63 70.96 64.65 71.44 64.66 71.92 64.68 72.4 64.69 72.88 64.71 73.36 64.72 73.84 64.74 74.32 64.75 74.8 64.77 75.29 64.78 75.77 64.8 76.25 64.81 76.73 64.83 77.21 64.84 77.69 64.86 78.17 64.87 78.65 64.89 79.13 64.9 79.61 64.92 80.09 64.93 80.57 64.95 81.05 64.97 81.53 64.98 82.01 65 82.49 65.01 82.97 65.03 83.45 65.04 83.93 65.06 84.41 65.07 84.89 65.09 85.37 65.1 85.85 65.12 86.33 65.13 86.81 65.15 87.29 65.16 87.77 65.18 88.25 65.19 88.73 65.21 89.21 65.22 89.69 65.24 90.17 65.25 90.65 65.27 91.13 65.28 91.61 65.3 92.09 65.31 92.57 65.33 93.05 65.34 93.53 65.36 94.01 65.37 94.49 65.39 94.98 65.4 95.46 65.42 95.94 65.43 96.42 65.45 96.9 65.46 97.38 65.48 97.86 65.49 98.34 65.51 98.82 65.52 99.3 65.54 99.78 65.55 100.26 65.57 100.74 65.58 101.22 65.6 101.7 65.61 102.18 65.63 102.66 65.64 103.14 65.66 103.62 65.67 104.1 65.69 104.58 65.7 105.06 65.72 105.54 65.73 106.02 65.75 106.5 65.76 106.98 65.78 107.46 65.79 107.94 65.81 108.42 65.82 108.9 65.84 109.38 65.85 109.86 65.87 110.34 65.88 110.82 65.9 111.3 65.91 111.78 65.93 112.26 65.94 112.74 65.96 113.22 65.97 113.7 65.99 114.19 66 114.67 66.02 115.15 66.03 115.63 66.05 116.11 66.06 116.59 66.08 117.07 66.09 117.55 66.11 118.03 66.12 118.51 66.14 118.99 66.15 119.47 66.17 119.95 66.18 120.43 66.2 120.91 66.21 121.39 66.23 121.87 66.24 122.35 66.26 122.83 66.27 123.31 66.29 123.79 66.3 124.27 66.32 124.75 66.33 125.23 66.35 125.71 66.36 126.19 66.38 126.67 66.39 127.15 66.41 127.63 66.42 128.11 66.44 128.59 66.45 129.07 66.47 129.55 66.48 130.03 66.5 130.51 66.51 130.99 66.53 131.47 66.54 131.95 66.56 132.43 66.57 132.91 66.59 133.4 66.6 133.88 66.62 134.36 66.63 134.84 66.65 135.32 66.66 135.8 66.68 136.28 66.69 136.76 66.71 137.24 66.72 137.72 66.74 138.2 66.75 138.68 66.77 139.16 66.78 139.64 66.8 140.12 66.81 140.6 66.83 141.08 66.84 141.56 66.86 142.04 66.87 142.52 66.89 143 66.9"/>
      </g>
      <g stroke-width="0.3" fill="#000000" fill-opacity="0.000" class="geometry" stroke-dasharray="none" stroke="#586E75" id="img-82f90582-12">
        <path fill="none" d="M23.42,63.16 L 23.9 63.15 24.38 63.13 24.86 63.12 25.34 63.1 25.82 63.09 26.3 63.07 26.78 63.06 27.26 63.04 27.74 63.03 28.22 63.01 28.7 63 29.18 62.98 29.66 62.96 30.14 62.95 30.62 62.93 31.1 62.92 31.58 62.9 32.06 62.89 32.54 62.87 33.02 62.86 33.5 62.84 33.98 62.83 34.46 62.81 34.94 62.8 35.42 62.78 35.9 62.77 36.39 62.75 36.87 62.74 37.35 62.72 37.83 62.7 38.31 62.69 38.79 62.67 39.27 62.66 39.75 62.64 40.23 62.63 40.71 62.61 41.19 62.6 41.67 62.58 42.15 62.57 42.63 62.55 43.11 62.54 43.59 62.52 44.07 62.51 44.55 62.49 45.03 62.48 45.51 62.46 45.99 62.44 46.47 62.43 46.95 62.41 47.43 62.4 47.91 62.38 48.39 62.37 48.87 62.35 49.35 62.34 49.83 62.32 50.31 62.31 50.79 62.29 51.27 62.28 51.75 62.26 52.23 62.25 52.71 62.23 53.19 62.22 53.67 62.2 54.15 62.18 54.63 62.17 55.11 62.15 55.59 62.14 56.08 62.12 56.56 62.11 57.04 62.09 57.52 62.08 58 62.06 58.48 62.05 58.96 62.03 59.44 62.02 59.92 62 60.4 61.99 60.88 61.97 61.36 61.96 61.84 61.94 62.32 61.92 62.8 61.91 63.28 61.89 63.76 61.88 64.24 61.86 64.72 61.85 65.2 61.83 65.68 61.82 66.16 61.8 66.64 61.79 67.12 61.77 67.6 61.76 68.08 61.74 68.56 61.73 69.04 61.71 69.52 61.7 70 61.68 70.48 61.66 70.96 61.65 71.44 61.63 71.92 61.62 72.4 61.6 72.88 61.59 73.36 61.57 73.84 61.56 74.32 61.54 74.8 61.53 75.29 61.51 75.77 61.5 76.25 61.48 76.73 61.47 77.21 61.45 77.69 61.44 78.17 61.42 78.65 61.4 79.13 61.39 79.61 61.37 80.09 61.36 80.57 61.34 81.05 61.33 81.53 61.31 82.01 61.3 82.49 61.28 82.97 61.27 83.45 61.25 83.93 61.24 84.41 61.22 84.89 61.21 85.37 61.19 85.85 61.18 86.33 61.16 86.81 61.14 87.29 61.13 87.77 61.11 88.25 61.1 88.73 61.08 89.21 61.07 89.69 61.05 90.17 61.04 90.65 61.02 91.13 61.01 91.61 60.99 92.09 60.98 92.57 60.96 93.05 60.95 93.53 60.93 94.01 60.92 94.49 60.9 94.98 60.88 95.46 60.87 95.94 60.85 96.42 60.84 96.9 60.82 97.38 60.81 97.86 60.79 98.34 60.78 98.82 60.76 99.3 60.75 99.78 60.73 100.26 60.72 100.74 60.7 101.22 60.69 101.7 60.67 102.18 60.66 102.66 60.64 103.14 60.62 103.62 60.61 104.1 60.59 104.58 60.58 105.06 60.56 105.54 60.55 106.02 60.53 106.5 60.52 106.98 60.5 107.46 60.49 107.94 60.47 108.42 60.46 108.9 60.44 109.38 60.43 109.86 60.41 110.34 60.4 110.82 60.38 111.3 60.36 111.78 60.35 112.26 60.33 112.74 60.32 113.22 60.3 113.7 60.29 114.19 60.27 114.67 60.26 115.15 60.24 115.63 60.23 116.11 60.21 116.59 60.2 117.07 60.18 117.55 60.17 118.03 60.15 118.51 60.14 118.99 60.12 119.47 60.1 119.95 60.09 120.43 60.07 120.91 60.06 121.39 60.04 121.87 60.03 122.35 60.01 122.83 60 123.31 59.98 123.79 59.97 124.27 59.95 124.75 59.94 125.23 59.92 125.71 59.91 126.19 59.89 126.67 59.88 127.15 59.86 127.63 59.85 128.11 59.83 128.59 59.81 129.07 59.8 129.55 59.78 130.03 59.77 130.51 59.75 130.99 59.74 131.47 59.72 131.95 59.71 132.43 59.69 132.91 59.68 133.4 59.66 133.88 59.65 134.36 59.63 134.84 59.62 135.32 59.6 135.8 59.59 136.28 59.57 136.76 59.55 137.24 59.54 137.72 59.52 138.2 59.51 138.68 59.49 139.16 59.48 139.64 59.46 140.12 59.45 140.6 59.43 141.08 59.42 141.56 59.4 142.04 59.39 142.52 59.37 143 59.36"/>
      </g>
      <g stroke-width="0.3" fill="#000000" fill-opacity="0.000" class="geometry" stroke-dasharray="none" stroke="#586E75" id="img-82f90582-13">
        <path fill="none" d="M23.42,63.16 L 23.9 63.18 24.38 63.19 24.86 63.21 25.34 63.22 25.82 63.24 26.3 63.25 26.78 63.27 27.26 63.28 27.74 63.3 28.22 63.31 28.7 63.33 29.18 63.34 29.66 63.36 30.14 63.37 30.62 63.39 31.1 63.4 31.58 63.42 32.06 63.43 32.54 63.45 33.02 63.46 33.5 63.48 33.98 63.49 34.46 63.51 34.94 63.52 35.42 63.54 35.9 63.55 36.39 63.57 36.87 63.58 37.35 63.6 37.83 63.61 38.31 63.63 38.79 63.64 39.27 63.66 39.75 63.67 40.23 63.69 40.71 63.7 41.19 63.72 41.67 63.73 42.15 63.75 42.63 63.76 43.11 63.78 43.59 63.79 44.07 63.81 44.55 63.82 45.03 63.84 45.51 63.85 45.99 63.87 46.47 63.88 46.95 63.9 47.43 63.91 47.91 63.93 48.39 63.94 48.87 63.96 49.35 63.97 49.83 63.99 50.31 64 50.79 64.02 51.27 64.03 51.75 64.05 52.23 64.06 52.71 64.08 53.19 64.09 53.67 64.11 54.15 64.12 54.63 64.14 55.11 64.15 55.59 64.17 56.08 64.18 56.56 64.2 57.04 64.21 57.52 64.23 58 64.24 58.48 64.26 58.96 64.27 59.44 64.29 59.92 64.3 60.4 64.32 60.88 64.33 61.36 64.35 61.84 64.36 62.32 64.38 62.8 64.39 63.28 64.41 63.76 64.42 64.24 64.44 64.72 64.45 65.2 64.47 65.68 64.48 66.16 64.5 66.64 64.51 67.12 64.53 67.6 64.54 68.08 64.56 68.56 64.57 69.04 64.59 69.52 64.6 70 64.62 70.48 64.63 70.96 64.65 71.44 64.66 71.92 64.68 72.4 64.69 72.88 64.71 73.36 64.72 73.84 64.74 74.32 64.75 74.8 64.77 75.29 64.78 75.77 64.8 76.25 64.81 76.73 64.83 77.21 64.84 77.69 64.86 78.17 64.87 78.65 64.89 79.13 64.9 79.61 64.92 80.09 64.93 80.57 64.95 81.05 64.97 81.53 64.98 82.01 65 82.49 65.01 82.97 65.03 83.45 65.04 83.93 65.06 84.41 65.07 84.89 65.09 85.37 65.1 85.85 65.12 86.33 65.13 86.81 65.15 87.29 65.16 87.77 65.18 88.25 65.19 88.73 65.21 89.21 65.22 89.69 65.24 90.17 65.25 90.65 65.27 91.13 65.28 91.61 65.3 92.09 65.31 92.57 65.33 93.05 65.34 93.53 65.36 94.01 65.37 94.49 65.39 94.98 65.4 95.46 65.42 95.94 65.43 96.42 65.45 96.9 65.46 97.38 65.48 97.86 65.49 98.34 65.51 98.82 65.52 99.3 65.54 99.78 65.55 100.26 65.57 100.74 65.58 101.22 65.6 101.7 65.61 102.18 65.63 102.66 65.64 103.14 65.66 103.62 65.67 104.1 65.69 104.58 65.7 105.06 65.72 105.54 65.73 106.02 65.75 106.5 65.76 106.98 65.78 107.46 65.79 107.94 65.81 108.42 65.82 108.9 65.84 109.38 65.85 109.86 65.87 110.34 65.88 110.82 65.9 111.3 65.91 111.78 65.93 112.26 65.94 112.74 65.96 113.22 65.97 113.7 65.99 114.19 66 114.67 66.02 115.15 66.03 115.63 66.05 116.11 66.06 116.59 66.08 117.07 66.09 117.55 66.11 118.03 66.12 118.51 66.14 118.99 66.15 119.47 66.17 119.95 66.18 120.43 66.2 120.91 66.21 121.39 66.23 121.87 66.24 122.35 66.26 122.83 66.27 123.31 66.29 123.79 66.3 124.27 66.32 124.75 66.33 125.23 66.35 125.71 66.36 126.19 66.38 126.67 66.39 127.15 66.41 127.63 66.42 128.11 66.44 128.59 66.45 129.07 66.47 129.55 66.48 130.03 66.5 130.51 66.51 130.99 66.53 131.47 66.54 131.95 66.56 132.43 66.57 132.91 66.59 133.4 66.6 133.88 66.62 134.36 66.63 134.84 66.65 135.32 66.66 135.8 66.68 136.28 66.69 136.76 66.71 137.24 66.72 137.72 66.74 138.2 66.75 138.68 66.77 139.16 66.78 139.64 66.8 140.12 66.81 140.6 66.83 141.08 66.84 141.56 66.86 142.04 66.87 142.52 66.89 143 66.9"/>
      </g>
      <g class="geometry" id="img-82f90582-14">
        <g class="color_RGBA{Float32}(0.70980394f0,0.5372549f0,0.0f0,1.0f0)" stroke="#FFFFFF" stroke-width="0" fill="#B58900" id="img-82f90582-15">
          <use xlink:href="#img-82f90582-16" x="35.38" y="62.79"/>
          <use xlink:href="#img-82f90582-16" x="36.57" y="62.75"/>
          <use xlink:href="#img-82f90582-16" x="37.77" y="62.71"/>
          <use xlink:href="#img-82f90582-16" x="38.97" y="62.67"/>
          <use xlink:href="#img-82f90582-16" x="40.17" y="62.63"/>
          <use xlink:href="#img-82f90582-16" x="41.35" y="62.6"/>
          <use xlink:href="#img-82f90582-16" x="42.55" y="62.56"/>
          <use xlink:href="#img-82f90582-16" x="43.76" y="62.52"/>
          <use xlink:href="#img-82f90582-16" x="44.93" y="62.48"/>
          <use xlink:href="#img-82f90582-16" x="46.15" y="62.44"/>
          <use xlink:href="#img-82f90582-16" x="47.33" y="62.41"/>
          <use xlink:href="#img-82f90582-16" x="48.54" y="62.37"/>
          <use xlink:href="#img-82f90582-16" x="49.7" y="62.33"/>
          <use xlink:href="#img-82f90582-16" x="50.91" y="62.29"/>
          <use xlink:href="#img-82f90582-16" x="52.09" y="62.26"/>
          <use xlink:href="#img-82f90582-16" x="53.31" y="62.22"/>
          <use xlink:href="#img-82f90582-16" x="54.48" y="62.18"/>
          <use xlink:href="#img-82f90582-16" x="55.74" y="62.14"/>
          <use xlink:href="#img-82f90582-16" x="56.91" y="62.1"/>
          <use xlink:href="#img-82f90582-16" x="58.08" y="62.07"/>
          <use xlink:href="#img-82f90582-16" x="59.33" y="62.03"/>
          <use xlink:href="#img-82f90582-16" x="60.44" y="61.99"/>
          <use xlink:href="#img-82f90582-16" x="61.75" y="61.95"/>
          <use xlink:href="#img-82f90582-16" x="62.88" y="61.91"/>
          <use xlink:href="#img-82f90582-16" x="64.09" y="61.88"/>
          <use xlink:href="#img-82f90582-16" x="65.23" y="61.84"/>
          <use xlink:href="#img-82f90582-16" x="66.43" y="61.8"/>
          <use xlink:href="#img-82f90582-16" x="67.71" y="61.76"/>
          <use xlink:href="#img-82f90582-16" x="68.89" y="61.72"/>
          <use xlink:href="#img-82f90582-16" x="70.13" y="61.68"/>
          <use xlink:href="#img-82f90582-16" x="71.25" y="61.65"/>
          <use xlink:href="#img-82f90582-16" x="72.43" y="61.61"/>
          <use xlink:href="#img-82f90582-16" x="73.66" y="61.57"/>
          <use xlink:href="#img-82f90582-16" x="74.74" y="61.54"/>
          <use xlink:href="#img-82f90582-16" x="76.1" y="61.49"/>
          <use xlink:href="#img-82f90582-16" x="77.28" y="61.46"/>
          <use xlink:href="#img-82f90582-16" x="78.53" y="61.42"/>
          <use xlink:href="#img-82f90582-16" x="79.56" y="61.38"/>
          <use xlink:href="#img-82f90582-16" x="80.91" y="61.34"/>
          <use xlink:href="#img-82f90582-16" x="82.04" y="61.31"/>
          <use xlink:href="#img-82f90582-16" x="83.21" y="61.27"/>
          <use xlink:href="#img-82f90582-16" x="84.43" y="61.23"/>
          <use xlink:href="#img-82f90582-16" x="85.7" y="61.19"/>
          <use xlink:href="#img-82f90582-16" x="86.69" y="61.16"/>
          <use xlink:href="#img-82f90582-16" x="88.06" y="61.11"/>
          <use xlink:href="#img-82f90582-16" x="89.12" y="61.08"/>
          <use xlink:href="#img-82f90582-16" x="90.22" y="61.04"/>
          <use xlink:href="#img-82f90582-16" x="91.75" y="61"/>
          <use xlink:href="#img-82f90582-16" x="92.94" y="60.96"/>
          <use xlink:href="#img-82f90582-16" x="94.18" y="60.92"/>
          <use xlink:href="#img-82f90582-16" x="95.02" y="60.89"/>
          <use xlink:href="#img-82f90582-16" x="96.33" y="60.85"/>
          <use xlink:href="#img-82f90582-16" x="97.69" y="60.81"/>
          <use xlink:href="#img-82f90582-16" x="98.63" y="60.78"/>
          <use xlink:href="#img-82f90582-16" x="100.07" y="60.73"/>
          <use xlink:href="#img-82f90582-16" x="101.07" y="60.7"/>
          <use xlink:href="#img-82f90582-16" x="102.09" y="60.67"/>
          <use xlink:href="#img-82f90582-16" x="103.67" y="60.62"/>
          <use xlink:href="#img-82f90582-16" x="104.77" y="60.58"/>
          <use xlink:href="#img-82f90582-16" x="105.89" y="60.54"/>
          <use xlink:href="#img-82f90582-16" x="107.04" y="60.51"/>
          <use xlink:href="#img-82f90582-16" x="108.23" y="60.47"/>
          <use xlink:href="#img-82f90582-16" x="109.45" y="60.43"/>
          <use xlink:href="#img-82f90582-16" x="110.7" y="60.39"/>
          <use xlink:href="#img-82f90582-16" x="112" y="60.35"/>
          <use xlink:href="#img-82f90582-16" x="113.33" y="60.31"/>
          <use xlink:href="#img-82f90582-16" x="114.01" y="60.29"/>
          <use xlink:href="#img-82f90582-16" x="115.4" y="60.24"/>
          <use xlink:href="#img-82f90582-16" x="116.84" y="60.19"/>
          <use xlink:href="#img-82f90582-16" x="117.58" y="60.17"/>
          <use xlink:href="#img-82f90582-16" x="119.08" y="60.12"/>
          <use xlink:href="#img-82f90582-16" x="120.64" y="60.07"/>
          <use xlink:href="#img-82f90582-16" x="121.44" y="60.05"/>
          <use xlink:href="#img-82f90582-16" x="123.07" y="60"/>
          <use xlink:href="#img-82f90582-16" x="123.91" y="59.97"/>
          <use xlink:href="#img-82f90582-16" x="124.76" y="59.94"/>
          <use xlink:href="#img-82f90582-16" x="126.51" y="59.89"/>
          <use xlink:href="#img-82f90582-16" x="127.4" y="59.86"/>
          <use xlink:href="#img-82f90582-16" x="128.31" y="59.83"/>
          <use xlink:href="#img-82f90582-16" x="130.19" y="59.77"/>
          <use xlink:href="#img-82f90582-16" x="131.15" y="59.74"/>
          <use xlink:href="#img-82f90582-16" x="132.13" y="59.7"/>
          <use xlink:href="#img-82f90582-16" x="133.13" y="59.67"/>
          <use xlink:href="#img-82f90582-16" x="134.14" y="59.64"/>
          <use xlink:href="#img-82f90582-16" x="136.23" y="59.57"/>
          <use xlink:href="#img-82f90582-16" x="137.31" y="59.54"/>
          <use xlink:href="#img-82f90582-16" x="138.4" y="59.5"/>
          <use xlink:href="#img-82f90582-16" x="139.52" y="59.47"/>
          <use xlink:href="#img-82f90582-16" x="140.66" y="59.43"/>
          <use xlink:href="#img-82f90582-16" x="141.82" y="59.39"/>
          <use xlink:href="#img-82f90582-16" x="143" y="59.36"/>
        </g>
      </g>
      <g class="geometry" id="img-82f90582-17">
        <g class="color_RGBA{Float32}(0.52156866f0,0.6f0,0.0f0,1.0f0)" stroke="#FFFFFF" stroke-width="0" fill="#859900" id="img-82f90582-18">
          <use xlink:href="#img-82f90582-19" x="35.38" y="63.54"/>
          <use xlink:href="#img-82f90582-19" x="36.57" y="63.58"/>
          <use xlink:href="#img-82f90582-19" x="37.77" y="63.62"/>
          <use xlink:href="#img-82f90582-19" x="38.97" y="63.65"/>
          <use xlink:href="#img-82f90582-19" x="40.17" y="63.69"/>
          <use xlink:href="#img-82f90582-19" x="41.35" y="63.73"/>
          <use xlink:href="#img-82f90582-19" x="42.55" y="63.77"/>
          <use xlink:href="#img-82f90582-19" x="43.76" y="63.8"/>
          <use xlink:href="#img-82f90582-19" x="44.93" y="63.84"/>
          <use xlink:href="#img-82f90582-19" x="46.15" y="63.88"/>
          <use xlink:href="#img-82f90582-19" x="47.33" y="63.92"/>
          <use xlink:href="#img-82f90582-19" x="48.54" y="63.95"/>
          <use xlink:href="#img-82f90582-19" x="49.7" y="63.99"/>
          <use xlink:href="#img-82f90582-19" x="50.91" y="64.03"/>
          <use xlink:href="#img-82f90582-19" x="52.09" y="64.07"/>
          <use xlink:href="#img-82f90582-19" x="53.31" y="64.1"/>
          <use xlink:href="#img-82f90582-19" x="54.48" y="64.14"/>
          <use xlink:href="#img-82f90582-19" x="55.74" y="64.18"/>
          <use xlink:href="#img-82f90582-19" x="56.91" y="64.22"/>
          <use xlink:href="#img-82f90582-19" x="58.08" y="64.25"/>
          <use xlink:href="#img-82f90582-19" x="59.33" y="64.29"/>
          <use xlink:href="#img-82f90582-19" x="60.44" y="64.33"/>
          <use xlink:href="#img-82f90582-19" x="61.75" y="64.37"/>
          <use xlink:href="#img-82f90582-19" x="62.88" y="64.4"/>
          <use xlink:href="#img-82f90582-19" x="64.09" y="64.44"/>
          <use xlink:href="#img-82f90582-19" x="65.23" y="64.48"/>
          <use xlink:href="#img-82f90582-19" x="66.43" y="64.52"/>
          <use xlink:href="#img-82f90582-19" x="67.71" y="64.56"/>
          <use xlink:href="#img-82f90582-19" x="68.89" y="64.59"/>
          <use xlink:href="#img-82f90582-19" x="70.13" y="64.63"/>
          <use xlink:href="#img-82f90582-19" x="71.25" y="64.67"/>
          <use xlink:href="#img-82f90582-19" x="72.43" y="64.7"/>
          <use xlink:href="#img-82f90582-19" x="73.66" y="64.74"/>
          <use xlink:href="#img-82f90582-19" x="74.74" y="64.78"/>
          <use xlink:href="#img-82f90582-19" x="76.1" y="64.82"/>
          <use xlink:href="#img-82f90582-19" x="77.28" y="64.86"/>
          <use xlink:href="#img-82f90582-19" x="78.53" y="64.89"/>
          <use xlink:href="#img-82f90582-19" x="79.56" y="64.93"/>
          <use xlink:href="#img-82f90582-19" x="80.91" y="64.97"/>
          <use xlink:href="#img-82f90582-19" x="82.04" y="65"/>
          <use xlink:href="#img-82f90582-19" x="83.21" y="65.04"/>
          <use xlink:href="#img-82f90582-19" x="84.43" y="65.08"/>
          <use xlink:href="#img-82f90582-19" x="85.7" y="65.12"/>
          <use xlink:href="#img-82f90582-19" x="86.69" y="65.15"/>
          <use xlink:href="#img-82f90582-19" x="88.06" y="65.19"/>
          <use xlink:href="#img-82f90582-19" x="89.12" y="65.23"/>
          <use xlink:href="#img-82f90582-19" x="90.22" y="65.26"/>
          <use xlink:href="#img-82f90582-19" x="91.75" y="65.31"/>
          <use xlink:href="#img-82f90582-19" x="92.94" y="65.35"/>
          <use xlink:href="#img-82f90582-19" x="94.18" y="65.38"/>
          <use xlink:href="#img-82f90582-19" x="95.02" y="65.41"/>
          <use xlink:href="#img-82f90582-19" x="96.33" y="65.45"/>
          <use xlink:href="#img-82f90582-19" x="97.69" y="65.49"/>
          <use xlink:href="#img-82f90582-19" x="98.63" y="65.52"/>
          <use xlink:href="#img-82f90582-19" x="100.07" y="65.57"/>
          <use xlink:href="#img-82f90582-19" x="101.07" y="65.6"/>
          <use xlink:href="#img-82f90582-19" x="102.09" y="65.63"/>
          <use xlink:href="#img-82f90582-19" x="103.67" y="65.68"/>
          <use xlink:href="#img-82f90582-19" x="104.77" y="65.71"/>
          <use xlink:href="#img-82f90582-19" x="105.89" y="65.75"/>
          <use xlink:href="#img-82f90582-19" x="107.04" y="65.78"/>
          <use xlink:href="#img-82f90582-19" x="108.23" y="65.82"/>
          <use xlink:href="#img-82f90582-19" x="109.45" y="65.86"/>
          <use xlink:href="#img-82f90582-19" x="110.7" y="65.9"/>
          <use xlink:href="#img-82f90582-19" x="112" y="65.94"/>
          <use xlink:href="#img-82f90582-19" x="113.33" y="65.98"/>
          <use xlink:href="#img-82f90582-19" x="114.01" y="66"/>
          <use xlink:href="#img-82f90582-19" x="115.4" y="66.05"/>
          <use xlink:href="#img-82f90582-19" x="116.84" y="66.09"/>
          <use xlink:href="#img-82f90582-19" x="117.58" y="66.11"/>
          <use xlink:href="#img-82f90582-19" x="119.08" y="66.16"/>
          <use xlink:href="#img-82f90582-19" x="120.64" y="66.21"/>
          <use xlink:href="#img-82f90582-19" x="121.44" y="66.23"/>
          <use xlink:href="#img-82f90582-19" x="123.07" y="66.28"/>
          <use xlink:href="#img-82f90582-19" x="123.91" y="66.31"/>
          <use xlink:href="#img-82f90582-19" x="124.76" y="66.34"/>
          <use xlink:href="#img-82f90582-19" x="126.51" y="66.39"/>
          <use xlink:href="#img-82f90582-19" x="127.4" y="66.42"/>
          <use xlink:href="#img-82f90582-19" x="128.31" y="66.45"/>
          <use xlink:href="#img-82f90582-19" x="130.19" y="66.5"/>
          <use xlink:href="#img-82f90582-19" x="131.15" y="66.53"/>
          <use xlink:href="#img-82f90582-19" x="132.13" y="66.56"/>
          <use xlink:href="#img-82f90582-19" x="133.13" y="66.6"/>
          <use xlink:href="#img-82f90582-19" x="134.14" y="66.63"/>
          <use xlink:href="#img-82f90582-19" x="136.23" y="66.69"/>
          <use xlink:href="#img-82f90582-19" x="137.31" y="66.73"/>
          <use xlink:href="#img-82f90582-19" x="138.4" y="66.76"/>
          <use xlink:href="#img-82f90582-19" x="139.52" y="66.79"/>
          <use xlink:href="#img-82f90582-19" x="140.66" y="66.83"/>
          <use xlink:href="#img-82f90582-19" x="141.82" y="66.87"/>
          <use xlink:href="#img-82f90582-19" x="143" y="66.9"/>
        </g>
      </g>
    </g>
  </g>
</g>
  <g class="guide ylabels" font-size="2.82" font-family="'PT Sans Caption','Helvetica Neue','Helvetica',sans-serif" fill="#6C606B" id="img-82f90582-20">
    <text x="20.42" y="68.72" text-anchor="end" dy="0.35em">-0.02</text>
    <text x="20.42" y="65.94" text-anchor="end" dy="0.35em">-0.01</text>
    <text x="20.42" y="63.16" text-anchor="end" dy="0.35em">0.00</text>
    <text x="20.42" y="60.39" text-anchor="end" dy="0.35em">0.01</text>
    <text x="20.42" y="57.61" text-anchor="end" dy="0.35em">0.02</text>
  </g>
  <g font-size="3.88" font-family="'PT Sans','Helvetica Neue','Helvetica',sans-serif" fill="#564A55" stroke="#000000" stroke-opacity="0.000" id="img-82f90582-21">
    <text x="8.81" y="61.16" text-anchor="middle" dy="0.35em" transform="rotate(-90, 8.81, 63.16)">Error</text>
  </g>
  <g font-size="3.88" font-family="'PT Sans','Helvetica Neue','Helvetica',sans-serif" fill="#564A55" stroke="#000000" stroke-opacity="0.000" id="img-82f90582-22">
    <text x="83.21" y="50" text-anchor="middle" dy="0.6em">Euler and Implicit, linear error</text>
  </g>
</g>
<g class="plotroot xscalable yscalable" id="img-82f90582-23">
  <g font-size="3.88" font-family="'PT Sans','Helvetica Neue','Helvetica',sans-serif" fill="#564A55" stroke="#000000" stroke-opacity="0.000" id="img-82f90582-24">
    <text x="126.44" y="34.88" text-anchor="end" dy="0.35em" transform="rotate(-90, 126.44, 34.88)">h</text>
  </g>
  <g class="guide xlabels" font-size="2.82" font-family="'PT Sans Caption','Helvetica Neue','Helvetica',sans-serif" fill="#6C606B" id="img-82f90582-25">
    <text x="109.89" y="28.21" text-anchor="middle" dy="0.6em">0.000</text>
    <text x="126.44" y="28.21" text-anchor="middle" dy="0.6em">0.005</text>
    <text x="143" y="28.21" text-anchor="middle" dy="0.6em">0.010</text>
  </g>
<g clip-path="url(#img-82f90582-26)">
  <g id="img-82f90582-27">
    <g pointer-events="visible" opacity="1" fill="#000000" fill-opacity="0.000" stroke="#000000" stroke-opacity="0.000" class="guide background" id="img-82f90582-28">
      <rect x="107.89" y="10.61" width="37.11" height="16.6"/>
    </g>
    <g class="guide ygridlines xfixed" stroke-dasharray="0.5,0.5" stroke-width="0.2" stroke="#D0D0E0" id="img-82f90582-29">
      <path fill="none" d="M107.89,25.21 L 145 25.21"/>
      <path fill="none" d="M107.89,22.69 L 145 22.69"/>
      <path fill="none" d="M107.89,20.17 L 145 20.17"/>
      <path fill="none" d="M107.89,17.65 L 145 17.65"/>
      <path fill="none" d="M107.89,15.13 L 145 15.13"/>
      <path fill="none" d="M107.89,12.61 L 145 12.61"/>
    </g>
    <g class="guide xgridlines yfixed" stroke-dasharray="0.5,0.5" stroke-width="0.2" stroke="#D0D0E0" id="img-82f90582-30">
      <path fill="none" d="M109.89,10.61 L 109.89 27.21"/>
      <path fill="none" d="M126.44,10.61 L 126.44 27.21"/>
      <path fill="none" d="M143,10.61 L 143 27.21"/>
    </g>
    <g class="plotpanel" id="img-82f90582-31">
      <g stroke-width="0.3" fill="#000000" fill-opacity="0.000" class="geometry" stroke-dasharray="none" stroke="#657B83" id="img-82f90582-32">
        <path fill="none" d="M109.89,12.61 L 110.02 12.61 110.16 12.61 110.29 12.61 110.42 12.61 110.55 12.61 110.69 12.61 110.82 12.61 110.95 12.61 111.09 12.61 111.22 12.61 111.35 12.61 111.49 12.61 111.62 12.61 111.75 12.61 111.88 12.61 112.02 12.61 112.15 12.61 112.28 12.61 112.42 12.61 112.55 12.61 112.68 12.61 112.82 12.61 112.95 12.61 113.08 12.61 113.21 12.61 113.35 12.61 113.48 12.61 113.61 12.61 113.75 12.61 113.88 12.61 114.01 12.61 114.15 12.61 114.28 12.62 114.41 12.62 114.54 12.62 114.68 12.62 114.81 12.62 114.94 12.62 115.08 12.62 115.21 12.62 115.34 12.62 115.47 12.62 115.61 12.62 115.74 12.62 115.87 12.62 116.01 12.62 116.14 12.63 116.27 12.63 116.41 12.63 116.54 12.63 116.67 12.63 116.8 12.63 116.94 12.63 117.07 12.64 117.2 12.64 117.34 12.64 117.47 12.64 117.6 12.64 117.74 12.65 117.87 12.65 118 12.65 118.13 12.66 118.27 12.66 118.4 12.66 118.53 12.66 118.67 12.67 118.8 12.67 118.93 12.67 119.07 12.68 119.2 12.68 119.33 12.69 119.46 12.69 119.6 12.7 119.73 12.7 119.86 12.7 120 12.71 120.13 12.72 120.26 12.72 120.39 12.73 120.53 12.73 120.66 12.74 120.79 12.74 120.93 12.75 121.06 12.76 121.19 12.77 121.33 12.77 121.46 12.78 121.59 12.79 121.72 12.8 121.86 12.8 121.99 12.81 122.12 12.82 122.26 12.83 122.39 12.84 122.52 12.85 122.66 12.86 122.79 12.87 122.92 12.88 123.05 12.89 123.19 12.91 123.32 12.92 123.45 12.93 123.59 12.94 123.72 12.96 123.85 12.97 123.99 12.98 124.12 13 124.25 13.01 124.38 13.03 124.52 13.04 124.65 13.06 124.78 13.08 124.92 13.09 125.05 13.11 125.18 13.13 125.31 13.14 125.45 13.16 125.58 13.18 125.71 13.2 125.85 13.22 125.98 13.24 126.11 13.26 126.25 13.29 126.38 13.31 126.51 13.33 126.64 13.35 126.78 13.38 126.91 13.4 127.04 13.43 127.18 13.45 127.31 13.48 127.44 13.51 127.58 13.53 127.71 13.56 127.84 13.59 127.97 13.62 128.11 13.65 128.24 13.68 128.37 13.71 128.51 13.74 128.64 13.78 128.77 13.81 128.9 13.84 129.04 13.88 129.17 13.91 129.3 13.95 129.44 13.99 129.57 14.02 129.7 14.06 129.84 14.1 129.97 14.14 130.1 14.18 130.23 14.23 130.37 14.27 130.5 14.31 130.63 14.36 130.77 14.4 130.9 14.45 131.03 14.49 131.17 14.54 131.3 14.59 131.43 14.64 131.56 14.69 131.7 14.74 131.83 14.79 131.96 14.85 132.1 14.9 132.23 14.96 132.36 15.01 132.5 15.07 132.63 15.13 132.76 15.19 132.89 15.25 133.03 15.31 133.16 15.37 133.29 15.44 133.43 15.5 133.56 15.57 133.69 15.63 133.82 15.7 133.96 15.77 134.09 15.84 134.22 15.91 134.36 15.99 134.49 16.06 134.62 16.14 134.76 16.21 134.89 16.29 135.02 16.37 135.15 16.45 135.29 16.53 135.42 16.61 135.55 16.7 135.69 16.78 135.82 16.87 135.95 16.96 136.09 17.05 136.22 17.14 136.35 17.23 136.48 17.32 136.62 17.42 136.75 17.51 136.88 17.61 137.02 17.71 137.15 17.81 137.28 17.91 137.42 18.02 137.55 18.12 137.68 18.23 137.81 18.34 137.95 18.45 138.08 18.56 138.21 18.67 138.35 18.79 138.48 18.9 138.61 19.02 138.74 19.14 138.88 19.26 139.01 19.39 139.14 19.51 139.28 19.64 139.41 19.76 139.54 19.89 139.68 20.03 139.81 20.16 139.94 20.29 140.07 20.43 140.21 20.57 140.34 20.71 140.47 20.85 140.61 21 140.74 21.14 140.87 21.29 141.01 21.44 141.14 21.59 141.27 21.75 141.4 21.9 141.54 22.06 141.67 22.22 141.8 22.38 141.94 22.55 142.07 22.71 142.2 22.88 142.34 23.05 142.47 23.22 142.6 23.4 142.73 23.57 142.87 23.75 143 23.93"/>
      </g>
      <g stroke-width="0.3" fill="#000000" fill-opacity="0.000" class="geometry" stroke-dasharray="none" stroke="#657B83" id="img-82f90582-33">
        <path fill="none" d="M109.89,12.61 L 110.02 12.61 110.16 12.61 110.29 12.61 110.42 12.61 110.55 12.61 110.69 12.61 110.82 12.61 110.95 12.61 111.09 12.61 111.22 12.61 111.35 12.61 111.49 12.61 111.62 12.61 111.75 12.61 111.88 12.61 112.02 12.61 112.15 12.61 112.28 12.61 112.42 12.61 112.55 12.61 112.68 12.61 112.82 12.61 112.95 12.61 113.08 12.61 113.21 12.61 113.35 12.61 113.48 12.61 113.61 12.61 113.75 12.61 113.88 12.61 114.01 12.61 114.15 12.61 114.28 12.62 114.41 12.62 114.54 12.62 114.68 12.62 114.81 12.62 114.94 12.62 115.08 12.62 115.21 12.62 115.34 12.62 115.47 12.62 115.61 12.62 115.74 12.62 115.87 12.62 116.01 12.62 116.14 12.63 116.27 12.63 116.41 12.63 116.54 12.63 116.67 12.63 116.8 12.63 116.94 12.63 117.07 12.64 117.2 12.64 117.34 12.64 117.47 12.64 117.6 12.64 117.74 12.65 117.87 12.65 118 12.65 118.13 12.66 118.27 12.66 118.4 12.66 118.53 12.66 118.67 12.67 118.8 12.67 118.93 12.67 119.07 12.68 119.2 12.68 119.33 12.69 119.46 12.69 119.6 12.7 119.73 12.7 119.86 12.7 120 12.71 120.13 12.72 120.26 12.72 120.39 12.73 120.53 12.73 120.66 12.74 120.79 12.74 120.93 12.75 121.06 12.76 121.19 12.77 121.33 12.77 121.46 12.78 121.59 12.79 121.72 12.8 121.86 12.8 121.99 12.81 122.12 12.82 122.26 12.83 122.39 12.84 122.52 12.85 122.66 12.86 122.79 12.87 122.92 12.88 123.05 12.89 123.19 12.91 123.32 12.92 123.45 12.93 123.59 12.94 123.72 12.96 123.85 12.97 123.99 12.98 124.12 13 124.25 13.01 124.38 13.03 124.52 13.04 124.65 13.06 124.78 13.08 124.92 13.09 125.05 13.11 125.18 13.13 125.31 13.14 125.45 13.16 125.58 13.18 125.71 13.2 125.85 13.22 125.98 13.24 126.11 13.26 126.25 13.29 126.38 13.31 126.51 13.33 126.64 13.35 126.78 13.38 126.91 13.4 127.04 13.43 127.18 13.45 127.31 13.48 127.44 13.51 127.58 13.53 127.71 13.56 127.84 13.59 127.97 13.62 128.11 13.65 128.24 13.68 128.37 13.71 128.51 13.74 128.64 13.78 128.77 13.81 128.9 13.84 129.04 13.88 129.17 13.91 129.3 13.95 129.44 13.99 129.57 14.02 129.7 14.06 129.84 14.1 129.97 14.14 130.1 14.18 130.23 14.23 130.37 14.27 130.5 14.31 130.63 14.36 130.77 14.4 130.9 14.45 131.03 14.49 131.17 14.54 131.3 14.59 131.43 14.64 131.56 14.69 131.7 14.74 131.83 14.79 131.96 14.85 132.1 14.9 132.23 14.96 132.36 15.01 132.5 15.07 132.63 15.13 132.76 15.19 132.89 15.25 133.03 15.31 133.16 15.37 133.29 15.44 133.43 15.5 133.56 15.57 133.69 15.63 133.82 15.7 133.96 15.77 134.09 15.84 134.22 15.91 134.36 15.99 134.49 16.06 134.62 16.14 134.76 16.21 134.89 16.29 135.02 16.37 135.15 16.45 135.29 16.53 135.42 16.61 135.55 16.7 135.69 16.78 135.82 16.87 135.95 16.96 136.09 17.05 136.22 17.14 136.35 17.23 136.48 17.32 136.62 17.42 136.75 17.51 136.88 17.61 137.02 17.71 137.15 17.81 137.28 17.91 137.42 18.02 137.55 18.12 137.68 18.23 137.81 18.34 137.95 18.45 138.08 18.56 138.21 18.67 138.35 18.79 138.48 18.9 138.61 19.02 138.74 19.14 138.88 19.26 139.01 19.39 139.14 19.51 139.28 19.64 139.41 19.76 139.54 19.89 139.68 20.03 139.81 20.16 139.94 20.29 140.07 20.43 140.21 20.57 140.34 20.71 140.47 20.85 140.61 21 140.74 21.14 140.87 21.29 141.01 21.44 141.14 21.59 141.27 21.75 141.4 21.9 141.54 22.06 141.67 22.22 141.8 22.38 141.94 22.55 142.07 22.71 142.2 22.88 142.34 23.05 142.47 23.22 142.6 23.4 142.73 23.57 142.87 23.75 143 23.93"/>
      </g>
      <g class="geometry" id="img-82f90582-34">
        <g class="color_RGBA{Float32}(0.42352945f0,0.4431373f0,0.7686275f0,1.0f0)" stroke="#FFFFFF" stroke-width="0" fill="#6C71C4" id="img-82f90582-35">
          <use xlink:href="#img-82f90582-36" x="113.2" y="12.61"/>
          <use xlink:href="#img-82f90582-36" x="113.53" y="12.61"/>
          <use xlink:href="#img-82f90582-36" x="113.86" y="12.61"/>
          <use xlink:href="#img-82f90582-36" x="114.2" y="12.61"/>
          <use xlink:href="#img-82f90582-36" x="114.53" y="12.62"/>
          <use xlink:href="#img-82f90582-36" x="114.85" y="12.62"/>
          <use xlink:href="#img-82f90582-36" x="115.19" y="12.62"/>
          <use xlink:href="#img-82f90582-36" x="115.52" y="12.62"/>
          <use xlink:href="#img-82f90582-36" x="115.85" y="12.62"/>
          <use xlink:href="#img-82f90582-36" x="116.18" y="12.63"/>
          <use xlink:href="#img-82f90582-36" x="116.51" y="12.63"/>
          <use xlink:href="#img-82f90582-36" x="116.85" y="12.63"/>
          <use xlink:href="#img-82f90582-36" x="117.17" y="12.64"/>
          <use xlink:href="#img-82f90582-36" x="117.5" y="12.64"/>
          <use xlink:href="#img-82f90582-36" x="117.83" y="12.65"/>
          <use xlink:href="#img-82f90582-36" x="118.17" y="12.66"/>
          <use xlink:href="#img-82f90582-36" x="118.49" y="12.66"/>
          <use xlink:href="#img-82f90582-36" x="118.84" y="12.67"/>
          <use xlink:href="#img-82f90582-36" x="119.16" y="12.68"/>
          <use xlink:href="#img-82f90582-36" x="119.49" y="12.69"/>
          <use xlink:href="#img-82f90582-36" x="119.83" y="12.7"/>
          <use xlink:href="#img-82f90582-36" x="120.14" y="12.72"/>
          <use xlink:href="#img-82f90582-36" x="120.5" y="12.73"/>
          <use xlink:href="#img-82f90582-36" x="120.82" y="12.75"/>
          <use xlink:href="#img-82f90582-36" x="121.15" y="12.76"/>
          <use xlink:href="#img-82f90582-36" x="121.47" y="12.78"/>
          <use xlink:href="#img-82f90582-36" x="121.8" y="12.8"/>
          <use xlink:href="#img-82f90582-36" x="122.15" y="12.83"/>
          <use xlink:href="#img-82f90582-36" x="122.48" y="12.85"/>
          <use xlink:href="#img-82f90582-36" x="122.82" y="12.88"/>
          <use xlink:href="#img-82f90582-36" x="123.13" y="12.9"/>
          <use xlink:href="#img-82f90582-36" x="123.46" y="12.93"/>
          <use xlink:href="#img-82f90582-36" x="123.8" y="12.97"/>
          <use xlink:href="#img-82f90582-36" x="124.1" y="13"/>
          <use xlink:href="#img-82f90582-36" x="124.48" y="13.04"/>
          <use xlink:href="#img-82f90582-36" x="124.8" y="13.08"/>
          <use xlink:href="#img-82f90582-36" x="125.15" y="13.12"/>
          <use xlink:href="#img-82f90582-36" x="125.43" y="13.16"/>
          <use xlink:href="#img-82f90582-36" x="125.81" y="13.22"/>
          <use xlink:href="#img-82f90582-36" x="126.12" y="13.27"/>
          <use xlink:href="#img-82f90582-36" x="126.44" y="13.32"/>
          <use xlink:href="#img-82f90582-36" x="126.78" y="13.38"/>
          <use xlink:href="#img-82f90582-36" x="127.13" y="13.45"/>
          <use xlink:href="#img-82f90582-36" x="127.41" y="13.5"/>
          <use xlink:href="#img-82f90582-36" x="127.79" y="13.58"/>
          <use xlink:href="#img-82f90582-36" x="128.08" y="13.65"/>
          <use xlink:href="#img-82f90582-36" x="128.39" y="13.72"/>
          <use xlink:href="#img-82f90582-36" x="128.81" y="13.82"/>
          <use xlink:href="#img-82f90582-36" x="129.14" y="13.91"/>
          <use xlink:href="#img-82f90582-36" x="129.48" y="14"/>
          <use xlink:href="#img-82f90582-36" x="129.72" y="14.07"/>
          <use xlink:href="#img-82f90582-36" x="130.08" y="14.18"/>
          <use xlink:href="#img-82f90582-36" x="130.46" y="14.3"/>
          <use xlink:href="#img-82f90582-36" x="130.71" y="14.39"/>
          <use xlink:href="#img-82f90582-36" x="131.11" y="14.53"/>
          <use xlink:href="#img-82f90582-36" x="131.39" y="14.63"/>
          <use xlink:href="#img-82f90582-36" x="131.67" y="14.74"/>
          <use xlink:href="#img-82f90582-36" x="132.11" y="14.91"/>
          <use xlink:href="#img-82f90582-36" x="132.41" y="15.04"/>
          <use xlink:href="#img-82f90582-36" x="132.72" y="15.18"/>
          <use xlink:href="#img-82f90582-36" x="133.04" y="15.33"/>
          <use xlink:href="#img-82f90582-36" x="133.37" y="15.48"/>
          <use xlink:href="#img-82f90582-36" x="133.71" y="15.65"/>
          <use xlink:href="#img-82f90582-36" x="134.06" y="15.83"/>
          <use xlink:href="#img-82f90582-36" x="134.42" y="16.03"/>
          <use xlink:href="#img-82f90582-36" x="134.78" y="16.24"/>
          <use xlink:href="#img-82f90582-36" x="134.97" y="16.35"/>
          <use xlink:href="#img-82f90582-36" x="135.36" y="16.58"/>
          <use xlink:href="#img-82f90582-36" x="135.76" y="16.84"/>
          <use xlink:href="#img-82f90582-36" x="135.96" y="16.97"/>
          <use xlink:href="#img-82f90582-36" x="136.38" y="17.26"/>
          <use xlink:href="#img-82f90582-36" x="136.81" y="17.57"/>
          <use xlink:href="#img-82f90582-36" x="137.03" y="17.73"/>
          <use xlink:href="#img-82f90582-36" x="137.48" y="18.08"/>
          <use xlink:href="#img-82f90582-36" x="137.71" y="18.26"/>
          <use xlink:href="#img-82f90582-36" x="137.95" y="18.46"/>
          <use xlink:href="#img-82f90582-36" x="138.43" y="18.87"/>
          <use xlink:href="#img-82f90582-36" x="138.68" y="19.09"/>
          <use xlink:href="#img-82f90582-36" x="138.93" y="19.32"/>
          <use xlink:href="#img-82f90582-36" x="139.45" y="19.81"/>
          <use xlink:href="#img-82f90582-36" x="139.72" y="20.07"/>
          <use xlink:href="#img-82f90582-36" x="139.99" y="20.35"/>
          <use xlink:href="#img-82f90582-36" x="140.27" y="20.64"/>
          <use xlink:href="#img-82f90582-36" x="140.55" y="20.94"/>
          <use xlink:href="#img-82f90582-36" x="141.13" y="21.58"/>
          <use xlink:href="#img-82f90582-36" x="141.42" y="21.93"/>
          <use xlink:href="#img-82f90582-36" x="141.73" y="22.29"/>
          <use xlink:href="#img-82f90582-36" x="142.04" y="22.67"/>
          <use xlink:href="#img-82f90582-36" x="142.35" y="23.07"/>
          <use xlink:href="#img-82f90582-36" x="142.67" y="23.49"/>
          <use xlink:href="#img-82f90582-36" x="143" y="23.93"/>
        </g>
      </g>
    </g>
  </g>
</g>
  <g class="guide ylabels" font-size="2.82" font-family="'PT Sans Caption','Helvetica Neue','Helvetica',sans-serif" fill="#6C606B" id="img-82f90582-37">
    <text x="106.89" y="25.21" text-anchor="end" dy="0.35em">-2.5</text>
    <text x="106.89" y="22.69" text-anchor="end" dy="0.35em">-2.0</text>
    <text x="106.89" y="20.17" text-anchor="end" dy="0.35em">-1.5</text>
    <text x="106.89" y="17.65" text-anchor="end" dy="0.35em">-1.0</text>
    <text x="106.89" y="15.13" text-anchor="end" dy="0.35em">-0.5</text>
    <text x="106.89" y="12.61" text-anchor="end" dy="0.35em">0.0</text>
  </g>
  <g font-size="3.88" font-family="'PT Sans','Helvetica Neue','Helvetica',sans-serif" fill="#564A55" stroke="#000000" stroke-opacity="0.000" id="img-82f90582-38">
    <text x="98.76" y="18.91" text-anchor="end" dy="0.35em">Error e-10</text>
  </g>
  <g font-size="3.88" font-family="'PT Sans','Helvetica Neue','Helvetica',sans-serif" fill="#564A55" stroke="#000000" stroke-opacity="0.000" id="img-82f90582-39">
    <text x="126.44" y="5" text-anchor="middle" dy="0.6em">RK4, error h^4</text>
  </g>
</g>
<g class="plotroot xscalable yscalable" id="img-82f90582-40">
  <g font-size="3.88" font-family="'PT Sans','Helvetica Neue','Helvetica',sans-serif" fill="#564A55" stroke="#000000" stroke-opacity="0.000" id="img-82f90582-41">
    <text x="49.21" y="34.88" text-anchor="end" dy="0.35em" transform="rotate(-90, 49.21, 34.88)">h</text>
  </g>
  <g class="guide xlabels" font-size="2.82" font-family="'PT Sans Caption','Helvetica Neue','Helvetica',sans-serif" fill="#6C606B" id="img-82f90582-42">
    <text x="30.43" y="28.21" text-anchor="middle" dy="0.6em">0.000</text>
    <text x="49.21" y="28.21" text-anchor="middle" dy="0.6em">0.005</text>
    <text x="68" y="28.21" text-anchor="middle" dy="0.6em">0.010</text>
  </g>
<g clip-path="url(#img-82f90582-43)">
  <g id="img-82f90582-44">
    <g pointer-events="visible" opacity="1" fill="#000000" fill-opacity="0.000" stroke="#000000" stroke-opacity="0.000" class="guide background" id="img-82f90582-45">
      <rect x="28.43" y="10.61" width="41.57" height="16.6"/>
    </g>
    <g class="guide ygridlines xfixed" stroke-dasharray="0.5,0.5" stroke-width="0.2" stroke="#D0D0E0" id="img-82f90582-46">
      <path fill="none" d="M28.43,25.21 L 70 25.21"/>
      <path fill="none" d="M28.43,22.69 L 70 22.69"/>
      <path fill="none" d="M28.43,20.17 L 70 20.17"/>
      <path fill="none" d="M28.43,17.65 L 70 17.65"/>
      <path fill="none" d="M28.43,15.13 L 70 15.13"/>
      <path fill="none" d="M28.43,12.61 L 70 12.61"/>
    </g>
    <g class="guide xgridlines yfixed" stroke-dasharray="0.5,0.5" stroke-width="0.2" stroke="#D0D0E0" id="img-82f90582-47">
      <path fill="none" d="M30.43,10.61 L 30.43 27.21"/>
      <path fill="none" d="M49.21,10.61 L 49.21 27.21"/>
      <path fill="none" d="M68,10.61 L 68 27.21"/>
    </g>
    <g class="plotpanel" id="img-82f90582-48">
      <g stroke-width="0.3" fill="#000000" fill-opacity="0.000" class="geometry" stroke-dasharray="none" stroke="#657B83" id="img-82f90582-49">
        <path fill="none" d="M30.43,12.61 L 30.58 12.61 30.73 12.61 30.88 12.61 31.03 12.61 31.18 12.62 31.33 12.62 31.48 12.62 31.63 12.62 31.78 12.63 31.93 12.63 32.09 12.63 32.24 12.64 32.39 12.64 32.54 12.65 32.69 12.65 32.84 12.66 32.99 12.66 33.14 12.67 33.29 12.68 33.44 12.68 33.59 12.69 33.75 12.7 33.9 12.71 34.05 12.72 34.2 12.73 34.35 12.74 34.5 12.74 34.65 12.75 34.8 12.77 34.95 12.78 35.1 12.79 35.25 12.8 35.41 12.81 35.56 12.82 35.71 12.84 35.86 12.85 36.01 12.86 36.16 12.88 36.31 12.89 36.46 12.9 36.61 12.92 36.76 12.93 36.91 12.95 37.07 12.97 37.22 12.98 37.37 13 37.52 13.02 37.67 13.03 37.82 13.05 37.97 13.07 38.12 13.09 38.27 13.11 38.42 13.12 38.57 13.14 38.73 13.16 38.88 13.18 39.03 13.21 39.18 13.23 39.33 13.25 39.48 13.27 39.63 13.29 39.78 13.31 39.93 13.34 40.08 13.36 40.23 13.38 40.39 13.41 40.54 13.43 40.69 13.46 40.84 13.48 40.99 13.51 41.14 13.53 41.29 13.56 41.44 13.59 41.59 13.61 41.74 13.64 41.89 13.67 42.05 13.7 42.2 13.72 42.35 13.75 42.5 13.78 42.65 13.81 42.8 13.84 42.95 13.87 43.1 13.9 43.25 13.93 43.4 13.96 43.55 13.99 43.71 14.03 43.86 14.06 44.01 14.09 44.16 14.12 44.31 14.16 44.46 14.19 44.61 14.23 44.76 14.26 44.91 14.3 45.06 14.33 45.21 14.37 45.36 14.4 45.52 14.44 45.67 14.48 45.82 14.51 45.97 14.55 46.12 14.59 46.27 14.63 46.42 14.66 46.57 14.7 46.72 14.74 46.87 14.78 47.02 14.82 47.18 14.86 47.33 14.9 47.48 14.94 47.63 14.99 47.78 15.03 47.93 15.07 48.08 15.11 48.23 15.16 48.38 15.2 48.53 15.24 48.68 15.29 48.84 15.33 48.99 15.38 49.14 15.42 49.29 15.47 49.44 15.51 49.59 15.56 49.74 15.61 49.89 15.65 50.04 15.7 50.19 15.75 50.34 15.8 50.5 15.84 50.65 15.89 50.8 15.94 50.95 15.99 51.1 16.04 51.25 16.09 51.4 16.14 51.55 16.19 51.7 16.24 51.85 16.3 52 16.35 52.16 16.4 52.31 16.45 52.46 16.51 52.61 16.56 52.76 16.61 52.91 16.67 53.06 16.72 53.21 16.78 53.36 16.83 53.51 16.89 53.66 16.95 53.82 17 53.97 17.06 54.12 17.12 54.27 17.17 54.42 17.23 54.57 17.29 54.72 17.35 54.87 17.41 55.02 17.47 55.17 17.53 55.32 17.59 55.48 17.65 55.63 17.71 55.78 17.77 55.93 17.83 56.08 17.89 56.23 17.95 56.38 18.02 56.53 18.08 56.68 18.14 56.83 18.21 56.98 18.27 57.14 18.34 57.29 18.4 57.44 18.47 57.59 18.53 57.74 18.6 57.89 18.66 58.04 18.73 58.19 18.8 58.34 18.87 58.49 18.93 58.64 19 58.8 19.07 58.95 19.14 59.1 19.21 59.25 19.28 59.4 19.35 59.55 19.42 59.7 19.49 59.85 19.56 60 19.63 60.15 19.7 60.3 19.78 60.45 19.85 60.61 19.92 60.76 19.99 60.91 20.07 61.06 20.14 61.21 20.22 61.36 20.29 61.51 20.37 61.66 20.44 61.81 20.52 61.96 20.59 62.11 20.67 62.27 20.75 62.42 20.82 62.57 20.9 62.72 20.98 62.87 21.06 63.02 21.14 63.17 21.22 63.32 21.3 63.47 21.38 63.62 21.46 63.77 21.54 63.93 21.62 64.08 21.7 64.23 21.78 64.38 21.86 64.53 21.94 64.68 22.03 64.83 22.11 64.98 22.19 65.13 22.28 65.28 22.36 65.43 22.45 65.59 22.53 65.74 22.62 65.89 22.7 66.04 22.79 66.19 22.88 66.34 22.96 66.49 23.05 66.64 23.14 66.79 23.22 66.94 23.31 67.09 23.4 67.25 23.49 67.4 23.58 67.55 23.67 67.7 23.76 67.85 23.85 68 23.94"/>
      </g>
      <g stroke-width="0.3" fill="#000000" fill-opacity="0.000" class="geometry" stroke-dasharray="none" stroke="#657B83" id="img-82f90582-50">
        <path fill="none" d="M30.43,12.61 L 30.58 12.61 30.73 12.61 30.88 12.61 31.03 12.61 31.18 12.62 31.33 12.62 31.48 12.62 31.63 12.62 31.78 12.63 31.93 12.63 32.09 12.63 32.24 12.64 32.39 12.64 32.54 12.65 32.69 12.65 32.84 12.66 32.99 12.66 33.14 12.67 33.29 12.68 33.44 12.68 33.59 12.69 33.75 12.7 33.9 12.71 34.05 12.72 34.2 12.73 34.35 12.74 34.5 12.74 34.65 12.75 34.8 12.77 34.95 12.78 35.1 12.79 35.25 12.8 35.41 12.81 35.56 12.82 35.71 12.84 35.86 12.85 36.01 12.86 36.16 12.88 36.31 12.89 36.46 12.9 36.61 12.92 36.76 12.93 36.91 12.95 37.07 12.97 37.22 12.98 37.37 13 37.52 13.02 37.67 13.03 37.82 13.05 37.97 13.07 38.12 13.09 38.27 13.11 38.42 13.12 38.57 13.14 38.73 13.16 38.88 13.18 39.03 13.21 39.18 13.23 39.33 13.25 39.48 13.27 39.63 13.29 39.78 13.31 39.93 13.34 40.08 13.36 40.23 13.38 40.39 13.41 40.54 13.43 40.69 13.46 40.84 13.48 40.99 13.51 41.14 13.53 41.29 13.56 41.44 13.59 41.59 13.61 41.74 13.64 41.89 13.67 42.05 13.7 42.2 13.72 42.35 13.75 42.5 13.78 42.65 13.81 42.8 13.84 42.95 13.87 43.1 13.9 43.25 13.93 43.4 13.96 43.55 13.99 43.71 14.03 43.86 14.06 44.01 14.09 44.16 14.12 44.31 14.16 44.46 14.19 44.61 14.23 44.76 14.26 44.91 14.3 45.06 14.33 45.21 14.37 45.36 14.4 45.52 14.44 45.67 14.48 45.82 14.51 45.97 14.55 46.12 14.59 46.27 14.63 46.42 14.66 46.57 14.7 46.72 14.74 46.87 14.78 47.02 14.82 47.18 14.86 47.33 14.9 47.48 14.94 47.63 14.99 47.78 15.03 47.93 15.07 48.08 15.11 48.23 15.16 48.38 15.2 48.53 15.24 48.68 15.29 48.84 15.33 48.99 15.38 49.14 15.42 49.29 15.47 49.44 15.51 49.59 15.56 49.74 15.61 49.89 15.65 50.04 15.7 50.19 15.75 50.34 15.8 50.5 15.84 50.65 15.89 50.8 15.94 50.95 15.99 51.1 16.04 51.25 16.09 51.4 16.14 51.55 16.19 51.7 16.24 51.85 16.3 52 16.35 52.16 16.4 52.31 16.45 52.46 16.51 52.61 16.56 52.76 16.61 52.91 16.67 53.06 16.72 53.21 16.78 53.36 16.83 53.51 16.89 53.66 16.95 53.82 17 53.97 17.06 54.12 17.12 54.27 17.17 54.42 17.23 54.57 17.29 54.72 17.35 54.87 17.41 55.02 17.47 55.17 17.53 55.32 17.59 55.48 17.65 55.63 17.71 55.78 17.77 55.93 17.83 56.08 17.89 56.23 17.95 56.38 18.02 56.53 18.08 56.68 18.14 56.83 18.21 56.98 18.27 57.14 18.34 57.29 18.4 57.44 18.47 57.59 18.53 57.74 18.6 57.89 18.66 58.04 18.73 58.19 18.8 58.34 18.87 58.49 18.93 58.64 19 58.8 19.07 58.95 19.14 59.1 19.21 59.25 19.28 59.4 19.35 59.55 19.42 59.7 19.49 59.85 19.56 60 19.63 60.15 19.7 60.3 19.78 60.45 19.85 60.61 19.92 60.76 19.99 60.91 20.07 61.06 20.14 61.21 20.22 61.36 20.29 61.51 20.37 61.66 20.44 61.81 20.52 61.96 20.59 62.11 20.67 62.27 20.75 62.42 20.82 62.57 20.9 62.72 20.98 62.87 21.06 63.02 21.14 63.17 21.22 63.32 21.3 63.47 21.38 63.62 21.46 63.77 21.54 63.93 21.62 64.08 21.7 64.23 21.78 64.38 21.86 64.53 21.94 64.68 22.03 64.83 22.11 64.98 22.19 65.13 22.28 65.28 22.36 65.43 22.45 65.59 22.53 65.74 22.62 65.89 22.7 66.04 22.79 66.19 22.88 66.34 22.96 66.49 23.05 66.64 23.14 66.79 23.22 66.94 23.31 67.09 23.4 67.25 23.49 67.4 23.58 67.55 23.67 67.7 23.76 67.85 23.85 68 23.94"/>
      </g>
      <g class="geometry" id="img-82f90582-51">
        <g class="color_RGBA{Float32}(0.227451f0,0.6313726f0,0.59607846f0,1.0f0)" stroke="#FFFFFF" stroke-width="0" fill="#3AA198" id="img-82f90582-52">
          <use xlink:href="#img-82f90582-53" x="34.18" y="12.73"/>
          <use xlink:href="#img-82f90582-53" x="34.56" y="12.75"/>
          <use xlink:href="#img-82f90582-53" x="34.94" y="12.78"/>
          <use xlink:href="#img-82f90582-53" x="35.31" y="12.8"/>
          <use xlink:href="#img-82f90582-53" x="35.69" y="12.84"/>
          <use xlink:href="#img-82f90582-53" x="36.06" y="12.87"/>
          <use xlink:href="#img-82f90582-53" x="36.44" y="12.9"/>
          <use xlink:href="#img-82f90582-53" x="36.82" y="12.94"/>
          <use xlink:href="#img-82f90582-53" x="37.18" y="12.98"/>
          <use xlink:href="#img-82f90582-53" x="37.57" y="13.02"/>
          <use xlink:href="#img-82f90582-53" x="37.94" y="13.07"/>
          <use xlink:href="#img-82f90582-53" x="38.32" y="13.11"/>
          <use xlink:href="#img-82f90582-53" x="38.68" y="13.16"/>
          <use xlink:href="#img-82f90582-53" x="39.06" y="13.21"/>
          <use xlink:href="#img-82f90582-53" x="39.44" y="13.27"/>
          <use xlink:href="#img-82f90582-53" x="39.82" y="13.32"/>
          <use xlink:href="#img-82f90582-53" x="40.19" y="13.38"/>
          <use xlink:href="#img-82f90582-53" x="40.58" y="13.44"/>
          <use xlink:href="#img-82f90582-53" x="40.95" y="13.51"/>
          <use xlink:href="#img-82f90582-53" x="41.32" y="13.57"/>
          <use xlink:href="#img-82f90582-53" x="41.71" y="13.64"/>
          <use xlink:href="#img-82f90582-53" x="42.06" y="13.7"/>
          <use xlink:href="#img-82f90582-53" x="42.47" y="13.78"/>
          <use xlink:href="#img-82f90582-53" x="42.83" y="13.85"/>
          <use xlink:href="#img-82f90582-53" x="43.21" y="13.93"/>
          <use xlink:href="#img-82f90582-53" x="43.56" y="14"/>
          <use xlink:href="#img-82f90582-53" x="43.94" y="14.08"/>
          <use xlink:href="#img-82f90582-53" x="44.34" y="14.17"/>
          <use xlink:href="#img-82f90582-53" x="44.71" y="14.26"/>
          <use xlink:href="#img-82f90582-53" x="45.1" y="14.35"/>
          <use xlink:href="#img-82f90582-53" x="45.46" y="14.43"/>
          <use xlink:href="#img-82f90582-53" x="45.83" y="14.52"/>
          <use xlink:href="#img-82f90582-53" x="46.21" y="14.62"/>
          <use xlink:href="#img-82f90582-53" x="46.55" y="14.71"/>
          <use xlink:href="#img-82f90582-53" x="46.98" y="14.82"/>
          <use xlink:href="#img-82f90582-53" x="47.35" y="14.92"/>
          <use xlink:href="#img-82f90582-53" x="47.74" y="15.03"/>
          <use xlink:href="#img-82f90582-53" x="48.07" y="15.12"/>
          <use xlink:href="#img-82f90582-53" x="48.49" y="15.24"/>
          <use xlink:href="#img-82f90582-53" x="48.84" y="15.34"/>
          <use xlink:href="#img-82f90582-53" x="49.21" y="15.45"/>
          <use xlink:href="#img-82f90582-53" x="49.6" y="15.57"/>
          <use xlink:href="#img-82f90582-53" x="50" y="15.7"/>
          <use xlink:href="#img-82f90582-53" x="50.31" y="15.79"/>
          <use xlink:href="#img-82f90582-53" x="50.74" y="15.93"/>
          <use xlink:href="#img-82f90582-53" x="51.07" y="16.04"/>
          <use xlink:href="#img-82f90582-53" x="51.42" y="16.16"/>
          <use xlink:href="#img-82f90582-53" x="51.9" y="16.32"/>
          <use xlink:href="#img-82f90582-53" x="52.27" y="16.45"/>
          <use xlink:href="#img-82f90582-53" x="52.66" y="16.59"/>
          <use xlink:href="#img-82f90582-53" x="52.93" y="16.69"/>
          <use xlink:href="#img-82f90582-53" x="53.34" y="16.84"/>
          <use xlink:href="#img-82f90582-53" x="53.76" y="16.99"/>
          <use xlink:href="#img-82f90582-53" x="54.06" y="17.11"/>
          <use xlink:href="#img-82f90582-53" x="54.51" y="17.28"/>
          <use xlink:href="#img-82f90582-53" x="54.82" y="17.4"/>
          <use xlink:href="#img-82f90582-53" x="55.15" y="17.53"/>
          <use xlink:href="#img-82f90582-53" x="55.64" y="17.73"/>
          <use xlink:href="#img-82f90582-53" x="55.99" y="17.87"/>
          <use xlink:href="#img-82f90582-53" x="56.34" y="18.01"/>
          <use xlink:href="#img-82f90582-53" x="56.7" y="18.16"/>
          <use xlink:href="#img-82f90582-53" x="57.07" y="18.32"/>
          <use xlink:href="#img-82f90582-53" x="57.46" y="18.49"/>
          <use xlink:href="#img-82f90582-53" x="57.85" y="18.66"/>
          <use xlink:href="#img-82f90582-53" x="58.26" y="18.84"/>
          <use xlink:href="#img-82f90582-53" x="58.68" y="19.03"/>
          <use xlink:href="#img-82f90582-53" x="58.89" y="19.13"/>
          <use xlink:href="#img-82f90582-53" x="59.33" y="19.33"/>
          <use xlink:href="#img-82f90582-53" x="59.78" y="19.54"/>
          <use xlink:href="#img-82f90582-53" x="60.01" y="19.65"/>
          <use xlink:href="#img-82f90582-53" x="60.49" y="19.87"/>
          <use xlink:href="#img-82f90582-53" x="60.97" y="20.11"/>
          <use xlink:href="#img-82f90582-53" x="61.22" y="20.23"/>
          <use xlink:href="#img-82f90582-53" x="61.74" y="20.49"/>
          <use xlink:href="#img-82f90582-53" x="62" y="20.62"/>
          <use xlink:href="#img-82f90582-53" x="62.27" y="20.76"/>
          <use xlink:href="#img-82f90582-53" x="62.82" y="21.04"/>
          <use xlink:href="#img-82f90582-53" x="63.1" y="21.19"/>
          <use xlink:href="#img-82f90582-53" x="63.39" y="21.34"/>
          <use xlink:href="#img-82f90582-53" x="63.97" y="21.65"/>
          <use xlink:href="#img-82f90582-53" x="64.28" y="21.81"/>
          <use xlink:href="#img-82f90582-53" x="64.58" y="21.98"/>
          <use xlink:href="#img-82f90582-53" x="64.9" y="22.15"/>
          <use xlink:href="#img-82f90582-53" x="65.22" y="22.33"/>
          <use xlink:href="#img-82f90582-53" x="65.87" y="22.7"/>
          <use xlink:href="#img-82f90582-53" x="66.21" y="22.89"/>
          <use xlink:href="#img-82f90582-53" x="66.55" y="23.09"/>
          <use xlink:href="#img-82f90582-53" x="66.91" y="23.29"/>
          <use xlink:href="#img-82f90582-53" x="67.26" y="23.5"/>
          <use xlink:href="#img-82f90582-53" x="67.63" y="23.72"/>
          <use xlink:href="#img-82f90582-53" x="68" y="23.94"/>
        </g>
      </g>
    </g>
  </g>
</g>
  <g class="guide ylabels" font-size="2.82" font-family="'PT Sans Caption','Helvetica Neue','Helvetica',sans-serif" fill="#6C606B" id="img-82f90582-54">
    <text x="27.43" y="25.21" text-anchor="end" dy="0.35em">-5</text>
    <text x="27.43" y="22.69" text-anchor="end" dy="0.35em">-4</text>
    <text x="27.43" y="20.17" text-anchor="end" dy="0.35em">-3</text>
    <text x="27.43" y="17.65" text-anchor="end" dy="0.35em">-2</text>
    <text x="27.43" y="15.13" text-anchor="end" dy="0.35em">-1</text>
    <text x="27.43" y="12.61" text-anchor="end" dy="0.35em">0</text>
  </g>
  <g font-size="3.88" font-family="'PT Sans','Helvetica Neue','Helvetica',sans-serif" fill="#564A55" stroke="#000000" stroke-opacity="0.000" id="img-82f90582-55">
    <text x="21.64" y="18.91" text-anchor="end" dy="0.35em">Error e-5</text>
  </g>
  <g font-size="3.88" font-family="'PT Sans','Helvetica Neue','Helvetica',sans-serif" fill="#564A55" stroke="#000000" stroke-opacity="0.000" id="img-82f90582-56">
    <text x="49.21" y="5" text-anchor="middle" dy="0.6em">RK2, error h^2</text>
  </g>
</g>
<defs>
  <clipPath id="img-82f90582-4">
  <path d="M21.42,55.61 L 145 55.61 145 70.72 21.42 70.72" />
</clipPath>
  <clipPath id="img-82f90582-26">
  <path d="M107.89,10.61 L 145 10.61 145 27.21 107.89 27.21" />
</clipPath>
  <clipPath id="img-82f90582-43">
  <path d="M28.43,10.61 L 70 10.61 70 27.21 28.43 27.21" />
</clipPath>
  <g id="img-82f90582-16">
    <circle cx="0" cy="0" r="0.35"/>
  </g>
  <g id="img-82f90582-19">
    <circle cx="0" cy="0" r="0.35"/>
  </g>
  <g id="img-82f90582-36">
    <circle cx="0" cy="0" r="0.35"/>
  </g>
  <g id="img-82f90582-53">
    <circle cx="0" cy="0" r="0.35"/>
  </g>
</defs>
</svg>
