<?xml version="1.0" encoding="utf-8"?>
<svg xmlns="http://www.w3.org/2000/svg" xmlns:xlink="http://www.w3.org/1999/xlink" width="600" height="400" viewBox="0 0 2400 1600">
<defs>
  <clipPath id="clip8800">
    <rect x="0" y="0" width="2000" height="2000"/>
  </clipPath>
</defs>
<defs>
  <clipPath id="clip8801">
    <rect x="0" y="0" width="2400" height="1600"/>
  </clipPath>
</defs>
<polygon clip-path="url(#clip8801)" points="
0,1600 2400,1600 2400,0 0,0 
  " fill="#ffffff" fill-rule="evenodd" fill-opacity="1"/>
<defs>
  <clipPath id="clip8802">
    <rect x="480" y="0" width="1681" height="1600"/>
  </clipPath>
</defs>
<polygon clip-path="url(#clip8801)" points="
212.353,1440.48 2321.26,1440.48 2321.26,125.984 212.353,125.984 
  " fill="#ffffff" fill-rule="evenodd" fill-opacity="1"/>
<defs>
  <clipPath id="clip8803">
    <rect x="212" y="125" width="2110" height="1315"/>
  </clipPath>
</defs>
<polyline clip-path="url(#clip8803)" style="stroke:#000000; stroke-width:2; stroke-opacity:0.1; fill:none" points="
  316.873,1440.48 316.873,125.984 
  "/>
<polyline clip-path="url(#clip8803)" style="stroke:#000000; stroke-width:2; stroke-opacity:0.1; fill:none" points="
  633.518,1440.48 633.518,125.984 
  "/>
<polyline clip-path="url(#clip8803)" style="stroke:#000000; stroke-width:2; stroke-opacity:0.1; fill:none" points="
  950.162,1440.48 950.162,125.984 
  "/>
<polyline clip-path="url(#clip8803)" style="stroke:#000000; stroke-width:2; stroke-opacity:0.1; fill:none" points="
  1266.81,1440.48 1266.81,125.984 
  "/>
<polyline clip-path="url(#clip8803)" style="stroke:#000000; stroke-width:2; stroke-opacity:0.1; fill:none" points="
  1583.45,1440.48 1583.45,125.984 
  "/>
<polyline clip-path="url(#clip8803)" style="stroke:#000000; stroke-width:2; stroke-opacity:0.1; fill:none" points="
  1900.09,1440.48 1900.09,125.984 
  "/>
<polyline clip-path="url(#clip8803)" style="stroke:#000000; stroke-width:2; stroke-opacity:0.1; fill:none" points="
  2216.74,1440.48 2216.74,125.984 
  "/>
<polyline clip-path="url(#clip8803)" style="stroke:#000000; stroke-width:2; stroke-opacity:0.1; fill:none" points="
  212.353,1403.28 2321.26,1403.28 
  "/>
<polyline clip-path="url(#clip8803)" style="stroke:#000000; stroke-width:2; stroke-opacity:0.1; fill:none" points="
  212.353,1093.26 2321.26,1093.26 
  "/>
<polyline clip-path="url(#clip8803)" style="stroke:#000000; stroke-width:2; stroke-opacity:0.1; fill:none" points="
  212.353,783.233 2321.26,783.233 
  "/>
<polyline clip-path="url(#clip8803)" style="stroke:#000000; stroke-width:2; stroke-opacity:0.1; fill:none" points="
  212.353,473.21 2321.26,473.21 
  "/>
<polyline clip-path="url(#clip8803)" style="stroke:#000000; stroke-width:2; stroke-opacity:0.1; fill:none" points="
  212.353,163.187 2321.26,163.187 
  "/>
<polyline clip-path="url(#clip8801)" style="stroke:#000000; stroke-width:4; stroke-opacity:1; fill:none" points="
  212.353,1440.48 2321.26,1440.48 
  "/>
<polyline clip-path="url(#clip8801)" style="stroke:#000000; stroke-width:4; stroke-opacity:1; fill:none" points="
  212.353,1440.48 212.353,125.984 
  "/>
<polyline clip-path="url(#clip8801)" style="stroke:#000000; stroke-width:4; stroke-opacity:1; fill:none" points="
  316.873,1440.48 316.873,1420.77 
  "/>
<polyline clip-path="url(#clip8801)" style="stroke:#000000; stroke-width:4; stroke-opacity:1; fill:none" points="
  633.518,1440.48 633.518,1420.77 
  "/>
<polyline clip-path="url(#clip8801)" style="stroke:#000000; stroke-width:4; stroke-opacity:1; fill:none" points="
  950.162,1440.48 950.162,1420.77 
  "/>
<polyline clip-path="url(#clip8801)" style="stroke:#000000; stroke-width:4; stroke-opacity:1; fill:none" points="
  1266.81,1440.48 1266.81,1420.77 
  "/>
<polyline clip-path="url(#clip8801)" style="stroke:#000000; stroke-width:4; stroke-opacity:1; fill:none" points="
  1583.45,1440.48 1583.45,1420.77 
  "/>
<polyline clip-path="url(#clip8801)" style="stroke:#000000; stroke-width:4; stroke-opacity:1; fill:none" points="
  1900.09,1440.48 1900.09,1420.77 
  "/>
<polyline clip-path="url(#clip8801)" style="stroke:#000000; stroke-width:4; stroke-opacity:1; fill:none" points="
  2216.74,1440.48 2216.74,1420.77 
  "/>
<polyline clip-path="url(#clip8801)" style="stroke:#000000; stroke-width:4; stroke-opacity:1; fill:none" points="
  212.353,1403.28 243.986,1403.28 
  "/>
<polyline clip-path="url(#clip8801)" style="stroke:#000000; stroke-width:4; stroke-opacity:1; fill:none" points="
  212.353,1093.26 243.986,1093.26 
  "/>
<polyline clip-path="url(#clip8801)" style="stroke:#000000; stroke-width:4; stroke-opacity:1; fill:none" points="
  212.353,783.233 243.986,783.233 
  "/>
<polyline clip-path="url(#clip8801)" style="stroke:#000000; stroke-width:4; stroke-opacity:1; fill:none" points="
  212.353,473.21 243.986,473.21 
  "/>
<polyline clip-path="url(#clip8801)" style="stroke:#000000; stroke-width:4; stroke-opacity:1; fill:none" points="
  212.353,163.187 243.986,163.187 
  "/>
<g clip-path="url(#clip8801)">
<text style="fill:#000000; fill-opacity:1; font-family:Arial,Helvetica Neue,Helvetica,sans-serif; font-size:48px; text-anchor:middle;" transform="rotate(0, 316.873, 1494.48)" x="316.873" y="1494.48">-3</text>
</g>
<g clip-path="url(#clip8801)">
<text style="fill:#000000; fill-opacity:1; font-family:Arial,Helvetica Neue,Helvetica,sans-serif; font-size:48px; text-anchor:middle;" transform="rotate(0, 633.518, 1494.48)" x="633.518" y="1494.48">-2</text>
</g>
<g clip-path="url(#clip8801)">
<text style="fill:#000000; fill-opacity:1; font-family:Arial,Helvetica Neue,Helvetica,sans-serif; font-size:48px; text-anchor:middle;" transform="rotate(0, 950.162, 1494.48)" x="950.162" y="1494.48">-1</text>
</g>
<g clip-path="url(#clip8801)">
<text style="fill:#000000; fill-opacity:1; font-family:Arial,Helvetica Neue,Helvetica,sans-serif; font-size:48px; text-anchor:middle;" transform="rotate(0, 1266.81, 1494.48)" x="1266.81" y="1494.48">0</text>
</g>
<g clip-path="url(#clip8801)">
<text style="fill:#000000; fill-opacity:1; font-family:Arial,Helvetica Neue,Helvetica,sans-serif; font-size:48px; text-anchor:middle;" transform="rotate(0, 1583.45, 1494.48)" x="1583.45" y="1494.48">1</text>
</g>
<g clip-path="url(#clip8801)">
<text style="fill:#000000; fill-opacity:1; font-family:Arial,Helvetica Neue,Helvetica,sans-serif; font-size:48px; text-anchor:middle;" transform="rotate(0, 1900.09, 1494.48)" x="1900.09" y="1494.48">2</text>
</g>
<g clip-path="url(#clip8801)">
<text style="fill:#000000; fill-opacity:1; font-family:Arial,Helvetica Neue,Helvetica,sans-serif; font-size:48px; text-anchor:middle;" transform="rotate(0, 2216.74, 1494.48)" x="2216.74" y="1494.48">3</text>
</g>
<g clip-path="url(#clip8801)">
<text style="fill:#000000; fill-opacity:1; font-family:Arial,Helvetica Neue,Helvetica,sans-serif; font-size:48px; text-anchor:end;" transform="rotate(0, 188.353, 1420.78)" x="188.353" y="1420.78">-2</text>
</g>
<g clip-path="url(#clip8801)">
<text style="fill:#000000; fill-opacity:1; font-family:Arial,Helvetica Neue,Helvetica,sans-serif; font-size:48px; text-anchor:end;" transform="rotate(0, 188.353, 1110.76)" x="188.353" y="1110.76">-1</text>
</g>
<g clip-path="url(#clip8801)">
<text style="fill:#000000; fill-opacity:1; font-family:Arial,Helvetica Neue,Helvetica,sans-serif; font-size:48px; text-anchor:end;" transform="rotate(0, 188.353, 800.733)" x="188.353" y="800.733">0</text>
</g>
<g clip-path="url(#clip8801)">
<text style="fill:#000000; fill-opacity:1; font-family:Arial,Helvetica Neue,Helvetica,sans-serif; font-size:48px; text-anchor:end;" transform="rotate(0, 188.353, 490.71)" x="188.353" y="490.71">1</text>
</g>
<g clip-path="url(#clip8801)">
<text style="fill:#000000; fill-opacity:1; font-family:Arial,Helvetica Neue,Helvetica,sans-serif; font-size:48px; text-anchor:end;" transform="rotate(0, 188.353, 180.687)" x="188.353" y="180.687">2</text>
</g>
<g clip-path="url(#clip8801)">
<text style="fill:#000000; fill-opacity:1; font-family:Arial,Helvetica Neue,Helvetica,sans-serif; font-size:84px; text-anchor:middle;" transform="rotate(0, 1266.81, 73.2)" x="1266.81" y="73.2">Band diagrams for different parameters</text>
</g>
<g clip-path="url(#clip8801)">
<text style="fill:#000000; fill-opacity:1; font-family:Arial,Helvetica Neue,Helvetica,sans-serif; font-size:66px; text-anchor:middle;" transform="rotate(0, 1266.81, 1590.4)" x="1266.81" y="1590.4">Momentum</text>
</g>
<g clip-path="url(#clip8801)">
<text style="fill:#000000; fill-opacity:1; font-family:Arial,Helvetica Neue,Helvetica,sans-serif; font-size:66px; text-anchor:middle;" transform="rotate(-90, 57.6, 783.233)" x="57.6" y="783.233">Energy</text>
</g>
<polyline clip-path="url(#clip8803)" style="stroke:#aa8e38; stroke-width:40; stroke-opacity:1; fill:none" points="
  272.039,163.187 278.395,163.218 284.751,163.312 291.108,163.468 297.464,163.687 303.82,163.968 310.177,164.311 316.533,164.717 322.89,165.185 329.246,165.715 
  335.602,166.308 341.959,166.962 348.315,167.679 354.671,168.458 361.028,169.299 367.384,170.201 373.74,171.165 380.097,172.191 386.453,173.279 392.809,174.428 
  399.166,175.638 405.522,176.91 411.878,178.242 418.235,179.636 424.591,181.09 430.947,182.605 437.304,184.181 443.66,185.816 450.016,187.512 456.373,189.269 
  462.729,191.084 469.085,192.96 475.442,194.895 481.798,196.889 488.154,198.943 494.511,201.055 500.867,203.226 507.223,205.455 513.58,207.743 519.936,210.088 
  526.292,212.491 532.649,214.952 539.005,217.47 545.361,220.045 551.718,222.677 558.074,225.365 564.431,228.109 570.787,230.909 577.143,233.765 583.5,236.677 
  589.856,239.643 596.212,242.664 602.569,245.74 608.925,248.869 615.281,252.053 621.638,255.29 627.994,258.58 634.35,261.923 640.707,265.319 647.063,268.767 
  653.419,272.266 659.776,275.817 666.132,279.42 672.488,283.073 678.845,286.776 685.201,290.529 691.557,294.332 697.914,298.185 704.27,302.086 710.626,306.035 
  716.983,310.033 723.339,314.078 729.695,318.171 736.052,322.31 742.408,326.496 748.764,330.728 755.121,335.006 761.477,339.328 767.833,343.696 774.19,348.107 
  780.546,352.563 786.902,357.062 793.259,361.603 799.615,366.188 805.972,370.814 812.328,375.482 818.684,380.191 825.041,384.94 831.397,389.73 837.753,394.559 
  844.11,399.428 850.466,404.335 856.822,409.28 863.179,414.263 869.535,419.283 875.891,424.34 882.248,429.433 888.604,434.561 894.96,439.725 901.317,444.923 
  907.673,450.156 914.029,455.422 920.386,460.721 926.742,466.052 933.098,471.415 939.455,476.81 945.811,482.236 952.167,487.692 958.524,493.178 964.88,498.693 
  971.236,504.236 977.593,509.808 983.949,515.408 990.305,521.034 996.662,526.687 1003.02,532.365 1009.37,538.069 1015.73,543.797 1022.09,549.55 1028.44,555.326 
  1034.8,561.126 1041.16,566.947 1047.51,572.79 1053.87,578.655 1060.23,584.54 1066.58,590.445 1072.94,596.37 1079.29,602.313 1085.65,608.275 1092.01,614.254 
  1098.36,620.25 1104.72,626.263 1111.08,632.291 1117.43,638.335 1123.79,644.393 1130.14,650.466 1136.5,656.551 1142.86,662.65 1149.21,668.76 1155.57,674.883 
  1161.93,681.016 1168.28,687.159 1174.64,693.312 1181,699.474 1187.35,705.644 1193.71,711.823 1200.06,718.008 1206.42,724.2 1212.78,730.398 1219.13,736.602 
  1225.49,742.81 1231.85,749.022 1238.2,755.238 1244.56,761.456 1250.92,767.676 1257.27,773.899 1263.63,780.122 1269.98,780.122 1276.34,773.899 1282.7,767.676 
  1289.05,761.456 1295.41,755.238 1301.77,749.022 1308.12,742.81 1314.48,736.602 1320.84,730.398 1327.19,724.2 1333.55,718.008 1339.9,711.823 1346.26,705.644 
  1352.62,699.474 1358.97,693.312 1365.33,687.159 1371.69,681.016 1378.04,674.883 1384.4,668.76 1390.75,662.65 1397.11,656.551 1403.47,650.466 1409.82,644.393 
  1416.18,638.335 1422.54,632.291 1428.89,626.263 1435.25,620.25 1441.61,614.254 1447.96,608.275 1454.32,602.313 1460.67,596.37 1467.03,590.445 1473.39,584.54 
  1479.74,578.655 1486.1,572.79 1492.46,566.947 1498.81,561.126 1505.17,555.326 1511.53,549.55 1517.88,543.797 1524.24,538.069 1530.59,532.365 1536.95,526.687 
  1543.31,521.034 1549.66,515.408 1556.02,509.808 1562.38,504.236 1568.73,498.693 1575.09,493.178 1581.45,487.692 1587.8,482.236 1594.16,476.81 1600.51,471.415 
  1606.87,466.052 1613.23,460.721 1619.58,455.422 1625.94,450.156 1632.3,444.923 1638.65,439.725 1645.01,434.561 1651.36,429.433 1657.72,424.34 1664.08,419.283 
  1670.43,414.263 1676.79,409.28 1683.15,404.335 1689.5,399.428 1695.86,394.559 1702.22,389.73 1708.57,384.94 1714.93,380.191 1721.28,375.482 1727.64,370.814 
  1734,366.188 1740.35,361.603 1746.71,357.062 1753.07,352.563 1759.42,348.107 1765.78,343.696 1772.14,339.328 1778.49,335.006 1784.85,330.728 1791.2,326.496 
  1797.56,322.31 1803.92,318.171 1810.27,314.078 1816.63,310.033 1822.99,306.035 1829.34,302.086 1835.7,298.185 1842.06,294.332 1848.41,290.529 1854.77,286.776 
  1861.12,283.073 1867.48,279.42 1873.84,275.817 1880.19,272.266 1886.55,268.767 1892.91,265.319 1899.26,261.923 1905.62,258.58 1911.97,255.29 1918.33,252.053 
  1924.69,248.869 1931.04,245.74 1937.4,242.664 1943.76,239.643 1950.11,236.677 1956.47,233.765 1962.83,230.909 1969.18,228.109 1975.54,225.365 1981.89,222.677 
  1988.25,220.045 1994.61,217.47 2000.96,214.952 2007.32,212.491 2013.68,210.088 2020.03,207.743 2026.39,205.455 2032.75,203.226 2039.1,201.055 2045.46,198.943 
  2051.81,196.889 2058.17,194.895 2064.53,192.96 2070.88,191.084 2077.24,189.269 2083.6,187.512 2089.95,185.816 2096.31,184.181 2102.67,182.605 2109.02,181.09 
  2115.38,179.636 2121.73,178.242 2128.09,176.91 2134.45,175.638 2140.8,174.428 2147.16,173.279 2153.52,172.191 2159.87,171.165 2166.23,170.201 2172.59,169.299 
  2178.94,168.458 2185.3,167.679 2191.65,166.962 2198.01,166.308 2204.37,165.715 2210.72,165.185 2217.08,164.717 2223.44,164.311 2229.79,163.968 2236.15,163.687 
  2242.5,163.468 2248.86,163.312 2255.22,163.218 2261.57,163.187 
  "/>
<polyline clip-path="url(#clip8803)" style="stroke:#aa8e38; stroke-width:40; stroke-opacity:1; fill:none" points="
  272.039,1403.28 278.395,1403.25 284.751,1403.15 291.108,1403 297.464,1402.78 303.82,1402.5 310.177,1402.16 316.533,1401.75 322.89,1401.28 329.246,1400.75 
  335.602,1400.16 341.959,1399.5 348.315,1398.79 354.671,1398.01 361.028,1397.17 367.384,1396.27 373.74,1395.3 380.097,1394.28 386.453,1393.19 392.809,1392.04 
  399.166,1390.83 405.522,1389.56 411.878,1388.22 418.235,1386.83 424.591,1385.38 430.947,1383.86 437.304,1382.29 443.66,1380.65 450.016,1378.95 456.373,1377.2 
  462.729,1375.38 469.085,1373.51 475.442,1371.57 481.798,1369.58 488.154,1367.52 494.511,1365.41 500.867,1363.24 507.223,1361.01 513.58,1358.72 519.936,1356.38 
  526.292,1353.98 532.649,1351.51 539.005,1349 545.361,1346.42 551.718,1343.79 558.074,1341.1 564.431,1338.36 570.787,1335.56 577.143,1332.7 583.5,1329.79 
  589.856,1326.82 596.212,1323.8 602.569,1320.73 608.925,1317.6 615.281,1314.41 621.638,1311.18 627.994,1307.89 634.35,1304.54 640.707,1301.15 647.063,1297.7 
  653.419,1294.2 659.776,1290.65 666.132,1287.05 672.488,1283.39 678.845,1279.69 685.201,1275.94 691.557,1272.13 697.914,1268.28 704.27,1264.38 710.626,1260.43 
  716.983,1256.43 723.339,1252.39 729.695,1248.3 736.052,1244.16 742.408,1239.97 748.764,1235.74 755.121,1231.46 761.477,1227.14 767.833,1222.77 774.19,1218.36 
  780.546,1213.9 786.902,1209.41 793.259,1204.86 799.615,1200.28 805.972,1195.65 812.328,1190.99 818.684,1186.28 825.041,1181.53 831.397,1176.74 837.753,1171.91 
  844.11,1167.04 850.466,1162.13 856.822,1157.19 863.179,1152.2 869.535,1147.18 875.891,1142.13 882.248,1137.03 888.604,1131.91 894.96,1126.74 901.317,1121.54 
  907.673,1116.31 914.029,1111.05 920.386,1105.75 926.742,1100.41 933.098,1095.05 939.455,1089.66 945.811,1084.23 952.167,1078.77 958.524,1073.29 964.88,1067.77 
  971.236,1062.23 977.593,1056.66 983.949,1051.06 990.305,1045.43 996.662,1039.78 1003.02,1034.1 1009.37,1028.4 1015.73,1022.67 1022.09,1016.92 1028.44,1011.14 
  1034.8,1005.34 1041.16,999.52 1047.51,993.676 1053.87,987.812 1060.23,981.927 1066.58,976.022 1072.94,970.097 1079.29,964.154 1085.65,958.192 1092.01,952.213 
  1098.36,946.217 1104.72,940.204 1111.08,934.175 1117.43,928.132 1123.79,922.073 1130.14,916.001 1136.5,909.915 1142.86,903.817 1149.21,897.706 1155.57,891.584 
  1161.93,885.451 1168.28,879.308 1174.64,873.155 1181,866.993 1187.35,860.822 1193.71,854.644 1200.06,848.459 1206.42,842.266 1212.78,836.068 1219.13,829.865 
  1225.49,823.657 1231.85,817.445 1238.2,811.229 1244.56,805.011 1250.92,798.79 1257.27,792.568 1263.63,786.345 1269.98,786.345 1276.34,792.568 1282.7,798.79 
  1289.05,805.011 1295.41,811.229 1301.77,817.445 1308.12,823.657 1314.48,829.865 1320.84,836.068 1327.19,842.266 1333.55,848.459 1339.9,854.644 1346.26,860.822 
  1352.62,866.993 1358.97,873.155 1365.33,879.308 1371.69,885.451 1378.04,891.584 1384.4,897.706 1390.75,903.817 1397.11,909.915 1403.47,916.001 1409.82,922.073 
  1416.18,928.132 1422.54,934.175 1428.89,940.204 1435.25,946.217 1441.61,952.213 1447.96,958.192 1454.32,964.154 1460.67,970.097 1467.03,976.022 1473.39,981.927 
  1479.74,987.812 1486.1,993.676 1492.46,999.52 1498.81,1005.34 1505.17,1011.14 1511.53,1016.92 1517.88,1022.67 1524.24,1028.4 1530.59,1034.1 1536.95,1039.78 
  1543.31,1045.43 1549.66,1051.06 1556.02,1056.66 1562.38,1062.23 1568.73,1067.77 1575.09,1073.29 1581.45,1078.77 1587.8,1084.23 1594.16,1089.66 1600.51,1095.05 
  1606.87,1100.41 1613.23,1105.75 1619.58,1111.05 1625.94,1116.31 1632.3,1121.54 1638.65,1126.74 1645.01,1131.91 1651.36,1137.03 1657.72,1142.13 1664.08,1147.18 
  1670.43,1152.2 1676.79,1157.19 1683.15,1162.13 1689.5,1167.04 1695.86,1171.91 1702.22,1176.74 1708.57,1181.53 1714.93,1186.28 1721.28,1190.99 1727.64,1195.65 
  1734,1200.28 1740.35,1204.86 1746.71,1209.41 1753.07,1213.9 1759.42,1218.36 1765.78,1222.77 1772.14,1227.14 1778.49,1231.46 1784.85,1235.74 1791.2,1239.97 
  1797.56,1244.16 1803.92,1248.3 1810.27,1252.39 1816.63,1256.43 1822.99,1260.43 1829.34,1264.38 1835.7,1268.28 1842.06,1272.13 1848.41,1275.94 1854.77,1279.69 
  1861.12,1283.39 1867.48,1287.05 1873.84,1290.65 1880.19,1294.2 1886.55,1297.7 1892.91,1301.15 1899.26,1304.54 1905.62,1307.89 1911.97,1311.18 1918.33,1314.41 
  1924.69,1317.6 1931.04,1320.73 1937.4,1323.8 1943.76,1326.82 1950.11,1329.79 1956.47,1332.7 1962.83,1335.56 1969.18,1338.36 1975.54,1341.1 1981.89,1343.79 
  1988.25,1346.42 1994.61,1349 2000.96,1351.51 2007.32,1353.98 2013.68,1356.38 2020.03,1358.72 2026.39,1361.01 2032.75,1363.24 2039.1,1365.41 2045.46,1367.52 
  2051.81,1369.58 2058.17,1371.57 2064.53,1373.51 2070.88,1375.38 2077.24,1377.2 2083.6,1378.95 2089.95,1380.65 2096.31,1382.29 2102.67,1383.86 2109.02,1385.38 
  2115.38,1386.83 2121.73,1388.22 2128.09,1389.56 2134.45,1390.83 2140.8,1392.04 2147.16,1393.19 2153.52,1394.28 2159.87,1395.3 2166.23,1396.27 2172.59,1397.17 
  2178.94,1398.01 2185.3,1398.79 2191.65,1399.5 2198.01,1400.16 2204.37,1400.75 2210.72,1401.28 2217.08,1401.75 2223.44,1402.16 2229.79,1402.5 2236.15,1402.78 
  2242.5,1403 2248.86,1403.15 2255.22,1403.25 2261.57,1403.28 
  "/>
<polyline clip-path="url(#clip8803)" style="stroke:#592a71; stroke-width:60; stroke-opacity:1; fill:none" stroke-dasharray="240, 150" points="
  272.039,318.199 278.395,318.219 284.751,318.282 291.108,318.386 297.464,318.532 303.82,318.719 310.177,318.948 316.533,319.218 322.89,319.53 329.246,319.884 
  335.602,320.278 341.959,320.715 348.315,321.192 354.671,321.711 361.028,322.271 367.384,322.872 373.74,323.514 380.097,324.197 386.453,324.92 392.809,325.685 
  399.166,326.49 405.522,327.336 411.878,328.222 418.235,329.148 424.591,330.114 430.947,331.121 437.304,332.167 443.66,333.253 450.016,334.379 456.373,335.544 
  462.729,336.748 469.085,337.992 475.442,339.274 481.798,340.596 488.154,341.955 494.511,343.353 500.867,344.79 507.223,346.264 513.58,347.776 519.936,349.325 
  526.292,350.912 532.649,352.536 539.005,354.196 545.361,355.894 551.718,357.627 558.074,359.397 564.431,361.202 570.787,363.044 577.143,364.92 583.5,366.831 
  589.856,368.777 596.212,370.758 602.569,372.772 608.925,374.821 615.281,376.902 621.638,379.017 627.994,381.165 634.35,383.345 640.707,385.557 647.063,387.801 
  653.419,390.077 659.776,392.383 666.132,394.72 672.488,397.087 678.845,399.484 685.201,401.91 691.557,404.366 697.914,406.85 704.27,409.362 710.626,411.901 
  716.983,414.468 723.339,417.062 729.695,419.681 736.052,422.327 742.408,424.997 748.764,427.693 755.121,430.412 761.477,433.156 767.833,435.922 774.19,438.711 
  780.546,441.521 786.902,444.353 793.259,447.206 799.615,450.079 805.972,452.971 812.328,455.881 818.684,458.81 825.041,461.757 831.397,464.719 837.753,467.698 
  844.11,470.692 850.466,473.7 856.822,476.722 863.179,479.757 869.535,482.803 875.891,485.86 882.248,488.927 888.604,492.004 894.96,495.088 901.317,498.18 
  907.673,501.278 914.029,504.381 920.386,507.487 926.742,510.597 933.098,513.708 939.455,516.82 945.811,519.931 952.167,523.039 958.524,526.144 964.88,529.245 
  971.236,532.339 977.593,535.424 983.949,538.501 990.305,541.566 996.662,544.619 1003.02,547.657 1009.37,550.679 1015.73,553.683 1022.09,556.667 1028.44,559.628 
  1034.8,562.565 1041.16,565.476 1047.51,568.357 1053.87,571.208 1060.23,574.025 1066.58,576.806 1072.94,579.548 1079.29,582.249 1085.65,584.906 1092.01,587.515 
  1098.36,590.075 1104.72,592.581 1111.08,595.031 1117.43,597.421 1123.79,599.748 1130.14,602.009 1136.5,604.201 1142.86,606.319 1149.21,608.36 1155.57,610.321 
  1161.93,612.199 1168.28,613.989 1174.64,615.688 1181,617.292 1187.35,618.799 1193.71,620.205 1200.06,621.506 1206.42,622.7 1212.78,623.783 1219.13,624.754 
  1225.49,625.608 1231.85,626.346 1238.2,626.963 1244.56,627.459 1250.92,627.832 1257.27,628.081 1263.63,628.206 1269.98,628.206 1276.34,628.081 1282.7,627.832 
  1289.05,627.459 1295.41,626.963 1301.77,626.346 1308.12,625.608 1314.48,624.754 1320.84,623.783 1327.19,622.7 1333.55,621.506 1339.9,620.205 1346.26,618.799 
  1352.62,617.292 1358.97,615.688 1365.33,613.989 1371.69,612.199 1378.04,610.321 1384.4,608.36 1390.75,606.319 1397.11,604.201 1403.47,602.009 1409.82,599.748 
  1416.18,597.421 1422.54,595.031 1428.89,592.581 1435.25,590.075 1441.61,587.515 1447.96,584.906 1454.32,582.249 1460.67,579.548 1467.03,576.806 1473.39,574.025 
  1479.74,571.208 1486.1,568.357 1492.46,565.476 1498.81,562.565 1505.17,559.628 1511.53,556.667 1517.88,553.683 1524.24,550.679 1530.59,547.657 1536.95,544.619 
  1543.31,541.566 1549.66,538.501 1556.02,535.424 1562.38,532.339 1568.73,529.245 1575.09,526.144 1581.45,523.039 1587.8,519.931 1594.16,516.82 1600.51,513.708 
  1606.87,510.597 1613.23,507.487 1619.58,504.381 1625.94,501.278 1632.3,498.18 1638.65,495.088 1645.01,492.004 1651.36,488.927 1657.72,485.86 1664.08,482.803 
  1670.43,479.757 1676.79,476.722 1683.15,473.7 1689.5,470.692 1695.86,467.698 1702.22,464.719 1708.57,461.757 1714.93,458.81 1721.28,455.881 1727.64,452.971 
  1734,450.079 1740.35,447.206 1746.71,444.353 1753.07,441.521 1759.42,438.711 1765.78,435.922 1772.14,433.156 1778.49,430.412 1784.85,427.693 1791.2,424.997 
  1797.56,422.327 1803.92,419.681 1810.27,417.062 1816.63,414.468 1822.99,411.901 1829.34,409.362 1835.7,406.85 1842.06,404.366 1848.41,401.91 1854.77,399.484 
  1861.12,397.087 1867.48,394.72 1873.84,392.383 1880.19,390.077 1886.55,387.801 1892.91,385.557 1899.26,383.345 1905.62,381.165 1911.97,379.017 1918.33,376.902 
  1924.69,374.821 1931.04,372.772 1937.4,370.758 1943.76,368.777 1950.11,366.831 1956.47,364.92 1962.83,363.044 1969.18,361.202 1975.54,359.397 1981.89,357.627 
  1988.25,355.894 1994.61,354.196 2000.96,352.536 2007.32,350.912 2013.68,349.325 2020.03,347.776 2026.39,346.264 2032.75,344.79 2039.1,343.353 2045.46,341.955 
  2051.81,340.596 2058.17,339.274 2064.53,337.992 2070.88,336.748 2077.24,335.544 2083.6,334.379 2089.95,333.253 2096.31,332.167 2102.67,331.121 2109.02,330.114 
  2115.38,329.148 2121.73,328.222 2128.09,327.336 2134.45,326.49 2140.8,325.685 2147.16,324.92 2153.52,324.197 2159.87,323.514 2166.23,322.872 2172.59,322.271 
  2178.94,321.711 2185.3,321.192 2191.65,320.715 2198.01,320.278 2204.37,319.884 2210.72,319.53 2217.08,319.218 2223.44,318.948 2229.79,318.719 2236.15,318.532 
  2242.5,318.386 2248.86,318.282 2255.22,318.219 2261.57,318.199 
  "/>
<polyline clip-path="url(#clip8803)" style="stroke:#592a71; stroke-width:60; stroke-opacity:1; fill:none" stroke-dasharray="240, 150" points="
  272.039,1248.27 278.395,1248.25 284.751,1248.18 291.108,1248.08 297.464,1247.94 303.82,1247.75 310.177,1247.52 316.533,1247.25 322.89,1246.94 329.246,1246.58 
  335.602,1246.19 341.959,1245.75 348.315,1245.27 354.671,1244.76 361.028,1244.2 367.384,1243.6 373.74,1242.95 380.097,1242.27 386.453,1241.55 392.809,1240.78 
  399.166,1239.98 405.522,1239.13 411.878,1238.25 418.235,1237.32 424.591,1236.35 430.947,1235.35 437.304,1234.3 443.66,1233.21 450.016,1232.09 456.373,1230.92 
  462.729,1229.72 469.085,1228.47 475.442,1227.19 481.798,1225.87 488.154,1224.51 494.511,1223.11 500.867,1221.68 507.223,1220.2 513.58,1218.69 519.936,1217.14 
  526.292,1215.55 532.649,1213.93 539.005,1212.27 545.361,1210.57 551.718,1208.84 558.074,1207.07 564.431,1205.26 570.787,1203.42 577.143,1201.55 583.5,1199.64 
  589.856,1197.69 596.212,1195.71 602.569,1193.69 608.925,1191.65 615.281,1189.56 621.638,1187.45 627.994,1185.3 634.35,1183.12 640.707,1180.91 647.063,1178.67 
  653.419,1176.39 659.776,1174.08 666.132,1171.75 672.488,1169.38 678.845,1166.98 685.201,1164.56 691.557,1162.1 697.914,1159.62 704.27,1157.11 710.626,1154.57 
  716.983,1152 723.339,1149.41 729.695,1146.79 736.052,1144.14 742.408,1141.47 748.764,1138.77 755.121,1136.05 761.477,1133.31 767.833,1130.54 774.19,1127.76 
  780.546,1124.95 786.902,1122.11 793.259,1119.26 799.615,1116.39 805.972,1113.5 812.328,1110.59 818.684,1107.66 825.041,1104.71 831.397,1101.75 837.753,1098.77 
  844.11,1095.77 850.466,1092.77 856.822,1089.74 863.179,1086.71 869.535,1083.66 875.891,1080.61 882.248,1077.54 888.604,1074.46 894.96,1071.38 901.317,1068.29 
  907.673,1065.19 914.029,1062.09 920.386,1058.98 926.742,1055.87 933.098,1052.76 939.455,1049.65 945.811,1046.54 952.167,1043.43 958.524,1040.32 964.88,1037.22 
  971.236,1034.13 977.593,1031.04 983.949,1027.97 990.305,1024.9 996.662,1021.85 1003.02,1018.81 1009.37,1015.79 1015.73,1012.78 1022.09,1009.8 1028.44,1006.84 
  1034.8,1003.9 1041.16,1000.99 1047.51,998.11 1053.87,995.259 1060.23,992.442 1066.58,989.661 1072.94,986.919 1079.29,984.218 1085.65,981.561 1092.01,978.952 
  1098.36,976.392 1104.72,973.886 1111.08,971.436 1117.43,969.046 1123.79,966.719 1130.14,964.458 1136.5,962.266 1142.86,960.148 1149.21,958.107 1155.57,956.145 
  1161.93,954.268 1168.28,952.478 1174.64,950.779 1181,949.174 1187.35,947.668 1193.71,946.262 1200.06,944.961 1206.42,943.767 1212.78,942.684 1219.13,941.713 
  1225.49,940.858 1231.85,940.121 1238.2,939.504 1244.56,939.008 1250.92,938.635 1257.27,938.385 1263.63,938.261 1269.98,938.261 1276.34,938.385 1282.7,938.635 
  1289.05,939.008 1295.41,939.504 1301.77,940.121 1308.12,940.858 1314.48,941.713 1320.84,942.684 1327.19,943.767 1333.55,944.961 1339.9,946.262 1346.26,947.668 
  1352.62,949.174 1358.97,950.779 1365.33,952.478 1371.69,954.268 1378.04,956.145 1384.4,958.107 1390.75,960.148 1397.11,962.266 1403.47,964.458 1409.82,966.719 
  1416.18,969.046 1422.54,971.436 1428.89,973.886 1435.25,976.392 1441.61,978.952 1447.96,981.561 1454.32,984.218 1460.67,986.919 1467.03,989.661 1473.39,992.442 
  1479.74,995.259 1486.1,998.11 1492.46,1000.99 1498.81,1003.9 1505.17,1006.84 1511.53,1009.8 1517.88,1012.78 1524.24,1015.79 1530.59,1018.81 1536.95,1021.85 
  1543.31,1024.9 1549.66,1027.97 1556.02,1031.04 1562.38,1034.13 1568.73,1037.22 1575.09,1040.32 1581.45,1043.43 1587.8,1046.54 1594.16,1049.65 1600.51,1052.76 
  1606.87,1055.87 1613.23,1058.98 1619.58,1062.09 1625.94,1065.19 1632.3,1068.29 1638.65,1071.38 1645.01,1074.46 1651.36,1077.54 1657.72,1080.61 1664.08,1083.66 
  1670.43,1086.71 1676.79,1089.74 1683.15,1092.77 1689.5,1095.77 1695.86,1098.77 1702.22,1101.75 1708.57,1104.71 1714.93,1107.66 1721.28,1110.59 1727.64,1113.5 
  1734,1116.39 1740.35,1119.26 1746.71,1122.11 1753.07,1124.95 1759.42,1127.76 1765.78,1130.54 1772.14,1133.31 1778.49,1136.05 1784.85,1138.77 1791.2,1141.47 
  1797.56,1144.14 1803.92,1146.79 1810.27,1149.41 1816.63,1152 1822.99,1154.57 1829.34,1157.11 1835.7,1159.62 1842.06,1162.1 1848.41,1164.56 1854.77,1166.98 
  1861.12,1169.38 1867.48,1171.75 1873.84,1174.08 1880.19,1176.39 1886.55,1178.67 1892.91,1180.91 1899.26,1183.12 1905.62,1185.3 1911.97,1187.45 1918.33,1189.56 
  1924.69,1191.65 1931.04,1193.69 1937.4,1195.71 1943.76,1197.69 1950.11,1199.64 1956.47,1201.55 1962.83,1203.42 1969.18,1205.26 1975.54,1207.07 1981.89,1208.84 
  1988.25,1210.57 1994.61,1212.27 2000.96,1213.93 2007.32,1215.55 2013.68,1217.14 2020.03,1218.69 2026.39,1220.2 2032.75,1221.68 2039.1,1223.11 2045.46,1224.51 
  2051.81,1225.87 2058.17,1227.19 2064.53,1228.47 2070.88,1229.72 2077.24,1230.92 2083.6,1232.09 2089.95,1233.21 2096.31,1234.3 2102.67,1235.35 2109.02,1236.35 
  2115.38,1237.32 2121.73,1238.25 2128.09,1239.13 2134.45,1239.98 2140.8,1240.78 2147.16,1241.55 2153.52,1242.27 2159.87,1242.95 2166.23,1243.6 2172.59,1244.2 
  2178.94,1244.76 2185.3,1245.27 2191.65,1245.75 2198.01,1246.19 2204.37,1246.58 2210.72,1246.94 2217.08,1247.25 2223.44,1247.52 2229.79,1247.75 2236.15,1247.94 
  2242.5,1248.08 2248.86,1248.18 2255.22,1248.25 2261.57,1248.27 
  "/>
<polyline clip-path="url(#clip8803)" style="stroke:#4e918f; stroke-width:20; stroke-opacity:1; fill:none" stroke-dasharray="80, 50" points="
  272.039,318.199 278.395,318.219 284.751,318.282 291.108,318.386 297.464,318.532 303.82,318.719 310.177,318.948 316.533,319.218 322.89,319.53 329.246,319.884 
  335.602,320.278 341.959,320.715 348.315,321.192 354.671,321.711 361.028,322.271 367.384,322.872 373.74,323.514 380.097,324.197 386.453,324.92 392.809,325.685 
  399.166,326.49 405.522,327.336 411.878,328.222 418.235,329.148 424.591,330.114 430.947,331.121 437.304,332.167 443.66,333.253 450.016,334.379 456.373,335.544 
  462.729,336.748 469.085,337.992 475.442,339.274 481.798,340.596 488.154,341.955 494.511,343.353 500.867,344.79 507.223,346.264 513.58,347.776 519.936,349.325 
  526.292,350.912 532.649,352.536 539.005,354.196 545.361,355.894 551.718,357.627 558.074,359.397 564.431,361.202 570.787,363.044 577.143,364.92 583.5,366.831 
  589.856,368.777 596.212,370.758 602.569,372.772 608.925,374.821 615.281,376.902 621.638,379.017 627.994,381.165 634.35,383.345 640.707,385.557 647.063,387.801 
  653.419,390.077 659.776,392.383 666.132,394.72 672.488,397.087 678.845,399.484 685.201,401.91 691.557,404.366 697.914,406.85 704.27,409.362 710.626,411.901 
  716.983,414.468 723.339,417.062 729.695,419.681 736.052,422.327 742.408,424.997 748.764,427.693 755.121,430.412 761.477,433.156 767.833,435.922 774.19,438.711 
  780.546,441.521 786.902,444.353 793.259,447.206 799.615,450.079 805.972,452.971 812.328,455.881 818.684,458.81 825.041,461.757 831.397,464.719 837.753,467.698 
  844.11,470.692 850.466,473.7 856.822,476.722 863.179,479.757 869.535,482.803 875.891,485.86 882.248,488.927 888.604,492.004 894.96,495.088 901.317,498.18 
  907.673,501.278 914.029,504.381 920.386,507.487 926.742,510.597 933.098,513.708 939.455,516.82 945.811,519.931 952.167,523.039 958.524,526.144 964.88,529.245 
  971.236,532.339 977.593,535.424 983.949,538.501 990.305,541.566 996.662,544.619 1003.02,547.657 1009.37,550.679 1015.73,553.683 1022.09,556.667 1028.44,559.628 
  1034.8,562.565 1041.16,565.476 1047.51,568.357 1053.87,571.208 1060.23,574.025 1066.58,576.806 1072.94,579.548 1079.29,582.249 1085.65,584.906 1092.01,587.515 
  1098.36,590.075 1104.72,592.581 1111.08,595.031 1117.43,597.421 1123.79,599.748 1130.14,602.009 1136.5,604.201 1142.86,606.319 1149.21,608.36 1155.57,610.321 
  1161.93,612.199 1168.28,613.989 1174.64,615.688 1181,617.292 1187.35,618.799 1193.71,620.205 1200.06,621.506 1206.42,622.7 1212.78,623.783 1219.13,624.754 
  1225.49,625.608 1231.85,626.346 1238.2,626.963 1244.56,627.459 1250.92,627.832 1257.27,628.081 1263.63,628.206 1269.98,628.206 1276.34,628.081 1282.7,627.832 
  1289.05,627.459 1295.41,626.963 1301.77,626.346 1308.12,625.608 1314.48,624.754 1320.84,623.783 1327.19,622.7 1333.55,621.506 1339.9,620.205 1346.26,618.799 
  1352.62,617.292 1358.97,615.688 1365.33,613.989 1371.69,612.199 1378.04,610.321 1384.4,608.36 1390.75,606.319 1397.11,604.201 1403.47,602.009 1409.82,599.748 
  1416.18,597.421 1422.54,595.031 1428.89,592.581 1435.25,590.075 1441.61,587.515 1447.96,584.906 1454.32,582.249 1460.67,579.548 1467.03,576.806 1473.39,574.025 
  1479.74,571.208 1486.1,568.357 1492.46,565.476 1498.81,562.565 1505.17,559.628 1511.53,556.667 1517.88,553.683 1524.24,550.679 1530.59,547.657 1536.95,544.619 
  1543.31,541.566 1549.66,538.501 1556.02,535.424 1562.38,532.339 1568.73,529.245 1575.09,526.144 1581.45,523.039 1587.8,519.931 1594.16,516.82 1600.51,513.708 
  1606.87,510.597 1613.23,507.487 1619.58,504.381 1625.94,501.278 1632.3,498.18 1638.65,495.088 1645.01,492.004 1651.36,488.927 1657.72,485.86 1664.08,482.803 
  1670.43,479.757 1676.79,476.722 1683.15,473.7 1689.5,470.692 1695.86,467.698 1702.22,464.719 1708.57,461.757 1714.93,458.81 1721.28,455.881 1727.64,452.971 
  1734,450.079 1740.35,447.206 1746.71,444.353 1753.07,441.521 1759.42,438.711 1765.78,435.922 1772.14,433.156 1778.49,430.412 1784.85,427.693 1791.2,424.997 
  1797.56,422.327 1803.92,419.681 1810.27,417.062 1816.63,414.468 1822.99,411.901 1829.34,409.362 1835.7,406.85 1842.06,404.366 1848.41,401.91 1854.77,399.484 
  1861.12,397.087 1867.48,394.72 1873.84,392.383 1880.19,390.077 1886.55,387.801 1892.91,385.557 1899.26,383.345 1905.62,381.165 1911.97,379.017 1918.33,376.902 
  1924.69,374.821 1931.04,372.772 1937.4,370.758 1943.76,368.777 1950.11,366.831 1956.47,364.92 1962.83,363.044 1969.18,361.202 1975.54,359.397 1981.89,357.627 
  1988.25,355.894 1994.61,354.196 2000.96,352.536 2007.32,350.912 2013.68,349.325 2020.03,347.776 2026.39,346.264 2032.75,344.79 2039.1,343.353 2045.46,341.955 
  2051.81,340.596 2058.17,339.274 2064.53,337.992 2070.88,336.748 2077.24,335.544 2083.6,334.379 2089.95,333.253 2096.31,332.167 2102.67,331.121 2109.02,330.114 
  2115.38,329.148 2121.73,328.222 2128.09,327.336 2134.45,326.49 2140.8,325.685 2147.16,324.92 2153.52,324.197 2159.87,323.514 2166.23,322.872 2172.59,322.271 
  2178.94,321.711 2185.3,321.192 2191.65,320.715 2198.01,320.278 2204.37,319.884 2210.72,319.53 2217.08,319.218 2223.44,318.948 2229.79,318.719 2236.15,318.532 
  2242.5,318.386 2248.86,318.282 2255.22,318.219 2261.57,318.199 
  "/>
<polyline clip-path="url(#clip8803)" style="stroke:#4e918f; stroke-width:20; stroke-opacity:1; fill:none" stroke-dasharray="80, 50" points="
  272.039,1248.27 278.395,1248.25 284.751,1248.18 291.108,1248.08 297.464,1247.94 303.82,1247.75 310.177,1247.52 316.533,1247.25 322.89,1246.94 329.246,1246.58 
  335.602,1246.19 341.959,1245.75 348.315,1245.27 354.671,1244.76 361.028,1244.2 367.384,1243.6 373.74,1242.95 380.097,1242.27 386.453,1241.55 392.809,1240.78 
  399.166,1239.98 405.522,1239.13 411.878,1238.25 418.235,1237.32 424.591,1236.35 430.947,1235.35 437.304,1234.3 443.66,1233.21 450.016,1232.09 456.373,1230.92 
  462.729,1229.72 469.085,1228.47 475.442,1227.19 481.798,1225.87 488.154,1224.51 494.511,1223.11 500.867,1221.68 507.223,1220.2 513.58,1218.69 519.936,1217.14 
  526.292,1215.55 532.649,1213.93 539.005,1212.27 545.361,1210.57 551.718,1208.84 558.074,1207.07 564.431,1205.26 570.787,1203.42 577.143,1201.55 583.5,1199.64 
  589.856,1197.69 596.212,1195.71 602.569,1193.69 608.925,1191.65 615.281,1189.56 621.638,1187.45 627.994,1185.3 634.35,1183.12 640.707,1180.91 647.063,1178.67 
  653.419,1176.39 659.776,1174.08 666.132,1171.75 672.488,1169.38 678.845,1166.98 685.201,1164.56 691.557,1162.1 697.914,1159.62 704.27,1157.11 710.626,1154.57 
  716.983,1152 723.339,1149.41 729.695,1146.79 736.052,1144.14 742.408,1141.47 748.764,1138.77 755.121,1136.05 761.477,1133.31 767.833,1130.54 774.19,1127.76 
  780.546,1124.95 786.902,1122.11 793.259,1119.26 799.615,1116.39 805.972,1113.5 812.328,1110.59 818.684,1107.66 825.041,1104.71 831.397,1101.75 837.753,1098.77 
  844.11,1095.77 850.466,1092.77 856.822,1089.74 863.179,1086.71 869.535,1083.66 875.891,1080.61 882.248,1077.54 888.604,1074.46 894.96,1071.38 901.317,1068.29 
  907.673,1065.19 914.029,1062.09 920.386,1058.98 926.742,1055.87 933.098,1052.76 939.455,1049.65 945.811,1046.54 952.167,1043.43 958.524,1040.32 964.88,1037.22 
  971.236,1034.13 977.593,1031.04 983.949,1027.97 990.305,1024.9 996.662,1021.85 1003.02,1018.81 1009.37,1015.79 1015.73,1012.78 1022.09,1009.8 1028.44,1006.84 
  1034.8,1003.9 1041.16,1000.99 1047.51,998.11 1053.87,995.259 1060.23,992.442 1066.58,989.661 1072.94,986.919 1079.29,984.218 1085.65,981.561 1092.01,978.952 
  1098.36,976.392 1104.72,973.886 1111.08,971.436 1117.43,969.046 1123.79,966.719 1130.14,964.458 1136.5,962.266 1142.86,960.148 1149.21,958.107 1155.57,956.145 
  1161.93,954.268 1168.28,952.478 1174.64,950.779 1181,949.174 1187.35,947.668 1193.71,946.262 1200.06,944.961 1206.42,943.767 1212.78,942.684 1219.13,941.713 
  1225.49,940.858 1231.85,940.121 1238.2,939.504 1244.56,939.008 1250.92,938.635 1257.27,938.385 1263.63,938.261 1269.98,938.261 1276.34,938.385 1282.7,938.635 
  1289.05,939.008 1295.41,939.504 1301.77,940.121 1308.12,940.858 1314.48,941.713 1320.84,942.684 1327.19,943.767 1333.55,944.961 1339.9,946.262 1346.26,947.668 
  1352.62,949.174 1358.97,950.779 1365.33,952.478 1371.69,954.268 1378.04,956.145 1384.4,958.107 1390.75,960.148 1397.11,962.266 1403.47,964.458 1409.82,966.719 
  1416.18,969.046 1422.54,971.436 1428.89,973.886 1435.25,976.392 1441.61,978.952 1447.96,981.561 1454.32,984.218 1460.67,986.919 1467.03,989.661 1473.39,992.442 
  1479.74,995.259 1486.1,998.11 1492.46,1000.99 1498.81,1003.9 1505.17,1006.84 1511.53,1009.8 1517.88,1012.78 1524.24,1015.79 1530.59,1018.81 1536.95,1021.85 
  1543.31,1024.9 1549.66,1027.97 1556.02,1031.04 1562.38,1034.13 1568.73,1037.22 1575.09,1040.32 1581.45,1043.43 1587.8,1046.54 1594.16,1049.65 1600.51,1052.76 
  1606.87,1055.87 1613.23,1058.98 1619.58,1062.09 1625.94,1065.19 1632.3,1068.29 1638.65,1071.38 1645.01,1074.46 1651.36,1077.54 1657.72,1080.61 1664.08,1083.66 
  1670.43,1086.71 1676.79,1089.74 1683.15,1092.77 1689.5,1095.77 1695.86,1098.77 1702.22,1101.75 1708.57,1104.71 1714.93,1107.66 1721.28,1110.59 1727.64,1113.5 
  1734,1116.39 1740.35,1119.26 1746.71,1122.11 1753.07,1124.95 1759.42,1127.76 1765.78,1130.54 1772.14,1133.31 1778.49,1136.05 1784.85,1138.77 1791.2,1141.47 
  1797.56,1144.14 1803.92,1146.79 1810.27,1149.41 1816.63,1152 1822.99,1154.57 1829.34,1157.11 1835.7,1159.62 1842.06,1162.1 1848.41,1164.56 1854.77,1166.98 
  1861.12,1169.38 1867.48,1171.75 1873.84,1174.08 1880.19,1176.39 1886.55,1178.67 1892.91,1180.91 1899.26,1183.12 1905.62,1185.3 1911.97,1187.45 1918.33,1189.56 
  1924.69,1191.65 1931.04,1193.69 1937.4,1195.71 1943.76,1197.69 1950.11,1199.64 1956.47,1201.55 1962.83,1203.42 1969.18,1205.26 1975.54,1207.07 1981.89,1208.84 
  1988.25,1210.57 1994.61,1212.27 2000.96,1213.93 2007.32,1215.55 2013.68,1217.14 2020.03,1218.69 2026.39,1220.2 2032.75,1221.68 2039.1,1223.11 2045.46,1224.51 
  2051.81,1225.87 2058.17,1227.19 2064.53,1228.47 2070.88,1229.72 2077.24,1230.92 2083.6,1232.09 2089.95,1233.21 2096.31,1234.3 2102.67,1235.35 2109.02,1236.35 
  2115.38,1237.32 2121.73,1238.25 2128.09,1239.13 2134.45,1239.98 2140.8,1240.78 2147.16,1241.55 2153.52,1242.27 2159.87,1242.95 2166.23,1243.6 2172.59,1244.2 
  2178.94,1244.76 2185.3,1245.27 2191.65,1245.75 2198.01,1246.19 2204.37,1246.58 2210.72,1246.94 2217.08,1247.25 2223.44,1247.52 2229.79,1247.75 2236.15,1247.94 
  2242.5,1248.08 2248.86,1248.18 2255.22,1248.25 2261.57,1248.27 
  "/>
<polyline clip-path="url(#clip8803)" style="stroke:#300c43; stroke-width:60; stroke-opacity:1; fill:none" points="
  272.039,628.222 278.395,628.222 284.751,628.222 291.108,628.222 297.464,628.222 303.82,628.222 310.177,628.222 316.533,628.222 322.89,628.222 329.246,628.222 
  335.602,628.222 341.959,628.222 348.315,628.222 354.671,628.222 361.028,628.222 367.384,628.222 373.74,628.222 380.097,628.222 386.453,628.222 392.809,628.222 
  399.166,628.222 405.522,628.222 411.878,628.222 418.235,628.222 424.591,628.222 430.947,628.222 437.304,628.222 443.66,628.222 450.016,628.222 456.373,628.222 
  462.729,628.222 469.085,628.222 475.442,628.222 481.798,628.222 488.154,628.222 494.511,628.222 500.867,628.222 507.223,628.222 513.58,628.222 519.936,628.222 
  526.292,628.222 532.649,628.222 539.005,628.222 545.361,628.222 551.718,628.222 558.074,628.222 564.431,628.222 570.787,628.222 577.143,628.222 583.5,628.222 
  589.856,628.222 596.212,628.222 602.569,628.222 608.925,628.222 615.281,628.222 621.638,628.222 627.994,628.222 634.35,628.222 640.707,628.222 647.063,628.222 
  653.419,628.222 659.776,628.222 666.132,628.222 672.488,628.222 678.845,628.222 685.201,628.222 691.557,628.222 697.914,628.222 704.27,628.222 710.626,628.222 
  716.983,628.222 723.339,628.222 729.695,628.222 736.052,628.222 742.408,628.222 748.764,628.222 755.121,628.222 761.477,628.222 767.833,628.222 774.19,628.222 
  780.546,628.222 786.902,628.222 793.259,628.222 799.615,628.222 805.972,628.222 812.328,628.222 818.684,628.222 825.041,628.222 831.397,628.222 837.753,628.222 
  844.11,628.222 850.466,628.222 856.822,628.222 863.179,628.222 869.535,628.222 875.891,628.222 882.248,628.222 888.604,628.222 894.96,628.222 901.317,628.222 
  907.673,628.222 914.029,628.222 920.386,628.222 926.742,628.222 933.098,628.222 939.455,628.222 945.811,628.222 952.167,628.222 958.524,628.222 964.88,628.222 
  971.236,628.222 977.593,628.222 983.949,628.222 990.305,628.222 996.662,628.222 1003.02,628.222 1009.37,628.222 1015.73,628.222 1022.09,628.222 1028.44,628.222 
  1034.8,628.222 1041.16,628.222 1047.51,628.222 1053.87,628.222 1060.23,628.222 1066.58,628.222 1072.94,628.222 1079.29,628.222 1085.65,628.222 1092.01,628.222 
  1098.36,628.222 1104.72,628.222 1111.08,628.222 1117.43,628.222 1123.79,628.222 1130.14,628.222 1136.5,628.222 1142.86,628.222 1149.21,628.222 1155.57,628.222 
  1161.93,628.222 1168.28,628.222 1174.64,628.222 1181,628.222 1187.35,628.222 1193.71,628.222 1200.06,628.222 1206.42,628.222 1212.78,628.222 1219.13,628.222 
  1225.49,628.222 1231.85,628.222 1238.2,628.222 1244.56,628.222 1250.92,628.222 1257.27,628.222 1263.63,628.222 1269.98,628.222 1276.34,628.222 1282.7,628.222 
  1289.05,628.222 1295.41,628.222 1301.77,628.222 1308.12,628.222 1314.48,628.222 1320.84,628.222 1327.19,628.222 1333.55,628.222 1339.9,628.222 1346.26,628.222 
  1352.62,628.222 1358.97,628.222 1365.33,628.222 1371.69,628.222 1378.04,628.222 1384.4,628.222 1390.75,628.222 1397.11,628.222 1403.47,628.222 1409.82,628.222 
  1416.18,628.222 1422.54,628.222 1428.89,628.222 1435.25,628.222 1441.61,628.222 1447.96,628.222 1454.32,628.222 1460.67,628.222 1467.03,628.222 1473.39,628.222 
  1479.74,628.222 1486.1,628.222 1492.46,628.222 1498.81,628.222 1505.17,628.222 1511.53,628.222 1517.88,628.222 1524.24,628.222 1530.59,628.222 1536.95,628.222 
  1543.31,628.222 1549.66,628.222 1556.02,628.222 1562.38,628.222 1568.73,628.222 1575.09,628.222 1581.45,628.222 1587.8,628.222 1594.16,628.222 1600.51,628.222 
  1606.87,628.222 1613.23,628.222 1619.58,628.222 1625.94,628.222 1632.3,628.222 1638.65,628.222 1645.01,628.222 1651.36,628.222 1657.72,628.222 1664.08,628.222 
  1670.43,628.222 1676.79,628.222 1683.15,628.222 1689.5,628.222 1695.86,628.222 1702.22,628.222 1708.57,628.222 1714.93,628.222 1721.28,628.222 1727.64,628.222 
  1734,628.222 1740.35,628.222 1746.71,628.222 1753.07,628.222 1759.42,628.222 1765.78,628.222 1772.14,628.222 1778.49,628.222 1784.85,628.222 1791.2,628.222 
  1797.56,628.222 1803.92,628.222 1810.27,628.222 1816.63,628.222 1822.99,628.222 1829.34,628.222 1835.7,628.222 1842.06,628.222 1848.41,628.222 1854.77,628.222 
  1861.12,628.222 1867.48,628.222 1873.84,628.222 1880.19,628.222 1886.55,628.222 1892.91,628.222 1899.26,628.222 1905.62,628.222 1911.97,628.222 1918.33,628.222 
  1924.69,628.222 1931.04,628.222 1937.4,628.222 1943.76,628.222 1950.11,628.222 1956.47,628.222 1962.83,628.222 1969.18,628.222 1975.54,628.222 1981.89,628.222 
  1988.25,628.222 1994.61,628.222 2000.96,628.222 2007.32,628.222 2013.68,628.222 2020.03,628.222 2026.39,628.222 2032.75,628.222 2039.1,628.222 2045.46,628.222 
  2051.81,628.222 2058.17,628.222 2064.53,628.222 2070.88,628.222 2077.24,628.222 2083.6,628.222 2089.95,628.222 2096.31,628.222 2102.67,628.222 2109.02,628.222 
  2115.38,628.222 2121.73,628.222 2128.09,628.222 2134.45,628.222 2140.8,628.222 2147.16,628.222 2153.52,628.222 2159.87,628.222 2166.23,628.222 2172.59,628.222 
  2178.94,628.222 2185.3,628.222 2191.65,628.222 2198.01,628.222 2204.37,628.222 2210.72,628.222 2217.08,628.222 2223.44,628.222 2229.79,628.222 2236.15,628.222 
  2242.5,628.222 2248.86,628.222 2255.22,628.222 2261.57,628.222 
  "/>
<polyline clip-path="url(#clip8803)" style="stroke:#300c43; stroke-width:60; stroke-opacity:1; fill:none" points="
  272.039,938.245 278.395,938.245 284.751,938.245 291.108,938.245 297.464,938.245 303.82,938.245 310.177,938.245 316.533,938.245 322.89,938.245 329.246,938.245 
  335.602,938.245 341.959,938.245 348.315,938.245 354.671,938.245 361.028,938.245 367.384,938.245 373.74,938.245 380.097,938.245 386.453,938.245 392.809,938.245 
  399.166,938.245 405.522,938.245 411.878,938.245 418.235,938.245 424.591,938.245 430.947,938.245 437.304,938.245 443.66,938.245 450.016,938.245 456.373,938.245 
  462.729,938.245 469.085,938.245 475.442,938.245 481.798,938.245 488.154,938.245 494.511,938.245 500.867,938.245 507.223,938.245 513.58,938.245 519.936,938.245 
  526.292,938.245 532.649,938.245 539.005,938.245 545.361,938.245 551.718,938.245 558.074,938.245 564.431,938.245 570.787,938.245 577.143,938.245 583.5,938.245 
  589.856,938.245 596.212,938.245 602.569,938.245 608.925,938.245 615.281,938.245 621.638,938.245 627.994,938.245 634.35,938.245 640.707,938.245 647.063,938.245 
  653.419,938.245 659.776,938.245 666.132,938.245 672.488,938.245 678.845,938.245 685.201,938.245 691.557,938.245 697.914,938.245 704.27,938.245 710.626,938.245 
  716.983,938.245 723.339,938.245 729.695,938.245 736.052,938.245 742.408,938.245 748.764,938.245 755.121,938.245 761.477,938.245 767.833,938.245 774.19,938.245 
  780.546,938.245 786.902,938.245 793.259,938.245 799.615,938.245 805.972,938.245 812.328,938.245 818.684,938.245 825.041,938.245 831.397,938.245 837.753,938.245 
  844.11,938.245 850.466,938.245 856.822,938.245 863.179,938.245 869.535,938.245 875.891,938.245 882.248,938.245 888.604,938.245 894.96,938.245 901.317,938.245 
  907.673,938.245 914.029,938.245 920.386,938.245 926.742,938.245 933.098,938.245 939.455,938.245 945.811,938.245 952.167,938.245 958.524,938.245 964.88,938.245 
  971.236,938.245 977.593,938.245 983.949,938.245 990.305,938.245 996.662,938.245 1003.02,938.245 1009.37,938.245 1015.73,938.245 1022.09,938.245 1028.44,938.245 
  1034.8,938.245 1041.16,938.245 1047.51,938.245 1053.87,938.245 1060.23,938.245 1066.58,938.245 1072.94,938.245 1079.29,938.245 1085.65,938.245 1092.01,938.245 
  1098.36,938.245 1104.72,938.245 1111.08,938.245 1117.43,938.245 1123.79,938.245 1130.14,938.245 1136.5,938.245 1142.86,938.245 1149.21,938.245 1155.57,938.245 
  1161.93,938.245 1168.28,938.245 1174.64,938.245 1181,938.245 1187.35,938.245 1193.71,938.245 1200.06,938.245 1206.42,938.245 1212.78,938.245 1219.13,938.245 
  1225.49,938.245 1231.85,938.245 1238.2,938.245 1244.56,938.245 1250.92,938.245 1257.27,938.245 1263.63,938.245 1269.98,938.245 1276.34,938.245 1282.7,938.245 
  1289.05,938.245 1295.41,938.245 1301.77,938.245 1308.12,938.245 1314.48,938.245 1320.84,938.245 1327.19,938.245 1333.55,938.245 1339.9,938.245 1346.26,938.245 
  1352.62,938.245 1358.97,938.245 1365.33,938.245 1371.69,938.245 1378.04,938.245 1384.4,938.245 1390.75,938.245 1397.11,938.245 1403.47,938.245 1409.82,938.245 
  1416.18,938.245 1422.54,938.245 1428.89,938.245 1435.25,938.245 1441.61,938.245 1447.96,938.245 1454.32,938.245 1460.67,938.245 1467.03,938.245 1473.39,938.245 
  1479.74,938.245 1486.1,938.245 1492.46,938.245 1498.81,938.245 1505.17,938.245 1511.53,938.245 1517.88,938.245 1524.24,938.245 1530.59,938.245 1536.95,938.245 
  1543.31,938.245 1549.66,938.245 1556.02,938.245 1562.38,938.245 1568.73,938.245 1575.09,938.245 1581.45,938.245 1587.8,938.245 1594.16,938.245 1600.51,938.245 
  1606.87,938.245 1613.23,938.245 1619.58,938.245 1625.94,938.245 1632.3,938.245 1638.65,938.245 1645.01,938.245 1651.36,938.245 1657.72,938.245 1664.08,938.245 
  1670.43,938.245 1676.79,938.245 1683.15,938.245 1689.5,938.245 1695.86,938.245 1702.22,938.245 1708.57,938.245 1714.93,938.245 1721.28,938.245 1727.64,938.245 
  1734,938.245 1740.35,938.245 1746.71,938.245 1753.07,938.245 1759.42,938.245 1765.78,938.245 1772.14,938.245 1778.49,938.245 1784.85,938.245 1791.2,938.245 
  1797.56,938.245 1803.92,938.245 1810.27,938.245 1816.63,938.245 1822.99,938.245 1829.34,938.245 1835.7,938.245 1842.06,938.245 1848.41,938.245 1854.77,938.245 
  1861.12,938.245 1867.48,938.245 1873.84,938.245 1880.19,938.245 1886.55,938.245 1892.91,938.245 1899.26,938.245 1905.62,938.245 1911.97,938.245 1918.33,938.245 
  1924.69,938.245 1931.04,938.245 1937.4,938.245 1943.76,938.245 1950.11,938.245 1956.47,938.245 1962.83,938.245 1969.18,938.245 1975.54,938.245 1981.89,938.245 
  1988.25,938.245 1994.61,938.245 2000.96,938.245 2007.32,938.245 2013.68,938.245 2020.03,938.245 2026.39,938.245 2032.75,938.245 2039.1,938.245 2045.46,938.245 
  2051.81,938.245 2058.17,938.245 2064.53,938.245 2070.88,938.245 2077.24,938.245 2083.6,938.245 2089.95,938.245 2096.31,938.245 2102.67,938.245 2109.02,938.245 
  2115.38,938.245 2121.73,938.245 2128.09,938.245 2134.45,938.245 2140.8,938.245 2147.16,938.245 2153.52,938.245 2159.87,938.245 2166.23,938.245 2172.59,938.245 
  2178.94,938.245 2185.3,938.245 2191.65,938.245 2198.01,938.245 2204.37,938.245 2210.72,938.245 2217.08,938.245 2223.44,938.245 2229.79,938.245 2236.15,938.245 
  2242.5,938.245 2248.86,938.245 2255.22,938.245 2261.57,938.245 
  "/>
<polyline clip-path="url(#clip8803)" style="stroke:#226764; stroke-width:20; stroke-opacity:1; fill:none" points="
  272.039,628.222 278.395,628.222 284.751,628.222 291.108,628.222 297.464,628.222 303.82,628.222 310.177,628.222 316.533,628.222 322.89,628.222 329.246,628.222 
  335.602,628.222 341.959,628.222 348.315,628.222 354.671,628.222 361.028,628.222 367.384,628.222 373.74,628.222 380.097,628.222 386.453,628.222 392.809,628.222 
  399.166,628.222 405.522,628.222 411.878,628.222 418.235,628.222 424.591,628.222 430.947,628.222 437.304,628.222 443.66,628.222 450.016,628.222 456.373,628.222 
  462.729,628.222 469.085,628.222 475.442,628.222 481.798,628.222 488.154,628.222 494.511,628.222 500.867,628.222 507.223,628.222 513.58,628.222 519.936,628.222 
  526.292,628.222 532.649,628.222 539.005,628.222 545.361,628.222 551.718,628.222 558.074,628.222 564.431,628.222 570.787,628.222 577.143,628.222 583.5,628.222 
  589.856,628.222 596.212,628.222 602.569,628.222 608.925,628.222 615.281,628.222 621.638,628.222 627.994,628.222 634.35,628.222 640.707,628.222 647.063,628.222 
  653.419,628.222 659.776,628.222 666.132,628.222 672.488,628.222 678.845,628.222 685.201,628.222 691.557,628.222 697.914,628.222 704.27,628.222 710.626,628.222 
  716.983,628.222 723.339,628.222 729.695,628.222 736.052,628.222 742.408,628.222 748.764,628.222 755.121,628.222 761.477,628.222 767.833,628.222 774.19,628.222 
  780.546,628.222 786.902,628.222 793.259,628.222 799.615,628.222 805.972,628.222 812.328,628.222 818.684,628.222 825.041,628.222 831.397,628.222 837.753,628.222 
  844.11,628.222 850.466,628.222 856.822,628.222 863.179,628.222 869.535,628.222 875.891,628.222 882.248,628.222 888.604,628.222 894.96,628.222 901.317,628.222 
  907.673,628.222 914.029,628.222 920.386,628.222 926.742,628.222 933.098,628.222 939.455,628.222 945.811,628.222 952.167,628.222 958.524,628.222 964.88,628.222 
  971.236,628.222 977.593,628.222 983.949,628.222 990.305,628.222 996.662,628.222 1003.02,628.222 1009.37,628.222 1015.73,628.222 1022.09,628.222 1028.44,628.222 
  1034.8,628.222 1041.16,628.222 1047.51,628.222 1053.87,628.222 1060.23,628.222 1066.58,628.222 1072.94,628.222 1079.29,628.222 1085.65,628.222 1092.01,628.222 
  1098.36,628.222 1104.72,628.222 1111.08,628.222 1117.43,628.222 1123.79,628.222 1130.14,628.222 1136.5,628.222 1142.86,628.222 1149.21,628.222 1155.57,628.222 
  1161.93,628.222 1168.28,628.222 1174.64,628.222 1181,628.222 1187.35,628.222 1193.71,628.222 1200.06,628.222 1206.42,628.222 1212.78,628.222 1219.13,628.222 
  1225.49,628.222 1231.85,628.222 1238.2,628.222 1244.56,628.222 1250.92,628.222 1257.27,628.222 1263.63,628.222 1269.98,628.222 1276.34,628.222 1282.7,628.222 
  1289.05,628.222 1295.41,628.222 1301.77,628.222 1308.12,628.222 1314.48,628.222 1320.84,628.222 1327.19,628.222 1333.55,628.222 1339.9,628.222 1346.26,628.222 
  1352.62,628.222 1358.97,628.222 1365.33,628.222 1371.69,628.222 1378.04,628.222 1384.4,628.222 1390.75,628.222 1397.11,628.222 1403.47,628.222 1409.82,628.222 
  1416.18,628.222 1422.54,628.222 1428.89,628.222 1435.25,628.222 1441.61,628.222 1447.96,628.222 1454.32,628.222 1460.67,628.222 1467.03,628.222 1473.39,628.222 
  1479.74,628.222 1486.1,628.222 1492.46,628.222 1498.81,628.222 1505.17,628.222 1511.53,628.222 1517.88,628.222 1524.24,628.222 1530.59,628.222 1536.95,628.222 
  1543.31,628.222 1549.66,628.222 1556.02,628.222 1562.38,628.222 1568.73,628.222 1575.09,628.222 1581.45,628.222 1587.8,628.222 1594.16,628.222 1600.51,628.222 
  1606.87,628.222 1613.23,628.222 1619.58,628.222 1625.94,628.222 1632.3,628.222 1638.65,628.222 1645.01,628.222 1651.36,628.222 1657.72,628.222 1664.08,628.222 
  1670.43,628.222 1676.79,628.222 1683.15,628.222 1689.5,628.222 1695.86,628.222 1702.22,628.222 1708.57,628.222 1714.93,628.222 1721.28,628.222 1727.64,628.222 
  1734,628.222 1740.35,628.222 1746.71,628.222 1753.07,628.222 1759.42,628.222 1765.78,628.222 1772.14,628.222 1778.49,628.222 1784.85,628.222 1791.2,628.222 
  1797.56,628.222 1803.92,628.222 1810.27,628.222 1816.63,628.222 1822.99,628.222 1829.34,628.222 1835.7,628.222 1842.06,628.222 1848.41,628.222 1854.77,628.222 
  1861.12,628.222 1867.48,628.222 1873.84,628.222 1880.19,628.222 1886.55,628.222 1892.91,628.222 1899.26,628.222 1905.62,628.222 1911.97,628.222 1918.33,628.222 
  1924.69,628.222 1931.04,628.222 1937.4,628.222 1943.76,628.222 1950.11,628.222 1956.47,628.222 1962.83,628.222 1969.18,628.222 1975.54,628.222 1981.89,628.222 
  1988.25,628.222 1994.61,628.222 2000.96,628.222 2007.32,628.222 2013.68,628.222 2020.03,628.222 2026.39,628.222 2032.75,628.222 2039.1,628.222 2045.46,628.222 
  2051.81,628.222 2058.17,628.222 2064.53,628.222 2070.88,628.222 2077.24,628.222 2083.6,628.222 2089.95,628.222 2096.31,628.222 2102.67,628.222 2109.02,628.222 
  2115.38,628.222 2121.73,628.222 2128.09,628.222 2134.45,628.222 2140.8,628.222 2147.16,628.222 2153.52,628.222 2159.87,628.222 2166.23,628.222 2172.59,628.222 
  2178.94,628.222 2185.3,628.222 2191.65,628.222 2198.01,628.222 2204.37,628.222 2210.72,628.222 2217.08,628.222 2223.44,628.222 2229.79,628.222 2236.15,628.222 
  2242.5,628.222 2248.86,628.222 2255.22,628.222 2261.57,628.222 
  "/>
<polyline clip-path="url(#clip8803)" style="stroke:#226764; stroke-width:20; stroke-opacity:1; fill:none" points="
  272.039,938.245 278.395,938.245 284.751,938.245 291.108,938.245 297.464,938.245 303.82,938.245 310.177,938.245 316.533,938.245 322.89,938.245 329.246,938.245 
  335.602,938.245 341.959,938.245 348.315,938.245 354.671,938.245 361.028,938.245 367.384,938.245 373.74,938.245 380.097,938.245 386.453,938.245 392.809,938.245 
  399.166,938.245 405.522,938.245 411.878,938.245 418.235,938.245 424.591,938.245 430.947,938.245 437.304,938.245 443.66,938.245 450.016,938.245 456.373,938.245 
  462.729,938.245 469.085,938.245 475.442,938.245 481.798,938.245 488.154,938.245 494.511,938.245 500.867,938.245 507.223,938.245 513.58,938.245 519.936,938.245 
  526.292,938.245 532.649,938.245 539.005,938.245 545.361,938.245 551.718,938.245 558.074,938.245 564.431,938.245 570.787,938.245 577.143,938.245 583.5,938.245 
  589.856,938.245 596.212,938.245 602.569,938.245 608.925,938.245 615.281,938.245 621.638,938.245 627.994,938.245 634.35,938.245 640.707,938.245 647.063,938.245 
  653.419,938.245 659.776,938.245 666.132,938.245 672.488,938.245 678.845,938.245 685.201,938.245 691.557,938.245 697.914,938.245 704.27,938.245 710.626,938.245 
  716.983,938.245 723.339,938.245 729.695,938.245 736.052,938.245 742.408,938.245 748.764,938.245 755.121,938.245 761.477,938.245 767.833,938.245 774.19,938.245 
  780.546,938.245 786.902,938.245 793.259,938.245 799.615,938.245 805.972,938.245 812.328,938.245 818.684,938.245 825.041,938.245 831.397,938.245 837.753,938.245 
  844.11,938.245 850.466,938.245 856.822,938.245 863.179,938.245 869.535,938.245 875.891,938.245 882.248,938.245 888.604,938.245 894.96,938.245 901.317,938.245 
  907.673,938.245 914.029,938.245 920.386,938.245 926.742,938.245 933.098,938.245 939.455,938.245 945.811,938.245 952.167,938.245 958.524,938.245 964.88,938.245 
  971.236,938.245 977.593,938.245 983.949,938.245 990.305,938.245 996.662,938.245 1003.02,938.245 1009.37,938.245 1015.73,938.245 1022.09,938.245 1028.44,938.245 
  1034.8,938.245 1041.16,938.245 1047.51,938.245 1053.87,938.245 1060.23,938.245 1066.58,938.245 1072.94,938.245 1079.29,938.245 1085.65,938.245 1092.01,938.245 
  1098.36,938.245 1104.72,938.245 1111.08,938.245 1117.43,938.245 1123.79,938.245 1130.14,938.245 1136.5,938.245 1142.86,938.245 1149.21,938.245 1155.57,938.245 
  1161.93,938.245 1168.28,938.245 1174.64,938.245 1181,938.245 1187.35,938.245 1193.71,938.245 1200.06,938.245 1206.42,938.245 1212.78,938.245 1219.13,938.245 
  1225.49,938.245 1231.85,938.245 1238.2,938.245 1244.56,938.245 1250.92,938.245 1257.27,938.245 1263.63,938.245 1269.98,938.245 1276.34,938.245 1282.7,938.245 
  1289.05,938.245 1295.41,938.245 1301.77,938.245 1308.12,938.245 1314.48,938.245 1320.84,938.245 1327.19,938.245 1333.55,938.245 1339.9,938.245 1346.26,938.245 
  1352.62,938.245 1358.97,938.245 1365.33,938.245 1371.69,938.245 1378.04,938.245 1384.4,938.245 1390.75,938.245 1397.11,938.245 1403.47,938.245 1409.82,938.245 
  1416.18,938.245 1422.54,938.245 1428.89,938.245 1435.25,938.245 1441.61,938.245 1447.96,938.245 1454.32,938.245 1460.67,938.245 1467.03,938.245 1473.39,938.245 
  1479.74,938.245 1486.1,938.245 1492.46,938.245 1498.81,938.245 1505.17,938.245 1511.53,938.245 1517.88,938.245 1524.24,938.245 1530.59,938.245 1536.95,938.245 
  1543.31,938.245 1549.66,938.245 1556.02,938.245 1562.38,938.245 1568.73,938.245 1575.09,938.245 1581.45,938.245 1587.8,938.245 1594.16,938.245 1600.51,938.245 
  1606.87,938.245 1613.23,938.245 1619.58,938.245 1625.94,938.245 1632.3,938.245 1638.65,938.245 1645.01,938.245 1651.36,938.245 1657.72,938.245 1664.08,938.245 
  1670.43,938.245 1676.79,938.245 1683.15,938.245 1689.5,938.245 1695.86,938.245 1702.22,938.245 1708.57,938.245 1714.93,938.245 1721.28,938.245 1727.64,938.245 
  1734,938.245 1740.35,938.245 1746.71,938.245 1753.07,938.245 1759.42,938.245 1765.78,938.245 1772.14,938.245 1778.49,938.245 1784.85,938.245 1791.2,938.245 
  1797.56,938.245 1803.92,938.245 1810.27,938.245 1816.63,938.245 1822.99,938.245 1829.34,938.245 1835.7,938.245 1842.06,938.245 1848.41,938.245 1854.77,938.245 
  1861.12,938.245 1867.48,938.245 1873.84,938.245 1880.19,938.245 1886.55,938.245 1892.91,938.245 1899.26,938.245 1905.62,938.245 1911.97,938.245 1918.33,938.245 
  1924.69,938.245 1931.04,938.245 1937.4,938.245 1943.76,938.245 1950.11,938.245 1956.47,938.245 1962.83,938.245 1969.18,938.245 1975.54,938.245 1981.89,938.245 
  1988.25,938.245 1994.61,938.245 2000.96,938.245 2007.32,938.245 2013.68,938.245 2020.03,938.245 2026.39,938.245 2032.75,938.245 2039.1,938.245 2045.46,938.245 
  2051.81,938.245 2058.17,938.245 2064.53,938.245 2070.88,938.245 2077.24,938.245 2083.6,938.245 2089.95,938.245 2096.31,938.245 2102.67,938.245 2109.02,938.245 
  2115.38,938.245 2121.73,938.245 2128.09,938.245 2134.45,938.245 2140.8,938.245 2147.16,938.245 2153.52,938.245 2159.87,938.245 2166.23,938.245 2172.59,938.245 
  2178.94,938.245 2185.3,938.245 2191.65,938.245 2198.01,938.245 2204.37,938.245 2210.72,938.245 2217.08,938.245 2223.44,938.245 2229.79,938.245 2236.15,938.245 
  2242.5,938.245 2248.86,938.245 2255.22,938.245 2261.57,938.245 
  "/>
<polyline clip-path="url(#clip8803)" style="stroke:#cca7df; stroke-width:40; stroke-opacity:1; fill:none" stroke-dasharray="20, 40" points="
  272.039,473.21 278.395,473.225 284.751,473.27 291.108,473.345 297.464,473.45 303.82,473.585 310.177,473.75 316.533,473.944 322.89,474.169 329.246,474.424 
  335.602,474.708 341.959,475.022 348.315,475.366 354.671,475.74 361.028,476.143 367.384,476.576 373.74,477.039 380.097,477.531 386.453,478.053 392.809,478.604 
  399.166,479.184 405.522,479.794 411.878,480.433 418.235,481.101 424.591,481.799 430.947,482.525 437.304,483.28 443.66,484.064 450.016,484.877 456.373,485.718 
  462.729,486.588 469.085,487.487 475.442,488.414 481.798,489.369 488.154,490.352 494.511,491.363 500.867,492.402 507.223,493.469 513.58,494.564 519.936,495.686 
  526.292,496.835 532.649,498.012 539.005,499.216 545.361,500.447 551.718,501.705 558.074,502.989 564.431,504.3 570.787,505.638 577.143,507.001 583.5,508.391 
  589.856,509.806 596.212,511.248 602.569,512.715 608.925,514.207 615.281,515.724 621.638,517.266 627.994,518.834 634.35,520.426 640.707,522.042 647.063,523.682 
  653.419,525.347 659.776,527.035 666.132,528.747 672.488,530.482 678.845,532.241 685.201,534.022 691.557,535.826 697.914,537.653 704.27,539.501 710.626,541.372 
  716.983,543.265 723.339,545.179 729.695,547.114 736.052,549.07 742.408,551.047 748.764,553.044 755.121,555.061 761.477,557.099 767.833,559.155 774.19,561.231 
  780.546,563.326 786.902,565.44 793.259,567.572 799.615,569.722 805.972,571.89 812.328,574.075 818.684,576.277 825.041,578.496 831.397,580.731 837.753,582.982 
  844.11,585.248 850.466,587.53 856.822,589.826 863.179,592.137 869.535,594.461 875.891,596.799 882.248,599.15 888.604,601.514 894.96,603.89 901.317,606.277 
  907.673,608.676 914.029,611.085 920.386,613.504 926.742,615.933 933.098,618.37 939.455,620.816 945.811,623.27 952.167,625.73 958.524,628.197 964.88,630.669 
  971.236,633.147 977.593,635.628 983.949,638.113 990.305,640.6 996.662,643.089 1003.02,645.578 1009.37,648.067 1015.73,650.555 1022.09,653.039 1028.44,655.521 
  1034.8,657.997 1041.16,660.466 1047.51,662.928 1053.87,665.381 1060.23,667.823 1066.58,670.252 1072.94,672.667 1079.29,675.066 1085.65,677.445 1092.01,679.804 
  1098.36,682.14 1104.72,684.45 1111.08,686.732 1117.43,688.981 1123.79,691.196 1130.14,693.372 1136.5,695.506 1142.86,697.593 1149.21,699.63 1155.57,701.611 
  1161.93,703.533 1168.28,705.388 1174.64,707.173 1181,708.881 1187.35,710.505 1193.71,712.04 1200.06,713.479 1206.42,714.816 1212.78,716.043 1219.13,717.154 
  1225.49,718.143 1231.85,719.004 1238.2,719.73 1244.56,720.318 1250.92,720.762 1257.27,721.06 1263.63,721.21 1269.98,721.21 1276.34,721.06 1282.7,720.762 
  1289.05,720.318 1295.41,719.73 1301.77,719.004 1308.12,718.143 1314.48,717.154 1320.84,716.043 1327.19,714.816 1333.55,713.479 1339.9,712.04 1346.26,710.505 
  1352.62,708.881 1358.97,707.173 1365.33,705.388 1371.69,703.533 1378.04,701.611 1384.4,699.63 1390.75,697.593 1397.11,695.506 1403.47,693.372 1409.82,691.196 
  1416.18,688.981 1422.54,686.732 1428.89,684.45 1435.25,682.14 1441.61,679.804 1447.96,677.445 1454.32,675.066 1460.67,672.667 1467.03,670.252 1473.39,667.823 
  1479.74,665.381 1486.1,662.928 1492.46,660.466 1498.81,657.997 1505.17,655.521 1511.53,653.039 1517.88,650.555 1524.24,648.067 1530.59,645.578 1536.95,643.089 
  1543.31,640.6 1549.66,638.113 1556.02,635.628 1562.38,633.147 1568.73,630.669 1575.09,628.197 1581.45,625.73 1587.8,623.27 1594.16,620.816 1600.51,618.37 
  1606.87,615.933 1613.23,613.504 1619.58,611.085 1625.94,608.676 1632.3,606.277 1638.65,603.89 1645.01,601.514 1651.36,599.15 1657.72,596.799 1664.08,594.461 
  1670.43,592.137 1676.79,589.826 1683.15,587.53 1689.5,585.248 1695.86,582.982 1702.22,580.731 1708.57,578.496 1714.93,576.277 1721.28,574.075 1727.64,571.89 
  1734,569.722 1740.35,567.572 1746.71,565.44 1753.07,563.326 1759.42,561.231 1765.78,559.155 1772.14,557.099 1778.49,555.061 1784.85,553.044 1791.2,551.047 
  1797.56,549.07 1803.92,547.114 1810.27,545.179 1816.63,543.265 1822.99,541.372 1829.34,539.501 1835.7,537.653 1842.06,535.826 1848.41,534.022 1854.77,532.241 
  1861.12,530.482 1867.48,528.747 1873.84,527.035 1880.19,525.347 1886.55,523.682 1892.91,522.042 1899.26,520.426 1905.62,518.834 1911.97,517.266 1918.33,515.724 
  1924.69,514.207 1931.04,512.715 1937.4,511.248 1943.76,509.806 1950.11,508.391 1956.47,507.001 1962.83,505.638 1969.18,504.3 1975.54,502.989 1981.89,501.705 
  1988.25,500.447 1994.61,499.216 2000.96,498.012 2007.32,496.835 2013.68,495.686 2020.03,494.564 2026.39,493.469 2032.75,492.402 2039.1,491.363 2045.46,490.352 
  2051.81,489.369 2058.17,488.414 2064.53,487.487 2070.88,486.588 2077.24,485.718 2083.6,484.877 2089.95,484.064 2096.31,483.28 2102.67,482.525 2109.02,481.799 
  2115.38,481.101 2121.73,480.433 2128.09,479.794 2134.45,479.184 2140.8,478.604 2147.16,478.053 2153.52,477.531 2159.87,477.039 2166.23,476.576 2172.59,476.143 
  2178.94,475.74 2185.3,475.366 2191.65,475.022 2198.01,474.708 2204.37,474.424 2210.72,474.169 2217.08,473.944 2223.44,473.75 2229.79,473.585 2236.15,473.45 
  2242.5,473.345 2248.86,473.27 2255.22,473.225 2261.57,473.21 
  "/>
<polyline clip-path="url(#clip8803)" style="stroke:#cca7df; stroke-width:40; stroke-opacity:1; fill:none" stroke-dasharray="20, 40" points="
  272.039,1093.26 278.395,1093.24 284.751,1093.2 291.108,1093.12 297.464,1093.02 303.82,1092.88 310.177,1092.72 316.533,1092.52 322.89,1092.3 329.246,1092.04 
  335.602,1091.76 341.959,1091.44 348.315,1091.1 354.671,1090.73 361.028,1090.32 367.384,1089.89 373.74,1089.43 380.097,1088.94 386.453,1088.41 392.809,1087.86 
  399.166,1087.28 405.522,1086.67 411.878,1086.03 418.235,1085.37 424.591,1084.67 430.947,1083.94 437.304,1083.19 443.66,1082.4 450.016,1081.59 456.373,1080.75 
  462.729,1079.88 469.085,1078.98 475.442,1078.05 481.798,1077.1 488.154,1076.11 494.511,1075.1 500.867,1074.06 507.223,1073 513.58,1071.9 519.936,1070.78 
  526.292,1069.63 532.649,1068.45 539.005,1067.25 545.361,1066.02 551.718,1064.76 558.074,1063.48 564.431,1062.17 570.787,1060.83 577.143,1059.47 583.5,1058.08 
  589.856,1056.66 596.212,1055.22 602.569,1053.75 608.925,1052.26 615.281,1050.74 621.638,1049.2 627.994,1047.63 634.35,1046.04 640.707,1044.43 647.063,1042.78 
  653.419,1041.12 659.776,1039.43 666.132,1037.72 672.488,1035.98 678.845,1034.23 685.201,1032.44 691.557,1030.64 697.914,1028.81 704.27,1026.97 710.626,1025.09 
  716.983,1023.2 723.339,1021.29 729.695,1019.35 736.052,1017.4 742.408,1015.42 748.764,1013.42 755.121,1011.41 761.477,1009.37 767.833,1007.31 774.19,1005.24 
  780.546,1003.14 786.902,1001.03 793.259,998.895 799.615,996.745 805.972,994.577 812.328,992.392 818.684,990.19 825.041,987.971 831.397,985.736 837.753,983.485 
  844.11,981.219 850.466,978.937 856.822,976.641 863.179,974.33 869.535,972.006 875.891,969.668 882.248,967.316 888.604,964.953 894.96,962.577 901.317,960.19 
  907.673,957.791 914.029,955.382 920.386,952.963 926.742,950.534 933.098,948.097 939.455,945.651 945.811,943.197 952.167,940.737 958.524,938.27 964.88,935.797 
  971.236,933.32 977.593,930.839 983.949,928.354 990.305,925.867 996.662,923.378 1003.02,920.889 1009.37,918.4 1015.73,915.912 1022.09,913.427 1028.44,910.946 
  1034.8,908.47 1041.16,906 1047.51,903.538 1053.87,901.086 1060.23,898.644 1066.58,896.215 1072.94,893.8 1079.29,891.401 1085.65,889.021 1092.01,886.662 
  1098.36,884.327 1104.72,882.017 1111.08,879.735 1117.43,877.486 1123.79,875.271 1130.14,873.095 1136.5,870.961 1142.86,868.874 1149.21,866.837 1155.57,864.855 
  1161.93,862.934 1168.28,861.078 1174.64,859.294 1181,857.586 1187.35,855.962 1193.71,854.426 1200.06,852.987 1206.42,851.651 1212.78,850.424 1219.13,849.313 
  1225.49,848.324 1231.85,847.463 1238.2,846.737 1244.56,846.149 1250.92,845.705 1257.27,845.406 1263.63,845.257 1269.98,845.257 1276.34,845.406 1282.7,845.705 
  1289.05,846.149 1295.41,846.737 1301.77,847.463 1308.12,848.324 1314.48,849.313 1320.84,850.424 1327.19,851.651 1333.55,852.987 1339.9,854.426 1346.26,855.962 
  1352.62,857.586 1358.97,859.294 1365.33,861.078 1371.69,862.934 1378.04,864.855 1384.4,866.837 1390.75,868.874 1397.11,870.961 1403.47,873.095 1409.82,875.271 
  1416.18,877.486 1422.54,879.735 1428.89,882.017 1435.25,884.327 1441.61,886.662 1447.96,889.021 1454.32,891.401 1460.67,893.8 1467.03,896.215 1473.39,898.644 
  1479.74,901.086 1486.1,903.538 1492.46,906 1498.81,908.47 1505.17,910.946 1511.53,913.427 1517.88,915.912 1524.24,918.4 1530.59,920.889 1536.95,923.378 
  1543.31,925.867 1549.66,928.354 1556.02,930.839 1562.38,933.32 1568.73,935.797 1575.09,938.27 1581.45,940.737 1587.8,943.197 1594.16,945.651 1600.51,948.097 
  1606.87,950.534 1613.23,952.963 1619.58,955.382 1625.94,957.791 1632.3,960.19 1638.65,962.577 1645.01,964.953 1651.36,967.316 1657.72,969.668 1664.08,972.006 
  1670.43,974.33 1676.79,976.641 1683.15,978.937 1689.5,981.219 1695.86,983.485 1702.22,985.736 1708.57,987.971 1714.93,990.19 1721.28,992.392 1727.64,994.577 
  1734,996.745 1740.35,998.895 1746.71,1001.03 1753.07,1003.14 1759.42,1005.24 1765.78,1007.31 1772.14,1009.37 1778.49,1011.41 1784.85,1013.42 1791.2,1015.42 
  1797.56,1017.4 1803.92,1019.35 1810.27,1021.29 1816.63,1023.2 1822.99,1025.09 1829.34,1026.97 1835.7,1028.81 1842.06,1030.64 1848.41,1032.44 1854.77,1034.23 
  1861.12,1035.98 1867.48,1037.72 1873.84,1039.43 1880.19,1041.12 1886.55,1042.78 1892.91,1044.43 1899.26,1046.04 1905.62,1047.63 1911.97,1049.2 1918.33,1050.74 
  1924.69,1052.26 1931.04,1053.75 1937.4,1055.22 1943.76,1056.66 1950.11,1058.08 1956.47,1059.47 1962.83,1060.83 1969.18,1062.17 1975.54,1063.48 1981.89,1064.76 
  1988.25,1066.02 1994.61,1067.25 2000.96,1068.45 2007.32,1069.63 2013.68,1070.78 2020.03,1071.9 2026.39,1073 2032.75,1074.06 2039.1,1075.1 2045.46,1076.11 
  2051.81,1077.1 2058.17,1078.05 2064.53,1078.98 2070.88,1079.88 2077.24,1080.75 2083.6,1081.59 2089.95,1082.4 2096.31,1083.19 2102.67,1083.94 2109.02,1084.67 
  2115.38,1085.37 2121.73,1086.03 2128.09,1086.67 2134.45,1087.28 2140.8,1087.86 2147.16,1088.41 2153.52,1088.94 2159.87,1089.43 2166.23,1089.89 2172.59,1090.32 
  2178.94,1090.73 2185.3,1091.1 2191.65,1091.44 2198.01,1091.76 2204.37,1092.04 2210.72,1092.3 2217.08,1092.52 2223.44,1092.72 2229.79,1092.88 2236.15,1093.02 
  2242.5,1093.12 2248.86,1093.2 2255.22,1093.24 2261.57,1093.26 
  "/>
<polyline clip-path="url(#clip8803)" style="stroke:#a0d9d7; stroke-width:12; stroke-opacity:1; fill:none" stroke-dasharray="6, 12" points="
  272.039,473.21 278.395,473.225 284.751,473.27 291.108,473.345 297.464,473.45 303.82,473.585 310.177,473.75 316.533,473.944 322.89,474.169 329.246,474.424 
  335.602,474.708 341.959,475.022 348.315,475.366 354.671,475.74 361.028,476.143 367.384,476.576 373.74,477.039 380.097,477.531 386.453,478.053 392.809,478.604 
  399.166,479.184 405.522,479.794 411.878,480.433 418.235,481.101 424.591,481.799 430.947,482.525 437.304,483.28 443.66,484.064 450.016,484.877 456.373,485.718 
  462.729,486.588 469.085,487.487 475.442,488.414 481.798,489.369 488.154,490.352 494.511,491.363 500.867,492.402 507.223,493.469 513.58,494.564 519.936,495.686 
  526.292,496.835 532.649,498.012 539.005,499.216 545.361,500.447 551.718,501.705 558.074,502.989 564.431,504.3 570.787,505.638 577.143,507.001 583.5,508.391 
  589.856,509.806 596.212,511.248 602.569,512.715 608.925,514.207 615.281,515.724 621.638,517.266 627.994,518.834 634.35,520.426 640.707,522.042 647.063,523.682 
  653.419,525.347 659.776,527.035 666.132,528.747 672.488,530.482 678.845,532.241 685.201,534.022 691.557,535.826 697.914,537.653 704.27,539.501 710.626,541.372 
  716.983,543.265 723.339,545.179 729.695,547.114 736.052,549.07 742.408,551.047 748.764,553.044 755.121,555.061 761.477,557.099 767.833,559.155 774.19,561.231 
  780.546,563.326 786.902,565.44 793.259,567.572 799.615,569.722 805.972,571.89 812.328,574.075 818.684,576.277 825.041,578.496 831.397,580.731 837.753,582.982 
  844.11,585.248 850.466,587.53 856.822,589.826 863.179,592.137 869.535,594.461 875.891,596.799 882.248,599.15 888.604,601.514 894.96,603.89 901.317,606.277 
  907.673,608.676 914.029,611.085 920.386,613.504 926.742,615.933 933.098,618.37 939.455,620.816 945.811,623.27 952.167,625.73 958.524,628.197 964.88,630.669 
  971.236,633.147 977.593,635.628 983.949,638.113 990.305,640.6 996.662,643.089 1003.02,645.578 1009.37,648.067 1015.73,650.555 1022.09,653.039 1028.44,655.521 
  1034.8,657.997 1041.16,660.466 1047.51,662.928 1053.87,665.381 1060.23,667.823 1066.58,670.252 1072.94,672.667 1079.29,675.066 1085.65,677.445 1092.01,679.804 
  1098.36,682.14 1104.72,684.45 1111.08,686.732 1117.43,688.981 1123.79,691.196 1130.14,693.372 1136.5,695.506 1142.86,697.593 1149.21,699.63 1155.57,701.611 
  1161.93,703.533 1168.28,705.388 1174.64,707.173 1181,708.881 1187.35,710.505 1193.71,712.04 1200.06,713.479 1206.42,714.816 1212.78,716.043 1219.13,717.154 
  1225.49,718.143 1231.85,719.004 1238.2,719.73 1244.56,720.318 1250.92,720.762 1257.27,721.06 1263.63,721.21 1269.98,721.21 1276.34,721.06 1282.7,720.762 
  1289.05,720.318 1295.41,719.73 1301.77,719.004 1308.12,718.143 1314.48,717.154 1320.84,716.043 1327.19,714.816 1333.55,713.479 1339.9,712.04 1346.26,710.505 
  1352.62,708.881 1358.97,707.173 1365.33,705.388 1371.69,703.533 1378.04,701.611 1384.4,699.63 1390.75,697.593 1397.11,695.506 1403.47,693.372 1409.82,691.196 
  1416.18,688.981 1422.54,686.732 1428.89,684.45 1435.25,682.14 1441.61,679.804 1447.96,677.445 1454.32,675.066 1460.67,672.667 1467.03,670.252 1473.39,667.823 
  1479.74,665.381 1486.1,662.928 1492.46,660.466 1498.81,657.997 1505.17,655.521 1511.53,653.039 1517.88,650.555 1524.24,648.067 1530.59,645.578 1536.95,643.089 
  1543.31,640.6 1549.66,638.113 1556.02,635.628 1562.38,633.147 1568.73,630.669 1575.09,628.197 1581.45,625.73 1587.8,623.27 1594.16,620.816 1600.51,618.37 
  1606.87,615.933 1613.23,613.504 1619.58,611.085 1625.94,608.676 1632.3,606.277 1638.65,603.89 1645.01,601.514 1651.36,599.15 1657.72,596.799 1664.08,594.461 
  1670.43,592.137 1676.79,589.826 1683.15,587.53 1689.5,585.248 1695.86,582.982 1702.22,580.731 1708.57,578.496 1714.93,576.277 1721.28,574.075 1727.64,571.89 
  1734,569.722 1740.35,567.572 1746.71,565.44 1753.07,563.326 1759.42,561.231 1765.78,559.155 1772.14,557.099 1778.49,555.061 1784.85,553.044 1791.2,551.047 
  1797.56,549.07 1803.92,547.114 1810.27,545.179 1816.63,543.265 1822.99,541.372 1829.34,539.501 1835.7,537.653 1842.06,535.826 1848.41,534.022 1854.77,532.241 
  1861.12,530.482 1867.48,528.747 1873.84,527.035 1880.19,525.347 1886.55,523.682 1892.91,522.042 1899.26,520.426 1905.62,518.834 1911.97,517.266 1918.33,515.724 
  1924.69,514.207 1931.04,512.715 1937.4,511.248 1943.76,509.806 1950.11,508.391 1956.47,507.001 1962.83,505.638 1969.18,504.3 1975.54,502.989 1981.89,501.705 
  1988.25,500.447 1994.61,499.216 2000.96,498.012 2007.32,496.835 2013.68,495.686 2020.03,494.564 2026.39,493.469 2032.75,492.402 2039.1,491.363 2045.46,490.352 
  2051.81,489.369 2058.17,488.414 2064.53,487.487 2070.88,486.588 2077.24,485.718 2083.6,484.877 2089.95,484.064 2096.31,483.28 2102.67,482.525 2109.02,481.799 
  2115.38,481.101 2121.73,480.433 2128.09,479.794 2134.45,479.184 2140.8,478.604 2147.16,478.053 2153.52,477.531 2159.87,477.039 2166.23,476.576 2172.59,476.143 
  2178.94,475.74 2185.3,475.366 2191.65,475.022 2198.01,474.708 2204.37,474.424 2210.72,474.169 2217.08,473.944 2223.44,473.75 2229.79,473.585 2236.15,473.45 
  2242.5,473.345 2248.86,473.27 2255.22,473.225 2261.57,473.21 
  "/>
<polyline clip-path="url(#clip8803)" style="stroke:#a0d9d7; stroke-width:12; stroke-opacity:1; fill:none" stroke-dasharray="6, 12" points="
  272.039,1093.26 278.395,1093.24 284.751,1093.2 291.108,1093.12 297.464,1093.02 303.82,1092.88 310.177,1092.72 316.533,1092.52 322.89,1092.3 329.246,1092.04 
  335.602,1091.76 341.959,1091.44 348.315,1091.1 354.671,1090.73 361.028,1090.32 367.384,1089.89 373.74,1089.43 380.097,1088.94 386.453,1088.41 392.809,1087.86 
  399.166,1087.28 405.522,1086.67 411.878,1086.03 418.235,1085.37 424.591,1084.67 430.947,1083.94 437.304,1083.19 443.66,1082.4 450.016,1081.59 456.373,1080.75 
  462.729,1079.88 469.085,1078.98 475.442,1078.05 481.798,1077.1 488.154,1076.11 494.511,1075.1 500.867,1074.06 507.223,1073 513.58,1071.9 519.936,1070.78 
  526.292,1069.63 532.649,1068.45 539.005,1067.25 545.361,1066.02 551.718,1064.76 558.074,1063.48 564.431,1062.17 570.787,1060.83 577.143,1059.47 583.5,1058.08 
  589.856,1056.66 596.212,1055.22 602.569,1053.75 608.925,1052.26 615.281,1050.74 621.638,1049.2 627.994,1047.63 634.35,1046.04 640.707,1044.43 647.063,1042.78 
  653.419,1041.12 659.776,1039.43 666.132,1037.72 672.488,1035.98 678.845,1034.23 685.201,1032.44 691.557,1030.64 697.914,1028.81 704.27,1026.97 710.626,1025.09 
  716.983,1023.2 723.339,1021.29 729.695,1019.35 736.052,1017.4 742.408,1015.42 748.764,1013.42 755.121,1011.41 761.477,1009.37 767.833,1007.31 774.19,1005.24 
  780.546,1003.14 786.902,1001.03 793.259,998.895 799.615,996.745 805.972,994.577 812.328,992.392 818.684,990.19 825.041,987.971 831.397,985.736 837.753,983.485 
  844.11,981.219 850.466,978.937 856.822,976.641 863.179,974.33 869.535,972.006 875.891,969.668 882.248,967.316 888.604,964.953 894.96,962.577 901.317,960.19 
  907.673,957.791 914.029,955.382 920.386,952.963 926.742,950.534 933.098,948.097 939.455,945.651 945.811,943.197 952.167,940.737 958.524,938.27 964.88,935.797 
  971.236,933.32 977.593,930.839 983.949,928.354 990.305,925.867 996.662,923.378 1003.02,920.889 1009.37,918.4 1015.73,915.912 1022.09,913.427 1028.44,910.946 
  1034.8,908.47 1041.16,906 1047.51,903.538 1053.87,901.086 1060.23,898.644 1066.58,896.215 1072.94,893.8 1079.29,891.401 1085.65,889.021 1092.01,886.662 
  1098.36,884.327 1104.72,882.017 1111.08,879.735 1117.43,877.486 1123.79,875.271 1130.14,873.095 1136.5,870.961 1142.86,868.874 1149.21,866.837 1155.57,864.855 
  1161.93,862.934 1168.28,861.078 1174.64,859.294 1181,857.586 1187.35,855.962 1193.71,854.426 1200.06,852.987 1206.42,851.651 1212.78,850.424 1219.13,849.313 
  1225.49,848.324 1231.85,847.463 1238.2,846.737 1244.56,846.149 1250.92,845.705 1257.27,845.406 1263.63,845.257 1269.98,845.257 1276.34,845.406 1282.7,845.705 
  1289.05,846.149 1295.41,846.737 1301.77,847.463 1308.12,848.324 1314.48,849.313 1320.84,850.424 1327.19,851.651 1333.55,852.987 1339.9,854.426 1346.26,855.962 
  1352.62,857.586 1358.97,859.294 1365.33,861.078 1371.69,862.934 1378.04,864.855 1384.4,866.837 1390.75,868.874 1397.11,870.961 1403.47,873.095 1409.82,875.271 
  1416.18,877.486 1422.54,879.735 1428.89,882.017 1435.25,884.327 1441.61,886.662 1447.96,889.021 1454.32,891.401 1460.67,893.8 1467.03,896.215 1473.39,898.644 
  1479.74,901.086 1486.1,903.538 1492.46,906 1498.81,908.47 1505.17,910.946 1511.53,913.427 1517.88,915.912 1524.24,918.4 1530.59,920.889 1536.95,923.378 
  1543.31,925.867 1549.66,928.354 1556.02,930.839 1562.38,933.32 1568.73,935.797 1575.09,938.27 1581.45,940.737 1587.8,943.197 1594.16,945.651 1600.51,948.097 
  1606.87,950.534 1613.23,952.963 1619.58,955.382 1625.94,957.791 1632.3,960.19 1638.65,962.577 1645.01,964.953 1651.36,967.316 1657.72,969.668 1664.08,972.006 
  1670.43,974.33 1676.79,976.641 1683.15,978.937 1689.5,981.219 1695.86,983.485 1702.22,985.736 1708.57,987.971 1714.93,990.19 1721.28,992.392 1727.64,994.577 
  1734,996.745 1740.35,998.895 1746.71,1001.03 1753.07,1003.14 1759.42,1005.24 1765.78,1007.31 1772.14,1009.37 1778.49,1011.41 1784.85,1013.42 1791.2,1015.42 
  1797.56,1017.4 1803.92,1019.35 1810.27,1021.29 1816.63,1023.2 1822.99,1025.09 1829.34,1026.97 1835.7,1028.81 1842.06,1030.64 1848.41,1032.44 1854.77,1034.23 
  1861.12,1035.98 1867.48,1037.72 1873.84,1039.43 1880.19,1041.12 1886.55,1042.78 1892.91,1044.43 1899.26,1046.04 1905.62,1047.63 1911.97,1049.2 1918.33,1050.74 
  1924.69,1052.26 1931.04,1053.75 1937.4,1055.22 1943.76,1056.66 1950.11,1058.08 1956.47,1059.47 1962.83,1060.83 1969.18,1062.17 1975.54,1063.48 1981.89,1064.76 
  1988.25,1066.02 1994.61,1067.25 2000.96,1068.45 2007.32,1069.63 2013.68,1070.78 2020.03,1071.9 2026.39,1073 2032.75,1074.06 2039.1,1075.1 2045.46,1076.11 
  2051.81,1077.1 2058.17,1078.05 2064.53,1078.98 2070.88,1079.88 2077.24,1080.75 2083.6,1081.59 2089.95,1082.4 2096.31,1083.19 2102.67,1083.94 2109.02,1084.67 
  2115.38,1085.37 2121.73,1086.03 2128.09,1086.67 2134.45,1087.28 2140.8,1087.86 2147.16,1088.41 2153.52,1088.94 2159.87,1089.43 2166.23,1089.89 2172.59,1090.32 
  2178.94,1090.73 2185.3,1091.1 2191.65,1091.44 2198.01,1091.76 2204.37,1092.04 2210.72,1092.3 2217.08,1092.52 2223.44,1092.72 2229.79,1092.88 2236.15,1093.02 
  2242.5,1093.12 2248.86,1093.2 2255.22,1093.24 2261.57,1093.26 
  "/>
<polygon clip-path="url(#clip8801)" points="
1747.03,693.344 2249.26,693.344 2249.26,209.504 1747.03,209.504 
  " fill="#ffffff" fill-rule="evenodd" fill-opacity="1"/>
<polyline clip-path="url(#clip8801)" style="stroke:#000000; stroke-width:4; stroke-opacity:1; fill:none" points="
  1747.03,693.344 2249.26,693.344 2249.26,209.504 1747.03,209.504 1747.03,693.344 
  "/>
<polyline clip-path="url(#clip8801)" style="stroke:#aa8e38; stroke-width:40; stroke-opacity:1; fill:none" points="
  1771.03,269.984 1915.03,269.984 
  "/>
<g clip-path="url(#clip8801)">
<text style="fill:#000000; fill-opacity:1; font-family:Arial,Helvetica Neue,Helvetica,sans-serif; font-size:48px; text-anchor:start;" transform="rotate(0, 1939.03, 287.484)" x="1939.03" y="287.484">v=1.0 w=1.0</text>
</g>
<polyline clip-path="url(#clip8801)" style="stroke:#592a71; stroke-width:60; stroke-opacity:1; fill:none" stroke-dasharray="240, 150" points="
  1771.03,330.464 1915.03,330.464 
  "/>
<g clip-path="url(#clip8801)">
<text style="fill:#000000; fill-opacity:1; font-family:Arial,Helvetica Neue,Helvetica,sans-serif; font-size:48px; text-anchor:start;" transform="rotate(0, 1939.03, 347.964)" x="1939.03" y="347.964">v=0.5 w=1.0</text>
</g>
<polyline clip-path="url(#clip8801)" style="stroke:#4e918f; stroke-width:20; stroke-opacity:1; fill:none" stroke-dasharray="80, 50" points="
  1771.03,390.944 1915.03,390.944 
  "/>
<g clip-path="url(#clip8801)">
<text style="fill:#000000; fill-opacity:1; font-family:Arial,Helvetica Neue,Helvetica,sans-serif; font-size:48px; text-anchor:start;" transform="rotate(0, 1939.03, 408.444)" x="1939.03" y="408.444">v=1.0 w=0.5</text>
</g>
<polyline clip-path="url(#clip8801)" style="stroke:#300c43; stroke-width:60; stroke-opacity:1; fill:none" points="
  1771.03,451.424 1915.03,451.424 
  "/>
<g clip-path="url(#clip8801)">
<text style="fill:#000000; fill-opacity:1; font-family:Arial,Helvetica Neue,Helvetica,sans-serif; font-size:48px; text-anchor:start;" transform="rotate(0, 1939.03, 468.924)" x="1939.03" y="468.924">v=0.0 w=0.5</text>
</g>
<polyline clip-path="url(#clip8801)" style="stroke:#226764; stroke-width:20; stroke-opacity:1; fill:none" points="
  1771.03,511.904 1915.03,511.904 
  "/>
<g clip-path="url(#clip8801)">
<text style="fill:#000000; fill-opacity:1; font-family:Arial,Helvetica Neue,Helvetica,sans-serif; font-size:48px; text-anchor:start;" transform="rotate(0, 1939.03, 529.404)" x="1939.03" y="529.404">v=0.5 w=0.0</text>
</g>
<polyline clip-path="url(#clip8801)" style="stroke:#cca7df; stroke-width:40; stroke-opacity:1; fill:none" stroke-dasharray="20, 40" points="
  1771.03,572.384 1915.03,572.384 
  "/>
<g clip-path="url(#clip8801)">
<text style="fill:#000000; fill-opacity:1; font-family:Arial,Helvetica Neue,Helvetica,sans-serif; font-size:48px; text-anchor:start;" transform="rotate(0, 1939.03, 589.884)" x="1939.03" y="589.884">v=0.4 w=0.6</text>
</g>
<polyline clip-path="url(#clip8801)" style="stroke:#a0d9d7; stroke-width:12; stroke-opacity:1; fill:none" stroke-dasharray="6, 12" points="
  1771.03,632.864 1915.03,632.864 
  "/>
<g clip-path="url(#clip8801)">
<text style="fill:#000000; fill-opacity:1; font-family:Arial,Helvetica Neue,Helvetica,sans-serif; font-size:48px; text-anchor:start;" transform="rotate(0, 1939.03, 650.364)" x="1939.03" y="650.364">v=0.6 w=0.4</text>
</g>
</svg>
