<?xml version="1.0" encoding="UTF-8"?>
<svg xmlns="http://www.w3.org/2000/svg"
     xmlns:xlink="http://www.w3.org/1999/xlink"
     xmlns:gadfly="http://www.gadflyjl.org/ns"
     version="1.2"
     width="141.42mm" height="100mm" viewBox="0 0 141.42 100"
     stroke="none"
     fill="#000000"
     stroke-width="0.3"
     font-size="3.88"
>
<g stroke="#000000" stroke-opacity="0.000" fill="#002B36" id="img-5bb9bfcd-1">
  <rect x="0" y="0" width="141.42" height="100"/>
</g>
<g class="plotroot xscalable yscalable" id="img-5bb9bfcd-2">
  <g font-size="7.06" font-family="'PT Sans','Helvetica Neue','Helvetica',sans-serif" fill="#3AA198" stroke="#000000" stroke-opacity="0.000" id="img-5bb9bfcd-3">
    <text x="79.61" y="85.43" text-anchor="middle" dy="0.6em">time</text>
  </g>
  <g class="guide xlabels" font-size="5.29" font-family="'PT Sans Caption','Helvetica Neue','Helvetica',sans-serif" fill="#EEE8D5" id="img-5bb9bfcd-4">
    <text x="24.79" y="76.42" text-anchor="middle" dy="0.6em">0</text>
    <text x="59.94" y="76.42" text-anchor="middle" dy="0.6em">π</text>
    <text x="95.08" y="76.42" text-anchor="middle" dy="0.6em">2 π</text>
    <text x="130.22" y="76.42" text-anchor="middle" dy="0.6em">3 π</text>
  </g>
<g clip-path="url(#img-5bb9bfcd-5)">
  <g id="img-5bb9bfcd-6">
    <g pointer-events="visible" opacity="1" fill="#000000" fill-opacity="0.000" stroke="#000000" stroke-opacity="0.000" class="guide background" id="img-5bb9bfcd-7">
      <rect x="22.79" y="15.57" width="113.63" height="59.85"/>
    </g>
    <g class="guide xgridlines yfixed" stroke-dasharray="0.5,0.5" stroke-width="0.2" stroke="#EEE8D5" id="img-5bb9bfcd-8">
      <path fill="none" d="M24.79,15.57 L 24.79 75.42"/>
      <path fill="none" d="M59.94,15.57 L 59.94 75.42"/>
      <path fill="none" d="M95.08,15.57 L 95.08 75.42"/>
      <path fill="none" d="M130.22,15.57 L 130.22 75.42"/>
    </g>
    <g class="guide ygridlines xfixed" stroke-dasharray="0.5,0.5" stroke-width="0.2" stroke="#EEE8D5" id="img-5bb9bfcd-9">
      <path fill="none" d="M22.79,71.03 L 136.42 71.03"/>
      <path fill="none" d="M22.79,45.56 L 136.42 45.56"/>
      <path fill="none" d="M22.79,20.08 L 136.42 20.08"/>
    </g>
    <g class="plotpanel" id="img-5bb9bfcd-10">
      <g stroke-width="0.3" stroke="#000000" stroke-opacity="0.000" class="geometry" fill="#CAE5FF" id="img-5bb9bfcd-11">
        <path d="M134.42,57.44 L 129.95 47.47 125.47 37.6 121 29.39 116.52 24.14 112.05 22.66 107.57 25.21 103.1 31.36 98.62 40.17 94.15 50.22 89.67 59.94 85.2 67.79 80.73 72.54 76.25 73.42 71.78 70.31 67.3 63.69 62.83 54.61 58.35 44.51 53.88 34.97 49.4 27.5 44.93 23.29 40.45 23 35.98 26.66 35.98 21.57 40.45 17.9 44.93 18.2 49.4 22.41 53.88 29.87 58.35 39.41 62.83 49.52 67.3 58.6 71.78 65.21 76.25 68.33 80.73 67.44 85.2 62.7 89.67 54.84 94.15 45.12 98.62 35.07 103.1 26.27 107.57 20.11 112.05 17.57 116.52 19.04 121 24.3 125.47 32.51 129.95 42.38 134.42 52.34 z"/>
      </g>
      <g stroke-width="0.3" fill="#000000" fill-opacity="0.000" class="geometry" stroke-dasharray="none" stroke="#268BD2" id="img-5bb9bfcd-12">
        <path fill="none" d="M24.79,20.08 L 25.22 20.1 25.64 20.15 26.06 20.24 26.49 20.37 26.91 20.53 27.33 20.73 27.76 20.97 28.18 21.24 28.6 21.54 29.03 21.88 29.45 22.25 29.87 22.66 30.3 23.1 30.72 23.57 31.14 24.07 31.57 24.61 31.99 25.17 32.41 25.77 32.84 26.39 33.26 27.04 33.68 27.71 34.11 28.41 34.53 29.14 34.95 29.89 35.38 30.66 35.8 31.45 36.22 32.26 36.65 33.1 37.07 33.95 37.49 34.81 37.92 35.69 38.34 36.59 38.76 37.5 39.19 38.42 39.61 39.35 40.03 40.29 40.46 41.24 40.88 42.19 41.31 43.15 41.73 44.11 42.15 45.07 42.58 46.04 43 47 43.42 47.96 43.85 48.92 44.27 49.87 44.69 50.82 45.12 51.76 45.54 52.69 45.96 53.61 46.39 54.52 46.81 55.42 47.23 56.3 47.66 57.17 48.08 58.02 48.5 58.85 48.93 59.66 49.35 60.45 49.77 61.22 50.2 61.97 50.62 62.7 51.04 63.4 51.47 64.08 51.89 64.72 52.31 65.35 52.74 65.94 53.16 66.5 53.58 67.04 54.01 67.54 54.43 68.01 54.85 68.45 55.28 68.86 55.7 69.23 56.12 69.57 56.55 69.87 56.97 70.14 57.4 70.38 57.82 70.58 58.24 70.74 58.67 70.87 59.09 70.96 59.51 71.02 59.94 71.03 60.36 71.02 60.78 70.96 61.21 70.87 61.63 70.74 62.05 70.58 62.48 70.38 62.9 70.14 63.32 69.87 63.75 69.57 64.17 69.23 64.59 68.86 65.02 68.45 65.44 68.01 65.86 67.54 66.29 67.04 66.71 66.5 67.13 65.94 67.56 65.35 67.98 64.72 68.4 64.08 68.83 63.4 69.25 62.7 69.67 61.97 70.1 61.22 70.52 60.45 70.94 59.66 71.37 58.85 71.79 58.02 72.21 57.17 72.64 56.3 73.06 55.42 73.49 54.52 73.91 53.61 74.33 52.69 74.76 51.76 75.18 50.82 75.6 49.87 76.03 48.92 76.45 47.96 76.87 47 77.3 46.04 77.72 45.07 78.14 44.11 78.57 43.15 78.99 42.19 79.41 41.24 79.84 40.29 80.26 39.35 80.68 38.42 81.11 37.5 81.53 36.59 81.95 35.69 82.38 34.81 82.8 33.95 83.22 33.1 83.65 32.26 84.07 31.45 84.49 30.66 84.92 29.89 85.34 29.14 85.76 28.41 86.19 27.71 86.61 27.04 87.03 26.39 87.46 25.77 87.88 25.17 88.31 24.61 88.73 24.07 89.15 23.57 89.58 23.1 90 22.66 90.42 22.25 90.85 21.88 91.27 21.54 91.69 21.24 92.12 20.97 92.54 20.73 92.96 20.53 93.39 20.37 93.81 20.24 94.23 20.15 94.66 20.1 95.08 20.08 95.5 20.1 95.93 20.15 96.35 20.24 96.77 20.37 97.2 20.53 97.62 20.73 98.04 20.97 98.47 21.24 98.89 21.54 99.31 21.88 99.74 22.25 100.16 22.66 100.58 23.1 101.01 23.57 101.43 24.07 101.85 24.61 102.28 25.17 102.7 25.77 103.12 26.39 103.55 27.04 103.97 27.71 104.4 28.41 104.82 29.14 105.24 29.89 105.67 30.66 106.09 31.45 106.51 32.26 106.94 33.1 107.36 33.95 107.78 34.81 108.21 35.69 108.63 36.59 109.05 37.5 109.48 38.42 109.9 39.35 110.32 40.29 110.75 41.24 111.17 42.19 111.59 43.15 112.02 44.11 112.44 45.07 112.86 46.04 113.29 47 113.71 47.96 114.13 48.92 114.56 49.87 114.98 50.82 115.4 51.76 115.83 52.69 116.25 53.61 116.67 54.52 117.1 55.42 117.52 56.3 117.94 57.17 118.37 58.02 118.79 58.85 119.21 59.66 119.64 60.45 120.06 61.22 120.49 61.97 120.91 62.7 121.33 63.4 121.76 64.08 122.18 64.72 122.6 65.35 123.03 65.94 123.45 66.5 123.87 67.04 124.3 67.54 124.72 68.01 125.14 68.45 125.57 68.86 125.99 69.23 126.41 69.57 126.84 69.87 127.26 70.14 127.68 70.38 128.11 70.58 128.53 70.74 128.95 70.87 129.38 70.96 129.8 71.02 130.22 71.03"/>
      </g>
      <g stroke-width="0.3" fill="#000000" fill-opacity="0.000" class="geometry" stroke-dasharray="none" stroke="#268BD2" id="img-5bb9bfcd-13">
        <path fill="none" d="M35.98,24.12 L 40.45 20.45 44.93 20.74 49.4 24.96 53.88 32.42 58.35 41.96 62.83 52.07 67.3 61.14 71.78 67.76 76.25 70.87 80.73 69.99 85.2 65.24 89.67 57.39 94.15 47.67 98.62 37.62 103.1 28.82 107.57 22.66 112.05 20.11 116.52 21.59 121 26.84 125.47 35.06 129.95 44.92 134.42 54.89"/>
      </g>
    </g>
  </g>
</g>
  <g class="guide ylabels" font-size="5.29" font-family="'PT Sans Caption','Helvetica Neue','Helvetica',sans-serif" fill="#EEE8D5" id="img-5bb9bfcd-14">
    <text x="21.79" y="71.03" text-anchor="end" dy="0.35em">-1</text>
    <text x="21.79" y="45.56" text-anchor="end" dy="0.35em">0</text>
    <text x="21.79" y="20.08" text-anchor="end" dy="0.35em">1</text>
  </g>
  <g font-size="7.06" font-family="'PT Sans','Helvetica Neue','Helvetica',sans-serif" fill="#3AA198" stroke="#000000" stroke-opacity="0.000" id="img-5bb9bfcd-15">
    <text x="10.28" y="43.49" text-anchor="middle" dy="0.35em" transform="rotate(-90, 10.28, 45.49)">y axis</text>
  </g>
  <g font-size="7.06" font-family="'PT Sans','Helvetica Neue','Helvetica',sans-serif" fill="#3AA198" stroke="#000000" stroke-opacity="0.000" id="img-5bb9bfcd-16">
    <text x="79.61" y="13.57" text-anchor="middle">Important title</text>
  </g>
</g>
<defs>
  <clipPath id="img-5bb9bfcd-5">
  <path d="M22.79,15.57 L 136.42 15.57 136.42 75.42 22.79 75.42" />
</clipPath>
</defs>
</svg>
