<?xml version="1.0" encoding="UTF-8"?>
<svg xmlns="http://www.w3.org/2000/svg"
     xmlns:xlink="http://www.w3.org/1999/xlink"
     xmlns:gadfly="http://www.gadflyjl.org/ns"
     version="1.2"
     width="141.42mm" height="100mm" viewBox="0 0 141.42 100"
     stroke="none"
     fill="#000000"
     stroke-width="0.3"
     font-size="3.88"
>
<g class="plotroot xscalable yscalable" id="img-302c6854-1">
  <g font-size="3.88" font-family="'PT Sans','Helvetica Neue','Helvetica',sans-serif" fill="#564A55" stroke="#000000" stroke-opacity="0.000" id="img-302c6854-2">
    <text x="73.11" y="88.39" text-anchor="middle" dy="0.6em">x</text>
  </g>
  <g class="guide xlabels" font-size="2.82" font-family="'PT Sans Caption','Helvetica Neue','Helvetica',sans-serif" fill="#6C606B" id="img-302c6854-3">
    <text x="20.63" y="81.72" text-anchor="middle" dy="0.6em">0.0</text>
    <text x="73.11" y="81.72" text-anchor="middle" dy="0.6em">0.5</text>
    <text x="125.58" y="81.72" text-anchor="middle" dy="0.6em">1.0</text>
  </g>
  <g class="guide colorkey" id="img-302c6854-4">
    <g fill="#4C404B" font-size="2.82" font-family="'PT Sans','Helvetica Neue','Helvetica',sans-serif" id="img-302c6854-5">
      <text x="132.05" y="40.39" dy="0.35em" id="img-302c6854-6" class="color_f1">f<tspan style="dominant-baseline:inherit" dy="0.6em" font-size="83%">1</tspan><tspan dy="-0.498000em"></tspan></text>
      <text x="132.05" y="45.33" dy="0.35em" id="img-302c6854-7" class="color_f2">f<tspan style="dominant-baseline:inherit" dy="0.6em" font-size="83%">2</tspan><tspan dy="-0.498000em"></tspan></text>
      <text x="132.05" y="50.27" dy="0.35em" id="img-302c6854-8" class="color_f3">f<tspan style="dominant-baseline:inherit" dy="0.6em" font-size="83%">3</tspan><tspan dy="-0.498000em"></tspan></text>
    </g>
    <g stroke="#000000" stroke-opacity="0.000" id="img-302c6854-9">
      <rect x="128.58" y="39.15" width="2.47" height="2.47" id="img-302c6854-10" fill="#00BFFF" class="color_f1"/>
      <rect x="128.58" y="44.09" width="2.47" height="2.47" id="img-302c6854-11" fill="#D4CA3A" class="color_f2"/>
      <rect x="128.58" y="49.03" width="2.47" height="2.47" id="img-302c6854-12" fill="#FF6DAE" class="color_f3"/>
    </g>
    <g fill="#362A35" font-size="3.88" font-family="'PT Sans','Helvetica Neue','Helvetica',sans-serif" stroke="#000000" stroke-opacity="0.000" id="img-302c6854-13">
      <text x="128.58" y="35.25" id="img-302c6854-14">Color</text>
    </g>
  </g>
<g clip-path="url(#img-302c6854-15)">
  <g id="img-302c6854-16">
    <g pointer-events="visible" opacity="1" fill="#000000" fill-opacity="0.000" stroke="#000000" stroke-opacity="0.000" class="guide background" id="img-302c6854-17">
      <rect x="18.63" y="5" width="108.95" height="75.72" id="img-302c6854-18"/>
    </g>
    <g class="guide ygridlines xfixed" stroke-dasharray="0.5,0.5" stroke-width="0.2" stroke="#D0D0E0" id="img-302c6854-19">
      <path fill="none" d="M18.63,78.71 L 127.58 78.71" id="img-302c6854-20"/>
      <path fill="none" d="M18.63,42.86 L 127.58 42.86" id="img-302c6854-21"/>
      <path fill="none" d="M18.63,7 L 127.58 7" id="img-302c6854-22"/>
    </g>
    <g class="guide xgridlines yfixed" stroke-dasharray="0.5,0.5" stroke-width="0.2" stroke="#D0D0E0" id="img-302c6854-23">
      <path fill="none" d="M20.63,5 L 20.63 80.72" id="img-302c6854-24"/>
      <path fill="none" d="M73.11,5 L 73.11 80.72" id="img-302c6854-25"/>
      <path fill="none" d="M125.58,5 L 125.58 80.72" id="img-302c6854-26"/>
    </g>
    <g class="plotpanel" id="img-302c6854-27">
      <g stroke-width="0.3" fill="#000000" fill-opacity="0.000" stroke-dasharray="none" id="img-302c6854-28">
        <path fill="none" d="M20.63,7 L 21.05 7 21.47 7 21.9 7.01 22.32 7.01 22.74 7.01 23.16 7.02 23.58 7.03 24 7.04 24.43 7.05 24.85 7.06 25.27 7.07 25.69 7.08 26.11 7.1 26.53 7.11 26.95 7.13 27.38 7.15 27.8 7.17 28.22 7.19 28.64 7.21 29.06 7.23 29.48 7.25 29.9 7.28 30.33 7.31 30.75 7.33 31.17 7.36 31.59 7.39 32.01 7.42 32.43 7.45 32.86 7.49 33.28 7.52 33.7 7.56 34.12 7.59 34.54 7.63 34.96 7.67 35.38 7.71 35.81 7.75 36.23 7.79 36.65 7.83 37.07 7.88 37.49 7.92 37.91 7.97 38.33 8.02 38.76 8.07 39.18 8.12 39.6 8.17 40.02 8.22 40.44 8.27 40.86 8.33 41.29 8.38 41.71 8.44 42.13 8.5 42.55 8.56 42.97 8.62 43.39 8.68 43.81 8.74 44.24 8.81 44.66 8.87 45.08 8.94 45.5 9 45.92 9.07 46.34 9.14 46.76 9.21 47.19 9.28 47.61 9.36 48.03 9.43 48.45 9.5 48.87 9.58 49.29 9.66 49.72 9.74 50.14 9.82 50.56 9.9 50.98 9.98 51.4 10.06 51.82 10.14 52.24 10.23 52.67 10.31 53.09 10.4 53.51 10.49 53.93 10.58 54.35 10.67 54.77 10.76 55.19 10.85 55.62 10.95 56.04 11.04 56.46 11.14 56.88 11.24 57.3 11.33 57.72 11.43 58.14 11.53 58.57 11.63 58.99 11.74 59.41 11.84 59.83 11.94 60.25 12.05 60.67 12.16 61.1 12.26 61.52 12.37 61.94 12.48 62.36 12.59 62.78 12.71 63.2 12.82 63.62 12.93 64.05 13.05 64.47 13.16 64.89 13.28 65.31 13.4 65.73 13.52 66.15 13.64 66.57 13.76 67 13.88 67.42 14.01 67.84 14.13 68.26 14.26 68.68 14.39 69.1 14.51 69.53 14.64 69.95 14.77 70.37 14.9 70.79 15.04 71.21 15.17 71.63 15.3 72.05 15.44 72.48 15.57 72.9 15.71 73.32 15.85 73.74 15.99 74.16 16.13 74.58 16.27 75 16.41 75.43 16.55 75.85 16.7 76.27 16.84 76.69 16.99 77.11 17.14 77.53 17.28 77.96 17.43 78.38 17.58 78.8 17.73 79.22 17.89 79.64 18.04 80.06 18.19 80.48 18.35 80.91 18.5 81.33 18.66 81.75 18.82 82.17 18.98 82.59 19.14 83.01 19.3 83.43 19.46 83.86 19.62 84.28 19.79 84.7 19.95 85.12 20.12 85.54 20.28 85.96 20.45 86.39 20.62 86.81 20.79 87.23 20.96 87.65 21.13 88.07 21.3 88.49 21.48 88.91 21.65 89.34 21.82 89.76 22 90.18 22.18 90.6 22.36 91.02 22.53 91.44 22.71 91.86 22.89 92.29 23.07 92.71 23.26 93.13 23.44 93.55 23.62 93.97 23.81 94.39 23.99 94.82 24.18 95.24 24.37 95.66 24.56 96.08 24.75 96.5 24.94 96.92 25.13 97.34 25.32 97.77 25.51 98.19 25.71 98.61 25.9 99.03 26.09 99.45 26.29 99.87 26.49 100.29 26.69 100.72 26.88 101.14 27.08 101.56 27.28 101.98 27.49 102.4 27.69 102.82 27.89 103.25 28.09 103.67 28.3 104.09 28.5 104.51 28.71 104.93 28.92 105.35 29.12 105.77 29.33 106.2 29.54 106.62 29.75 107.04 29.96 107.46 30.17 107.88 30.39 108.3 30.6 108.72 30.81 109.15 31.03 109.57 31.24 109.99 31.46 110.41 31.68 110.83 31.89 111.25 32.11 111.68 32.33 112.1 32.55 112.52 32.77 112.94 33 113.36 33.22 113.78 33.44 114.2 33.66 114.63 33.89 115.05 34.11 115.47 34.34 115.89 34.57 116.31 34.79 116.73 35.02 117.15 35.25 117.58 35.48 118 35.71 118.42 35.94 118.84 36.17 119.26 36.4 119.68 36.64 120.11 36.87 120.53 37.11 120.95 37.34 121.37 37.58 121.79 37.81 122.21 38.05 122.63 38.29 123.06 38.52 123.48 38.76 123.9 39 124.32 39.24 124.74 39.48 125.16 39.73 125.58 39.97" id="img-302c6854-29" stroke="#00BFFF" class="geometry color_f1"/>
        <path fill="none" d="M20.63,7 L 21.05 7 21.47 7 21.9 7.01 22.32 7.02 22.74 7.03 23.16 7.04 23.58 7.06 24 7.07 24.43 7.09 24.85 7.12 25.27 7.14 25.69 7.17 26.11 7.2 26.53 7.23 26.95 7.26 27.38 7.3 27.8 7.33 28.22 7.37 28.64 7.42 29.06 7.46 29.48 7.51 29.9 7.56 30.33 7.61 30.75 7.67 31.17 7.72 31.59 7.78 32.01 7.84 32.43 7.91 32.86 7.97 33.28 8.04 33.7 8.11 34.12 8.18 34.54 8.26 34.96 8.34 35.38 8.42 35.81 8.5 36.23 8.58 36.65 8.67 37.07 8.76 37.49 8.85 37.91 8.94 38.33 9.04 38.76 9.14 39.18 9.24 39.6 9.34 40.02 9.45 40.44 9.56 40.86 9.66 41.29 9.78 41.71 9.89 42.13 10.01 42.55 10.13 42.97 10.25 43.39 10.37 43.81 10.5 44.24 10.63 44.66 10.76 45.08 10.89 45.5 11.03 45.92 11.16 46.34 11.3 46.76 11.45 47.19 11.59 47.61 11.74 48.03 11.89 48.45 12.04 48.87 12.19 49.29 12.35 49.72 12.51 50.14 12.67 50.56 12.83 50.98 13 51.4 13.16 51.82 13.33 52.24 13.51 52.67 13.68 53.09 13.86 53.51 14.04 53.93 14.22 54.35 14.4 54.77 14.59 55.19 14.78 55.62 14.97 56.04 15.16 56.46 15.36 56.88 15.55 57.3 15.75 57.72 15.96 58.14 16.16 58.57 16.37 58.99 16.58 59.41 16.79 59.83 17 60.25 17.22 60.67 17.44 61.1 17.66 61.52 17.88 61.94 18.11 62.36 18.34 62.78 18.57 63.2 18.8 63.62 19.03 64.05 19.27 64.47 19.51 64.89 19.75 65.31 20 65.73 20.24 66.15 20.49 66.57 20.74 67 21 67.42 21.25 67.84 21.51 68.26 21.77 68.68 22.03 69.1 22.3 69.53 22.56 69.95 22.83 70.37 23.11 70.79 23.38 71.21 23.66 71.63 23.93 72.05 24.22 72.48 24.5 72.9 24.79 73.32 25.07 73.74 25.36 74.16 25.66 74.58 25.95 75 26.25 75.43 26.55 75.85 26.85 76.27 27.15 76.69 27.46 77.11 27.77 77.53 28.08 77.96 28.39 78.38 28.71 78.8 29.03 79.22 29.35 79.64 29.67 80.06 30 80.48 30.32 80.91 30.65 81.33 30.98 81.75 31.32 82.17 31.66 82.59 31.99 83.01 32.34 83.43 32.68 83.86 33.03 84.28 33.37 84.7 33.72 85.12 34.08 85.54 34.43 85.96 34.79 86.39 35.15 86.81 35.51 87.23 35.88 87.65 36.24 88.07 36.61 88.49 36.98 88.91 37.36 89.34 37.73 89.76 38.11 90.18 38.49 90.6 38.87 91.02 39.26 91.44 39.65 91.86 40.04 92.29 40.43 92.71 40.82 93.13 41.22 93.55 41.62 93.97 42.02 94.39 42.42 94.82 42.83 95.24 43.24 95.66 43.65 96.08 44.06 96.5 44.48 96.92 44.89 97.34 45.31 97.77 45.74 98.19 46.16 98.61 46.59 99.03 47.02 99.45 47.45 99.87 47.88 100.29 48.32 100.72 48.76 101.14 49.2 101.56 49.64 101.98 50.08 102.4 50.53 102.82 50.98 103.25 51.43 103.67 51.89 104.09 52.35 104.51 52.81 104.93 53.27 105.35 53.73 105.77 54.2 106.2 54.67 106.62 55.14 107.04 55.61 107.46 56.08 107.88 56.56 108.3 57.04 108.72 57.52 109.15 58.01 109.57 58.5 109.99 58.99 110.41 59.48 110.83 59.97 111.25 60.47 111.68 60.97 112.1 61.47 112.52 61.97 112.94 62.48 113.36 62.98 113.78 63.49 114.2 64.01 114.63 64.52 115.05 65.04 115.47 65.56 115.89 66.08 116.31 66.6 116.73 67.13 117.15 67.66 117.58 68.19 118 68.72 118.42 69.26 118.84 69.79 119.26 70.33 119.68 70.88 120.11 71.42 120.53 71.97 120.95 72.52 121.37 73.07 121.79 73.62 122.21 74.18 122.63 74.74 123.06 75.3 123.48 75.86 123.9 76.43 124.32 77 124.74 77.57 125.16 78.14 125.58 78.71" id="img-302c6854-30" stroke="#D4CA3A" class="geometry color_f2"/>
        <path fill="none" d="M20.63,78.71 L 21.05 78.71 21.47 78.71 21.9 78.7 22.32 78.7 22.74 78.69 23.16 78.67 23.58 78.66 24 78.64 24.43 78.62 24.85 78.6 25.27 78.58 25.69 78.55 26.11 78.52 26.53 78.49 26.95 78.45 27.38 78.42 27.8 78.38 28.22 78.34 28.64 78.3 29.06 78.25 29.48 78.2 29.9 78.16 30.33 78.1 30.75 78.05 31.17 77.99 31.59 77.93 32.01 77.87 32.43 77.81 32.86 77.74 33.28 77.67 33.7 77.6 34.12 77.53 34.54 77.46 34.96 77.38 35.38 77.3 35.81 77.22 36.23 77.13 36.65 77.04 37.07 76.96 37.49 76.86 37.91 76.77 38.33 76.67 38.76 76.58 39.18 76.48 39.6 76.37 40.02 76.27 40.44 76.16 40.86 76.05 41.29 75.94 41.71 75.82 42.13 75.71 42.55 75.59 42.97 75.47 43.39 75.34 43.81 75.22 44.24 75.09 44.66 74.96 45.08 74.82 45.5 74.69 45.92 74.55 46.34 74.41 46.76 74.27 47.19 74.12 47.61 73.98 48.03 73.83 48.45 73.68 48.87 73.52 49.29 73.37 49.72 73.21 50.14 73.05 50.56 72.88 50.98 72.72 51.4 72.55 51.82 72.38 52.24 72.21 52.67 72.03 53.09 71.86 53.51 71.68 53.93 71.5 54.35 71.31 54.77 71.13 55.19 70.94 55.62 70.75 56.04 70.55 56.46 70.36 56.88 70.16 57.3 69.96 57.72 69.76 58.14 69.55 58.57 69.35 58.99 69.14 59.41 68.92 59.83 68.71 60.25 68.49 60.67 68.28 61.1 68.06 61.52 67.83 61.94 67.61 62.36 67.38 62.78 67.15 63.2 66.92 63.62 66.68 64.05 66.44 64.47 66.2 64.89 65.96 65.31 65.72 65.73 65.47 66.15 65.22 66.57 64.97 67 64.72 67.42 64.46 67.84 64.21 68.26 63.95 68.68 63.68 69.1 63.42 69.53 63.15 69.95 62.88 70.37 62.61 70.79 62.34 71.21 62.06 71.63 61.78 72.05 61.5 72.48 61.22 72.9 60.93 73.32 60.64 73.74 60.35 74.16 60.06 74.58 59.76 75 59.47 75.43 59.17 75.85 58.87 76.27 58.56 76.69 58.25 77.11 57.95 77.53 57.63 77.96 57.32 78.38 57.01 78.8 56.69 79.22 56.37 79.64 56.04 80.06 55.72 80.48 55.39 80.91 55.06 81.33 54.73 81.75 54.4 82.17 54.06 82.59 53.72 83.01 53.38 83.43 53.04 83.86 52.69 84.28 52.34 84.7 51.99 85.12 51.64 85.54 51.28 85.96 50.93 86.39 50.57 86.81 50.2 87.23 49.84 87.65 49.47 88.07 49.1 88.49 48.73 88.91 48.36 89.34 47.98 89.76 47.61 90.18 47.22 90.6 46.84 91.02 46.46 91.44 46.07 91.86 45.68 92.29 45.29 92.71 44.89 93.13 44.5 93.55 44.1 93.97 43.7 94.39 43.29 94.82 42.89 95.24 42.48 95.66 42.07 96.08 41.65 96.5 41.24 96.92 40.82 97.34 40.4 97.77 39.98 98.19 39.55 98.61 39.13 99.03 38.7 99.45 38.27 99.87 37.83 100.29 37.4 100.72 36.96 101.14 36.52 101.56 36.08 101.98 35.63 102.4 35.18 102.82 34.73 103.25 34.28 103.67 33.83 104.09 33.37 104.51 32.91 104.93 32.45 105.35 31.98 105.77 31.52 106.2 31.05 106.62 30.58 107.04 30.11 107.46 29.63 107.88 29.15 108.3 28.67 108.72 28.19 109.15 27.71 109.57 27.22 109.99 26.73 110.41 26.24 110.83 25.74 111.25 25.25 111.68 24.75 112.1 24.25 112.52 23.75 112.94 23.24 113.36 22.73 113.78 22.22 114.2 21.71 114.63 21.19 115.05 20.68 115.47 20.16 115.89 19.64 116.31 19.11 116.73 18.59 117.15 18.06 117.58 17.53 118 16.99 118.42 16.46 118.84 15.92 119.26 15.38 119.68 14.84 120.11 14.29 120.53 13.75 120.95 13.2 121.37 12.64 121.79 12.09 122.21 11.53 122.63 10.98 123.06 10.41 123.48 9.85 123.9 9.29 124.32 8.72 124.74 8.15 125.16 7.57 125.58 7" id="img-302c6854-31" stroke="#FF6DAE" class="geometry color_f3"/>
      </g>
    </g>
  </g>
</g>
  <g class="guide ylabels" font-size="2.82" font-family="'PT Sans Caption','Helvetica Neue','Helvetica',sans-serif" fill="#6C606B" id="img-302c6854-32">
    <text x="17.63" y="78.71" text-anchor="end" dy="0.35em" id="img-302c6854-33">0.0</text>
    <text x="17.63" y="42.86" text-anchor="end" dy="0.35em" id="img-302c6854-34">0.5</text>
    <text x="17.63" y="7" text-anchor="end" dy="0.35em" id="img-302c6854-35">1.0</text>
  </g>
  <g font-size="3.88" font-family="'PT Sans','Helvetica Neue','Helvetica',sans-serif" fill="#564A55" stroke="#000000" stroke-opacity="0.000" id="img-302c6854-36">
    <text x="8.81" y="40.86" text-anchor="middle" dy="0.35em" transform="rotate(-90, 8.81, 42.86)" id="img-302c6854-37">f(x)</text>
  </g>
</g>
<defs>
  <clipPath id="img-302c6854-15">
  <path d="M18.63,5 L 127.58 5 127.58 80.72 18.63 80.72" />
</clipPath>
</defs>
</svg>
