<?xml version="1.0" encoding="UTF-8"?>
<svg xmlns="http://www.w3.org/2000/svg"
     xmlns:xlink="http://www.w3.org/1999/xlink"
     xmlns:gadfly="http://www.gadflyjl.org/ns"
     version="1.2"
     width="141.42mm" height="100mm" viewBox="0 0 141.42 100"
     stroke="none"
     fill="#000000"
     stroke-width="0.3"
     font-size="3.88"
>
<g class="plotroot xscalable yscalable" id="img-4036ebd6-1">
  <g font-size="3.88" font-family="'PT Sans','Helvetica Neue','Helvetica',sans-serif" fill="#564A55" stroke="#000000" stroke-opacity="0.000" id="img-4036ebd6-2">
    <text x="77.18" y="88.39" text-anchor="middle" dy="0.6em">x</text>
  </g>
  <g class="guide xlabels" font-size="2.82" font-family="'PT Sans Caption','Helvetica Neue','Helvetica',sans-serif" fill="#6C606B" id="img-4036ebd6-3">
    <text x="19.94" y="81.72" text-anchor="middle" dy="0.6em">-1.0</text>
    <text x="48.56" y="81.72" text-anchor="middle" dy="0.6em">-0.5</text>
    <text x="77.18" y="81.72" text-anchor="middle" dy="0.6em">0.0</text>
    <text x="105.8" y="81.72" text-anchor="middle" dy="0.6em">0.5</text>
    <text x="134.42" y="81.72" text-anchor="middle" dy="0.6em">1.0</text>
  </g>
<g clip-path="url(#img-4036ebd6-4)">
  <g id="img-4036ebd6-5">
    <g pointer-events="visible" opacity="1" fill="#000000" fill-opacity="0.000" stroke="#000000" stroke-opacity="0.000" class="guide background" id="img-4036ebd6-6">
      <rect x="17.94" y="5" width="118.48" height="75.72"/>
    </g>
    <g class="guide ygridlines xfixed" stroke-dasharray="0.5,0.5" stroke-width="0.2" stroke="#D0D0E0" id="img-4036ebd6-7">
      <path fill="none" d="M17.94,78.71 L 136.42 78.71"/>
      <path fill="none" d="M17.94,60.79 L 136.42 60.79"/>
      <path fill="none" d="M17.94,42.86 L 136.42 42.86"/>
      <path fill="none" d="M17.94,24.93 L 136.42 24.93"/>
      <path fill="none" d="M17.94,7 L 136.42 7"/>
    </g>
    <g class="guide xgridlines yfixed" stroke-dasharray="0.5,0.5" stroke-width="0.2" stroke="#D0D0E0" id="img-4036ebd6-8">
      <path fill="none" d="M19.94,5 L 19.94 80.72"/>
      <path fill="none" d="M48.56,5 L 48.56 80.72"/>
      <path fill="none" d="M77.18,5 L 77.18 80.72"/>
      <path fill="none" d="M105.8,5 L 105.8 80.72"/>
      <path fill="none" d="M134.42,5 L 134.42 80.72"/>
    </g>
    <g class="plotpanel" id="img-4036ebd6-9">
      <g stroke-width="0.3" fill="#000000" fill-opacity="0.000" class="geometry" stroke-dasharray="none" stroke="#00BFFF" id="img-4036ebd6-10">
        <path fill="none" d="M125.35,23.48 L 133.59 36.76 132.92 51 123.46 63.96 106.69 73.58 85.26 78.36 62.55 77.52 42.16 71.22 27.29 60.44 20.3 46.88 22.29 32.69 32.95 20.1 50.59 11.1 72.42 7.12 95.01 8.78 114.79 15.82 128.62 27.13 134.34 40.92 131.03 55.02 119.22 67.19 100.77 75.53 78.6 78.7 56.2 76.22"/>
      </g>
    </g>
  </g>
</g>
  <g class="guide ylabels" font-size="2.82" font-family="'PT Sans Caption','Helvetica Neue','Helvetica',sans-serif" fill="#6C606B" id="img-4036ebd6-11">
    <text x="16.94" y="78.71" text-anchor="end" dy="0.35em">-1.0</text>
    <text x="16.94" y="60.79" text-anchor="end" dy="0.35em">-0.5</text>
    <text x="16.94" y="42.86" text-anchor="end" dy="0.35em">0.0</text>
    <text x="16.94" y="24.93" text-anchor="end" dy="0.35em">0.5</text>
    <text x="16.94" y="7" text-anchor="end" dy="0.35em">1.0</text>
  </g>
  <g font-size="3.88" font-family="'PT Sans','Helvetica Neue','Helvetica',sans-serif" fill="#564A55" stroke="#000000" stroke-opacity="0.000" id="img-4036ebd6-12">
    <text x="8.81" y="42.86" text-anchor="end" dy="0.35em">y</text>
  </g>
</g>
<defs>
  <clipPath id="img-4036ebd6-4">
  <path d="M17.94,5 L 136.42 5 136.42 80.72 17.94 80.72" />
</clipPath>
</defs>
</svg>
