<?xml version="1.0" encoding="UTF-8"?>
<svg xmlns="http://www.w3.org/2000/svg"
     xmlns:xlink="http://www.w3.org/1999/xlink"
     xmlns:gadfly="http://www.gadflyjl.org/ns"
     version="1.2"
     width="141.42mm" height="100mm" viewBox="0 0 141.42 100"
     stroke="none"
     fill="#000000"
     stroke-width="0.3"
     font-size="3.88"
>
<g class="plotroot xscalable yscalable" id="img-83cfbea5-1">
  <g font-size="3.88" font-family="'PT Sans','Helvetica Neue','Helvetica',sans-serif" fill="#564A55" stroke="#000000" stroke-opacity="0.000" id="img-83cfbea5-2">
    <text x="78.03" y="88.39" text-anchor="middle" dy="0.6em">x</text>
  </g>
  <g class="guide xlabels" font-size="2.82" font-family="'PT Sans Caption','Helvetica Neue','Helvetica',sans-serif" fill="#6C606B" id="img-83cfbea5-3">
    <text x="21.65" y="81.72" text-anchor="middle" dy="0.6em">0</text>
    <text x="78.03" y="81.72" text-anchor="middle" dy="0.6em">5.0×10⁰</text>
    <text x="134.42" y="81.72" text-anchor="middle" dy="0.6em">1.0×10¹</text>
  </g>
<g clip-path="url(#img-83cfbea5-4)">
  <g id="img-83cfbea5-5">
    <g pointer-events="visible" opacity="1" fill="#000000" fill-opacity="0.000" stroke="#000000" stroke-opacity="0.000" class="guide background" id="img-83cfbea5-6">
      <rect x="19.65" y="5" width="116.78" height="75.72"/>
    </g>
    <g class="guide ygridlines xfixed" stroke-dasharray="0.5,0.5" stroke-width="0.2" stroke="#D0D0E0" id="img-83cfbea5-7">
      <path fill="none" d="M19.65,78.72 L 136.42 78.72"/>
      <path fill="none" d="M19.65,42.86 L 136.42 42.86"/>
      <path fill="none" d="M19.65,7 L 136.42 7"/>
    </g>
    <g class="guide xgridlines yfixed" stroke-dasharray="0.5,0.5" stroke-width="0.2" stroke="#D0D0E0" id="img-83cfbea5-8">
      <path fill="none" d="M21.65,5 L 21.65 80.72"/>
      <path fill="none" d="M78.03,5 L 78.03 80.72"/>
      <path fill="none" d="M134.42,5 L 134.42 80.72"/>
    </g>
    <g class="plotpanel" id="img-83cfbea5-9">
      <g stroke-width="0.3" fill="#000000" fill-opacity="0.000" class="geometry" stroke-dasharray="none" stroke="#00BFFF" id="img-83cfbea5-10">
        <path fill="none" d="M21.65,78.72 L 22.1 78.43 22.55 78.14 23 77.85 23.46 77.56 23.91 77.27 24.36 76.99 24.82 76.7 25.27 76.41 25.72 76.12 26.17 75.83 26.63 75.55 27.08 75.26 27.53 74.97 27.99 74.68 28.44 74.39 28.89 74.11 29.34 73.82 29.8 73.53 30.25 73.24 30.7 72.95 31.16 72.67 31.61 72.38 32.06 72.09 32.52 71.8 32.97 71.51 33.42 71.23 33.87 70.94 34.33 70.65 34.78 70.36 35.23 70.07 35.69 69.79 36.14 69.5 36.59 69.21 37.04 68.92 37.5 68.63 37.95 68.35 38.4 68.06 38.86 67.77 39.31 67.48 39.76 67.19 40.21 66.91 40.67 66.62 41.12 66.33 41.57 66.04 42.03 65.75 42.48 65.47 42.93 65.18 43.39 64.89 43.84 64.6 44.29 64.31 44.74 64.03 45.2 63.74 45.65 63.45 46.1 63.16 46.56 62.87 47.01 62.59 47.46 62.3 47.91 62.01 48.37 61.72 48.82 61.43 49.27 61.15 49.73 60.86 50.18 60.57 50.63 60.28 51.08 59.99 51.54 59.71 51.99 59.42 52.44 59.13 52.9 58.84 53.35 58.55 53.8 58.27 54.26 57.98 54.71 57.69 55.16 57.4 55.61 57.11 56.07 56.83 56.52 56.54 56.97 56.25 57.43 55.96 57.88 55.67 58.33 55.39 58.78 55.1 59.24 54.81 59.69 54.52 60.14 54.23 60.6 53.95 61.05 53.66 61.5 53.37 61.95 53.08 62.41 52.79 62.86 52.51 63.31 52.22 63.77 51.93 64.22 51.64 64.67 51.35 65.13 51.07 65.58 50.78 66.03 50.49 66.48 50.2 66.94 49.91 67.39 49.63 67.84 49.34 68.3 49.05 68.75 48.76 69.2 48.47 69.65 48.19 70.11 47.9 70.56 47.61 71.01 47.32 71.47 47.03 71.92 46.75 72.37 46.46 72.82 46.17 73.28 45.88 73.73 45.59 74.18 45.31 74.64 45.02 75.09 44.73 75.54 44.44 76 44.15 76.45 43.87 76.9 43.58 77.35 43.29 77.81 43 78.26 42.71 78.71 42.43 79.17 42.14 79.62 41.85 80.07 41.56 80.52 41.27 80.98 40.99 81.43 40.7 81.88 40.41 82.34 40.12 82.79 39.83 83.24 39.55 83.69 39.26 84.15 38.97 84.6 38.68 85.05 38.39 85.51 38.11 85.96 37.82 86.41 37.53 86.87 37.24 87.32 36.95 87.77 36.67 88.22 36.38 88.68 36.09 89.13 35.8 89.58 35.51 90.04 35.23 90.49 34.94 90.94 34.65 91.39 34.36 91.85 34.07 92.3 33.79 92.75 33.5 93.21 33.21 93.66 32.92 94.11 32.63 94.56 32.35 95.02 32.06 95.47 31.77 95.92 31.48 96.38 31.19 96.83 30.9 97.28 30.62 97.74 30.33 98.19 30.04 98.64 29.75 99.09 29.46 99.55 29.18 100 28.89 100.45 28.6 100.91 28.31 101.36 28.02 101.81 27.74 102.26 27.45 102.72 27.16 103.17 26.87 103.62 26.58 104.08 26.3 104.53 26.01 104.98 25.72 105.43 25.43 105.89 25.14 106.34 24.86 106.79 24.57 107.25 24.28 107.7 23.99 108.15 23.7 108.61 23.42 109.06 23.13 109.51 22.84 109.96 22.55 110.42 22.26 110.87 21.98 111.32 21.69 111.78 21.4 112.23 21.11 112.68 20.82 113.13 20.54 113.59 20.25 114.04 19.96 114.49 19.67 114.95 19.38 115.4 19.1 115.85 18.81 116.3 18.52 116.76 18.23 117.21 17.94 117.66 17.66 118.12 17.37 118.57 17.08 119.02 16.79 119.48 16.5 119.93 16.22 120.38 15.93 120.83 15.64 121.29 15.35 121.74 15.06 122.19 14.78 122.65 14.49 123.1 14.2 123.55 13.91 124 13.62 124.46 13.34 124.91 13.05 125.36 12.76 125.82 12.47 126.27 12.18 126.72 11.9 127.17 11.61 127.63 11.32 128.08 11.03 128.53 10.74 128.99 10.46 129.44 10.17 129.89 9.88 130.35 9.59 130.8 9.3 131.25 9.02 131.7 8.73 132.16 8.44 132.61 8.15 133.06 7.86 133.52 7.58 133.97 7.29 134.42 7"/>
      </g>
    </g>
  </g>
</g>
  <g class="guide ylabels" font-size="2.82" font-family="'PT Sans Caption','Helvetica Neue','Helvetica',sans-serif" fill="#6C606B" id="img-83cfbea5-11">
    <text x="18.64" y="78.72" text-anchor="end" dy="0.35em">e<tspan style="dominant-baseline:inherit" dy="-0.6em" font-size="83%">0</tspan><tspan dy="0.498000em"></tspan></text>
    <text x="18.64" y="42.86" text-anchor="end" dy="0.35em">e<tspan style="dominant-baseline:inherit" dy="-0.6em" font-size="83%">5</tspan><tspan dy="0.498000em"></tspan></text>
    <text x="18.64" y="7" text-anchor="end" dy="0.35em">e<tspan style="dominant-baseline:inherit" dy="-0.6em" font-size="83%">10</tspan><tspan dy="0.498000em"></tspan></text>
  </g>
  <g font-size="3.88" font-family="'PT Sans','Helvetica Neue','Helvetica',sans-serif" fill="#564A55" stroke="#000000" stroke-opacity="0.000" id="img-83cfbea5-12">
    <text x="8.81" y="40.86" text-anchor="middle" dy="0.35em" transform="rotate(-90, 8.81, 42.86)">f(x)</text>
  </g>
</g>
<defs>
  <clipPath id="img-83cfbea5-4">
  <path d="M19.65,5 L 136.42 5 136.42 80.72 19.65 80.72" />
</clipPath>
</defs>
</svg>
