<?xml version="1.0" encoding="UTF-8"?>
<svg xmlns="http://www.w3.org/2000/svg"
     xmlns:xlink="http://www.w3.org/1999/xlink"
     xmlns:gadfly="http://www.gadflyjl.org/ns"
     version="1.2"
     width="141.42mm" height="100mm" viewBox="0 0 141.42 100"
     stroke="none"
     fill="#000000"
     stroke-width="0.3"
     font-size="3.88"
>
<g class="plotroot xscalable yscalable" id="img-110985b4-1">
  <g font-size="3.88" font-family="'PT Sans','Helvetica Neue','Helvetica',sans-serif" fill="#564A55" stroke="#000000" stroke-opacity="0.000" id="img-110985b4-2">
    <text x="76.62" y="88.39" text-anchor="middle" dy="0.6em">x</text>
  </g>
  <g class="guide xlabels" font-size="2.82" font-family="'PT Sans Caption','Helvetica Neue','Helvetica',sans-serif" fill="#6C606B" id="img-110985b4-3">
    <text x="18.83" y="81.71" text-anchor="middle" dy="0.6em">0</text>
    <text x="76.62" y="81.71" text-anchor="middle" dy="0.6em">5</text>
    <text x="134.42" y="81.71" text-anchor="middle" dy="0.6em">10</text>
  </g>
<g clip-path="url(#img-110985b4-4)">
  <g id="img-110985b4-5">
    <g pointer-events="visible" opacity="1" fill="#000000" fill-opacity="0.000" stroke="#000000" stroke-opacity="0.000" class="guide background" id="img-110985b4-6">
      <rect x="16.83" y="5" width="119.6" height="75.71"/>
    </g>
    <g class="guide ygridlines xfixed" stroke-dasharray="0.5,0.5" stroke-width="0.2" stroke="#D0D0E0" id="img-110985b4-7">
      <path fill="none" d="M16.83,78.71 L 136.42 78.71"/>
      <path fill="none" d="M16.83,42.86 L 136.42 42.86"/>
      <path fill="none" d="M16.83,7 L 136.42 7"/>
    </g>
    <g class="guide xgridlines yfixed" stroke-dasharray="0.5,0.5" stroke-width="0.2" stroke="#D0D0E0" id="img-110985b4-8">
      <path fill="none" d="M18.83,5 L 18.83 80.71"/>
      <path fill="none" d="M76.62,5 L 76.62 80.71"/>
      <path fill="none" d="M134.42,5 L 134.42 80.71"/>
    </g>
    <g class="plotpanel" id="img-110985b4-9">
      <g stroke-width="0.3" fill="#000000" fill-opacity="0.000" class="geometry" stroke-dasharray="none" stroke="#00BFFF" id="img-110985b4-10">
        <path fill="none" d="M30.39,18.37 L 35.01 8.04 39.63 8.88 44.26 20.73 48.88 41.75 53.5 68.59 58.13 97.04 62.75 122.59 67.38 141.22 72 149.98 76.62 147.48 81.25 134.13 85.87 112.03 90.5 84.67 95.12 56.37 99.74 31.6 104.37 14.26 108.99 7.1 113.61 11.25 118.24 26.05 122.86 49.16 127.49 76.94 132.11 105"/>
      </g>
    </g>
  </g>
</g>
  <g class="guide ylabels" font-size="2.82" font-family="'PT Sans Caption','Helvetica Neue','Helvetica',sans-serif" fill="#6C606B" id="img-110985b4-11">
    <text x="15.83" y="78.71" text-anchor="end" dy="0.35em">0.0</text>
    <text x="15.83" y="42.86" text-anchor="end" dy="0.35em">0.5</text>
    <text x="15.83" y="7" text-anchor="end" dy="0.35em">1.0</text>
  </g>
  <g font-size="3.88" font-family="'PT Sans','Helvetica Neue','Helvetica',sans-serif" fill="#564A55" stroke="#000000" stroke-opacity="0.000" id="img-110985b4-12">
    <text x="8.81" y="42.86" text-anchor="end" dy="0.35em">y</text>
  </g>
</g>
<defs>
  <clipPath id="img-110985b4-4">
  <path d="M16.83,5 L 136.42 5 136.42 80.71 16.83 80.71" />
</clipPath>
</defs>
</svg>
