<?xml version="1.0" encoding="utf-8"?>
<svg xmlns="http://www.w3.org/2000/svg" xmlns:xlink="http://www.w3.org/1999/xlink" width="600" height="400" viewBox="0 0 2400 1600">
<defs>
  <clipPath id="clip4600">
    <rect x="0" y="0" width="2000" height="2000"/>
  </clipPath>
</defs>
<defs>
  <clipPath id="clip4601">
    <rect x="0" y="0" width="2400" height="1600"/>
  </clipPath>
</defs>
<polygon clip-path="url(#clip4601)" points="
0,1600 2400,1600 2400,0 0,0 
  " fill="#ffffff" fill-rule="evenodd" fill-opacity="1"/>
<defs>
  <clipPath id="clip4602">
    <rect x="480" y="0" width="1681" height="1600"/>
  </clipPath>
</defs>
<polygon clip-path="url(#clip4601)" points="
252.496,1440.48 2321.26,1440.48 2321.26,125.984 252.496,125.984 
  " fill="#ffffff" fill-rule="evenodd" fill-opacity="1"/>
<defs>
  <clipPath id="clip4603">
    <rect x="252" y="125" width="2070" height="1315"/>
  </clipPath>
</defs>
<polyline clip-path="url(#clip4603)" style="stroke:#000000; stroke-width:2; stroke-opacity:0.1; fill:none" points="
  252.496,1440.48 252.496,125.984 
  "/>
<polyline clip-path="url(#clip4603)" style="stroke:#000000; stroke-width:2; stroke-opacity:0.1; fill:none" points="
  769.687,1440.48 769.687,125.984 
  "/>
<polyline clip-path="url(#clip4603)" style="stroke:#000000; stroke-width:2; stroke-opacity:0.1; fill:none" points="
  1286.88,1440.48 1286.88,125.984 
  "/>
<polyline clip-path="url(#clip4603)" style="stroke:#000000; stroke-width:2; stroke-opacity:0.1; fill:none" points="
  1804.07,1440.48 1804.07,125.984 
  "/>
<polyline clip-path="url(#clip4603)" style="stroke:#000000; stroke-width:2; stroke-opacity:0.1; fill:none" points="
  252.496,1440.48 2321.26,1440.48 
  "/>
<polyline clip-path="url(#clip4603)" style="stroke:#000000; stroke-width:2; stroke-opacity:0.1; fill:none" points="
  252.496,1111.86 2321.26,1111.86 
  "/>
<polyline clip-path="url(#clip4603)" style="stroke:#000000; stroke-width:2; stroke-opacity:0.1; fill:none" points="
  252.496,783.233 2321.26,783.233 
  "/>
<polyline clip-path="url(#clip4603)" style="stroke:#000000; stroke-width:2; stroke-opacity:0.1; fill:none" points="
  252.496,454.609 2321.26,454.609 
  "/>
<polyline clip-path="url(#clip4603)" style="stroke:#000000; stroke-width:2; stroke-opacity:0.1; fill:none" points="
  252.496,125.984 2321.26,125.984 
  "/>
<polyline clip-path="url(#clip4601)" style="stroke:#000000; stroke-width:4; stroke-opacity:1; fill:none" points="
  252.496,1440.48 2321.26,1440.48 
  "/>
<polyline clip-path="url(#clip4601)" style="stroke:#000000; stroke-width:4; stroke-opacity:1; fill:none" points="
  252.496,1440.48 252.496,125.984 
  "/>
<polyline clip-path="url(#clip4601)" style="stroke:#000000; stroke-width:4; stroke-opacity:1; fill:none" points="
  252.496,1440.48 252.496,1420.77 
  "/>
<polyline clip-path="url(#clip4601)" style="stroke:#000000; stroke-width:4; stroke-opacity:1; fill:none" points="
  769.687,1440.48 769.687,1420.77 
  "/>
<polyline clip-path="url(#clip4601)" style="stroke:#000000; stroke-width:4; stroke-opacity:1; fill:none" points="
  1286.88,1440.48 1286.88,1420.77 
  "/>
<polyline clip-path="url(#clip4601)" style="stroke:#000000; stroke-width:4; stroke-opacity:1; fill:none" points="
  1804.07,1440.48 1804.07,1420.77 
  "/>
<polyline clip-path="url(#clip4601)" style="stroke:#000000; stroke-width:4; stroke-opacity:1; fill:none" points="
  252.496,1440.48 283.528,1440.48 
  "/>
<polyline clip-path="url(#clip4601)" style="stroke:#000000; stroke-width:4; stroke-opacity:1; fill:none" points="
  252.496,1111.86 283.528,1111.86 
  "/>
<polyline clip-path="url(#clip4601)" style="stroke:#000000; stroke-width:4; stroke-opacity:1; fill:none" points="
  252.496,783.233 283.528,783.233 
  "/>
<polyline clip-path="url(#clip4601)" style="stroke:#000000; stroke-width:4; stroke-opacity:1; fill:none" points="
  252.496,454.609 283.528,454.609 
  "/>
<polyline clip-path="url(#clip4601)" style="stroke:#000000; stroke-width:4; stroke-opacity:1; fill:none" points="
  252.496,125.984 283.528,125.984 
  "/>
<g clip-path="url(#clip4601)">
<text style="fill:#000000; fill-opacity:1; font-family:Arial,Helvetica Neue,Helvetica,sans-serif; font-size:48px; text-anchor:middle;" transform="rotate(0, 252.496, 1494.48)" x="252.496" y="1494.48">0.8</text>
</g>
<g clip-path="url(#clip4601)">
<text style="fill:#000000; fill-opacity:1; font-family:Arial,Helvetica Neue,Helvetica,sans-serif; font-size:48px; text-anchor:middle;" transform="rotate(0, 769.687, 1494.48)" x="769.687" y="1494.48">0.9</text>
</g>
<g clip-path="url(#clip4601)">
<text style="fill:#000000; fill-opacity:1; font-family:Arial,Helvetica Neue,Helvetica,sans-serif; font-size:48px; text-anchor:middle;" transform="rotate(0, 1286.88, 1494.48)" x="1286.88" y="1494.48">1.0</text>
</g>
<g clip-path="url(#clip4601)">
<text style="fill:#000000; fill-opacity:1; font-family:Arial,Helvetica Neue,Helvetica,sans-serif; font-size:48px; text-anchor:middle;" transform="rotate(0, 1804.07, 1494.48)" x="1804.07" y="1494.48">1.1</text>
</g>
<g clip-path="url(#clip4601)">
<text style="fill:#000000; fill-opacity:1; font-family:Arial,Helvetica Neue,Helvetica,sans-serif; font-size:48px; text-anchor:end;" transform="rotate(0, 228.496, 1457.98)" x="228.496" y="1457.98">-0.2</text>
</g>
<g clip-path="url(#clip4601)">
<text style="fill:#000000; fill-opacity:1; font-family:Arial,Helvetica Neue,Helvetica,sans-serif; font-size:48px; text-anchor:end;" transform="rotate(0, 228.496, 1129.36)" x="228.496" y="1129.36">-0.1</text>
</g>
<g clip-path="url(#clip4601)">
<text style="fill:#000000; fill-opacity:1; font-family:Arial,Helvetica Neue,Helvetica,sans-serif; font-size:48px; text-anchor:end;" transform="rotate(0, 228.496, 800.733)" x="228.496" y="800.733">0.0</text>
</g>
<g clip-path="url(#clip4601)">
<text style="fill:#000000; fill-opacity:1; font-family:Arial,Helvetica Neue,Helvetica,sans-serif; font-size:48px; text-anchor:end;" transform="rotate(0, 228.496, 472.109)" x="228.496" y="472.109">0.1</text>
</g>
<g clip-path="url(#clip4601)">
<text style="fill:#000000; fill-opacity:1; font-family:Arial,Helvetica Neue,Helvetica,sans-serif; font-size:48px; text-anchor:end;" transform="rotate(0, 228.496, 143.484)" x="228.496" y="143.484">0.2</text>
</g>
<g clip-path="url(#clip4601)">
<text style="fill:#000000; fill-opacity:1; font-family:Arial,Helvetica Neue,Helvetica,sans-serif; font-size:84px; text-anchor:middle;" transform="rotate(0, 1286.88, 73.2)" x="1286.88" y="73.2">Starting near L1</text>
</g>
<g clip-path="url(#clip4601)">
<text style="fill:#000000; fill-opacity:1; font-family:Arial,Helvetica Neue,Helvetica,sans-serif; font-size:66px; text-anchor:middle;" transform="rotate(0, 1286.88, 1590.4)" x="1286.88" y="1590.4">X</text>
</g>
<g clip-path="url(#clip4601)">
<text style="fill:#000000; fill-opacity:1; font-family:Arial,Helvetica Neue,Helvetica,sans-serif; font-size:66px; text-anchor:middle;" transform="rotate(-90, 57.6, 783.233)" x="57.6" y="783.233">Y</text>
</g>
<polyline clip-path="url(#clip4603)" style="stroke:#009af9; stroke-width:4; stroke-opacity:1; fill:none" points="
  -4400.84,-2483.33 -4349.41,-2486.44 -4297.93,-2489.23 -4246.41,-2491.69 -4194.85,-2493.82 -4143.26,-2495.63 -4091.65,-2497.1 -4040.01,-2498.25 -3988.36,-2499.07 -3936.7,-2499.57 
  -3885.03,-2499.73 -3833.36,-2499.57 -3781.7,-2499.07 -3730.05,-2498.25 -3678.42,-2497.1 -3626.8,-2495.63 -3575.21,-2493.82 -3523.65,-2491.69 -3472.13,-2489.23 -3420.65,-2486.44 
  -3369.22,-2483.33 -3317.83,-2479.89 -3266.51,-2476.12 -3215.24,-2472.03 -3164.05,-2467.61 -3112.92,-2462.87 -3061.87,-2457.8 -3010.91,-2452.4 -2960.03,-2446.69 -2909.25,-2440.65 
  -2858.56,-2434.29 -2807.97,-2427.61 -2757.49,-2420.6 -2707.13,-2413.28 -2656.88,-2405.63 -2606.76,-2397.67 -2556.76,-2389.39 -2506.9,-2380.79 -2457.17,-2371.88 -2407.59,-2362.65 
  -2358.15,-2353.1 -2308.87,-2343.24 -2259.75,-2333.07 -2210.78,-2322.59 -2161.99,-2311.8 -2113.37,-2300.69 -2064.92,-2289.28 -2016.66,-2277.56 -1968.58,-2265.54 -1920.7,-2253.21 
  -1873.01,-2240.58 -1825.52,-2227.64 -1778.24,-2214.4 -1731.17,-2200.87 -1684.31,-2187.03 -1637.68,-2172.9 -1591.27,-2158.47 -1545.08,-2143.75 -1499.14,-2128.74 -1453.43,-2113.43 
  -1407.96,-2097.84 -1362.74,-2081.95 -1317.78,-2065.78 -1273.07,-2049.33 -1228.62,-2032.59 -1184.44,-2015.57 -1140.53,-1998.27 -1096.89,-1980.7 -1053.53,-1962.84 -1010.46,-1944.71 
  -967.669,-1926.31 -925.172,-1907.64 -882.972,-1888.7 -841.072,-1869.49 -799.476,-1850.02 -758.189,-1830.28 -717.214,-1810.28 -676.556,-1790.02 -636.219,-1769.51 -596.207,-1748.74 
  -556.524,-1727.72 -517.174,-1706.44 -478.16,-1684.92 -439.487,-1663.15 -401.159,-1641.13 -363.179,-1618.87 -325.551,-1596.38 -288.28,-1573.64 -251.367,-1550.67 -214.819,-1527.46 
  -178.637,-1504.03 -142.826,-1480.36 -107.389,-1456.47 -72.3298,-1432.36 -37.6519,-1408.02 -3.35873,-1383.47 30.5462,-1358.69 64.0597,-1333.71 97.1782,-1308.51 129.898,-1283.1 
  162.217,-1257.49 194.131,-1231.67 225.638,-1205.65 256.733,-1179.43 287.414,-1153.02 317.677,-1126.41 347.521,-1099.61 376.941,-1072.62 405.935,-1045.45 434.5,-1018.1 
  462.633,-990.559 490.331,-962.846 517.592,-934.958 544.412,-906.898 570.789,-878.669 596.721,-850.274 622.205,-821.715 647.238,-792.997 671.818,-764.12 695.942,-735.089 
  719.608,-705.906 742.813,-676.574 765.556,-647.096 787.834,-617.475 809.644,-587.714 830.985,-557.816 851.854,-527.783 872.25,-497.62 892.17,-467.329 911.612,-436.912 
  930.575,-406.374 949.056,-375.716 967.053,-344.943 984.566,-314.057 1001.59,-283.061 1018.13,-251.958 1034.17,-220.752 1049.73,-189.446 1064.79,-158.042 1079.36,-126.544 
  1093.43,-94.9553 1107,-63.2787 1120.07,-31.5174 1132.64,0.325388 1144.71,32.2464 1156.28,64.2426 1167.34,96.3106 1177.9,128.447 1187.95,160.65 1197.5,192.914 
  1206.53,225.238 1215.06,257.617 1223.08,290.049 1230.58,322.53 1237.58,355.057 1244.06,387.627 1250.03,420.237 1255.49,452.883 1260.43,485.562 1264.86,518.271 
  1268.77,551.006 1272.17,583.764 1275.05,616.543 1277.41,649.338 1279.26,682.146 1280.59,714.965 1281.41,747.79 1281.71,780.619 1281.49,813.448 1280.76,846.274 
  1279.51,879.094 1277.74,911.905 1275.46,944.702 1272.66,977.483 1269.34,1010.25 1265.51,1042.98 1261.17,1075.7 1256.31,1108.38 1250.93,1141.03 1245.05,1173.65 
  1238.65,1206.23 1231.73,1238.76 1224.31,1271.25 1216.37,1303.69 1207.93,1336.08 1198.97,1368.41 1189.51,1400.68 1179.54,1432.9 1169.06,1465.04 1158.08,1497.12 
  1146.59,1529.13 1134.6,1561.06 1122.11,1592.92 1109.11,1624.69 1095.62,1656.38 1081.63,1687.99 1067.14,1719.5 1052.16,1750.92 1036.68,1782.24 1020.72,1813.46 
  1004.26,1844.58 987.31,1875.59 969.875,1906.5 951.955,1937.29 933.55,1967.97 914.664,1998.52 895.299,2028.96 875.455,2059.27 855.134,2089.46 834.34,2119.51 
  813.074,2149.43 791.339,2179.21 769.135,2208.85 746.466,2238.36 723.334,2267.71 699.742,2296.92 675.69,2325.97 651.183,2354.87 626.222,2383.62 600.81,2412.2 
  574.949,2440.62 548.643,2468.88 521.893,2496.97 494.702,2524.88 467.073,2552.62 439.009,2580.19 410.513,2607.57 381.587,2634.78 352.235,2661.79 322.459,2688.62 
  292.262,2715.26 261.647,2741.71 230.618,2767.96 199.177,2794.01 167.327,2819.86 135.073,2845.5 102.416,2870.94 69.3608,2896.18 35.9101,2921.2 2.06723,2946 
  -32.1643,2970.59 -66.7812,2994.96 -101.78,3019.11 -137.157,3043.04 -172.909,3066.74 -209.032,3090.21 -245.522,3113.46 -282.377,3136.46 -319.591,3159.24 -357.163,3181.77 
  -395.087,3204.07 -433.36,3226.12 -471.978,3247.93 -510.938,3269.5 -550.235,3290.81 -589.865,3311.87 -629.825,3332.68 -670.111,3353.24 -710.718,3373.54 -751.642,3393.58 
  -792.88,3413.36 -834.427,3432.87 -876.279,3452.12 -918.431,3471.11 -960.881,3489.82 -1003.62,3508.27 -1046.65,3526.44 -1089.97,3544.34 -1133.56,3561.96 -1177.43,3579.3 
  -1221.57,3596.37 -1265.97,3613.15 -1310.64,3629.65 -1355.57,3645.87 -1400.74,3661.79 -1446.17,3677.44 -1491.84,3692.79 -1537.75,3707.85 -1583.89,3722.62 -1630.27,3737.09 
  -1676.87,3751.27 -1723.69,3765.15 -1770.73,3778.73 -1817.98,3792.02 -1865.43,3805 -1913.09,3817.68 -1960.94,3830.06 -2008.99,3842.13 -2057.22,3853.9 -2105.64,3865.36 
  -2154.23,3876.51 -2203,3887.36 -2251.94,3897.89 -2301.04,3908.11 -2350.29,3918.02 -2399.71,3927.61 -2449.27,3936.89 -2498.97,3945.86 -2548.81,3954.51 -2598.79,3962.84 
  -2648.89,3970.85 -2699.12,3978.55 -2749.47,3985.92 -2799.93,3992.98 -2850.49,3999.71 -2901.17,4006.13 -2951.94,4012.22 -3002.8,4017.98 -3053.75,4023.43 -3104.79,4028.55 
  -3155.9,4033.34 -3207.09,4037.81 -3258.34,4041.96 -3309.66,4045.78 -3361.03,4049.27 -3412.46,4052.44 -3463.93,4055.27 -3515.45,4057.79 -3567,4059.97 -3618.58,4061.83 
  -3670.19,4063.36 -3721.83,4064.56 -3773.48,4065.43 -3825.14,4065.98 -3876.8,4066.19 -3928.47,4066.08 -3980.13,4065.64 -4031.78,4064.87 -4083.42,4063.78 -4135.04,4062.35 
  -4186.64,4060.6 -4238.2,4058.52 -4289.73,4056.11 -4341.21,4053.38 -4392.66,4050.31 -4444.05,4046.92 -4495.38,4043.21 -4546.66,4039.17 -4597.87,4034.8 -4649,4030.11 
  -4700.06,4025.09 -4751.04,4019.75 -4801.93,4014.09 -4852.73,4008.1 -4903.44,4001.79 -4954.04,3995.16 -5004.54,3988.21 -5054.92,3980.93 -5105.18,3973.34 -5155.33,3965.43 
  -5205.35,3957.2 -5255.23,3948.65 -5304.98,3939.78 -5354.59,3930.6 -5404.04,3921.11 -5453.35,3911.3 -5502.5,3901.18 -5551.49,3890.75 -5600.31,3880 -5648.96,3868.95 
  -5697.44,3857.59 -5745.73,3845.92 -5793.84,3833.94 -5841.75,3821.66 -5889.47,3809.07 -5936.99,3796.19 -5984.31,3783 -6031.41,3769.51 -6078.3,3755.72 -6124.97,3741.64 
  -6171.42,3727.26 -6217.64,3712.58 -6263.62,3697.62 -6309.37,3682.36 -6354.87,3666.81 -6400.13,3650.97 -6445.14,3634.85 -6489.89,3618.44 -6534.38,3601.74 -6578.6,3584.77 
  -6622.56,3567.51 -6666.24,3549.98 -6709.64,3532.17 -6752.76,3514.09 -6795.6,3495.73 -6838.14,3477.1 -6880.39,3458.2 -6922.34,3439.03 -6963.98,3419.6 -7005.32,3399.91 
  -7046.34,3379.95 -7087.05,3359.73 -7127.44,3339.26 -7167.5,3318.53 -7207.24,3297.55 -7246.64,3276.31 -7285.71,3254.83 -7324.44,3233.1 -7362.82,3211.12 -7400.86,3188.9 
  -7438.54,3166.44 -7475.87,3143.74 -7512.84,3120.81 -7549.45,3097.64 -7585.69,3074.24 -7621.56,3050.62 -7657.05,3026.76 -7692.17,3002.68 -7726.91,2978.38 -7761.27,2953.86 
  -7795.23,2929.12 -7828.81,2904.17 -7861.99,2879 -7894.78,2853.63 -7927.16,2828.05 -7959.14,2802.26 -7990.71,2776.28 -8021.87,2750.09 -8052.62,2723.71 -8082.95,2697.13 
  -8112.86,2670.36 -8142.35,2643.4 -8171.41,2616.26 -8200.04,2588.93 -8228.24,2561.42 -8256.01,2533.74 -8283.34,2505.88 -8310.23,2477.84 -8336.68,2449.64 -8362.68,2421.27 
  -8388.24,2392.74 -8413.34,2364.05 -8438,2335.2 -8462.19,2306.19 -8485.93,2277.03 -8509.21,2247.72 -8532.03,2218.27 -8554.38,2188.67 -8576.26,2158.93 -8597.68,2129.05 
  -8618.62,2099.04 -8639.1,2068.9 -8659.09,2038.63 -8678.61,2008.23 -8697.65,1977.71 -8716.21,1947.07 -8734.28,1916.32 -8751.87,1885.45 -8768.97,1854.47 -8785.59,1823.39 
  -8801.71,1792.2 -8817.35,1760.91 -8832.49,1729.52 -8847.13,1698.03 -8861.28,1666.46 -8874.93,1634.8 -8888.08,1603.05 -8900.74,1571.22 -8912.89,1539.31 -8924.53,1507.33 
  -8935.68,1475.27 -8946.32,1443.14 -8956.45,1410.95 -8966.07,1378.7 -8975.19,1346.38 -8983.8,1314.01 -8991.9,1281.59 -8999.48,1249.11 -9006.56,1216.59 -9013.12,1184.03 
  -9019.18,1151.43 -9024.71,1118.79 -9029.74,1086.11 -9034.25,1053.41 -9038.24,1020.68 -9041.72,987.921 -9044.68,955.146 -9047.13,922.353 -9049.06,889.547 -9050.48,856.729 
  -9051.38,823.905 -9051.76,791.076 -9051.62,758.247 -9050.97,725.42 -9049.8,692.599 -9048.12,659.787 -9045.92,626.987 -9043.2,594.203 -9039.97,561.438 -9036.22,528.695 
  -9031.96,495.978 -9027.18,463.289 -9021.89,430.632 -9016.08,398.01 -9009.76,365.427 -9002.93,332.886 -8995.59,300.39 -8987.73,267.942 -8979.37,235.546 -8970.49,203.204 
  -8961.11,170.92 -8951.22,138.698 -8940.82,106.54 -8929.92,74.4496 -8918.51,42.4302 -8906.6,10.4849 -8894.19,-21.3832 -8881.28,-53.1708 -8867.86,-84.8747 -8853.95,-116.492 
  -8839.55,-148.019 -8824.64,-179.453 -8809.24,-210.791 -8793.35,-242.029 -8776.97,-273.165 -8760.1,-304.195 -8742.75,-335.117 -8724.9,-365.926 -8706.58,-396.621 -8687.77,-427.198 
  -8668.48,-457.653 -8648.71,-487.985 -8628.46,-518.19 -8607.75,-548.264 -8586.55,-578.205 -8564.89,-608.01 -8542.76,-637.676 -8520.17,-667.2 -8497.11,-696.579 -8473.59,-725.81 
  -8449.61,-754.889 -8425.18,-783.816 -8400.29,-812.585 -8374.95,-841.195 -8349.16,-869.642 -8322.92,-897.924 -8296.24,-926.038 -8269.12,-953.981 -8241.56,-981.751 -8213.57,-1009.34 
  -8185.14,-1036.76 -8156.28,-1063.99 -8127,-1091.04 -8097.29,-1117.89 -8067.16,-1144.56 -8036.61,-1171.04 -8005.65,-1197.32 -7974.27,-1223.4 -7942.49,-1249.29 -7910.3,-1274.97 
  -7877.71,-1300.44 -7844.71,-1325.7 -7811.33,-1350.76 -7777.55,-1375.6 -7743.38,-1400.22 -7708.82,-1424.63 -7673.88,-1448.82 -7638.56,-1472.78 -7602.87,-1496.52 -7566.81,-1520.02 
  -7530.38,-1543.3 -7493.58,-1566.35 -7456.42,-1589.16 -7418.91,-1611.73 -7381.04,-1634.07 -7342.82,-1656.16 -7304.26,-1678.01 -7265.35,-1699.61 -7226.11,-1720.97 -7186.53,-1742.07 
  -7146.62,-1762.92 -7106.39,-1783.52 -7065.83,-1803.86 -7024.96,-1823.94 -6983.77,-1843.76 -6942.27,-1863.32 -6900.47,-1882.61 -6858.36,-1901.64 -6815.96,-1920.39 -6773.27,-1938.88 
  -6730.28,-1957.1 -6687.01,-1975.04 -6643.46,-1992.7 -6599.64,-2010.09 -6555.54,-2027.2 -6511.18,-2044.03 -6466.55,-2060.57 -6421.67,-2076.83 -6376.53,-2092.81 -6331.14,-2108.5 
  -6285.51,-2123.89 -6239.64,-2139 -6193.53,-2153.82 -6147.19,-2168.34 -6100.63,-2182.56 -6053.84,-2196.49 -6006.84,-2210.12 -5959.63,-2223.46 -5912.2,-2236.49 -5864.58,-2249.22 
  -5816.76,-2261.64 -5768.74,-2273.77 -5720.53,-2285.58 -5672.15,-2297.09 -5623.58,-2308.29 -5574.84,-2319.18 -5525.93,-2329.77 -5476.86,-2340.04 -5427.62,-2349.99 -5378.24,-2359.64 
  -5328.7,-2368.97 -5279.02,-2377.99 -5229.2,-2386.68 -5179.24,-2395.07 -5129.16,-2403.13 -5078.95,-2410.88 -5028.62,-2418.3 -4978.18,-2425.41 -4927.63,-2432.19 -4876.97,-2438.66 
  -4826.22,-2444.8 -4775.37,-2450.62 -4724.43,-2456.11 -4673.41,-2461.29 -4622.31,-2466.13 -4571.13,-2470.66 -4519.89,-2474.85 -4468.58,-2478.72 -4417.22,-2482.27 -4365.8,-2485.49 
  -4314.33,-2488.38 -4262.82,-2490.94 -4211.28,-2493.18 -4159.7,-2495.09 -4108.09,-2496.67 -4056.46,-2497.92 -4004.81,-2498.85 -3953.15,-2499.44 -3901.49,-2499.71 
  "/>
<polyline clip-path="url(#clip4603)" style="stroke:#e26f46; stroke-width:12; stroke-opacity:1; fill:none" points="
  923.111,783.233 923.085,783.233 923.008,783.231 922.878,783.226 922.696,783.216 922.461,783.199 922.172,783.174 921.828,783.139 921.427,783.093 920.97,783.033 
  920.453,782.957 919.876,782.866 919.236,782.755 918.53,782.624 917.758,782.471 916.915,782.293 916,782.09 915.008,781.858 913.937,781.596 912.783,781.302 
  911.542,780.973 910.209,780.608 908.781,780.203 907.253,779.757 905.619,779.267 903.873,778.731 902.011,778.145 900.026,777.506 897.912,776.813 895.662,776.06 
  893.268,775.246 890.724,774.367 888.02,773.418 885.149,772.396 882.103,771.297 878.871,770.116 875.444,768.849 871.814,767.491 867.968,766.036 863.898,764.479 
  859.59,762.814 855.034,761.036 850.218,759.137 845.13,757.111 839.758,754.95 834.088,752.647 828.107,750.193 821.803,747.581 815.162,744.801 808.169,741.844 
  800.81,738.7 793.072,735.359 784.939,731.81 776.396,728.043 767.431,724.044 758.026,719.803 748.169,715.307 737.845,710.543 727.038,705.497 715.734,700.156 
  703.919,694.506 691.578,688.532 678.696,682.22 665.26,675.552 651.255,668.515 636.665,661.091 621.478,653.264 605.678,645.02 589.252,636.341 572.185,627.211 
  554.464,617.613 536.074,607.531 517.001,596.948 497.232,585.848 476.752,574.213 455.549,562.029 433.608,549.279 410.914,535.947 387.449,522.016 363.196,507.47 
  338.137,492.293 312.254,476.471 285.529,459.991 257.94,442.839 229.47,425.005 200.096,406.476 169.798,387.242 138.554,367.294 106.341,346.624 73.1376,325.222 
  38.9192,303.083 3.66246,280.199 -32.654,256.57 -70.0636,232.194 -108.604,207.069 -148.314,181.196 -189.231,154.579 -231.392,127.223 -274.837,99.1371 -319.601,70.333 
  -365.724,40.8244 -413.243,10.628 -462.196,-20.237 -512.619,-51.7488 -564.552,-83.883 -618.032,-116.612 -673.095,-149.908 -729.781,-183.736 -788.119,-218.061 -848.14,-252.835 
  -909.892,-288.006 -973.421,-323.522 -1038.76,-359.327 -1105.95,-395.363 -1174.99,-431.569 -1245.9,-467.882 -1318.7,-504.235 -1393.37,-540.562 -1469.9,-576.79 -1548.27,-612.845 
  -1628.45,-648.653 -1710.42,-684.133 -1794.12,-719.206 -1879.51,-753.786 -1966.52,-787.787 -2055.08,-821.114 -2145.11,-853.678 -2236.5,-885.418 -2329.16,-916.279 -2422.98,-946.211 
  -2517.85,-975.168 -2613.65,-1003.11 -2710.26,-1030 -2807.55,-1055.8 -2905.39,-1080.49 -3003.62,-1104.05 -3102.12,-1126.46 -3200.72,-1147.7 -3299.26,-1167.76 -3397.59,-1186.65 
  -3495.52,-1204.36 -3592.89,-1220.9 -3689.54,-1236.28 -3785.42,-1250.56 -3880.43,-1263.78 -3974.45,-1275.99 -4067.39,-1287.24 -4159.15,-1297.57 -4249.66,-1307.02 -4338.83,-1315.65 
  -4426.58,-1323.51 -4512.86,-1330.63 -4597.61,-1337.07 -4680.78,-1342.88 -4762.33,-1348.11 -4842.22,-1352.8 -4920.42,-1357.01 -4996.91,-1360.77 -5071.69,-1364.14 -5144.73,-1367.15 
  -5216.03,-1369.84 -5285.58,-1372.24 -5353.38,-1374.4 -5419.43,-1376.34 -5483.73,-1378.1 -5546.29,-1379.7 -5607.11,-1381.16 -5666.22,-1382.51 -5723.62,-1383.77 -5779.33,-1384.96 
  -5833.38,-1386.09 -5885.79,-1387.16 -5936.58,-1388.2 -5985.79,-1389.21 -6033.42,-1390.21 -6079.51,-1391.19 -6124.06,-1392.17 -6167.1,-1393.14 -6208.66,-1394.11 -6248.76,-1395.09 
  -6287.42,-1396.06 -6324.68,-1397.03 -6360.55,-1397.99 -6395.07,-1398.95 -6428.26,-1399.89 -6460.15,-1400.8 -6490.76,-1401.69 -6520.14,-1402.53 -6548.29,-1403.33 -6575.25,-1404.07 
  -6601.05,-1404.74 -6625.71,-1405.33 -6649.25,-1405.83 -6671.72,-1406.23 -6693.12,-1406.52 -6713.49,-1406.68 -6732.87,-1406.7 -6751.26,-1406.56 -6768.72,-1406.26 -6785.25,-1405.77 
  -6800.9,-1405.09 -6815.68,-1404.19 -6829.64,-1403.07 -6842.78,-1401.71 -6855.16,-1400.08 -6866.78,-1398.19 -6877.69,-1396 -6887.9,-1393.51 -6897.45,-1390.7 -6906.37,-1387.55 
  -6914.68,-1384.04 -6922.41,-1380.17 -6929.59,-1375.92 -6936.25,-1371.26 -6942.41,-1366.19 -6948.12,-1360.68 -6953.38,-1354.73 -6958.25,-1348.31 -6962.73,-1341.41 -6966.86,-1334.01 
  -6970.67,-1326.1 -6974.19,-1317.67 -6977.44,-1308.69 -6980.45,-1299.15 -6983.24,-1289.04 -6985.85,-1278.33 -6988.29,-1267.01 -6990.59,-1255.07 -6992.78,-1242.48 -6994.88,-1229.24 
  -6996.91,-1215.32 -6998.89,-1200.71 -7000.85,-1185.39 -7002.81,-1169.36 -7004.79,-1152.59 -7006.81,-1135.07 -7008.89,-1116.78 -7011.05,-1097.71 -7013.31,-1077.84 -7015.69,-1057.17 
  -7018.19,-1035.66 -7020.84,-1013.32 -7023.63,-990.116 -7026.58,-966.035 -7029.69,-941.06 -7032.97,-915.175 -7036.42,-888.365 -7040.04,-860.613 -7043.82,-831.904 -7047.78,-802.224 
  -7051.89,-771.558 -7056.15,-739.892 -7060.55,-707.211 -7065.08,-673.503 -7069.72,-638.754 -7074.46,-602.953 -7079.27,-566.092 -7084.13,-528.155 -7088.99,-489.129 -7093.82,-449.001 
  -7098.58,-407.76 -7103.22,-365.4 -7107.7,-321.915 -7111.96,-277.302 -7115.95,-231.56 -7119.62,-184.692 -7122.9,-136.701 -7125.73,-87.5934 -7128.04,-37.3787 -7129.78,13.9322 
  -7130.85,66.3258 -7131.19,119.785 -7130.72,174.284 -7129.34,229.795 -7126.96,286.288 -7123.5,343.729 -7118.87,402.077 -7113,461.287 -7105.82,521.307 -7097.24,582.081 
  -7087.21,643.547 -7075.64,705.638 -7062.48,768.282 -7047.66,831.402 -7031.13,894.914 -7012.82,958.718 -6992.68,1022.7 -6970.71,1086.79 -6946.92,1150.9 -6921.3,1214.94 
  -6893.89,1278.86 -6864.71,1342.56 -6833.79,1405.96 -6801.19,1469 -6766.96,1531.59 -6731.16,1593.65 -6693.86,1655.1 -6655.14,1715.88 -6615.11,1775.9 -6573.84,1835.08 
  -6531.45,1893.35 -6488.06,1950.63 -6443.79,2006.85 -6398.77,2061.92 -6353.1,2115.87 -6306.87,2168.69 -6260.21,2220.38 -6213.22,2270.93 -6166.03,2320.32 -6118.74,2368.54 
  -6071.44,2415.61 -6024.24,2461.5 -5977.22,2506.24 -5930.48,2549.82 -5884.1,2592.26 -5838.15,2633.56 -5792.7,2673.74 -5747.83,2712.83 -5703.6,2750.84 -5660.05,2787.8 
  -5617.23,2823.72 -5575.19,2858.62 -5533.97,2892.53 -5493.61,2925.46 -5454.14,2957.44 -5415.6,2988.49 -5378.01,3018.62 -5341.38,3047.86 -5305.74,3076.22 -5271.09,3103.72 
  -5237.45,3130.39 -5204.82,3156.23 -5173.2,3181.27 -5142.57,3205.52 -5112.94,3229 -5084.29,3251.72 -5056.59,3273.71 -5029.83,3294.97 -5004,3315.53 -4979.1,3335.38 
  -4955.1,3354.54 -4932,3373.02 -4909.77,3390.83 -4888.38,3407.98 -4867.83,3424.48 -4848.08,3440.33 -4829.11,3455.55 -4810.89,3470.14 -4793.4,3484.11 -4776.6,3497.46 
  -4760.47,3510.21 -4744.97,3522.36 -4730.08,3533.91 -4715.75,3544.87 -4701.95,3555.24 -4688.64,3565.04 -4675.79,3574.27 -4663.38,3582.92 -4651.36,3591.01 -4639.71,3598.54 
  -4628.38,3605.51 -4617.34,3611.92 -4606.56,3617.78 -4595.99,3623.09 -4585.61,3627.86 -4575.37,3632.09 -4565.25,3635.78 -4555.19,3638.94 -4545.17,3641.57 -4535.14,3643.67 
  -4525.08,3645.25 -4514.93,3646.3 -4504.67,3646.85 -4494.25,3646.88 -4483.64,3646.4 -4472.79,3645.41 -4461.67,3643.93 -4450.25,3641.94 -4438.49,3639.46 -4426.34,3636.49 
  -4413.78,3633.03 -4400.76,3629.08 -4387.24,3624.64 -4373.2,3619.71 -4358.59,3614.31 -4343.38,3608.42 -4327.53,3602.05 -4311,3595.2 -4293.77,3587.87 -4275.8,3580.07 
  -4257.05,3571.79 -4237.49,3563.04 -4217.09,3553.82 -4195.81,3544.12 -4173.63,3533.96 -4150.5,3523.32 -4126.4,3512.21 -4101.3,3500.64 -4075.18,3488.59 -4048,3476.07 
  -4019.73,3463.05 -3990.34,3449.55 -3959.82,3435.54 -3928.13,3421.02 -3895.25,3405.98 -3861.17,3390.4 -3825.85,3374.29 -3789.29,3357.63 -3751.47,3340.4 -3712.37,3322.6 
  -3671.98,3304.22 -3630.3,3285.23 -3587.3,3265.62 -3542.98,3245.39 -3497.34,3224.52 -3450.37,3202.99 -3402.06,3180.78 -3352.44,3157.89 -3301.5,3134.29 -3249.27,3109.94 
  -3195.76,3084.8 -3141,3058.85 -3085.02,3032.05 -3027.85,3004.36 -2969.54,2975.76 -2910.12,2946.22 -2849.64,2915.71 -2788.17,2884.2 -2725.75,2851.67 -2662.46,2818.1 
  -2598.36,2783.46 -2533.53,2747.73 -2468.04,2710.89 -2401.98,2672.93 -2335.44,2633.82 -2268.5,2593.56 -2201.31,2552.12 -2134.02,2509.51 -2066.76,2465.71 -1999.66,2420.72 
  -1932.82,2374.55 -1866.36,2327.19 -1800.4,2278.67 -1735.06,2229.01 -1670.44,2178.25 -1606.66,2126.42 -1543.83,2073.57 -1482.06,2019.76 -1421.47,1965.04 -1362.15,1909.49 
  -1304.23,1853.19 -1247.81,1796.22 -1192.99,1738.66 -1139.88,1680.62 -1088.58,1622.22 -1039.19,1563.54 -991.69,1504.64 -946.061,1445.61 -902.297,1386.53 -860.383,1327.51 
  -820.3,1268.62 -782.021,1209.95 -745.517,1151.57 -710.751,1093.56 -677.683,1036 -646.266,978.962 -616.449,922.509 -588.175,866.709 -561.382,811.627 -536.003,757.322 
  -511.965,703.853 -489.191,651.275 -467.603,599.633 -447.139,548.94 -427.724,499.222 -409.286,450.506 -391.757,402.815 -375.071,356.169 -359.167,310.585 -343.986,266.078 
  -329.473,222.659 -315.577,180.336 -302.249,139.115 -289.446,98.9961 -277.126,59.9799 -265.25,22.062 -253.786,-14.7646 -242.701,-50.5098 -231.969,-85.1867 -221.566,-118.811 
  -211.467,-151.395 -201.651,-182.942 -192.1,-213.463 -182.803,-242.971 -173.746,-271.478 -164.921,-298.997 -156.319,-325.544 -147.936,-351.132 -139.769,-375.777 -131.815,-399.495 
  -124.076,-422.304 -116.555,-444.222 -109.256,-465.266 -102.187,-485.455 -95.3574,-504.811 -88.7777,-523.352 -82.4616,-541.101 -76.4245,-558.08 -70.6776,-574.308 -65.2299,-589.8 
  -60.0971,-604.576 -55.2955,-618.654 -50.8417,-632.055 -46.7529,-644.797 -43.0468,-656.901 -39.7415,-668.386 -36.8555,-679.273 -34.4077,-689.583 -32.4178,-699.335 -30.9055,-708.551 
  -29.8913,-717.252 -29.396,-725.459 -29.4408,-733.193 -30.0476,-740.477 -31.2385,-747.332 -33.0361,-753.781 -35.4635,-759.845 -38.5381,-765.546 -42.2807,-770.903 -46.7145,-775.939 
  -51.863,-780.674 -57.7492,-785.131 -64.3963,-789.33 -71.8271,-793.293 -80.0645,-797.04 -89.1312,-800.594 -99.0496,-803.975 -109.842,-807.203 -121.532,-810.3 -134.139,-813.287 
  -147.688,-816.184 -162.2,-819.013 -177.696,-821.793 -194.198,-824.545 -211.728,-827.29 -230.307,-830.048 -249.956,-832.84 -270.697,-835.685 -292.551,-838.604 -315.534,-841.612 
  -339.672,-844.728 -364.993,-847.967 -391.522,-851.347 -419.287,-854.882 -448.313,-858.588 -478.626,-862.478 -510.253,-866.564 -543.22,-870.859 -577.552,-875.374 -613.274,-880.119 
  -650.413,-885.104 -688.994,-890.336 -729.041,-895.825 -770.581,-901.575 -813.637,-907.595 -858.235,-913.888 -904.399,-920.458 -952.154,-927.31 -1001.52,-934.446 -1052.52,-941.86 
  -1105.19,-949.544 -1159.56,-957.484 -1215.68,-965.666 -1273.58,-974.074 -1333.28,-982.688 -1394.83,-991.487 -1458.24,-1000.45 -1523.54,-1009.54 -1590.75,-1018.75 -1659.88,-1028.02 
  -1730.96,-1037.35 -1804,-1046.68 -1879.01,-1055.98 -1956,-1065.21 -2034.97,-1074.33 -2115.93,-1083.29 -2198.88,-1092.05 -2283.79,-1100.55 -2370.65,-1108.71 -2459.46,-1116.46 
  -2550.18,-1123.72 -2642.79,-1130.44 -2737.24,-1136.52 -2833.48,-1141.92 -2931.45,-1146.56 -3031.05,-1150.37 -3132.21,-1153.3 -3234.82,-1155.28 -3338.78,-1156.24 -3443.96,-1156.13 
  -3550.23,-1154.89 -3657.44,-1152.45 -3765.43,-1148.77 -3874.01,-1143.77 -3982.99,-1137.43 -4092.23,-1129.73 -4201.56,-1120.68 -4310.86,-1110.27 -4419.96,-1098.53 -4528.71,-1085.46 
  -4636.98,-1071.1 -4744.61,-1055.48 -4851.45,-1038.64 -4957.36,-1020.62 -5062.17,-1001.49 -5165.75,-981.302 -5267.95,-960.126 -5368.61,-938.036 -5467.59,-915.117 -5564.73,-891.458 
  -5659.89,-867.156 -5753.04,-842.286 -5844.24,-816.92 -5933.46,-791.145 -6020.66,-765.049 -6105.84,-738.713 -6188.98,-712.216 -6270.07,-685.631 -6349.11,-659.03 -6426.12,-632.479 
  -6501.09,-606.042 -6574.04,-579.777 -6645,-553.741 -6713.99,-527.986 -6781.04,-502.559 -6846.2,-477.505 -6909.5,-452.864 -6970.99,-428.665 -7030.7,-404.937 -7088.65,-381.708 
  -7144.9,-359.006 -7199.47,-336.853 -7252.41,-315.27 -7303.74,-294.273 -7353.5,-273.876 -7401.72,-254.093 -7448.44,-234.929 -7493.69,-216.392 -7537.49,-198.484 -7579.88,-181.204 
  -7620.89,-164.549 -7660.55,-148.513 -7698.87,-133.086 -7735.9,-118.256 -7771.65,-104.009 -7806.16,-90.3255 -7839.44,-77.1923 -7871.52,-64.6101 -7902.4,-52.5663 -7932.12,-41.0464 
  -7960.68,-30.0352 -7988.1,-19.5168 -8014.4,-9.47423 -8039.58,0.109935 -8063.68,9.25407 -8086.69,17.9773 -8108.64,26.2995 -8129.53,34.2413 -8149.39,41.8243 -8168.22,49.0707 
  -8186.03,56.0034 -8202.84,62.6463 -8218.65,69.024 -8233.48,75.1618 -8247.34,81.0846 -8260.24,86.8122 -8272.18,92.3683 -8283.19,97.7774 -8293.26,103.064 -8302.4,108.253 
  -8310.62,113.368 -8317.94,118.435 -8324.36,123.478 -8329.89,128.523 -8334.54,133.594 -8338.31,138.716 -8341.23,143.916 -8343.29,149.217 -8344.5,154.646 -8344.88,160.228 
  -8344.44,165.989 -8343.18,171.954 -8341.11,178.149 -8338.25,184.6 -8334.6,191.333 -8330.18,198.368 -8324.98,205.732 -8319.03,213.45 -8312.32,221.547 -8304.86,230.048 
  -8296.66,238.98 -8287.72,248.366 -8278.06,258.23 -8267.67,268.598 -8256.56,279.491 -8244.73,290.935 -8232.19,302.951 -8218.95,315.563 -8205.01,328.794 -8190.36,342.664 
  -8175.02,357.196 -8158.99,372.412 -8142.26,388.333 -8124.85,404.979 -8106.76,422.371 -8087.97,440.529 -8068.51,459.469 -8048.36,479.209 -8027.5,499.769 -8005.93,521.17 
  -7983.61,543.428 -7960.55,566.56 -7936.71,590.581 -7912.08,615.505 -7886.64,641.343 -7860.35,668.108 -7833.21,695.808 -7805.18,724.451 -7776.24,754.045 -7746.36,784.595 
  -7715.51,816.105 -7683.66,848.578 -7650.79,882.016 -7616.84,916.418 -7581.8,951.783 -7545.63,988.108 -7508.3,1025.38 -7469.75,1063.57 -7429.88,1102.68 -7388.64,1142.68 
  -7345.94,1183.53 -7301.73,1225.22 -7255.93,1267.7 -7208.49,1310.95 -7159.35,1354.91 -7108.46,1399.53 -7055.77,1444.77 -7001.24,1490.58 -6944.81,1536.88 -6886.47,1583.62 
  -6826.16,1630.74 -6763.86,1678.15 -6699.55,1725.78 -6633.2,1773.56 -6564.79,1821.38 -6494.33,1869.09 -6421.81,1916.59 -6347.25,1963.81 -6270.66,2010.64 -6192.09,2057.01 
  -6111.59,2102.84 -6029.21,2148.04 -5945.04,2192.54 -5859.18,2236.25 -5771.72,2279.11 -5682.8,2321.04 -5592.54,2361.96 -5501.09,2401.82 -5408.63,2440.53 -5315.32,2478.03 
  -5221.35,2514.26 -5126.94,2549.16 -5032.31,2582.65 -4937.61,2614.73 -4842.91,2645.44 -4748.36,2674.81 -4654.13,2702.86 -4560.35,2729.63 -4467.17,2755.13 -4374.71,2779.41 
  -4283.1,2802.48 -4192.46,2824.41 -4102.89,2845.21 -4014.5,2864.94 -3927.39,2883.64 -3841.63,2901.36 -3757.32,2918.15 -3674.52,2934.07 -3593.31,2949.17 -3513.73,2963.5 
  -3435.79,2977.1 -3359.54,2990.04 -3285.01,3002.34 -3212.21,3014.06 -3141.17,3025.24 -3071.9,3035.91 -3004.42,3046.13 -2938.73,3055.91 -2874.84,3065.3 -2812.74,3074.32 
  -2752.42,3083 -2693.89,3091.37 -2637.11,3099.45 -2582.08,3107.25 -2528.76,3114.8 -2477.13,3122.1 -2427.16,3129.18 -2378.82,3136.04 -2332.12,3142.7 -2287.01,3149.17 
  -2243.49,3155.45 -2201.52,3161.55 -2161.08,3167.47 -2122.15,3173.22 -2084.7,3178.8 -2048.69,3184.2 -2014.1,3189.43 -1980.91,3194.49 -1949.07,3199.37 -1918.56,3204.06 
  -1889.34,3208.57 -1861.38,3212.88 -1834.65,3216.99 -1809.1,3220.88 -1784.71,3224.56 -1761.45,3228 -1739.28,3231.2 -1718.17,3234.16 -1698.09,3236.86 -1679.02,3239.28 
  -1660.91,3241.43 -1643.73,3243.28 -1627.45,3244.83 -1612.03,3246.07 -1597.45,3246.97 -1583.66,3247.53 -1570.64,3247.74 -1558.35,3247.58 -1546.75,3247.05 -1535.81,3246.12 
  -1525.48,3244.78 -1515.75,3243.02 -1506.57,3240.83 -1497.9,3238.18 -1489.71,3235.08 -1481.97,3231.51 -1474.65,3227.45 -1467.7,3222.89 -1461.1,3217.81 -1454.8,3212.2 
  -1448.79,3206.05 -1443.01,3199.33 -1437.45,3192.04 -1432.06,3184.17 -1426.82,3175.69 -1421.68,3166.6 -1416.62,3156.88 -1411.61,3146.52 -1406.62,3135.5 -1401.6,3123.81 
  -1396.53,3111.44 -1391.38,3098.37 -1386.12,3084.6 -1380.71,3070.1 -1375.13,3054.86 -1369.34,3038.87 -1363.33,3022.13 -1357.06,3004.6 -1350.52,2986.28 -1343.68,2967.15 
  -1336.52,2947.19 -1329.03,2926.38 -1321.17,2904.71 -1312.95,2882.15 -1304.33,2858.7 -1295.32,2834.34 -1285.9,2809.05 -1276.05,2782.81 -1265.78,2755.61 -1255.07,2727.43 
  -1243.92,2698.26 -1232.33,2668.08 -1220.29,2636.87 -1207.81,2604.63 -1194.88,2571.32 -1181.52,2536.95 -1167.75,2501.49 -1153.6,2464.92 -1139.1,2427.21 -1124.29,2388.35 
  -1109.2,2348.3 -1093.88,2307.07 -1078.37,2264.62 -1062.72,2220.95 -1046.98,2176.05 -1031.22,2129.91 -1015.5,2082.53 -999.864,2033.89 -984.395,1984 -969.162,1932.86 
  -954.238,1880.46 -939.701,1826.82 -925.634,1771.93 -912.141,1715.83 -899.352,1658.52 -887.383,1600.03 -876.347,1540.39 -866.354,1479.62 -857.511,1417.76 -849.92,1354.87 
  -843.679,1290.99 -838.886,1226.2 -835.632,1160.54 -834.004,1094.11 -834.089,1026.99 -835.966,959.256 -839.715,891.018 -845.409,822.376 -853.121,753.447 -862.927,684.381 
  -874.833,615.283 -888.821,546.246 -904.865,477.358 -922.931,408.709 -942.974,340.385 -964.943,272.473 -988.776,205.058 -1014.4,138.223 -1041.74,72.051 -1070.71,6.62206 
  -1101.21,-57.9838 -1133.14,-121.688 -1166.37,-184.414 -1200.8,-246.084 -1236.27,-306.626 -1272.67,-365.965 -1309.83,-424.029 -1347.59,-480.748 -1385.86,-536.133 -1424.55,-590.244 
  -1463.53,-643.075 -1502.7,-694.626 -1541.95,-744.897 -1581.16,-793.89 -1620.25,-841.613 -1659.12,-888.073 -1697.69,-933.28 -1735.88,-977.249 -1773.61,-1020 -1810.83,-1061.54 
  -1847.48,-1101.89 -1883.5,-1141.09 -1918.84,-1179.15 -1953.48,-1216.11 -1987.37,-1251.98 -2020.49,-1286.78 -2052.8,-1320.54 -2084.28,-1353.28 -2114.9,-1385.01 -2144.66,-1415.76 
  -2173.54,-1445.54 -2201.52,-1474.39 -2228.6,-1502.3 -2254.78,-1529.31 -2280.06,-1555.42 -2304.44,-1580.67 -2327.94,-1605.06 -2350.56,-1628.6 -2372.32,-1651.33 -2393.25,-1673.25 
  -2413.37,-1694.37 -2432.7,-1714.72 -2451.28,-1734.3 -2469.13,-1753.13 -2486.27,-1771.21 -2502.7,-1788.57 -2518.47,-1805.21 -2533.59,-1821.13 -2548.1,-1836.36 -2562.02,-1850.89 
  -2575.39,-1864.73 -2588.23,-1877.9 -2600.58,-1890.4 -2612.47,-1902.25 -2623.93,-1913.44 -2635.01,-1924 -2645.73,-1933.92 -2656.13,-1943.21 -2666.26,-1951.88 -2676.14,-1959.95 
  -2685.82,-1967.41 -2695.34,-1974.27 -2704.74,-1980.54 -2714.04,-1986.22 -2723.28,-1991.33 -2732.52,-1995.87 -2741.77,-1999.84 -2751.09,-2003.25 -2760.51,-2006.11 -2770.07,-2008.43 
  
  "/>
<polyline clip-path="url(#clip4603)" style="stroke:#3da44d; stroke-width:12; stroke-opacity:1; fill:none" points="
  948.971,783.233 948.975,783.233 948.987,783.234 949.007,783.234 949.035,783.234 949.072,783.235 949.116,783.236 949.169,783.237 949.23,783.239 949.299,783.242 
  949.376,783.245 949.461,783.249 949.555,783.253 949.657,783.259 949.767,783.265 949.885,783.272 950.012,783.28 950.147,783.29 950.291,783.3 950.443,783.312 
  950.604,783.325 950.773,783.34 950.951,783.356 951.138,783.373 951.333,783.392 951.537,783.413 951.75,783.436 951.973,783.46 952.204,783.486 952.444,783.514 
  952.693,783.544 952.952,783.577 953.22,783.611 953.498,783.648 953.785,783.687 954.081,783.728 954.388,783.772 954.704,783.819 955.03,783.868 955.366,783.92 
  955.712,783.974 956.069,784.031 956.436,784.092 956.814,784.155 957.202,784.221 957.601,784.291 958.01,784.364 958.431,784.44 958.864,784.519 959.307,784.602 
  959.762,784.689 960.229,784.779 960.707,784.873 961.198,784.971 961.701,785.072 962.216,785.178 962.744,785.287 963.284,785.401 963.837,785.519 964.404,785.641 
  964.984,785.768 965.578,785.899 966.185,786.034 966.806,786.174 967.442,786.319 968.092,786.469 968.758,786.624 969.438,786.784 970.133,786.949 970.845,787.119 
  971.572,787.294 972.315,787.475 973.075,787.661 973.851,787.852 974.645,788.05 975.456,788.253 976.285,788.462 977.132,788.676 977.998,788.897 978.883,789.124 
  979.787,789.358 980.71,789.597 981.654,789.843 982.618,790.096 983.603,790.355 984.609,790.621 985.638,790.894 986.688,791.174 987.762,791.461 988.859,791.755 
  989.98,792.056 991.126,792.365 992.296,792.681 993.492,793.005 994.715,793.336 995.965,793.675 997.242,794.023 998.547,794.378 999.881,794.741 1001.24,795.112 
  1002.64,795.491 1004.07,795.879 1005.52,796.275 1007.01,796.68 1008.54,797.094 1010.1,797.516 1011.69,797.947 1013.32,798.388 1014.99,798.838 1016.69,799.297 
  1018.44,799.765 1020.22,800.243 1022.05,800.731 1023.92,801.228 1025.84,801.734 1027.8,802.251 1029.81,802.777 1031.86,803.313 1033.97,803.858 1036.13,804.414 
  1038.34,804.979 1040.61,805.554 1042.94,806.139 1045.32,806.733 1047.77,807.337 1050.27,807.951 1052.85,808.573 1055.49,809.203 1058.2,809.843 1060.99,810.492 
  1063.85,811.15 1066.79,811.817 1069.8,812.494 1072.91,813.179 1076.1,813.873 1079.38,814.575 1082.75,815.284 1086.22,815.999 1089.8,816.72 1093.49,817.446 
  1097.29,818.175 1101.22,818.905 1105.26,819.637 1109.44,820.367 1113.76,821.094 1118.22,821.816 1122.84,822.53 1127.62,823.232 1132.56,823.923 1137.69,824.599 
  1143.01,825.256 1148.53,825.89 1154.27,826.493 1160.24,827.057 1166.46,827.572 1172.95,828.027 1179.72,828.409 1186.8,828.699 1194.2,828.875 1201.96,828.927 
  1210.12,828.827 1218.7,828.534 1227.75,827.99 1237.27,827.121 1247.3,825.836 1257.82,824.021 1268.86,821.503 1280.32,818.056 1291.86,813.41 1302.92,807.251 
  1312.47,799.357 1319.3,790.045 1322.56,780.102 1322.46,770.377 1319.88,761.477 1315.72,753.526 1310.61,746.485 1304.96,740.238 1299.04,734.668 1293.01,729.672 
  1286.96,725.165 1280.96,721.076 1275.04,717.347 1269.24,713.932 1263.56,710.793 1258.01,707.898 1252.61,705.221 1247.34,702.739 1242.21,700.432 1237.22,698.286 
  1232.37,696.286 1227.65,694.421 1223.06,692.679 1218.59,691.052 1214.25,689.532 1210.04,688.111 1205.93,686.784 1201.94,685.545 1198.06,684.389 1194.29,683.312 
  1190.61,682.31 1187.04,681.378 1183.57,680.515 1180.19,679.716 1176.9,678.98 1173.7,678.305 1170.59,677.687 1167.56,677.125 1164.61,676.617 1161.74,676.162 
  1158.94,675.758 1156.23,675.404 1153.58,675.098 1151.01,674.84 1148.5,674.628 1146.06,674.461 1143.69,674.339 1141.38,674.26 1139.13,674.225 1136.94,674.232 
  1134.81,674.28 1132.74,674.37 1130.72,674.5 1128.77,674.67 1126.86,674.88 1125.01,675.129 1123.2,675.417 1121.45,675.744 1119.75,676.109 1118.09,676.513 
  1116.49,676.954 1114.93,677.432 1113.41,677.948 1111.94,678.502 1110.52,679.092 1109.13,679.719 1107.79,680.383 1106.49,681.084 1105.24,681.821 1104.02,682.595 
  1102.85,683.405 1101.71,684.252 1100.62,685.135 1099.56,686.055 1098.54,687.011 1097.57,688.003 1096.63,689.031 1095.72,690.096 1094.86,691.197 1094.04,692.335 
  1093.25,693.509 1092.5,694.72 1091.79,695.967 1091.12,697.25 1090.49,698.57 1089.89,699.926 1089.34,701.32 1088.82,702.749 1088.35,704.216 1087.91,705.719 
  1087.52,707.259 1087.16,708.836 1086.85,710.45 1086.58,712.1 1086.36,713.788 1086.18,715.513 1086.05,717.274 1085.96,719.073 1085.92,720.908 1085.93,722.781 
  1085.99,724.69 1086.11,726.637 1086.27,728.62 1086.49,730.639 1086.77,732.695 1087.11,734.788 1087.5,736.916 1087.96,739.081 1088.49,741.281 1089.08,743.516 
  1089.74,745.786 1090.47,748.09 1091.27,750.429 1092.16,752.803 1093.12,755.209 1094.16,757.649 1095.3,760.12 1096.52,762.623 1097.83,765.155 1099.25,767.717 
  1100.76,770.307 1102.38,772.923 1104.11,775.564 1105.96,778.229 1107.92,780.915 1110.01,783.621 1112.22,786.342 1114.55,789.074 1117.02,791.816 1119.64,794.567 
  1122.4,797.324 1125.33,800.087 1128.42,802.851 1131.69,805.613 1135.15,808.368 1138.78,811.111 1142.62,813.837 1146.65,816.539 1150.88,819.209 1155.33,821.84 
  1159.98,824.424 1164.85,826.951 1169.94,829.411 1175.24,831.795 1180.77,834.09 1186.52,836.285 1192.49,838.367 1198.69,840.324 1205.11,842.142 1211.75,843.803 
  1218.61,845.293 1225.7,846.596 1232.99,847.697 1240.46,848.581 1248.11,849.235 1255.91,849.644 1263.82,849.795 1271.82,849.674 1279.87,849.269 1287.93,848.568 
  1295.96,847.563 1303.93,846.254 1311.79,844.641 1319.52,842.729 1327.08,840.526 1334.44,838.043 1341.55,835.293 1348.4,832.294 1354.93,829.067 1361.13,825.634 
  1366.95,822.022 1372.39,818.254 1377.45,814.35 1382.13,810.333 1386.44,806.226 1390.37,802.048 1393.93,797.819 1397.14,793.558 1400,789.281 1402.52,785.003 
  1404.73,780.74 1406.63,776.505 1408.25,772.306 1409.6,768.152 1410.69,764.05 1411.54,760.006 1412.16,756.027 1412.57,752.117 1412.79,748.279 1412.81,744.519 
  1412.67,740.837 1412.36,737.236 1411.91,733.718 1411.31,730.281 1410.58,726.928 1409.73,723.659 1408.77,720.474 1407.7,717.374 1406.54,714.357 1405.28,711.424 
  1403.93,708.574 1402.51,705.807 1401.01,703.123 1399.44,700.52 1397.81,697.998 1396.12,695.556 1394.37,693.193 1392.56,690.909 1390.71,688.702 1388.8,686.571 
  1386.86,684.517 1384.87,682.539 1382.84,680.635 1380.77,678.806 1378.67,677.049 1376.54,675.366 1374.37,673.755 1372.17,672.216 1369.94,670.748 1367.69,669.35 
  1365.41,668.023 1363.1,666.765 1360.76,665.576 1358.4,664.456 1356.02,663.405 1353.61,662.422 1351.18,661.507 1348.72,660.66 1346.25,659.881 1343.75,659.169 
  1341.23,658.526 1338.69,657.95 1336.13,657.442 1333.55,657.002 1330.94,656.63 1328.32,656.327 1325.67,656.092 1323.01,655.925 1320.32,655.828 1317.61,655.8 
  1314.88,655.842 1312.13,655.954 1309.36,656.137 1306.56,656.392 1303.75,656.719 1300.91,657.119 1298.06,657.593 1295.18,658.143 1292.28,658.768 1289.36,659.47 
  1286.42,660.252 1283.45,661.113 1280.47,662.055 1277.47,663.08 1274.45,664.189 1271.42,665.385 1268.37,666.669 1265.3,668.043 1262.21,669.508 1259.12,671.068 
  1256.01,672.722 1252.9,674.47 1249.79,676.316 1246.67,678.265 1243.55,680.322 1240.43,682.493 1237.32,684.781 1234.2,687.192 1231.1,689.731 1228.02,692.402 
  1224.96,695.21 1221.94,698.159 1218.96,701.253 1216.05,704.497 1213.2,707.895 1210.44,711.451 1207.79,715.168 1205.25,719.05 1202.85,723.102 1200.61,727.326 
  1198.56,731.725 1196.72,736.301 1195.14,741.065 1193.86,746.025 1192.94,751.18 1192.41,756.522 1192.34,762.038 1192.77,767.705 1193.77,773.496 1195.38,779.377 
  1197.66,785.303 1200.68,791.222 1204.48,797.076 1209.07,802.802 1214.46,808.336 1220.6,813.606 1227.42,818.539 1234.83,823.058 1242.73,827.116 1251.03,830.701 
  1259.61,833.806 1268.38,836.433 1277.24,838.596 1286.11,840.316 1294.91,841.623 1303.57,842.554 1312.07,843.141 1320.38,843.419 1328.46,843.418 1336.31,843.169 
  1343.91,842.699 1351.26,842.032 1358.36,841.193 1365.21,840.201 1371.82,839.074 1378.18,837.829 1384.3,836.48 1390.2,835.041 1395.87,833.523 1401.32,831.937 
  1406.57,830.291 1411.62,828.594 1416.47,826.853 1421.14,825.074 1425.62,823.263 1429.94,821.425 1434.09,819.566 1438.08,817.69 1441.92,815.801 1445.61,813.901 
  1449.15,811.995 1452.57,810.083 1455.85,808.17 1459,806.257 1462.03,804.346 1464.95,802.439 1467.75,800.538 1470.44,798.645 1473.03,796.76 1475.51,794.884 
  1477.9,793.021 1480.19,791.169 1482.4,789.33 1484.51,787.505 1486.54,785.694 1488.48,783.899 1490.35,782.118 1492.13,780.355 1493.84,778.607 1495.48,776.877 
  1497.05,775.165 1498.54,773.47 1499.97,771.794 1501.34,770.137 1502.64,768.498 1503.88,766.878 1505.06,765.278 1506.18,763.697 1507.24,762.136 1508.25,760.594 
  1509.2,759.072 1510.1,757.57 1510.95,756.088 1511.74,754.626 1512.48,753.184 1513.18,751.762 1513.83,750.36 1514.43,748.979 1514.98,747.618 1515.48,746.277 
  1515.94,744.956 1516.36,743.656 1516.73,742.376 1517.06,741.116 1517.35,739.877 1517.59,738.657 1517.79,737.458 1517.95,736.279 1518.07,735.12 1518.15,733.981 
  1518.18,732.861 1518.18,731.762 1518.13,730.682 1518.05,729.623 1517.92,728.583 1517.76,727.563 1517.56,726.562 1517.31,725.581 1517.03,724.62 1516.7,723.678 
  1516.34,722.756 1515.94,721.854 1515.49,720.97 1515.01,720.107 1514.48,719.262 1513.92,718.437 1513.31,717.631 1512.67,716.844 1511.98,716.077 1511.25,715.328 
  1510.48,714.599 1509.66,713.888 1508.8,713.197 1507.9,712.525 1506.95,711.872 1505.96,711.237 1504.93,710.622 1503.84,710.026 1502.71,709.449 1501.54,708.891 
  1500.31,708.353 1499.04,707.833 1497.72,707.333 1496.35,706.852 1494.92,706.391 1493.45,705.949 1491.91,705.527 1490.33,705.125 1488.69,704.742 1486.99,704.38 
  1485.24,704.038 1483.42,703.717 1481.55,703.416 1479.61,703.136 1477.61,702.878 1475.55,702.643 1473.41,702.431 1471.22,702.241 1468.95,702.075 1466.61,701.931 
  1464.19,701.81 1461.7,701.712 1459.14,701.638 1456.49,701.589 1453.76,701.565 1450.95,701.568 1448.05,701.597 1445.06,701.655 1441.98,701.743 1438.8,701.862 
  1435.52,702.014 1432.13,702.201 1428.64,702.424 1425.05,702.685 1421.33,702.987 1417.5,703.332 1413.55,703.722 1409.47,704.16 1405.26,704.65 1400.92,705.201 
  1396.43,705.813 1391.79,706.487 1387,707.226 1382.05,708.035 1376.92,708.919 1371.6,709.889 1366.1,710.955 1360.4,712.13 1354.5,713.429 1348.38,714.869 
  1342.03,716.47 1335.45,718.251 1328.63,720.24 1321.56,722.467 1314.21,724.967 1306.59,727.793 1298.7,731.014 1290.57,734.719 1282.27,739.012 1273.85,744.054 
  1265.5,750.053 1257.67,757.23 1251.12,765.816 1247.14,775.875 1247.24,786.737 1251.94,797.172 1260.01,806.057 1269.76,813.13 1280.07,818.674 1290.37,823.039 
  1300.38,826.511 1310.01,829.302 1319.22,831.565 1328.01,833.412 1336.41,834.927 1344.42,836.17 1352.08,837.191 1359.4,838.026 1366.41,838.704 1373.12,839.25 
  1379.56,839.683 1385.75,840.018 1391.69,840.269 1397.4,840.445 1402.9,840.557 1408.2,840.612 1413.3,840.617 1418.23,840.578 1422.97,840.498 1427.56,840.383 
  1431.98,840.237 1436.26,840.062 1440.39,839.861 1444.38,839.636 1448.24,839.39 1451.98,839.125 1455.59,838.843 1459.09,838.544 1462.47,838.23 1465.75,837.903 
  1468.92,837.562 1471.98,837.211 1474.96,836.848 1477.83,836.474 1480.62,836.092 1483.31,835.7 1485.92,835.299 1488.45,834.89 1490.89,834.474 1493.26,834.05 
  1495.55,833.619 1497.76,833.181 1499.91,832.737 1501.98,832.286 1503.98,831.829 1505.91,831.365 1507.78,830.896 1509.59,830.421 1511.33,829.939 1513.01,829.452 
  1514.63,828.96 1516.19,828.461 1517.69,827.957 1519.14,827.447 1520.53,826.931 1521.86,826.409 1523.14,825.882 1524.37,825.349 1525.55,824.81 1526.68,824.265 
  1527.75,823.713 1528.78,823.156 1529.76,822.593 1530.69,822.023 1531.57,821.448 1532.4,820.865 1533.19,820.277 1533.94,819.682 1534.64,819.08 1535.29,818.471 
  1535.9,817.855 1536.47,817.233 1536.99,816.603 1537.47,815.966 1537.9,815.322 1538.3,814.67 1538.65,814.011 1538.96,813.344 1539.22,812.669 1539.45,811.987 
  1539.63,811.296 1539.78,810.598 1539.88,809.891 1539.94,809.176 1539.96,808.452 1539.93,807.72 1539.87,806.979 1539.77,806.229 1539.62,805.47 1539.43,804.702 
  1539.21,803.925 1538.93,803.139 1538.62,802.343 1538.27,801.537 1537.87,800.722 1537.43,799.897 1536.95,799.063 1536.42,798.218 1535.86,797.363 1535.24,796.498 
  1534.58,795.623 1533.88,794.737 1533.13,793.841 1532.34,792.934 1531.5,792.017 1530.61,791.088 1529.67,790.149 1528.69,789.199 1527.66,788.238 1526.57,787.267 
  1525.44,786.284 1524.25,785.29 1523.01,784.285 1521.71,783.269 1520.37,782.241 1518.96,781.202 1517.5,780.151 1515.98,779.09 1514.4,778.016 1512.75,776.932 
  1511.05,775.836 1509.28,774.73 1507.44,773.612 1505.54,772.484 1503.56,771.345 1501.52,770.195 1499.4,769.035 1497.2,767.866 1494.93,766.687 1492.57,765.498 
  1490.14,764.3 1487.61,763.096 1485,761.885 1482.29,760.668 1479.49,759.444 1476.59,758.214 1473.59,756.977 1470.49,755.733 1467.28,754.485 1463.95,753.232 
  1460.5,751.977 1456.93,750.721 1453.23,749.466 1449.4,748.214 1445.42,746.969 1441.3,745.732 1437.02,744.507 1432.58,743.298 1427.97,742.109 1423.18,740.942 
  1418.21,739.804 1413.04,738.701 1407.68,737.642 1402.1,736.63 1396.28,735.668 1390.23,734.766 1383.91,733.935 1377.32,733.19 1370.44,732.549 1363.26,732.034 
  1355.77,731.67 1347.95,731.486 1339.8,731.513 1331.31,731.789 1322.46,732.365 1313.23,733.3 1303.65,734.667 1293.77,736.55 1283.68,739.045 1273.51,742.251 
  1263.46,746.295 1253.83,751.284 1244.98,757.228 1237.32,764.035 1231.3,771.522 1227.09,779.432 1224.7,787.489 1224,795.399 1224.71,802.957 1226.55,810.089 
  1229.26,816.748 1232.62,822.93 1236.46,828.654 1240.65,833.949 1245.07,838.848 1249.66,843.382 1254.34,847.582 1259.09,851.478 1263.87,855.094 1268.64,858.455 
  1273.39,861.581 1278.1,864.491 1282.77,867.2 1287.37,869.724 1291.92,872.074 1296.39,874.264 1300.8,876.302 1305.12,878.199 1309.37,879.964 1313.55,881.602 
  1317.64,883.122 1321.65,884.529 1325.59,885.828 1329.45,887.025 1333.23,888.125 1336.94,889.131 1340.56,890.047 1344.12,890.877 1347.6,891.624 1351.01,892.291 
  1354.34,892.88 1357.61,893.395 1360.81,893.836 1363.94,894.207 1367,894.509 1370,894.743 1372.94,894.913 1375.81,895.018 1378.62,895.06 1381.37,895.042 
  1384.05,894.963 1386.68,894.825 1389.25,894.628 1391.77,894.375 1394.22,894.065 1396.63,893.699 1398.97,893.278 1401.27,892.803 1403.51,892.274 1405.69,891.692 
  1407.83,891.057 1409.91,890.37 1411.94,889.631 1413.92,888.841 1415.85,887.999 1417.73,887.107 1419.56,886.164 1421.34,885.17 1423.07,884.126 1424.75,883.032 
  1426.38,881.888 1427.96,880.694 1429.49,879.451 1430.97,878.157 1432.4,876.814 1433.78,875.422 1435.11,873.98 1436.38,872.488 1437.61,870.947 1438.78,869.356 
  1439.89,867.716 1440.95,866.026 1441.95,864.286 1442.9,862.497 1443.79,860.658 1444.62,858.77 1445.39,856.831 1446.09,854.843 1446.73,852.804 1447.31,850.716 
  1447.82,848.577 1448.25,846.389 1448.61,844.15 1448.9,841.862 1449.11,839.524 1449.24,837.136 1449.28,834.699 1449.24,832.213 1449.11,829.678 1448.88,827.095 
  1448.55,824.464 1448.13,821.787 1447.59,819.064 1446.95,816.296 1446.19,813.481 1445.3,810.622 1444.29,807.719 1443.15,804.773 1441.87,801.787 1440.44,798.762 
  1438.86,795.701 1437.12,792.606 1435.21,789.48 1433.13,786.328 1430.86,783.152 1428.41,779.957 1425.75,776.747 1422.89,773.528 1419.83,770.307 1416.55,767.091 
  1413.05,763.887 1409.29,760.701 1405.27,757.542 1400.96,754.419 1396.36,751.344 1391.46,748.33 1386.26,745.388 1380.74,742.534 1374.92,739.784 1368.79,737.154 
  1362.37,734.665 1355.65,732.333 1348.65,730.182 1341.39,728.233 1333.87,726.509 1326.12,725.038 1318.15,723.845 1309.99,722.949 1301.66,722.369 1293.2,722.117 
  1284.65,722.206 1276.07,722.641 1267.51,723.429 1259.03,724.568 1250.69,726.057 1242.56,727.888 1234.67,730.045 1227.06,732.505 1219.75,735.245 1212.78,738.243 
  1206.17,741.472 1199.94,744.906 1194.1,748.519 1188.66,752.282 1183.63,756.165 1179.02,760.139 1174.8,764.184 1170.96,768.281 1167.49,772.411 1164.37,776.557 
  1161.59,780.705 1159.14,784.84 1157,788.95 1155.15,793.025 1153.58,797.057 1152.26,801.037 1151.19,804.959 1150.35,808.818 1149.72,812.611 1149.29,816.333 
  1149.05,819.982 1148.99,823.554 1149.1,827.048 1149.35,830.463 1149.76,833.795 1150.3,837.046 1150.96,840.215 1151.75,843.301 1152.64,846.305 1153.65,849.227 
  1154.75,852.067 1155.94,854.825 1157.22,857.501 1158.58,860.096 1160.02,862.61 1161.54,865.044 1163.12,867.398 1164.77,869.673 1166.48,871.869 1168.25,873.987 
  1170.08,876.027 1171.96,877.991 1173.89,879.879 1175.88,881.691 1177.91,883.428 1179.98,885.089 1182.1,886.677 1184.27,888.19 1186.47,889.629 1188.72,890.995 
  1191,892.287 1193.32,893.507 1195.68,894.654 1198.08,895.728 1200.51,896.73 1202.98,897.66 1205.48,898.517 1208.02,899.302 1210.59,900.015 1213.19,900.655 
  1215.83,901.223 1218.51,901.718 1221.21,902.139 1223.95,902.487 1226.73,902.761 1229.53,902.96 1232.37,903.084 1235.25,903.131 1238.15,903.102 1241.09,902.995 
  1244.06,902.81 1247.07,902.545 1250.11,902.2 1253.18,901.773 1256.28,901.264 1259.42,900.67 1262.59,899.991 1265.78,899.224 1269.01,898.368 1272.27,897.421 
  1275.56,896.381 1278.88,895.245 1282.23,894.012 1285.61,892.677 1289.02,891.239 1292.44,889.695 1295.89,888.039 1299.36,886.27 1302.85,884.384 1306.34,882.375 
  1309.85,880.241 1313.35,877.976 1316.86,875.577 1320.35,873.037 1323.83,870.354 1327.27,867.519 1330.69,864.523 1334.06,861.358 1337.38,858.017 1340.63,854.493 
  1343.78,850.777 1346.81,846.863 1349.7,842.744 1352.41,838.413 1354.91,833.864 1357.16,829.093 1359.12,824.096 1360.72,818.864 1361.9,813.396 1362.6,807.7 
  1362.73,801.796 1362.22,795.715 1360.98,789.496 1358.93,783.196 1355.98,776.884 1352.08,770.637 1347.19,764.544 1341.35,758.702 1334.62,753.218 1327.12,748.204 
  1318.96,743.726 1310.3,739.813 1301.27,736.479 1292.03,733.72 1282.7,731.514 1273.41,729.824 1264.24,728.603 1255.24,727.804 1246.47,727.382 1237.95,727.295 
  1229.71,727.502 1221.76,727.966 1214.1,728.653 1206.73,729.536 1199.66,730.588 1192.87,731.787 1186.36,733.112 1180.12,734.546 1174.13,736.076 1168.4,737.686 
  1162.91,739.366 1157.65,741.106 1152.61,742.896 1147.78,744.728 1143.16,746.594 1138.73,748.489 1134.49,750.407 1130.43,752.344 1126.53,754.295 1122.81,756.256 
  1119.24,758.224 1115.82,760.195 1112.54,762.168 1109.41,764.138 1106.41,766.104 1103.54,768.065 1100.79,770.017 1098.16,771.96 1095.65,773.893 1093.24,775.815 
  1090.94,777.723 1088.75,779.616 1086.65,781.495 1084.66,783.358 1082.75,785.204 1080.93,787.033 1079.2,788.844 1077.56,790.636 1075.99,792.409 1074.51,794.162 
  1073.1,795.896 1071.77,797.609 1070.5,799.302 1069.31,800.974 1068.19,802.626 1067.14,804.255 1066.15,805.864 1065.23,807.45 1064.36,809.015 1063.56,810.558 
  1062.82,812.079 1062.14,813.577 1061.52,815.053 1060.95,816.507 1060.44,817.938 1059.98,819.347 1059.58,820.734 1059.23,822.098 1058.93,823.439 1058.68,824.758 
  1058.49,826.054 1058.34,827.328 1058.25,828.579 1058.2,829.808 1058.21,831.014 1058.26,832.197 1058.36,833.357 1058.52,834.495 1058.72,835.611 1058.96,836.704 
  1059.26,837.774 1059.6,838.822 1059.99,839.847 1060.43,840.85 1060.92,841.831 1061.46,842.789 1062.04,843.724 1062.68,844.637 1063.36,845.528 1064.09,846.396 
  1064.88,847.242 1065.71,848.066 1066.59,848.866 1067.53,849.645 1068.52,850.401 1069.55,851.134 1070.65,851.844 1071.79,852.532 1073,853.196 1074.25,853.838 
  1075.57,854.457 1076.94,855.053 1078.37,855.626 1079.85,856.175 1081.4,856.7 1083.01,857.202 1084.68,857.679 1086.42,858.131 1088.22,858.56 1090.09,858.964 
  1092.03,859.343 1094.04,859.698 1096.11,860.027 1098.27,860.33 1100.49,860.607 1102.8,860.857 1105.18,861.079 1107.64,861.274 1110.19,861.439 1112.83,861.574 
  1115.55,861.679 1118.37,861.752 1121.28,861.792 1124.28,861.798 1127.39,861.769 1130.6,861.703 1133.92,861.6 1137.34,861.456 1140.88,861.266 1144.54,861.03 
  1148.32,860.748 1152.23,860.419 1156.27,860.041 1160.45,859.611 1164.78,859.126 1169.25,858.579 1173.88,857.967 1178.68,857.281 1183.65,856.515 1188.8,855.659 
  1194.14,854.705 1199.67,853.641 1205.41,852.455 1211.36,851.136 1217.53,849.661 1223.94,848.019 1230.61,846.188 1237.55,844.138 1244.76,841.828 1252.25,839.207 
  1260.01,836.214 1268.02,832.771 1276.29,828.779 1284.77,824.094 1293.27,818.526 1301.46,811.848 1308.72,803.74 1313.87,794.001 1315.17,783.044 1311.41,772.102 
  1303.52,762.695 1293.46,755.29 1282.7,749.62 1271.97,745.27 1261.58,741.897 1251.63,739.253 1242.16,737.163 1233.16,735.504 1224.6,734.184 1216.45,733.137 
  1208.7,732.313 1201.3,731.672 1194.24,731.184 1187.49,730.825 1181.03,730.576 1174.84,730.42 1168.91,730.345 1163.21,730.339 1157.74,730.394 1152.48,730.501 
  1147.42,730.655 1142.55,730.85 1137.86,731.082 1133.35,731.345 1128.99,731.637 1124.79,731.955 1120.74,732.295 1116.83,732.656 1113.05,733.036 1109.41,733.432 
  1105.89,733.843 1102.49,734.269 1099.2,734.707 1096.03,735.157 1092.96,735.617 1090,736.087 1087.14,736.566 1084.37,737.053 1081.7,737.549 1079.11,738.051 
  1076.62,738.561 1074.21,739.077 1071.88,739.599 1069.63,740.128 1067.47,740.661 1065.37,741.201 1063.35,741.745 1061.41,742.295 1059.53,742.849 1057.72,743.408 
  1055.98,743.973 1054.3,744.541 1052.69,745.115 1051.14,745.693 1049.65,746.275 1048.22,746.862 1046.85,747.454 1045.54,748.05 1044.29,748.65 1043.08,749.256 
  1041.94,749.865 1040.85,750.48 1039.81,751.099 1038.82,751.723 1037.88,752.352 1037,752.986 1036.16,753.625 1035.38,754.269 1034.64,754.918 1033.95,755.572 
  1033.31,756.231 1032.71,756.896 1032.16,757.566 1031.66,758.242 1031.21,758.923 1030.79,759.61 1030.43,760.303 1030.11,761.002 1029.83,761.707 1029.6,762.418 
  1029.41,763.135 1029.27,763.859 1029.17,764.589 1029.11,765.325 1029.1,766.068 1029.13,766.818 1029.21,767.574 1029.33,768.337 1029.5,769.108 1029.7,769.885 
  1029.96,770.669 1030.26,771.461 1030.6,772.26 1030.99,773.067 1031.42,773.881 1031.9,774.702 1032.42,775.532 1032.99,776.369 1033.61,777.214 1034.28,778.067 
  1034.99,778.928 1035.75,779.797 1036.56,780.674 1037.42,781.559 1038.33,782.453 1039.3,783.355 1040.31,784.265 1041.38,785.184 1042.5,786.111 1043.67,787.046 
  1044.91,787.99 1046.19,788.943 1047.54,789.903 1048.95,790.873 1050.41,791.851 1051.94,792.836 1053.53,793.829 1055.19,794.83 1056.91,795.839 1058.71,796.856 
  1060.57,797.881 1062.5,798.914 1064.5,799.955 1066.58,801.004 1068.74,802.061 1070.98,803.125 1073.3,804.197 1075.71,805.275 1078.2,806.359 1080.79,807.448 
  1083.47,808.542 1086.25,809.641 1089.13,810.742 1092.12,811.846 1095.21,812.951 1098.42,814.057 1101.75,815.162 1105.2,816.265 1108.77,817.364 1112.48,818.457 
  1116.33,819.54 1120.32,820.615 1124.47,821.679 1128.77,822.731 1133.24,823.769 1137.88,824.787 1142.71,825.783 1147.74,826.749 1152.97,827.68 1158.42,828.567 
  1164.09,829.403 1170.01,830.178 1176.19,830.882 1182.63,831.5 1189.36,832.015 1196.4,832.418 1203.77,832.688 1211.49,832.798 1219.59,832.71 1228.06,832.381 
  1236.93,831.755 1246.2,830.772 1255.86,829.353 1265.92,827.386 1276.31,824.743 1286.86,821.28 1297.33,816.839 1307.3,811.251 1316.19,804.428 1323.36,796.522 
  1328.19,787.897 1330.5,779.016 1330.5,770.322 1328.64,762.17 1325.41,754.673 1321.24,747.858 1316.43,741.691 1311.21,736.113 1305.74,731.063 1300.14,726.481 
  1294.48,722.315 1288.82,718.518 1283.19,715.049 1277.62,711.874 1272.14,708.963 1266.75,706.291 1261.46,703.836 1256.28,701.579 1251.22,699.503 1246.26,697.594 
  1241.43,695.839 1236.7,694.227 1232.1,692.749 1227.6,691.395 1223.21,690.159 1218.94,689.032 1214.77,688.01 1210.71,687.085 1206.75,686.254 1202.89,685.512 
  1199.13,684.855 1195.46,684.28 1191.9,683.782 1188.42,683.359 1185.03,683.009 1181.73,682.729 1178.52,682.515 1175.39,682.367 1172.35,682.283 1169.38,682.26 
  1166.5,682.298 1163.69,682.394 1160.96,682.548 1158.3,682.758 1155.72,683.023 1153.2,683.342 1150.76,683.714 1148.39,684.139 1146.08,684.614 1143.84,685.141 
  1141.67,685.717 1139.56,686.343 1137.52,687.018 1135.54,687.741 1133.62,688.512 1131.76,689.33 1129.97,690.196 1128.23,691.108 1126.56,692.067 1124.94,693.072 
  1123.39,694.122 1121.89,695.219 1120.46,696.361 1119.08,697.548 1117.76,698.78 1116.5,700.057 1115.3,701.379 1114.16,702.746 1113.08,704.158 1112.06,705.614 
  1111.09,707.114 1110.19,708.659 1109.36,710.248 1108.58,711.882 1107.87,713.559 1107.22,715.281 1106.63,717.047 1106.11,718.858 1105.66,720.712 1105.28,722.61 
  1104.97,724.551 1104.73,726.537 1104.57,728.566 1104.48,730.638 1104.47,732.753 1104.54,734.911 1104.69,737.113 1104.92,739.357 1105.25,741.644 1105.66,743.972 
  1106.17,746.343 1106.78,748.754 1107.48,751.206 1108.29,753.698 1109.21,756.228 1110.24,758.797 1111.39,761.402 1112.66,764.044 1114.06,766.721 1115.59,769.428 
  1117.26,772.163 1119.06,774.927 1121.02,777.718 1123.14,780.537 1125.42,783.38 1127.87,786.246 1130.51,789.131 1133.33,792.032 1136.36,794.942 1139.59,797.857 
  1143.03,800.771 1146.7,803.677 1150.6,806.567 1154.74,809.432 1159.13,812.263 1163.78,815.051 1168.7,817.784 1173.89,820.451 1179.37,823.037 1185.14,825.527 
  1191.22,827.904 1197.63,830.151 1204.36,832.246 1211.42,834.168 1218.78,835.893 1226.45,837.394 1234.41,838.645 1242.62,839.616 1251.06,840.276 1259.7,840.597 
  1268.5,840.547 1277.41,840.101 1286.37,839.239 1295.33,837.95 1304.2,836.231 1312.92,834.084 1321.39,831.521 1329.51,828.558 1337.22,825.221 1344.47,821.546 
  1351.23,817.574 1357.46,813.346 1363.15,808.903 1368.27,804.291 1372.83,799.553 1376.84,794.738 1380.3,789.88 1383.26,785.007 1385.73,780.145 1387.75,775.318 
  1389.35,770.546 1390.55,765.845 1391.39,761.229 1391.89,756.708 1392.08,752.291 1391.99,747.982 1391.64,743.787 1391.05,739.709 1390.25,735.749 1389.25,731.91 
  1388.08,728.192 1386.74,724.595 1385.25,721.119 1383.62,717.763 1381.87,714.525 1380,711.404 1378.03,708.399 1375.97,705.507 1373.82,702.728 1371.59,700.059 
  1369.29,697.5 1366.93,695.048 1364.5,692.702 1362.03,690.46 1359.5,688.321 1356.92,686.282 1354.3,684.343 1351.64,682.502 1348.95,680.757 1346.22,679.108 
  1343.46,677.554 1340.68,676.093 1337.87,674.725 1335.03,673.447 1332.17,672.261 1329.3,671.164 1326.4,670.156 1323.48,669.236 1320.55,668.405 1317.6,667.66 
  1314.64,667.002 1311.66,666.431 1308.67,665.946 1305.66,665.547 1302.65,665.234 1299.62,665.007 1296.58,664.867 1293.54,664.813 1290.48,664.845 1287.42,664.965 
  1284.35,665.171 1281.27,665.466 1278.19,665.848 1275.1,666.32 1272.01,666.88 1268.91,667.531 1265.81,668.274 1262.71,669.108 1259.6,670.036 1256.5,671.058 
  1253.4,672.177 1250.3,673.393 1247.21,674.708 1244.12,676.124 1241.04,677.643 1237.98,679.266 1234.93,680.996 1231.9,682.835 1228.89,684.785 1225.91,686.848 
  1222.96,689.026 1220.04,691.317 1217.17,693.721 1214.34,696.246 1211.57,698.899 1208.86,701.686 1206.21,704.612 1203.64,707.682 1201.17,710.901 1198.8,714.271 
  1196.54,717.795 1194.43,721.475 1192.47,725.312 1190.68,729.307 1189.09,733.459 1187.73,737.768 1186.6,742.231 1185.76,746.847 1185.21,751.612 1185,756.518 
  1185.18,761.561 1185.8,766.735 1186.91,772.025 1188.56,777.41 1190.79,782.858 1193.63,788.332 1197.13,793.787 1201.3,799.169 1206.17,804.415 1211.75,809.462 
  1218.03,814.255 1224.96,818.739 1232.49,822.863 1240.55,826.58 1249.04,829.845 1257.82,832.618 1266.81,834.889 1275.91,836.673 1285.05,837.986 1294.13,838.85 
  1303.1,839.291 1311.89,839.342 1320.45,839.039 1328.76,838.418 1336.79,837.513 1344.52,836.355 1351.95,834.973 1359.07,833.396 1365.88,831.648 1372.39,829.751 
  1378.59,827.727 1384.51,825.593 1390.13,823.366 1395.48,821.058 1400.56,818.685 1405.38,816.256 1409.95,813.783 1414.29,811.275 1418.39,808.739 1422.27,806.184 
  1425.94,803.613 1429.41,801.034 1432.68,798.45 1435.77,795.867 1438.67,793.288 1441.4,790.718 1443.97,788.158 1446.38,785.613 1448.63,783.085 1450.74,780.575 
  1452.7,778.087 1454.53,775.62 1456.23,773.178 1457.8,770.76 1459.24,768.37 1460.57,766.006 1461.79,763.672 1462.89,761.367 1463.89,759.093 1464.79,756.849 
  1465.58,754.638 1466.28,752.459 1466.88,750.312 1467.39,748.2 1467.81,746.12 1468.14,744.075 1468.39,742.063 1468.55,740.086 1468.63,738.144 1468.63,736.237 
  1468.56,734.365 1468.4,732.528 1468.17,730.727 1467.87,728.962 1467.5,727.233 1467.05,725.54 1466.53,723.883 1465.94,722.263 1465.28,720.68 1464.55,719.133 
  1463.76,717.622 1462.9,716.149 1461.96,714.712 1460.97,713.313 1459.9,711.951 1458.77,710.626 1457.58,709.34 1456.31,708.091 1454.98,706.88 1453.59,705.708 
  1452.12,704.575 1450.59,703.48 1449,702.426 1447.33,701.41 1445.6,700.435 1443.8,699.501 1441.92,698.608 1439.98,697.755 1437.97,696.945 1435.88,696.177 
  1433.73,695.452 1431.5,694.771 1429.19,694.134 1426.81,693.543 1424.35,692.998 1421.82,692.499 1419.2,692.048 1416.51,691.645 1413.73,691.293 1410.86,690.991 
  1407.91,690.742 1404.87,690.547 1401.75,690.408 1398.53,690.327 1395.21,690.305 1391.8,690.346 1388.3,690.452 1384.69,690.624 1380.98,690.866 1377.16,691.181 
  1373.24,691.571 1369.22,692.044 1365.09,692.605 1360.84,693.255 1356.48,693.996 1351.99,694.834 1347.37,695.774 1342.62,696.824 1337.73,697.991 1332.7,699.286 
  1327.54,700.72 1322.24,702.306 1316.81,704.059 1311.25,705.994 1305.56,708.127 1299.76,710.478 1293.83,713.067 1287.81,715.921 1281.7,719.073 1275.5,722.558 
  1269.26,726.42 1263.04,730.708 1256.92,735.477 1251.01,740.782 1245.47,746.698 1240.51,753.304 1236.44,760.626 1233.67,768.627 1232.69,777.187 1233.95,786.044 
  1237.63,794.776 1243.6,802.88 1251.39,810.04 1260.39,816.106 1270.03,821.094 1279.9,825.123 1289.75,828.33 1299.41,830.854 1308.79,832.811 1317.85,834.302 
  1326.55,835.406 1334.9,836.187 1342.91,836.697 1350.58,836.98 1357.93,837.071 1364.97,836.998 1371.72,836.784 1378.18,836.449 1384.39,836.01 1390.34,835.481 
  1396.05,834.874 1401.53,834.199 1406.8,833.465 1411.86,832.678 1416.72,831.846 1421.4,830.974 1425.9,830.068 1430.22,829.131 1434.38,828.167 1438.38,827.179 
  1442.23,826.17 1445.94,825.144 1449.5,824.102 1452.93,823.047 1456.24,821.979 1459.41,820.902 1462.46,819.815 1465.4,818.721 1468.22,817.62 1470.93,816.514 
  1473.54,815.404 1476.04,814.29 1478.44,813.173 1480.75,812.054 1482.95,810.934 1485.07,809.812 1487.09,808.689 1489.03,807.567 1490.88,806.444 1492.64,805.322 
  1494.33,804.2 1495.93,803.08 1497.45,801.961 1498.89,800.843 1500.26,799.728 1501.55,798.614 1502.77,797.502 1503.92,796.392 1504.99,795.284 1505.99,794.178 
  1506.93,793.075 1507.79,791.974 1508.59,790.876 1509.32,789.78 1509.98,788.686 1510.58,787.596 1511.11,786.507 1511.57,785.422 1511.97,784.339 1512.31,783.258 
  1512.58,782.18 1512.79,781.105 1512.94,780.032 1513.02,778.962 1513.04,777.895 1513,776.829 1512.89,775.767 1512.72,774.707 1512.48,773.649 1512.19,772.594 
  1511.83,771.541 1511.4,770.491 1510.91,769.443 1510.36,768.398 1509.74,767.355 1509.05,766.315 1508.3,765.277 1507.49,764.242 1506.6,763.209 1505.65,762.18 
  1504.63,761.152 1503.53,760.128 1502.37,759.107 1501.14,758.088 1499.83,757.073 1498.45,756.061 1497,755.053 1495.46,754.047 1493.85,753.046 1492.17,752.048 
  1490.4,751.055 1488.54,750.066 1486.61,749.082 1484.58,748.103 1482.47,747.13 1480.27,746.163 1477.98,745.203 1475.59,744.25 1473.1,743.305 1470.51,742.368 
  1467.82,741.441 1465.03,740.526 1462.12,739.624 1459.1,738.734 1455.97,737.857 1452.71,736.994 1449.33,736.145 1445.83,735.313 1442.19,734.498 1438.41,733.705 
  1434.49,732.934 1430.41,732.19 1426.18,731.475 1421.79,730.795 1417.23,730.153 1412.49,729.553 1407.56,729.002 1402.44,728.505 1397.12,728.067 1391.6,727.702 
  1385.84,727.415 1379.86,727.211 1373.62,727.102 1367.11,727.101 1360.33,727.229 1353.26,727.509 1345.88,727.967 1338.19,728.635 1330.18,729.551 1321.84,730.759 
  1313.15,732.314 1304.11,734.288 1294.75,736.772 1285.14,739.88 1275.42,743.735 1265.78,748.496 1256.59,754.386 1248.39,761.479 1241.88,769.673 1237.84,778.668 
  1236.6,788.014 1238.01,797.107 1241.52,805.441 1246.5,812.92 1252.44,819.531 1258.94,825.348 1265.75,830.466 1272.67,834.977 1279.61,838.963 1286.5,842.498 
  1293.28,845.639 1299.92,848.437 1306.42,850.936 1312.75,853.169 1318.91,855.165 1324.9,856.949 1330.73,858.543 1336.38,859.965 1341.87,861.231 1347.2,862.355 
  1352.36,863.346 1357.38,864.217 1362.24,864.976 1366.95,865.632 1371.53,866.19 1375.96,866.658 1380.26,867.042 1384.43,867.345 1388.47,867.573 1392.39,867.729 
  1396.19,867.817 1399.87,867.841 1403.44,867.803 1406.9,867.706 1410.25,867.552 1413.49,867.344 1416.64,867.084 1419.68,866.773 1422.62,866.413 1425.47,866.005 
  1428.23,865.552 1430.89,865.054 1433.46,864.512 1435.95,863.928 1438.34,863.302 1440.66,862.636 1442.89,861.93 1445.03,861.185 1447.1,860.401 1449.09,859.58 
  1450.99,858.721 1452.82,857.826 1454.58,856.895 1456.25,855.928 1457.85,854.926 1459.38,853.89 1460.83,852.819 1462.21,851.713 1463.52,850.574 1464.75,849.401 
  1465.92,848.195 1467.01,846.956 1468.02,845.684 1468.97,844.379 1469.84,843.041 1470.64,841.672 1471.37,840.27 1472.03,838.836 1472.62,837.37 1473.13,835.872 
  1473.56,834.343 1473.93,832.783 1474.21,831.191 1474.43,829.568 1474.56,827.914 1474.62,826.229 1474.6,824.513 1474.5,822.766 1474.31,820.99 1474.05,819.182 
  1473.7,817.345 1473.26,815.478 1472.74,813.581 1472.13,811.655 1471.42,809.7 1470.62,807.717 1469.72,805.705 1468.73,803.666 1467.63,801.599 1466.43,799.506 
  1465.12,797.387 1463.7,795.244 1462.16,793.077 1460.51,790.886 1458.73,788.672 1456.83,786.435 1454.8,784.177 1452.63,781.9 1450.32,779.604 1447.86,777.292 
  1445.24,774.966 1442.47,772.629 1439.54,770.284 1436.43,767.933 1433.14,765.58 1429.66,763.229 1425.99,760.884 1422.12,758.55 1418.06,756.24 1413.8,753.956 
  1409.3,751.701 1404.56,749.48 1399.54,747.301 1394.23,745.172 1388.63,743.108 1382.72,741.121 1376.49,739.229 1369.94,737.451 1363.06,735.809 1355.86,734.327 
  1348.33,733.03 1340.48,731.948 1332.32,731.112 1323.86,730.555 1315.11,730.327 1306.06,730.483 1296.77,731.073 1287.29,732.144 1277.72,733.734 1268.16,735.877 
  1258.75,738.602 1249.65,741.927 1241,745.843 1232.94,750.32 1225.58,755.301 1219.03,760.705 1213.38,766.428 1208.7,772.352 1204.96,778.395 1202.1,784.478 
  1200.08,790.529 1198.83,796.489 1198.27,802.311 1198.32,807.96 1198.89,813.415 1199.94,818.664 1201.39,823.699 1203.18,828.516 1205.27,833.114 1207.62,837.495 
  1210.19,841.666 1212.94,845.63 1215.85,849.395 1218.89,852.967 1222.04,856.352 1225.28,859.556 1228.6,862.586 1231.98,865.448 1235.41,868.148 1238.88,870.691 
  1242.39,873.084 1245.92,875.331 1249.46,877.436 1253.01,879.405 1256.57,881.241 1260.13,882.948 1263.68,884.531 1267.23,885.992 1270.77,887.334 1274.29,888.562 
  1277.8,889.676 1281.3,890.681 1284.77,891.577 1288.22,892.368 1291.65,893.055 1295.06,893.641 1298.44,894.126 1301.8,894.512 1305.13,894.802 1308.43,894.996 
  1311.7,895.095 1314.95,895.1 1318.16,895.013 1321.35,894.834 1324.5,894.563 1327.62,894.202 1330.71,893.751 1333.76,893.21 1336.78,892.58 1339.76,891.861 
  1342.7,891.053 1345.61,890.157 1348.48,889.171 1351.3,888.097 1354.09,886.935 1356.83,885.683 1359.52,884.342 1362.18,882.912 1364.78,881.392 1367.33,879.781 
  1369.82,878.08 1372.27,876.287 1374.65,874.401 1376.97,872.423 1379.22,870.352 1381.41,868.186 1383.52,865.926 1385.56,863.57 1387.51,861.118 1389.37,858.569 
  1391.15,855.922 1392.82,853.178 1394.39,850.34 1395.84,847.403 1397.17,844.366 1398.38,841.227 1399.44,837.986 1400.35,834.641 1401.1,831.193 1401.68,827.644 
  1402.08,823.995 1402.27,820.248 1402.24,816.407 1401.99,812.475 1401.48,808.457 1400.71,804.358 1399.65,800.184 1398.29,795.942 1396.61,791.645 1394.58,787.303 
  1392.16,782.924 1389.34,778.521 1386.08,774.112 1382.37,769.718 1378.19,765.364 1373.53,761.078 1368.38,756.894 1362.73,752.847 1356.59,748.979 1349.95,745.333 
  1342.84,741.95 1335.28,738.867 1327.29,736.12 1318.93,733.738 1310.25,731.749 1301.32,730.178 1292.24,729.044 1283.09,728.365 1273.96,728.142 1264.9,728.359 
  1255.99,728.995 1247.27,730.027 1238.81,731.429 1230.64,733.172 1222.8,735.224 1215.32,737.549 1208.23,740.111 1201.53,742.882 1195.22,745.83 1189.3,748.93 
  1183.77,752.154 1178.62,755.481 1173.83,758.888 1169.41,762.357 1165.33,765.87 1161.58,769.413 1158.15,772.973 1155.02,776.538 1152.18,780.099 1149.61,783.646 
  1147.3,787.171 1145.25,790.667 1143.43,794.129 1141.84,797.551 1140.46,800.929 1139.28,804.26 1138.29,807.541 1137.49,810.768 1136.86,813.939 1136.4,817.052 
  1136.09,820.106 1135.94,823.098 1135.93,826.028 1136.05,828.893 1136.31,831.695 1136.69,834.43 1137.19,837.1 1137.8,839.704 1138.52,842.242 1139.35,844.712 
  1140.29,847.116 1141.32,849.452 1142.44,851.72 1143.66,853.92 1144.96,856.052 1146.36,858.116 1147.83,860.112 1149.39,862.039 1151.02,863.898 1152.74,865.689 
  1154.52,867.411 1156.39,869.064 1158.32,870.648 1160.33,872.164 1162.41,873.609 1164.56,874.986 1166.77,876.292 1169.06,877.528 1171.41,878.693 1173.83,879.787 
  1176.32,880.809 1178.87,881.758 1181.48,882.634 1184.16,883.437 1186.91,884.165 1189.73,884.818 1192.6,885.395 1195.55,885.895 1198.56,886.316 1201.63,886.658 
  1204.77,886.92 1207.98,887.099 1211.25,887.194 1214.6,887.203 1218.01,887.125 1221.48,886.957 1225.03,886.697 1228.64,886.342 1232.32,885.89 1236.06,885.336 
  1239.88,884.679 1243.76,883.915 1247.7,883.04 1251.72,882.05 1255.79,880.942 1259.92,879.71 1264.1,878.349 1268.35,876.853 1272.65,875.214 1277.02,873.426 
  1281.44,871.479 1285.92,869.365 1290.43,867.073 1294.99,864.593 1299.56,861.914 1304.13,859.023 1308.69,855.909 1313.21,852.557 1317.66,848.953 1322.03,845.082 
  1326.27,840.931 1330.34,836.469 1334.18,831.672 1337.73,826.52 1340.9,821.005 1343.57,815.123 1345.61,808.879 1346.9,802.294 1347.23,795.4 1346.43,788.263 
  1344.34,780.996 1340.88,773.761 1335.99,766.763 1329.72,760.197 1322.24,754.211 1313.76,748.922 1304.59,744.411 1295.02,740.695 1285.26,737.719 1275.49,735.422 
  1265.84,733.733 1256.41,732.572 1247.27,731.868 1238.44,731.556 1229.95,731.581 1221.81,731.892 1214.02,732.448 1206.57,733.213 1199.44,734.157 1192.64,735.254 
  1186.15,736.481 1179.95,737.818 1174.04,739.251 1168.4,740.765 1163.03,742.347 1157.89,743.988 1153,745.679 1148.33,747.411 1143.88,749.176 1139.64,750.97 
  1135.59,752.788 1131.74,754.623 1128.06,756.473 1124.56,758.334 1121.23,760.202 1118.06,762.075 1115.05,763.949 1112.18,765.823 1109.46,767.695 1106.88,769.562 
  1104.43,771.424 1102.11,773.278 1099.92,775.124 1097.85,776.96 1095.9,778.786 1094.06,780.599 1092.33,782.4 1090.72,784.187 1089.2,785.96 1087.79,787.718 
  1086.48,789.461 1085.27,791.188 1084.15,792.899 1083.13,794.593 1082.2,796.269 1081.36,797.929 1080.61,799.57 1079.94,801.193 1079.36,802.797 1078.87,804.383 
  1078.45,805.949 1078.12,807.496 1077.87,809.024 1077.7,810.532 1077.61,812.02 1077.6,813.488 1077.66,814.936 1077.8,816.363 1078.02,817.77 1078.32,819.156 
  1078.69,820.521 1079.14,821.865 1079.67,823.187 1080.27,824.488 1080.95,825.768 1081.7,827.025 1082.53,828.26 1083.44,829.473 1084.42,830.663 1085.48,831.83 
  1086.62,832.974 1087.84,834.095 1089.14,835.193 1090.52,836.266 1091.98,837.315 1093.52,838.339 1095.15,839.338 1096.86,840.312 1098.66,841.26 1100.54,842.181 
  1102.52,843.075 1104.58,843.942 1106.73,844.779 1108.98,845.588 1111.33,846.366 1113.77,847.114 1116.31,847.83 1118.96,848.512 1121.71,849.161 1124.56,849.773 
  1127.53,850.347 1130.61,850.881 1133.8,851.376 1137.12,851.83 1140.56,852.242 1144.12,852.609 1147.82,852.93 1151.65,853.201 1155.62,853.418 1159.74,853.578 
  1164.01,853.675 1168.43,853.706 1173.02,853.664 1177.77,853.544 1182.7,853.339 1187.8,853.043 1193.09,852.647 1198.56,852.135 1204.22,851.498 1210.1,850.732 
  1216.21,849.824 1222.55,848.759 1229.14,847.512 1235.98,846.055 1243.07,844.355 1250.4,842.372 1257.96,840.059 1265.74,837.366 1273.7,834.232 1281.85,830.558 
  1290.11,826.23 1298.3,821.128 1306.14,815.119 1313.24,808.074 1318.89,799.851 1322.31,790.596 1322.69,780.827 1319.73,771.252 1313.93,762.511 1306.26,755.061 
  1297.55,748.867 1288.39,743.786 1279.14,739.629 1270.01,736.229 1261.12,733.447 1252.51,731.17 1244.22,729.314 1236.24,727.807 1228.58,726.594 1221.23,725.632 
  1214.18,724.884 1207.41,724.322 1200.92,723.922 1194.69,723.662 1188.71,723.527 1182.97,723.503 1177.46,723.576 1172.16,723.738 1167.07,723.979 1162.18,724.291 
  1157.48,724.668 1152.96,725.103 1148.61,725.593 1144.43,726.132 1140.42,726.716 1136.56,727.343 1132.85,728.007 1129.28,728.708 1125.86,729.443 1122.57,730.209 
  1119.41,731.004 1116.38,731.827 1113.47,732.676 1110.68,733.549 1108.01,734.446 1105.46,735.364 1103.01,736.304 1100.67,737.264 1098.44,738.243 1096.31,739.24 
  1094.28,740.255 1092.35,741.287 1090.52,742.336 1088.79,743.4 1087.14,744.48 1085.59,745.574 1084.13,746.683 1082.76,747.806 1081.47,748.943 1080.28,750.093 
  1079.17,751.257 1078.14,752.433 1077.2,753.622 1076.34,754.823 1075.56,756.037 1074.87,757.262 1074.26,758.499 1073.73,759.748 1073.28,761.008 1072.91,762.279 
  1072.62,763.561 1072.41,764.854 1072.29,766.158 1072.24,767.473 1072.27,768.798 1072.39,770.133 1072.59,771.478 1072.87,772.833 1073.23,774.199 1073.67,775.573 
  1074.2,776.957 1074.82,778.351 1075.52,779.753 1076.31,781.164 1077.18,782.583 1078.15,784.011 1079.2,785.447 1080.35,786.891 1081.59,788.341 1082.93,789.799 
  1084.36,791.263 1085.89,792.734 1087.53,794.21 1089.27,795.692 1091.11,797.178 1093.07,798.668 1095.13,800.162 1097.31,801.657 1099.61,803.154 1102.03,804.651 
  1104.58,806.148 1107.26,807.642 1110.07,809.133 1113.01,810.617 1116.1,812.09 1119.34,813.554 1122.73,815.009 1126.29,816.452 1130,817.881 1133.89,819.295 
  1137.96,820.688 1142.23,822.058 1146.68,823.397 1151.35,824.7 1156.23,825.961 1161.34,827.17 1166.68,828.32 1172.28,829.402 1178.13,830.404 1184.25,831.313 
  1190.66,832.11 1197.37,832.787 1204.4,833.324 1211.79,833.698 1219.53,833.874 1227.63,833.814 1236.1,833.47 1244.94,832.787 1254.13,831.703 1263.65,830.138 
  1273.48,827.984 1283.52,825.13 1293.57,821.464 1303.37,816.875 1312.54,811.267 1320.62,804.612 1327.13,797.058 1331.63,788.916 1333.97,780.544 1334.28,772.274 
  1332.84,764.383 1330.03,757.046 1326.21,750.305 1321.66,744.165 1316.61,738.598 1311.22,733.557 1305.62,728.996 1299.9,724.867 1294.13,721.13 1288.35,717.746 
  1282.61,714.681 1276.92,711.905 1271.3,709.392 1265.77,707.12 1260.35,705.067 1255.03,703.218 1249.82,701.556 1244.72,700.068 1239.74,698.742 1234.88,697.567 
  1230.13,696.534 1225.5,695.633 1220.99,694.858 1216.59,694.202 1212.3,693.658 1208.13,693.221 1204.06,692.887 1200.1,692.65 1196.25,692.506 1192.51,692.452 
  1188.87,692.484 1185.33,692.599 1181.89,692.795 1178.56,693.069 1175.31,693.419 1172.17,693.842 1169.12,694.336 1166.17,694.901 1163.3,695.533 1160.53,696.231 
  1157.85,696.995 1155.26,697.823 1152.76,698.713 1150.35,699.665 1148.03,700.678 1145.79,701.75 1143.64,702.882 1141.58,704.071 1139.6,705.318 1137.71,706.622 
  1135.91,707.981 1134.2,709.397 1132.57,710.867 1131.03,712.392 1129.58,713.97 1128.21,715.603 1126.94,717.289 1125.75,719.027 1124.66,720.819 1123.66,722.662 
  1122.76,724.557 1121.95,726.504 1121.24,728.501 1120.63,730.549 1120.12,732.648 1119.71,734.796 1119.42,736.993 1119.23,739.24 1119.15,741.535 1119.19,743.877 
  1119.34,746.267 1119.62,748.703 1120.03,751.185 1120.56,753.712 1121.24,756.283 1122.05,758.898 1123,761.555 1124.11,764.251 1125.38,766.986 1126.81,769.758 
  1128.41,772.564 1130.19,775.403 1132.15,778.271 1134.3,781.162 1136.65,784.069 1139.21,786.99 1141.98,789.927 1145,792.876 1148.26,795.833 1151.79,798.793 
  1155.59,801.747 1159.68,804.687 1164.07,807.6 1168.78,810.474 1173.8,813.293 1179.16,816.042 1184.86,818.7 1190.92,821.248 1197.33,823.664 1204.12,825.923 
  1211.28,827.997 1218.83,829.851 1226.78,831.45 1235.11,832.755 1243.8,833.725 1252.81,834.315 1262.08,834.479 1271.55,834.169 1281.14,833.344 1290.76,831.965 
  1300.29,830.01 1309.63,827.475 1318.64,824.376 1327.2,820.745 1335.13,816.633 1342.37,812.1 1348.85,807.218 1354.55,802.062 1359.45,796.706 1363.56,791.225 
  1366.89,785.691 1369.5,780.161 1371.45,774.678 1372.78,769.276 1373.54,763.988 1373.8,758.835 1373.6,753.834 1373,748.997 1372.03,744.33 1370.75,739.839 
  1369.17,735.524 1367.35,731.387 1365.3,727.427 1363.05,723.643 1360.63,720.032 1358.05,716.59 1355.34,713.314 1352.51,710.2 1349.58,707.246 1346.55,704.446 
  1343.44,701.798 1340.26,699.299 1337.03,696.944 1333.73,694.731 1330.4,692.655 1327.02,690.715 1323.61,688.907 1320.17,687.229 1316.71,685.679 1313.23,684.253 
  1309.73,682.95 1306.23,681.768 1302.71,680.704 1299.19,679.758 1295.66,678.928 1292.14,678.211 1288.61,677.608 1285.09,677.116 1281.57,676.735 1278.07,676.465 
  1274.57,676.303 1271.08,676.251 1267.6,676.306 1264.14,676.47 1260.69,676.741 1257.27,677.12 1253.86,677.606 1250.47,678.2 1247.11,678.902 1243.77,679.711 
  1240.46,680.63 1237.17,681.657 1233.92,682.794 1230.71,684.041 1227.53,685.4 1224.39,686.872 1221.29,688.457 1218.24,690.158 1215.25,691.974 1212.31,693.907 
  1209.43,695.959 1206.61,698.132 1203.87,700.426 1201.2,702.84 1198.62,705.377 1196.14,708.04 1193.75,710.832 1191.47,713.757 1189.32,716.817 1187.29,720.013 
  1185.41,723.347 1183.69,726.819 1182.14,730.43 1180.79,734.178 1179.65,738.063 1178.74,742.082 1178.08,746.234 1177.7,750.516 1177.62,754.924 1177.87,759.445 
  1178.49,764.077 1179.51,768.813 1180.98,773.643 1182.93,778.549 1185.39,783.508 1188.4,788.49 1191.99,793.46 1196.19,798.377 1201.01,803.194 1206.49,807.856 
  1212.62,812.309 1219.41,816.498 1226.83,820.372 1234.82,823.877 1243.33,826.961 1252.25,829.576 1261.47,831.67 1270.89,833.224 1280.41,834.243 1289.93,834.737 
  1299.36,834.728 1308.62,834.239 1317.62,833.307 1326.31,831.971 1334.63,830.277 1342.57,828.265 1350.09,825.978 1357.2,823.454 1363.89,820.726 1370.16,817.829 
  1376.01,814.793 1381.46,811.643 1386.51,808.403 1391.19,805.093 1395.5,801.731 1399.47,798.334 1403.1,794.914 1406.42,791.486 1409.43,788.059 1412.16,784.642 
  1414.61,781.243 1416.8,777.868 1418.74,774.524 1420.44,771.215 1421.92,767.947 1423.18,764.723 1424.24,761.547 1425.11,758.422 1425.79,755.351 1426.29,752.335 
  1426.62,749.376 1426.79,746.476 1426.8,743.636 1426.66,740.857 1426.38,738.141 1425.95,735.488 1425.4,732.899 1424.72,730.376 1423.91,727.918 1422.98,725.527 
  1421.94,723.202 1420.78,720.945 1419.52,718.756 1418.15,716.634 1416.67,714.581 1415.09,712.597 1413.42,710.682 1411.64,708.836 1409.78,707.061 1407.82,705.357 
  1405.76,703.725 1403.62,702.164 1401.39,700.675 1399.07,699.26 1396.66,697.919 1394.17,696.652 1391.59,695.461 1388.93,694.345 1386.18,693.307 1383.35,692.346 
  1380.44,691.465 1377.44,690.665 1374.37,689.946 1371.2,689.311 1367.96,688.761 1364.63,688.298 1361.22,687.924 1357.73,687.641 1354.15,687.451 1350.49,687.358 
  1346.75,687.363 1342.92,687.47 1339.02,687.682 1335.03,688.001 1330.96,688.432 1326.81,688.98 1322.59,689.648 1318.28,690.441 1313.89,691.365 1309.42,692.425 
  1304.87,693.628 1300.24,694.983 1295.54,696.496 1290.77,698.178 1285.95,700.038 1281.07,702.088 1276.16,704.337 1271.22,706.799 1266.26,709.486 1261.3,712.411 
  1256.37,715.593 1251.49,719.053 1246.67,722.815 1241.98,726.899 1237.45,731.325 1233.17,736.113 1229.21,741.281 1225.68,746.842 1222.69,752.808 1220.41,759.187 
  1218.99,765.953 1218.63,773.04 1219.51,780.346 1221.81,787.722 1225.64,794.994 1230.99,801.974 1237.72,808.456 1245.6,814.233 1254.35,819.226 1263.68,823.41 
  1273.34,826.802 1283.09,829.459 1292.77,831.457 1302.27,832.876 1311.51,833.791 1320.44,834.272 1329.03,834.382 1337.28,834.175 1345.17,833.695 1352.7,832.984 
  1359.89,832.075 1366.75,830.996 1373.28,829.772 1379.5,828.423 1385.42,826.967 1391.05,825.42 1396.41,823.796 1401.5,822.105 1406.34,820.357 1410.94,818.561 
  1415.31,816.725 1419.45,814.855 1423.38,812.957 1427.11,811.036 1430.64,809.098 1433.98,807.145 1437.14,805.182 1440.11,803.211 1442.92,801.235 1445.57,799.256 
  1448.05,797.278 1450.38,795.303 1452.56,793.331 1454.6,791.365 1456.49,789.406 1458.25,787.455 1459.87,785.514 1461.36,783.584 1462.73,781.665 1463.97,779.759 
  1465.08,777.866 1466.08,775.988 1466.96,774.125 1467.72,772.277 1468.37,770.447 1468.9,768.633 1469.33,766.836 1469.65,765.058 1469.86,763.298 1469.96,761.556 
  1469.96,759.835 1469.86,758.133 1469.65,756.452 1469.33,754.791 1468.92,753.152 1468.4,751.534 1467.78,749.939 1467.06,748.367 1466.24,746.817 1465.31,745.292 
  1464.28,743.79 1463.15,742.313 1461.92,740.862 1460.59,739.436 1459.15,738.036 1457.6,736.664 1455.95,735.32 1454.19,734.003 1452.33,732.717 1450.36,731.461 
  1448.27,730.236 1446.07,729.043 1443.76,727.884 1441.33,726.76 1438.79,725.672 1436.12,724.621 1433.34,723.609 1430.43,722.638 1427.39,721.713 1424.22,720.833 
  1420.93,720 1417.49,719.215 1413.92,718.48 1410.2,717.798 1406.33,717.172 1402.31,716.607 1398.13,716.107 1393.79,715.677 1389.29,715.322 1384.61,715.05 
  1379.76,714.867 1374.73,714.78 1369.51,714.798 1364.11,714.929 1358.5,715.183 1352.71,715.577 1346.71,716.123 1340.5,716.832 1334.05,717.72 1327.36,718.812 
  1320.45,720.134 1313.3,721.718 1305.94,723.604 1298.39,725.836 1290.66,728.461 1282.83,731.515 1274.91,735.098 1266.99,739.326 1259.22,744.29 1251.84,750.057 
  1245.18,756.665 1239.68,764.141 1235.91,772.427 1234.34,781.259 1235.27,790.173 1238.62,798.711 1243.99,806.541 1250.81,813.442 1258.53,819.374 1266.76,824.414 
  1275.22,828.658 1283.71,832.214 1292.11,835.18 1300.34,837.642 1308.36,839.673 1316.13,841.332 1323.66,842.67 1330.92,843.729 1337.93,844.544 1344.67,845.146 
  1351.17,845.559 1357.42,845.803 1363.43,845.897 1369.21,845.857 1374.77,845.696 1380.12,845.426 1385.25,845.056 1390.19,844.596 1394.93,844.054 1399.49,843.435 
  1403.86,842.747 1408.06,841.994 1412.09,841.182 1415.95,840.315 1419.65,839.396 1423.19,838.429 1426.59,837.417 1429.83,836.362 1432.93,835.269 1435.89,834.138 
  1438.71,832.972 1441.4,831.772 1443.96,830.541 1446.39,829.279 1448.69,827.989 1450.87,826.672 1452.92,825.328 1454.85,823.96 1456.67,822.567 1458.37,821.152 
  1459.95,819.715 1461.42,818.256 1462.78,816.777 1464.02,815.279 1465.15,813.761 1466.18,812.225 1467.09,810.671 1467.89,809.099 1468.59,807.511 1469.17,805.908 
  1469.65,804.288 1470.02,802.654 1470.28,801.005 1470.43,799.342 1470.47,797.665 1470.4,795.976 1470.22,794.274 1469.93,792.559 1469.52,790.834 1469.01,789.097 
  1468.37,787.35 1467.63,785.593 1466.76,783.827 1465.77,782.053 1464.67,780.271 1463.44,778.482 1462.08,776.687 1460.6,774.887 1458.99,773.083 1457.24,771.275 
  1455.36,769.467 1453.33,767.658 1451.17,765.85 1448.85,764.043 1446.39,762.24 1443.77,760.441 1440.99,758.65 1438.04,756.868 1434.92,755.099 1431.63,753.346 
  1428.15,751.612 1424.49,749.9 1420.62,748.216 1416.56,746.563 1412.28,744.947 1407.78,743.379 1403.07,741.865 1398.11,740.409 1392.91,739.014 1387.43,737.69 
  1381.67,736.447 1375.62,735.3 1369.27,734.267 1362.61,733.369 1355.62,732.631 1348.3,732.081 1340.65,731.748 1332.66,731.668 1324.34,731.879 1315.67,732.436 
  1306.65,733.401 1297.32,734.845 1287.75,736.847 1278.05,739.491 1268.38,742.866 1258.94,747.071 1250.02,752.183 1241.95,758.191 1235.12,764.992 1229.91,772.403 
  1226.49,780.185 1224.86,788.083 1224.91,795.832 1226.41,803.207 1229.08,810.127 1232.66,816.538 1236.94,822.425 1241.72,827.805 1246.85,832.704 1252.24,837.156 
  1257.79,841.195 1263.42,844.852 1269.1,848.161 1274.79,851.151 1280.45,853.846 1286.07,856.272 1291.62,858.448 1297.08,860.393 1302.47,862.125 1307.75,863.656 
  1312.94,865.002 1318.02,866.174 1322.99,867.181 1327.86,868.035 1332.61,868.744 1337.25,869.316 1341.77,869.757 1346.19,870.073 1350.49,870.271 1354.68,870.355 
  1358.76,870.331 1362.73,870.203 1366.59,869.975 1370.34,869.65 1373.98,869.232 1377.51,868.724 1380.94,868.127 1384.26,867.446 1387.48,866.682 1390.59,865.838 
  1393.59,864.915 1396.49,863.915 1399.28,862.84 1401.98,861.692 1404.56,860.472 1407.04,859.18 1409.42,857.82 1411.69,856.391 1413.86,854.894 1415.92,853.331 
  1417.87,851.703 1419.72,850.01 1421.46,848.254 1423.08,846.435 1424.6,844.554 1426,842.611 1427.28,840.608 1428.45,838.545 1429.5,836.422 1430.43,834.241 
  1431.23,832.003 1431.9,829.707 1432.45,827.355 1432.86,824.947 1433.13,822.485 1433.26,819.969 1433.25,817.4 1433.08,814.78 1432.76,812.109 1432.27,809.39 
  1431.62,806.624 1430.79,803.813 1429.78,800.958 1428.59,798.065 1427.2,795.133 1425.61,792.164 1423.8,789.162 1421.77,786.129 1419.51,783.07 1417,779.99 
  1414.24,776.896 1411.22,773.793 1407.91,770.691 1404.31,767.597 1400.4,764.523 1396.18,761.478 1391.63,758.478 1386.74,755.538 1381.48,752.672 1375.83,749.896 
  1369.77,747.233 1363.28,744.709 1356.37,742.352 1349.03,740.198 1341.27,738.284 1333.1,736.653 1324.55,735.353 1315.63,734.43 1306.38,733.942 1296.86,733.946 
  1287.14,734.488 1277.31,735.607 1267.51,737.328 1257.89,739.668 1248.64,742.631 1239.87,746.186 1231.71,750.286 1224.25,754.865 1217.58,759.846 1211.76,765.137 
  1206.83,770.632 1202.8,776.246 1199.6,781.916 1197.18,787.579 1195.49,793.183 1194.46,798.685 1194.04,804.053 1194.15,809.261 1194.74,814.295 1195.76,819.144 
  1197.16,823.8 1198.89,828.258 1200.91,832.516 1203.2,836.575 1205.7,840.437 1208.41,844.106 1211.29,847.584 1214.32,850.876 1217.48,853.984 1220.76,856.914 
  1224.14,859.669 1227.6,862.254 1231.14,864.672 1234.74,866.928 1238.4,869.026 1242.1,870.969 1245.84,872.761 1249.62,874.404 1253.41,875.902 1257.23,877.257 
  1261.07,878.472 1264.91,879.55 1268.76,880.493 1272.61,881.302 1276.46,881.98 1280.3,882.529 1284.14,882.949 1287.97,883.242 1291.78,883.41 1295.58,883.452 
  1299.36,883.371 1303.11,883.166 1306.85,882.839 1310.55,882.39 1314.23,881.818 1317.87,881.125 1321.47,880.31 1325.04,879.373 1328.57,878.314 1332.05,877.132 
  1335.49,875.827 1338.87,874.398 1342.19,872.845 1345.46,871.166 1348.65,869.361 1351.78,867.429 1354.82,865.369 1357.79,863.179 1360.66,860.859 1363.44,858.408 
  1366.11,855.827 1368.66,853.114 1371.09,850.266 1373.38,847.279 1375.52,844.152 1377.51,840.885 1379.32,837.475 1380.94,833.925 1382.36,830.235 1383.54,826.407 
  1384.47,822.443 1385.14,818.347 1385.51,814.123 1385.55,809.776 1385.25,805.314 1384.58,800.751 1383.48,796.092 1381.93,791.347 1379.88,786.532 1377.3,781.671 
  1374.16,776.793 1370.42,771.933 1366.07,767.134 1361.08,762.444 1355.42,757.92 1349.11,753.619 1342.13,749.6 1334.52,745.918 1326.31,742.629 1317.59,739.785 
  1308.44,737.436 1298.99,735.633 1289.37,734.408 1279.67,733.759 1270.01,733.669 1260.48,734.119 1251.17,735.076 1242.17,736.503 1233.56,738.355 1225.39,740.578 
  1217.68,743.126 1210.45,745.952 1203.7,749.012 1197.44,752.267 1191.67,755.679 1186.36,759.216 1181.52,762.847 1177.12,766.547 1173.14,770.295 1169.57,774.071 
  1166.37,777.858 1163.55,781.641 1161.07,785.407 1158.92,789.146 1157.08,792.848 1155.54,796.506 1154.28,800.113 1153.28,803.664 1152.53,807.153 1152.02,810.576 
  1151.74,813.929 1151.67,817.21 1151.8,820.414 1152.13,823.541 1152.63,826.588 1153.32,829.555 1154.17,832.438 1155.19,835.239 1156.35,837.954 1157.67,840.584 
  1159.12,843.127 1160.71,845.582 1162.43,847.949 1164.28,850.227 1166.25,852.416 1168.33,854.515 1170.53,856.523 1172.84,858.44 1175.26,860.266 1177.79,861.999 
  1180.42,863.638 1183.14,865.184 1185.97,866.634 1188.89,867.988 1191.9,869.244 1195.01,870.402 1198.2,871.46 1201.49,872.417 1204.86,873.272 1208.32,874.023 
  1211.87,874.669 1215.5,875.206 1219.21,875.634 1223,875.949 1226.87,876.15 1230.82,876.233 1234.85,876.195 1238.96,876.033 1243.14,875.743 1247.39,875.321 
  1251.72,874.763 1256.11,874.063 1260.56,873.218 1265.08,872.221 1269.65,871.067 1274.25,869.755 1278.9,868.275 1283.59,866.616 1288.32,864.767 1293.08,862.717 
  1297.86,860.454 1302.65,857.968 1307.43,855.245 1312.17,852.275 1316.85,849.046 1321.43,845.545 1325.88,841.761 1330.16,837.679 1334.22,833.289 1337.99,828.582 
  1341.42,823.534 1344.39,818.125 1346.82,812.356 1348.58,806.244 1349.56,799.826 1349.59,793.158 1348.54,786.318 1346.27,779.409 1342.67,772.556 1337.75,765.909 
  1331.56,759.647 1324.25,753.953 1315.99,748.929 1307.03,744.631 1297.59,741.085 1287.91,738.28 1278.18,736.171 1268.53,734.692 1259.08,733.775 1249.9,733.355 
  1241.05,733.369 1232.55,733.755 1224.41,734.463 1216.66,735.447 1209.28,736.669 1202.27,738.092 1195.63,739.688 1189.33,741.432 1183.38,743.302 1177.76,745.279 
  1172.45,747.346 1167.45,749.488 1162.74,751.693 1158.31,753.951 1154.15,756.252 1150.24,758.587 1146.59,760.95 1143.17,763.334 1139.99,765.733 1137.02,768.141 
  1134.27,770.555 1131.72,772.97 1129.37,775.383 1127.22,777.79 1125.25,780.19 1123.46,782.578 1121.84,784.953 1120.4,787.312 1119.12,789.654 1118,791.976 
  1117.03,794.277 1116.23,796.555 1115.57,798.81 1115.06,801.039 1114.69,803.241 1114.46,805.416 1114.37,807.562 1114.42,809.678 1114.6,811.763 1114.92,813.815 
  1115.36,815.835 1115.94,817.82 1116.65,819.771 1117.48,821.685 1118.44,823.562 1119.53,825.402 1120.74,827.203 1122.07,828.964 1123.54,830.684 1125.12,832.362 
  1126.83,833.997 1128.67,835.588 1130.64,837.133 1132.73,838.63 1134.95,840.079 1137.3,841.478 1139.77,842.825 1142.38,844.118 1145.12,845.356 1148,846.537 
  1151.01,847.657 1154.16,848.714 1157.44,849.707 1160.87,850.631 1164.45,851.486 1168.17,852.268 1172.04,852.973 1176.06,853.597 1180.25,854.134 1184.59,854.579 
  1189.09,854.927 1193.76,855.17 1198.6,855.301 1203.61,855.312 1208.8,855.196 1214.16,854.942 1219.69,854.537 1225.39,853.969 1231.29,853.226 1237.38,852.294 
  1243.67,851.152 1250.15,849.778 1256.82,848.144 1263.66,846.22 1270.63,843.972 1277.73,841.361 1284.9,838.346 1292.09,834.878 1299.25,830.883 1306.28,826.292 
  1313.01,821.045 1319.21,815.095 1324.6,808.41 1328.8,800.988 1331.39,792.926 1332.01,784.466 1330.39,775.973 1326.57,767.806 1320.85,760.269 1313.69,753.618 
  1305.58,747.921 1296.9,743.134 1287.96,739.18 1278.98,735.957 1270.09,733.366 1261.39,731.32 1252.94,729.739 1244.76,728.559 1236.88,727.723 1229.3,727.185 
  1222.01,726.905 1215.03,726.85 1208.34,726.992 1201.93,727.308 1195.79,727.777 1189.92,728.383 1184.31,729.109 1178.95,729.944 1173.83,730.875 1168.94,731.894 
  1164.27,732.992 1159.82,734.16 1155.58,735.392 1151.54,736.683 1147.69,738.027 1144.04,739.419 1140.57,740.856 1137.28,742.333 1134.16,743.847 1131.22,745.395 
  1128.44,746.973 1125.82,748.58 1123.36,750.214 1121.06,751.871 1118.91,753.551 1116.9,755.251 1115.05,756.969 1113.34,758.705 1111.77,760.456 1110.34,762.221 
  1109.04,763.999 1107.89,765.789 1106.87,767.59 1105.98,769.4 1105.23,771.219 1104.61,773.045 1104.12,774.878 1103.76,776.716 1103.54,778.559 1103.44,780.406 
  1103.48,782.256 1103.64,784.108 1103.94,785.96 1104.37,787.813 1104.93,789.664 1105.63,791.514 1106.46,793.361 1107.42,795.204 1108.52,797.042 1109.76,798.874 
  1111.14,800.699 1112.67,802.515 1114.34,804.321 1116.15,806.115 1118.12,807.896 1120.24,809.663 1122.51,811.412 1124.95,813.143 1127.55,814.853 1130.31,816.538 
  1133.25,818.192 1136.36,819.816 1139.64,821.409 1143.12,822.967 1146.79,824.489 1150.66,825.969 1154.74,827.403 1159.03,828.784 1163.54,830.106 1168.28,831.36 
  1173.25,832.536 1178.48,833.626 1183.95,834.618 1189.69,835.499 1195.69,836.256 1201.98,836.874 1208.54,837.33 1215.4,837.607 1222.59,837.682 1230.11,837.524 
  1237.95,837.094 1246.12,836.348 1254.59,835.232 1263.33,833.685 1272.29,831.645 1281.43,829.02 1290.64,825.699 1299.76,821.589 1308.53,816.62 1316.59,810.743 
  1323.51,803.955 1328.85,796.352 1332.29,788.185 1333.61,779.84 1332.87,771.649 1330.34,763.871 1326.36,756.688 1321.33,750.188 1315.56,744.368 1309.28,739.199 
  1302.69,734.634 1295.94,730.613 1289.11,727.083 1282.29,723.994 1275.52,721.298 1268.84,718.958 1262.29,716.936 1255.87,715.202 1249.6,713.73 1243.48,712.496 
  1237.53,711.479 1231.75,710.66 1226.14,710.025 1220.69,709.56 1215.41,709.253 1210.3,709.091 1205.35,709.067 1200.57,709.169 1195.94,709.392 1191.48,709.728 
  1187.17,710.171 1183.02,710.716 1179.01,711.356 1175.16,712.088 1171.46,712.908 1167.9,713.81 1164.48,714.793 1161.21,715.852 1158.08,716.985 1155.08,718.189 
  1152.23,719.462 1149.51,720.801 1146.93,722.204 1144.48,723.669 1142.17,725.195 1139.99,726.779 1137.95,728.419 1136.04,730.115 1134.26,731.865 1132.62,733.668 
  1131.11,735.522 1129.74,737.425 1128.5,739.378 1127.4,741.377 1126.44,743.423 1125.62,745.514 1124.94,747.649 1124.4,749.826 1124.01,752.045 1123.77,754.304 
  1123.67,756.602 1123.73,758.937 1123.94,761.309 1124.32,763.715 1124.86,766.155 1125.56,768.627 1126.44,771.129 1127.49,773.658 1128.72,776.213 1130.15,778.791 
  1131.76,781.39 1133.57,784.006 1135.59,786.637 1137.83,789.28 1140.28,791.93 1142.97,794.583 1145.89,797.235 1149.06,799.879 1152.49,802.509 1156.19,805.118 
  
  "/>
<circle clip-path="url(#clip4603)" style="fill:#000000; stroke:none; fill-opacity:1" cx="1281.71" cy="783.233" r="18"/>
<circle clip-path="url(#clip4603)" style="fill:#c271d2; stroke:none; fill-opacity:1" cx="1281.71" cy="783.233" r="14"/>
<circle clip-path="url(#clip4603)" style="fill:#000000; stroke:none; fill-opacity:1" cx="923.111" cy="783.233" r="18"/>
<circle clip-path="url(#clip4603)" style="fill:#ac8d18; stroke:none; fill-opacity:1" cx="923.111" cy="783.233" r="14"/>
<circle clip-path="url(#clip4603)" style="fill:#000000; stroke:none; fill-opacity:1" cx="1640.31" cy="783.233" r="18"/>
<circle clip-path="url(#clip4603)" style="fill:#ac8d18; stroke:none; fill-opacity:1" cx="1640.31" cy="783.233" r="14"/>
<polygon clip-path="url(#clip4601)" points="
1621.3,572.384 2249.26,572.384 2249.26,209.504 1621.3,209.504 
  " fill="#ffffff" fill-rule="evenodd" fill-opacity="1"/>
<polyline clip-path="url(#clip4601)" style="stroke:#000000; stroke-width:4; stroke-opacity:1; fill:none" points="
  1621.3,572.384 2249.26,572.384 2249.26,209.504 1621.3,209.504 1621.3,572.384 
  "/>
<polyline clip-path="url(#clip4601)" style="stroke:#009af9; stroke-width:4; stroke-opacity:1; fill:none" points="
  1645.3,269.984 1789.3,269.984 
  "/>
<g clip-path="url(#clip4601)">
<text style="fill:#000000; fill-opacity:1; font-family:Arial,Helvetica Neue,Helvetica,sans-serif; font-size:48px; text-anchor:start;" transform="rotate(0, 1813.3, 287.484)" x="1813.3" y="287.484">Orbit</text>
</g>
<polyline clip-path="url(#clip4601)" style="stroke:#e26f46; stroke-width:12; stroke-opacity:1; fill:none" points="
  1645.3,330.464 1789.3,330.464 
  "/>
<g clip-path="url(#clip4601)">
<text style="fill:#000000; fill-opacity:1; font-family:Arial,Helvetica Neue,Helvetica,sans-serif; font-size:48px; text-anchor:start;" transform="rotate(0, 1813.3, 347.964)" x="1813.3" y="347.964">Solution 1</text>
</g>
<polyline clip-path="url(#clip4601)" style="stroke:#3da44d; stroke-width:12; stroke-opacity:1; fill:none" points="
  1645.3,390.944 1789.3,390.944 
  "/>
<g clip-path="url(#clip4601)">
<text style="fill:#000000; fill-opacity:1; font-family:Arial,Helvetica Neue,Helvetica,sans-serif; font-size:48px; text-anchor:start;" transform="rotate(0, 1813.3, 408.444)" x="1813.3" y="408.444">Solution 2</text>
</g>
<circle clip-path="url(#clip4601)" style="fill:#000000; stroke:none; fill-opacity:1" cx="1729.3" cy="451.424" r="25"/>
<circle clip-path="url(#clip4601)" style="fill:#c271d2; stroke:none; fill-opacity:1" cx="1729.3" cy="451.424" r="21"/>
<g clip-path="url(#clip4601)">
<text style="fill:#000000; fill-opacity:1; font-family:Arial,Helvetica Neue,Helvetica,sans-serif; font-size:48px; text-anchor:start;" transform="rotate(0, 1813.3, 468.924)" x="1813.3" y="468.924">Massive bodies</text>
</g>
<circle clip-path="url(#clip4601)" style="fill:#000000; stroke:none; fill-opacity:1" cx="1729.3" cy="511.904" r="25"/>
<circle clip-path="url(#clip4601)" style="fill:#ac8d18; stroke:none; fill-opacity:1" cx="1729.3" cy="511.904" r="21"/>
<g clip-path="url(#clip4601)">
<text style="fill:#000000; fill-opacity:1; font-family:Arial,Helvetica Neue,Helvetica,sans-serif; font-size:48px; text-anchor:start;" transform="rotate(0, 1813.3, 529.404)" x="1813.3" y="529.404">Lagrangian Points</text>
</g>
</svg>
