<?xml version="1.0" encoding="utf-8"?>
<svg xmlns="http://www.w3.org/2000/svg" xmlns:xlink="http://www.w3.org/1999/xlink" width="600" height="400" viewBox="0 0 2400 1600">
<defs>
  <clipPath id="clip4800">
    <rect x="0" y="0" width="2000" height="2000"/>
  </clipPath>
</defs>
<defs>
  <clipPath id="clip4801">
    <rect x="0" y="0" width="2400" height="1600"/>
  </clipPath>
</defs>
<polygon clip-path="url(#clip4801)" points="
0,1600 2400,1600 2400,0 0,0 
  " fill="#ffffff" fill-rule="evenodd" fill-opacity="1"/>
<defs>
  <clipPath id="clip4802">
    <rect x="480" y="0" width="1681" height="1600"/>
  </clipPath>
</defs>
<polygon clip-path="url(#clip4801)" points="
252.496,1440.48 2321.26,1440.48 2321.26,125.984 252.496,125.984 
  " fill="#ffffff" fill-rule="evenodd" fill-opacity="1"/>
<defs>
  <clipPath id="clip4803">
    <rect x="252" y="125" width="2070" height="1315"/>
  </clipPath>
</defs>
<polyline clip-path="url(#clip4803)" style="stroke:#000000; stroke-width:2; stroke-opacity:0.1; fill:none" points="
  252.496,1440.48 252.496,125.984 
  "/>
<polyline clip-path="url(#clip4803)" style="stroke:#000000; stroke-width:2; stroke-opacity:0.1; fill:none" points="
  769.687,1440.48 769.687,125.984 
  "/>
<polyline clip-path="url(#clip4803)" style="stroke:#000000; stroke-width:2; stroke-opacity:0.1; fill:none" points="
  1286.88,1440.48 1286.88,125.984 
  "/>
<polyline clip-path="url(#clip4803)" style="stroke:#000000; stroke-width:2; stroke-opacity:0.1; fill:none" points="
  1804.07,1440.48 1804.07,125.984 
  "/>
<polyline clip-path="url(#clip4803)" style="stroke:#000000; stroke-width:2; stroke-opacity:0.1; fill:none" points="
  252.496,1440.48 2321.26,1440.48 
  "/>
<polyline clip-path="url(#clip4803)" style="stroke:#000000; stroke-width:2; stroke-opacity:0.1; fill:none" points="
  252.496,1111.86 2321.26,1111.86 
  "/>
<polyline clip-path="url(#clip4803)" style="stroke:#000000; stroke-width:2; stroke-opacity:0.1; fill:none" points="
  252.496,783.233 2321.26,783.233 
  "/>
<polyline clip-path="url(#clip4803)" style="stroke:#000000; stroke-width:2; stroke-opacity:0.1; fill:none" points="
  252.496,454.609 2321.26,454.609 
  "/>
<polyline clip-path="url(#clip4803)" style="stroke:#000000; stroke-width:2; stroke-opacity:0.1; fill:none" points="
  252.496,125.984 2321.26,125.984 
  "/>
<polyline clip-path="url(#clip4801)" style="stroke:#000000; stroke-width:4; stroke-opacity:1; fill:none" points="
  252.496,1440.48 2321.26,1440.48 
  "/>
<polyline clip-path="url(#clip4801)" style="stroke:#000000; stroke-width:4; stroke-opacity:1; fill:none" points="
  252.496,1440.48 252.496,125.984 
  "/>
<polyline clip-path="url(#clip4801)" style="stroke:#000000; stroke-width:4; stroke-opacity:1; fill:none" points="
  252.496,1440.48 252.496,1420.77 
  "/>
<polyline clip-path="url(#clip4801)" style="stroke:#000000; stroke-width:4; stroke-opacity:1; fill:none" points="
  769.687,1440.48 769.687,1420.77 
  "/>
<polyline clip-path="url(#clip4801)" style="stroke:#000000; stroke-width:4; stroke-opacity:1; fill:none" points="
  1286.88,1440.48 1286.88,1420.77 
  "/>
<polyline clip-path="url(#clip4801)" style="stroke:#000000; stroke-width:4; stroke-opacity:1; fill:none" points="
  1804.07,1440.48 1804.07,1420.77 
  "/>
<polyline clip-path="url(#clip4801)" style="stroke:#000000; stroke-width:4; stroke-opacity:1; fill:none" points="
  252.496,1440.48 283.528,1440.48 
  "/>
<polyline clip-path="url(#clip4801)" style="stroke:#000000; stroke-width:4; stroke-opacity:1; fill:none" points="
  252.496,1111.86 283.528,1111.86 
  "/>
<polyline clip-path="url(#clip4801)" style="stroke:#000000; stroke-width:4; stroke-opacity:1; fill:none" points="
  252.496,783.233 283.528,783.233 
  "/>
<polyline clip-path="url(#clip4801)" style="stroke:#000000; stroke-width:4; stroke-opacity:1; fill:none" points="
  252.496,454.609 283.528,454.609 
  "/>
<polyline clip-path="url(#clip4801)" style="stroke:#000000; stroke-width:4; stroke-opacity:1; fill:none" points="
  252.496,125.984 283.528,125.984 
  "/>
<g clip-path="url(#clip4801)">
<text style="fill:#000000; fill-opacity:1; font-family:Arial,Helvetica Neue,Helvetica,sans-serif; font-size:48px; text-anchor:middle;" transform="rotate(0, 252.496, 1494.48)" x="252.496" y="1494.48">0.8</text>
</g>
<g clip-path="url(#clip4801)">
<text style="fill:#000000; fill-opacity:1; font-family:Arial,Helvetica Neue,Helvetica,sans-serif; font-size:48px; text-anchor:middle;" transform="rotate(0, 769.687, 1494.48)" x="769.687" y="1494.48">0.9</text>
</g>
<g clip-path="url(#clip4801)">
<text style="fill:#000000; fill-opacity:1; font-family:Arial,Helvetica Neue,Helvetica,sans-serif; font-size:48px; text-anchor:middle;" transform="rotate(0, 1286.88, 1494.48)" x="1286.88" y="1494.48">1.0</text>
</g>
<g clip-path="url(#clip4801)">
<text style="fill:#000000; fill-opacity:1; font-family:Arial,Helvetica Neue,Helvetica,sans-serif; font-size:48px; text-anchor:middle;" transform="rotate(0, 1804.07, 1494.48)" x="1804.07" y="1494.48">1.1</text>
</g>
<g clip-path="url(#clip4801)">
<text style="fill:#000000; fill-opacity:1; font-family:Arial,Helvetica Neue,Helvetica,sans-serif; font-size:48px; text-anchor:end;" transform="rotate(0, 228.496, 1457.98)" x="228.496" y="1457.98">-0.2</text>
</g>
<g clip-path="url(#clip4801)">
<text style="fill:#000000; fill-opacity:1; font-family:Arial,Helvetica Neue,Helvetica,sans-serif; font-size:48px; text-anchor:end;" transform="rotate(0, 228.496, 1129.36)" x="228.496" y="1129.36">-0.1</text>
</g>
<g clip-path="url(#clip4801)">
<text style="fill:#000000; fill-opacity:1; font-family:Arial,Helvetica Neue,Helvetica,sans-serif; font-size:48px; text-anchor:end;" transform="rotate(0, 228.496, 800.733)" x="228.496" y="800.733">0.0</text>
</g>
<g clip-path="url(#clip4801)">
<text style="fill:#000000; fill-opacity:1; font-family:Arial,Helvetica Neue,Helvetica,sans-serif; font-size:48px; text-anchor:end;" transform="rotate(0, 228.496, 472.109)" x="228.496" y="472.109">0.1</text>
</g>
<g clip-path="url(#clip4801)">
<text style="fill:#000000; fill-opacity:1; font-family:Arial,Helvetica Neue,Helvetica,sans-serif; font-size:48px; text-anchor:end;" transform="rotate(0, 228.496, 143.484)" x="228.496" y="143.484">0.2</text>
</g>
<g clip-path="url(#clip4801)">
<text style="fill:#000000; fill-opacity:1; font-family:Arial,Helvetica Neue,Helvetica,sans-serif; font-size:84px; text-anchor:middle;" transform="rotate(0, 1286.88, 73.2)" x="1286.88" y="73.2">Starting near L2</text>
</g>
<g clip-path="url(#clip4801)">
<text style="fill:#000000; fill-opacity:1; font-family:Arial,Helvetica Neue,Helvetica,sans-serif; font-size:66px; text-anchor:middle;" transform="rotate(0, 1286.88, 1590.4)" x="1286.88" y="1590.4">X</text>
</g>
<g clip-path="url(#clip4801)">
<text style="fill:#000000; fill-opacity:1; font-family:Arial,Helvetica Neue,Helvetica,sans-serif; font-size:66px; text-anchor:middle;" transform="rotate(-90, 57.6, 783.233)" x="57.6" y="783.233">Y</text>
</g>
<polyline clip-path="url(#clip4803)" style="stroke:#009af9; stroke-width:4; stroke-opacity:1; fill:none" points="
  -4400.84,-2483.33 -4349.41,-2486.44 -4297.93,-2489.23 -4246.41,-2491.69 -4194.85,-2493.82 -4143.26,-2495.63 -4091.65,-2497.1 -4040.01,-2498.25 -3988.36,-2499.07 -3936.7,-2499.57 
  -3885.03,-2499.73 -3833.36,-2499.57 -3781.7,-2499.07 -3730.05,-2498.25 -3678.42,-2497.1 -3626.8,-2495.63 -3575.21,-2493.82 -3523.65,-2491.69 -3472.13,-2489.23 -3420.65,-2486.44 
  -3369.22,-2483.33 -3317.83,-2479.89 -3266.51,-2476.12 -3215.24,-2472.03 -3164.05,-2467.61 -3112.92,-2462.87 -3061.87,-2457.8 -3010.91,-2452.4 -2960.03,-2446.69 -2909.25,-2440.65 
  -2858.56,-2434.29 -2807.97,-2427.61 -2757.49,-2420.6 -2707.13,-2413.28 -2656.88,-2405.63 -2606.76,-2397.67 -2556.76,-2389.39 -2506.9,-2380.79 -2457.17,-2371.88 -2407.59,-2362.65 
  -2358.15,-2353.1 -2308.87,-2343.24 -2259.75,-2333.07 -2210.78,-2322.59 -2161.99,-2311.8 -2113.37,-2300.69 -2064.92,-2289.28 -2016.66,-2277.56 -1968.58,-2265.54 -1920.7,-2253.21 
  -1873.01,-2240.58 -1825.52,-2227.64 -1778.24,-2214.4 -1731.17,-2200.87 -1684.31,-2187.03 -1637.68,-2172.9 -1591.27,-2158.47 -1545.08,-2143.75 -1499.14,-2128.74 -1453.43,-2113.43 
  -1407.96,-2097.84 -1362.74,-2081.95 -1317.78,-2065.78 -1273.07,-2049.33 -1228.62,-2032.59 -1184.44,-2015.57 -1140.53,-1998.27 -1096.89,-1980.7 -1053.53,-1962.84 -1010.46,-1944.71 
  -967.669,-1926.31 -925.172,-1907.64 -882.972,-1888.7 -841.072,-1869.49 -799.476,-1850.02 -758.189,-1830.28 -717.214,-1810.28 -676.556,-1790.02 -636.219,-1769.51 -596.207,-1748.74 
  -556.524,-1727.72 -517.174,-1706.44 -478.16,-1684.92 -439.487,-1663.15 -401.159,-1641.13 -363.179,-1618.87 -325.551,-1596.38 -288.28,-1573.64 -251.367,-1550.67 -214.819,-1527.46 
  -178.637,-1504.03 -142.826,-1480.36 -107.389,-1456.47 -72.3298,-1432.36 -37.6519,-1408.02 -3.35873,-1383.47 30.5462,-1358.69 64.0597,-1333.71 97.1782,-1308.51 129.898,-1283.1 
  162.217,-1257.49 194.131,-1231.67 225.638,-1205.65 256.733,-1179.43 287.414,-1153.02 317.677,-1126.41 347.521,-1099.61 376.941,-1072.62 405.935,-1045.45 434.5,-1018.1 
  462.633,-990.559 490.331,-962.846 517.592,-934.958 544.412,-906.898 570.789,-878.669 596.721,-850.274 622.205,-821.715 647.238,-792.997 671.818,-764.12 695.942,-735.089 
  719.608,-705.906 742.813,-676.574 765.556,-647.096 787.834,-617.475 809.644,-587.714 830.985,-557.816 851.854,-527.783 872.25,-497.62 892.17,-467.329 911.612,-436.912 
  930.575,-406.374 949.056,-375.716 967.053,-344.943 984.566,-314.057 1001.59,-283.061 1018.13,-251.958 1034.17,-220.752 1049.73,-189.446 1064.79,-158.042 1079.36,-126.544 
  1093.43,-94.9553 1107,-63.2787 1120.07,-31.5174 1132.64,0.325388 1144.71,32.2464 1156.28,64.2426 1167.34,96.3106 1177.9,128.447 1187.95,160.65 1197.5,192.914 
  1206.53,225.238 1215.06,257.617 1223.08,290.049 1230.58,322.53 1237.58,355.057 1244.06,387.627 1250.03,420.237 1255.49,452.883 1260.43,485.562 1264.86,518.271 
  1268.77,551.006 1272.17,583.764 1275.05,616.543 1277.41,649.338 1279.26,682.146 1280.59,714.965 1281.41,747.79 1281.71,780.619 1281.49,813.448 1280.76,846.274 
  1279.51,879.094 1277.74,911.905 1275.46,944.702 1272.66,977.483 1269.34,1010.25 1265.51,1042.98 1261.17,1075.7 1256.31,1108.38 1250.93,1141.03 1245.05,1173.65 
  1238.65,1206.23 1231.73,1238.76 1224.31,1271.25 1216.37,1303.69 1207.93,1336.08 1198.97,1368.41 1189.51,1400.68 1179.54,1432.9 1169.06,1465.04 1158.08,1497.12 
  1146.59,1529.13 1134.6,1561.06 1122.11,1592.92 1109.11,1624.69 1095.62,1656.38 1081.63,1687.99 1067.14,1719.5 1052.16,1750.92 1036.68,1782.24 1020.72,1813.46 
  1004.26,1844.58 987.31,1875.59 969.875,1906.5 951.955,1937.29 933.55,1967.97 914.664,1998.52 895.299,2028.96 875.455,2059.27 855.134,2089.46 834.34,2119.51 
  813.074,2149.43 791.339,2179.21 769.135,2208.85 746.466,2238.36 723.334,2267.71 699.742,2296.92 675.69,2325.97 651.183,2354.87 626.222,2383.62 600.81,2412.2 
  574.949,2440.62 548.643,2468.88 521.893,2496.97 494.702,2524.88 467.073,2552.62 439.009,2580.19 410.513,2607.57 381.587,2634.78 352.235,2661.79 322.459,2688.62 
  292.262,2715.26 261.647,2741.71 230.618,2767.96 199.177,2794.01 167.327,2819.86 135.073,2845.5 102.416,2870.94 69.3608,2896.18 35.9101,2921.2 2.06723,2946 
  -32.1643,2970.59 -66.7812,2994.96 -101.78,3019.11 -137.157,3043.04 -172.909,3066.74 -209.032,3090.21 -245.522,3113.46 -282.377,3136.46 -319.591,3159.24 -357.163,3181.77 
  -395.087,3204.07 -433.36,3226.12 -471.978,3247.93 -510.938,3269.5 -550.235,3290.81 -589.865,3311.87 -629.825,3332.68 -670.111,3353.24 -710.718,3373.54 -751.642,3393.58 
  -792.88,3413.36 -834.427,3432.87 -876.279,3452.12 -918.431,3471.11 -960.881,3489.82 -1003.62,3508.27 -1046.65,3526.44 -1089.97,3544.34 -1133.56,3561.96 -1177.43,3579.3 
  -1221.57,3596.37 -1265.97,3613.15 -1310.64,3629.65 -1355.57,3645.87 -1400.74,3661.79 -1446.17,3677.44 -1491.84,3692.79 -1537.75,3707.85 -1583.89,3722.62 -1630.27,3737.09 
  -1676.87,3751.27 -1723.69,3765.15 -1770.73,3778.73 -1817.98,3792.02 -1865.43,3805 -1913.09,3817.68 -1960.94,3830.06 -2008.99,3842.13 -2057.22,3853.9 -2105.64,3865.36 
  -2154.23,3876.51 -2203,3887.36 -2251.94,3897.89 -2301.04,3908.11 -2350.29,3918.02 -2399.71,3927.61 -2449.27,3936.89 -2498.97,3945.86 -2548.81,3954.51 -2598.79,3962.84 
  -2648.89,3970.85 -2699.12,3978.55 -2749.47,3985.92 -2799.93,3992.98 -2850.49,3999.71 -2901.17,4006.13 -2951.94,4012.22 -3002.8,4017.98 -3053.75,4023.43 -3104.79,4028.55 
  -3155.9,4033.34 -3207.09,4037.81 -3258.34,4041.96 -3309.66,4045.78 -3361.03,4049.27 -3412.46,4052.44 -3463.93,4055.27 -3515.45,4057.79 -3567,4059.97 -3618.58,4061.83 
  -3670.19,4063.36 -3721.83,4064.56 -3773.48,4065.43 -3825.14,4065.98 -3876.8,4066.19 -3928.47,4066.08 -3980.13,4065.64 -4031.78,4064.87 -4083.42,4063.78 -4135.04,4062.35 
  -4186.64,4060.6 -4238.2,4058.52 -4289.73,4056.11 -4341.21,4053.38 -4392.66,4050.31 -4444.05,4046.92 -4495.38,4043.21 -4546.66,4039.17 -4597.87,4034.8 -4649,4030.11 
  -4700.06,4025.09 -4751.04,4019.75 -4801.93,4014.09 -4852.73,4008.1 -4903.44,4001.79 -4954.04,3995.16 -5004.54,3988.21 -5054.92,3980.93 -5105.18,3973.34 -5155.33,3965.43 
  -5205.35,3957.2 -5255.23,3948.65 -5304.98,3939.78 -5354.59,3930.6 -5404.04,3921.11 -5453.35,3911.3 -5502.5,3901.18 -5551.49,3890.75 -5600.31,3880 -5648.96,3868.95 
  -5697.44,3857.59 -5745.73,3845.92 -5793.84,3833.94 -5841.75,3821.66 -5889.47,3809.07 -5936.99,3796.19 -5984.31,3783 -6031.41,3769.51 -6078.3,3755.72 -6124.97,3741.64 
  -6171.42,3727.26 -6217.64,3712.58 -6263.62,3697.62 -6309.37,3682.36 -6354.87,3666.81 -6400.13,3650.97 -6445.14,3634.85 -6489.89,3618.44 -6534.38,3601.74 -6578.6,3584.77 
  -6622.56,3567.51 -6666.24,3549.98 -6709.64,3532.17 -6752.76,3514.09 -6795.6,3495.73 -6838.14,3477.1 -6880.39,3458.2 -6922.34,3439.03 -6963.98,3419.6 -7005.32,3399.91 
  -7046.34,3379.95 -7087.05,3359.73 -7127.44,3339.26 -7167.5,3318.53 -7207.24,3297.55 -7246.64,3276.31 -7285.71,3254.83 -7324.44,3233.1 -7362.82,3211.12 -7400.86,3188.9 
  -7438.54,3166.44 -7475.87,3143.74 -7512.84,3120.81 -7549.45,3097.64 -7585.69,3074.24 -7621.56,3050.62 -7657.05,3026.76 -7692.17,3002.68 -7726.91,2978.38 -7761.27,2953.86 
  -7795.23,2929.12 -7828.81,2904.17 -7861.99,2879 -7894.78,2853.63 -7927.16,2828.05 -7959.14,2802.26 -7990.71,2776.28 -8021.87,2750.09 -8052.62,2723.71 -8082.95,2697.13 
  -8112.86,2670.36 -8142.35,2643.4 -8171.41,2616.26 -8200.04,2588.93 -8228.24,2561.42 -8256.01,2533.74 -8283.34,2505.88 -8310.23,2477.84 -8336.68,2449.64 -8362.68,2421.27 
  -8388.24,2392.74 -8413.34,2364.05 -8438,2335.2 -8462.19,2306.19 -8485.93,2277.03 -8509.21,2247.72 -8532.03,2218.27 -8554.38,2188.67 -8576.26,2158.93 -8597.68,2129.05 
  -8618.62,2099.04 -8639.1,2068.9 -8659.09,2038.63 -8678.61,2008.23 -8697.65,1977.71 -8716.21,1947.07 -8734.28,1916.32 -8751.87,1885.45 -8768.97,1854.47 -8785.59,1823.39 
  -8801.71,1792.2 -8817.35,1760.91 -8832.49,1729.52 -8847.13,1698.03 -8861.28,1666.46 -8874.93,1634.8 -8888.08,1603.05 -8900.74,1571.22 -8912.89,1539.31 -8924.53,1507.33 
  -8935.68,1475.27 -8946.32,1443.14 -8956.45,1410.95 -8966.07,1378.7 -8975.19,1346.38 -8983.8,1314.01 -8991.9,1281.59 -8999.48,1249.11 -9006.56,1216.59 -9013.12,1184.03 
  -9019.18,1151.43 -9024.71,1118.79 -9029.74,1086.11 -9034.25,1053.41 -9038.24,1020.68 -9041.72,987.921 -9044.68,955.146 -9047.13,922.353 -9049.06,889.547 -9050.48,856.729 
  -9051.38,823.905 -9051.76,791.076 -9051.62,758.247 -9050.97,725.42 -9049.8,692.599 -9048.12,659.787 -9045.92,626.987 -9043.2,594.203 -9039.97,561.438 -9036.22,528.695 
  -9031.96,495.978 -9027.18,463.289 -9021.89,430.632 -9016.08,398.01 -9009.76,365.427 -9002.93,332.886 -8995.59,300.39 -8987.73,267.942 -8979.37,235.546 -8970.49,203.204 
  -8961.11,170.92 -8951.22,138.698 -8940.82,106.54 -8929.92,74.4496 -8918.51,42.4302 -8906.6,10.4849 -8894.19,-21.3832 -8881.28,-53.1708 -8867.86,-84.8747 -8853.95,-116.492 
  -8839.55,-148.019 -8824.64,-179.453 -8809.24,-210.791 -8793.35,-242.029 -8776.97,-273.165 -8760.1,-304.195 -8742.75,-335.117 -8724.9,-365.926 -8706.58,-396.621 -8687.77,-427.198 
  -8668.48,-457.653 -8648.71,-487.985 -8628.46,-518.19 -8607.75,-548.264 -8586.55,-578.205 -8564.89,-608.01 -8542.76,-637.676 -8520.17,-667.2 -8497.11,-696.579 -8473.59,-725.81 
  -8449.61,-754.889 -8425.18,-783.816 -8400.29,-812.585 -8374.95,-841.195 -8349.16,-869.642 -8322.92,-897.924 -8296.24,-926.038 -8269.12,-953.981 -8241.56,-981.751 -8213.57,-1009.34 
  -8185.14,-1036.76 -8156.28,-1063.99 -8127,-1091.04 -8097.29,-1117.89 -8067.16,-1144.56 -8036.61,-1171.04 -8005.65,-1197.32 -7974.27,-1223.4 -7942.49,-1249.29 -7910.3,-1274.97 
  -7877.71,-1300.44 -7844.71,-1325.7 -7811.33,-1350.76 -7777.55,-1375.6 -7743.38,-1400.22 -7708.82,-1424.63 -7673.88,-1448.82 -7638.56,-1472.78 -7602.87,-1496.52 -7566.81,-1520.02 
  -7530.38,-1543.3 -7493.58,-1566.35 -7456.42,-1589.16 -7418.91,-1611.73 -7381.04,-1634.07 -7342.82,-1656.16 -7304.26,-1678.01 -7265.35,-1699.61 -7226.11,-1720.97 -7186.53,-1742.07 
  -7146.62,-1762.92 -7106.39,-1783.52 -7065.83,-1803.86 -7024.96,-1823.94 -6983.77,-1843.76 -6942.27,-1863.32 -6900.47,-1882.61 -6858.36,-1901.64 -6815.96,-1920.39 -6773.27,-1938.88 
  -6730.28,-1957.1 -6687.01,-1975.04 -6643.46,-1992.7 -6599.64,-2010.09 -6555.54,-2027.2 -6511.18,-2044.03 -6466.55,-2060.57 -6421.67,-2076.83 -6376.53,-2092.81 -6331.14,-2108.5 
  -6285.51,-2123.89 -6239.64,-2139 -6193.53,-2153.82 -6147.19,-2168.34 -6100.63,-2182.56 -6053.84,-2196.49 -6006.84,-2210.12 -5959.63,-2223.46 -5912.2,-2236.49 -5864.58,-2249.22 
  -5816.76,-2261.64 -5768.74,-2273.77 -5720.53,-2285.58 -5672.15,-2297.09 -5623.58,-2308.29 -5574.84,-2319.18 -5525.93,-2329.77 -5476.86,-2340.04 -5427.62,-2349.99 -5378.24,-2359.64 
  -5328.7,-2368.97 -5279.02,-2377.99 -5229.2,-2386.68 -5179.24,-2395.07 -5129.16,-2403.13 -5078.95,-2410.88 -5028.62,-2418.3 -4978.18,-2425.41 -4927.63,-2432.19 -4876.97,-2438.66 
  -4826.22,-2444.8 -4775.37,-2450.62 -4724.43,-2456.11 -4673.41,-2461.29 -4622.31,-2466.13 -4571.13,-2470.66 -4519.89,-2474.85 -4468.58,-2478.72 -4417.22,-2482.27 -4365.8,-2485.49 
  -4314.33,-2488.38 -4262.82,-2490.94 -4211.28,-2493.18 -4159.7,-2495.09 -4108.09,-2496.67 -4056.46,-2497.92 -4004.81,-2498.85 -3953.15,-2499.44 -3901.49,-2499.71 
  "/>
<polyline clip-path="url(#clip4803)" style="stroke:#e26f46; stroke-width:12; stroke-opacity:1; fill:none" points="
  1640.31,783.233 1640.31,783.233 1640.3,783.233 1640.29,783.233 1640.28,783.233 1640.26,783.233 1640.24,783.232 1640.21,783.231 1640.18,783.23 1640.15,783.229 
  1640.11,783.227 1640.07,783.225 1640.02,783.222 1639.97,783.219 1639.91,783.215 1639.85,783.211 1639.79,783.206 1639.72,783.201 1639.65,783.195 1639.58,783.188 
  1639.5,783.18 1639.41,783.172 1639.32,783.163 1639.23,783.153 1639.13,783.142 1639.03,783.13 1638.92,783.117 1638.81,783.103 1638.7,783.088 1638.58,783.071 
  1638.45,783.054 1638.32,783.035 1638.19,783.015 1638.05,782.994 1637.91,782.972 1637.76,782.948 1637.61,782.923 1637.45,782.896 1637.29,782.868 1637.12,782.838 
  1636.95,782.806 1636.78,782.773 1636.59,782.739 1636.41,782.702 1636.22,782.664 1636.02,782.624 1635.82,782.582 1635.61,782.538 1635.39,782.492 1635.18,782.445 
  1634.95,782.395 1634.72,782.343 1634.49,782.289 1634.24,782.233 1634,782.175 1633.74,782.114 1633.48,782.051 1633.22,781.986 1632.95,781.918 1632.67,781.848 
  1632.39,781.775 1632.1,781.7 1631.8,781.622 1631.5,781.542 1631.19,781.458 1630.87,781.372 1630.54,781.284 1630.21,781.192 1629.88,781.098 1629.53,781 
  1629.18,780.9 1628.82,780.796 1628.45,780.689 1628.07,780.58 1627.69,780.467 1627.3,780.35 1626.9,780.231 1626.49,780.108 1626.08,779.981 1625.65,779.851 
  1625.22,779.717 1624.78,779.58 1624.33,779.439 1623.87,779.295 1623.4,779.146 1622.92,778.994 1622.43,778.838 1621.93,778.678 1621.42,778.514 1620.9,778.345 
  1620.37,778.173 1619.83,777.996 1619.28,777.815 1618.72,777.63 1618.14,777.44 1617.56,777.246 1616.96,777.047 1616.35,776.844 1615.73,776.636 1615.1,776.423 
  1614.45,776.205 1613.79,775.983 1613.12,775.755 1612.43,775.522 1611.73,775.285 1611.02,775.042 1610.29,774.793 1609.55,774.54 1608.79,774.281 1608.02,774.016 
  1607.23,773.746 1606.42,773.47 1605.6,773.188 1604.76,772.901 1603.91,772.608 1603.03,772.309 1602.14,772.003 1601.23,771.692 1600.3,771.374 1599.36,771.05 
  1598.39,770.72 1597.4,770.383 1596.39,770.039 1595.36,769.689 1594.31,769.333 1593.24,768.97 1592.14,768.599 1591.02,768.222 1589.88,767.838 1588.71,767.446 
  1587.51,767.048 1586.3,766.641 1585.05,766.227 1583.78,765.806 1582.48,765.377 1581.15,764.94 1579.79,764.495 1578.41,764.042 1576.99,763.581 1575.54,763.112 
  1574.06,762.635 1572.54,762.15 1570.99,761.656 1569.41,761.154 1567.78,760.643 1566.12,760.124 1564.43,759.596 1562.69,759.06 1560.91,758.515 1559.09,757.961 
  1557.22,757.398 1555.31,756.827 1553.36,756.247 1551.36,755.658 1549.31,755.061 1547.2,754.456 1545.05,753.843 1542.84,753.221 1540.58,752.59 1538.26,751.95 
  1535.88,751.301 1533.44,750.642 1530.94,749.974 1528.37,749.297 1525.74,748.61 1523.04,747.915 1520.26,747.211 1517.41,746.499 1514.48,745.779 1511.47,745.051 
  1508.38,744.317 1505.19,743.576 1501.92,742.83 1498.55,742.078 1495.08,741.323 1491.51,740.564 1487.83,739.803 1484.03,739.041 1480.12,738.278 1476.09,737.516 
  1471.93,736.759 1467.64,736.006 1463.21,735.259 1458.63,734.518 1453.9,733.785 1449,733.063 1443.93,732.356 1438.68,731.668 1433.24,731.003 1427.6,730.369 
  1421.75,729.771 1415.66,729.216 1409.34,728.713 1402.77,728.273 1395.92,727.912 1388.79,727.638 1381.35,727.459 1373.57,727.395 1365.43,727.471 1356.92,727.721 
  1348,728.188 1338.66,728.92 1328.89,729.978 1318.68,731.432 1308,733.381 1296.87,735.954 1285.39,739.31 1273.75,743.635 1262.29,749.145 1251.58,756.093 
  1242.4,764.48 1235.68,774.013 1232.01,784.155 1231.36,794.281 1233.18,803.8 1236.8,812.505 1241.61,820.352 1247.18,827.392 1253.2,833.712 1259.47,839.4 
  1265.84,844.537 1272.24,849.197 1278.6,853.438 1284.88,857.311 1291.05,860.861 1297.1,864.124 1303.02,867.128 1308.8,869.9 1314.44,872.462 1319.93,874.834 
  1325.28,877.031 1330.49,879.068 1335.56,880.958 1340.5,882.71 1345.3,884.335 1349.96,885.84 1354.51,887.235 1358.92,888.524 1363.22,889.715 1367.4,890.811 
  1371.47,891.819 1375.43,892.742 1379.28,893.584 1383.02,894.348 1386.67,895.038 1390.22,895.657 1393.67,896.207 1397.03,896.69 1400.31,897.109 1403.49,897.466 
  1406.6,897.762 1409.62,897.999 1412.56,898.178 1415.42,898.301 1418.21,898.369 1420.92,898.384 1423.57,898.346 1426.14,898.256 1428.65,898.116 1431.09,897.925 
  1433.47,897.685 1435.79,897.397 1438.04,897.06 1440.24,896.676 1442.37,896.246 1444.45,895.769 1446.48,895.246 1448.45,894.677 1450.36,894.064 1452.23,893.405 
  1454.04,892.703 1455.81,891.956 1457.52,891.165 1459.19,890.33 1460.8,889.452 1462.37,888.531 1463.9,887.567 1465.38,886.56 1466.81,885.51 1468.2,884.417 
  1469.54,883.281 1470.84,882.104 1472.09,880.884 1473.3,879.621 1474.47,878.317 1475.59,876.97 1476.67,875.582 1477.71,874.152 1478.7,872.679 1479.65,871.165 
  1480.56,869.609 1481.42,868.012 1482.23,866.372 1483.01,864.691 1483.73,862.969 1484.41,861.205 1485.04,859.4 1485.62,857.553 1486.16,855.666 1486.64,853.737 
  1487.08,851.767 1487.46,849.757 1487.79,847.706 1488.07,845.614 1488.29,843.482 1488.45,841.311 1488.55,839.099 1488.6,836.849 1488.58,834.559 1488.5,832.231 
  1488.35,829.864 1488.14,827.459 1487.85,825.017 1487.49,822.537 1487.06,820.021 1486.55,817.47 1485.96,814.884 1485.29,812.263 1484.53,809.61 1483.68,806.924 
  1482.75,804.208 1481.71,801.461 1480.58,798.686 1479.35,795.884 1478.01,793.056 1476.56,790.205 1475,787.333 1473.33,784.44 1471.53,781.53 1469.61,778.603 
  1467.56,775.661 1465.37,772.707 1463.05,769.744 1460.58,766.775 1457.97,763.803 1455.2,760.832 1452.28,757.866 1449.2,754.908 1445.95,751.964 1442.54,749.039 
  1438.95,746.137 1435.19,743.265 1431.25,740.427 1427.12,737.63 1422.81,734.881 1418.31,732.187 1413.63,729.556 1408.75,726.993 1403.67,724.507 1398.38,722.105 
  1392.89,719.795 1387.19,717.586 1381.29,715.486 1375.19,713.505 1368.89,711.653 1362.4,709.939 1355.72,708.375 1348.87,706.972 1341.86,705.741 1334.69,704.693 
  1327.38,703.842 1319.94,703.199 1312.4,702.771 1304.77,702.569 1297.07,702.604 1289.3,702.884 1281.49,703.414 1273.66,704.202 1265.83,705.249 1258.02,706.557 
  1250.27,708.127 1242.61,709.956 1235.05,712.041 1227.65,714.377 1220.43,716.957 1213.43,719.773 1206.69,722.814 1200.22,726.07 1194.04,729.527 1188.15,733.168 
  1182.58,736.977 1177.33,740.937 1172.42,745.032 1167.84,749.244 1163.6,753.557 1159.71,757.952 1156.17,762.412 1152.97,766.919 1150.1,771.454 1147.58,775.999 
  1145.37,780.542 1143.47,785.073 1141.87,789.581 1140.54,794.056 1139.49,798.49 1138.7,802.873 1138.15,807.199 1137.83,811.46 1137.73,815.651 1137.84,819.767 
  1138.14,823.804 1138.62,827.757 1139.28,831.625 1140.09,835.406 1141.06,839.097 1142.16,842.697 1143.39,846.205 1144.75,849.621 1146.22,852.944 1147.8,856.173 
  1149.47,859.308 1151.24,862.35 1153.1,865.297 1155.04,868.15 1157.05,870.911 1159.13,873.578 1161.29,876.152 1163.5,878.635 1165.77,881.027 1168.1,883.33 
  1170.49,885.543 1172.92,887.667 1175.4,889.702 1177.92,891.65 1180.49,893.51 1183.1,895.282 1185.75,896.969 1188.44,898.569 1191.16,900.083 1193.91,901.511 
  1196.7,902.855 1199.53,904.113 1202.38,905.287 1205.27,906.377 1208.18,907.383 1211.13,908.304 1214.11,909.142 1217.12,909.897 1220.16,910.567 1223.22,911.154 
  1226.32,911.657 1229.45,912.075 1232.6,912.408 1235.79,912.655 1239,912.817 1242.25,912.892 1245.52,912.879 1248.82,912.778 1252.15,912.588 1255.51,912.308 
  1258.9,911.937 1262.31,911.474 1265.76,910.917 1269.23,910.265 1272.73,909.517 1276.26,908.672 1279.82,907.728 1283.4,906.684 1287.01,905.537 1290.64,904.286 
  1294.29,902.927 1297.96,901.458 1301.66,899.875 1305.38,898.175 1309.11,896.356 1312.86,894.412 1316.62,892.341 1320.38,890.139 1324.15,887.801 1327.9,885.324 
  1331.65,882.703 1335.38,879.934 1339.08,877.013 1342.74,873.933 1346.35,870.692 1349.91,867.283 1353.39,863.703 1356.79,859.945 1360.07,855.998 1363.23,851.855 
  1366.23,847.51 1369.06,842.96 1371.67,838.202 1374.03,833.236 1376.11,828.063 1377.85,822.687 1379.22,817.113 1380.17,811.353 1380.63,805.418 1380.53,799.326 
  1379.83,793.101 1378.47,786.778 1376.4,780.402 1373.61,774.027 1370.06,767.718 1365.73,761.546 1360.65,755.577 1354.83,749.867 1348.34,744.469 1341.24,739.426 
  1333.62,734.777 1325.56,730.556 1317.18,726.788 1308.56,723.476 1299.8,720.603 1290.94,718.155 1282.08,716.111 1273.25,714.451 1264.51,713.149 1255.89,712.179 
  1247.44,711.511 1239.16,711.121 1231.08,710.986 1223.2,711.081 1215.54,711.385 1208.1,711.879 1200.89,712.544 1193.89,713.364 1187.12,714.323 1180.57,715.408 
  1174.24,716.606 1168.12,717.906 1162.2,719.296 1156.48,720.768 1150.97,722.313 1145.64,723.922 1140.5,725.589 1135.53,727.308 1130.74,729.071 1126.12,730.875 
  1121.66,732.714 1117.36,734.583 1113.2,736.478 1109.2,738.396 1105.33,740.332 1101.6,742.283 1098,744.247 1094.53,746.22 1091.18,748.201 1087.95,750.187 
  1084.83,752.176 1081.82,754.166 1078.92,756.155 1076.11,758.141 1073.41,760.123 1070.8,762.1 1068.28,764.069 1065.85,766.03 1063.51,767.981 1061.25,769.921 
  1059.06,771.85 1056.96,773.766 1054.92,775.669 1052.96,777.558 1051.07,779.432 1049.24,781.29 1047.47,783.132 1045.77,784.957 1044.13,786.765 1042.54,788.554 
  1041.01,790.325 1039.54,792.077 1038.12,793.81 1036.74,795.523 1035.42,797.215 1034.14,798.887 1032.91,800.538 1031.72,802.168 1030.58,803.776 1029.47,805.363 
  1028.41,806.929 1027.39,808.472 1026.4,809.992 1025.45,811.491 1024.54,812.967 1023.66,814.419 1022.81,815.849 1022,817.256 1021.22,818.64 1020.47,820 
  1019.75,821.337 1019.06,822.651 1018.4,823.94 1017.77,825.207 1017.17,826.449 1016.59,827.668 1016.04,828.863 1015.52,830.034 1015.02,831.182 1014.55,832.306 
  1014.1,833.406 1013.68,834.483 1013.28,835.535 1012.9,836.564 1012.55,837.569 1012.23,838.55 1011.93,839.508 1011.65,840.441 1011.39,841.351 1011.16,842.238 
  1010.95,843.101 1010.76,843.94 1010.6,844.756 1010.46,845.548 1010.34,846.317 1010.24,847.063 1010.17,847.786 1010.13,848.485 1010.1,849.162 1010.1,849.816 
  1010.13,850.447 1010.18,851.055 1010.25,851.641 1010.35,852.204 1010.47,852.745 1010.62,853.263 1010.79,853.76 1010.99,854.234 1011.22,854.686 1011.47,855.117 
  1011.76,855.526 1012.07,855.913 1012.41,856.279 1012.77,856.624 1013.17,856.947 1013.6,857.25 1014.06,857.532 1014.55,857.793 1015.07,858.033 1015.63,858.254 
  1016.22,858.454 1016.85,858.634 1017.51,858.794 1018.21,858.934 1018.94,859.055 1019.71,859.156 1020.53,859.238 1021.38,859.301 1022.27,859.345 1023.21,859.371 
  1024.19,859.378 1025.21,859.367 1026.28,859.337 1027.39,859.29 1028.56,859.225 1029.77,859.143 1031.03,859.043 1032.35,858.926 1033.72,858.793 1035.14,858.642 
  1036.62,858.475 1038.16,858.291 1039.76,858.09 1041.43,857.873 1043.16,857.64 1044.95,857.391 1046.81,857.126 1048.75,856.845 1050.76,856.548 1052.84,856.236 
  1055,855.907 1057.23,855.563 1059.56,855.202 1061.97,854.824 1064.47,854.43 1067.06,854.02 1069.74,853.595 1072.53,853.154 1075.41,852.698 1078.4,852.227 
  1081.5,851.739 1084.72,851.234 1088.05,850.713 1091.51,850.172 1095.1,849.613 1098.83,849.033 1102.7,848.431 1106.73,847.806 1110.91,847.155 1115.26,846.478 
  1119.78,845.771 1124.49,845.032 1129.39,844.255 1134.5,843.441 1139.83,842.588 1145.39,841.691 1151.2,840.743 1157.28,839.737 1163.64,838.661 1170.32,837.503 
  1177.35,836.248 1184.75,834.877 1192.56,833.357 1200.83,831.677 1209.61,829.802 1218.98,827.669 1229.02,825.178 1239.84,822.197 1251.58,818.532 1264.39,813.805 
  1278.36,807.247 1292.63,796.969 1298.41,779.991 1285.28,765.728 1269.06,758.091 1254.26,753.386 1240.94,750.132 1228.84,747.718 1217.75,745.843 1207.49,744.338 
  1197.94,743.1 1189.01,742.059 1180.61,741.168 1172.68,740.395 1165.18,739.715 1158.06,739.109 1151.3,738.562 1144.85,738.065 1138.7,737.607 1132.81,737.183 
  1127.19,736.786 1121.79,736.412 1116.62,736.057 1111.66,735.718 1106.89,735.393 1102.31,735.08 1097.9,734.777 1093.66,734.482 1089.57,734.195 1085.63,733.914 
  1081.84,733.639 1078.18,733.369 1074.66,733.104 1071.25,732.843 1067.97,732.587 1064.8,732.334 1061.75,732.085 1058.8,731.84 1055.95,731.599 1053.2,731.361 
  1050.54,731.128 1047.98,730.898 1045.5,730.672 1043.11,730.451 1040.81,730.234 1038.58,730.021 1036.43,729.814 1034.35,729.611 1032.35,729.414 1030.42,729.222 
  1028.56,729.036 1026.76,728.856 1025.03,728.682 1023.36,728.515 1021.75,728.354 1020.2,728.201 1018.71,728.054 1017.27,727.916 1015.89,727.785 1014.56,727.663 
  1013.29,727.548 1012.06,727.443 1010.89,727.346 1009.76,727.259 1008.68,727.181 1007.64,727.113 1006.65,727.055 1005.7,727.007 1004.79,726.97 1003.93,726.944 
  1003.1,726.928 1002.32,726.924 1001.57,726.931 1000.87,726.95 1000.2,726.981 999.562,727.025 998.963,727.081 998.399,727.149 997.869,727.231 997.373,727.325 
  996.909,727.433 996.477,727.555 996.077,727.69 995.707,727.84 995.368,728.003 995.059,728.181 994.779,728.374 994.528,728.581 994.305,728.804 994.111,729.041 
  993.943,729.294 993.803,729.563 993.69,729.847 993.602,730.147 993.541,730.464 993.506,730.796 993.496,731.145 993.511,731.51 993.551,731.893 993.616,732.292 
  993.705,732.708 993.818,733.141 993.956,733.591 994.117,734.059 994.302,734.545 994.511,735.048 994.743,735.569 994.999,736.108 995.278,736.666 995.581,737.241 
  995.907,737.835 996.256,738.447 996.629,739.078 997.026,739.727 997.446,740.395 997.89,741.082 998.357,741.788 998.849,742.513 999.365,743.257 999.906,744.021 
  1000.47,744.804 1001.06,745.606 1001.68,746.427 1002.32,747.268 1002.98,748.129 1003.68,749.01 1004.4,749.91 1005.15,750.829 1005.92,751.769 1006.72,752.728 
  1007.56,753.708 1008.42,754.707 1009.31,755.726 1010.23,756.765 1011.18,757.824 1012.16,758.903 1013.18,760.002 1014.23,761.122 1015.32,762.261 1016.44,763.42 
  1017.59,764.6 1018.79,765.799 1020.02,767.018 1021.29,768.257 1022.61,769.516 1023.96,770.794 1025.36,772.092 1026.8,773.41 1028.29,774.746 1029.83,776.102 
  1031.41,777.477 1033.05,778.87 1034.74,780.282 1036.48,781.711 1038.28,783.157 1040.13,784.621 1042.05,786.102 1044.03,787.6 1046.07,789.116 1048.18,790.649 
  1050.36,792.199 1052.61,793.766 1054.93,795.349 1057.33,796.947 1059.81,798.56 1062.38,800.187 1065.03,801.827 1067.77,803.479 1070.61,805.142 1073.54,806.815 
  1076.58,808.496 1079.73,810.184 1082.98,811.878 1086.35,813.575 1089.85,815.274 1093.47,816.974 1097.21,818.671 1101.1,820.364 1105.12,822.043 1109.28,823.708 
  1113.61,825.36 1118.09,826.998 1122.75,828.62 1127.59,830.222 1132.63,831.799 1137.86,833.346 1143.31,834.855 1148.97,836.318 1154.86,837.726 1160.99,839.067 
  1167.36,840.329 1173.99,841.498 1180.88,842.561 1188.04,843.5 1195.48,844.299 1203.21,844.938 1211.22,845.393 1219.56,845.635 1228.23,845.631 1237.22,845.344 
  1246.51,844.731 1256.08,843.747 1265.88,842.341 1275.87,840.456 1285.95,838.042 1296.05,835.021 1306.01,831.33 1315.69,826.939 1324.88,821.85 1333.36,816.1 
  1340.89,809.753 1347.3,802.911 1352.49,795.7 1356.43,788.257 1359.14,780.73 1360.66,773.281 1361.12,766.016 1360.66,758.986 1359.42,752.24 1357.52,745.809 
  1355.07,739.706 1352.19,733.93 1348.95,728.476 1345.42,723.333 1341.67,718.489 1337.74,713.93 1333.68,709.642 1329.52,705.611 1325.29,701.821 1321.01,698.26 
  1316.7,694.915 1312.38,691.774 1308.06,688.828 1303.75,686.066 1299.46,683.479 1295.2,681.058 1290.97,678.795 1286.78,676.685 1282.63,674.719 1278.52,672.892 
  1274.46,671.2 1270.46,669.635 1266.5,668.195 1262.6,666.874 1258.75,665.668 1254.95,664.575 1251.21,663.59 1247.52,662.711 1243.88,661.935 1240.3,661.259 
  1236.77,660.682 1233.3,660.2 1229.87,659.813 1226.5,659.517 1223.19,659.312 1219.92,659.195 1216.7,659.167 1213.54,659.224 1210.42,659.366 1207.35,659.593 
  1204.33,659.902 1201.36,660.294 1198.44,660.768 1195.56,661.323 1192.73,661.958 1189.94,662.672 1187.21,663.467 1184.52,664.34 1181.87,665.292 1179.27,666.323 
  1176.72,667.432 1174.22,668.619 1171.76,669.884 1169.35,671.227 1166.99,672.648 1164.67,674.148 1162.4,675.725 1160.19,677.38 1158.02,679.114 1155.91,680.927 
  1153.85,682.819 1151.85,684.79 1149.91,686.841 1148.02,688.971 1146.2,691.18 1144.44,693.47 1142.75,695.84 1141.13,698.29 1139.57,700.821 1138.1,703.433 
  1136.7,706.125 1135.39,708.898 1134.17,711.751 1133.04,714.686 1132.01,717.703 1131.08,720.8 1130.26,723.979 1129.56,727.237 1128.98,730.575 1128.53,733.991 
  1128.22,737.484 1128.06,741.051 1128.05,744.692 1128.2,748.404 1128.52,752.184 1129.03,756.029 1129.73,759.935 1130.63,763.896 1131.74,767.909 1133.08,771.969 
  1134.66,776.073 1136.5,780.215 1138.6,784.386 1140.99,788.578 1143.66,792.781 1146.62,796.984 1149.9,801.175 1153.48,805.339 1157.39,809.463 1161.63,813.529 
  1166.21,817.52 1171.12,821.417 1176.37,825.2 1181.96,828.851 1187.88,832.352 1194.14,835.687 1200.72,838.839 1207.61,841.791 1214.8,844.528 1222.26,847.032 
  1229.96,849.288 1237.88,851.279 1245.98,852.99 1254.21,854.405 1262.53,855.509 1270.92,856.3 1279.34,856.781 1287.76,856.954 1296.16,856.825 1304.49,856.398 
  1312.73,855.682 1320.85,854.686 1328.82,853.419 1336.61,851.896 1344.19,850.129 1351.54,848.134 1358.65,845.928 1365.49,843.526 1372.07,840.946 1378.38,838.203 
  1384.41,835.314 1390.16,832.294 1395.63,829.156 1400.81,825.916 1405.71,822.587 1410.33,819.183 1414.67,815.715 1418.74,812.196 1422.54,808.637 1426.08,805.049 
  1429.37,801.438 1432.42,797.814 1435.24,794.185 1437.82,790.558 1440.19,786.938 1442.34,783.333 1444.29,779.748 1446.04,776.188 1447.6,772.658 1448.98,769.16 
  1450.19,765.7 1451.23,762.279 1452.11,758.901 1452.84,755.568 1453.43,752.282 1453.87,749.046 1454.18,745.862 1454.36,742.73 1454.42,739.653 1454.36,736.631 
  1454.19,733.667 1453.91,730.76 1453.53,727.912 1453.04,725.124 1452.46,722.395 1451.79,719.727 1451.03,717.119 1450.19,714.572 1449.26,712.087 1448.25,709.663 
  1447.16,707.301 1446,705.001 1444.77,702.763 1443.46,700.588 1442.09,698.476 1440.65,696.426 1439.14,694.44 1437.57,692.516 1435.94,690.656 1434.25,688.858 
  1432.5,687.124 1430.68,685.453 1428.81,683.846 1426.88,682.301 1424.89,680.821 1422.84,679.404 1420.74,678.051 1418.58,676.762 1416.37,675.538 1414.09,674.379 
  1411.77,673.286 1409.38,672.258 1406.94,671.297 1404.44,670.402 1401.88,669.575 1399.26,668.816 1396.59,668.125 1393.85,667.504 1391.06,666.953 1388.21,666.473 
  1385.29,666.065 1382.31,665.729 1379.27,665.466 1376.16,665.278 1372.99,665.168 1369.76,665.135 1366.45,665.181 1363.08,665.309 1359.64,665.518 1356.13,665.813 
  1352.54,666.194 1348.88,666.664 1345.14,667.227 1341.33,667.885 1337.44,668.641 1333.47,669.5 1329.43,670.465 1325.3,671.54 1321.1,672.729 1316.81,674.038 
  1312.45,675.471 1308.01,677.034 1303.49,678.732 1298.9,680.574 1294.24,682.568 1289.5,684.721 1284.68,687.044 1279.8,689.548 1274.85,692.245 1269.85,695.149 
  1264.81,698.274 1259.74,701.638 1254.68,705.256 1249.63,709.147 1244.64,713.332 1239.73,717.831 1234.96,722.676 1230.37,727.899 1226.05,733.525 1222.1,739.572 
  1218.64,746.056 1215.83,752.982 1213.84,760.339 1212.9,768.104 1213.23,776.192 1215.02,784.46 1218.43,792.703 1223.51,800.69 1230.18,808.208 1238.23,815.072 
  1247.33,821.125 1257.14,826.305 1267.38,830.643 1277.8,834.194 1288.21,837.032 1298.47,839.248 1308.5,840.925 1318.25,842.137 1327.67,842.953 1336.76,843.429 
  1345.5,843.614 1353.91,843.551 1361.98,843.275 1369.72,842.817 1377.16,842.204 1384.29,841.456 1391.14,840.591 1397.72,839.627 1404.03,838.577 1410.09,837.453 
  1415.91,836.265 1421.51,835.023 1426.89,833.734 1432.06,832.406 1437.04,831.043 1441.83,829.652 1446.43,828.237 1450.87,826.802 1455.14,825.351 1459.25,823.887 
  1463.21,822.414 1467.03,820.932 1470.7,819.446 1474.25,817.956 1477.66,816.465 1480.95,814.974 1484.12,813.484 1487.18,811.998 1490.13,810.516 1492.97,809.04 
  1495.71,807.569 1498.35,806.106 1500.89,804.65 1503.34,803.203 1505.7,801.764 1507.97,800.336 1510.16,798.917 1512.27,797.509 1514.3,796.112 1516.25,794.726 
  1518.13,793.352 1519.93,791.99 1521.66,790.64 1523.33,789.302 1524.92,787.976 1526.45,786.664 1527.92,785.364 1529.33,784.076 1530.67,782.802 1531.95,781.541 
  1533.18,780.294 1534.35,779.059 1535.46,777.838 1536.52,776.63 1537.52,775.436 1538.47,774.255 1539.37,773.087 1540.22,771.933 1541.01,770.792 1541.76,769.664 
  1542.46,768.549 1543.11,767.448 1543.71,766.36 1544.26,765.285 1544.77,764.223 1545.23,763.174 1545.65,762.138 1546.02,761.115 1546.34,760.105 1546.62,759.107 
  1546.85,758.123 1547.04,757.151 1547.19,756.191 1547.29,755.244 1547.35,754.309 1547.36,753.387 1547.33,752.477 1547.26,751.579 1547.14,750.693 1546.98,749.818 
  1546.77,748.956 1546.52,748.105 1546.22,747.266 1545.88,746.439 1545.49,745.623 1545.06,744.818 1544.58,744.025 1544.06,743.242 1543.49,742.471 1542.88,741.711 
  1542.21,740.962 1541.5,740.224 1540.74,739.496 1539.93,738.78 1539.07,738.073 1538.16,737.377 1537.2,736.692 1536.18,736.017 1535.12,735.353 1534,734.698 
  1532.82,734.054 1531.59,733.42 1530.31,732.796 1528.96,732.182 1527.56,731.578 1526.1,730.985 1524.57,730.401 1522.99,729.827 1521.34,729.263 1519.62,728.709 
  1517.84,728.166 1515.98,727.633 1514.06,727.11 1512.06,726.598 1509.99,726.096 1507.85,725.605 1505.62,725.126 1503.32,724.657 1500.93,724.2 1498.46,723.756 
  1495.9,723.325 1493.25,722.906 1490.5,722.501 1487.66,722.109 1484.73,721.73 1481.68,721.365 1478.54,721.015 1475.28,720.681 1471.91,720.363 1468.42,720.064 
  1464.8,719.784 1461.06,719.526 1457.18,719.291 1453.17,719.08 1449.01,718.897 1444.69,718.744 1440.22,718.623 1435.59,718.537 1430.78,718.493 1425.79,718.493 
  1420.61,718.538 1415.22,718.634 1409.63,718.784 1403.81,718.998 1397.75,719.284 1391.44,719.655 1384.87,720.124 1378,720.706 1370.84,721.42 1363.36,722.288 
  1355.54,723.34 1347.35,724.597 1338.75,726.094 1329.72,727.89 1320.25,730.061 1310.33,732.709 1299.99,735.95 1289.23,739.959 1278.14,744.992 1267.08,751.36 
  1256.76,759.421 1248.6,769.534 1244.46,781.279 1245.66,793.284 1251.34,804.117 1259.61,813.122 1269.02,820.468 1278.8,826.482 1288.54,831.46 1298.04,835.63 
  1307.23,839.16 1316.08,842.178 1324.58,844.778 1332.72,847.032 1340.54,848.994 1348.03,850.709 1355.21,852.214 1362.11,853.534 1368.73,854.695 1375.08,855.713 
  1381.2,856.607 1387.08,857.389 1392.73,858.07 1398.18,858.661 1403.42,859.169 1408.47,859.601 1413.34,859.965 1418.03,860.264 1422.55,860.505 1426.92,860.691 
  1431.13,860.825 1435.19,860.911 1439.11,860.952 1442.89,860.951 1446.54,860.909 1450.07,860.828 1453.47,860.711 1456.75,860.558 1459.92,860.372 1462.98,860.154 
  1465.93,859.904 1468.78,859.624 1471.53,859.315 1474.18,858.977 1476.73,858.612 1479.2,858.219 1481.57,857.799 1483.86,857.354 1486.06,856.883 1488.18,856.387 
  1490.21,855.866 1492.17,855.321 1494.06,854.752 1495.86,854.159 1497.6,853.542 1499.26,852.902 1500.85,852.238 1502.37,851.551 1503.82,850.841 1505.21,850.109 
  1506.53,849.353 1507.79,848.575 1508.98,847.775 1510.11,846.951 1511.18,846.105 1512.18,845.237 1513.13,844.346 1514.02,843.432 1514.85,842.496 1515.62,841.537 
  1516.33,840.556 1516.99,839.552 1517.59,838.526 1518.13,837.476 1518.61,836.404 1519.04,835.31 1519.42,834.192 1519.74,833.052 1520,831.889 1520.2,830.703 
  1520.35,829.494 1520.45,828.262 1520.48,827.007 1520.46,825.729 1520.39,824.428 1520.26,823.104 1520.06,821.756 1519.82,820.386 1519.51,818.992 1519.14,817.574 
  1518.71,816.134 1518.23,814.67 1517.68,813.183 1517.06,811.673 1516.39,810.14 1515.64,808.584 1514.84,807.004 1513.96,805.402 1513.02,803.777 1512,802.129 
  1510.92,800.458 1509.76,798.766 1508.52,797.051 1507.21,795.315 1505.82,793.556 1504.35,791.777 1502.79,789.976 1501.15,788.153 1499.42,786.311 1497.6,784.448 
  1495.68,782.565 1493.67,780.664 1491.55,778.745 1489.34,776.808 1487.01,774.855 1484.57,772.887 1482.02,770.904 1479.35,768.909 1476.55,766.902 1473.62,764.884 
  1470.57,762.86 1467.37,760.836 1464.04,758.811 1460.55,756.785 1456.91,754.757 1453.1,752.729 1449.12,750.703 1444.95,748.682 1440.6,746.671 1436.04,744.674 
  1431.28,742.698 1426.3,740.75 1421.09,738.838 1415.65,736.97 1409.97,735.157 1404.03,733.409 1397.83,731.739 1391.36,730.159 1384.61,728.683 1377.57,727.327 
  1370.22,726.112 1362.56,725.057 1354.55,724.188 1346.21,723.533 1337.52,723.127 1328.5,723.008 1319.17,723.219 1309.55,723.808 1299.68,724.823 1289.61,726.319 
  1279.41,728.372 1269.18,731.04 1259.05,734.362 1249.18,738.357 1239.76,743.026 1231.03,748.35 1223.17,754.271 1216.32,760.705 1210.57,767.539 1205.98,774.642 
  1202.57,781.853 1200.31,789.037 1199.07,796.119 1198.75,803.026 1199.24,809.702 1200.42,816.11 1202.18,822.229 1204.43,828.051 1207.09,833.576 1210.08,838.809 
  1213.34,843.755 1216.82,848.424 1220.48,852.826 1224.28,856.976 1228.2,860.884 1232.2,864.561 1236.26,868.018 1240.36,871.265 1244.5,874.313 1248.65,877.17 
  1252.81,879.846 1256.96,882.347 1261.1,884.682 1265.23,886.856 1269.33,888.877 1273.41,890.75 1277.46,892.481 1281.47,894.074 1285.44,895.534 1289.38,896.866 
  1293.28,898.073 1297.13,899.159 1300.95,900.127 1304.72,900.98 1308.45,901.72 1312.13,902.351 1315.77,902.875 1319.36,903.294 1322.91,903.609 1326.42,903.823 
  1329.87,903.937 1333.29,903.954 1336.65,903.873 1339.98,903.697 1343.25,903.426 1346.49,903.061 1349.67,902.604 1352.82,902.055 1355.91,901.414 1358.96,900.682 
  1361.97,899.86 1364.92,898.948 1367.83,897.946 1370.7,896.855 1373.51,895.674 1376.27,894.404 1378.99,893.045 1381.65,891.597 1384.26,890.059 1386.82,888.433 
  1389.33,886.716 1391.77,884.91 1394.16,883.013 1396.48,881.025 1398.75,878.947 1400.94,876.776 1403.07,874.514 1405.12,872.159 1407.09,869.712 1408.99,867.172 
  1410.8,864.538 1412.52,861.81 1414.15,858.989 1415.67,856.073 1417.1,853.064 1418.41,849.962 1419.6,846.765 1420.66,843.473 1421.59,840.085 1422.37,836.602 
  1423,833.025 1423.47,829.355 1423.76,825.595 1423.87,821.746 1423.77,817.811 1423.47,813.795 1422.94,809.701 1422.17,805.533 1421.15,801.296 1419.86,796.998 
  1418.3,792.652 1416.43,788.262 1414.24,783.836 1411.71,779.383 1408.81,774.914 1405.53,770.445 1401.85,765.991 1397.76,761.571 1393.26,757.206 1388.34,752.92 
  1383,748.737 1377.24,744.688 1371.07,740.801 1364.48,737.11 1357.5,733.648 1350.14,730.44 1342.41,727.51 1334.34,724.877 1325.97,722.562 1317.33,720.581 
  1308.47,718.949 1299.44,717.681 1290.31,716.787 1281.15,716.278 1272.04,716.16 1263.01,716.426 1254.11,717.056 1245.35,718.035 1236.8,719.343 1228.47,720.961 
  1220.41,722.869 1212.63,725.046 1205.15,727.468 1198,730.11 1191.2,732.949 1184.74,735.959 1178.62,739.121 1172.85,742.414 1167.42,745.819 1162.33,749.318 
  1157.57,752.896 1153.13,756.535 1149.01,760.222 1145.2,763.943 1141.68,767.687 1138.45,771.442 1135.49,775.2 1132.8,778.95 1130.36,782.686 1128.16,786.402 
  1126.19,790.09 1124.44,793.745 1122.9,797.363 1121.56,800.938 1120.42,804.466 1119.45,807.945 1118.66,811.37 1118.04,814.74 1117.57,818.053 1117.26,821.307 
  1117.09,824.5 1117.06,827.631 1117.15,830.698 1117.38,833.701 1117.72,836.637 1118.18,839.507 1118.76,842.309 1119.43,845.044 1120.21,847.709 1121.09,850.306 
  1122.06,852.833 1123.12,855.291 1124.28,857.679 1125.51,859.997 1126.83,862.246 1128.24,864.425 1129.72,866.533 1131.27,868.572 1132.91,870.539 1134.61,872.436 
  1136.39,874.263 1138.24,876.018 1140.16,877.702 1142.15,879.314 1144.21,880.855 1146.33,882.323 1148.53,883.72 1150.78,885.044 1153.11,886.296 1155.5,887.475 
  1157.97,888.58 1160.49,889.612 1163.09,890.569 1165.75,891.451 1168.48,892.257 1171.28,892.987 1174.15,893.639 1177.09,894.213 1180.09,894.707 1183.18,895.12 
  1186.33,895.451 1189.56,895.698 1192.86,895.86 1196.23,895.934 1199.69,895.92 1203.22,895.815 1206.83,895.617 1210.52,895.324 1214.29,894.934 1218.14,894.443 
  1222.07,893.847 1226.07,893.144 1230.16,892.329 1234.34,891.4 1238.61,890.352 1242.98,889.179 1247.43,887.876 1251.98,886.436 1256.61,884.852 1261.34,883.115 
  1266.15,881.216 1271.04,879.146 1276,876.895 1281.03,874.45 1286.12,871.801 1291.27,868.934 1296.45,865.837 1301.64,862.493 1306.84,858.876 1312.03,854.961 
  1317.18,850.72 1322.24,846.127 1327.15,841.158 1331.84,835.786 1336.2,829.986 1340.14,823.738 1343.5,817.017 1346.07,809.798 1347.66,802.106 1348.03,794.02 
  1346.92,785.671 1344.12,777.255 1339.48,768.999 1333.07,761.152 1325.09,753.973 1315.91,747.682 1305.87,742.325 1295.34,737.897 1284.59,734.341 1273.88,731.562 
  1263.33,729.459 1253.05,727.937 1243.11,726.91 1233.53,726.303 1224.32,726.049 1215.5,726.096 1207.05,726.397 1198.96,726.914 1191.23,727.612 1183.84,728.468 
  1176.77,729.457 1170.01,730.559 1163.54,731.758 1157.36,733.04 1151.43,734.391 1145.76,735.803 1140.34,737.265 1135.14,738.771 1130.15,740.312 1125.38,741.883 
  1120.81,743.479 1116.42,745.094 1112.21,746.725 1108.18,748.369 1104.31,750.022 1100.6,751.681 1097.04,753.345 1093.63,755.01 1090.35,756.674 1087.21,758.336 
  1084.2,759.995 1081.32,761.648 1078.55,763.295 1075.9,764.935 1073.35,766.566 1070.92,768.187 1068.59,769.799 1066.36,771.399 1064.22,772.988 1062.18,774.564 
  1060.23,776.128 1058.37,777.678 1056.59,779.214 1054.9,780.737 1053.29,782.245 1051.75,783.738 1050.3,785.217 1048.91,786.68 1047.6,788.128 1046.37,789.56 
  1045.2,790.976 1044.1,792.376 1043.06,793.76 1042.1,795.128 1041.19,796.479 1040.35,797.814 1039.57,799.132 1038.86,800.434 1038.2,801.719 1037.6,802.988 
  1037.06,804.24 1036.58,805.475 1036.16,806.694 1035.79,807.895 1035.48,809.081 1035.22,810.249 1035.02,811.401 1034.88,812.535 1034.79,813.654 1034.75,814.755 
  1034.77,815.84 1034.84,816.908 1034.97,817.96 1035.15,818.995 1035.39,820.014 1035.68,821.016 1036.02,822.002 1036.42,822.971 1036.88,823.924 1037.39,824.861 
  1037.96,825.781 1038.58,826.686 1039.26,827.574 1040,828.445 1040.8,829.301 1041.65,830.14 1042.57,830.964 1043.54,831.771 1044.58,832.562 1045.68,833.336 
  1046.85,834.095 1048.07,834.838 1049.37,835.564 1050.73,836.274 1052.16,836.967 1053.66,837.644 1055.23,838.305 1056.87,838.949 1058.59,839.577 1060.38,840.188 
  1062.25,840.782 1064.2,841.359 1066.24,841.919 1068.36,842.462 1070.56,842.986 1072.85,843.493 1075.24,843.98 1077.72,844.449 1080.3,844.897 1082.98,845.326 
  1085.76,845.733 1088.65,846.119 1091.66,846.483 1094.77,846.823 1098.01,847.137 1101.37,847.425 1104.86,847.685 1108.48,847.918 1112.24,848.123 1116.14,848.297 
  1120.19,848.438 1124.4,848.544 1128.78,848.611 1133.33,848.637 1138.06,848.615 1142.97,848.542 1148.09,848.412 1153.42,848.22 1158.98,847.958 1164.76,847.617 
  1170.79,847.183 1177.08,846.654 1183.66,846.021 1190.53,845.269 1197.73,844.376 1205.27,843.315 1213.18,842.05 1221.47,840.54 1230.18,838.738 1239.33,836.577 
  1248.95,833.984 1259.07,830.838 1269.64,826.965 1280.56,822.144 1291.67,816.002 1302.33,808.09 1311.12,797.982 1315.58,785.767 1313.67,773.134 1306.41,762.079 
  1296.45,753.327 1285.58,746.524 1274.66,741.181 1264.03,736.917 1253.83,733.462 1244.09,730.627 1234.83,728.278 1226.01,726.319 1217.62,724.676 1209.62,723.295 
  1202,722.134 1194.73,721.159 1187.78,720.344 1181.14,719.666 1174.79,719.108 1168.7,718.656 1162.87,718.298 1157.29,718.023 1151.93,717.823 1146.78,717.691 
  1141.84,717.619 1137.1,717.604 1132.54,717.639 1128.16,717.722 1123.95,717.848 1119.9,718.015 1116,718.219 1112.26,718.459 1108.65,718.733 1105.19,719.038 
  1101.86,719.373 1098.65,719.736 1095.57,720.127 1092.61,720.544 1089.77,720.986 1087.03,721.453 1084.41,721.943 1081.88,722.456 1079.47,722.991 1077.14,723.548 
  1074.92,724.127 1072.79,724.726 1070.75,725.345 1068.8,725.985 1066.93,726.645 1065.15,727.325 1063.46,728.024 1061.84,728.742 1060.3,729.479 1058.84,730.236 
  1057.46,731.011 1056.15,731.805 1054.92,732.618 1053.75,733.45 1052.66,734.3 1051.64,735.169 1050.69,736.056 1049.8,736.962 1048.99,737.887 1048.24,738.831 
  1047.55,739.793 1046.94,740.773 1046.38,741.773 1045.9,742.791 1045.47,743.827 1045.11,744.883 1044.82,745.957 1044.58,747.051 1044.41,748.163 1044.31,749.294 
  1044.27,750.445 1044.29,751.614 1044.38,752.802 1044.53,754.01 1044.74,755.236 1045.02,756.482 1045.37,757.747 1045.78,759.031 1046.26,760.334 1046.8,761.656 
  1047.42,762.998 1048.1,764.359 1048.85,765.738 1049.68,767.137 1050.58,768.555 1051.55,769.992 1052.6,771.448 1053.72,772.923 1054.92,774.416 1056.21,775.928 
  1057.57,777.458 1059.03,779.006 1060.56,780.572 1062.19,782.155 1063.91,783.756 1065.72,785.374 1067.62,787.007 1069.63,788.655 1071.74,790.316 1073.96,791.993 
  1076.29,793.683 1078.73,795.388 1081.29,797.107 1083.97,798.839 1086.77,800.582 1089.71,802.336 1092.79,804.099 1096.01,805.869 1099.37,807.644 1102.9,809.421 
  1106.59,811.199 1110.44,812.973 1114.48,814.741 1118.7,816.5 1123.12,818.245 1127.74,819.973 1132.57,821.674 1137.62,823.339 1142.91,824.969 1148.45,826.561 
  1154.26,828.107 1160.36,829.599 1166.75,831.023 1173.47,832.362 1180.52,833.598 1187.91,834.707 1195.66,835.664 1203.79,836.437 1212.31,836.996 1221.22,837.301 
  1230.55,837.303 1240.33,836.941 1250.54,836.142 1261.14,834.823 1272.05,832.888 1283.15,830.231 1294.29,826.739 1305.2,822.274 1315.56,816.775 1324.97,810.276 
  1332.95,802.899 1339.16,794.857 1343.46,786.414 1345.88,777.862 1346.55,769.506 1345.77,761.509 1343.8,753.957 1340.91,746.902 1337.31,740.351 1333.19,734.289 
  1328.68,728.689 1323.89,723.524 1318.92,718.762 1313.82,714.372 1308.64,710.323 1303.43,706.591 1298.2,703.151 1293,699.98 1287.83,697.061 1282.71,694.375 
  1277.65,691.907 1272.66,689.643 1267.74,687.57 1262.9,685.678 1258.14,683.957 1253.47,682.396 1248.89,680.988 1244.39,679.726 1239.98,678.604 1235.66,677.614 
  1231.43,676.753 1227.29,676.015 1223.24,675.395 1219.27,674.89 1215.39,674.496 1211.59,674.209 1207.88,674.026 1204.25,673.946 1200.7,673.965 1197.24,674.08 
  1193.85,674.291 1190.55,674.595 1187.32,674.99 1184.17,675.475 1181.1,676.049 1178.11,676.71 1175.19,677.456 1172.35,678.288 1169.58,679.204 1166.89,680.203 
  1164.27,681.285 1161.73,682.449 1159.26,683.694 1156.87,685.021 1154.55,686.428 1152.31,687.915 1150.14,689.482 1148.06,691.128 1146.05,692.854 1144.12,694.659 
  1142.28,696.543 1140.51,698.506 1138.83,700.548 1137.24,702.668 1135.73,704.867 1134.32,707.145 1133,709.501 1131.78,711.936 1130.66,714.45 1129.64,717.041 
  1128.74,719.711 1127.94,722.459 1127.26,725.284 1126.71,728.186 1126.28,731.164 1125.99,734.218 1125.84,737.347 1125.84,740.549 1125.99,743.822 1126.3,747.166 
  1126.79,750.582 1127.46,754.066 1128.32,757.616 1129.38,761.231 1130.66,764.905 1132.16,768.635 1133.89,772.415 1135.88,776.24 1138.13,780.104 1140.66,783.998 
  1143.48,787.916 1146.6,791.846 1150.02,795.774 1153.77,799.69 1157.88,803.583 1162.39,807.438 1167.29,811.24 1172.62,814.969 1178.38,818.604 1184.58,822.119 
  1191.2,825.489 1198.25,828.685 1205.72,831.673 1213.59,834.421 1221.83,836.892 1230.42,839.045 1239.35,840.843 1248.57,842.253 1258.05,843.246 1267.73,843.8 
  1277.54,843.898 1287.41,843.527 1297.24,842.683 1306.95,841.363 1316.42,839.574 1325.6,837.337 1334.43,834.684 1342.87,831.649 1350.87,828.268 1358.38,824.579 
  1365.39,820.622 1371.87,816.44 1377.8,812.077 1383.19,807.578 1388.05,802.973 1392.4,798.294 1396.25,793.568 1399.63,788.821 1402.56,784.076 1405.06,779.353 
  1407.15,774.67 1408.86,770.041 1410.21,765.478 1411.24,760.99 1411.95,756.586 1412.37,752.273 1412.52,748.056 1412.42,743.94 1412.08,739.929 1411.52,736.025 
  1410.77,732.232 1409.82,728.55 1408.69,724.981 1407.4,721.523 1405.96,718.178 1404.37,714.947 1402.65,711.828 1400.8,708.823 1398.83,705.93 1396.75,703.149 
  1394.57,700.48 1392.29,697.923 1389.92,695.475 1387.46,693.138 1384.92,690.91 1382.3,688.79 1379.6,686.778 1376.83,684.874 1373.99,683.077 1371.09,681.387 
  1368.12,679.804 1365.09,678.328 1362,676.958 1358.86,675.695 1355.66,674.538 1352.41,673.488 1349.1,672.544 1345.75,671.707 1342.34,670.978 1338.89,670.356 
  1335.38,669.843 1331.83,669.439 1328.23,669.146 1324.59,668.964 1320.9,668.895 1317.17,668.941 1313.39,669.103 1309.58,669.382 1305.72,669.782 1301.82,670.304 
  1297.88,670.95 1293.91,671.722 1289.9,672.624 1285.85,673.659 1281.78,674.828 1277.68,676.137 1273.55,677.589 1269.4,679.188 1265.22,680.941 1261.03,682.853 
  1256.82,684.929 1252.61,687.175 1248.41,689.598 1244.22,692.204 1240.05,695.001 1235.92,697.997 1231.84,701.198 1227.83,704.614 1223.9,708.252 1220.09,712.12 
  1216.41,716.232 1212.9,720.602 1209.59,725.239 1206.52,730.153 1203.76,735.347 1201.36,740.823 1199.39,746.58 1197.93,752.613 1197.06,758.904 1196.9,765.443 
  1197.56,772.197 1199.13,779.11 1201.71,786.105 1205.36,793.079 1210.16,799.909 1216.1,806.467 1223.15,812.641 1231.2,818.326 1240.12,823.428 1249.7,827.861 
  1259.71,831.573 1270.01,834.583 1280.42,836.923 1290.8,838.632 1301.05,839.761 1311.06,840.372 1320.79,840.523 1330.19,840.271 1339.23,839.666 1347.9,838.755 
  1356.2,837.579 1364.11,836.176 1371.66,834.577 1378.85,832.81 1385.69,830.9 1392.18,828.87 1398.35,826.737 1404.2,824.519 1409.75,822.23 1415.01,819.881 
  1419.99,817.483 1424.71,815.046 1429.17,812.579 1433.39,810.089 1437.37,807.583 1441.14,805.066 1444.68,802.544 1448.03,800.022 1451.17,797.501 1454.13,794.987 
  1456.91,792.483 1459.51,789.99 1461.94,787.513 1464.21,785.053 1466.32,782.611 1468.29,780.191 1470.1,777.793 1471.78,775.42 1473.32,773.071 1474.73,770.748 
  1476.01,768.452 1477.16,766.184 1478.2,763.945 1479.11,761.736 1479.91,759.557 1480.6,757.409 1481.18,755.292 1481.65,753.208 1482.01,751.156 1482.27,749.137 
  1482.43,747.151 1482.49,745.199 1482.45,743.281 1482.32,741.396 1482.09,739.547 1481.76,737.732 1481.35,735.952 1480.83,734.208 1480.23,732.499 1479.53,730.826 
  1478.75,729.19 1477.87,727.591 1476.9,726.028 1475.84,724.503 1474.69,723.015 1473.45,721.565 1472.12,720.153 1470.69,718.779 1469.18,717.445 1467.57,716.15 
  1465.87,714.895 1464.07,713.68 1462.18,712.506 1460.19,711.374 1458.11,710.284 1455.92,709.238 1453.63,708.235 1451.24,707.278 1448.75,706.366 1446.15,705.501 
  1443.44,704.684 1440.62,703.917 1437.69,703.2 1434.64,702.535 1431.48,701.926 1428.2,701.375 1424.79,700.883 1421.26,700.45 1417.6,700.078 1413.8,699.769 
  1409.86,699.526 1405.78,699.352 1401.55,699.252 1397.16,699.229 1392.62,699.291 1387.92,699.441 1383.05,699.688 1378,700.038 1372.78,700.499 1367.38,701.079 
  1361.79,701.788 1356,702.636 1350.03,703.637 1343.86,704.809 1337.47,706.162 1330.86,707.713 1324,709.486 1316.92,711.51 1309.6,713.822 1302.07,716.463 
  1294.35,719.483 1286.47,722.937 1278.5,726.861 1270.46,731.372 1262.43,736.614 1254.62,742.702 1247.34,749.719 1241,757.717 1236.25,766.734 1233.9,776.66 
  1234.58,787.029 1238.53,797.095 1245.33,806.25 1254.16,814.123 1264.11,820.625 1274.56,825.905 1285.1,830.142 1295.49,833.523 1305.6,836.202 1315.36,838.307 
  1324.73,839.942 1333.71,841.183 1342.31,842.097 1350.53,842.735 1358.39,843.14 1365.91,843.344 1373.09,843.376 1379.96,843.26 1386.54,843.013 1392.83,842.654 
  1398.85,842.196 1404.61,841.649 1410.13,841.025 1415.42,840.332 1420.48,839.577 1425.33,838.768 1429.98,837.908 1434.43,837.004 1438.7,836.06 1442.78,835.079 
  1446.69,834.065 1450.44,833.021 1454.02,831.95 1457.45,830.853 1460.73,829.733 1463.86,828.592 1466.85,827.431 1469.71,826.252 1472.43,825.056 1475.02,823.845 
  1477.49,822.619 1479.83,821.379 1482.06,820.127 1484.17,818.863 1486.16,817.587 1488.04,816.301 1489.81,815.004 1491.48,813.698 1493.04,812.382 1494.49,811.058 
  1495.85,809.725 1497.1,808.385 1498.25,807.036 1499.31,805.681 1500.27,804.318 1501.13,802.947 1501.9,801.571 1502.57,800.187 1503.15,798.797 1503.63,797.401 
  1504.03,795.998 1504.33,794.59 1504.54,793.176 1504.65,791.756 1504.68,790.331 1504.61,788.9 1504.45,787.464 1504.19,786.023 1503.85,784.577 1503.41,783.125 
  1502.87,781.67 1502.24,780.209 1501.52,778.745 1500.7,777.276 1499.78,775.803 1498.76,774.327 1497.64,772.847 1496.41,771.364 1495.09,769.878 1493.65,768.39 
  1492.11,766.899 1490.46,765.408 1488.7,763.915 1486.83,762.421 1484.83,760.928 1482.72,759.437 1480.49,757.948 1478.12,756.461 1475.63,754.976 1473.01,753.495 
  1470.25,752.019 1467.34,750.549 1464.3,749.087 1461.09,747.634 1457.74,746.193 1454.22,744.766 1450.53,743.355 1446.66,741.964 1442.61,740.596 1438.38,739.254 
  1433.94,737.941 1429.31,736.664 1424.46,735.431 1419.38,734.245 1414.07,733.11 1408.51,732.029 1402.69,731.013 1396.59,730.071 1390.2,729.217 1383.5,728.468 
  1376.48,727.844 1369.13,727.366 1361.43,727.06 1353.36,726.954 1344.93,727.085 1336.1,727.491 1326.83,728.224 1317.13,729.351 1307.03,730.955 1296.58,733.136 
  1285.85,736.003 1274.98,739.693 1264.19,744.416 1253.83,750.302 1244.42,757.383 1236.66,765.588 1231.17,774.692 1228.27,784.284 1227.96,793.791 1229.89,802.814 
  1233.56,811.146 1238.48,818.694 1244.23,825.466 1250.52,831.518 1257.14,836.914 1263.93,841.726 1270.79,846.02 1277.64,849.853 1284.44,853.278 1291.13,856.338 
  1297.71,859.072 1304.16,861.512 1310.46,863.685 1316.61,865.616 1322.61,867.325 1328.44,868.833 1334.12,870.154 1339.63,871.301 1345,872.288 1350.21,873.125 
  1355.26,873.821 1360.17,874.386 1364.93,874.827 1369.55,875.151 1374.03,875.363 1378.37,875.469 1382.58,875.473 1386.66,875.381 1390.6,875.196 1394.43,874.923 
  1398.12,874.563 1401.7,874.121 1405.16,873.598 1408.5,872.997 1411.73,872.321 1414.84,871.572 1417.84,870.75 1420.73,869.859 1423.52,868.899 1426.2,867.872 
  1428.77,866.779 1431.23,865.622 1433.6,864.402 1435.86,863.119 1438.02,861.774 1440.07,860.368 1442.02,858.903 1443.88,857.378 1445.63,855.795 1447.28,854.154 
  1448.82,852.455 1450.27,850.7 1451.61,848.888 1452.85,847.021 1453.98,845.098 1455.01,843.121 1455.93,841.089 1456.74,839.003 1457.44,836.864 1458.03,834.672 
  1458.5,832.427 1458.86,830.13 1459.1,827.781 1459.22,825.382 1459.21,822.932 1459.07,820.433 1458.8,817.885 1458.39,815.289 1457.84,812.646 1457.15,809.957 
  1456.31,807.224 1455.31,804.447 1454.15,801.629 1452.82,798.769 1451.33,795.871 1449.65,792.935 1447.78,789.966 1445.72,786.964 1443.45,783.935 1440.97,780.881 
  1438.26,777.807 1435.33,774.718 1432.15,771.617 1428.72,768.516 1425.05,765.425 1421.11,762.347 1416.87,759.286 1412.32,756.25 1407.43,753.248 1402.19,750.293 
  1396.59,747.401 1390.61,744.591 1384.24,741.882 1377.48,739.299 1370.33,736.868 1362.77,734.619 1354.82,732.584 1346.47,730.798 1337.73,729.298 1328.61,728.135 
  1319.1,727.359 1309.25,727.019 1299.12,727.164 1288.77,727.838 1278.33,729.084 1267.91,730.943 1257.65,733.44 1247.69,736.583 1238.16,740.355 1229.19,744.72 
  1220.9,749.615 1213.42,754.959 1206.87,760.65 1201.25,766.602 1196.56,772.731 1192.78,778.953 1189.86,785.198 1187.75,791.399 1186.39,797.503 1185.69,803.469 
  1185.6,809.273 1186.05,814.892 1186.98,820.31 1188.32,825.517 1190.04,830.508 1192.09,835.28 1194.41,839.835 1196.99,844.173 1199.78,848.299 1202.75,852.215 
  1205.89,855.926 1209.17,859.436 1212.57,862.75 1216.08,865.874 1219.67,868.813 1223.34,871.571 1227.08,874.152 1230.88,876.562 1234.72,878.805 1238.6,880.884 
  1242.51,882.803 1246.44,884.565 1250.39,886.175 1254.36,887.634 1258.34,888.947 1262.33,890.114 1266.32,891.14 1270.31,892.025 1274.3,892.771 1278.29,893.381 
  1282.26,893.856 1286.23,894.197 1290.18,894.405 1294.11,894.482 1298.04,894.428 1301.94,894.243 1305.82,893.929 1309.68,893.485 1313.52,892.912 1317.33,892.209 
  1321.11,891.376 1324.86,890.413 1328.57,889.32 1332.25,888.095 1335.88,886.738 1339.47,885.248 1343.02,883.624 1346.51,881.865 1349.95,879.97 1353.32,877.938 
  1356.63,875.766 1359.87,873.453 1363.03,870.997 1366.1,868.395 1369.08,865.645 1371.96,862.747 1374.71,859.697 1377.35,856.495 1379.84,853.139 1382.18,849.628 
  1384.36,845.96 1386.35,842.134 1388.14,838.155 1389.71,834.022 1391.03,829.73 1392.08,825.277 1392.84,820.666 1393.26,815.9 1393.32,810.988 1392.98,805.941 
  1392.22,800.772 1390.99,795.499 1389.25,790.141 1386.97,784.723 1384.1,779.275 1380.61,773.832 1376.44,768.429 1371.56,763.111 1365.96,757.926 1359.64,752.931 
  1352.62,748.191 1344.94,743.775 1336.63,739.76 1327.78,736.204 1318.45,733.146 1308.73,730.616 1298.72,728.632 1288.53,727.206 1278.27,726.341 1268.08,726.029 
  1258.06,726.252 1248.28,726.968 1238.79,728.135 1229.65,729.711 1220.89,731.655 1212.55,733.924 1204.65,736.477 1197.2,739.273 1190.2,742.275 1183.64,745.453 
  1177.52,748.776 1171.82,752.216 1166.54,755.751 1161.67,759.358 1157.18,763.018 1153.06,766.714 1149.3,770.432 1145.88,774.16 1142.78,777.886 1140,781.599 
  1137.5,785.292 1135.29,788.956 1133.34,792.585 1131.64,796.171 1130.19,799.712 1128.97,803.201 1127.96,806.637 1127.17,810.016 1126.58,813.334 1126.18,816.589 
  1125.96,819.779 1125.92,822.901 1126.04,825.955 1126.33,828.938 1126.77,831.849 1127.36,834.687 1128.09,837.451 1128.96,840.14 1129.97,842.755 1131.1,845.293 
  1132.37,847.754 1133.75,850.137 1135.26,852.443 1136.88,854.669 1138.62,856.816 1140.47,858.883 1142.42,860.869 1144.49,862.774 1146.66,864.597 1148.94,866.337 
  1151.32,867.994 1153.8,869.567 1156.39,871.056 1159.07,872.458 1161.86,873.774 1164.75,875.001 1167.74,876.14 1170.83,877.187 1174.02,878.142 1177.31,879.003 
  1180.7,879.768 1184.19,880.434 1187.79,881.001 1191.49,881.466 1195.29,881.826 1199.19,882.079 1203.21,882.221 1207.32,882.249 1211.54,882.158 1215.86,881.946 
  1220.3,881.609 1224.85,881.14 1229.51,880.535 1234.28,879.787 1239.15,878.889 1244.14,877.833 1249.24,876.609 1254.44,875.209 1259.74,873.623 1265.13,871.838 
  1270.62,869.844 1276.19,867.627 1281.82,865.169 1287.52,862.452 1293.28,859.455 1299.07,856.154 1304.85,852.523 1310.6,848.536 1316.25,844.163 1321.74,839.373 
  1326.99,834.137 1331.9,828.411 1336.34,822.157 1340.13,815.36 1343.05,808.031 1344.86,800.208 1345.26,791.974 1343.95,783.472 1340.76,774.93 1335.63,766.663 
  1328.65,758.985 1320.13,752.117 1310.43,746.201 1300.02,741.301 1289.25,737.37 1278.39,734.319 1267.64,732.046 1257.15,730.441 1247,729.404 1237.22,728.849 
  1227.86,728.7 1218.91,728.894 1210.38,729.379 1202.25,730.109 1194.51,731.047 1187.14,732.162 1180.14,733.426 1173.49,734.819 1167.16,736.321 1161.15,737.915 
  1155.44,739.589 1150.02,741.328 1144.86,743.124 1139.97,744.968 1135.33,746.852 1130.92,748.769 1126.74,750.714 1122.78,752.68 1119.03,754.663 1115.48,756.66 
  1112.12,758.666 1108.95,760.68 1105.95,762.697 1103.13,764.715 1100.48,766.732 1097.98,768.747 1095.64,770.757 1093.45,772.76 1091.41,774.755 1089.51,776.741 
  1087.75,778.716 1086.12,780.681 1084.62,782.632 1083.26,784.571 1082.01,786.495 1080.9,788.404 1079.9,790.298 1079.02,792.175 1078.25,794.035 1077.6,795.878 
  1077.06,797.703 1076.63,799.509 1076.32,801.296 1076.11,803.064 1076,804.812 1076.01,806.539 1076.12,808.247 1076.33,809.933 1076.66,811.597 1077.08,813.24 
  1077.61,814.861 1078.24,816.458 1078.98,818.033 1079.82,819.584 1080.77,821.111 1081.83,822.614 1082.99,824.092 1084.25,825.545 1085.63,826.972 1087.11,828.372 
  1088.71,829.745 1090.42,831.091 1092.24,832.409 1094.18,833.697 1096.23,834.955 1098.4,836.183 1100.7,837.378 1103.12,838.54 1105.67,839.668 1108.34,840.761 
  1111.15,841.816 1114.1,842.834 1117.18,843.808 1120.41,844.737 1123.78,845.621 1127.31,846.459 1130.99,847.25 1134.84,847.992 1138.85,848.681 1143.04,849.313 
  1147.41,849.886 1151.97,850.392 1156.72,850.826 1161.67,851.181 1166.84,851.449 1172.22,851.621 1177.83,851.69 1183.67,851.643 1189.76,851.472 1196.1,851.159 
  1202.69,850.684 1209.57,850.037 1216.75,849.199 1224.24,848.144 1232.06,846.836 1240.2,845.23 1248.66,843.271 1257.43,840.897 1266.48,838.038 1275.75,834.603 
  1285.24,830.449 1294.79,825.425 1304.11,819.376 1312.75,812.145 1320.01,803.578 1324.97,793.737 1326.66,783.13 1324.63,772.548 1319.3,762.723 1311.68,754.233 
  1302.71,747.116 1293.11,741.245 1283.3,736.426 1273.56,732.478 1264.03,729.245 1254.79,726.602 1245.87,724.451 1237.29,722.712 1229.06,721.321 1221.17,720.226 
  1213.61,719.388 1206.37,718.773 1199.44,718.352 1192.8,718.101 1186.44,718.003 1180.35,718.039 1174.51,718.196 1168.93,718.463 1163.58,718.828 1158.46,719.282 
  1153.55,719.819 1148.86,720.431 1144.37,721.112 1140.07,721.858 1135.95,722.662 1132.02,723.522 1128.26,724.434 1124.67,725.395 1121.25,726.401 1117.98,727.45 
  1114.87,728.54 1111.91,729.669 1109.09,730.834 1106.42,732.034 1103.89,733.268 1101.49,734.534 1099.22,735.832 1097.09,737.158 1095.09,738.514 1093.21,739.897 
  1091.45,741.307 1089.82,742.743 1088.31,744.205 1086.91,745.69 1085.64,747.2 1084.48,748.733 1083.44,750.288 1082.51,751.866 1081.69,753.465 1080.99,755.086 
  1080.41,756.727 1079.93,758.388 1079.57,760.069 1079.33,761.769 1079.2,763.487 1079.18,765.225 1079.28,766.979 1079.49,768.752 1079.82,770.541 1080.27,772.347 
  1080.84,774.168 1081.52,776.006 1082.33,777.857 1083.27,779.724 1084.33,781.603 1085.52,783.496 1086.84,785.4 1088.3,787.316 1089.9,789.242 1091.63,791.177 
  1093.51,793.12 1095.54,795.07 1097.72,797.024 1100.05,798.981 1102.55,800.941 1105.21,802.903 1108.05,804.864 1111.07,806.823 1114.26,808.776 1117.66,810.722 
  1121.25,812.655 1125.05,814.573 1129.07,816.47 1133.31,818.341 1137.79,820.181 1142.51,821.983 1147.5,823.742 1152.74,825.442 1158.26,827.073 1164.07,828.633 
  1170.21,830.114 1176.68,831.502 1183.52,832.779 1190.72,833.923 1198.31,834.904 1206.3,835.69 1214.71,836.241 1223.52,836.515 1232.76,836.462 1242.42,836.023 
  1252.51,835.116 1263.02,833.648 1273.86,831.515 1284.88,828.601 1295.89,824.786 1306.6,819.938 1316.61,813.962 1325.46,806.896 1332.61,798.918 1337.66,790.313 
  1340.49,781.418 1341.19,772.58 1340.04,764.127 1337.4,756.21 1333.61,748.901 1328.97,742.223 1323.74,736.155 1318.09,730.66 1312.16,725.693 1306.06,721.212 
  1299.87,717.174 1293.65,713.537 1287.44,710.267 1281.27,707.333 1275.17,704.705 1269.17,702.359 1263.26,700.274 1257.46,698.43 1251.78,696.81 1246.23,695.398 
  1240.8,694.182 1235.5,693.15 1230.33,692.289 1225.28,691.592 1220.37,691.05 1215.59,690.655 1210.94,690.401 1206.42,690.28 1202.02,690.288 1197.75,690.419 
  1193.61,690.67 1189.59,691.035 1185.69,691.511 1181.92,692.095 1178.26,692.784 1174.73,693.575 1171.31,694.465 1168.01,695.452 1164.83,696.533 1161.77,697.708 
  1158.83,698.974 1156,700.33 1153.29,701.773 1150.7,703.304 1148.23,704.92 1145.87,706.62 1143.64,708.403 1141.53,710.269 1139.54,712.216 1137.67,714.244 
  1135.93,716.351 1134.32,718.536 1132.83,720.799 1131.48,723.14 1130.27,725.557 1129.2,728.049 1128.26,730.615 1127.48,733.256 1126.85,735.969 1126.37,738.754 
  1126.06,741.61 1125.91,744.535 1125.94,747.527 1126.14,750.585 1126.54,753.708 1127.13,756.893 1127.93,760.137 1128.93,763.436 1130.17,766.789 1131.63,770.193 
  1133.34,773.644 1135.31,777.139 1137.55,780.672 1140.07,784.237 1142.89,787.825 1146.02,791.427 1149.48,795.034 1153.29,798.635 1157.46,802.217 1161.99,805.764 
  1166.89,809.258 1172.2,812.681 1177.97,816.014 1184.21,819.231 1190.95,822.306 1198.19,825.204 1205.94,827.889 1214.19,830.321 1222.92,832.456 1232.09,834.244 
  1241.67,835.633 1251.6,836.566 1261.85,836.976 1272.34,836.808 1282.98,836.017 1293.65,834.576 1304.19,832.474 1314.45,829.711 1324.22,826.306 1333.39,822.305 
  1341.86,817.775 1349.54,812.791 1356.37,807.434 1362.33,801.794 1367.37,795.964 1371.51,790.038 1374.82,784.075 1377.33,778.129 1379.12,772.25 1380.23,766.477 
  1380.73,760.842 1380.68,755.368 1380.13,750.072 1379.14,744.966 1377.76,740.056 1376.02,735.348 1373.97,730.846 1371.64,726.55 1369.06,722.461 1366.27,718.576 
  1363.28,714.891 1360.12,711.405 1356.8,708.114 1353.35,705.015 1349.78,702.104 1346.11,699.378 1342.35,696.834 1338.5,694.469 1334.59,692.278 1330.61,690.26 
  1326.58,688.41 1322.5,686.727 1318.38,685.208 1314.23,683.851 1310.05,682.653 1305.84,681.615 1301.62,680.732 1297.38,680.005 1293.14,679.432 1288.88,679.012 
  1284.62,678.744 1280.37,678.627 1276.11,678.662 1271.86,678.848 1267.62,679.185 1263.4,679.675 1259.19,680.316 1255.01,681.111 1250.85,682.06 1246.72,683.163 
  1242.63,684.423 1238.58,685.84 1234.57,687.417 1230.61,689.154 1226.7,691.054 1222.86,693.118 1219.09,695.352 1215.41,697.756 1211.8,700.334 1208.3,703.09 
  1204.92,706.024 1201.66,709.142 1198.54,712.443 1195.58,715.932 1192.8,719.61 1190.21,723.479 1187.84,727.54 1185.73,731.789 1183.88,736.232 1182.35,740.873 
  1181.17,745.71 1180.37,750.737 1180,755.946 1180.11,761.321 1180.74,766.842 1181.95,772.488 1183.79,778.229 1186.31,784.027 1189.58,789.84 1193.66,795.621 
  1198.59,801.312 1204.38,806.845 1211.02,812.141 1218.49,817.109 1226.73,821.65 1235.67,825.68 1245.22,829.143 1255.25,831.999 1265.64,834.218 1276.24,835.786 
  1286.89,836.699 1297.42,836.971 1307.75,836.647 1317.78,835.779 1327.45,834.419 1336.7,832.62 1345.48,830.435 1353.76,827.919 1361.54,825.122 1368.82,822.087 
  
  "/>
<polyline clip-path="url(#clip4803)" style="stroke:#3da44d; stroke-width:12; stroke-opacity:1; fill:none" points="
  1666.17,783.233 1666.21,783.234 1666.35,783.237 1666.57,783.246 1666.87,783.263 1667.27,783.292 1667.76,783.334 1668.34,783.393 1669.01,783.472 1669.77,783.573 
  1670.63,783.7 1671.59,783.855 1672.64,784.041 1673.8,784.261 1675.06,784.518 1676.43,784.816 1677.91,785.156 1679.5,785.543 1681.2,785.98 1683.03,786.469 
  1684.97,787.015 1687.05,787.619 1689.25,788.287 1691.59,789.021 1694.07,789.825 1696.69,790.703 1699.46,791.659 1702.39,792.697 1705.47,793.82 1708.72,795.033 
  1712.13,796.341 1715.73,797.748 1719.5,799.259 1723.47,800.879 1727.62,802.612 1731.98,804.465 1736.54,806.443 1741.31,808.551 1746.3,810.796 1751.51,813.183 
  1756.96,815.72 1762.65,818.413 1768.58,821.269 1774.75,824.295 1781.19,827.499 1787.88,830.889 1794.85,834.472 1802.08,838.258 1809.6,842.255 1817.4,846.472 
  1825.49,850.918 1833.87,855.602 1842.54,860.535 1851.52,865.726 1860.8,871.186 1870.39,876.925 1880.28,882.954 1890.49,889.283 1901,895.924 1911.83,902.889 
  1922.96,910.188 1934.41,917.835 1946.16,925.839 1958.22,934.214 1970.58,942.972 1983.24,952.125 1996.19,961.684 2009.43,971.663 2022.95,982.073 2036.75,992.927 
  2050.82,1004.24 2065.14,1016.01 2079.72,1028.27 2094.53,1041.01 2109.57,1054.26 2124.83,1068.03 2140.29,1082.32 2155.94,1097.15 2171.76,1112.52 2187.75,1128.46 
  2203.88,1144.97 2220.14,1162.05 2236.51,1179.73 2252.97,1198.01 2269.5,1216.9 2286.09,1236.41 2302.71,1256.55 2319.34,1277.33 2335.96,1298.75 2352.55,1320.82 
  2369.09,1343.55 2385.55,1366.95 2401.9,1391.02 2418.13,1415.77 2434.21,1441.2 2450.11,1467.33 2465.8,1494.14 2481.26,1521.66 2496.46,1549.87 2511.38,1578.79 
  2525.98,1608.42 2540.24,1638.75 2554.12,1669.79 2567.6,1701.55 2580.65,1734.02 2593.23,1767.2 2605.33,1801.09 2616.89,1835.7 2627.91,1871.01 2638.34,1907.03 
  2648.15,1943.76 2657.32,1981.18 2665.8,2019.3 2673.58,2058.12 2680.62,2097.62 2686.89,2137.8 2692.35,2178.65 2696.98,2220.17 2700.74,2262.35 2703.6,2305.18 
  2705.54,2348.66 2706.5,2392.76 2706.48,2437.48 2705.44,2482.82 2703.34,2528.75 2700.16,2575.28 2695.86,2622.38 2690.41,2670.04 2683.79,2718.26 2675.96,2767.01 
  2666.89,2816.29 2656.56,2866.08 2644.94,2916.37 2632,2967.13 2617.71,3018.35 2602.05,3070.02 2584.99,3122.11 2566.5,3174.62 2546.57,3227.51 2525.16,3280.78 
  2502.25,3334.4 2477.82,3388.35 2451.85,3442.6 2424.31,3497.15 2395.18,3551.96 2364.44,3607.01 2332.07,3662.29 2298.05,3717.75 2262.36,3773.4 2225,3829.19 
  2185.93,3885.1 2145.14,3941.12 2102.63,3997.22 2058.36,4053.37 2012.34,4109.55 1964.53,4165.73 1914.95,4221.89 1863.56,4278 1810.37,4334.04 1755.36,4389.97 
  1698.53,4445.78 1639.87,4501.44 1579.37,4556.91 1517.03,4612.18 1452.85,4667.21 1386.82,4721.98 1318.95,4776.46 1249.23,4830.62 1177.66,4884.42 1104.25,4937.86 
  1028.99,4990.88 951.898,5043.47 872.971,5095.59 792.216,5147.21 709.64,5198.31 625.252,5248.86 539.063,5298.82 451.084,5348.17 361.326,5396.88 269.801,5444.92 
  176.523,5492.27 81.5047,5538.9 -15.2371,5584.78 -113.687,5629.88 -213.826,5674.18 -315.637,5717.64 -419.1,5760.25 -524.193,5801.98 -630.896,5842.79 -739.184,5882.67 
  -849.034,5921.59 -960.421,5959.52 -1073.32,5996.44 -1187.7,6032.32 -1303.53,6067.14 -1420.79,6100.88 -1539.44,6133.5 -1659.46,6165 -1780.8,6195.33 -1903.44,6224.48 
  -2027.34,6252.43 -2152.46,6279.15 -2278.77,6304.62 -2406.23,6328.82 -2534.8,6351.72 -2664.44,6373.31 -2795.11,6393.56 -2926.76,6412.47 -3059.37,6430.01 -3192.89,6446.16 
  -3327.28,6460.91 -3462.48,6474.24 -3598.46,6486.15 -3735.18,6496.6 -3872.59,6505.59 -4010.64,6513.11 -4149.29,6519.14 -4288.49,6523.68 -4428.2,6526.7 -4568.37,6528.2 
  -4708.94,6528.16 -4849.88,6526.59 -4991.13,6523.47 -5132.65,6518.79 -5274.38,6512.54 -5416.27,6504.72 -5558.27,6495.33 -5700.34,6484.35 -5842.41,6471.78 -5984.45,6457.62 
  -6126.38,6441.86 -6268.17,6424.51 -6409.75,6405.55 -6551.08,6384.99 -6692.09,6362.82 -6832.73,6339.05 -6972.95,6313.68 -7112.7,6286.71 -7251.92,6258.14 -7390.57,6227.98 
  -7528.6,6196.23 -7665.95,6162.91 -7802.56,6128.01 -7938.39,6091.55 -8073.39,6053.54 -8207.5,6013.98 -8340.67,5972.88 -8472.86,5930.25 -8604.01,5886.11 -8734.08,5840.47 
  -8863.01,5793.34 -8990.76,5744.72 -9117.28,5694.65 -9242.52,5643.12 -9366.44,5590.16 -9488.98,5535.79 -9610.11,5480.01 -9729.77,5422.85 -9847.92,5364.32 -9964.52,5304.44 
  -10079.5,5243.23 -10192.9,5180.72 -10304.5,5116.91 -10414.5,5051.85 -10522.6,4985.53 -10629,4917.99 -10733.4,4849.26 -10836,4779.35 -10936.7,4708.28 -11035.3,4636.08 
  -11132,4562.77 -11226.6,4488.38 -11319.1,4412.94 -11409.5,4336.48 -11497.8,4259.03 -11583.9,4180.62 -11667.8,4101.28 -11749.5,4021.04 -11828.9,3939.93 -11906.1,3857.98 
  -11980.9,3775.22 -12053.4,3691.68 -12123.6,3607.39 -12191.3,3522.39 -12256.7,3436.7 -12319.7,3350.35 -12380.3,3263.38 -12438.3,3175.82 -12494,3087.71 -12547.1,2999.06 
  -12597.8,2909.91 -12646,2820.31 -12691.6,2730.27 -12734.7,2639.83 -12775.3,2549.03 -12813.3,2457.89 -12848.7,2366.45 -12881.6,2274.75 -12912,2182.81 -12939.7,2090.67 
  -12964.9,1998.37 -12987.5,1905.93 -13007.5,1813.4 -13025,1720.79 -13039.8,1628.16 -13052.1,1535.53 -13061.8,1442.94 -13068.9,1350.41 -13073.5,1257.97 -13075.5,1165.67 
  -13075,1073.53 -13072,981.603 -13066.5,889.909 -13058.4,798.485 -13048,707.365 -13035,616.581 -13019.7,526.165 -13001.9,436.148 -12981.7,346.562 -12959.2,257.436 
  -12934.3,168.801 -12907.1,80.6866 -12877.6,-6.87938 -12845.8,-93.8682 -12811.7,-180.252 -12775.5,-266.004 -12737,-351.097 -12696.4,-435.505 -12653.6,-519.202 -12608.7,-602.163 
  -12561.8,-684.364 -12512.7,-765.78 -12461.7,-846.388 -12408.7,-926.165 -12353.7,-1005.09 -12296.8,-1083.13 -12238.1,-1160.28 -12177.5,-1236.52 -12115,-1311.81 -12050.9,-1386.15 
  -11984.9,-1459.5 -11917.3,-1531.86 -11848.1,-1603.21 -11777.2,-1673.52 -11704.7,-1742.79 -11630.6,-1810.99 -11555.1,-1878.11 -11478.2,-1944.13 -11399.8,-2009.04 -11320.2,-2072.81 
  -11239.2,-2135.45 -11156.9,-2196.93 -11073.5,-2257.24 -10988.9,-2316.38 -10903.2,-2374.33 -10816.4,-2431.08 -10728.7,-2486.62 -10639.9,-2540.95 -10550.2,-2594.06 -10459.7,-2645.94 
  -10368.3,-2696.59 -10276.1,-2746 -10183.2,-2794.16 -10089.6,-2841.08 -9995.34,-2886.75 -9900.47,-2931.17 -9805.04,-2974.34 -9709.09,-3016.26 -9612.66,-3056.93 -9515.81,-3096.35 
  -9418.57,-3134.53 -9320.99,-3171.46 -9223.11,-3207.15 -9124.97,-3241.61 -9026.62,-3274.83 -8928.1,-3306.84 -8829.46,-3337.63 -8730.72,-3367.21 -8631.95,-3395.58 -8533.15,-3422.76 
  -8434.39,-3448.74 -8335.71,-3473.53 -8237.15,-3497.14 -8138.77,-3519.59 -8040.6,-3540.89 -7942.7,-3561.04 -7845.1,-3580.06 -7747.84,-3597.95 -7650.97,-3614.74 -7554.53,-3630.44 
  -7458.55,-3645.06 -7363.07,-3658.6 -7268.12,-3671.1 -7173.75,-3682.55 -7079.98,-3692.99 -6986.85,-3702.41 -6894.4,-3710.85 -6802.64,-3718.31 -6711.61,-3724.81 -6621.35,-3730.37 
  -6531.87,-3735.01 -6443.21,-3738.74 -6355.39,-3741.59 -6268.43,-3743.57 -6182.35,-3744.71 -6097.19,-3745.01 -6012.96,-3744.52 -5929.68,-3743.23 -5847.37,-3741.18 -5766.05,-3738.39 
  -5685.73,-3734.88 -5606.43,-3730.67 -5528.17,-3725.79 -5450.95,-3720.26 -5374.81,-3714.09 -5299.74,-3707.31 -5225.79,-3699.92 -5152.95,-3691.96 -5081.25,-3683.44 -5010.7,-3674.39 
  -4941.31,-3664.84 -4873.1,-3654.8 -4806.07,-3644.3 -4740.23,-3633.36 -4675.6,-3622.01 -4612.17,-3610.26 -4549.96,-3598.13 -4488.97,-3585.66 -4429.21,-3572.85 -4370.67,-3559.74 
  -4313.36,-3546.33 -4257.28,-3532.67 -4202.42,-3518.75 -4148.8,-3504.61 -4096.4,-3490.26 -4045.22,-3475.73 -3995.25,-3461.04 -3946.5,-3446.19 -3898.95,-3431.23 -3852.59,-3416.15 
  -3807.42,-3400.99 -3763.43,-3385.76 -3720.59,-3370.49 -3678.91,-3355.18 -3638.37,-3339.86 -3598.95,-3324.55 -3560.64,-3309.26 -3523.41,-3294.01 -3487.26,-3278.83 -3452.18,-3263.71 
  -3418.15,-3248.67 -3385.17,-3233.73 -3353.21,-3218.91 -3322.26,-3204.22 -3292.3,-3189.68 -3263.32,-3175.3 -3235.28,-3161.09 -3208.18,-3147.08 -3181.99,-3133.28 -3156.69,-3119.69 
  -3132.26,-3106.34 -3108.67,-3093.23 -3085.92,-3080.37 -3063.96,-3067.79 -3042.79,-3055.47 -3022.37,-3043.45 -3002.69,-3031.72 -2983.71,-3020.3 -2965.42,-3009.18 -2947.77,-2998.39 
  -2930.76,-2987.93 -2914.35,-2977.79 -2898.52,-2968 -2883.23,-2958.56 -2868.47,-2949.46 -2854.19,-2940.72 -2840.37,-2932.33 -2826.99,-2924.31 -2814,-2916.65 -2801.38,-2909.35 
  -2789.1,-2902.42 -2777.13,-2895.86 -2765.43,-2889.67 -2753.97,-2883.84 -2742.72,-2878.38 -2731.65,-2873.29 -2720.73,-2868.57 -2709.95,-2864.23 -2699.26,-2860.26 -2688.63,-2856.66 
  -2678.04,-2853.43 -2667.46,-2850.57 -2656.85,-2848.08 -2646.18,-2845.95 -2635.43,-2844.17 -2624.56,-2842.76 -2613.55,-2841.7 -2602.36,-2840.98 -2590.97,-2840.61 -2579.35,-2840.58 
  -2567.46,-2840.87 -2555.28,-2841.5 -2542.79,-2842.44 -2529.95,-2843.69 -2516.73,-2845.25 -2503.12,-2847.11 -2489.07,-2849.25 -2474.57,-2851.67 -2459.59,-2854.37 -2444.09,-2857.32 
  -2428.06,-2860.53 -2411.46,-2863.97 -2394.28,-2867.64 -2376.48,-2871.54 -2358.04,-2875.63 -2338.94,-2879.93 -2319.14,-2884.4 -2298.63,-2889.05 -2277.4,-2893.86 -2255.43,-2898.82 
  -2232.68,-2903.91 -2209.15,-2909.13 -2184.81,-2914.45 -2159.64,-2919.86 -2133.62,-2925.36 -2106.74,-2930.91 -2078.99,-2936.51 -2050.33,-2942.14 -2020.77,-2947.79 -1990.28,-2953.43 
  -1958.85,-2959.06 -1926.48,-2964.66 -1893.14,-2970.21 -1858.83,-2975.69 -1823.55,-2981.08 -1787.27,-2986.38 -1749.99,-2991.55 -1711.7,-2996.6 -1672.41,-3001.48 -1632.09,-3006.2 
  -1590.75,-3010.72 -1548.39,-3015.04 -1504.99,-3019.13 -1460.57,-3022.97 -1415.11,-3026.55 -1368.62,-3029.84 -1321.09,-3032.83 -1272.53,-3035.5 -1222.94,-3037.82 -1172.33,-3039.79 
  -1120.71,-3041.38 -1068.08,-3042.58 -1014.45,-3043.35 -959.81,-3043.68 -904.179,-3043.55 -847.564,-3042.94 -789.971,-3041.83 -731.412,-3040.2 -671.897,-3038.02 -611.438,-3035.28 
  -550.048,-3031.96 -487.74,-3028.03 -424.53,-3023.49 -360.434,-3018.31 -295.467,-3012.47 -229.649,-3005.96 -162.998,-2998.75 -95.5343,-2990.83 -27.2783,-2982.19 41.7479,-2972.79 
  111.521,-2962.63 182.018,-2951.7 253.213,-2939.96 325.081,-2927.41 397.594,-2914.03 470.724,-2899.8 544.443,-2884.71 618.721,-2868.74 693.527,-2851.88 768.828,-2834.11 
  844.592,-2815.42 920.784,-2795.79 997.371,-2775.21 1074.31,-2753.66 1151.58,-2731.14 1229.14,-2707.65 1306.96,-2683.15 1384.99,-2657.65 1463.21,-2631.13 1541.58,-2603.58 
  1620.07,-2574.99 1698.63,-2545.34 1777.23,-2514.64 1855.83,-2482.86 1934.4,-2450.01 2012.89,-2416.08 2091.26,-2381.05 2169.49,-2344.93 2247.52,-2307.7 2325.32,-2269.37 
  2402.84,-2229.93 2480.05,-2189.38 2556.9,-2147.71 2633.36,-2104.93 2709.37,-2061.03 2784.9,-2016.01 2859.9,-1969.87 2934.33,-1922.62 3008.14,-1874.25 3081.3,-1824.77 
  3153.74,-1774.18 3225.44,-1722.48 3296.34,-1669.68 3366.39,-1615.79 3435.56,-1560.81 3503.78,-1504.74 3571.02,-1447.6 3637.22,-1389.39 3702.35,-1330.12 3766.33,-1269.8 
  3829.14,-1208.44 3890.74,-1146.05 3951.09,-1082.65 4010.14,-1018.25 4067.86,-952.853 4124.2,-886.48 4179.13,-819.141 4232.6,-750.853 4284.57,-681.628 4335,-611.483 
  4383.86,-540.434 4431.11,-468.497 4476.7,-395.69 4520.61,-322.031 4562.8,-247.539 4603.23,-172.233 4641.87,-96.1323 4678.68,-19.2585 4713.63,58.3673 4746.68,136.723 
  4777.81,215.787 4806.98,295.534 4834.16,375.943 4859.32,456.986 4882.43,538.641 4903.46,620.88 4922.38,703.677 4939.17,787.005 4953.79,870.836 4966.22,955.142 
  4976.44,1039.89 4984.41,1125.06 4990.11,1210.61 4993.52,1296.52 4994.61,1382.75 4993.36,1469.27 4989.75,1556.04 4983.77,1643.06 4975.41,1730.27 4964.65,1817.65 
  4951.49,1905.18 4935.91,1992.81 4917.91,2080.52 4897.47,2168.28 4874.59,2256.05 4849.26,2343.8 4821.47,2431.5 4791.23,2519.12 4758.52,2606.62 4723.35,2693.98 
  4685.72,2781.16 4645.62,2868.13 4603.05,2954.86 4558.03,3041.31 4510.55,3127.45 4460.61,3213.26 4408.23,3298.69 4353.41,3383.72 4296.15,3468.3 4236.48,3552.42 
  4174.39,3636.04 4109.9,3719.12 4043.01,3801.63 3973.76,3883.53 3902.14,3964.81 3828.18,4045.41 3751.89,4125.31 3673.28,4204.48 3592.39,4282.88 3509.23,4360.48 
  3423.81,4437.25 3336.17,4513.15 3246.32,4588.14 3154.29,4662.21 3060.1,4735.33 2963.78,4807.47 2865.37,4878.59 2764.9,4948.68 2662.41,5017.7 2557.93,5085.63 
  2451.5,5152.44 2343.15,5218.11 2232.93,5282.61 2120.85,5345.92 2006.98,5408.02 1891.34,5468.87 1773.97,5528.47 1654.91,5586.78 1534.21,5643.79 1411.9,5699.47 
  1288.03,5753.8 1162.63,5806.77 1035.76,5858.35 907.451,5908.53 777.751,5957.28 646.704,6004.59 514.356,6050.45 380.752,6094.82 245.939,6137.71 109.965,6179.09 
  -27.1244,6218.94 -165.279,6257.26 -304.451,6294.02 -444.591,6329.22 -585.648,6362.84 -727.571,6394.87 -870.31,6425.3 -1013.81,6454.11 -1158.03,6481.3 -1302.9,6506.85 
  -1448.37,6530.76 -1594.39,6553.01 -1740.92,6573.59 -1887.9,6592.51 -2035.29,6609.76 -2183.03,6625.34 -2331.05,6639.25 -2479.3,6651.5 -2627.73,6662.08 -2776.27,6670.99 
  -2924.86,6678.24 -3073.46,6683.83 -3222.01,6687.77 -3370.46,6690.06 -3518.74,6690.7 -3666.81,6689.7 -3814.62,6687.07 -3962.1,6682.81 -4109.22,6676.94 -4255.91,6669.45 
  -4402.14,6660.35 -4547.84,6649.67 -4692.97,6637.39 -4837.48,6623.55 -4981.32,6608.14 -5124.45,6591.19 -5266.81,6572.69 -5408.37,6552.66 -5549.06,6531.13 -5688.86,6508.09 
  -5827.71,6483.58 -5965.56,6457.59 -6102.39,6430.15 -6238.13,6401.27 -6372.75,6370.97 -6506.21,6339.27 -6638.47,6306.19 -6769.48,6271.74 -6899.2,6235.95 -7027.6,6198.83 
  -7154.63,6160.4 -7280.25,6120.69 -7404.43,6079.72 -7527.15,6037.49 -7648.35,5994.05 -7768,5949.42 -7886.08,5903.62 -8002.54,5856.68 -8117.35,5808.64 -8230.48,5759.52 
  -8341.9,5709.36 -8451.59,5658.17 -8559.5,5605.98 -8665.63,5552.84 -8769.93,5498.76 -8872.39,5443.77 -8972.99,5387.9 -9071.7,5331.19 -9168.49,5273.65 -9263.37,5215.32 
  -9356.29,5156.23 -9447.26,5096.4 -9536.24,5035.87 -9623.24,4974.67 -9708.23,4912.81 -9791.2,4850.34 -9872.14,4787.27 -9951.05,4723.65 -10027.9,4659.49 -10102.7,4594.83 
  -10175.5,4529.7 -10246.2,4464.12 -10314.8,4398.12 -10381.3,4331.74 -10445.8,4265 -10508.2,4197.94 -10568.6,4130.57 -10626.9,4062.94 -10683.1,3995.06 -10737.2,3926.97 
  -10789.3,3858.68 -10839.4,3790.23 -10887.4,3721.64 -10933.3,3652.95 -10977.3,3584.19 -11019.1,3515.41 -11059,3446.62 -11096.9,3377.86 -11132.8,3309.16 -11166.8,3240.55 
  -11198.7,3172.06 -11228.8,3103.72 -11256.9,3035.55 -11283.1,2967.59 -11307.4,2899.86 -11329.8,2832.38 -11350.4,2765.19 -11369.2,2698.3 -11386.2,2631.75 -11401.4,2565.54 
  -11414.8,2499.72 -11426.5,2434.29 -11436.4,2369.28 -11444.7,2304.71 -11451.3,2240.6 -11456.3,2176.98 -11459.7,2113.85 -11461.5,2051.23 -11461.8,1989.15 -11460.5,1927.63 
  -11457.8,1866.66 -11453.6,1806.28 -11448.1,1746.5 -11441.1,1687.33 -11432.8,1628.78 -11423.1,1570.87 -11412.2,1513.61 -11400.1,1457.01 -11386.8,1401.08 -11372.3,1345.84 
  -11356.6,1291.31 -11339.8,1237.5 -11321.9,1184.42 -11303,1132.08 -11283,1080.51 -11262.1,1029.7 -11240.3,979.674 -11217.6,930.436 -11194,881.995 -11169.6,834.361 
  -11144.4,787.539 -11118.5,741.537 -11091.9,696.36 -11064.6,652.013 -11036.6,608.502 -11008.1,565.829 -10979,523.997 -10949.3,483.009 -10919.2,442.865 -10888.6,403.566 
  -10857.6,365.112 -10826.2,327.503 -10794.5,290.736 -10762.4,254.809 -10730,219.719 -10697.4,185.462 -10664.6,152.033 -10631.5,119.427 -10598.4,87.6385 -10565.1,56.6597 
  -10531.7,26.4832 -10498.2,-2.89938 -10464.8,-31.4972 -10431.3,-59.32 -10397.9,-86.3782 -10364.5,-112.67 -10331.2,-138.197 -10298,-162.969 -10264.9,-186.996 -10232.1,-210.287 
  -10199.4,-232.853 -10166.9,-254.704 -10134.7,-275.851 -10102.8,-296.304 -10071.1,-316.077 -10039.8,-335.18 -10008.9,-353.626 -9978.32,-371.428 -9948.14,-388.598 -9918.38,-405.149 
  -9889.05,-421.095 -9860.18,-436.451 -9831.78,-451.23 -9803.87,-465.446 -9776.46,-479.116 -9749.58,-492.253 -9723.23,-504.874 -9697.42,-516.995 -9672.18,-528.632 -9647.51,-539.801 
  -9623.42,-550.52 -9599.92,-560.805 -9577.02,-570.675 -9554.72,-580.148 -9533.04,-589.24 -9511.98,-597.973 -9491.55,-606.364 -9471.74,-614.432 -9452.56,-622.197 -9434.02,-629.68 
  -9416.11,-636.901 -9398.84,-643.88 -9382.2,-650.629 -9366.2,-657.163 -9350.85,-663.503 -9336.14,-669.667 -9322.08,-675.675 -9308.65,-681.546 -9295.87,-687.299 -9283.73,-692.954 
  -9272.22,-698.528 -9261.34,-704.04 -9251.09,-709.51 -9241.46,-714.956 -9232.45,-720.397 -9224.04,-725.85 -9216.24,-731.335 -9209.02,-736.869 -9202.39,-742.47 -9196.34,-748.158 
  -9190.84,-753.948 -9185.9,-759.86 -9181.49,-765.911 -9177.61,-772.119 -9174.24,-778.501 -9171.37,-785.075 -9168.98,-791.858 -9167.06,-798.868 -9165.58,-806.121 -9164.54,-813.634 
  -9163.9,-821.425 -9163.67,-829.511 -9163.8,-837.908 -9164.29,-846.633 -9165.11,-855.702 -9166.24,-865.133 -9167.66,-874.94 -9169.36,-885.132 -9171.33,-895.723 -9173.54,-906.725 
  -9175.97,-918.153 -9178.59,-930.019 -9181.4,-942.336 -9184.35,-955.116 -9187.42,-968.371 -9190.6,-982.111 -9193.86,-996.347 -9197.18,-1011.09 -9200.52,-1026.35 -9203.86,-1042.13 
  -9207.18,-1058.44 -9210.46,-1075.3 -9213.66,-1092.7 -9216.76,-1110.66 -9219.74,-1129.19 -9222.56,-1148.27 -9225.2,-1167.94 -9227.64,-1188.18 -9229.84,-1209 -9231.78,-1230.41 
  -9233.42,-1252.42 -9234.75,-1275.01 -9235.73,-1298.2 -9236.34,-1321.99 -9236.54,-1346.38 -9236.3,-1371.37 -9235.6,-1396.96 -9234.4,-1423.15 -9232.68,-1449.94 -9230.4,-1477.32 
  -9227.55,-1505.3 -9224.08,-1533.87 -9219.97,-1563.03 -9215.19,-1592.77 -9209.7,-1623.1 -9203.49,-1653.99 -9196.52,-1685.45 -9188.76,-1717.48 -9180.18,-1750.06 -9170.75,-1783.18 
  
  "/>
<circle clip-path="url(#clip4803)" style="fill:#000000; stroke:none; fill-opacity:1" cx="1281.71" cy="783.233" r="18"/>
<circle clip-path="url(#clip4803)" style="fill:#c271d2; stroke:none; fill-opacity:1" cx="1281.71" cy="783.233" r="14"/>
<circle clip-path="url(#clip4803)" style="fill:#000000; stroke:none; fill-opacity:1" cx="923.111" cy="783.233" r="18"/>
<circle clip-path="url(#clip4803)" style="fill:#ac8d18; stroke:none; fill-opacity:1" cx="923.111" cy="783.233" r="14"/>
<circle clip-path="url(#clip4803)" style="fill:#000000; stroke:none; fill-opacity:1" cx="1640.31" cy="783.233" r="18"/>
<circle clip-path="url(#clip4803)" style="fill:#ac8d18; stroke:none; fill-opacity:1" cx="1640.31" cy="783.233" r="14"/>
<polygon clip-path="url(#clip4801)" points="
1621.3,572.384 2249.26,572.384 2249.26,209.504 1621.3,209.504 
  " fill="#ffffff" fill-rule="evenodd" fill-opacity="1"/>
<polyline clip-path="url(#clip4801)" style="stroke:#000000; stroke-width:4; stroke-opacity:1; fill:none" points="
  1621.3,572.384 2249.26,572.384 2249.26,209.504 1621.3,209.504 1621.3,572.384 
  "/>
<polyline clip-path="url(#clip4801)" style="stroke:#009af9; stroke-width:4; stroke-opacity:1; fill:none" points="
  1645.3,269.984 1789.3,269.984 
  "/>
<g clip-path="url(#clip4801)">
<text style="fill:#000000; fill-opacity:1; font-family:Arial,Helvetica Neue,Helvetica,sans-serif; font-size:48px; text-anchor:start;" transform="rotate(0, 1813.3, 287.484)" x="1813.3" y="287.484">Orbit</text>
</g>
<polyline clip-path="url(#clip4801)" style="stroke:#e26f46; stroke-width:12; stroke-opacity:1; fill:none" points="
  1645.3,330.464 1789.3,330.464 
  "/>
<g clip-path="url(#clip4801)">
<text style="fill:#000000; fill-opacity:1; font-family:Arial,Helvetica Neue,Helvetica,sans-serif; font-size:48px; text-anchor:start;" transform="rotate(0, 1813.3, 347.964)" x="1813.3" y="347.964">Solution 1</text>
</g>
<polyline clip-path="url(#clip4801)" style="stroke:#3da44d; stroke-width:12; stroke-opacity:1; fill:none" points="
  1645.3,390.944 1789.3,390.944 
  "/>
<g clip-path="url(#clip4801)">
<text style="fill:#000000; fill-opacity:1; font-family:Arial,Helvetica Neue,Helvetica,sans-serif; font-size:48px; text-anchor:start;" transform="rotate(0, 1813.3, 408.444)" x="1813.3" y="408.444">Solution 2</text>
</g>
<circle clip-path="url(#clip4801)" style="fill:#000000; stroke:none; fill-opacity:1" cx="1729.3" cy="451.424" r="25"/>
<circle clip-path="url(#clip4801)" style="fill:#c271d2; stroke:none; fill-opacity:1" cx="1729.3" cy="451.424" r="21"/>
<g clip-path="url(#clip4801)">
<text style="fill:#000000; fill-opacity:1; font-family:Arial,Helvetica Neue,Helvetica,sans-serif; font-size:48px; text-anchor:start;" transform="rotate(0, 1813.3, 468.924)" x="1813.3" y="468.924">Massive bodies</text>
</g>
<circle clip-path="url(#clip4801)" style="fill:#000000; stroke:none; fill-opacity:1" cx="1729.3" cy="511.904" r="25"/>
<circle clip-path="url(#clip4801)" style="fill:#ac8d18; stroke:none; fill-opacity:1" cx="1729.3" cy="511.904" r="21"/>
<g clip-path="url(#clip4801)">
<text style="fill:#000000; fill-opacity:1; font-family:Arial,Helvetica Neue,Helvetica,sans-serif; font-size:48px; text-anchor:start;" transform="rotate(0, 1813.3, 529.404)" x="1813.3" y="529.404">Lagrangian Points</text>
</g>
</svg>
