<?xml version="1.0" encoding="utf-8"?>
<svg xmlns="http://www.w3.org/2000/svg" xmlns:xlink="http://www.w3.org/1999/xlink" width="600" height="400" viewBox="0 0 2400 1600">
<defs>
  <clipPath id="clip1700">
    <rect x="0" y="0" width="2000" height="2000"/>
  </clipPath>
</defs>
<defs>
  <clipPath id="clip1701">
    <rect x="0" y="0" width="2400" height="1600"/>
  </clipPath>
</defs>
<polygon clip-path="url(#clip1701)" points="
0,1600 2400,1600 2400,0 0,0 
  " fill="#ffffff" fill-rule="evenodd" fill-opacity="1"/>
<defs>
  <clipPath id="clip1702">
    <rect x="480" y="0" width="1681" height="1600"/>
  </clipPath>
</defs>
<polygon clip-path="url(#clip1701)" points="
189.504,1503.47 2321.26,1503.47 2321.26,47.2441 189.504,47.2441 
  " fill="#ffffff" fill-rule="evenodd" fill-opacity="1"/>
<defs>
  <clipPath id="clip1703">
    <rect x="189" y="47" width="2133" height="1457"/>
  </clipPath>
</defs>
<polyline clip-path="url(#clip1703)" style="stroke:#000000; stroke-width:2; stroke-opacity:0.1; fill:none" points="
  486.328,1503.47 486.328,47.2441 
  "/>
<polyline clip-path="url(#clip1703)" style="stroke:#000000; stroke-width:2; stroke-opacity:0.1; fill:none" points="
  873.497,1503.47 873.497,47.2441 
  "/>
<polyline clip-path="url(#clip1703)" style="stroke:#000000; stroke-width:2; stroke-opacity:0.1; fill:none" points="
  1260.67,1503.47 1260.67,47.2441 
  "/>
<polyline clip-path="url(#clip1703)" style="stroke:#000000; stroke-width:2; stroke-opacity:0.1; fill:none" points="
  1647.84,1503.47 1647.84,47.2441 
  "/>
<polyline clip-path="url(#clip1703)" style="stroke:#000000; stroke-width:2; stroke-opacity:0.1; fill:none" points="
  2035,1503.47 2035,47.2441 
  "/>
<polyline clip-path="url(#clip1703)" style="stroke:#000000; stroke-width:2; stroke-opacity:0.1; fill:none" points="
  189.504,1503.47 2321.26,1503.47 
  "/>
<polyline clip-path="url(#clip1703)" style="stroke:#000000; stroke-width:2; stroke-opacity:0.1; fill:none" points="
  189.504,1139.42 2321.26,1139.42 
  "/>
<polyline clip-path="url(#clip1703)" style="stroke:#000000; stroke-width:2; stroke-opacity:0.1; fill:none" points="
  189.504,775.359 2321.26,775.359 
  "/>
<polyline clip-path="url(#clip1703)" style="stroke:#000000; stroke-width:2; stroke-opacity:0.1; fill:none" points="
  189.504,411.302 2321.26,411.302 
  "/>
<polyline clip-path="url(#clip1703)" style="stroke:#000000; stroke-width:2; stroke-opacity:0.1; fill:none" points="
  189.504,47.2441 2321.26,47.2441 
  "/>
<polyline clip-path="url(#clip1701)" style="stroke:#000000; stroke-width:4; stroke-opacity:1; fill:none" points="
  189.504,1503.47 2321.26,1503.47 
  "/>
<polyline clip-path="url(#clip1701)" style="stroke:#000000; stroke-width:4; stroke-opacity:1; fill:none" points="
  189.504,1503.47 189.504,47.2441 
  "/>
<polyline clip-path="url(#clip1701)" style="stroke:#000000; stroke-width:4; stroke-opacity:1; fill:none" points="
  486.328,1503.47 486.328,1481.63 
  "/>
<polyline clip-path="url(#clip1701)" style="stroke:#000000; stroke-width:4; stroke-opacity:1; fill:none" points="
  873.497,1503.47 873.497,1481.63 
  "/>
<polyline clip-path="url(#clip1701)" style="stroke:#000000; stroke-width:4; stroke-opacity:1; fill:none" points="
  1260.67,1503.47 1260.67,1481.63 
  "/>
<polyline clip-path="url(#clip1701)" style="stroke:#000000; stroke-width:4; stroke-opacity:1; fill:none" points="
  1647.84,1503.47 1647.84,1481.63 
  "/>
<polyline clip-path="url(#clip1701)" style="stroke:#000000; stroke-width:4; stroke-opacity:1; fill:none" points="
  2035,1503.47 2035,1481.63 
  "/>
<polyline clip-path="url(#clip1701)" style="stroke:#000000; stroke-width:4; stroke-opacity:1; fill:none" points="
  189.504,1503.47 221.48,1503.47 
  "/>
<polyline clip-path="url(#clip1701)" style="stroke:#000000; stroke-width:4; stroke-opacity:1; fill:none" points="
  189.504,1139.42 221.48,1139.42 
  "/>
<polyline clip-path="url(#clip1701)" style="stroke:#000000; stroke-width:4; stroke-opacity:1; fill:none" points="
  189.504,775.359 221.48,775.359 
  "/>
<polyline clip-path="url(#clip1701)" style="stroke:#000000; stroke-width:4; stroke-opacity:1; fill:none" points="
  189.504,411.302 221.48,411.302 
  "/>
<polyline clip-path="url(#clip1701)" style="stroke:#000000; stroke-width:4; stroke-opacity:1; fill:none" points="
  189.504,47.2441 221.48,47.2441 
  "/>
<g clip-path="url(#clip1701)">
<text style="fill:#000000; fill-opacity:1; font-family:Arial,Helvetica Neue,Helvetica,sans-serif; font-size:48px; text-anchor:middle;" transform="rotate(0, 486.328, 1557.47)" x="486.328" y="1557.47">-4</text>
</g>
<g clip-path="url(#clip1701)">
<text style="fill:#000000; fill-opacity:1; font-family:Arial,Helvetica Neue,Helvetica,sans-serif; font-size:48px; text-anchor:middle;" transform="rotate(0, 873.497, 1557.47)" x="873.497" y="1557.47">-2</text>
</g>
<g clip-path="url(#clip1701)">
<text style="fill:#000000; fill-opacity:1; font-family:Arial,Helvetica Neue,Helvetica,sans-serif; font-size:48px; text-anchor:middle;" transform="rotate(0, 1260.67, 1557.47)" x="1260.67" y="1557.47">0</text>
</g>
<g clip-path="url(#clip1701)">
<text style="fill:#000000; fill-opacity:1; font-family:Arial,Helvetica Neue,Helvetica,sans-serif; font-size:48px; text-anchor:middle;" transform="rotate(0, 1647.84, 1557.47)" x="1647.84" y="1557.47">2</text>
</g>
<g clip-path="url(#clip1701)">
<text style="fill:#000000; fill-opacity:1; font-family:Arial,Helvetica Neue,Helvetica,sans-serif; font-size:48px; text-anchor:middle;" transform="rotate(0, 2035, 1557.47)" x="2035" y="1557.47">4</text>
</g>
<g clip-path="url(#clip1701)">
<text style="fill:#000000; fill-opacity:1; font-family:Arial,Helvetica Neue,Helvetica,sans-serif; font-size:48px; text-anchor:end;" transform="rotate(0, 165.504, 1520.97)" x="165.504" y="1520.97">-1.0</text>
</g>
<g clip-path="url(#clip1701)">
<text style="fill:#000000; fill-opacity:1; font-family:Arial,Helvetica Neue,Helvetica,sans-serif; font-size:48px; text-anchor:end;" transform="rotate(0, 165.504, 1156.92)" x="165.504" y="1156.92">-0.5</text>
</g>
<g clip-path="url(#clip1701)">
<text style="fill:#000000; fill-opacity:1; font-family:Arial,Helvetica Neue,Helvetica,sans-serif; font-size:48px; text-anchor:end;" transform="rotate(0, 165.504, 792.859)" x="165.504" y="792.859">0.0</text>
</g>
<g clip-path="url(#clip1701)">
<text style="fill:#000000; fill-opacity:1; font-family:Arial,Helvetica Neue,Helvetica,sans-serif; font-size:48px; text-anchor:end;" transform="rotate(0, 165.504, 428.802)" x="165.504" y="428.802">0.5</text>
</g>
<g clip-path="url(#clip1701)">
<text style="fill:#000000; fill-opacity:1; font-family:Arial,Helvetica Neue,Helvetica,sans-serif; font-size:48px; text-anchor:end;" transform="rotate(0, 165.504, 64.7441)" x="165.504" y="64.7441">1.0</text>
</g>
<polyline clip-path="url(#clip1703)" style="stroke:#009af9; stroke-width:4; stroke-opacity:1; fill:none" points="
  297.47,-5028.86 302.196,-4959 306.922,-4889.02 311.649,-4818.94 355.35,-4170.05 399.051,-3531.23 442.752,-2918.94 486.454,-2348.66 512.716,-2031.99 538.979,-1738.09 
  565.242,-1469.15 591.504,-1226.98 613.709,-1044.13 635.914,-881.948 658.118,-740.751 680.323,-620.601 704.444,-513.706 728.564,-430.842 752.685,-371.098 776.805,-333.237 
  821.28,-315.425 865.754,-354.535 913.434,-443.006 961.115,-559.742 1016.36,-702.041 1071.6,-820.405 1120.69,-881.039 1169.79,-881.192 1212.84,-820.987 1255.89,-698.44 
  1279.36,-604.465 1302.83,-491.355 1326.29,-359.514 1349.76,-209.654 1396.98,142.07 1444.19,550.829 1548.6,1575.92 1647.94,2547.29 1673.76,2774.93 1699.58,2986.17 
  1725.41,3178.22 1751.23,3348.59 1794.7,3580.64 1838.18,3737.51 1864.72,3794.3 1891.25,3821.02 1917.79,3817.87 1944.33,3785.53 1969.28,3729.55 1994.22,3650.19 
  2019.17,3549.15 2044.12,3428.47 2124.05,2938.07 2203.99,2361.72 2216.29,2271.79 
  "/>
<polyline clip-path="url(#clip1703)" style="stroke:#e26f46; stroke-width:4; stroke-opacity:1; fill:none" points="
  249.837,-19077.1 259.768,-18688.9 351.6,-15281.1 443.432,-12201 498.619,-10507.6 553.806,-8932.55 600.466,-7693.21 647.126,-6538.47 697.812,-5379.96 748.498,-4321.29 
  795.225,-3433.72 841.953,-2631.01 892.05,-1864.66 942.148,-1195.83 1000.19,-542.881 1058.23,-20.8441 1109.81,333.216 1161.4,583.888 1206.63,718.622 1251.86,773.853 
  1301.17,743.477 1350.49,618.597 1400.1,397.628 1449.71,81.0269 1504.55,-380.332 1559.4,-958.59 1611.59,-1617.32 1663.78,-2381.88 1718.04,-3289.07 1772.3,-4310.67 
  1817.98,-5259.34 1863.66,-6289.08 1919.42,-7656.19 1975.19,-9144.16 2027.61,-10653.1 2080.03,-12268.8 2164.02,-15079.9 2248,-18165 2260.93,-18664.2 
  "/>
<polyline clip-path="url(#clip1703)" style="stroke:#3da44d; stroke-width:4; stroke-opacity:1; fill:none" points="
  1262.6,-72036.2 1264.54,-35630.4 1266.47,-23495.2 1268.41,-17427.5 1270.35,-13786.9 1272.28,-11359.9 1274.22,-9626.29 1276.15,-8326.08 1278.09,-7314.81 1280.02,-6505.79 
  1281.96,-5843.87 1283.9,-5292.27 1285.83,-4825.53 1287.77,-4425.46 1289.7,-4078.74 1291.64,-3775.36 1293.58,-3507.67 1295.51,-3269.73 1297.45,-3056.83 1299.38,-2865.22 
  1301.32,-2691.86 1303.25,-2534.26 1305.19,-2390.36 1307.13,-2258.45 1309.06,-2137.1 1311,-2025.08 1312.93,-1921.36 1314.87,-1825.05 1316.81,-1735.38 1318.74,-1651.69 
  1320.68,-1573.4 1322.61,-1500 1324.55,-1431.05 1326.48,-1366.16 1328.42,-1304.97 1330.36,-1247.18 1332.29,-1192.52 1334.23,-1140.73 1336.16,-1091.6 1338.1,-1044.93 
  1340.04,-1000.53 1341.97,-958.248 1343.91,-917.932 1345.84,-879.448 1347.78,-842.675 1349.72,-807.5 1351.65,-773.822 1353.59,-741.547 1355.52,-710.59 1357.46,-680.871 
  1359.39,-652.318 1361.33,-624.862 1363.27,-598.443 1365.2,-573.002 1367.14,-548.487 1369.07,-524.847 1371.01,-502.036 1372.95,-480.012 1374.88,-458.734 1376.82,-438.166 
  1378.75,-418.272 1380.69,-399.02 1382.62,-380.379 1384.56,-362.321 1386.5,-344.818 1388.43,-327.846 1390.37,-311.38 1392.3,-295.398 1394.24,-279.88 1396.18,-264.805 
  1398.11,-250.155 1400.05,-235.912 1401.98,-222.059 1403.92,-208.58 1405.85,-195.461 1407.79,-182.687 1409.73,-170.245 1411.66,-158.122 1413.6,-146.306 1415.53,-134.785 
  1417.47,-123.548 1419.41,-112.586 1421.34,-101.888 1423.28,-91.4445 1425.21,-81.2468 1427.15,-71.2863 1429.08,-61.5547 1431.02,-52.0444 1432.96,-42.7477 1434.89,-33.6576 
  1436.83,-24.7673 1438.76,-16.0703 1440.7,-7.56028 1442.64,0.768649 1444.57,8.92224 1446.51,16.906 1448.44,24.7251 1450.38,32.3846 1452.31,39.8894 1454.25,47.2441 
  1456.19,54.4532 1458.12,61.5209 1460.06,68.4513 1461.99,75.2485 1463.93,81.9163 1465.87,88.4582 1467.8,94.8778 1469.74,101.179 1471.67,107.364 1473.61,113.436 
  1475.55,119.4 1477.48,125.256 1479.42,131.01 1481.35,136.662 1483.29,142.216 1485.22,147.674 1487.16,153.039 1489.1,158.313 1491.03,163.498 1492.97,168.597 
  1494.9,173.611 1496.84,178.544 1498.78,183.396 1500.71,188.17 1502.65,192.867 1504.58,197.49 1506.52,202.04 1508.45,206.519 1510.39,210.929 1512.33,215.271 
  1514.26,219.546 1516.2,223.757 1518.13,227.904 1520.07,231.99 1522.01,236.015 1523.94,239.981 1525.88,243.888 1527.81,247.74 1529.75,251.535 1531.68,255.277 
  1533.62,258.966 1535.56,262.602 1537.49,266.188 1539.43,269.724 1541.36,273.211 1543.3,276.65 1545.24,280.043 1547.17,283.39 1549.11,286.691 1551.04,289.949 
  1552.98,293.164 1554.91,296.336 1556.85,299.467 1558.79,302.557 1560.72,305.608 1562.66,308.619 1564.59,311.592 1566.53,314.527 1568.47,317.425 1570.4,320.287 
  1572.34,323.114 1574.27,325.906 1576.21,328.663 1578.14,331.387 1580.08,334.077 1582.02,336.736 1583.95,339.362 1585.89,341.957 1587.82,344.522 1589.76,347.056 
  1591.7,349.561 1593.63,352.037 1595.57,354.484 1597.5,356.902 1599.44,359.294 1601.38,361.658 1603.31,363.995 1605.25,366.306 1607.18,368.591 1609.12,370.851 
  1611.05,373.086 1612.99,375.296 1614.93,377.482 1616.86,379.645 1618.8,381.784 1620.73,383.9 1622.67,385.993 1624.61,388.064 1626.54,390.113 1628.48,392.141 
  1630.41,394.147 1632.35,396.133 1634.28,398.098 1636.22,400.042 1638.16,401.967 1640.09,403.872 1642.03,405.758 1643.96,407.624 1645.9,409.472 1647.84,411.302 
  1649.77,413.113 1651.71,414.906 1653.64,416.682 1655.58,418.44 1657.51,420.181 1659.45,421.905 1661.39,423.613 1663.32,425.304 1665.26,426.979 1667.19,428.638 
  1669.13,430.281 1671.07,431.909 1673,433.521 1674.94,435.119 1676.87,436.701 1678.81,438.269 1680.74,439.822 1682.68,441.362 1684.62,442.887 1686.55,444.398 
  1688.49,445.895 1690.42,447.38 1692.36,448.85 1694.3,450.308 1696.23,451.753 1698.17,453.184 1700.1,454.604 1702.04,456.011 1703.97,457.405 1705.91,458.788 
  1707.85,460.158 1709.78,461.517 1711.72,462.864 1713.65,464.199 1715.59,465.523 1717.53,466.836 1719.46,468.138 1721.4,469.429 1723.33,470.709 1725.27,471.978 
  1727.2,473.237 1729.14,474.485 1731.08,475.723 1733.01,476.951 1734.95,478.169 1736.88,479.378 1738.82,480.576 1740.76,481.765 1742.69,482.944 1744.63,484.113 
  1746.56,485.274 1748.5,486.425 1750.44,487.567 1752.37,488.7 1754.31,489.824 1756.24,490.939 1758.18,492.046 1760.11,493.144 1762.05,494.234 1763.99,495.315 
  1765.92,496.388 1767.86,497.453 1769.79,498.509 1771.73,499.558 1773.67,500.599 1775.6,501.632 1777.54,502.657 1779.47,503.675 1781.41,504.685 1783.34,505.687 
  1785.28,506.682 1787.22,507.67 1789.15,508.651 1791.09,509.624 1793.02,510.59 1794.96,511.55 1796.9,512.502 1798.83,513.447 1800.77,514.386 1802.7,515.318 
  1804.64,516.244 1806.57,517.162 1808.51,518.075 1810.45,518.981 1812.38,519.88 1814.32,520.774 1816.25,521.661 1818.19,522.542 1820.13,523.416 1822.06,524.285 
  1824,525.148 1825.93,526.005 1827.87,526.856 1829.8,527.701 1831.74,528.541 1833.68,529.375 1835.61,530.203 1837.55,531.025 1839.48,531.843 1841.42,532.654 
  1843.36,533.461 1845.29,534.262 1847.23,535.057 1849.16,535.848 1851.1,536.633 1853.03,537.413 1854.97,538.188 1856.91,538.958 1858.84,539.723 1860.78,540.484 
  1862.71,541.239 1864.65,541.989 1866.59,542.735 1868.52,543.476 1870.46,544.212 1872.39,544.943 1874.33,545.67 1876.27,546.392 1878.2,547.11 1880.14,547.823 
  1882.07,548.532 1884.01,549.237 1885.94,549.937 1887.88,550.632 1889.82,551.324 1891.75,552.011 1893.69,552.694 1895.62,553.373 1897.56,554.048 1899.5,554.718 
  1901.43,555.385 1903.37,556.048 1905.3,556.706 1907.24,557.361 1909.17,558.012 1911.11,558.658 1913.05,559.301 1914.98,559.941 1916.92,560.576 1918.85,561.208 
  1920.79,561.836 1922.73,562.46 1924.66,563.081 1926.6,563.698 1928.53,564.311 1930.47,564.921 1932.4,565.528 1934.34,566.131 1936.28,566.73 1938.21,567.326 
  1940.15,567.919 1942.08,568.508 1944.02,569.094 1945.96,569.677 1947.89,570.257 1949.83,570.833 1951.76,571.406 1953.7,571.975 1955.63,572.542 1957.57,573.105 
  1959.51,573.665 1961.44,574.223 1963.38,574.777 1965.31,575.328 1967.25,575.876 1969.19,576.421 1971.12,576.963 1973.06,577.502 1974.99,578.038 1976.93,578.571 
  1978.86,579.102 1980.8,579.629 1982.74,580.154 1984.67,580.676 1986.61,581.195 1988.54,581.712 1990.48,582.225 1992.42,582.736 1994.35,583.245 1996.29,583.75 
  1998.22,584.253 2000.16,584.753 2002.1,585.251 2004.03,585.746 2005.97,586.239 2007.9,586.728 2009.84,587.216 2011.77,587.701 2013.71,588.183 2015.65,588.663 
  2017.58,589.141 2019.52,589.616 2021.45,590.088 2023.39,590.559 2025.33,591.026 2027.26,591.492 2029.2,591.955 2031.13,592.416 2033.07,592.874 2035,593.331 
  2036.94,593.785 2038.88,594.236 2040.81,594.686 2042.75,595.133 2044.68,595.578 2046.62,596.021 2048.56,596.461 2050.49,596.9 2052.43,597.336 2054.36,597.77 
  2056.3,598.202 2058.23,598.632 2060.17,599.06 2062.11,599.486 2064.04,599.91 2065.98,600.332 2067.91,600.751 2069.85,601.169 2071.79,601.585 2073.72,601.999 
  2075.66,602.41 2077.59,602.82 2079.53,603.228 2081.46,603.634 2083.4,604.038 2085.34,604.44 2087.27,604.841 2089.21,605.239 2091.14,605.636 2093.08,606.03 
  2095.02,606.423 2096.95,606.814 2098.89,607.203 2100.82,607.591 2102.76,607.977 2104.69,608.36 2106.63,608.743 2108.57,609.123 2110.5,609.502 2112.44,609.879 
  2114.37,610.254 2116.31,610.627 2118.25,610.999 2120.18,611.369 2122.12,611.738 2124.05,612.105 2125.99,612.47 2127.92,612.834 2129.86,613.196 2131.8,613.556 
  2133.73,613.915 2135.67,614.272 2137.6,614.628 2139.54,614.982 2141.48,615.334 2143.41,615.685 2145.35,616.034 2147.28,616.382 2149.22,616.729 2151.16,617.073 
  2153.09,617.417 2155.03,617.759 2156.96,618.099 2158.9,618.438 2160.83,618.775 2162.77,619.111 2164.71,619.446 2166.64,619.779 2168.58,620.111 2170.51,620.441 
  2172.45,620.77 2174.39,621.098 2176.32,621.424 2178.26,621.749 2180.19,622.072 2182.13,622.394 2184.06,622.715 2186,623.034 2187.94,623.352 2189.87,623.669 
  2191.81,623.984 2193.74,624.298 2195.68,624.611 2197.62,624.922 2199.55,625.233 2201.49,625.541 2203.42,625.849 2205.36,626.155 2207.29,626.461 2209.23,626.764 
  2211.17,627.067 2213.1,627.368 2215.04,627.669 2216.97,627.968 2218.91,628.265 2220.85,628.562 2222.78,628.857 2224.72,629.152 2226.65,629.445 2228.59,629.736 
  1258.73,73586.9 1256.79,37181.1 1254.86,25045.9 1252.92,18978.2 1250.99,15337.7 1249.05,12910.6 1247.12,11177 1245.18,9876.8 1243.24,8865.53 1241.31,8056.51 
  1239.37,7394.59 1237.44,6842.99 1235.5,6376.25 1233.56,5976.18 1231.63,5629.46 1229.69,5326.08 1227.76,5058.39 1225.82,4820.44 1223.89,4607.55 1221.95,4415.94 
  1220.01,4242.58 1218.08,4084.97 1216.14,3941.08 1214.21,3809.17 1212.27,3687.82 1210.33,3575.8 1208.4,3472.08 1206.46,3375.77 1204.53,3286.1 1202.59,3202.41 
  1200.66,3124.12 1198.72,3050.72 1196.78,2981.77 1194.85,2916.88 1192.91,2855.69 1190.98,2797.9 1189.04,2743.24 1187.1,2691.45 1185.17,2642.32 1183.23,2595.65 
  1181.3,2551.25 1179.36,2508.97 1177.42,2468.65 1175.49,2430.17 1173.55,2393.39 1171.62,2358.22 1169.68,2324.54 1167.75,2292.27 1165.81,2261.31 1163.87,2231.59 
  1161.94,2203.04 1160,2175.58 1158.07,2149.16 1156.13,2123.72 1154.19,2099.21 1152.26,2075.57 1150.32,2052.75 1148.39,2030.73 1146.45,2009.45 1144.52,1988.88 
  1142.58,1968.99 1140.64,1949.74 1138.71,1931.1 1136.77,1913.04 1134.84,1895.54 1132.9,1878.56 1130.96,1862.1 1129.03,1846.12 1127.09,1830.6 1125.16,1815.52 
  1123.22,1800.87 1121.29,1786.63 1119.35,1772.78 1117.41,1759.3 1115.48,1746.18 1113.54,1733.41 1111.61,1720.96 1109.67,1708.84 1107.73,1697.02 1105.8,1685.5 
  1103.86,1674.27 1101.93,1663.3 1099.99,1652.61 1098.06,1642.16 1096.12,1631.97 1094.18,1622.01 1092.25,1612.27 1090.31,1602.76 1088.38,1593.47 1086.44,1584.38 
  1084.5,1575.49 1082.57,1566.79 1080.63,1558.28 1078.7,1549.95 1076.76,1541.8 1074.83,1533.81 1072.89,1525.99 1070.95,1518.33 1069.02,1510.83 1067.08,1503.47 
  1065.15,1496.27 1063.21,1489.2 1061.27,1482.27 1059.34,1475.47 1057.4,1468.8 1055.47,1462.26 1053.53,1455.84 1051.59,1449.54 1049.66,1443.36 1047.72,1437.28 
  1045.79,1431.32 1043.85,1425.46 1041.92,1419.71 1039.98,1414.06 1038.04,1408.5 1036.11,1403.05 1034.17,1397.68 1032.24,1392.41 1030.3,1387.22 1028.36,1382.12 
  1026.43,1377.11 1024.49,1372.18 1022.56,1367.32 1020.62,1362.55 1018.69,1357.85 1016.75,1353.23 1014.81,1348.68 1012.88,1344.2 1010.94,1339.79 1009.01,1335.45 
  1007.07,1331.17 1005.13,1326.96 1003.2,1322.81 1001.26,1318.73 999.327,1314.7 997.391,1310.74 995.455,1306.83 993.52,1302.98 991.584,1299.18 989.648,1295.44 
  987.712,1291.75 985.776,1288.12 983.84,1284.53 981.904,1281 979.969,1277.51 978.033,1274.07 976.097,1270.68 974.161,1267.33 972.225,1264.03 970.289,1260.77 
  968.354,1257.55 966.418,1254.38 964.482,1251.25 962.546,1248.16 960.61,1245.11 958.674,1242.1 956.738,1239.13 954.803,1236.19 952.867,1233.29 950.931,1230.43 
  948.995,1227.6 947.059,1224.81 945.123,1222.06 943.188,1219.33 941.252,1216.64 939.316,1213.98 937.38,1211.36 935.444,1208.76 933.508,1206.2 931.572,1203.66 
  929.637,1201.16 927.701,1198.68 925.765,1196.24 923.829,1193.82 921.893,1191.43 919.957,1189.06 918.022,1186.72 916.086,1184.41 914.15,1182.13 912.214,1179.87 
  910.278,1177.63 908.342,1175.42 906.407,1173.24 904.471,1171.07 902.535,1168.94 900.599,1166.82 898.663,1164.73 896.727,1162.65 894.791,1160.61 892.856,1158.58 
  890.92,1156.57 888.984,1154.59 887.048,1152.62 885.112,1150.68 883.176,1148.75 881.241,1146.85 879.305,1144.96 877.369,1143.09 875.433,1141.25 873.497,1139.42 
  871.561,1137.61 869.625,1135.81 867.69,1134.04 865.754,1132.28 863.818,1130.54 861.882,1128.81 859.946,1127.11 858.01,1125.41 856.075,1123.74 854.139,1122.08 
  852.203,1120.44 850.267,1118.81 848.331,1117.2 846.395,1115.6 844.459,1114.02 842.524,1112.45 840.588,1110.9 838.652,1109.36 836.716,1107.83 834.78,1106.32 
  832.844,1104.82 830.909,1103.34 828.973,1101.87 827.037,1100.41 825.101,1098.97 823.165,1097.53 821.229,1096.12 819.293,1094.71 817.358,1093.31 815.422,1091.93 
  813.486,1090.56 811.55,1089.2 809.614,1087.86 807.678,1086.52 805.743,1085.2 803.807,1083.88 801.871,1082.58 799.935,1081.29 797.999,1080.01 796.063,1078.74 
  794.127,1077.48 792.192,1076.23 790.256,1075 788.32,1073.77 786.384,1072.55 784.448,1071.34 782.512,1070.14 780.577,1068.95 778.641,1067.78 776.705,1066.61 
  774.769,1065.45 772.833,1064.29 770.897,1063.15 768.961,1062.02 767.026,1060.89 765.09,1059.78 763.154,1058.67 761.218,1057.57 759.282,1056.49 757.346,1055.4 
  755.411,1054.33 753.475,1053.27 751.539,1052.21 749.603,1051.16 747.667,1050.12 745.731,1049.09 743.795,1048.06 741.86,1047.04 739.924,1046.03 737.988,1045.03 
  736.052,1044.04 734.116,1043.05 732.18,1042.07 730.245,1041.09 728.309,1040.13 726.373,1039.17 724.437,1038.22 722.501,1037.27 720.565,1036.33 718.629,1035.4 
  716.694,1034.48 714.758,1033.56 712.822,1032.64 710.886,1031.74 708.95,1030.84 707.014,1029.95 705.079,1029.06 703.143,1028.18 701.207,1027.3 699.271,1026.43 
  697.335,1025.57 695.399,1024.71 693.464,1023.86 691.528,1023.02 689.592,1022.18 687.656,1021.34 685.72,1020.52 683.784,1019.69 681.848,1018.88 679.913,1018.06 
  677.977,1017.26 676.041,1016.46 674.105,1015.66 672.169,1014.87 670.233,1014.09 668.298,1013.31 666.362,1012.53 664.426,1011.76 662.49,1011 660.554,1010.24 
  658.618,1009.48 656.682,1008.73 654.747,1007.98 652.811,1007.24 650.875,1006.51 648.939,1005.78 647.003,1005.05 645.067,1004.33 643.132,1003.61 641.196,1002.9 
  639.26,1002.19 637.324,1001.48 635.388,1000.78 633.452,1000.09 631.516,999.395 629.581,998.708 627.645,998.025 625.709,997.346 623.773,996.671 621.837,996 
  619.901,995.334 617.966,994.671 616.03,994.013 614.094,993.358 612.158,992.707 610.222,992.06 608.286,991.417 606.35,990.778 604.415,990.143 602.479,989.511 
  600.543,988.883 598.607,988.259 596.671,987.638 594.735,987.021 592.8,986.407 590.864,985.797 588.928,985.191 586.992,984.588 585.056,983.988 583.12,983.392 
  581.184,982.8 579.249,982.21 577.313,981.624 575.377,981.042 573.441,980.462 571.505,979.886 569.569,979.313 567.634,978.744 565.698,978.177 563.762,977.614 
  561.826,977.053 559.89,976.496 557.954,975.942 556.018,975.391 554.083,974.843 552.147,974.298 550.211,973.756 548.275,973.217 546.339,972.681 544.403,972.147 
  542.468,971.617 540.532,971.089 538.596,970.565 536.66,970.043 534.724,969.523 532.788,969.007 530.852,968.493 528.917,967.983 526.981,967.474 525.045,966.969 
  523.109,966.466 521.173,965.966 519.237,965.468 517.302,964.973 515.366,964.48 513.43,963.99 511.494,963.503 509.558,963.018 507.622,962.536 505.686,962.056 
  503.751,961.578 501.815,961.103 499.879,960.63 497.943,960.16 496.007,959.692 494.071,959.227 492.136,958.764 490.2,958.303 488.264,957.844 486.328,957.388 
  484.392,956.934 482.456,956.483 480.521,956.033 478.585,955.586 476.649,955.141 474.713,954.698 472.777,954.258 470.841,953.819 468.905,953.383 466.97,952.949 
  465.034,952.516 463.098,952.086 461.162,951.659 459.226,951.233 457.29,950.809 455.355,950.387 453.419,949.967 451.483,949.55 449.547,949.134 447.611,948.72 
  445.675,948.308 443.739,947.899 441.804,947.491 439.868,947.085 437.932,946.681 435.996,946.278 434.06,945.878 432.124,945.48 430.189,945.083 428.253,944.689 
  426.317,944.296 424.381,943.905 422.445,943.515 420.509,943.128 418.573,942.742 416.638,942.358 414.702,941.976 412.766,941.596 410.83,941.217 408.894,940.84 
  406.958,940.465 405.023,940.091 403.087,939.72 401.151,939.349 399.215,938.981 397.279,938.614 395.343,938.249 393.407,937.885 391.472,937.523 389.536,937.163 
  387.6,936.804 385.664,936.447 383.728,936.091 381.792,935.737 379.857,935.385 377.921,935.034 375.985,934.684 374.049,934.337 372.113,933.99 370.177,933.645 
  368.241,933.302 366.306,932.96 364.37,932.62 362.434,932.281 360.498,931.943 358.562,931.607 356.626,931.273 354.691,930.94 352.755,930.608 350.819,930.278 
  348.883,929.949 346.947,929.621 345.011,929.295 343.075,928.97 341.14,928.647 339.204,928.325 337.268,928.004 335.332,927.685 333.396,927.367 331.46,927.05 
  329.525,926.735 327.589,926.421 325.653,926.108 323.717,925.796 321.781,925.486 319.845,925.177 317.909,924.87 315.974,924.563 314.038,924.258 312.102,923.954 
  310.166,923.652 308.23,923.35 306.294,923.05 304.359,922.751 302.423,922.453 300.487,922.157 298.551,921.861 296.615,921.567 294.679,921.274 292.744,920.982 
  
  "/>
<polyline clip-path="url(#clip1703)" style="stroke:#c271d2; stroke-width:4; stroke-opacity:1; fill:none" points="
  -212986,775.359 215497,775.359 
  "/>
<polygon clip-path="url(#clip1701)" points="
261.504,433.164 1031.22,433.164 1031.22,130.764 261.504,130.764 
  " fill="#ffffff" fill-rule="evenodd" fill-opacity="1"/>
<polyline clip-path="url(#clip1701)" style="stroke:#000000; stroke-width:4; stroke-opacity:1; fill:none" points="
  261.504,433.164 1031.22,433.164 1031.22,130.764 261.504,130.764 261.504,433.164 
  "/>
<polyline clip-path="url(#clip1701)" style="stroke:#009af9; stroke-width:4; stroke-opacity:1; fill:none" points="
  285.504,191.244 429.504,191.244 
  "/>
<g clip-path="url(#clip1701)">
<text style="fill:#000000; fill-opacity:1; font-family:Arial,Helvetica Neue,Helvetica,sans-serif; font-size:48px; text-anchor:start;" transform="rotate(0, 453.504, 208.744)" x="453.504" y="208.744">Transcendental Function</text>
</g>
<polyline clip-path="url(#clip1701)" style="stroke:#e26f46; stroke-width:4; stroke-opacity:1; fill:none" points="
  285.504,251.724 429.504,251.724 
  "/>
<g clip-path="url(#clip1701)">
<text style="fill:#000000; fill-opacity:1; font-family:Arial,Helvetica Neue,Helvetica,sans-serif; font-size:48px; text-anchor:start;" transform="rotate(0, 453.504, 269.224)" x="453.504" y="269.224">Multiplicity 2</text>
</g>
<polyline clip-path="url(#clip1701)" style="stroke:#3da44d; stroke-width:4; stroke-opacity:1; fill:none" points="
  285.504,312.204 429.504,312.204 
  "/>
<g clip-path="url(#clip1701)">
<text style="fill:#000000; fill-opacity:1; font-family:Arial,Helvetica Neue,Helvetica,sans-serif; font-size:48px; text-anchor:start;" transform="rotate(0, 453.504, 329.704)" x="453.504" y="329.704">Divergence</text>
</g>
<polyline clip-path="url(#clip1701)" style="stroke:#c271d2; stroke-width:4; stroke-opacity:1; fill:none" points="
  285.504,372.684 429.504,372.684 
  "/>
<g clip-path="url(#clip1701)">
<text style="fill:#000000; fill-opacity:1; font-family:Arial,Helvetica Neue,Helvetica,sans-serif; font-size:48px; text-anchor:start;" transform="rotate(0, 453.504, 390.184)" x="453.504" y="390.184">Zero</text>
</g>
</svg>
