<?xml version="1.0" encoding="utf-8"?>
<svg xmlns="http://www.w3.org/2000/svg" xmlns:xlink="http://www.w3.org/1999/xlink" width="600" height="400" viewBox="0 0 2400 1600">
<defs>
  <clipPath id="clip7700">
    <rect x="0" y="0" width="2000" height="2000"/>
  </clipPath>
</defs>
<defs>
  <clipPath id="clip7701">
    <rect x="0" y="0" width="2400" height="1600"/>
  </clipPath>
</defs>
<polygon clip-path="url(#clip7701)" points="
0,1600 2400,1600 2400,0 0,0 
  " fill="#ffffff" fill-rule="evenodd" fill-opacity="1"/>
<defs>
  <clipPath id="clip7702">
    <rect x="480" y="0" width="1681" height="1600"/>
  </clipPath>
</defs>
<polygon clip-path="url(#clip7701)" points="
355.358,1440.48 2321.26,1440.48 2321.26,125.984 355.358,125.984 
  " fill="#ffffff" fill-rule="evenodd" fill-opacity="1"/>
<defs>
  <clipPath id="clip7703">
    <rect x="355" y="125" width="1967" height="1315"/>
  </clipPath>
</defs>
<polyline clip-path="url(#clip7703)" style="stroke:#000000; stroke-width:2; stroke-opacity:0.1; fill:none" points="
  617.066,1440.48 617.066,125.984 
  "/>
<polyline clip-path="url(#clip7703)" style="stroke:#000000; stroke-width:2; stroke-opacity:0.1; fill:none" points="
  1029.2,1440.48 1029.2,125.984 
  "/>
<polyline clip-path="url(#clip7703)" style="stroke:#000000; stroke-width:2; stroke-opacity:0.1; fill:none" points="
  1441.34,1440.48 1441.34,125.984 
  "/>
<polyline clip-path="url(#clip7703)" style="stroke:#000000; stroke-width:2; stroke-opacity:0.1; fill:none" points="
  1853.48,1440.48 1853.48,125.984 
  "/>
<polyline clip-path="url(#clip7703)" style="stroke:#000000; stroke-width:2; stroke-opacity:0.1; fill:none" points="
  2265.62,1440.48 2265.62,125.984 
  "/>
<polyline clip-path="url(#clip7703)" style="stroke:#000000; stroke-width:2; stroke-opacity:0.1; fill:none" points="
  355.358,1403.28 2321.26,1403.28 
  "/>
<polyline clip-path="url(#clip7703)" style="stroke:#000000; stroke-width:2; stroke-opacity:0.1; fill:none" points="
  355.358,1093.26 2321.26,1093.26 
  "/>
<polyline clip-path="url(#clip7703)" style="stroke:#000000; stroke-width:2; stroke-opacity:0.1; fill:none" points="
  355.358,783.233 2321.26,783.233 
  "/>
<polyline clip-path="url(#clip7703)" style="stroke:#000000; stroke-width:2; stroke-opacity:0.1; fill:none" points="
  355.358,473.21 2321.26,473.21 
  "/>
<polyline clip-path="url(#clip7703)" style="stroke:#000000; stroke-width:2; stroke-opacity:0.1; fill:none" points="
  355.358,163.187 2321.26,163.187 
  "/>
<polyline clip-path="url(#clip7701)" style="stroke:#000000; stroke-width:4; stroke-opacity:1; fill:none" points="
  355.358,1440.48 2321.26,1440.48 
  "/>
<polyline clip-path="url(#clip7701)" style="stroke:#000000; stroke-width:4; stroke-opacity:1; fill:none" points="
  355.358,1440.48 355.358,125.984 
  "/>
<polyline clip-path="url(#clip7701)" style="stroke:#000000; stroke-width:4; stroke-opacity:1; fill:none" points="
  617.066,1440.48 617.066,1420.77 
  "/>
<polyline clip-path="url(#clip7701)" style="stroke:#000000; stroke-width:4; stroke-opacity:1; fill:none" points="
  1029.2,1440.48 1029.2,1420.77 
  "/>
<polyline clip-path="url(#clip7701)" style="stroke:#000000; stroke-width:4; stroke-opacity:1; fill:none" points="
  1441.34,1440.48 1441.34,1420.77 
  "/>
<polyline clip-path="url(#clip7701)" style="stroke:#000000; stroke-width:4; stroke-opacity:1; fill:none" points="
  1853.48,1440.48 1853.48,1420.77 
  "/>
<polyline clip-path="url(#clip7701)" style="stroke:#000000; stroke-width:4; stroke-opacity:1; fill:none" points="
  2265.62,1440.48 2265.62,1420.77 
  "/>
<polyline clip-path="url(#clip7701)" style="stroke:#000000; stroke-width:4; stroke-opacity:1; fill:none" points="
  355.358,1403.28 384.847,1403.28 
  "/>
<polyline clip-path="url(#clip7701)" style="stroke:#000000; stroke-width:4; stroke-opacity:1; fill:none" points="
  355.358,1093.26 384.847,1093.26 
  "/>
<polyline clip-path="url(#clip7701)" style="stroke:#000000; stroke-width:4; stroke-opacity:1; fill:none" points="
  355.358,783.233 384.847,783.233 
  "/>
<polyline clip-path="url(#clip7701)" style="stroke:#000000; stroke-width:4; stroke-opacity:1; fill:none" points="
  355.358,473.21 384.847,473.21 
  "/>
<polyline clip-path="url(#clip7701)" style="stroke:#000000; stroke-width:4; stroke-opacity:1; fill:none" points="
  355.358,163.187 384.847,163.187 
  "/>
<g clip-path="url(#clip7701)">
<text style="fill:#000000; fill-opacity:1; font-family:Arial,Helvetica Neue,Helvetica,sans-serif; font-size:48px; text-anchor:middle;" transform="rotate(0, 617.066, 1494.48)" x="617.066" y="1494.48">2</text>
</g>
<g clip-path="url(#clip7701)">
<text style="fill:#000000; fill-opacity:1; font-family:Arial,Helvetica Neue,Helvetica,sans-serif; font-size:48px; text-anchor:middle;" transform="rotate(0, 1029.2, 1494.48)" x="1029.2" y="1494.48">4</text>
</g>
<g clip-path="url(#clip7701)">
<text style="fill:#000000; fill-opacity:1; font-family:Arial,Helvetica Neue,Helvetica,sans-serif; font-size:48px; text-anchor:middle;" transform="rotate(0, 1441.34, 1494.48)" x="1441.34" y="1494.48">6</text>
</g>
<g clip-path="url(#clip7701)">
<text style="fill:#000000; fill-opacity:1; font-family:Arial,Helvetica Neue,Helvetica,sans-serif; font-size:48px; text-anchor:middle;" transform="rotate(0, 1853.48, 1494.48)" x="1853.48" y="1494.48">8</text>
</g>
<g clip-path="url(#clip7701)">
<text style="fill:#000000; fill-opacity:1; font-family:Arial,Helvetica Neue,Helvetica,sans-serif; font-size:48px; text-anchor:middle;" transform="rotate(0, 2265.62, 1494.48)" x="2265.62" y="1494.48">10</text>
</g>
<g clip-path="url(#clip7701)">
<text style="fill:#000000; fill-opacity:1; font-family:Arial,Helvetica Neue,Helvetica,sans-serif; font-size:48px; text-anchor:start;" transform="rotate(0, 168.016, 1427.01)" x="168.016" y="1427.01">10</text>
</g>
<g clip-path="url(#clip7701)">
<text style="fill:#000000; fill-opacity:1; font-family:Arial,Helvetica Neue,Helvetica,sans-serif; font-size:38px; text-anchor:start;" transform="rotate(0, 221.541, 1399.6)" x="221.541" y="1399.6">-</text>
</g>
<g clip-path="url(#clip7701)">
<text style="fill:#000000; fill-opacity:1; font-family:Arial,Helvetica Neue,Helvetica,sans-serif; font-size:38px; text-anchor:start;" transform="rotate(0, 244.38, 1399.6)" x="244.38" y="1399.6">10.0 </text>
</g>
<g clip-path="url(#clip7701)">
<text style="fill:#000000; fill-opacity:1; font-family:Arial,Helvetica Neue,Helvetica,sans-serif; font-size:48px; text-anchor:start;" transform="rotate(0, 189.761, 1116.98)" x="189.761" y="1116.98">10</text>
</g>
<g clip-path="url(#clip7701)">
<text style="fill:#000000; fill-opacity:1; font-family:Arial,Helvetica Neue,Helvetica,sans-serif; font-size:38px; text-anchor:start;" transform="rotate(0, 243.285, 1089.57)" x="243.285" y="1089.57">-</text>
</g>
<g clip-path="url(#clip7701)">
<text style="fill:#000000; fill-opacity:1; font-family:Arial,Helvetica Neue,Helvetica,sans-serif; font-size:38px; text-anchor:start;" transform="rotate(0, 266.125, 1089.57)" x="266.125" y="1089.57">7.5 </text>
</g>
<g clip-path="url(#clip7701)">
<text style="fill:#000000; fill-opacity:1; font-family:Arial,Helvetica Neue,Helvetica,sans-serif; font-size:48px; text-anchor:start;" transform="rotate(0, 189.761, 806.961)" x="189.761" y="806.961">10</text>
</g>
<g clip-path="url(#clip7701)">
<text style="fill:#000000; fill-opacity:1; font-family:Arial,Helvetica Neue,Helvetica,sans-serif; font-size:38px; text-anchor:start;" transform="rotate(0, 243.285, 779.551)" x="243.285" y="779.551">-</text>
</g>
<g clip-path="url(#clip7701)">
<text style="fill:#000000; fill-opacity:1; font-family:Arial,Helvetica Neue,Helvetica,sans-serif; font-size:38px; text-anchor:start;" transform="rotate(0, 266.125, 779.551)" x="266.125" y="779.551">5.0 </text>
</g>
<g clip-path="url(#clip7701)">
<text style="fill:#000000; fill-opacity:1; font-family:Arial,Helvetica Neue,Helvetica,sans-serif; font-size:48px; text-anchor:start;" transform="rotate(0, 189.761, 496.938)" x="189.761" y="496.938">10</text>
</g>
<g clip-path="url(#clip7701)">
<text style="fill:#000000; fill-opacity:1; font-family:Arial,Helvetica Neue,Helvetica,sans-serif; font-size:38px; text-anchor:start;" transform="rotate(0, 243.285, 469.527)" x="243.285" y="469.527">-</text>
</g>
<g clip-path="url(#clip7701)">
<text style="fill:#000000; fill-opacity:1; font-family:Arial,Helvetica Neue,Helvetica,sans-serif; font-size:38px; text-anchor:start;" transform="rotate(0, 266.125, 469.527)" x="266.125" y="469.527">2.5 </text>
</g>
<g clip-path="url(#clip7701)">
<text style="fill:#000000; fill-opacity:1; font-family:Arial,Helvetica Neue,Helvetica,sans-serif; font-size:48px; text-anchor:start;" transform="rotate(0, 212.6, 186.915)" x="212.6" y="186.915">10</text>
</g>
<g clip-path="url(#clip7701)">
<text style="fill:#000000; fill-opacity:1; font-family:Arial,Helvetica Neue,Helvetica,sans-serif; font-size:38px; text-anchor:start;" transform="rotate(0, 266.125, 159.504)" x="266.125" y="159.504">0.0 </text>
</g>
<g clip-path="url(#clip7701)">
<text style="fill:#000000; fill-opacity:1; font-family:Arial,Helvetica Neue,Helvetica,sans-serif; font-size:84px; text-anchor:middle;" transform="rotate(0, 1338.31, 73.2)" x="1338.31" y="73.2">Comparison of Root Finding Methods</text>
</g>
<g clip-path="url(#clip7701)">
<text style="fill:#000000; fill-opacity:1; font-family:Arial,Helvetica Neue,Helvetica,sans-serif; font-size:66px; text-anchor:middle;" transform="rotate(0, 1338.31, 1590.4)" x="1338.31" y="1590.4">Iterations</text>
</g>
<g clip-path="url(#clip7701)">
<text style="fill:#000000; fill-opacity:1; font-family:Arial,Helvetica Neue,Helvetica,sans-serif; font-size:66px; text-anchor:middle;" transform="rotate(-90, 57.6, 783.233)" x="57.6" y="783.233">Difference from Final</text>
</g>
<polyline clip-path="url(#clip7703)" style="stroke:#009af9; stroke-width:4; stroke-opacity:1; fill:none" points="
  410.997,163.187 617.066,200.518 823.135,237.848 1029.2,275.179 1235.27,312.509 1441.34,349.84 1647.41,387.17 1853.48,424.501 2059.55,461.831 2265.62,499.162 
  
  "/>
<polyline clip-path="url(#clip7703)" style="stroke:#e26f46; stroke-width:4; stroke-opacity:1; fill:none" points="
  410.997,163.187 617.066,296.888 823.135,529.796 1029.2,1003.06 1235.27,1403.28 1441.34,1403.28 1647.41,1403.28 1853.48,1403.28 2059.55,1403.28 2265.62,1403.28 
  
  "/>
<polyline clip-path="url(#clip7703)" style="stroke:#3da44d; stroke-width:4; stroke-opacity:1; fill:none" points="
  410.997,163.187 617.066,170.516 823.135,386.458 1029.2,557.005 1235.27,917.586 1441.34,1384.79 1647.41,1403.28 
  "/>
<polyline clip-path="url(#clip7703)" style="stroke:#c271d2; stroke-width:4; stroke-opacity:1; fill:none" points="
  410.997,163.187 617.066,225.313 823.135,346.562 1029.2,522.906 1235.27,711.102 1441.34,899.803 1647.41,1088.37 1853.48,1272.34 2059.55,1389.03 2265.62,1403.28 
  
  "/>
<polygon clip-path="url(#clip7701)" points="
427.358,1296.48 1051.27,1296.48 1051.27,994.083 427.358,994.083 
  " fill="#ffffff" fill-rule="evenodd" fill-opacity="1"/>
<polyline clip-path="url(#clip7701)" style="stroke:#000000; stroke-width:4; stroke-opacity:1; fill:none" points="
  427.358,1296.48 1051.27,1296.48 1051.27,994.083 427.358,994.083 427.358,1296.48 
  "/>
<polyline clip-path="url(#clip7701)" style="stroke:#009af9; stroke-width:4; stroke-opacity:1; fill:none" points="
  451.358,1054.56 595.358,1054.56 
  "/>
<g clip-path="url(#clip7701)">
<text style="fill:#000000; fill-opacity:1; font-family:Arial,Helvetica Neue,Helvetica,sans-serif; font-size:48px; text-anchor:start;" transform="rotate(0, 619.358, 1072.06)" x="619.358" y="1072.06">Midpoint Method</text>
</g>
<polyline clip-path="url(#clip7701)" style="stroke:#e26f46; stroke-width:4; stroke-opacity:1; fill:none" points="
  451.358,1115.04 595.358,1115.04 
  "/>
<g clip-path="url(#clip7701)">
<text style="fill:#000000; fill-opacity:1; font-family:Arial,Helvetica Neue,Helvetica,sans-serif; font-size:48px; text-anchor:start;" transform="rotate(0, 619.358, 1132.54)" x="619.358" y="1132.54">Newton-Raphson</text>
</g>
<polyline clip-path="url(#clip7701)" style="stroke:#3da44d; stroke-width:4; stroke-opacity:1; fill:none" points="
  451.358,1175.52 595.358,1175.52 
  "/>
<g clip-path="url(#clip7701)">
<text style="fill:#000000; fill-opacity:1; font-family:Arial,Helvetica Neue,Helvetica,sans-serif; font-size:48px; text-anchor:start;" transform="rotate(0, 619.358, 1193.02)" x="619.358" y="1193.02">Secant</text>
</g>
<polyline clip-path="url(#clip7701)" style="stroke:#c271d2; stroke-width:4; stroke-opacity:1; fill:none" points="
  451.358,1236 595.358,1236 
  "/>
<g clip-path="url(#clip7701)">
<text style="fill:#000000; fill-opacity:1; font-family:Arial,Helvetica Neue,Helvetica,sans-serif; font-size:48px; text-anchor:start;" transform="rotate(0, 619.358, 1253.5)" x="619.358" y="1253.5">Regula Falsi</text>
</g>
</svg>
