<?xml version="1.0" encoding="utf-8"?>
<svg xmlns="http://www.w3.org/2000/svg" xmlns:xlink="http://www.w3.org/1999/xlink" width="600" height="400" viewBox="0 0 2400 1600">
<defs>
  <clipPath id="clip9200">
    <rect x="0" y="0" width="2000" height="2000"/>
  </clipPath>
</defs>
<defs>
  <clipPath id="clip9201">
    <rect x="0" y="0" width="2400" height="1600"/>
  </clipPath>
</defs>
<polygon clip-path="url(#clip9201)" points="
0,1600 2400,1600 2400,0 0,0 
  " fill="#ffffff" fill-rule="evenodd" fill-opacity="1"/>
<defs>
  <clipPath id="clip9202">
    <rect x="480" y="0" width="1681" height="1600"/>
  </clipPath>
</defs>
<polygon clip-path="url(#clip9201)" points="
212.353,1440.48 2321.26,1440.48 2321.26,125.984 212.353,125.984 
  " fill="#ffffff" fill-rule="evenodd" fill-opacity="1"/>
<defs>
  <clipPath id="clip9203">
    <rect x="212" y="125" width="2110" height="1315"/>
  </clipPath>
</defs>
<polyline clip-path="url(#clip9203)" style="stroke:#000000; stroke-width:2; stroke-opacity:0.1; fill:none" points="
  316.873,1440.48 316.873,125.984 
  "/>
<polyline clip-path="url(#clip9203)" style="stroke:#000000; stroke-width:2; stroke-opacity:0.1; fill:none" points="
  633.518,1440.48 633.518,125.984 
  "/>
<polyline clip-path="url(#clip9203)" style="stroke:#000000; stroke-width:2; stroke-opacity:0.1; fill:none" points="
  950.162,1440.48 950.162,125.984 
  "/>
<polyline clip-path="url(#clip9203)" style="stroke:#000000; stroke-width:2; stroke-opacity:0.1; fill:none" points="
  1266.81,1440.48 1266.81,125.984 
  "/>
<polyline clip-path="url(#clip9203)" style="stroke:#000000; stroke-width:2; stroke-opacity:0.1; fill:none" points="
  1583.45,1440.48 1583.45,125.984 
  "/>
<polyline clip-path="url(#clip9203)" style="stroke:#000000; stroke-width:2; stroke-opacity:0.1; fill:none" points="
  1900.09,1440.48 1900.09,125.984 
  "/>
<polyline clip-path="url(#clip9203)" style="stroke:#000000; stroke-width:2; stroke-opacity:0.1; fill:none" points="
  2216.74,1440.48 2216.74,125.984 
  "/>
<polyline clip-path="url(#clip9203)" style="stroke:#000000; stroke-width:2; stroke-opacity:0.1; fill:none" points="
  212.353,1377.23 2321.26,1377.23 
  "/>
<polyline clip-path="url(#clip9203)" style="stroke:#000000; stroke-width:2; stroke-opacity:0.1; fill:none" points="
  212.353,1179.23 2321.26,1179.23 
  "/>
<polyline clip-path="url(#clip9203)" style="stroke:#000000; stroke-width:2; stroke-opacity:0.1; fill:none" points="
  212.353,981.233 2321.26,981.233 
  "/>
<polyline clip-path="url(#clip9203)" style="stroke:#000000; stroke-width:2; stroke-opacity:0.1; fill:none" points="
  212.353,783.233 2321.26,783.233 
  "/>
<polyline clip-path="url(#clip9203)" style="stroke:#000000; stroke-width:2; stroke-opacity:0.1; fill:none" points="
  212.353,585.234 2321.26,585.234 
  "/>
<polyline clip-path="url(#clip9203)" style="stroke:#000000; stroke-width:2; stroke-opacity:0.1; fill:none" points="
  212.353,387.234 2321.26,387.234 
  "/>
<polyline clip-path="url(#clip9203)" style="stroke:#000000; stroke-width:2; stroke-opacity:0.1; fill:none" points="
  212.353,189.235 2321.26,189.235 
  "/>
<polyline clip-path="url(#clip9201)" style="stroke:#000000; stroke-width:4; stroke-opacity:1; fill:none" points="
  212.353,1440.48 2321.26,1440.48 
  "/>
<polyline clip-path="url(#clip9201)" style="stroke:#000000; stroke-width:4; stroke-opacity:1; fill:none" points="
  212.353,1440.48 212.353,125.984 
  "/>
<polyline clip-path="url(#clip9201)" style="stroke:#000000; stroke-width:4; stroke-opacity:1; fill:none" points="
  316.873,1440.48 316.873,1420.77 
  "/>
<polyline clip-path="url(#clip9201)" style="stroke:#000000; stroke-width:4; stroke-opacity:1; fill:none" points="
  633.518,1440.48 633.518,1420.77 
  "/>
<polyline clip-path="url(#clip9201)" style="stroke:#000000; stroke-width:4; stroke-opacity:1; fill:none" points="
  950.162,1440.48 950.162,1420.77 
  "/>
<polyline clip-path="url(#clip9201)" style="stroke:#000000; stroke-width:4; stroke-opacity:1; fill:none" points="
  1266.81,1440.48 1266.81,1420.77 
  "/>
<polyline clip-path="url(#clip9201)" style="stroke:#000000; stroke-width:4; stroke-opacity:1; fill:none" points="
  1583.45,1440.48 1583.45,1420.77 
  "/>
<polyline clip-path="url(#clip9201)" style="stroke:#000000; stroke-width:4; stroke-opacity:1; fill:none" points="
  1900.09,1440.48 1900.09,1420.77 
  "/>
<polyline clip-path="url(#clip9201)" style="stroke:#000000; stroke-width:4; stroke-opacity:1; fill:none" points="
  2216.74,1440.48 2216.74,1420.77 
  "/>
<polyline clip-path="url(#clip9201)" style="stroke:#000000; stroke-width:4; stroke-opacity:1; fill:none" points="
  212.353,1377.23 243.986,1377.23 
  "/>
<polyline clip-path="url(#clip9201)" style="stroke:#000000; stroke-width:4; stroke-opacity:1; fill:none" points="
  212.353,1179.23 243.986,1179.23 
  "/>
<polyline clip-path="url(#clip9201)" style="stroke:#000000; stroke-width:4; stroke-opacity:1; fill:none" points="
  212.353,981.233 243.986,981.233 
  "/>
<polyline clip-path="url(#clip9201)" style="stroke:#000000; stroke-width:4; stroke-opacity:1; fill:none" points="
  212.353,783.233 243.986,783.233 
  "/>
<polyline clip-path="url(#clip9201)" style="stroke:#000000; stroke-width:4; stroke-opacity:1; fill:none" points="
  212.353,585.234 243.986,585.234 
  "/>
<polyline clip-path="url(#clip9201)" style="stroke:#000000; stroke-width:4; stroke-opacity:1; fill:none" points="
  212.353,387.234 243.986,387.234 
  "/>
<polyline clip-path="url(#clip9201)" style="stroke:#000000; stroke-width:4; stroke-opacity:1; fill:none" points="
  212.353,189.235 243.986,189.235 
  "/>
<g clip-path="url(#clip9201)">
<text style="fill:#000000; fill-opacity:1; font-family:Arial,Helvetica Neue,Helvetica,sans-serif; font-size:48px; text-anchor:middle;" transform="rotate(0, 316.873, 1494.48)" x="316.873" y="1494.48">-3</text>
</g>
<g clip-path="url(#clip9201)">
<text style="fill:#000000; fill-opacity:1; font-family:Arial,Helvetica Neue,Helvetica,sans-serif; font-size:48px; text-anchor:middle;" transform="rotate(0, 633.518, 1494.48)" x="633.518" y="1494.48">-2</text>
</g>
<g clip-path="url(#clip9201)">
<text style="fill:#000000; fill-opacity:1; font-family:Arial,Helvetica Neue,Helvetica,sans-serif; font-size:48px; text-anchor:middle;" transform="rotate(0, 950.162, 1494.48)" x="950.162" y="1494.48">-1</text>
</g>
<g clip-path="url(#clip9201)">
<text style="fill:#000000; fill-opacity:1; font-family:Arial,Helvetica Neue,Helvetica,sans-serif; font-size:48px; text-anchor:middle;" transform="rotate(0, 1266.81, 1494.48)" x="1266.81" y="1494.48">0</text>
</g>
<g clip-path="url(#clip9201)">
<text style="fill:#000000; fill-opacity:1; font-family:Arial,Helvetica Neue,Helvetica,sans-serif; font-size:48px; text-anchor:middle;" transform="rotate(0, 1583.45, 1494.48)" x="1583.45" y="1494.48">1</text>
</g>
<g clip-path="url(#clip9201)">
<text style="fill:#000000; fill-opacity:1; font-family:Arial,Helvetica Neue,Helvetica,sans-serif; font-size:48px; text-anchor:middle;" transform="rotate(0, 1900.09, 1494.48)" x="1900.09" y="1494.48">2</text>
</g>
<g clip-path="url(#clip9201)">
<text style="fill:#000000; fill-opacity:1; font-family:Arial,Helvetica Neue,Helvetica,sans-serif; font-size:48px; text-anchor:middle;" transform="rotate(0, 2216.74, 1494.48)" x="2216.74" y="1494.48">3</text>
</g>
<g clip-path="url(#clip9201)">
<text style="fill:#000000; fill-opacity:1; font-family:Arial,Helvetica Neue,Helvetica,sans-serif; font-size:48px; text-anchor:end;" transform="rotate(0, 188.353, 1394.73)" x="188.353" y="1394.73">-3</text>
</g>
<g clip-path="url(#clip9201)">
<text style="fill:#000000; fill-opacity:1; font-family:Arial,Helvetica Neue,Helvetica,sans-serif; font-size:48px; text-anchor:end;" transform="rotate(0, 188.353, 1196.73)" x="188.353" y="1196.73">-2</text>
</g>
<g clip-path="url(#clip9201)">
<text style="fill:#000000; fill-opacity:1; font-family:Arial,Helvetica Neue,Helvetica,sans-serif; font-size:48px; text-anchor:end;" transform="rotate(0, 188.353, 998.733)" x="188.353" y="998.733">-1</text>
</g>
<g clip-path="url(#clip9201)">
<text style="fill:#000000; fill-opacity:1; font-family:Arial,Helvetica Neue,Helvetica,sans-serif; font-size:48px; text-anchor:end;" transform="rotate(0, 188.353, 800.733)" x="188.353" y="800.733">0</text>
</g>
<g clip-path="url(#clip9201)">
<text style="fill:#000000; fill-opacity:1; font-family:Arial,Helvetica Neue,Helvetica,sans-serif; font-size:48px; text-anchor:end;" transform="rotate(0, 188.353, 602.734)" x="188.353" y="602.734">1</text>
</g>
<g clip-path="url(#clip9201)">
<text style="fill:#000000; fill-opacity:1; font-family:Arial,Helvetica Neue,Helvetica,sans-serif; font-size:48px; text-anchor:end;" transform="rotate(0, 188.353, 404.734)" x="188.353" y="404.734">2</text>
</g>
<g clip-path="url(#clip9201)">
<text style="fill:#000000; fill-opacity:1; font-family:Arial,Helvetica Neue,Helvetica,sans-serif; font-size:48px; text-anchor:end;" transform="rotate(0, 188.353, 206.735)" x="188.353" y="206.735">3</text>
</g>
<g clip-path="url(#clip9201)">
<text style="fill:#000000; fill-opacity:1; font-family:Arial,Helvetica Neue,Helvetica,sans-serif; font-size:84px; text-anchor:middle;" transform="rotate(0, 1266.81, 73.2)" x="1266.81" y="73.2">Phase</text>
</g>
<g clip-path="url(#clip9201)">
<text style="fill:#000000; fill-opacity:1; font-family:Arial,Helvetica Neue,Helvetica,sans-serif; font-size:66px; text-anchor:middle;" transform="rotate(0, 1266.81, 1590.4)" x="1266.81" y="1590.4">k</text>
</g>
<g clip-path="url(#clip9201)">
<text style="fill:#000000; fill-opacity:1; font-family:Arial,Helvetica Neue,Helvetica,sans-serif; font-size:66px; text-anchor:middle;" transform="rotate(-90, 57.6, 783.233)" x="57.6" y="783.233">angle</text>
</g>
<polyline clip-path="url(#clip9203)" style="stroke:#aa8e38; stroke-width:20; stroke-opacity:1; fill:none" points="
  272.039,783.233 278.395,781.246 284.751,779.259 291.108,777.271 297.464,775.284 303.82,773.297 310.177,771.309 316.533,769.322 322.89,767.335 329.246,765.347 
  335.602,763.36 341.959,761.373 348.315,759.385 354.671,757.398 361.028,755.411 367.384,753.424 373.74,751.436 380.097,749.449 386.453,747.462 392.809,745.474 
  399.166,743.487 405.522,741.5 411.878,739.512 418.235,737.525 424.591,735.538 430.947,733.55 437.304,731.563 443.66,729.576 450.016,727.588 456.373,725.601 
  462.729,723.614 469.085,721.626 475.442,719.639 481.798,717.652 488.154,715.664 494.511,713.677 500.867,711.69 507.223,709.702 513.58,707.715 519.936,705.728 
  526.292,703.74 532.649,701.753 539.005,699.766 545.361,697.778 551.718,695.791 558.074,693.804 564.431,691.816 570.787,689.829 577.143,687.842 583.5,685.854 
  589.856,683.867 596.212,681.88 602.569,679.892 608.925,677.905 615.281,675.918 621.638,673.93 627.994,671.943 634.35,669.956 640.707,667.968 647.063,665.981 
  653.419,663.994 659.776,662.006 666.132,660.019 672.488,658.032 678.845,656.044 685.201,654.057 691.557,652.07 697.914,650.082 704.27,648.095 710.626,646.108 
  716.983,644.12 723.339,642.133 729.695,640.146 736.052,638.158 742.408,636.171 748.764,634.184 755.121,632.196 761.477,630.209 767.833,628.222 774.19,626.235 
  780.546,624.247 786.902,622.26 793.259,620.273 799.615,618.285 805.972,616.298 812.328,614.311 818.684,612.323 825.041,610.336 831.397,608.349 837.753,606.361 
  844.11,604.374 850.466,602.387 856.822,600.399 863.179,598.412 869.535,596.425 875.891,594.437 882.248,592.45 888.604,590.463 894.96,588.475 901.317,586.488 
  907.673,584.501 914.029,582.513 920.386,580.526 926.742,578.539 933.098,576.551 939.455,574.564 945.811,572.577 952.167,570.589 958.524,568.602 964.88,566.615 
  971.236,564.627 977.593,562.64 983.949,560.653 990.305,558.665 996.662,556.678 1003.02,554.691 1009.37,552.703 1015.73,550.716 1022.09,548.729 1028.44,546.741 
  1034.8,544.754 1041.16,542.767 1047.51,540.779 1053.87,538.792 1060.23,536.805 1066.58,534.817 1072.94,532.83 1079.29,530.843 1085.65,528.855 1092.01,526.868 
  1098.36,524.881 1104.72,522.893 1111.08,520.906 1117.43,518.919 1123.79,516.931 1130.14,514.944 1136.5,512.957 1142.86,510.969 1149.21,508.982 1155.57,506.995 
  1161.93,505.007 1168.28,503.02 1174.64,501.033 1181,499.045 1187.35,497.058 1193.71,495.071 1200.06,493.084 1206.42,491.096 1212.78,489.109 1219.13,487.122 
  1225.49,485.134 1231.85,483.147 1238.2,481.16 1244.56,479.172 1250.92,477.185 1257.27,475.198 1263.63,473.21 1269.98,1093.26 1276.34,1091.27 1282.7,1089.28 
  1289.05,1087.29 1295.41,1085.31 1301.77,1083.32 1308.12,1081.33 1314.48,1079.35 1320.84,1077.36 1327.19,1075.37 1333.55,1073.38 1339.9,1071.4 1346.26,1069.41 
  1352.62,1067.42 1358.97,1065.43 1365.33,1063.45 1371.69,1061.46 1378.04,1059.47 1384.4,1057.48 1390.75,1055.5 1397.11,1053.51 1403.47,1051.52 1409.82,1049.54 
  1416.18,1047.55 1422.54,1045.56 1428.89,1043.57 1435.25,1041.59 1441.61,1039.6 1447.96,1037.61 1454.32,1035.62 1460.67,1033.64 1467.03,1031.65 1473.39,1029.66 
  1479.74,1027.67 1486.1,1025.69 1492.46,1023.7 1498.81,1021.71 1505.17,1019.73 1511.53,1017.74 1517.88,1015.75 1524.24,1013.76 1530.59,1011.78 1536.95,1009.79 
  1543.31,1007.8 1549.66,1005.81 1556.02,1003.83 1562.38,1001.84 1568.73,999.852 1575.09,997.865 1581.45,995.878 1587.8,993.89 1594.16,991.903 1600.51,989.916 
  1606.87,987.928 1613.23,985.941 1619.58,983.954 1625.94,981.966 1632.3,979.979 1638.65,977.992 1645.01,976.004 1651.36,974.017 1657.72,972.03 1664.08,970.042 
  1670.43,968.055 1676.79,966.068 1683.15,964.08 1689.5,962.093 1695.86,960.106 1702.22,958.118 1708.57,956.131 1714.93,954.144 1721.28,952.156 1727.64,950.169 
  1734,948.182 1740.35,946.194 1746.71,944.207 1753.07,942.22 1759.42,940.232 1765.78,938.245 1772.14,936.258 1778.49,934.27 1784.85,932.283 1791.2,930.296 
  1797.56,928.308 1803.92,926.321 1810.27,924.334 1816.63,922.346 1822.99,920.359 1829.34,918.372 1835.7,916.384 1842.06,914.397 1848.41,912.41 1854.77,910.422 
  1861.12,908.435 1867.48,906.448 1873.84,904.46 1880.19,902.473 1886.55,900.486 1892.91,898.498 1899.26,896.511 1905.62,894.524 1911.97,892.536 1918.33,890.549 
  1924.69,888.562 1931.04,886.574 1937.4,884.587 1943.76,882.6 1950.11,880.613 1956.47,878.625 1962.83,876.638 1969.18,874.651 1975.54,872.663 1981.89,870.676 
  1988.25,868.689 1994.61,866.701 2000.96,864.714 2007.32,862.727 2013.68,860.739 2020.03,858.752 2026.39,856.765 2032.75,854.777 2039.1,852.79 2045.46,850.803 
  2051.81,848.815 2058.17,846.828 2064.53,844.841 2070.88,842.853 2077.24,840.866 2083.6,838.879 2089.95,836.891 2096.31,834.904 2102.67,832.917 2109.02,830.929 
  2115.38,828.942 2121.73,826.955 2128.09,824.967 2134.45,822.98 2140.8,820.993 2147.16,819.005 2153.52,817.018 2159.87,815.031 2166.23,813.043 2172.59,811.056 
  2178.94,809.069 2185.3,807.081 2191.65,805.094 2198.01,803.107 2204.37,801.119 2210.72,799.132 2217.08,797.145 2223.44,795.157 2229.79,793.17 2236.15,791.183 
  2242.5,789.195 2248.86,787.208 2255.22,785.221 2261.57,783.233 
  "/>
<polyline clip-path="url(#clip9203)" style="stroke:#592a71; stroke-width:20; stroke-opacity:1; fill:none" stroke-dasharray="80, 50" points="
  272.039,783.233 278.395,780.584 284.751,777.934 291.108,775.284 297.464,772.633 303.82,769.982 310.177,767.331 316.533,764.678 322.89,762.025 329.246,759.371 
  335.602,756.716 341.959,754.06 348.315,751.402 354.671,748.743 361.028,746.082 367.384,743.42 373.74,740.755 380.097,738.089 386.453,735.421 392.809,732.75 
  399.166,730.078 405.522,727.402 411.878,724.724 418.235,722.044 424.591,719.36 430.947,716.674 437.304,713.984 443.66,711.291 450.016,708.594 456.373,705.894 
  462.729,703.19 469.085,700.482 475.442,697.77 481.798,695.053 488.154,692.333 494.511,689.607 500.867,686.877 507.223,684.142 513.58,681.402 519.936,678.657 
  526.292,675.906 532.649,673.149 539.005,670.386 545.361,667.618 551.718,664.843 558.074,662.061 564.431,659.273 570.787,656.478 577.143,653.675 583.5,650.866 
  589.856,648.048 596.212,645.223 602.569,642.389 608.925,639.548 615.281,636.697 621.638,633.837 627.994,630.969 634.35,628.09 640.707,625.202 647.063,622.304 
  653.419,619.395 659.776,616.475 666.132,613.545 672.488,610.603 678.845,607.648 685.201,604.682 691.557,601.703 697.914,598.711 704.27,595.706 710.626,592.687 
  716.983,589.653 723.339,586.605 729.695,583.542 736.052,580.462 742.408,577.367 748.764,574.255 755.121,571.126 761.477,567.978 767.833,564.813 774.19,561.628 
  780.546,558.424 786.902,555.2 793.259,551.954 799.615,548.687 805.972,545.398 812.328,542.086 818.684,538.749 825.041,535.388 831.397,532.002 837.753,528.589 
  844.11,525.149 850.466,521.681 856.822,518.184 863.179,514.657 869.535,511.098 875.891,507.507 882.248,503.883 888.604,500.224 894.96,496.53 901.317,492.798 
  907.673,489.028 914.029,485.219 920.386,481.369 926.742,477.476 933.098,473.539 939.455,469.556 945.811,465.527 952.167,461.449 958.524,457.32 964.88,453.138 
  971.236,448.903 977.593,444.611 983.949,440.262 990.305,435.852 996.662,431.381 1003.02,426.845 1009.37,422.242 1015.73,417.572 1022.09,412.83 1028.44,408.015 
  1034.8,403.124 1041.16,398.155 1047.51,393.106 1053.87,387.974 1060.23,382.757 1066.58,377.453 1072.94,372.058 1079.29,366.571 1085.65,360.99 1092.01,355.311 
  1098.36,349.535 1104.72,343.657 1111.08,337.677 1117.43,331.593 1123.79,325.403 1130.14,319.107 1136.5,312.704 1142.86,306.194 1149.21,299.576 1155.57,292.85 
  1161.93,286.018 1168.28,279.082 1174.64,272.042 1181,264.901 1187.35,257.663 1193.71,250.331 1200.06,242.91 1206.42,235.404 1212.78,227.82 1219.13,220.162 
  1225.49,212.44 1231.85,204.658 1238.2,196.827 1244.56,188.954 1250.92,181.048 1257.27,173.118 1263.63,165.174 1269.98,1401.29 1276.34,1393.35 1282.7,1385.42 
  1289.05,1377.51 1295.41,1369.64 1301.77,1361.81 1308.12,1354.03 1314.48,1346.3 1320.84,1338.65 1327.19,1331.06 1333.55,1323.56 1339.9,1316.14 1346.26,1308.8 
  1352.62,1301.57 1358.97,1294.43 1365.33,1287.39 1371.69,1280.45 1378.04,1273.62 1384.4,1266.89 1390.75,1260.27 1397.11,1253.76 1403.47,1247.36 1409.82,1241.06 
  1416.18,1234.87 1422.54,1228.79 1428.89,1222.81 1435.25,1216.93 1441.61,1211.16 1447.96,1205.48 1454.32,1199.9 1460.67,1194.41 1467.03,1189.01 1473.39,1183.71 
  1479.74,1178.49 1486.1,1173.36 1492.46,1168.31 1498.81,1163.34 1505.17,1158.45 1511.53,1153.64 1517.88,1148.9 1524.24,1144.22 1530.59,1139.62 1536.95,1135.09 
  1543.31,1130.61 1549.66,1126.2 1556.02,1121.86 1562.38,1117.56 1568.73,1113.33 1575.09,1109.15 1581.45,1105.02 1587.8,1100.94 1594.16,1096.91 1600.51,1092.93 
  1606.87,1088.99 1613.23,1085.1 1619.58,1081.25 1625.94,1077.44 1632.3,1073.67 1638.65,1069.94 1645.01,1066.24 1651.36,1062.58 1657.72,1058.96 1664.08,1055.37 
  1670.43,1051.81 1676.79,1048.28 1683.15,1044.79 1689.5,1041.32 1695.86,1037.88 1702.22,1034.46 1708.57,1031.08 1714.93,1027.72 1721.28,1024.38 1727.64,1021.07 
  1734,1017.78 1740.35,1014.51 1746.71,1011.27 1753.07,1008.04 1759.42,1004.84 1765.78,1001.65 1772.14,998.488 1778.49,995.341 1784.85,992.212 1791.2,989.1 
  1797.56,986.004 1803.92,982.925 1810.27,979.862 1816.63,976.814 1822.99,973.78 1829.34,970.761 1835.7,967.756 1842.06,964.764 1848.41,961.785 1854.77,958.818 
  1861.12,955.864 1867.48,952.922 1873.84,949.991 1880.19,947.072 1886.55,944.163 1892.91,941.265 1899.26,938.377 1905.62,935.498 1911.97,932.629 1918.33,929.77 
  1924.69,926.919 1931.04,924.077 1937.4,921.244 1943.76,918.419 1950.11,915.601 1956.47,912.791 1962.83,909.989 1969.18,907.194 1975.54,904.406 1981.89,901.624 
  1988.25,898.849 1994.61,896.081 2000.96,893.318 2007.32,890.561 2013.68,887.81 2020.03,885.065 2026.39,882.325 2032.75,879.59 2039.1,876.859 2045.46,874.134 
  2051.81,871.413 2058.17,868.697 2064.53,865.985 2070.88,863.277 2077.24,860.573 2083.6,857.873 2089.95,855.176 2096.31,852.483 2102.67,849.793 2109.02,847.107 
  2115.38,844.423 2121.73,841.742 2128.09,839.064 2134.45,836.389 2140.8,833.716 2147.16,831.046 2153.52,828.378 2159.87,825.711 2166.23,823.047 2172.59,820.385 
  2178.94,817.724 2185.3,815.065 2191.65,812.407 2198.01,809.751 2204.37,807.096 2210.72,804.442 2217.08,801.789 2223.44,799.136 2229.79,796.485 2236.15,793.834 
  2242.5,791.183 2248.86,788.533 2255.22,785.883 2261.57,783.233 
  "/>
<polyline clip-path="url(#clip9203)" style="stroke:#4e918f; stroke-width:20; stroke-opacity:1; fill:none" stroke-dasharray="80, 50" points="
  272.039,783.233 278.395,781.909 284.751,780.584 291.108,779.259 297.464,777.935 303.82,776.611 310.177,775.288 316.533,773.966 322.89,772.644 329.246,771.324 
  335.602,770.004 341.959,768.686 348.315,767.369 354.671,766.054 361.028,764.74 367.384,763.427 373.74,762.117 380.097,760.808 386.453,759.502 392.809,758.198 
  399.166,756.896 405.522,755.597 411.878,754.3 418.235,753.006 424.591,751.715 430.947,750.427 437.304,749.142 443.66,747.86 450.016,746.582 456.373,745.308 
  462.729,744.037 469.085,742.771 475.442,741.508 481.798,740.25 488.154,738.996 494.511,737.746 500.867,736.502 507.223,735.262 513.58,734.028 519.936,732.799 
  526.292,731.575 532.649,730.357 539.005,729.145 545.361,727.939 551.718,726.739 558.074,725.546 564.431,724.36 570.787,723.18 577.143,722.008 583.5,720.843 
  589.856,719.686 596.212,718.536 602.569,717.395 608.925,716.263 615.281,715.138 621.638,714.023 627.994,712.917 634.35,711.821 640.707,710.735 647.063,709.658 
  653.419,708.592 659.776,707.537 666.132,706.493 672.488,705.461 678.845,704.44 685.201,703.432 691.557,702.436 697.914,701.454 704.27,700.484 710.626,699.529 
  716.983,698.588 723.339,697.661 729.695,696.75 736.052,695.855 742.408,694.975 748.764,694.113 755.121,693.267 761.477,692.44 767.833,691.631 774.19,690.841 
  780.546,690.07 786.902,689.32 793.259,688.591 799.615,687.883 805.972,687.198 812.328,686.535 818.684,685.897 825.041,685.283 831.397,684.695 837.753,684.133 
  844.11,683.598 850.466,683.092 856.822,682.615 863.179,682.167 869.535,681.751 875.891,681.367 882.248,681.017 888.604,680.701 894.96,680.421 901.317,680.178 
  907.673,679.973 914.029,679.807 920.386,679.683 926.742,679.601 933.098,679.564 939.455,679.571 945.811,679.626 952.167,679.73 958.524,679.884 964.88,680.091 
  971.236,680.352 977.593,680.669 983.949,681.043 990.305,681.478 996.662,681.975 1003.02,682.537 1009.37,683.164 1015.73,683.861 1022.09,684.628 1028.44,685.468 
  1034.8,686.384 1041.16,687.378 1047.51,688.453 1053.87,689.61 1060.23,690.852 1066.58,692.182 1072.94,693.602 1079.29,695.114 1085.65,696.721 1092.01,698.425 
  1098.36,700.227 1104.72,702.13 1111.08,704.135 1117.43,706.245 1123.79,708.46 1130.14,710.781 1136.5,713.209 1142.86,715.745 1149.21,718.389 1155.57,721.139 
  1161.93,723.997 1168.28,726.959 1174.64,730.024 1181,733.19 1187.35,736.453 1193.71,739.81 1200.06,743.257 1206.42,746.788 1212.78,750.398 1219.13,754.081 
  1225.49,757.829 1231.85,761.635 1238.2,765.492 1244.56,769.39 1250.92,773.322 1257.27,777.277 1263.63,781.246 1269.98,785.221 1276.34,789.19 1282.7,793.145 
  1289.05,797.076 1295.41,800.975 1301.77,804.832 1308.12,808.638 1314.48,812.386 1320.84,816.069 1327.19,819.679 1333.55,823.21 1339.9,826.656 1346.26,830.014 
  1352.62,833.277 1358.97,836.443 1365.33,839.508 1371.69,842.47 1378.04,845.327 1384.4,848.078 1390.75,850.722 1397.11,853.258 1403.47,855.686 1409.82,858.007 
  1416.18,860.222 1422.54,862.331 1428.89,864.337 1435.25,866.24 1441.61,868.042 1447.96,869.746 1454.32,871.352 1460.67,872.865 1467.03,874.285 1473.39,875.615 
  1479.74,876.857 1486.1,878.014 1492.46,879.089 1498.81,880.083 1505.17,880.999 1511.53,881.839 1517.88,882.606 1524.24,883.303 1530.59,883.93 1536.95,884.492 
  1543.31,884.989 1549.66,885.423 1556.02,885.798 1562.38,886.115 1568.73,886.376 1575.09,886.582 1581.45,886.737 1587.8,886.84 1594.16,886.895 1600.51,886.903 
  1606.87,886.865 1613.23,886.784 1619.58,886.659 1625.94,886.494 1632.3,886.289 1638.65,886.046 1645.01,885.766 1651.36,885.45 1657.72,885.099 1664.08,884.716 
  1670.43,884.3 1676.79,883.852 1683.15,883.375 1689.5,882.868 1695.86,882.334 1702.22,881.772 1708.57,881.184 1714.93,880.57 1721.28,879.931 1727.64,879.269 
  1734,878.584 1740.35,877.876 1746.71,877.147 1753.07,876.397 1759.42,875.626 1765.78,874.836 1772.14,874.027 1778.49,873.199 1784.85,872.354 1791.2,871.492 
  1797.56,870.612 1803.92,869.717 1810.27,868.806 1816.63,867.879 1822.99,866.938 1829.34,865.983 1835.7,865.013 1842.06,864.031 1848.41,863.035 1854.77,862.026 
  1861.12,861.006 1867.48,859.973 1873.84,858.93 1880.19,857.874 1886.55,856.809 1892.91,855.732 1899.26,854.646 1905.62,853.549 1911.97,852.444 1918.33,851.328 
  1924.69,850.204 1931.04,849.072 1937.4,847.93 1943.76,846.781 1950.11,845.624 1956.47,844.459 1962.83,843.287 1969.18,842.107 1975.54,840.921 1981.89,839.727 
  1988.25,838.528 1994.61,837.322 2000.96,836.11 2007.32,834.892 2013.68,833.668 2020.03,832.439 2026.39,831.204 2032.75,829.965 2039.1,828.72 2045.46,827.471 
  2051.81,826.217 2058.17,824.959 2064.53,823.696 2070.88,822.43 2077.24,821.159 2083.6,819.884 2089.95,818.606 2096.31,817.325 2102.67,816.04 2109.02,814.752 
  2115.38,813.461 2121.73,812.167 2128.09,810.87 2134.45,809.571 2140.8,808.269 2147.16,806.965 2153.52,805.658 2159.87,804.35 2166.23,803.039 2172.59,801.727 
  2178.94,800.413 2185.3,799.098 2191.65,797.781 2198.01,796.462 2204.37,795.143 2210.72,793.822 2217.08,792.501 2223.44,791.178 2229.79,789.855 2236.15,788.532 
  2242.5,787.208 2248.86,785.883 2255.22,784.558 2261.57,783.233 
  "/>
<polyline clip-path="url(#clip9203)" style="stroke:#300c43; stroke-width:20; stroke-opacity:1; fill:none" points="
  272.039,783.233 278.395,779.259 284.751,775.284 291.108,771.309 297.464,767.335 303.82,763.36 310.177,759.385 316.533,755.411 322.89,751.436 329.246,747.462 
  335.602,743.487 341.959,739.512 348.315,735.538 354.671,731.563 361.028,727.588 367.384,723.614 373.74,719.639 380.097,715.664 386.453,711.69 392.809,707.715 
  399.166,703.74 405.522,699.766 411.878,695.791 418.235,691.816 424.591,687.842 430.947,683.867 437.304,679.892 443.66,675.918 450.016,671.943 456.373,667.968 
  462.729,663.994 469.085,660.019 475.442,656.044 481.798,652.07 488.154,648.095 494.511,644.12 500.867,640.146 507.223,636.171 513.58,632.196 519.936,628.222 
  526.292,624.247 532.649,620.273 539.005,616.298 545.361,612.323 551.718,608.349 558.074,604.374 564.431,600.399 570.787,596.425 577.143,592.45 583.5,588.475 
  589.856,584.501 596.212,580.526 602.569,576.551 608.925,572.577 615.281,568.602 621.638,564.627 627.994,560.653 634.35,556.678 640.707,552.703 647.063,548.729 
  653.419,544.754 659.776,540.779 666.132,536.805 672.488,532.83 678.845,528.855 685.201,524.881 691.557,520.906 697.914,516.931 704.27,512.957 710.626,508.982 
  716.983,505.007 723.339,501.033 729.695,497.058 736.052,493.084 742.408,489.109 748.764,485.134 755.121,481.16 761.477,477.185 767.833,473.21 774.19,469.236 
  780.546,465.261 786.902,461.286 793.259,457.312 799.615,453.337 805.972,449.362 812.328,445.388 818.684,441.413 825.041,437.438 831.397,433.464 837.753,429.489 
  844.11,425.514 850.466,421.54 856.822,417.565 863.179,413.59 869.535,409.616 875.891,405.641 882.248,401.666 888.604,397.692 894.96,393.717 901.317,389.742 
  907.673,385.768 914.029,381.793 920.386,377.818 926.742,373.844 933.098,369.869 939.455,365.895 945.811,361.92 952.167,357.945 958.524,353.971 964.88,349.996 
  971.236,346.021 977.593,342.047 983.949,338.072 990.305,334.097 996.662,330.123 1003.02,326.148 1009.37,322.173 1015.73,318.199 1022.09,314.224 1028.44,310.249 
  1034.8,306.275 1041.16,302.3 1047.51,298.325 1053.87,294.351 1060.23,290.376 1066.58,286.401 1072.94,282.427 1079.29,278.452 1085.65,274.477 1092.01,270.503 
  1098.36,266.528 1104.72,262.553 1111.08,258.579 1117.43,254.604 1123.79,250.629 1130.14,246.655 1136.5,242.68 1142.86,238.706 1149.21,234.731 1155.57,230.756 
  1161.93,226.782 1168.28,222.807 1174.64,218.832 1181,214.858 1187.35,210.883 1193.71,206.908 1200.06,202.934 1206.42,198.959 1212.78,194.984 1219.13,191.01 
  1225.49,187.035 1231.85,183.06 1238.2,179.086 1244.56,175.111 1250.92,171.136 1257.27,167.162 1263.63,163.187 1269.98,1403.28 1276.34,1399.31 1282.7,1395.33 
  1289.05,1391.36 1295.41,1387.38 1301.77,1383.41 1308.12,1379.43 1314.48,1375.46 1320.84,1371.48 1327.19,1367.51 1333.55,1363.53 1339.9,1359.56 1346.26,1355.58 
  1352.62,1351.61 1358.97,1347.63 1365.33,1343.66 1371.69,1339.69 1378.04,1335.71 1384.4,1331.74 1390.75,1327.76 1397.11,1323.79 1403.47,1319.81 1409.82,1315.84 
  1416.18,1311.86 1422.54,1307.89 1428.89,1303.91 1435.25,1299.94 1441.61,1295.96 1447.96,1291.99 1454.32,1288.01 1460.67,1284.04 1467.03,1280.07 1473.39,1276.09 
  1479.74,1272.12 1486.1,1268.14 1492.46,1264.17 1498.81,1260.19 1505.17,1256.22 1511.53,1252.24 1517.88,1248.27 1524.24,1244.29 1530.59,1240.32 1536.95,1236.34 
  1543.31,1232.37 1549.66,1228.39 1556.02,1224.42 1562.38,1220.45 1568.73,1216.47 1575.09,1212.5 1581.45,1208.52 1587.8,1204.55 1594.16,1200.57 1600.51,1196.6 
  1606.87,1192.62 1613.23,1188.65 1619.58,1184.67 1625.94,1180.7 1632.3,1176.72 1638.65,1172.75 1645.01,1168.78 1651.36,1164.8 1657.72,1160.83 1664.08,1156.85 
  1670.43,1152.88 1676.79,1148.9 1683.15,1144.93 1689.5,1140.95 1695.86,1136.98 1702.22,1133 1708.57,1129.03 1714.93,1125.05 1721.28,1121.08 1727.64,1117.1 
  1734,1113.13 1740.35,1109.16 1746.71,1105.18 1753.07,1101.21 1759.42,1097.23 1765.78,1093.26 1772.14,1089.28 1778.49,1085.31 1784.85,1081.33 1791.2,1077.36 
  1797.56,1073.38 1803.92,1069.41 1810.27,1065.43 1816.63,1061.46 1822.99,1057.48 1829.34,1053.51 1835.7,1049.54 1842.06,1045.56 1848.41,1041.59 1854.77,1037.61 
  1861.12,1033.64 1867.48,1029.66 1873.84,1025.69 1880.19,1021.71 1886.55,1017.74 1892.91,1013.76 1899.26,1009.79 1905.62,1005.81 1911.97,1001.84 1918.33,997.865 
  1924.69,993.89 1931.04,989.916 1937.4,985.941 1943.76,981.966 1950.11,977.992 1956.47,974.017 1962.83,970.042 1969.18,966.068 1975.54,962.093 1981.89,958.118 
  1988.25,954.144 1994.61,950.169 2000.96,946.194 2007.32,942.22 2013.68,938.245 2020.03,934.27 2026.39,930.296 2032.75,926.321 2039.1,922.346 2045.46,918.372 
  2051.81,914.397 2058.17,910.422 2064.53,906.448 2070.88,902.473 2077.24,898.498 2083.6,894.524 2089.95,890.549 2096.31,886.574 2102.67,882.6 2109.02,878.625 
  2115.38,874.651 2121.73,870.676 2128.09,866.701 2134.45,862.727 2140.8,858.752 2147.16,854.777 2153.52,850.803 2159.87,846.828 2166.23,842.853 2172.59,838.879 
  2178.94,834.904 2185.3,830.929 2191.65,826.955 2198.01,822.98 2204.37,819.005 2210.72,815.031 2217.08,811.056 2223.44,807.081 2229.79,803.107 2236.15,799.132 
  2242.5,795.157 2248.86,791.183 2255.22,787.208 2261.57,783.233 
  "/>
<polyline clip-path="url(#clip9203)" style="stroke:#226764; stroke-width:20; stroke-opacity:1; fill:none" points="
  272.039,783.233 278.395,783.233 284.751,783.233 291.108,783.233 297.464,783.233 303.82,783.233 310.177,783.233 316.533,783.233 322.89,783.233 329.246,783.233 
  335.602,783.233 341.959,783.233 348.315,783.233 354.671,783.233 361.028,783.233 367.384,783.233 373.74,783.233 380.097,783.233 386.453,783.233 392.809,783.233 
  399.166,783.233 405.522,783.233 411.878,783.233 418.235,783.233 424.591,783.233 430.947,783.233 437.304,783.233 443.66,783.233 450.016,783.233 456.373,783.233 
  462.729,783.233 469.085,783.233 475.442,783.233 481.798,783.233 488.154,783.233 494.511,783.233 500.867,783.233 507.223,783.233 513.58,783.233 519.936,783.233 
  526.292,783.233 532.649,783.233 539.005,783.233 545.361,783.233 551.718,783.233 558.074,783.233 564.431,783.233 570.787,783.233 577.143,783.233 583.5,783.233 
  589.856,783.233 596.212,783.233 602.569,783.233 608.925,783.233 615.281,783.233 621.638,783.233 627.994,783.233 634.35,783.233 640.707,783.233 647.063,783.233 
  653.419,783.233 659.776,783.233 666.132,783.233 672.488,783.233 678.845,783.233 685.201,783.233 691.557,783.233 697.914,783.233 704.27,783.233 710.626,783.233 
  716.983,783.233 723.339,783.233 729.695,783.233 736.052,783.233 742.408,783.233 748.764,783.233 755.121,783.233 761.477,783.233 767.833,783.233 774.19,783.233 
  780.546,783.233 786.902,783.233 793.259,783.233 799.615,783.233 805.972,783.233 812.328,783.233 818.684,783.233 825.041,783.233 831.397,783.233 837.753,783.233 
  844.11,783.233 850.466,783.233 856.822,783.233 863.179,783.233 869.535,783.233 875.891,783.233 882.248,783.233 888.604,783.233 894.96,783.233 901.317,783.233 
  907.673,783.233 914.029,783.233 920.386,783.233 926.742,783.233 933.098,783.233 939.455,783.233 945.811,783.233 952.167,783.233 958.524,783.233 964.88,783.233 
  971.236,783.233 977.593,783.233 983.949,783.233 990.305,783.233 996.662,783.233 1003.02,783.233 1009.37,783.233 1015.73,783.233 1022.09,783.233 1028.44,783.233 
  1034.8,783.233 1041.16,783.233 1047.51,783.233 1053.87,783.233 1060.23,783.233 1066.58,783.233 1072.94,783.233 1079.29,783.233 1085.65,783.233 1092.01,783.233 
  1098.36,783.233 1104.72,783.233 1111.08,783.233 1117.43,783.233 1123.79,783.233 1130.14,783.233 1136.5,783.233 1142.86,783.233 1149.21,783.233 1155.57,783.233 
  1161.93,783.233 1168.28,783.233 1174.64,783.233 1181,783.233 1187.35,783.233 1193.71,783.233 1200.06,783.233 1206.42,783.233 1212.78,783.233 1219.13,783.233 
  1225.49,783.233 1231.85,783.233 1238.2,783.233 1244.56,783.233 1250.92,783.233 1257.27,783.233 1263.63,783.233 1269.98,783.233 1276.34,783.233 1282.7,783.233 
  1289.05,783.233 1295.41,783.233 1301.77,783.233 1308.12,783.233 1314.48,783.233 1320.84,783.233 1327.19,783.233 1333.55,783.233 1339.9,783.233 1346.26,783.233 
  1352.62,783.233 1358.97,783.233 1365.33,783.233 1371.69,783.233 1378.04,783.233 1384.4,783.233 1390.75,783.233 1397.11,783.233 1403.47,783.233 1409.82,783.233 
  1416.18,783.233 1422.54,783.233 1428.89,783.233 1435.25,783.233 1441.61,783.233 1447.96,783.233 1454.32,783.233 1460.67,783.233 1467.03,783.233 1473.39,783.233 
  1479.74,783.233 1486.1,783.233 1492.46,783.233 1498.81,783.233 1505.17,783.233 1511.53,783.233 1517.88,783.233 1524.24,783.233 1530.59,783.233 1536.95,783.233 
  1543.31,783.233 1549.66,783.233 1556.02,783.233 1562.38,783.233 1568.73,783.233 1575.09,783.233 1581.45,783.233 1587.8,783.233 1594.16,783.233 1600.51,783.233 
  1606.87,783.233 1613.23,783.233 1619.58,783.233 1625.94,783.233 1632.3,783.233 1638.65,783.233 1645.01,783.233 1651.36,783.233 1657.72,783.233 1664.08,783.233 
  1670.43,783.233 1676.79,783.233 1683.15,783.233 1689.5,783.233 1695.86,783.233 1702.22,783.233 1708.57,783.233 1714.93,783.233 1721.28,783.233 1727.64,783.233 
  1734,783.233 1740.35,783.233 1746.71,783.233 1753.07,783.233 1759.42,783.233 1765.78,783.233 1772.14,783.233 1778.49,783.233 1784.85,783.233 1791.2,783.233 
  1797.56,783.233 1803.92,783.233 1810.27,783.233 1816.63,783.233 1822.99,783.233 1829.34,783.233 1835.7,783.233 1842.06,783.233 1848.41,783.233 1854.77,783.233 
  1861.12,783.233 1867.48,783.233 1873.84,783.233 1880.19,783.233 1886.55,783.233 1892.91,783.233 1899.26,783.233 1905.62,783.233 1911.97,783.233 1918.33,783.233 
  1924.69,783.233 1931.04,783.233 1937.4,783.233 1943.76,783.233 1950.11,783.233 1956.47,783.233 1962.83,783.233 1969.18,783.233 1975.54,783.233 1981.89,783.233 
  1988.25,783.233 1994.61,783.233 2000.96,783.233 2007.32,783.233 2013.68,783.233 2020.03,783.233 2026.39,783.233 2032.75,783.233 2039.1,783.233 2045.46,783.233 
  2051.81,783.233 2058.17,783.233 2064.53,783.233 2070.88,783.233 2077.24,783.233 2083.6,783.233 2089.95,783.233 2096.31,783.233 2102.67,783.233 2109.02,783.233 
  2115.38,783.233 2121.73,783.233 2128.09,783.233 2134.45,783.233 2140.8,783.233 2147.16,783.233 2153.52,783.233 2159.87,783.233 2166.23,783.233 2172.59,783.233 
  2178.94,783.233 2185.3,783.233 2191.65,783.233 2198.01,783.233 2204.37,783.233 2210.72,783.233 2217.08,783.233 2223.44,783.233 2229.79,783.233 2236.15,783.233 
  2242.5,783.233 2248.86,783.233 2255.22,783.233 2261.57,783.233 
  "/>
<polyline clip-path="url(#clip9203)" style="stroke:#cca7df; stroke-width:20; stroke-opacity:1; fill:none" stroke-dasharray="10, 20" points="
  272.039,783.233 278.395,780.849 284.751,778.464 291.108,776.079 297.464,773.693 303.82,771.308 310.177,768.922 316.533,766.535 322.89,764.148 329.246,761.761 
  335.602,759.373 341.959,756.984 348.315,754.594 354.671,752.203 361.028,749.811 367.384,747.418 373.74,745.024 380.097,742.628 386.453,740.231 392.809,737.833 
  399.166,735.433 405.522,733.032 411.878,730.629 418.235,728.224 424.591,725.817 430.947,723.409 437.304,720.998 443.66,718.585 450.016,716.169 456.373,713.752 
  462.729,711.331 469.085,708.909 475.442,706.483 481.798,704.055 488.154,701.624 494.511,699.19 500.867,696.752 507.223,694.312 513.58,691.868 519.936,689.42 
  526.292,686.969 532.649,684.514 539.005,682.055 545.361,679.592 551.718,677.125 558.074,674.653 564.431,672.177 570.787,669.696 577.143,667.211 583.5,664.72 
  589.856,662.225 596.212,659.724 602.569,657.217 608.925,654.705 615.281,652.187 621.638,649.663 627.994,647.132 634.35,644.595 640.707,642.051 647.063,639.5 
  653.419,636.942 659.776,634.377 666.132,631.803 672.488,629.222 678.845,626.633 685.201,624.035 691.557,621.428 697.914,618.812 704.27,616.186 710.626,613.551 
  716.983,610.905 723.339,608.249 729.695,605.582 736.052,602.904 742.408,600.214 748.764,597.512 755.121,594.797 761.477,592.069 767.833,589.328 774.19,586.573 
  780.546,583.803 786.902,581.018 793.259,578.218 799.615,575.401 805.972,572.567 812.328,569.715 818.684,566.845 825.041,563.956 831.397,561.048 837.753,558.118 
  844.11,555.167 850.466,552.194 856.822,549.198 863.179,546.177 869.535,543.13 875.891,540.057 882.248,536.957 888.604,533.828 894.96,530.668 901.317,527.477 
  907.673,524.253 914.029,520.994 920.386,517.7 926.742,514.367 933.098,510.995 939.455,507.581 945.811,504.123 952.167,500.619 958.524,497.068 964.88,493.465 
  971.236,489.809 977.593,486.098 983.949,482.327 990.305,478.494 996.662,474.596 1003.02,470.628 1009.37,466.587 1015.73,462.47 1022.09,458.271 1028.44,453.986 
  1034.8,449.61 1041.16,445.138 1047.51,440.564 1053.87,435.883 1060.23,431.086 1066.58,426.169 1072.94,421.124 1079.29,415.942 1085.65,410.616 1092.01,405.137 
  1098.36,399.496 1104.72,393.683 1111.08,387.688 1117.43,381.5 1123.79,375.109 1130.14,368.502 1136.5,361.669 1142.86,354.596 1149.21,347.273 1155.57,339.686 
  1161.93,331.826 1168.28,323.68 1174.64,315.24 1181,306.496 1187.35,297.443 1193.71,288.076 1200.06,278.394 1206.42,268.4 1212.78,258.1 1219.13,247.506 
  1225.49,236.634 1231.85,225.505 1238.2,214.149 1244.56,202.596 1250.92,190.886 1257.27,179.059 1263.63,167.161 1269.98,1399.31 1276.34,1387.41 1282.7,1375.58 
  1289.05,1363.87 1295.41,1352.32 1301.77,1340.96 1308.12,1329.83 1314.48,1318.96 1320.84,1308.37 1327.19,1298.07 1333.55,1288.07 1339.9,1278.39 1346.26,1269.02 
  1352.62,1259.97 1358.97,1251.23 1365.33,1242.79 1371.69,1234.64 1378.04,1226.78 1384.4,1219.19 1390.75,1211.87 1397.11,1204.8 1403.47,1197.96 1409.82,1191.36 
  1416.18,1184.97 1422.54,1178.78 1428.89,1172.78 1435.25,1166.97 1441.61,1161.33 1447.96,1155.85 1454.32,1150.52 1460.67,1145.34 1467.03,1140.3 1473.39,1135.38 
  1479.74,1130.58 1486.1,1125.9 1492.46,1121.33 1498.81,1116.86 1505.17,1112.48 1511.53,1108.2 1517.88,1104 1524.24,1099.88 1530.59,1095.84 1536.95,1091.87 
  1543.31,1087.97 1549.66,1084.14 1556.02,1080.37 1562.38,1076.66 1568.73,1073 1575.09,1069.4 1581.45,1065.85 1587.8,1062.34 1594.16,1058.89 1600.51,1055.47 
  1606.87,1052.1 1613.23,1048.77 1619.58,1045.47 1625.94,1042.21 1632.3,1038.99 1638.65,1035.8 1645.01,1032.64 1651.36,1029.51 1657.72,1026.41 1664.08,1023.34 
  1670.43,1020.29 1676.79,1017.27 1683.15,1014.27 1689.5,1011.3 1695.86,1008.35 1702.22,1005.42 1708.57,1002.51 1714.93,999.622 1721.28,996.752 1727.64,993.9 
  1734,991.066 1740.35,988.249 1746.71,985.449 1753.07,982.664 1759.42,979.894 1765.78,977.139 1772.14,974.397 1778.49,971.67 1784.85,968.955 1791.2,966.253 
  1797.56,963.563 1803.92,960.885 1810.27,958.218 1816.63,955.562 1822.99,952.916 1829.34,950.281 1835.7,947.655 1842.06,945.039 1848.41,942.432 1854.77,939.834 
  1861.12,937.245 1867.48,934.663 1873.84,932.09 1880.19,929.525 1886.55,926.967 1892.91,924.416 1899.26,921.872 1905.62,919.335 1911.97,916.804 1918.33,914.28 
  1924.69,911.762 1931.04,909.25 1937.4,906.743 1943.76,904.242 1950.11,901.746 1956.47,899.256 1962.83,896.77 1969.18,894.29 1975.54,891.814 1981.89,889.342 
  1988.25,886.875 1994.61,884.412 2000.96,881.953 2007.32,879.498 2013.68,877.047 2020.03,874.599 2026.39,872.155 2032.75,869.715 2039.1,867.277 2045.46,864.843 
  2051.81,862.412 2058.17,859.984 2064.53,857.558 2070.88,855.135 2077.24,852.715 2083.6,850.298 2089.95,847.882 2096.31,845.469 2102.67,843.058 2109.02,840.65 
  2115.38,838.243 2121.73,835.838 2128.09,833.435 2134.45,831.033 2140.8,828.634 2147.16,826.235 2153.52,823.839 2159.87,821.443 2166.23,819.049 2172.59,816.656 
  2178.94,814.264 2185.3,811.873 2191.65,809.483 2198.01,807.094 2204.37,804.706 2210.72,802.318 2217.08,799.931 2223.44,797.545 2229.79,795.159 2236.15,792.773 
  2242.5,790.388 2248.86,788.003 2255.22,785.618 2261.57,783.233 
  "/>
<polyline clip-path="url(#clip9203)" style="stroke:#a0d9d7; stroke-width:20; stroke-opacity:1; fill:none" stroke-dasharray="10, 20" points="
  272.039,783.233 278.395,781.644 284.751,780.054 291.108,778.464 297.464,776.875 303.82,775.286 310.177,773.697 316.533,772.109 322.89,770.521 329.246,768.934 
  335.602,767.348 341.959,765.762 348.315,764.177 354.671,762.594 361.028,761.011 367.384,759.429 373.74,757.849 380.097,756.269 386.453,754.692 392.809,753.115 
  399.166,751.54 405.522,749.967 411.878,748.395 418.235,746.826 424.591,745.258 430.947,743.692 437.304,742.128 443.66,740.567 450.016,739.007 456.373,737.45 
  462.729,735.896 469.085,734.344 475.442,732.795 481.798,731.248 488.154,729.705 494.511,728.164 500.867,726.627 507.223,725.093 513.58,723.562 519.936,722.035 
  526.292,720.512 532.649,718.992 539.005,717.476 545.361,715.965 551.718,714.457 558.074,712.954 564.431,711.455 570.787,709.962 577.143,708.472 583.5,706.988 
  589.856,705.509 596.212,704.036 602.569,702.567 608.925,701.105 615.281,699.649 621.638,698.198 627.994,696.754 634.35,695.317 640.707,693.886 647.063,692.462 
  653.419,691.045 659.776,689.636 666.132,688.235 672.488,686.841 678.845,685.456 685.201,684.08 691.557,682.712 697.914,681.353 704.27,680.004 710.626,678.665 
  716.983,677.336 723.339,676.017 729.695,674.709 736.052,673.413 742.408,672.128 748.764,670.856 755.121,669.596 761.477,668.349 767.833,667.115 774.19,665.896 
  780.546,664.691 786.902,663.501 793.259,662.327 799.615,661.17 805.972,660.029 812.328,658.906 818.684,657.801 825.041,656.715 831.397,655.649 837.753,654.604 
  844.11,653.58 850.466,652.579 856.822,651.601 863.179,650.647 869.535,649.719 875.891,648.817 882.248,647.943 888.604,647.098 894.96,646.282 901.317,645.499 
  907.673,644.748 914.029,644.032 920.386,643.352 926.742,642.71 933.098,642.108 939.455,641.547 945.811,641.03 952.167,640.559 958.524,640.136 964.88,639.764 
  971.236,639.445 977.593,639.182 983.949,638.978 990.305,638.837 996.662,638.761 1003.02,638.753 1009.37,638.819 1015.73,638.962 1022.09,639.186 1028.44,639.497 
  1034.8,639.898 1041.16,640.395 1047.51,640.994 1053.87,641.702 1060.23,642.523 1066.58,643.466 1072.94,644.536 1079.29,645.743 1085.65,647.095 1092.01,648.599 
  1098.36,650.265 1104.72,652.104 1111.08,654.124 1117.43,656.337 1123.79,658.754 1130.14,661.386 1136.5,664.245 1142.86,667.343 1149.21,670.692 1155.57,674.303 
  1161.93,678.189 1168.28,682.36 1174.64,686.826 1181,691.595 1187.35,696.673 1193.71,702.066 1200.06,707.773 1206.42,713.793 1212.78,720.118 1219.13,726.737 
  1225.49,733.635 1231.85,740.788 1238.2,748.17 1244.56,755.748 1250.92,763.484 1257.27,771.336 1263.63,779.26 1269.98,787.207 1276.34,795.13 1282.7,802.983 
  1289.05,810.719 1295.41,818.297 1301.77,825.679 1308.12,832.832 1314.48,839.729 1320.84,846.349 1327.19,852.674 1333.55,858.694 1339.9,864.401 1346.26,869.793 
  1352.62,874.872 1358.97,879.641 1365.33,884.107 1371.69,888.278 1378.04,892.164 1384.4,895.775 1390.75,899.124 1397.11,902.222 1403.47,905.081 1409.82,907.713 
  1416.18,910.13 1422.54,912.343 1428.89,914.363 1435.25,916.201 1441.61,917.868 1447.96,919.372 1454.32,920.723 1460.67,921.93 1467.03,923.001 1473.39,923.944 
  1479.74,924.765 1486.1,925.472 1492.46,926.072 1498.81,926.569 1505.17,926.97 1511.53,927.28 1517.88,927.505 1524.24,927.648 1530.59,927.713 1536.95,927.706 
  1543.31,927.63 1549.66,927.488 1556.02,927.285 1562.38,927.022 1568.73,926.703 1575.09,926.33 1581.45,925.908 1587.8,925.436 1594.16,924.92 1600.51,924.359 
  1606.87,923.757 1613.23,923.115 1619.58,922.435 1625.94,921.719 1632.3,920.968 1638.65,920.184 1645.01,919.369 1651.36,918.524 1657.72,917.65 1664.08,916.748 
  1670.43,915.82 1676.79,914.866 1683.15,913.888 1689.5,912.886 1695.86,911.863 1702.22,910.817 1708.57,909.751 1714.93,908.666 1721.28,907.561 1727.64,906.438 
  1734,905.297 1740.35,904.139 1746.71,902.965 1753.07,901.776 1759.42,900.571 1765.78,899.351 1772.14,898.118 1778.49,896.871 1784.85,895.611 1791.2,894.339 
  1797.56,893.054 1803.92,891.757 1810.27,890.45 1816.63,889.131 1822.99,887.802 1829.34,886.463 1835.7,885.114 1842.06,883.755 1848.41,882.387 1854.77,881.011 
  1861.12,879.626 1867.48,878.232 1873.84,876.831 1880.19,875.422 1886.55,874.005 1892.91,872.581 1899.26,871.15 1905.62,869.713 1911.97,868.269 1918.33,866.818 
  1924.69,865.362 1931.04,863.899 1937.4,862.431 1943.76,860.958 1950.11,859.479 1956.47,857.994 1962.83,856.505 1969.18,855.011 1975.54,853.513 1981.89,852.01 
  1988.25,850.502 1994.61,848.99 2000.96,847.475 2007.32,845.955 2013.68,844.432 2020.03,842.904 2026.39,841.374 2032.75,839.84 2039.1,838.303 2045.46,836.762 
  2051.81,835.219 2058.17,833.672 2064.53,832.123 2070.88,830.571 2077.24,829.017 2083.6,827.46 2089.95,825.9 2096.31,824.339 2102.67,822.775 2109.02,821.209 
  2115.38,819.641 2121.73,818.071 2128.09,816.5 2134.45,814.927 2140.8,813.352 2147.16,811.775 2153.52,810.197 2159.87,808.618 2166.23,807.038 2172.59,805.456 
  2178.94,803.873 2185.3,802.29 2191.65,800.705 2198.01,799.119 2204.37,797.533 2210.72,795.946 2217.08,794.358 2223.44,792.77 2229.79,791.181 2236.15,789.592 
  2242.5,788.003 2248.86,786.413 2255.22,784.823 2261.57,783.233 
  "/>
<polygon clip-path="url(#clip9201)" points="
1700.15,693.344 2249.26,693.344 2249.26,209.504 1700.15,209.504 
  " fill="#ffffff" fill-rule="evenodd" fill-opacity="1"/>
<polyline clip-path="url(#clip9201)" style="stroke:#000000; stroke-width:4; stroke-opacity:1; fill:none" points="
  1700.15,693.344 2249.26,693.344 2249.26,209.504 1700.15,209.504 1700.15,693.344 
  "/>
<polyline clip-path="url(#clip9201)" style="stroke:#aa8e38; stroke-width:20; stroke-opacity:1; fill:none" points="
  1724.15,269.984 1868.15,269.984 
  "/>
<g clip-path="url(#clip9201)">
<text style="fill:#000000; fill-opacity:1; font-family:Arial,Helvetica Neue,Helvetica,sans-serif; font-size:48px; text-anchor:start;" transform="rotate(0, 1892.15, 287.484)" x="1892.15" y="287.484">v=1.0 , d=0.0</text>
</g>
<polyline clip-path="url(#clip9201)" style="stroke:#592a71; stroke-width:20; stroke-opacity:1; fill:none" stroke-dasharray="80, 50" points="
  1724.15,330.464 1868.15,330.464 
  "/>
<g clip-path="url(#clip9201)">
<text style="fill:#000000; fill-opacity:1; font-family:Arial,Helvetica Neue,Helvetica,sans-serif; font-size:48px; text-anchor:start;" transform="rotate(0, 1892.15, 347.964)" x="1892.15" y="347.964">v=0.5 , d=0.5</text>
</g>
<polyline clip-path="url(#clip9201)" style="stroke:#4e918f; stroke-width:20; stroke-opacity:1; fill:none" stroke-dasharray="80, 50" points="
  1724.15,390.944 1868.15,390.944 
  "/>
<g clip-path="url(#clip9201)">
<text style="fill:#000000; fill-opacity:1; font-family:Arial,Helvetica Neue,Helvetica,sans-serif; font-size:48px; text-anchor:start;" transform="rotate(0, 1892.15, 408.444)" x="1892.15" y="408.444">v=1.0 , d=-0.5</text>
</g>
<polyline clip-path="url(#clip9201)" style="stroke:#300c43; stroke-width:20; stroke-opacity:1; fill:none" points="
  1724.15,451.424 1868.15,451.424 
  "/>
<g clip-path="url(#clip9201)">
<text style="fill:#000000; fill-opacity:1; font-family:Arial,Helvetica Neue,Helvetica,sans-serif; font-size:48px; text-anchor:start;" transform="rotate(0, 1892.15, 468.924)" x="1892.15" y="468.924">v=0.0 , d=0.5</text>
</g>
<polyline clip-path="url(#clip9201)" style="stroke:#226764; stroke-width:20; stroke-opacity:1; fill:none" points="
  1724.15,511.904 1868.15,511.904 
  "/>
<g clip-path="url(#clip9201)">
<text style="fill:#000000; fill-opacity:1; font-family:Arial,Helvetica Neue,Helvetica,sans-serif; font-size:48px; text-anchor:start;" transform="rotate(0, 1892.15, 529.404)" x="1892.15" y="529.404">v=0.5 , d=-0.5</text>
</g>
<polyline clip-path="url(#clip9201)" style="stroke:#cca7df; stroke-width:20; stroke-opacity:1; fill:none" stroke-dasharray="10, 20" points="
  1724.15,572.384 1868.15,572.384 
  "/>
<g clip-path="url(#clip9201)">
<text style="fill:#000000; fill-opacity:1; font-family:Arial,Helvetica Neue,Helvetica,sans-serif; font-size:48px; text-anchor:start;" transform="rotate(0, 1892.15, 589.884)" x="1892.15" y="589.884">v=0.4 , d=0.2</text>
</g>
<polyline clip-path="url(#clip9201)" style="stroke:#a0d9d7; stroke-width:20; stroke-opacity:1; fill:none" stroke-dasharray="10, 20" points="
  1724.15,632.864 1868.15,632.864 
  "/>
<g clip-path="url(#clip9201)">
<text style="fill:#000000; fill-opacity:1; font-family:Arial,Helvetica Neue,Helvetica,sans-serif; font-size:48px; text-anchor:start;" transform="rotate(0, 1892.15, 650.364)" x="1892.15" y="650.364">v=0.6 , d=-0.2</text>
</g>
</svg>
