<?xml version="1.0" encoding="utf-8"?>
<svg xmlns="http://www.w3.org/2000/svg" xmlns:xlink="http://www.w3.org/1999/xlink" width="600" height="400" viewBox="0 0 2400 1600">
<defs>
  <clipPath id="clip9400">
    <rect x="0" y="0" width="2000" height="2000"/>
  </clipPath>
</defs>
<defs>
  <clipPath id="clip9401">
    <rect x="0" y="0" width="2400" height="1600"/>
  </clipPath>
</defs>
<polygon clip-path="url(#clip9401)" points="
0,1600 2400,1600 2400,0 0,0 
  " fill="#ffffff" fill-rule="evenodd" fill-opacity="1"/>
<defs>
  <clipPath id="clip9402">
    <rect x="480" y="0" width="1681" height="1600"/>
  </clipPath>
</defs>
<polygon clip-path="url(#clip9401)" points="
212.353,1440.48 2321.26,1440.48 2321.26,125.984 212.353,125.984 
  " fill="#ffffff" fill-rule="evenodd" fill-opacity="1"/>
<defs>
  <clipPath id="clip9403">
    <rect x="212" y="125" width="2110" height="1315"/>
  </clipPath>
</defs>
<polyline clip-path="url(#clip9403)" style="stroke:#000000; stroke-width:2; stroke-opacity:0.1; fill:none" points="
  316.873,1440.48 316.873,125.984 
  "/>
<polyline clip-path="url(#clip9403)" style="stroke:#000000; stroke-width:2; stroke-opacity:0.1; fill:none" points="
  633.518,1440.48 633.518,125.984 
  "/>
<polyline clip-path="url(#clip9403)" style="stroke:#000000; stroke-width:2; stroke-opacity:0.1; fill:none" points="
  950.162,1440.48 950.162,125.984 
  "/>
<polyline clip-path="url(#clip9403)" style="stroke:#000000; stroke-width:2; stroke-opacity:0.1; fill:none" points="
  1266.81,1440.48 1266.81,125.984 
  "/>
<polyline clip-path="url(#clip9403)" style="stroke:#000000; stroke-width:2; stroke-opacity:0.1; fill:none" points="
  1583.45,1440.48 1583.45,125.984 
  "/>
<polyline clip-path="url(#clip9403)" style="stroke:#000000; stroke-width:2; stroke-opacity:0.1; fill:none" points="
  1900.09,1440.48 1900.09,125.984 
  "/>
<polyline clip-path="url(#clip9403)" style="stroke:#000000; stroke-width:2; stroke-opacity:0.1; fill:none" points="
  2216.74,1440.48 2216.74,125.984 
  "/>
<polyline clip-path="url(#clip9403)" style="stroke:#000000; stroke-width:2; stroke-opacity:0.1; fill:none" points="
  212.353,1376.73 2321.26,1376.73 
  "/>
<polyline clip-path="url(#clip9403)" style="stroke:#000000; stroke-width:2; stroke-opacity:0.1; fill:none" points="
  212.353,1178.9 2321.26,1178.9 
  "/>
<polyline clip-path="url(#clip9403)" style="stroke:#000000; stroke-width:2; stroke-opacity:0.1; fill:none" points="
  212.353,981.06 2321.26,981.06 
  "/>
<polyline clip-path="url(#clip9403)" style="stroke:#000000; stroke-width:2; stroke-opacity:0.1; fill:none" points="
  212.353,783.222 2321.26,783.222 
  "/>
<polyline clip-path="url(#clip9403)" style="stroke:#000000; stroke-width:2; stroke-opacity:0.1; fill:none" points="
  212.353,585.385 2321.26,585.385 
  "/>
<polyline clip-path="url(#clip9403)" style="stroke:#000000; stroke-width:2; stroke-opacity:0.1; fill:none" points="
  212.353,387.548 2321.26,387.548 
  "/>
<polyline clip-path="url(#clip9403)" style="stroke:#000000; stroke-width:2; stroke-opacity:0.1; fill:none" points="
  212.353,189.71 2321.26,189.71 
  "/>
<polyline clip-path="url(#clip9401)" style="stroke:#000000; stroke-width:4; stroke-opacity:1; fill:none" points="
  212.353,1440.48 2321.26,1440.48 
  "/>
<polyline clip-path="url(#clip9401)" style="stroke:#000000; stroke-width:4; stroke-opacity:1; fill:none" points="
  212.353,1440.48 212.353,125.984 
  "/>
<polyline clip-path="url(#clip9401)" style="stroke:#000000; stroke-width:4; stroke-opacity:1; fill:none" points="
  316.873,1440.48 316.873,1420.77 
  "/>
<polyline clip-path="url(#clip9401)" style="stroke:#000000; stroke-width:4; stroke-opacity:1; fill:none" points="
  633.518,1440.48 633.518,1420.77 
  "/>
<polyline clip-path="url(#clip9401)" style="stroke:#000000; stroke-width:4; stroke-opacity:1; fill:none" points="
  950.162,1440.48 950.162,1420.77 
  "/>
<polyline clip-path="url(#clip9401)" style="stroke:#000000; stroke-width:4; stroke-opacity:1; fill:none" points="
  1266.81,1440.48 1266.81,1420.77 
  "/>
<polyline clip-path="url(#clip9401)" style="stroke:#000000; stroke-width:4; stroke-opacity:1; fill:none" points="
  1583.45,1440.48 1583.45,1420.77 
  "/>
<polyline clip-path="url(#clip9401)" style="stroke:#000000; stroke-width:4; stroke-opacity:1; fill:none" points="
  1900.09,1440.48 1900.09,1420.77 
  "/>
<polyline clip-path="url(#clip9401)" style="stroke:#000000; stroke-width:4; stroke-opacity:1; fill:none" points="
  2216.74,1440.48 2216.74,1420.77 
  "/>
<polyline clip-path="url(#clip9401)" style="stroke:#000000; stroke-width:4; stroke-opacity:1; fill:none" points="
  212.353,1376.73 243.986,1376.73 
  "/>
<polyline clip-path="url(#clip9401)" style="stroke:#000000; stroke-width:4; stroke-opacity:1; fill:none" points="
  212.353,1178.9 243.986,1178.9 
  "/>
<polyline clip-path="url(#clip9401)" style="stroke:#000000; stroke-width:4; stroke-opacity:1; fill:none" points="
  212.353,981.06 243.986,981.06 
  "/>
<polyline clip-path="url(#clip9401)" style="stroke:#000000; stroke-width:4; stroke-opacity:1; fill:none" points="
  212.353,783.222 243.986,783.222 
  "/>
<polyline clip-path="url(#clip9401)" style="stroke:#000000; stroke-width:4; stroke-opacity:1; fill:none" points="
  212.353,585.385 243.986,585.385 
  "/>
<polyline clip-path="url(#clip9401)" style="stroke:#000000; stroke-width:4; stroke-opacity:1; fill:none" points="
  212.353,387.548 243.986,387.548 
  "/>
<polyline clip-path="url(#clip9401)" style="stroke:#000000; stroke-width:4; stroke-opacity:1; fill:none" points="
  212.353,189.71 243.986,189.71 
  "/>
<g clip-path="url(#clip9401)">
<text style="fill:#000000; fill-opacity:1; font-family:Arial,Helvetica Neue,Helvetica,sans-serif; font-size:48px; text-anchor:middle;" transform="rotate(0, 316.873, 1494.48)" x="316.873" y="1494.48">-3</text>
</g>
<g clip-path="url(#clip9401)">
<text style="fill:#000000; fill-opacity:1; font-family:Arial,Helvetica Neue,Helvetica,sans-serif; font-size:48px; text-anchor:middle;" transform="rotate(0, 633.518, 1494.48)" x="633.518" y="1494.48">-2</text>
</g>
<g clip-path="url(#clip9401)">
<text style="fill:#000000; fill-opacity:1; font-family:Arial,Helvetica Neue,Helvetica,sans-serif; font-size:48px; text-anchor:middle;" transform="rotate(0, 950.162, 1494.48)" x="950.162" y="1494.48">-1</text>
</g>
<g clip-path="url(#clip9401)">
<text style="fill:#000000; fill-opacity:1; font-family:Arial,Helvetica Neue,Helvetica,sans-serif; font-size:48px; text-anchor:middle;" transform="rotate(0, 1266.81, 1494.48)" x="1266.81" y="1494.48">0</text>
</g>
<g clip-path="url(#clip9401)">
<text style="fill:#000000; fill-opacity:1; font-family:Arial,Helvetica Neue,Helvetica,sans-serif; font-size:48px; text-anchor:middle;" transform="rotate(0, 1583.45, 1494.48)" x="1583.45" y="1494.48">1</text>
</g>
<g clip-path="url(#clip9401)">
<text style="fill:#000000; fill-opacity:1; font-family:Arial,Helvetica Neue,Helvetica,sans-serif; font-size:48px; text-anchor:middle;" transform="rotate(0, 1900.09, 1494.48)" x="1900.09" y="1494.48">2</text>
</g>
<g clip-path="url(#clip9401)">
<text style="fill:#000000; fill-opacity:1; font-family:Arial,Helvetica Neue,Helvetica,sans-serif; font-size:48px; text-anchor:middle;" transform="rotate(0, 2216.74, 1494.48)" x="2216.74" y="1494.48">3</text>
</g>
<g clip-path="url(#clip9401)">
<text style="fill:#000000; fill-opacity:1; font-family:Arial,Helvetica Neue,Helvetica,sans-serif; font-size:48px; text-anchor:end;" transform="rotate(0, 188.353, 1394.23)" x="188.353" y="1394.23">-3</text>
</g>
<g clip-path="url(#clip9401)">
<text style="fill:#000000; fill-opacity:1; font-family:Arial,Helvetica Neue,Helvetica,sans-serif; font-size:48px; text-anchor:end;" transform="rotate(0, 188.353, 1196.4)" x="188.353" y="1196.4">-2</text>
</g>
<g clip-path="url(#clip9401)">
<text style="fill:#000000; fill-opacity:1; font-family:Arial,Helvetica Neue,Helvetica,sans-serif; font-size:48px; text-anchor:end;" transform="rotate(0, 188.353, 998.56)" x="188.353" y="998.56">-1</text>
</g>
<g clip-path="url(#clip9401)">
<text style="fill:#000000; fill-opacity:1; font-family:Arial,Helvetica Neue,Helvetica,sans-serif; font-size:48px; text-anchor:end;" transform="rotate(0, 188.353, 800.722)" x="188.353" y="800.722">0</text>
</g>
<g clip-path="url(#clip9401)">
<text style="fill:#000000; fill-opacity:1; font-family:Arial,Helvetica Neue,Helvetica,sans-serif; font-size:48px; text-anchor:end;" transform="rotate(0, 188.353, 602.885)" x="188.353" y="602.885">1</text>
</g>
<g clip-path="url(#clip9401)">
<text style="fill:#000000; fill-opacity:1; font-family:Arial,Helvetica Neue,Helvetica,sans-serif; font-size:48px; text-anchor:end;" transform="rotate(0, 188.353, 405.048)" x="188.353" y="405.048">2</text>
</g>
<g clip-path="url(#clip9401)">
<text style="fill:#000000; fill-opacity:1; font-family:Arial,Helvetica Neue,Helvetica,sans-serif; font-size:48px; text-anchor:end;" transform="rotate(0, 188.353, 207.21)" x="188.353" y="207.21">3</text>
</g>
<g clip-path="url(#clip9401)">
<text style="fill:#000000; fill-opacity:1; font-family:Arial,Helvetica Neue,Helvetica,sans-serif; font-size:84px; text-anchor:middle;" transform="rotate(0, 1266.81, 73.2)" x="1266.81" y="73.2">Phase</text>
</g>
<g clip-path="url(#clip9401)">
<text style="fill:#000000; fill-opacity:1; font-family:Arial,Helvetica Neue,Helvetica,sans-serif; font-size:66px; text-anchor:middle;" transform="rotate(0, 1266.81, 1590.4)" x="1266.81" y="1590.4">k</text>
</g>
<g clip-path="url(#clip9401)">
<text style="fill:#000000; fill-opacity:1; font-family:Arial,Helvetica Neue,Helvetica,sans-serif; font-size:66px; text-anchor:middle;" transform="rotate(-90, 57.6, 783.233)" x="57.6" y="783.233">angle</text>
</g>
<polyline clip-path="url(#clip9403)" style="stroke:#aa8e38; stroke-width:20; stroke-opacity:1; fill:none" points="
  272.039,627.841 278.395,625.855 284.751,623.87 291.108,621.884 297.464,619.898 303.82,617.913 310.177,615.927 316.533,613.941 322.89,611.956 329.246,609.97 
  335.602,607.984 341.959,605.998 348.315,604.013 354.671,602.027 361.028,600.041 367.384,598.056 373.74,596.07 380.097,594.084 386.453,592.099 392.809,590.113 
  399.166,588.127 405.522,586.141 411.878,584.156 418.235,582.17 424.591,580.184 430.947,578.199 437.304,576.213 443.66,574.227 450.016,572.242 456.373,570.256 
  462.729,568.27 469.085,566.284 475.442,564.299 481.798,562.313 488.154,560.327 494.511,558.342 500.867,556.356 507.223,554.37 513.58,552.385 519.936,550.399 
  526.292,548.413 532.649,546.427 539.005,544.442 545.361,542.456 551.718,540.47 558.074,538.485 564.431,536.499 570.787,534.513 577.143,532.528 583.5,530.542 
  589.856,528.556 596.212,526.57 602.569,524.585 608.925,522.599 615.281,520.613 621.638,518.628 627.994,516.642 634.35,514.656 640.707,512.671 647.063,510.685 
  653.419,508.699 659.776,506.713 666.132,504.728 672.488,502.742 678.845,500.756 685.201,498.771 691.557,496.785 697.914,494.799 704.27,492.813 710.626,490.828 
  716.983,488.842 723.339,486.856 729.695,484.871 736.052,482.885 742.408,480.899 748.764,478.914 755.121,476.928 761.477,474.942 767.833,472.956 774.19,470.971 
  780.546,468.985 786.902,466.999 793.259,465.014 799.615,463.028 805.972,461.042 812.328,459.057 818.684,457.071 825.041,455.085 831.397,453.099 837.753,451.114 
  844.11,449.128 850.466,447.142 856.822,445.157 863.179,443.171 869.535,441.185 875.891,439.2 882.248,437.214 888.604,435.228 894.96,433.242 901.317,431.257 
  907.673,429.271 914.029,427.285 920.386,425.3 926.742,423.314 933.098,421.328 939.455,419.343 945.811,417.357 952.167,415.371 958.524,413.385 964.88,411.4 
  971.236,409.414 977.593,407.428 983.949,405.443 990.305,403.457 996.662,401.471 1003.02,399.486 1009.37,397.5 1015.73,395.514 1022.09,393.528 1028.44,391.543 
  1034.8,389.557 1041.16,387.571 1047.51,385.586 1053.87,383.6 1060.23,381.614 1066.58,379.629 1072.94,377.643 1079.29,375.657 1085.65,373.671 1092.01,371.686 
  1098.36,369.7 1104.72,367.714 1111.08,365.729 1117.43,363.743 1123.79,361.757 1130.14,359.771 1136.5,357.786 1142.86,355.8 1149.21,353.814 1155.57,351.829 
  1161.93,349.843 1168.28,347.857 1174.64,345.872 1181,343.886 1187.35,341.9 1193.71,339.914 1200.06,337.929 1206.42,335.943 1212.78,333.957 1219.13,331.972 
  1225.49,329.986 1231.85,328 1238.2,326.015 1244.56,324.029 1250.92,322.043 1257.27,320.057 1263.63,318.072 1269.98,937.611 1276.34,935.625 1282.7,933.639 
  1289.05,931.654 1295.41,929.668 1301.77,927.682 1308.12,925.696 1314.48,923.711 1320.84,921.725 1327.19,919.739 1333.55,917.754 1339.9,915.768 1346.26,913.782 
  1352.62,911.797 1358.97,909.811 1365.33,907.825 1371.69,905.839 1378.04,903.854 1384.4,901.868 1390.75,899.882 1397.11,897.897 1403.47,895.911 1409.82,893.925 
  1416.18,891.94 1422.54,889.954 1428.89,887.968 1435.25,885.982 1441.61,883.997 1447.96,882.011 1454.32,880.025 1460.67,878.04 1467.03,876.054 1473.39,874.068 
  1479.74,872.082 1486.1,870.097 1492.46,868.111 1498.81,866.125 1505.17,864.14 1511.53,862.154 1517.88,860.168 1524.24,858.183 1530.59,856.197 1536.95,854.211 
  1543.31,852.225 1549.66,850.24 1556.02,848.254 1562.38,846.268 1568.73,844.283 1575.09,842.297 1581.45,840.311 1587.8,838.326 1594.16,836.34 1600.51,834.354 
  1606.87,832.368 1613.23,830.383 1619.58,828.397 1625.94,826.411 1632.3,824.426 1638.65,822.44 1645.01,820.454 1651.36,818.469 1657.72,816.483 1664.08,814.497 
  1670.43,812.511 1676.79,810.526 1683.15,808.54 1689.5,806.554 1695.86,804.569 1702.22,802.583 1708.57,800.597 1714.93,798.612 1721.28,796.626 1727.64,794.64 
  1734,792.654 1740.35,790.669 1746.71,788.683 1753.07,786.697 1759.42,784.712 1765.78,782.726 1772.14,780.74 1778.49,778.755 1784.85,776.769 1791.2,774.783 
  1797.56,772.797 1803.92,770.812 1810.27,768.826 1816.63,766.84 1822.99,764.855 1829.34,762.869 1835.7,760.883 1842.06,758.897 1848.41,756.912 1854.77,754.926 
  1861.12,752.94 1867.48,750.955 1873.84,748.969 1880.19,746.983 1886.55,744.998 1892.91,743.012 1899.26,741.026 1905.62,739.04 1911.97,737.055 1918.33,735.069 
  1924.69,733.083 1931.04,731.098 1937.4,729.112 1943.76,727.126 1950.11,725.141 1956.47,723.155 1962.83,721.169 1969.18,719.183 1975.54,717.198 1981.89,715.212 
  1988.25,713.226 1994.61,711.241 2000.96,709.255 2007.32,707.269 2013.68,705.284 2020.03,703.298 2026.39,701.312 2032.75,699.326 2039.1,697.341 2045.46,695.355 
  2051.81,693.369 2058.17,691.384 2064.53,689.398 2070.88,687.412 2077.24,685.427 2083.6,683.441 2089.95,681.455 2096.31,679.469 2102.67,677.484 2109.02,675.498 
  2115.38,673.512 2121.73,671.527 2128.09,669.541 2134.45,667.555 2140.8,665.57 2147.16,663.584 2153.52,661.598 2159.87,659.612 2166.23,657.627 2172.59,655.641 
  2178.94,653.655 2185.3,651.67 2191.65,649.684 2198.01,647.698 2204.37,645.713 2210.72,643.727 2217.08,641.741 2223.44,639.755 2229.79,637.77 2236.15,635.784 
  2242.5,633.798 2248.86,631.813 2255.22,629.827 2261.57,627.841 
  "/>
<polyline clip-path="url(#clip9403)" style="stroke:#592a71; stroke-width:20; stroke-opacity:1; fill:none" points="
  272.039,627.841 278.395,625.194 284.751,622.546 291.108,619.898 297.464,617.25 303.82,614.601 310.177,611.951 316.533,609.301 322.89,606.65 329.246,603.998 
  335.602,601.345 341.959,598.691 348.315,596.036 354.671,593.379 361.028,590.72 367.384,588.06 373.74,585.398 380.097,582.734 386.453,580.068 392.809,577.4 
  399.166,574.729 405.522,572.056 411.878,569.38 418.235,566.702 424.591,564.02 430.947,561.336 437.304,558.648 443.66,555.957 450.016,553.263 456.373,550.565 
  462.729,547.863 469.085,545.157 475.442,542.448 481.798,539.733 488.154,537.015 494.511,534.292 500.867,531.564 507.223,528.831 513.58,526.093 519.936,523.35 
  526.292,520.601 532.649,517.847 539.005,515.086 545.361,512.32 551.718,509.547 558.074,506.768 564.431,503.982 570.787,501.189 577.143,498.389 583.5,495.582 
  589.856,492.767 596.212,489.944 602.569,487.112 608.925,484.273 615.281,481.425 621.638,478.567 627.994,475.701 634.35,472.825 640.707,469.939 647.063,467.043 
  653.419,464.137 659.776,461.22 666.132,458.291 672.488,455.352 678.845,452.4 685.201,449.436 691.557,446.46 697.914,443.47 704.27,440.467 710.626,437.45 
  716.983,434.419 723.339,431.374 729.695,428.313 736.052,425.236 742.408,422.143 748.764,419.034 755.121,415.907 761.477,412.762 767.833,409.599 774.19,406.417 
  780.546,403.216 786.902,399.994 793.259,396.751 799.615,393.487 805.972,390.2 812.328,386.891 818.684,383.557 825.041,380.199 831.397,376.815 837.753,373.406 
  844.11,369.968 850.466,366.503 856.822,363.009 863.179,359.484 869.535,355.928 875.891,352.341 882.248,348.719 888.604,345.064 894.96,341.372 901.317,337.644 
  907.673,333.877 914.029,330.071 920.386,326.224 926.742,322.334 933.098,318.4 939.455,314.421 945.811,310.395 952.167,306.32 958.524,302.194 964.88,298.016 
  971.236,293.784 977.593,289.496 983.949,285.15 990.305,280.744 996.662,276.276 1003.02,271.744 1009.37,267.146 1015.73,262.479 1022.09,257.741 1028.44,252.929 
  1034.8,248.043 1041.16,243.078 1047.51,238.033 1053.87,232.905 1060.23,227.693 1066.58,222.392 1072.94,217.002 1079.29,211.52 1085.65,205.943 1092.01,200.269 
  1098.36,194.497 1104.72,188.624 1111.08,182.649 1117.43,176.57 1123.79,170.386 1130.14,164.095 1136.5,1400.75 1142.86,1394.24 1149.21,1387.63 1155.57,1380.91 
  1161.93,1374.08 1168.28,1367.15 1174.64,1360.12 1181,1352.98 1187.35,1345.75 1193.71,1338.42 1200.06,1331.01 1206.42,1323.51 1212.78,1315.93 1219.13,1308.28 
  1225.49,1300.56 1231.85,1292.79 1238.2,1284.96 1244.56,1277.1 1250.92,1269.2 1257.27,1261.27 1263.63,1253.34 1269.98,1245.39 1276.34,1237.46 1282.7,1229.53 
  1289.05,1221.63 1295.41,1213.77 1301.77,1205.94 1308.12,1198.17 1314.48,1190.45 1320.84,1182.8 1327.19,1175.22 1333.55,1167.72 1339.9,1160.31 1346.26,1152.98 
  1352.62,1145.75 1358.97,1138.61 1365.33,1131.58 1371.69,1124.65 1378.04,1117.82 1384.4,1111.1 1390.75,1104.49 1397.11,1097.99 1403.47,1091.59 1409.82,1085.3 
  1416.18,1079.11 1422.54,1073.03 1428.89,1067.06 1435.25,1061.19 1441.61,1055.41 1447.96,1049.74 1454.32,1044.16 1460.67,1038.68 1467.03,1033.29 1473.39,1027.99 
  1479.74,1022.78 1486.1,1017.65 1492.46,1012.6 1498.81,1007.64 1505.17,1002.75 1511.53,997.942 1517.88,993.204 1524.24,988.537 1530.59,983.938 1536.95,979.406 
  1543.31,974.938 1549.66,970.532 1556.02,966.186 1562.38,961.898 1568.73,957.666 1575.09,953.488 1581.45,949.363 1587.8,945.288 1594.16,941.261 1600.51,937.282 
  1606.87,933.349 1613.23,929.459 1619.58,925.612 1625.94,921.805 1632.3,918.039 1638.65,914.31 1645.01,910.619 1651.36,906.963 1657.72,903.342 1664.08,899.754 
  1670.43,896.198 1676.79,892.674 1683.15,889.179 1689.5,885.714 1695.86,882.277 1702.22,878.867 1708.57,875.483 1714.93,872.125 1721.28,868.792 1727.64,865.482 
  1734,862.195 1740.35,858.931 1746.71,855.688 1753.07,852.466 1759.42,849.265 1765.78,846.083 1772.14,842.92 1778.49,839.775 1784.85,836.649 1791.2,833.539 
  1797.56,830.446 1803.92,827.37 1810.27,824.309 1816.63,821.263 1822.99,818.232 1829.34,815.215 1835.7,812.212 1842.06,809.223 1848.41,806.246 1854.77,803.282 
  1861.12,800.331 1867.48,797.391 1873.84,794.463 1880.19,791.545 1886.55,788.639 1892.91,785.743 1899.26,782.857 1905.62,779.981 1911.97,777.115 1918.33,774.258 
  1924.69,771.409 1931.04,768.57 1937.4,765.739 1943.76,762.916 1950.11,760.101 1956.47,757.293 1962.83,754.493 1969.18,751.7 1975.54,748.914 1981.89,746.135 
  1988.25,743.362 1994.61,740.596 2000.96,737.836 2007.32,735.081 2013.68,732.333 2020.03,729.589 2026.39,726.851 2032.75,724.118 2039.1,721.391 2045.46,718.667 
  2051.81,715.949 2058.17,713.235 2064.53,710.525 2070.88,707.819 2077.24,705.117 2083.6,702.419 2089.95,699.725 2096.31,697.034 2102.67,694.347 2109.02,691.662 
  2115.38,688.981 2121.73,686.302 2128.09,683.627 2134.45,680.953 2140.8,678.283 2147.16,675.615 2153.52,672.948 2159.87,670.284 2166.23,667.622 2172.59,664.962 
  2178.94,662.304 2185.3,659.647 2191.65,656.991 2198.01,654.337 2204.37,651.684 2210.72,649.032 2217.08,646.381 2223.44,643.731 2229.79,641.082 2236.15,638.433 
  2242.5,635.785 2248.86,633.137 2255.22,630.489 2261.57,627.841 
  "/>
<polyline clip-path="url(#clip9403)" style="stroke:#4e918f; stroke-width:20; stroke-opacity:1; fill:none" points="
  272.039,627.841 278.395,626.517 284.751,625.194 291.108,623.87 297.464,622.547 303.82,621.225 310.177,619.903 316.533,618.581 322.89,617.261 329.246,615.941 
  335.602,614.623 341.959,613.306 348.315,611.99 354.671,610.675 361.028,609.363 367.384,608.051 373.74,606.742 380.097,605.435 386.453,604.129 392.809,602.826 
  399.166,601.525 405.522,600.227 411.878,598.931 418.235,597.639 424.591,596.348 430.947,595.061 437.304,593.778 443.66,592.497 450.016,591.22 456.373,589.947 
  462.729,588.677 469.085,587.412 475.442,586.15 481.798,584.893 488.154,583.64 494.511,582.391 500.867,581.148 507.223,579.909 513.58,578.676 519.936,577.448 
  526.292,576.225 532.649,575.008 539.005,573.797 545.361,572.592 551.718,571.393 558.074,570.201 564.431,569.016 570.787,567.837 577.143,566.666 583.5,565.502 
  589.856,564.346 596.212,563.197 602.569,562.057 608.925,560.925 615.281,559.802 621.638,558.688 627.994,557.583 634.35,556.487 640.707,555.402 647.063,554.326 
  653.419,553.261 659.776,552.207 666.132,551.164 672.488,550.132 678.845,549.113 685.201,548.105 691.557,547.11 697.914,546.128 704.27,545.16 710.626,544.205 
  716.983,543.265 723.339,542.339 729.695,541.429 736.052,540.534 742.408,539.655 748.764,538.793 755.121,537.949 761.477,537.122 767.833,536.314 774.19,535.524 
  780.546,534.754 786.902,534.005 793.259,533.276 799.615,532.569 805.972,531.884 812.328,531.222 818.684,530.584 825.041,529.971 831.397,529.383 837.753,528.822 
  844.11,528.288 850.466,527.782 856.822,527.305 863.179,526.858 869.535,526.442 875.891,526.059 882.248,525.708 888.604,525.393 894.96,525.113 901.317,524.87 
  907.673,524.665 914.029,524.5 920.386,524.376 926.742,524.294 933.098,524.256 939.455,524.264 945.811,524.319 952.167,524.423 958.524,524.577 964.88,524.783 
  971.236,525.044 977.593,525.36 983.949,525.735 990.305,526.169 996.662,526.666 1003.02,527.227 1009.37,527.854 1015.73,528.55 1022.09,529.316 1028.44,530.156 
  1034.8,531.071 1041.16,532.065 1047.51,533.138 1053.87,534.294 1060.23,535.536 1066.58,536.865 1072.94,538.283 1079.29,539.794 1085.65,541.4 1092.01,543.102 
  1098.36,544.903 1104.72,546.804 1111.08,548.808 1117.43,550.916 1123.79,553.129 1130.14,555.448 1136.5,557.874 1142.86,560.408 1149.21,563.05 1155.57,565.798 
  1161.93,568.653 1168.28,571.613 1174.64,574.675 1181,577.839 1187.35,581.099 1193.71,584.454 1200.06,587.898 1206.42,591.426 1212.78,595.033 1219.13,598.712 
  1225.49,602.457 1231.85,606.261 1238.2,610.114 1244.56,614.009 1250.92,617.938 1257.27,621.889 1263.63,625.856 1269.98,629.827 1276.34,633.793 1282.7,637.745 
  1289.05,641.673 1295.41,645.568 1301.77,649.422 1308.12,653.225 1314.48,656.97 1320.84,660.65 1327.19,664.257 1333.55,667.785 1339.9,671.229 1346.26,674.583 
  1352.62,677.844 1358.97,681.007 1365.33,684.07 1371.69,687.03 1378.04,689.884 1384.4,692.633 1390.75,695.274 1397.11,697.808 1403.47,700.235 1409.82,702.554 
  1416.18,704.767 1422.54,706.874 1428.89,708.878 1435.25,710.78 1441.61,712.58 1447.96,714.283 1454.32,715.888 1460.67,717.399 1467.03,718.818 1473.39,720.147 
  1479.74,721.388 1486.1,722.544 1492.46,723.618 1498.81,724.611 1505.17,725.526 1511.53,726.366 1517.88,727.133 1524.24,727.828 1530.59,728.456 1536.95,729.016 
  1543.31,729.513 1549.66,729.948 1556.02,730.322 1562.38,730.639 1568.73,730.899 1575.09,731.106 1581.45,731.26 1587.8,731.363 1594.16,731.418 1600.51,731.426 
  1606.87,731.388 1613.23,731.307 1619.58,731.183 1625.94,731.017 1632.3,730.813 1638.65,730.57 1645.01,730.29 1651.36,729.974 1657.72,729.624 1664.08,729.24 
  1670.43,728.825 1676.79,728.378 1683.15,727.901 1689.5,727.395 1695.86,726.86 1702.22,726.299 1708.57,725.711 1714.93,725.098 1721.28,724.46 1727.64,723.798 
  1734,723.114 1740.35,722.406 1746.71,721.678 1753.07,720.928 1759.42,720.158 1765.78,719.369 1772.14,718.56 1778.49,717.734 1784.85,716.889 1791.2,716.027 
  1797.56,715.149 1803.92,714.254 1810.27,713.343 1816.63,712.418 1822.99,711.477 1829.34,710.523 1835.7,709.554 1842.06,708.572 1848.41,707.577 1854.77,706.57 
  1861.12,705.55 1867.48,704.518 1873.84,703.475 1880.19,702.421 1886.55,701.356 1892.91,700.281 1899.26,699.195 1905.62,698.1 1911.97,696.995 1918.33,695.88 
  1924.69,694.757 1931.04,693.625 1937.4,692.485 1943.76,691.337 1950.11,690.18 1956.47,689.017 1962.83,687.845 1969.18,686.667 1975.54,685.481 1981.89,684.289 
  1988.25,683.09 1994.61,681.885 2000.96,680.674 2007.32,679.457 2013.68,678.235 2020.03,677.006 2026.39,675.773 2032.75,674.534 2039.1,673.291 2045.46,672.043 
  2051.81,670.79 2058.17,669.532 2064.53,668.271 2070.88,667.005 2077.24,665.736 2083.6,664.462 2089.95,663.185 2096.31,661.905 2102.67,660.621 2109.02,659.334 
  2115.38,658.044 2121.73,656.751 2128.09,655.455 2134.45,654.157 2140.8,652.856 2147.16,651.553 2153.52,650.248 2159.87,648.94 2166.23,647.631 2172.59,646.32 
  2178.94,645.007 2185.3,643.693 2191.65,642.377 2198.01,641.059 2204.37,639.741 2210.72,638.421 2217.08,637.101 2223.44,635.78 2229.79,634.458 2236.15,633.135 
  2242.5,631.812 2248.86,630.489 2255.22,629.165 2261.57,627.841 
  "/>
<polyline clip-path="url(#clip9403)" style="stroke:#300c43; stroke-width:20; stroke-opacity:1; fill:none" points="
  272.039,627.841 278.395,623.87 284.751,619.898 291.108,615.927 297.464,611.956 303.82,607.984 310.177,604.013 316.533,600.041 322.89,596.07 329.246,592.099 
  335.602,588.127 341.959,584.156 348.315,580.184 354.671,576.213 361.028,572.242 367.384,568.27 373.74,564.299 380.097,560.327 386.453,556.356 392.809,552.385 
  399.166,548.413 405.522,544.442 411.878,540.47 418.235,536.499 424.591,532.528 430.947,528.556 437.304,524.585 443.66,520.613 450.016,516.642 456.373,512.671 
  462.729,508.699 469.085,504.728 475.442,500.756 481.798,496.785 488.154,492.813 494.511,488.842 500.867,484.871 507.223,480.899 513.58,476.928 519.936,472.956 
  526.292,468.985 532.649,465.014 539.005,461.042 545.361,457.071 551.718,453.099 558.074,449.128 564.431,445.157 570.787,441.185 577.143,437.214 583.5,433.242 
  589.856,429.271 596.212,425.3 602.569,421.328 608.925,417.357 615.281,413.385 621.638,409.414 627.994,405.443 634.35,401.471 640.707,397.5 647.063,393.528 
  653.419,389.557 659.776,385.586 666.132,381.614 672.488,377.643 678.845,373.671 685.201,369.7 691.557,365.729 697.914,361.757 704.27,357.786 710.626,353.814 
  716.983,349.843 723.339,345.872 729.695,341.9 736.052,337.929 742.408,333.957 748.764,329.986 755.121,326.015 761.477,322.043 767.833,318.072 774.19,314.1 
  780.546,310.129 786.902,306.158 793.259,302.186 799.615,298.215 805.972,294.243 812.328,290.272 818.684,286.301 825.041,282.329 831.397,278.358 837.753,274.386 
  844.11,270.415 850.466,266.444 856.822,262.472 863.179,258.501 869.535,254.529 875.891,250.558 882.248,246.587 888.604,242.615 894.96,238.644 901.317,234.672 
  907.673,230.701 914.029,226.729 920.386,222.758 926.742,218.787 933.098,214.815 939.455,210.844 945.811,206.872 952.167,202.901 958.524,198.93 964.88,194.958 
  971.236,190.987 977.593,187.015 983.949,183.044 990.305,179.073 996.662,175.101 1003.02,171.13 1009.37,167.158 1015.73,163.187 1022.09,1402.26 1028.44,1398.29 
  1034.8,1394.32 1041.16,1390.35 1047.51,1386.38 1053.87,1382.41 1060.23,1378.44 1066.58,1374.46 1072.94,1370.49 1079.29,1366.52 1085.65,1362.55 1092.01,1358.58 
  1098.36,1354.61 1104.72,1350.64 1111.08,1346.67 1117.43,1342.69 1123.79,1338.72 1130.14,1334.75 1136.5,1330.78 1142.86,1326.81 1149.21,1322.84 1155.57,1318.87 
  1161.93,1314.89 1168.28,1310.92 1174.64,1306.95 1181,1302.98 1187.35,1299.01 1193.71,1295.04 1200.06,1291.07 1206.42,1287.09 1212.78,1283.12 1219.13,1279.15 
  1225.49,1275.18 1231.85,1271.21 1238.2,1267.24 1244.56,1263.27 1250.92,1259.29 1257.27,1255.32 1263.63,1251.35 1269.98,1247.38 1276.34,1243.41 1282.7,1239.44 
  1289.05,1235.47 1295.41,1231.49 1301.77,1227.52 1308.12,1223.55 1314.48,1219.58 1320.84,1215.61 1327.19,1211.64 1333.55,1207.67 1339.9,1203.69 1346.26,1199.72 
  1352.62,1195.75 1358.97,1191.78 1365.33,1187.81 1371.69,1183.84 1378.04,1179.87 1384.4,1175.89 1390.75,1171.92 1397.11,1167.95 1403.47,1163.98 1409.82,1160.01 
  1416.18,1156.04 1422.54,1152.07 1428.89,1148.1 1435.25,1144.12 1441.61,1140.15 1447.96,1136.18 1454.32,1132.21 1460.67,1128.24 1467.03,1124.27 1473.39,1120.3 
  1479.74,1116.32 1486.1,1112.35 1492.46,1108.38 1498.81,1104.41 1505.17,1100.44 1511.53,1096.47 1517.88,1092.5 1524.24,1088.52 1530.59,1084.55 1536.95,1080.58 
  1543.31,1076.61 1549.66,1072.64 1556.02,1068.67 1562.38,1064.7 1568.73,1060.72 1575.09,1056.75 1581.45,1052.78 1587.8,1048.81 1594.16,1044.84 1600.51,1040.87 
  1606.87,1036.9 1613.23,1032.92 1619.58,1028.95 1625.94,1024.98 1632.3,1021.01 1638.65,1017.04 1645.01,1013.07 1651.36,1009.1 1657.72,1005.12 1664.08,1001.15 
  1670.43,997.182 1676.79,993.21 1683.15,989.239 1689.5,985.267 1695.86,981.296 1702.22,977.325 1708.57,973.353 1714.93,969.382 1721.28,965.41 1727.64,961.439 
  1734,957.468 1740.35,953.496 1746.71,949.525 1753.07,945.553 1759.42,941.582 1765.78,937.611 1772.14,933.639 1778.49,929.668 1784.85,925.696 1791.2,921.725 
  1797.56,917.754 1803.92,913.782 1810.27,909.811 1816.63,905.839 1822.99,901.868 1829.34,897.897 1835.7,893.925 1842.06,889.954 1848.41,885.982 1854.77,882.011 
  1861.12,878.04 1867.48,874.068 1873.84,870.097 1880.19,866.125 1886.55,862.154 1892.91,858.183 1899.26,854.211 1905.62,850.24 1911.97,846.268 1918.33,842.297 
  1924.69,838.326 1931.04,834.354 1937.4,830.383 1943.76,826.411 1950.11,822.44 1956.47,818.469 1962.83,814.497 1969.18,810.526 1975.54,806.554 1981.89,802.583 
  1988.25,798.612 1994.61,794.64 2000.96,790.669 2007.32,786.697 2013.68,782.726 2020.03,778.755 2026.39,774.783 2032.75,770.812 2039.1,766.84 2045.46,762.869 
  2051.81,758.897 2058.17,754.926 2064.53,750.955 2070.88,746.983 2077.24,743.012 2083.6,739.04 2089.95,735.069 2096.31,731.098 2102.67,727.126 2109.02,723.155 
  2115.38,719.183 2121.73,715.212 2128.09,711.241 2134.45,707.269 2140.8,703.298 2147.16,699.326 2153.52,695.355 2159.87,691.384 2166.23,687.412 2172.59,683.441 
  2178.94,679.469 2185.3,675.498 2191.65,671.527 2198.01,667.555 2204.37,663.584 2210.72,659.612 2217.08,655.641 2223.44,651.67 2229.79,647.698 2236.15,643.727 
  2242.5,639.755 2248.86,635.784 2255.22,631.813 2261.57,627.841 
  "/>
<polyline clip-path="url(#clip9403)" style="stroke:#226764; stroke-width:20; stroke-opacity:1; fill:none" points="
  272.039,627.841 278.395,627.841 284.751,627.841 291.108,627.841 297.464,627.841 303.82,627.841 310.177,627.841 316.533,627.841 322.89,627.841 329.246,627.841 
  335.602,627.841 341.959,627.841 348.315,627.841 354.671,627.841 361.028,627.841 367.384,627.841 373.74,627.841 380.097,627.841 386.453,627.841 392.809,627.841 
  399.166,627.841 405.522,627.841 411.878,627.841 418.235,627.841 424.591,627.841 430.947,627.841 437.304,627.841 443.66,627.841 450.016,627.841 456.373,627.841 
  462.729,627.841 469.085,627.841 475.442,627.841 481.798,627.841 488.154,627.841 494.511,627.841 500.867,627.841 507.223,627.841 513.58,627.841 519.936,627.841 
  526.292,627.841 532.649,627.841 539.005,627.841 545.361,627.841 551.718,627.841 558.074,627.841 564.431,627.841 570.787,627.841 577.143,627.841 583.5,627.841 
  589.856,627.841 596.212,627.841 602.569,627.841 608.925,627.841 615.281,627.841 621.638,627.841 627.994,627.841 634.35,627.841 640.707,627.841 647.063,627.841 
  653.419,627.841 659.776,627.841 666.132,627.841 672.488,627.841 678.845,627.841 685.201,627.841 691.557,627.841 697.914,627.841 704.27,627.841 710.626,627.841 
  716.983,627.841 723.339,627.841 729.695,627.841 736.052,627.841 742.408,627.841 748.764,627.841 755.121,627.841 761.477,627.841 767.833,627.841 774.19,627.841 
  780.546,627.841 786.902,627.841 793.259,627.841 799.615,627.841 805.972,627.841 812.328,627.841 818.684,627.841 825.041,627.841 831.397,627.841 837.753,627.841 
  844.11,627.841 850.466,627.841 856.822,627.841 863.179,627.841 869.535,627.841 875.891,627.841 882.248,627.841 888.604,627.841 894.96,627.841 901.317,627.841 
  907.673,627.841 914.029,627.841 920.386,627.841 926.742,627.841 933.098,627.841 939.455,627.841 945.811,627.841 952.167,627.841 958.524,627.841 964.88,627.841 
  971.236,627.841 977.593,627.841 983.949,627.841 990.305,627.841 996.662,627.841 1003.02,627.841 1009.37,627.841 1015.73,627.841 1022.09,627.841 1028.44,627.841 
  1034.8,627.841 1041.16,627.841 1047.51,627.841 1053.87,627.841 1060.23,627.841 1066.58,627.841 1072.94,627.841 1079.29,627.841 1085.65,627.841 1092.01,627.841 
  1098.36,627.841 1104.72,627.841 1111.08,627.841 1117.43,627.841 1123.79,627.841 1130.14,627.841 1136.5,627.841 1142.86,627.841 1149.21,627.841 1155.57,627.841 
  1161.93,627.841 1168.28,627.841 1174.64,627.841 1181,627.841 1187.35,627.841 1193.71,627.841 1200.06,627.841 1206.42,627.841 1212.78,627.841 1219.13,627.841 
  1225.49,627.841 1231.85,627.841 1238.2,627.841 1244.56,627.841 1250.92,627.841 1257.27,627.841 1263.63,627.841 1269.98,627.841 1276.34,627.841 1282.7,627.841 
  1289.05,627.841 1295.41,627.841 1301.77,627.841 1308.12,627.841 1314.48,627.841 1320.84,627.841 1327.19,627.841 1333.55,627.841 1339.9,627.841 1346.26,627.841 
  1352.62,627.841 1358.97,627.841 1365.33,627.841 1371.69,627.841 1378.04,627.841 1384.4,627.841 1390.75,627.841 1397.11,627.841 1403.47,627.841 1409.82,627.841 
  1416.18,627.841 1422.54,627.841 1428.89,627.841 1435.25,627.841 1441.61,627.841 1447.96,627.841 1454.32,627.841 1460.67,627.841 1467.03,627.841 1473.39,627.841 
  1479.74,627.841 1486.1,627.841 1492.46,627.841 1498.81,627.841 1505.17,627.841 1511.53,627.841 1517.88,627.841 1524.24,627.841 1530.59,627.841 1536.95,627.841 
  1543.31,627.841 1549.66,627.841 1556.02,627.841 1562.38,627.841 1568.73,627.841 1575.09,627.841 1581.45,627.841 1587.8,627.841 1594.16,627.841 1600.51,627.841 
  1606.87,627.841 1613.23,627.841 1619.58,627.841 1625.94,627.841 1632.3,627.841 1638.65,627.841 1645.01,627.841 1651.36,627.841 1657.72,627.841 1664.08,627.841 
  1670.43,627.841 1676.79,627.841 1683.15,627.841 1689.5,627.841 1695.86,627.841 1702.22,627.841 1708.57,627.841 1714.93,627.841 1721.28,627.841 1727.64,627.841 
  1734,627.841 1740.35,627.841 1746.71,627.841 1753.07,627.841 1759.42,627.841 1765.78,627.841 1772.14,627.841 1778.49,627.841 1784.85,627.841 1791.2,627.841 
  1797.56,627.841 1803.92,627.841 1810.27,627.841 1816.63,627.841 1822.99,627.841 1829.34,627.841 1835.7,627.841 1842.06,627.841 1848.41,627.841 1854.77,627.841 
  1861.12,627.841 1867.48,627.841 1873.84,627.841 1880.19,627.841 1886.55,627.841 1892.91,627.841 1899.26,627.841 1905.62,627.841 1911.97,627.841 1918.33,627.841 
  1924.69,627.841 1931.04,627.841 1937.4,627.841 1943.76,627.841 1950.11,627.841 1956.47,627.841 1962.83,627.841 1969.18,627.841 1975.54,627.841 1981.89,627.841 
  1988.25,627.841 1994.61,627.841 2000.96,627.841 2007.32,627.841 2013.68,627.841 2020.03,627.841 2026.39,627.841 2032.75,627.841 2039.1,627.841 2045.46,627.841 
  2051.81,627.841 2058.17,627.841 2064.53,627.841 2070.88,627.841 2077.24,627.841 2083.6,627.841 2089.95,627.841 2096.31,627.841 2102.67,627.841 2109.02,627.841 
  2115.38,627.841 2121.73,627.841 2128.09,627.841 2134.45,627.841 2140.8,627.841 2147.16,627.841 2153.52,627.841 2159.87,627.841 2166.23,627.841 2172.59,627.841 
  2178.94,627.841 2185.3,627.841 2191.65,627.841 2198.01,627.841 2204.37,627.841 2210.72,627.841 2217.08,627.841 2223.44,627.841 2229.79,627.841 2236.15,627.841 
  2242.5,627.841 2248.86,627.841 2255.22,627.841 2261.57,627.841 
  "/>
<polyline clip-path="url(#clip9403)" style="stroke:#cca7df; stroke-width:20; stroke-opacity:1; fill:none" points="
  272.039,627.841 278.395,625.458 284.751,623.075 291.108,620.692 297.464,618.309 303.82,615.925 310.177,613.541 316.533,611.157 322.89,608.772 329.246,606.386 
  335.602,604 341.959,601.613 348.315,599.225 354.671,596.836 361.028,594.446 367.384,592.055 373.74,589.663 380.097,587.269 386.453,584.874 392.809,582.478 
  399.166,580.08 405.522,577.681 411.878,575.28 418.235,572.877 424.591,570.472 430.947,568.065 437.304,565.656 443.66,563.245 450.016,560.832 456.373,558.416 
  462.729,555.998 469.085,553.577 475.442,551.154 481.798,548.728 488.154,546.298 494.511,543.866 500.867,541.431 507.223,538.992 513.58,536.55 519.936,534.105 
  526.292,531.655 532.649,529.202 539.005,526.745 545.361,524.285 551.718,521.819 558.074,519.35 564.431,516.876 570.787,514.397 577.143,511.914 583.5,509.425 
  589.856,506.932 596.212,504.433 602.569,501.928 608.925,499.418 615.281,496.902 621.638,494.38 627.994,491.851 634.35,489.316 640.707,486.774 647.063,484.226 
  653.419,481.67 659.776,479.106 666.132,476.535 672.488,473.956 678.845,471.369 685.201,468.773 691.557,466.168 697.914,463.554 704.27,460.931 710.626,458.297 
  716.983,455.654 723.339,453 729.695,450.335 736.052,447.659 742.408,444.972 748.764,442.272 755.121,439.559 761.477,436.834 767.833,434.095 774.19,431.342 
  780.546,428.574 786.902,425.791 793.259,422.993 799.615,420.178 805.972,417.347 812.328,414.498 818.684,411.63 825.041,408.744 831.397,405.837 837.753,402.91 
  844.11,399.962 850.466,396.991 856.822,393.997 863.179,390.978 869.535,387.935 875.891,384.864 882.248,381.766 888.604,378.64 894.96,375.483 901.317,372.294 
  907.673,369.073 914.029,365.817 920.386,362.525 926.742,359.195 933.098,355.825 939.455,352.414 945.811,348.959 952.167,345.458 958.524,341.91 964.88,338.31 
  971.236,334.657 977.593,330.949 983.949,327.181 990.305,323.351 996.662,319.456 1003.02,315.492 1009.37,311.454 1015.73,307.34 1022.09,303.145 1028.44,298.863 
  1034.8,294.491 1041.16,290.023 1047.51,285.453 1053.87,280.775 1060.23,275.982 1066.58,271.069 1072.94,266.028 1079.29,260.85 1085.65,255.529 1092.01,250.054 
  1098.36,244.418 1104.72,238.61 1111.08,232.62 1117.43,226.437 1123.79,220.051 1130.14,213.45 1136.5,206.622 1142.86,199.555 1149.21,192.237 1155.57,184.657 
  1161.93,176.803 1168.28,168.664 1174.64,1403.28 1181,1394.54 1187.35,1385.5 1193.71,1376.14 1200.06,1366.46 1206.42,1356.48 1212.78,1346.19 1219.13,1335.6 
  1225.49,1324.74 1231.85,1313.62 1238.2,1302.27 1244.56,1290.73 1250.92,1279.03 1257.27,1267.21 1263.63,1255.32 1269.98,1243.41 1276.34,1231.52 1282.7,1219.7 
  1289.05,1208 1295.41,1196.46 1301.77,1185.11 1308.12,1173.99 1314.48,1163.13 1320.84,1152.54 1327.19,1142.25 1333.55,1132.27 1339.9,1122.59 1346.26,1113.23 
  1352.62,1104.19 1358.97,1095.45 1365.33,1087.02 1371.69,1078.88 1378.04,1071.03 1384.4,1063.45 1390.75,1056.13 1397.11,1049.06 1403.47,1042.23 1409.82,1035.63 
  1416.18,1029.25 1422.54,1023.06 1428.89,1017.07 1435.25,1011.26 1441.61,1005.63 1447.96,1000.15 1454.32,994.832 1460.67,989.654 1467.03,984.613 1473.39,979.7 
  1479.74,974.908 1486.1,970.23 1492.46,965.66 1498.81,961.191 1505.17,956.819 1511.53,952.538 1517.88,948.342 1524.24,944.228 1530.59,940.191 1536.95,936.226 
  1543.31,932.331 1549.66,928.501 1556.02,924.734 1562.38,921.025 1568.73,917.372 1575.09,913.773 1581.45,910.224 1587.8,906.723 1594.16,903.268 1600.51,899.857 
  1606.87,896.488 1613.23,893.158 1619.58,889.866 1625.94,886.61 1632.3,883.388 1638.65,880.2 1645.01,877.043 1651.36,873.916 1657.72,870.818 1664.08,867.748 
  1670.43,864.704 1676.79,861.686 1683.15,858.691 1689.5,855.721 1695.86,852.772 1702.22,849.845 1708.57,846.939 1714.93,844.052 1721.28,841.185 1727.64,838.336 
  1734,835.504 1740.35,832.689 1746.71,829.891 1753.07,827.108 1759.42,824.341 1765.78,821.588 1772.14,818.849 1778.49,816.123 1784.85,813.411 1791.2,810.711 
  1797.56,808.023 1803.92,805.347 1810.27,802.682 1816.63,800.028 1822.99,797.385 1829.34,794.752 1835.7,792.128 1842.06,789.515 1848.41,786.91 1854.77,784.314 
  1861.12,781.726 1867.48,779.147 1873.84,776.576 1880.19,774.013 1886.55,771.457 1892.91,768.908 1899.26,766.366 1905.62,763.831 1911.97,761.303 1918.33,758.781 
  1924.69,756.264 1931.04,753.754 1937.4,751.25 1943.76,748.751 1950.11,746.257 1956.47,743.769 1962.83,741.285 1969.18,738.807 1975.54,736.333 1981.89,733.863 
  1988.25,731.398 1994.61,728.937 2000.96,726.48 2007.32,724.027 2013.68,721.578 2020.03,719.132 2026.39,716.69 2032.75,714.252 2039.1,711.816 2045.46,709.384 
  2051.81,706.955 2058.17,704.529 2064.53,702.105 2070.88,699.684 2077.24,697.266 2083.6,694.85 2089.95,692.437 2096.31,690.026 2102.67,687.617 2109.02,685.21 
  2115.38,682.806 2121.73,680.403 2128.09,678.001 2134.45,675.602 2140.8,673.204 2147.16,670.808 2153.52,668.413 2159.87,666.02 2166.23,663.627 2172.59,661.236 
  2178.94,658.846 2185.3,656.458 2191.65,654.07 2198.01,651.682 2204.37,649.296 2210.72,646.911 2217.08,644.525 2223.44,642.141 2229.79,639.757 2236.15,637.373 
  2242.5,634.99 2248.86,632.607 2255.22,630.224 2261.57,627.841 
  "/>
<polyline clip-path="url(#clip9403)" style="stroke:#a0d9d7; stroke-width:20; stroke-opacity:1; fill:none" points="
  272.039,627.841 278.395,626.253 284.751,624.664 291.108,623.076 297.464,621.488 303.82,619.9 310.177,618.313 316.533,616.726 322.89,615.139 329.246,613.554 
  335.602,611.968 341.959,610.384 348.315,608.801 354.671,607.218 361.028,605.637 367.384,604.056 373.74,602.477 380.097,600.899 386.453,599.323 392.809,597.748 
  399.166,596.174 405.522,594.602 411.878,593.032 418.235,591.463 424.591,589.897 430.947,588.332 437.304,586.77 443.66,585.209 450.016,583.651 456.373,582.095 
  462.729,580.542 469.085,578.992 475.442,577.444 481.798,575.899 488.154,574.356 494.511,572.817 500.867,571.281 507.223,569.748 513.58,568.219 519.936,566.693 
  526.292,565.171 532.649,563.653 539.005,562.138 545.361,560.628 551.718,559.121 558.074,557.619 564.431,556.122 570.787,554.629 577.143,553.141 583.5,551.658 
  589.856,550.181 596.212,548.708 602.569,547.241 608.925,545.78 615.281,544.325 621.638,542.876 627.994,541.433 634.35,539.996 640.707,538.567 647.063,537.144 
  653.419,535.729 659.776,534.321 666.132,532.92 672.488,531.528 678.845,530.144 685.201,528.769 691.557,527.402 697.914,526.044 704.27,524.696 710.626,523.358 
  716.983,522.03 723.339,520.713 729.695,519.406 736.052,518.111 742.408,516.827 748.764,515.556 755.121,514.297 761.477,513.051 767.833,511.818 774.19,510.6 
  780.546,509.396 786.902,508.207 793.259,507.034 799.615,505.877 805.972,504.738 812.328,503.615 818.684,502.512 825.041,501.427 831.397,500.362 837.753,499.317 
  844.11,498.294 850.466,497.294 856.822,496.316 863.179,495.364 869.535,494.436 875.891,493.535 882.248,492.661 888.604,491.817 894.96,491.002 901.317,490.219 
  907.673,489.469 914.029,488.754 920.386,488.075 926.742,487.433 933.098,486.831 939.455,486.271 945.811,485.755 952.167,485.284 958.524,484.861 964.88,484.489 
  971.236,484.171 977.593,483.908 983.949,483.704 990.305,483.563 996.662,483.487 1003.02,483.479 1009.37,483.545 1015.73,483.688 1022.09,483.912 1028.44,484.222 
  1034.8,484.623 1041.16,485.12 1047.51,485.719 1053.87,486.425 1060.23,487.246 1066.58,488.188 1072.94,489.258 1079.29,490.464 1085.65,491.814 1092.01,493.317 
  1098.36,494.982 1104.72,496.819 1111.08,498.837 1117.43,501.049 1123.79,503.464 1130.14,506.093 1136.5,508.95 1142.86,512.045 1149.21,515.392 1155.57,519 
  1161.93,522.883 1168.28,527.05 1174.64,531.513 1181,536.278 1187.35,541.352 1193.71,546.74 1200.06,552.443 1206.42,558.457 1212.78,564.777 1219.13,571.391 
  1225.49,578.283 1231.85,585.431 1238.2,592.807 1244.56,600.378 1250.92,608.108 1257.27,615.954 1263.63,623.871 1269.98,631.812 1276.34,639.728 1282.7,647.574 
  1289.05,655.304 1295.41,662.876 1301.77,670.252 1308.12,677.399 1314.48,684.291 1320.84,690.905 1327.19,697.225 1333.55,703.24 1339.9,708.942 1346.26,714.33 
  1352.62,719.405 1358.97,724.17 1365.33,728.632 1371.69,732.8 1378.04,736.682 1384.4,740.291 1390.75,743.637 1397.11,746.732 1403.47,749.589 1409.82,752.219 
  1416.18,754.634 1422.54,756.845 1428.89,758.864 1435.25,760.7 1441.61,762.365 1447.96,763.869 1454.32,765.219 1460.67,766.425 1467.03,767.495 1473.39,768.436 
  1479.74,769.257 1486.1,769.964 1492.46,770.563 1498.81,771.06 1505.17,771.46 1511.53,771.77 1517.88,771.994 1524.24,772.137 1530.59,772.203 1536.95,772.196 
  1543.31,772.12 1549.66,771.978 1556.02,771.774 1562.38,771.512 1568.73,771.193 1575.09,770.821 1581.45,770.399 1587.8,769.928 1594.16,769.411 1600.51,768.851 
  1606.87,768.249 1613.23,767.608 1619.58,766.929 1625.94,766.213 1632.3,765.463 1638.65,764.68 1645.01,763.866 1651.36,763.021 1657.72,762.148 1664.08,761.246 
  1670.43,760.319 1676.79,759.366 1683.15,758.389 1689.5,757.388 1695.86,756.365 1702.22,755.321 1708.57,754.256 1714.93,753.171 1721.28,752.067 1727.64,750.945 
  1734,749.805 1740.35,748.648 1746.71,747.475 1753.07,746.286 1759.42,745.083 1765.78,743.864 1772.14,742.632 1778.49,741.386 1784.85,740.127 1791.2,738.855 
  1797.56,737.572 1803.92,736.276 1810.27,734.97 1816.63,733.652 1822.99,732.324 1829.34,730.986 1835.7,729.638 1842.06,728.28 1848.41,726.914 1854.77,725.538 
  1861.12,724.154 1867.48,722.762 1873.84,721.362 1880.19,719.954 1886.55,718.538 1892.91,717.116 1899.26,715.686 1905.62,714.25 1911.97,712.807 1918.33,711.358 
  1924.69,709.902 1931.04,708.441 1937.4,706.974 1943.76,705.502 1950.11,704.024 1956.47,702.541 1962.83,701.053 1969.18,699.56 1975.54,698.063 1981.89,696.561 
  1988.25,695.055 1994.61,693.544 2000.96,692.03 2007.32,690.511 2013.68,688.989 2020.03,687.463 2026.39,685.934 2032.75,684.401 2039.1,682.865 2045.46,681.326 
  2051.81,679.784 2058.17,678.239 2064.53,676.691 2070.88,675.14 2077.24,673.587 2083.6,672.031 2089.95,670.473 2096.31,668.913 2102.67,667.35 2109.02,665.786 
  2115.38,664.219 2121.73,662.651 2128.09,661.08 2134.45,659.508 2140.8,657.935 2147.16,656.36 2153.52,654.783 2159.87,653.205 2166.23,651.626 2172.59,650.046 
  2178.94,648.464 2185.3,646.882 2191.65,645.298 2198.01,643.714 2204.37,642.129 2210.72,640.543 2217.08,638.957 2223.44,637.37 2229.79,635.782 2236.15,634.195 
  2242.5,632.607 2248.86,631.018 2255.22,629.43 2261.57,627.841 
  "/>
<polygon clip-path="url(#clip9401)" points="
1720.27,693.344 2249.26,693.344 2249.26,209.504 1720.27,209.504 
  " fill="#ffffff" fill-rule="evenodd" fill-opacity="1"/>
<polyline clip-path="url(#clip9401)" style="stroke:#000000; stroke-width:4; stroke-opacity:1; fill:none" points="
  1720.27,693.344 2249.26,693.344 2249.26,209.504 1720.27,209.504 1720.27,693.344 
  "/>
<polyline clip-path="url(#clip9401)" style="stroke:#aa8e38; stroke-width:20; stroke-opacity:1; fill:none" points="
  1744.27,269.984 1888.27,269.984 
  "/>
<g clip-path="url(#clip9401)">
<text style="fill:#000000; fill-opacity:1; font-family:Arial,Helvetica Neue,Helvetica,sans-serif; font-size:48px; text-anchor:start;" transform="rotate(0, 1912.27, 287.484)" x="1912.27" y="287.484">v=1.0 , w=1.0</text>
</g>
<polyline clip-path="url(#clip9401)" style="stroke:#592a71; stroke-width:20; stroke-opacity:1; fill:none" points="
  1744.27,330.464 1888.27,330.464 
  "/>
<g clip-path="url(#clip9401)">
<text style="fill:#000000; fill-opacity:1; font-family:Arial,Helvetica Neue,Helvetica,sans-serif; font-size:48px; text-anchor:start;" transform="rotate(0, 1912.27, 347.964)" x="1912.27" y="347.964">v=0.5 , w=1.0</text>
</g>
<polyline clip-path="url(#clip9401)" style="stroke:#4e918f; stroke-width:20; stroke-opacity:1; fill:none" points="
  1744.27,390.944 1888.27,390.944 
  "/>
<g clip-path="url(#clip9401)">
<text style="fill:#000000; fill-opacity:1; font-family:Arial,Helvetica Neue,Helvetica,sans-serif; font-size:48px; text-anchor:start;" transform="rotate(0, 1912.27, 408.444)" x="1912.27" y="408.444">v=1.0 , w=0.5</text>
</g>
<polyline clip-path="url(#clip9401)" style="stroke:#300c43; stroke-width:20; stroke-opacity:1; fill:none" points="
  1744.27,451.424 1888.27,451.424 
  "/>
<g clip-path="url(#clip9401)">
<text style="fill:#000000; fill-opacity:1; font-family:Arial,Helvetica Neue,Helvetica,sans-serif; font-size:48px; text-anchor:start;" transform="rotate(0, 1912.27, 468.924)" x="1912.27" y="468.924">v=0.0 , w=0.5</text>
</g>
<polyline clip-path="url(#clip9401)" style="stroke:#226764; stroke-width:20; stroke-opacity:1; fill:none" points="
  1744.27,511.904 1888.27,511.904 
  "/>
<g clip-path="url(#clip9401)">
<text style="fill:#000000; fill-opacity:1; font-family:Arial,Helvetica Neue,Helvetica,sans-serif; font-size:48px; text-anchor:start;" transform="rotate(0, 1912.27, 529.404)" x="1912.27" y="529.404">v=0.5 , w=0.0</text>
</g>
<polyline clip-path="url(#clip9401)" style="stroke:#cca7df; stroke-width:20; stroke-opacity:1; fill:none" points="
  1744.27,572.384 1888.27,572.384 
  "/>
<g clip-path="url(#clip9401)">
<text style="fill:#000000; fill-opacity:1; font-family:Arial,Helvetica Neue,Helvetica,sans-serif; font-size:48px; text-anchor:start;" transform="rotate(0, 1912.27, 589.884)" x="1912.27" y="589.884">v=0.4 , w=0.6</text>
</g>
<polyline clip-path="url(#clip9401)" style="stroke:#a0d9d7; stroke-width:20; stroke-opacity:1; fill:none" points="
  1744.27,632.864 1888.27,632.864 
  "/>
<g clip-path="url(#clip9401)">
<text style="fill:#000000; fill-opacity:1; font-family:Arial,Helvetica Neue,Helvetica,sans-serif; font-size:48px; text-anchor:start;" transform="rotate(0, 1912.27, 650.364)" x="1912.27" y="650.364">v=0.6 , w=0.4</text>
</g>
</svg>
